M48
; DRILL file {KiCad (5.1.4)-1} date 10/20/2019 3:21:13 PM
; FORMAT={-:-/ absolute / inch / decimal}
; #@! TF.CreationDate,2019-10-20T15:21:13+05:30
; #@! TF.GenerationSoftware,Kicad,Pcbnew,(5.1.4)-1
; #@! TF.FileFunction,Plated,1,2,PTH
FMAT,2
INCH
T1C0.0098
T2C0.0118
T3C0.0236
T4C0.0300
T5C0.0335
T6C0.0394
T7C0.0591
T8C0.0669
%
G90
G05
T1
X3.1598Y-2.9661
X3.1606Y-2.9252
X3.3465Y-2.926
X3.3472Y-2.9661
X3.6154Y-3.5772
X3.6304Y-3.6172
X3.6854Y-3.6172
X3.7354Y-3.6172
X3.7759Y-2.9404
X3.7759Y-3.0704
X3.7809Y-3.0354
X3.7809Y-3.1054
X3.7854Y-3.6172
X3.7914Y-3.2154
X3.8359Y-2.9204
X3.8404Y-3.6172
X3.8409Y-3.1229
X3.8504Y-3.5822
X3.8514Y-3.2104
X3.8554Y-3.5472
X3.8859Y-3.1054
X3.9009Y-2.9404
X3.9054Y-3.5472
X3.9059Y-3.0254
X3.9059Y-3.0604
X3.9114Y-3.3804
X3.9164Y-3.2204
X3.9214Y-3.3479
X3.9309Y-3.1054
X3.9554Y-3.5472
X3.9709Y-2.9204
X3.9759Y-3.1254
X3.9864Y-3.2104
X4.0054Y-3.5472
X4.0109Y-3.1054
X4.0309Y-3.0254
X4.0359Y-2.9404
X4.0364Y-3.3804
X4.0409Y-3.0604
X4.0414Y-3.2204
X4.0414Y-3.3104
X4.0464Y-3.3404
X4.0504Y-3.5472
X4.0814Y-3.2054
X4.0909Y-2.9204
X4.0909Y-3.0454
X4.0914Y-3.3354
X4.1004Y-3.5472
X4.1054Y-3.5822
X4.1359Y-3.0404
X4.1414Y-3.2104
X4.1414Y-3.3304
X4.1567Y-3.7638
X4.1567Y-3.9134
X4.1709Y-2.9204
X4.1759Y-3.0454
X4.1914Y-3.2054
X4.1914Y-3.3354
X4.2173Y-3.9433
X4.2181Y-3.7378
X4.2254Y-3.6122
X4.2804Y-3.6122
X4.2827Y-3.7638
X4.2827Y-3.9142
X4.2859Y-2.9204
X4.2859Y-3.0454
X4.2914Y-3.3304
X4.2964Y-3.2054
X4.3304Y-3.5722
X4.3304Y-3.6072
X4.3414Y-3.3304
X4.3504Y-3.5422
X4.3509Y-2.9204
X4.3509Y-3.0454
X4.3664Y-3.2054
X4.3824Y-3.3504
X4.3859Y-3.0654
X4.3859Y-3.1054
X4.3959Y-2.9304
X4.4054Y-3.5422
X4.4259Y-3.1254
X4.4264Y-3.2104
X4.4509Y-2.9254
X4.4604Y-3.5422
X4.4759Y-3.1254
X4.4864Y-3.2104
X4.5059Y-2.9354
X4.5154Y-3.5422
X4.5159Y-3.1104
X4.5164Y-3.3404
X4.5164Y-3.3854
X4.5209Y-3.0304
X4.5209Y-3.0754
X4.5214Y-3.3104
X4.5364Y-3.2154
X4.555Y-4.4
X4.555Y-4.45
X4.5754Y-3.5422
X4.5954Y-3.5722
X4.6054Y-3.6122
X4.62Y-4.345
X4.62Y-4.505
X4.6209Y-2.9354
X4.6359Y-3.1104
X4.6414Y-3.2154
X4.6464Y-3.3954
X4.6509Y-3.0304
X4.6509Y-3.0704
X4.6514Y-3.3154
X4.6514Y-3.3554
X4.665Y-4.505
X4.6654Y-3.6172
X4.67Y-4.345
X4.6709Y-2.9354
X4.7009Y-3.0304
X4.7054Y-3.6122
X4.7209Y-2.9354
X4.7504Y-3.6172
X4.8004Y-3.6122
X4.805Y-4.38
X4.805Y-4.475
X4.8154Y-3.5322
X4.8154Y-3.5722
X4.84Y-4.355
X4.86Y-4.475
X4.88Y-4.315
X4.905Y-4.435
X4.92Y-4.275
X4.94Y-4.395
X4.97Y-4.27
X4.975Y-4.365
X5.015Y-4.255
X5.015Y-4.39
X5.065Y-4.39
X5.075Y-4.255
X5.12Y-4.39
X5.13Y-4.25
X5.165Y-4.375
X5.172Y-2.725
X5.18Y-3.87
X5.18Y-4.27
X5.185Y-3.83
X5.185Y-3.915
X5.185Y-3.965
X5.185Y-4.015
X5.185Y-4.07
X5.185Y-4.18
X5.185Y-4.225
X5.2Y-4.38
X5.227Y-2.78
X5.23Y-3.805
X5.24Y-4.39
X5.28Y-3.805
X5.295Y-3.945
X5.295Y-4.075
X5.295Y-4.385
X5.315Y-4.23
X5.33Y-3.805
X5.34Y-4.265
X5.34Y-4.375
X5.375Y-4.235
X5.385Y-3.815
X5.385Y-4.37
X5.39Y-3.86
X5.39Y-3.91
X5.39Y-3.96
X5.39Y-4.015
X5.39Y-4.065
X5.39Y-4.11
X5.4Y-3.7675
X5.4075Y-3.72
X5.41Y-4.2
X5.415Y-4.15
X5.43Y-4.33
X5.47Y-4.29
X5.51Y-4.25
X5.52Y-4.2
X5.525Y-4.15
X5.5275Y-3.8975
X5.5275Y-3.935
X5.5275Y-3.965
X5.53Y-3.585
X5.53Y-3.72
X5.535Y-3.755
X5.535Y-4.0275
X5.535Y-4.07
X5.535Y-4.11
X5.5375Y-3.8025
X5.54Y-3.52
X5.54Y-3.8475
X5.55Y-3.555
X5.55Y-3.9975
X5.565Y-3.935
X5.565Y-3.965
X5.5675Y-4.15
X5.575Y-3.72
X5.575Y-4.0275
X5.575Y-4.07
X5.575Y-4.11
X5.59Y-3.9975
X5.595Y-3.52
X5.6Y-3.555
X5.605Y-3.935
X5.605Y-3.965
X5.61Y-4.0275
X5.61Y-4.07
X5.61Y-4.11
X5.61Y-4.15
X5.62Y-3.59
X5.62Y-3.72
T2
X4.2173Y-3.7951
X4.2173Y-3.8821
T4
X3.2362Y-3.3244
X3.5362Y-3.2244
X3.5362Y-3.3244
X3.5362Y-3.4244
X3.5362Y-3.5244
X4.915Y-3.215
X4.915Y-3.315
X4.915Y-3.415
X4.915Y-3.515
X5.215Y-3.415
T5
X3.4747Y-4.4362
X3.6716Y-4.4362
T6
X5.363Y-3.3031
X5.463Y-3.3031
X3.9532Y-4.4819
X4.0532Y-4.4819
X4.1532Y-4.4819
X4.2532Y-4.4819
X5.4425Y-2.78
X5.5425Y-2.78
X5.0625Y-3.91
X5.0625Y-4.01
X3.422Y-2.4823
X3.422Y-2.5823
X3.522Y-2.4823
X3.522Y-2.5823
X3.622Y-2.4823
X3.622Y-2.5823
X3.722Y-2.4823
X3.722Y-2.5823
X3.822Y-2.4823
X3.822Y-2.5823
X3.922Y-2.4823
X3.922Y-2.5823
X4.022Y-2.4823
X4.022Y-2.5823
X4.122Y-2.4823
X4.122Y-2.5823
X4.222Y-2.4823
X4.222Y-2.5823
X4.322Y-2.4823
X4.322Y-2.5823
X4.422Y-2.4823
X4.422Y-2.5823
X4.522Y-2.4823
X4.522Y-2.5823
X4.622Y-2.4823
X4.622Y-2.5823
X4.722Y-2.4823
X4.722Y-2.5823
X4.822Y-2.4823
X4.822Y-2.5823
X4.922Y-2.4823
X4.922Y-2.5823
X5.022Y-2.4823
X5.022Y-2.5823
X5.122Y-2.4823
X5.122Y-2.5823
X5.222Y-2.4823
X5.222Y-2.5823
X5.322Y-2.4823
X5.322Y-2.5823
X3.3724Y-2.7094
X3.4724Y-2.7094
T7
X3.2551Y-2.948
X3.8189Y-3.8394
X4.645Y-4.4275
X5.465Y-3.5525
X4.622Y-3.8386
T8
X5.365Y-3.4525
X5.365Y-3.6525
X5.565Y-3.4525
X5.565Y-3.6525
X3.1551Y-2.848
X3.1551Y-3.048
X3.3551Y-2.848
X3.3551Y-3.048
X4.522Y-3.7386
X4.522Y-3.9386
X4.722Y-3.7386
X4.722Y-3.9386
X3.7189Y-3.7394
X3.7189Y-3.9394
X3.9189Y-3.7394
X3.9189Y-3.9394
X4.545Y-4.3275
X4.545Y-4.5275
X4.745Y-4.3275
X4.745Y-4.5275
T3
G00X3.4353Y-4.5563
M15
G01X3.4353Y-4.5287
M16
G05
G00X3.7109Y-4.5287
M15
G01X3.7109Y-4.5563
M16
G05
T0
M30
