M48
; DRILL file {KiCad (5.1.4)-1} date 9/24/2019 11:14:57 AM
; FORMAT={-:-/ absolute / inch / decimal}
; #@! TF.CreationDate,2019-09-24T11:14:57+05:30
; #@! TF.GenerationSoftware,Kicad,Pcbnew,(5.1.4)-1
; #@! TF.FileFunction,Plated,1,4,PTH
FMAT,2
INCH
T1C0.0098
T2C0.0118
T3C0.0236
T4C0.0335
T5C0.0394
T6C0.0591
T7C0.0669
%
G90
G05
T1
X3.125Y-3.2
X3.13Y-3.0
X3.13Y-3.045
X3.155Y-2.845
X3.165Y-3.205
X3.1725Y-3.755
X3.175Y-3.0
X3.175Y-3.045
X3.2Y-2.805
X3.2Y-2.845
X3.205Y-3.18
X3.205Y-3.22
X3.205Y-3.265
X3.205Y-3.315
X3.21Y-2.765
X3.21Y-3.365
X3.23Y-2.73
X3.25Y-3.405
X3.26Y-2.7
X3.3Y-2.675
X3.305Y-3.22
X3.305Y-3.27
X3.31Y-2.845
X3.315Y-2.805
X3.32Y-3.48
X3.325Y-3.315
X3.34Y-3.0
X3.34Y-3.05
X3.34Y-3.2
X3.345Y-2.675
X3.345Y-2.775
X3.355Y-3.515
X3.36Y-2.845
X3.39Y-2.675
X3.39Y-2.775
X3.39Y-3.0
X3.39Y-3.05
X3.395Y-3.2
X3.405Y-3.405
X3.405Y-3.525
X3.41Y-2.865
X3.41Y-3.675
X3.425Y-2.955
X3.425Y-3.165
X3.43Y-3.085
X3.435Y-2.675
X3.435Y-2.91
X3.435Y-3.125
X3.44Y-2.775
X3.45Y-3.415
X3.455Y-3.525
X3.48Y-2.675
X3.485Y-2.775
X3.495Y-3.41
X3.505Y-3.535
X3.525Y-2.675
X3.53Y-2.775
X3.54Y-2.995
X3.54Y-3.04
X3.54Y-3.09
X3.54Y-3.145
X3.54Y-3.19
X3.5425Y-3.325
X3.5425Y-3.36
X3.5425Y-3.4
X3.55Y-4.1875
X3.5525Y-4.0875
X3.5525Y-4.1375
X3.5525Y-4.2375
X3.56Y-3.545
X3.575Y-2.675
X3.58Y-2.775
X3.5825Y-3.9275
X3.6Y-3.325
X3.6Y-3.36
X3.6Y-3.4
X3.61Y-3.835
X3.62Y-2.675
X3.625Y-2.775
X3.6275Y-4.0925
X3.635Y-3.0
X3.635Y-3.05
X3.635Y-3.1
X3.65Y-3.875
X3.655Y-2.665
X3.6646Y-3.3254
X3.6646Y-3.3604
X3.665Y-2.96
X3.665Y-3.4
X3.675Y-3.07
X3.68Y-2.64
X3.68Y-3.7
X3.69Y-3.915
X3.695Y-3.74
X3.7Y-2.925
X3.715Y-3.79
X3.72Y-3.05
X3.72Y-3.325
X3.72Y-3.36
X3.72Y-3.4
X3.725Y-2.73
X3.725Y-3.15
X3.7275Y-3.54
X3.73Y-3.955
X3.735Y-2.885
X3.745Y-3.82
X3.75Y-3.74
X3.755Y-2.7
X3.76Y-3.2025
X3.7618Y-3.2582
X3.765Y-3.145
X3.77Y-2.635
X3.77Y-2.67
X3.77Y-3.85
X3.77Y-3.98
X3.775Y-3.05
X3.785Y-2.885
X3.8Y-3.74
X3.81Y-3.145
X3.82Y-2.79
X3.82Y-2.92
X3.825Y-2.885
X3.825Y-2.955
X3.825Y-3.175
X3.83Y-2.7025
X3.83Y-3.05
X3.85Y-3.74
X3.88Y-2.77
X3.885Y-2.9725
X3.89Y-3.045
X3.905Y-3.74
X3.915Y-3.705
X3.915Y-3.85
X3.92Y-3.67
X3.92Y-4.01
X3.93Y-2.955
X3.945Y-2.79
X3.95Y-2.875
X3.95Y-2.91
X3.95Y-3.215
X3.955Y-3.055
X3.96Y-3.1825
X3.965Y-3.85
X3.965Y-4.01
X3.97Y-3.67
X3.975Y-2.955
X4.015Y-2.77
X4.02Y-2.975
X4.02Y-3.67
X4.025Y-3.045
X4.025Y-3.9
X4.03Y-3.95
X4.055Y-2.955
X4.07Y-3.67
X4.075Y-2.875
X4.075Y-3.215
X4.0775Y-3.325
X4.08Y-2.79
X4.08Y-3.055
X4.08Y-3.145
X4.085Y-2.91
X4.085Y-3.175
X4.115Y-3.67
X4.12Y-3.04
X4.13Y-3.17
X4.135Y-2.77
X4.135Y-2.895
X4.165Y-3.67
X4.17Y-3.705
X4.18Y-2.89
X4.18Y-3.045
X4.18Y-3.165
X4.215Y-2.77
X4.22Y-2.895
X4.23Y-3.04
X4.23Y-3.17
X4.29Y-3.735
X4.33Y-2.77
X4.33Y-2.895
X4.33Y-3.165
X4.335Y-3.04
X4.345Y-3.735
X4.38Y-3.165
X4.395Y-2.77
X4.395Y-2.895
X4.395Y-3.695
X4.395Y-3.73
X4.405Y-3.04
X4.415Y-3.665
X4.421Y-3.185
X4.43Y-2.915
X4.43Y-2.955
X4.44Y-2.78
X4.465Y-3.045
X4.47Y-2.975
X4.47Y-3.405
X4.47Y-3.665
X4.49Y-3.895
X4.49Y-3.95
X4.495Y-2.775
X4.5025Y-3.51
X4.52Y-2.975
X4.525Y-3.045
X4.525Y-3.665
X4.535Y-3.85
X4.535Y-4.005
X4.55Y-2.785
X4.555Y-3.175
X4.555Y-3.22
X4.555Y-4.4
X4.555Y-4.45
X4.56Y-2.96
X4.56Y-3.145
X4.565Y-2.88
X4.565Y-2.925
X4.569Y-3.274
X4.575Y-3.05
X4.58Y-3.665
X4.59Y-3.85
X4.595Y-4.005
X4.62Y-4.345
X4.62Y-4.505
X4.64Y-3.665
X4.66Y-3.695
X4.665Y-2.785
X4.665Y-4.505
X4.67Y-3.735
X4.67Y-4.345
X4.68Y-2.96
X4.68Y-3.05
X4.685Y-3.23
X4.69Y-3.15
X4.69Y-3.19
X4.695Y-2.88
X4.695Y-2.92
X4.715Y-2.785
X4.73Y-3.055
X4.73Y-3.74
X4.735Y-3.78
X4.735Y-3.98
X4.74Y-3.15
X4.745Y-2.88
X4.745Y-3.815
X4.755Y-3.865
X4.765Y-2.785
X4.765Y-3.42
X4.77Y-3.735
X4.78Y-3.055
X4.78Y-3.15
X4.78Y-3.975
X4.79Y-2.89
X4.795Y-3.385
X4.795Y-3.825
X4.805Y-4.38
X4.805Y-4.475
X4.81Y-2.785
X4.815Y-3.74
X4.82Y-3.935
X4.825Y-2.925
X4.825Y-3.18
X4.825Y-3.32
X4.825Y-3.355
X4.83Y-3.055
X4.83Y-3.79
X4.835Y-3.395
X4.84Y-4.355
X4.855Y-2.805
X4.86Y-2.96
X4.86Y-4.475
X4.865Y-3.735
X4.865Y-3.89
X4.875Y-2.995
X4.875Y-3.04
X4.875Y-3.085
X4.88Y-3.32
X4.88Y-3.355
X4.88Y-3.395
X4.88Y-3.655
X4.88Y-3.695
X4.88Y-4.315
X4.89Y-2.84
X4.905Y-4.435
X4.91Y-3.845
X4.915Y-3.635
X4.915Y-3.68
X4.92Y-4.275
X4.925Y-2.875
X4.94Y-3.32
X4.94Y-3.355
X4.94Y-3.395
X4.94Y-4.395
X4.955Y-3.8
X4.96Y-2.91
X4.97Y-4.27
X4.975Y-4.365
X4.98Y-2.95
X4.98Y-2.995
X4.98Y-3.045
X4.98Y-3.095
X4.98Y-3.15
X4.995Y-3.32
X4.995Y-3.355
X4.995Y-3.395
X5.0Y-3.75
X5.01Y-3.53
X5.01Y-3.585
X5.01Y-3.64
X5.01Y-3.695
X5.015Y-3.18
X5.015Y-4.255
X5.015Y-4.39
X5.065Y-3.2
X5.065Y-3.3
X5.065Y-4.39
X5.075Y-4.255
X5.11Y-3.2
X5.115Y-3.3
X5.12Y-4.39
X5.13Y-4.25
X5.155Y-3.2
X5.165Y-3.3
X5.165Y-4.375
X5.172Y-2.725
X5.18Y-3.87
X5.18Y-4.27
X5.185Y-3.83
X5.185Y-3.915
X5.185Y-3.965
X5.185Y-4.015
X5.185Y-4.07
X5.185Y-4.18
X5.185Y-4.225
X5.2Y-4.38
X5.227Y-2.78
X5.23Y-3.805
X5.24Y-4.39
X5.27Y-3.2
X5.275Y-3.3
X5.28Y-3.805
X5.295Y-3.945
X5.295Y-4.075
X5.295Y-4.385
X5.315Y-3.59
X5.315Y-4.23
X5.325Y-3.305
X5.33Y-3.2
X5.33Y-3.555
X5.33Y-3.805
X5.335Y-3.52
X5.34Y-4.265
X5.34Y-4.375
X5.37Y-3.345
X5.375Y-4.235
X5.38Y-3.21
X5.38Y-3.555
X5.385Y-3.815
X5.385Y-4.37
X5.39Y-3.86
X5.39Y-3.91
X5.39Y-3.96
X5.39Y-4.015
X5.39Y-4.065
X5.39Y-4.11
X5.395Y-3.52
X5.395Y-3.585
X5.4Y-3.7675
X5.4075Y-3.72
X5.41Y-4.2
X5.415Y-3.245
X5.415Y-3.39
X5.415Y-4.15
X5.43Y-4.33
X5.455Y-3.285
X5.47Y-4.29
X5.495Y-3.325
X5.51Y-4.25
X5.52Y-3.36
X5.52Y-4.2
X5.525Y-4.15
X5.5275Y-3.8975
X5.5275Y-3.935
X5.5275Y-3.965
X5.53Y-3.585
X5.53Y-3.72
X5.535Y-3.755
X5.535Y-4.0275
X5.535Y-4.07
X5.535Y-4.11
X5.5375Y-3.8025
X5.54Y-3.38
X5.54Y-3.52
X5.54Y-3.8475
X5.545Y-3.325
X5.55Y-3.555
X5.55Y-3.9975
X5.565Y-3.36
X5.565Y-3.935
X5.565Y-3.965
X5.5675Y-4.15
X5.575Y-3.72
X5.575Y-4.0275
X5.575Y-4.07
X5.575Y-4.11
X5.59Y-3.325
X5.59Y-3.385
X5.59Y-3.9975
X5.595Y-3.52
X5.6Y-3.555
X5.605Y-3.935
X5.605Y-3.965
X5.61Y-3.36
X5.61Y-4.0275
X5.61Y-4.07
X5.61Y-4.11
X5.61Y-4.15
X5.62Y-3.59
X5.62Y-3.72
T2
X5.335Y-2.78
T4
X3.4747Y-4.4362
X3.6716Y-4.4362
T5
X3.93Y-3.445
X4.03Y-3.445
X3.422Y-2.4823
X3.422Y-2.5823
X3.522Y-2.4823
X3.522Y-2.5823
X3.622Y-2.4823
X3.622Y-2.5823
X3.722Y-2.4823
X3.722Y-2.5823
X3.822Y-2.4823
X3.822Y-2.5823
X3.922Y-2.4823
X3.922Y-2.5823
X4.022Y-2.4823
X4.022Y-2.5823
X4.122Y-2.4823
X4.122Y-2.5823
X4.222Y-2.4823
X4.222Y-2.5823
X4.322Y-2.4823
X4.322Y-2.5823
X4.422Y-2.4823
X4.422Y-2.5823
X4.522Y-2.4823
X4.522Y-2.5823
X4.622Y-2.4823
X4.622Y-2.5823
X4.722Y-2.4823
X4.722Y-2.5823
X4.822Y-2.4823
X4.822Y-2.5823
X4.922Y-2.4823
X4.922Y-2.5823
X5.022Y-2.4823
X5.022Y-2.5823
X5.122Y-2.4823
X5.122Y-2.5823
X5.222Y-2.4823
X5.222Y-2.5823
X5.322Y-2.4823
X5.322Y-2.5823
X4.1825Y-3.445
X4.2825Y-3.445
X4.3825Y-3.445
X4.0675Y-4.2225
X4.0675Y-4.3225
X4.0675Y-4.4225
X4.0675Y-4.5225
X5.0625Y-3.91
X5.0625Y-4.01
X4.215Y-4.2225
X4.215Y-4.3225
X4.215Y-4.4225
X4.215Y-4.5225
X5.4425Y-2.78
X5.5425Y-2.78
X4.1825Y-3.3225
X4.2825Y-3.3225
X4.3825Y-3.3225
X3.17Y-3.655
X3.27Y-3.655
T6
X3.9425Y-3.93
X5.465Y-3.5525
X4.565Y-3.93
X4.645Y-4.4275
X3.255Y-3.0275
T7
X3.155Y-2.9275
X3.155Y-3.1275
X3.355Y-2.9275
X3.355Y-3.1275
X3.8425Y-3.83
X3.8425Y-4.03
X4.0425Y-3.83
X4.0425Y-4.03
X5.365Y-3.4525
X5.365Y-3.6525
X5.565Y-3.4525
X5.565Y-3.6525
X4.465Y-3.83
X4.465Y-4.03
X4.665Y-3.83
X4.665Y-4.03
X4.545Y-4.3275
X4.545Y-4.5275
X4.745Y-4.3275
X4.745Y-4.5275
T3
G00X3.4353Y-4.5563
M15
G01X3.4353Y-4.5287
M16
G05
G00X3.7109Y-4.5287
M15
G01X3.7109Y-4.5563
M16
G05
T0
M30
