G04 #@! TF.GenerationSoftware,KiCad,Pcbnew,(5.1.4)-1*
G04 #@! TF.CreationDate,2019-10-20T15:20:57+05:30*
G04 #@! TF.ProjectId,RPi Hat RF Transmitter V1,52506920-4861-4742-9052-46205472616e,rev?*
G04 #@! TF.SameCoordinates,Original*
G04 #@! TF.FileFunction,Copper,L2,Bot*
G04 #@! TF.FilePolarity,Positive*
%FSLAX46Y46*%
G04 Gerber Fmt 4.6, Leading zero omitted, Abs format (unit mm)*
G04 Created by KiCad (PCBNEW (5.1.4)-1) date 2019-10-20 15:20:57*
%MOMM*%
%LPD*%
G04 APERTURE LIST*
%ADD10C,0.150000*%
%ADD11O,1.700000X1.700000*%
%ADD12R,1.700000X1.700000*%
%ADD13O,1.200000X1.900000*%
%ADD14C,1.450000*%
%ADD15C,0.610000*%
%ADD16C,1.524000*%
%ADD17C,2.250000*%
%ADD18C,2.050000*%
%ADD19C,3.000000*%
%ADD20C,0.500000*%
%ADD21C,0.250000*%
%ADD22C,0.200000*%
G04 APERTURE END LIST*
D10*
X78546356Y-63817611D02*
X78546356Y-113817611D01*
X140546356Y-60817611D02*
X81546356Y-60817611D01*
X143546351Y-113822847D02*
X143546356Y-63817611D01*
X81546356Y-116817611D02*
X140546356Y-116817611D01*
X78546356Y-63817611D02*
G75*
G02X81546356Y-60817611I3000000J0D01*
G01*
X140546356Y-60817611D02*
G75*
G02X143546356Y-63817611I0J-3000000D01*
G01*
X81546356Y-116817611D02*
G75*
G02X78546356Y-113817611I0J3000000D01*
G01*
X143546351Y-113822847D02*
G75*
G02X140546356Y-116817611I-2999995J5236D01*
G01*
D11*
X138760000Y-83900000D03*
D12*
X136220000Y-83900000D03*
D11*
X88200000Y-68820000D03*
D12*
X85660000Y-68820000D03*
D13*
X94257500Y-115379500D03*
X87257500Y-115379500D03*
D14*
X93257500Y-112679500D03*
X88257500Y-112679500D03*
D15*
X107120000Y-96395000D03*
X107120000Y-98605000D03*
D16*
X89820000Y-81900000D03*
X89820000Y-84440000D03*
X89820000Y-86980000D03*
X89820000Y-89520000D03*
X82200000Y-84440000D03*
X124840000Y-89280000D03*
X124840000Y-86740000D03*
X124840000Y-84200000D03*
X124840000Y-81660000D03*
X132460000Y-86740000D03*
D17*
X120523000Y-114998500D03*
X115443000Y-114998500D03*
X115443000Y-109918500D03*
X120523000Y-109918500D03*
D18*
X117983000Y-112458500D03*
D17*
X80140000Y-77420000D03*
X80140000Y-72340000D03*
X85220000Y-72340000D03*
X85220000Y-77420000D03*
D18*
X82680000Y-74880000D03*
D17*
X136271000Y-87693500D03*
X141351000Y-87693500D03*
X141351000Y-92773500D03*
X136271000Y-92773500D03*
D18*
X138811000Y-90233500D03*
D17*
X119940000Y-94960000D03*
X119940000Y-100040000D03*
X114860000Y-100040000D03*
X114860000Y-94960000D03*
D18*
X117400000Y-97500000D03*
D17*
X99540000Y-94980000D03*
X99540000Y-100060000D03*
X94460000Y-100060000D03*
X94460000Y-94980000D03*
D18*
X97000000Y-97520000D03*
D11*
X140779500Y-70612000D03*
D12*
X138239500Y-70612000D03*
D11*
X128587500Y-101854000D03*
D12*
X128587500Y-99314000D03*
D11*
X108031500Y-113839000D03*
X105491500Y-113839000D03*
X102951500Y-113839000D03*
D12*
X100411500Y-113839000D03*
D11*
X135180000Y-63050000D03*
X135180000Y-65590000D03*
X132640000Y-63050000D03*
X132640000Y-65590000D03*
X130100000Y-63050000D03*
X130100000Y-65590000D03*
X127560000Y-63050000D03*
X127560000Y-65590000D03*
X125020000Y-63050000D03*
X125020000Y-65590000D03*
X122480000Y-63050000D03*
X122480000Y-65590000D03*
X119940000Y-63050000D03*
X119940000Y-65590000D03*
X117400000Y-63050000D03*
X117400000Y-65590000D03*
X114860000Y-63050000D03*
X114860000Y-65590000D03*
X112320000Y-63050000D03*
X112320000Y-65590000D03*
X109780000Y-63050000D03*
X109780000Y-65590000D03*
X107240000Y-63050000D03*
X107240000Y-65590000D03*
X104700000Y-63050000D03*
X104700000Y-65590000D03*
X102160000Y-63050000D03*
X102160000Y-65590000D03*
X99620000Y-63050000D03*
X99620000Y-65590000D03*
X97080000Y-63050000D03*
X97080000Y-65590000D03*
X94540000Y-63050000D03*
X94540000Y-65590000D03*
X92000000Y-63050000D03*
X92000000Y-65590000D03*
X89460000Y-63050000D03*
X89460000Y-65590000D03*
X86920000Y-63050000D03*
D12*
X86920000Y-65590000D03*
D19*
X82040000Y-64310000D03*
X140040000Y-64330000D03*
X82040000Y-113320000D03*
X140030000Y-113310000D03*
D20*
X140398500Y-100711000D03*
X141986000Y-101536500D03*
X140970000Y-101536500D03*
X142494000Y-103378000D03*
X140589000Y-103378000D03*
X97801000Y-90987000D03*
X136906000Y-98044000D03*
X136906000Y-100584000D03*
X136906000Y-99314000D03*
X136906000Y-101981000D03*
X131699000Y-99441000D03*
X131699000Y-101981000D03*
X131699000Y-100711000D03*
X131699000Y-103378000D03*
X132842000Y-96647000D03*
X135382000Y-96647000D03*
X134112000Y-96647000D03*
X136779000Y-96901000D03*
X142494000Y-102298500D03*
X141605000Y-102298500D03*
X99604000Y-85035500D03*
X97559000Y-79321500D03*
X111313400Y-85099000D03*
X95908000Y-74686000D03*
X97432000Y-74178000D03*
X99083000Y-74686000D03*
X100861000Y-74178000D03*
X102512000Y-74686000D03*
X103909000Y-74178000D03*
X105941000Y-74178000D03*
X108862000Y-74178000D03*
X110513000Y-74178000D03*
X111656000Y-74432000D03*
X113053000Y-74305000D03*
X114450000Y-74559000D03*
X117371000Y-74559000D03*
X118641000Y-74559000D03*
X119911000Y-74559000D03*
X140716000Y-89408000D03*
X140970000Y-90297000D03*
X142113000Y-89408000D03*
X142240000Y-90297000D03*
X142748000Y-91186000D03*
X140462000Y-91059000D03*
X142748000Y-94488000D03*
X141605000Y-94488000D03*
X140462000Y-94488000D03*
X140589000Y-95377000D03*
X140652500Y-96583500D03*
X140716000Y-97726500D03*
X140398500Y-98996500D03*
X140398500Y-99949000D03*
X141351000Y-100711000D03*
X142367000Y-100711000D03*
X142494000Y-104394000D03*
X141605000Y-103378000D03*
X140589000Y-102298500D03*
X131699000Y-97282000D03*
X131572000Y-98298000D03*
X137160000Y-95694500D03*
X137350500Y-94488000D03*
X96035000Y-77099000D03*
X95908000Y-77988000D03*
X96035000Y-78877000D03*
X98702000Y-78877000D03*
X99845000Y-78877000D03*
X99210000Y-77734000D03*
X99210000Y-76845000D03*
X101877000Y-78877000D03*
X100988000Y-79385000D03*
X102639000Y-77734000D03*
X102385000Y-76845000D03*
X103909000Y-77353000D03*
X105052000Y-77226000D03*
X106068000Y-77353000D03*
X108862000Y-77353000D03*
X110513000Y-77353000D03*
X111402000Y-77861000D03*
X111402000Y-78877000D03*
X112418000Y-79385000D03*
X113688000Y-79385000D03*
X114704000Y-79004000D03*
X114831000Y-78115000D03*
X114831000Y-76972000D03*
X117752000Y-79004000D03*
X118133000Y-77988000D03*
X118133000Y-76972000D03*
X119403000Y-76972000D03*
X117892000Y-81670000D03*
X115225000Y-81670000D03*
X113955000Y-81543000D03*
X112431000Y-81543000D03*
X110907000Y-81416000D03*
X109129000Y-81416000D03*
X106462000Y-81416000D03*
X105192000Y-81543000D03*
X103668000Y-81416000D03*
X102652000Y-81797000D03*
X101255000Y-81543000D03*
X99477000Y-81797000D03*
X97826000Y-81543000D03*
X102525000Y-85861000D03*
X99350000Y-85861000D03*
X102779000Y-84845000D03*
X102652000Y-84083000D03*
X103922000Y-84718000D03*
X105192000Y-84591000D03*
X106462000Y-84718000D03*
X109002000Y-84591000D03*
X110272000Y-84591000D03*
X114717000Y-85988000D03*
X114717000Y-84845000D03*
X114844000Y-84083000D03*
X118019000Y-86242000D03*
X118146000Y-85226000D03*
X118146000Y-84210000D03*
X97928000Y-90098000D03*
X99198000Y-90098000D03*
X100468000Y-90098000D03*
X101738000Y-90098000D03*
X102881000Y-90098000D03*
X104151000Y-90098000D03*
X104278000Y-90987000D03*
X107326000Y-91749000D03*
X108723000Y-91749000D03*
X109993000Y-91622000D03*
X109993000Y-90733000D03*
X110501000Y-89971000D03*
X111898000Y-89971000D03*
X113295000Y-89971000D03*
X114692000Y-89971000D03*
X116216000Y-89971000D03*
X116724000Y-90733000D03*
X116978000Y-91749000D03*
X118502000Y-91876000D03*
X119518000Y-91749000D03*
X120661000Y-91876000D03*
X121931000Y-91749000D03*
X122312000Y-90733000D03*
X122312000Y-89717000D03*
X97547000Y-91876000D03*
X96150000Y-91876000D03*
X94880000Y-91876000D03*
X93610000Y-91876000D03*
X92213000Y-91876000D03*
X91832000Y-90860000D03*
X131699000Y-106172000D03*
X131699000Y-107315000D03*
X131572000Y-108458000D03*
X130302000Y-107950000D03*
X128905000Y-108077000D03*
X127381000Y-108077000D03*
X126238000Y-108458000D03*
X124968000Y-108585000D03*
X123952000Y-109601000D03*
X122936000Y-110617000D03*
X122047000Y-111252000D03*
X118618000Y-110363000D03*
X117348000Y-110363000D03*
X115697000Y-111760000D03*
X115697000Y-113030000D03*
X117348000Y-114427000D03*
X118491000Y-114427000D03*
X122047000Y-113665000D03*
X123444000Y-113665000D03*
X124587000Y-112649000D03*
X125476000Y-111633000D03*
X126365000Y-110871000D03*
X127381000Y-111506000D03*
X128651000Y-111506000D03*
X130048000Y-111506000D03*
X131191000Y-111125000D03*
X132080000Y-111252000D03*
X133096000Y-111506000D03*
X134493000Y-111379000D03*
X135636000Y-111125000D03*
X136779000Y-110998000D03*
X137922000Y-109982000D03*
X138938000Y-108966000D03*
X139954000Y-107950000D03*
X140208000Y-106680000D03*
X140335000Y-105410000D03*
X140589000Y-104394000D03*
X141605000Y-104394000D03*
X137541000Y-105410000D03*
X137414000Y-106680000D03*
X136525000Y-107569000D03*
X135636000Y-108331000D03*
X135001000Y-107442000D03*
X134493000Y-103505000D03*
X134493000Y-100203000D03*
X136906000Y-104394000D03*
X136906000Y-103251000D03*
X141351000Y-99949000D03*
X142367000Y-99949000D03*
X142494000Y-105410000D03*
X141414500Y-105410000D03*
X80280000Y-74300000D03*
X80260000Y-75340000D03*
X85000000Y-74320000D03*
X85020000Y-75340000D03*
X105580000Y-99400000D03*
X107120000Y-100160000D03*
X108780000Y-99420000D03*
X108780000Y-95600000D03*
X107140000Y-94940000D03*
X105580000Y-95600000D03*
X96302000Y-81670000D03*
X131368800Y-69215000D03*
X132765800Y-70612000D03*
D21*
X92000000Y-63050000D02*
X90728800Y-64321200D01*
X90728800Y-64321200D02*
X90728800Y-66598800D01*
X86920000Y-61847919D02*
X86920000Y-63050000D01*
X86944319Y-61823600D02*
X86920000Y-61847919D01*
X132765800Y-70612000D02*
X131368800Y-69215000D01*
X131368800Y-69215000D02*
X131368800Y-61823600D01*
X131368800Y-61823600D02*
X131013200Y-61468000D01*
X87325200Y-61468000D02*
X86969600Y-61823600D01*
X86969600Y-61823600D02*
X86944319Y-61823600D01*
X131013200Y-61468000D02*
X87325200Y-61468000D01*
D22*
G36*
X86489277Y-61392877D02*
G01*
X86475920Y-61403839D01*
X86397817Y-61499009D01*
X86339781Y-61607586D01*
X86304043Y-61725399D01*
X86295000Y-61817216D01*
X86295000Y-61817225D01*
X86291977Y-61847919D01*
X86292634Y-61854586D01*
X86166351Y-61922085D01*
X85960787Y-62090787D01*
X85792085Y-62296351D01*
X85666728Y-62530878D01*
X85589533Y-62785354D01*
X85563468Y-63050000D01*
X85589533Y-63314646D01*
X85666728Y-63569122D01*
X85792085Y-63803649D01*
X85960787Y-64009213D01*
X86166351Y-64177915D01*
X86277978Y-64237581D01*
X86070000Y-64237581D01*
X85971983Y-64247235D01*
X85877733Y-64275825D01*
X85790871Y-64322254D01*
X85714736Y-64384736D01*
X85652254Y-64460871D01*
X85605825Y-64547733D01*
X85577235Y-64641983D01*
X85567581Y-64740000D01*
X85567581Y-66440000D01*
X85577235Y-66538017D01*
X85605825Y-66632267D01*
X85652254Y-66719129D01*
X85714736Y-66795264D01*
X85790871Y-66857746D01*
X85877733Y-66904175D01*
X85971983Y-66932765D01*
X86070000Y-66942419D01*
X87770000Y-66942419D01*
X87868017Y-66932765D01*
X87962267Y-66904175D01*
X88049129Y-66857746D01*
X88125264Y-66795264D01*
X88187746Y-66719129D01*
X88234175Y-66632267D01*
X88262765Y-66538017D01*
X88272419Y-66440000D01*
X88272419Y-66232022D01*
X88332085Y-66343649D01*
X88500787Y-66549213D01*
X88706351Y-66717915D01*
X88940878Y-66843272D01*
X89195354Y-66920467D01*
X89393679Y-66940000D01*
X89526321Y-66940000D01*
X89724646Y-66920467D01*
X89979122Y-66843272D01*
X90213649Y-66717915D01*
X90419213Y-66549213D01*
X90587915Y-66343649D01*
X90713272Y-66109122D01*
X90730000Y-66053978D01*
X90746728Y-66109122D01*
X90872085Y-66343649D01*
X91040787Y-66549213D01*
X91246351Y-66717915D01*
X91480878Y-66843272D01*
X91735354Y-66920467D01*
X91933679Y-66940000D01*
X92066321Y-66940000D01*
X92264646Y-66920467D01*
X92519122Y-66843272D01*
X92753649Y-66717915D01*
X92959213Y-66549213D01*
X93127915Y-66343649D01*
X93253272Y-66109122D01*
X93270000Y-66053978D01*
X93286728Y-66109122D01*
X93412085Y-66343649D01*
X93580787Y-66549213D01*
X93786351Y-66717915D01*
X94020878Y-66843272D01*
X94275354Y-66920467D01*
X94473679Y-66940000D01*
X94606321Y-66940000D01*
X94804646Y-66920467D01*
X95059122Y-66843272D01*
X95293649Y-66717915D01*
X95499213Y-66549213D01*
X95667915Y-66343649D01*
X95793272Y-66109122D01*
X95870467Y-65854646D01*
X95896532Y-65590000D01*
X95870467Y-65325354D01*
X95793272Y-65070878D01*
X95667915Y-64836351D01*
X95499213Y-64630787D01*
X95293649Y-64462085D01*
X95059122Y-64336728D01*
X95003978Y-64320000D01*
X95059122Y-64303272D01*
X95293649Y-64177915D01*
X95499213Y-64009213D01*
X95667915Y-63803649D01*
X95793272Y-63569122D01*
X95810000Y-63513978D01*
X95826728Y-63569122D01*
X95952085Y-63803649D01*
X96120787Y-64009213D01*
X96326351Y-64177915D01*
X96560878Y-64303272D01*
X96815354Y-64380467D01*
X97013679Y-64400000D01*
X97146321Y-64400000D01*
X97344646Y-64380467D01*
X97599122Y-64303272D01*
X97833649Y-64177915D01*
X98039213Y-64009213D01*
X98207915Y-63803649D01*
X98333272Y-63569122D01*
X98350000Y-63513978D01*
X98366728Y-63569122D01*
X98492085Y-63803649D01*
X98660787Y-64009213D01*
X98866351Y-64177915D01*
X99100878Y-64303272D01*
X99156022Y-64320000D01*
X99100878Y-64336728D01*
X98866351Y-64462085D01*
X98660787Y-64630787D01*
X98492085Y-64836351D01*
X98366728Y-65070878D01*
X98289533Y-65325354D01*
X98263468Y-65590000D01*
X98289533Y-65854646D01*
X98366728Y-66109122D01*
X98492085Y-66343649D01*
X98660787Y-66549213D01*
X98866351Y-66717915D01*
X99100878Y-66843272D01*
X99355354Y-66920467D01*
X99553679Y-66940000D01*
X99686321Y-66940000D01*
X99884646Y-66920467D01*
X100139122Y-66843272D01*
X100373649Y-66717915D01*
X100579213Y-66549213D01*
X100747915Y-66343649D01*
X100873272Y-66109122D01*
X100890000Y-66053978D01*
X100906728Y-66109122D01*
X101032085Y-66343649D01*
X101200787Y-66549213D01*
X101406351Y-66717915D01*
X101640878Y-66843272D01*
X101895354Y-66920467D01*
X102093679Y-66940000D01*
X102226321Y-66940000D01*
X102424646Y-66920467D01*
X102679122Y-66843272D01*
X102913649Y-66717915D01*
X103119213Y-66549213D01*
X103287915Y-66343649D01*
X103413272Y-66109122D01*
X103430000Y-66053978D01*
X103446728Y-66109122D01*
X103572085Y-66343649D01*
X103740787Y-66549213D01*
X103946351Y-66717915D01*
X104180878Y-66843272D01*
X104435354Y-66920467D01*
X104633679Y-66940000D01*
X104766321Y-66940000D01*
X104964646Y-66920467D01*
X105219122Y-66843272D01*
X105453649Y-66717915D01*
X105659213Y-66549213D01*
X105827915Y-66343649D01*
X105953272Y-66109122D01*
X105970000Y-66053978D01*
X105986728Y-66109122D01*
X106112085Y-66343649D01*
X106280787Y-66549213D01*
X106486351Y-66717915D01*
X106720878Y-66843272D01*
X106975354Y-66920467D01*
X107173679Y-66940000D01*
X107306321Y-66940000D01*
X107504646Y-66920467D01*
X107759122Y-66843272D01*
X107993649Y-66717915D01*
X108199213Y-66549213D01*
X108367915Y-66343649D01*
X108493272Y-66109122D01*
X108510000Y-66053978D01*
X108526728Y-66109122D01*
X108652085Y-66343649D01*
X108820787Y-66549213D01*
X109026351Y-66717915D01*
X109260878Y-66843272D01*
X109515354Y-66920467D01*
X109713679Y-66940000D01*
X109846321Y-66940000D01*
X110044646Y-66920467D01*
X110299122Y-66843272D01*
X110533649Y-66717915D01*
X110739213Y-66549213D01*
X110907915Y-66343649D01*
X111033272Y-66109122D01*
X111050000Y-66053978D01*
X111066728Y-66109122D01*
X111192085Y-66343649D01*
X111360787Y-66549213D01*
X111566351Y-66717915D01*
X111800878Y-66843272D01*
X112055354Y-66920467D01*
X112253679Y-66940000D01*
X112386321Y-66940000D01*
X112584646Y-66920467D01*
X112839122Y-66843272D01*
X113073649Y-66717915D01*
X113279213Y-66549213D01*
X113447915Y-66343649D01*
X113573272Y-66109122D01*
X113590000Y-66053978D01*
X113606728Y-66109122D01*
X113732085Y-66343649D01*
X113900787Y-66549213D01*
X114106351Y-66717915D01*
X114340878Y-66843272D01*
X114595354Y-66920467D01*
X114793679Y-66940000D01*
X114926321Y-66940000D01*
X115124646Y-66920467D01*
X115379122Y-66843272D01*
X115613649Y-66717915D01*
X115819213Y-66549213D01*
X115987915Y-66343649D01*
X116113272Y-66109122D01*
X116190467Y-65854646D01*
X116216532Y-65590000D01*
X116190467Y-65325354D01*
X116113272Y-65070878D01*
X115987915Y-64836351D01*
X115819213Y-64630787D01*
X115613649Y-64462085D01*
X115379122Y-64336728D01*
X115323978Y-64320000D01*
X115379122Y-64303272D01*
X115613649Y-64177915D01*
X115819213Y-64009213D01*
X115987915Y-63803649D01*
X116113272Y-63569122D01*
X116130000Y-63513978D01*
X116146728Y-63569122D01*
X116272085Y-63803649D01*
X116440787Y-64009213D01*
X116646351Y-64177915D01*
X116880878Y-64303272D01*
X117135354Y-64380467D01*
X117333679Y-64400000D01*
X117466321Y-64400000D01*
X117664646Y-64380467D01*
X117919122Y-64303272D01*
X118153649Y-64177915D01*
X118359213Y-64009213D01*
X118527915Y-63803649D01*
X118653272Y-63569122D01*
X118670000Y-63513978D01*
X118686728Y-63569122D01*
X118812085Y-63803649D01*
X118980787Y-64009213D01*
X119186351Y-64177915D01*
X119420878Y-64303272D01*
X119476022Y-64320000D01*
X119420878Y-64336728D01*
X119186351Y-64462085D01*
X118980787Y-64630787D01*
X118812085Y-64836351D01*
X118686728Y-65070878D01*
X118609533Y-65325354D01*
X118583468Y-65590000D01*
X118609533Y-65854646D01*
X118686728Y-66109122D01*
X118812085Y-66343649D01*
X118980787Y-66549213D01*
X119186351Y-66717915D01*
X119420878Y-66843272D01*
X119675354Y-66920467D01*
X119873679Y-66940000D01*
X120006321Y-66940000D01*
X120204646Y-66920467D01*
X120459122Y-66843272D01*
X120693649Y-66717915D01*
X120899213Y-66549213D01*
X121067915Y-66343649D01*
X121193272Y-66109122D01*
X121210000Y-66053978D01*
X121226728Y-66109122D01*
X121352085Y-66343649D01*
X121520787Y-66549213D01*
X121726351Y-66717915D01*
X121960878Y-66843272D01*
X122215354Y-66920467D01*
X122413679Y-66940000D01*
X122546321Y-66940000D01*
X122744646Y-66920467D01*
X122999122Y-66843272D01*
X123233649Y-66717915D01*
X123439213Y-66549213D01*
X123607915Y-66343649D01*
X123733272Y-66109122D01*
X123750000Y-66053978D01*
X123766728Y-66109122D01*
X123892085Y-66343649D01*
X124060787Y-66549213D01*
X124266351Y-66717915D01*
X124500878Y-66843272D01*
X124755354Y-66920467D01*
X124953679Y-66940000D01*
X125086321Y-66940000D01*
X125284646Y-66920467D01*
X125539122Y-66843272D01*
X125773649Y-66717915D01*
X125979213Y-66549213D01*
X126147915Y-66343649D01*
X126273272Y-66109122D01*
X126290000Y-66053978D01*
X126306728Y-66109122D01*
X126432085Y-66343649D01*
X126600787Y-66549213D01*
X126806351Y-66717915D01*
X127040878Y-66843272D01*
X127295354Y-66920467D01*
X127493679Y-66940000D01*
X127626321Y-66940000D01*
X127824646Y-66920467D01*
X128079122Y-66843272D01*
X128313649Y-66717915D01*
X128519213Y-66549213D01*
X128687915Y-66343649D01*
X128813272Y-66109122D01*
X128830000Y-66053978D01*
X128846728Y-66109122D01*
X128972085Y-66343649D01*
X129140787Y-66549213D01*
X129346351Y-66717915D01*
X129580878Y-66843272D01*
X129835354Y-66920467D01*
X130033679Y-66940000D01*
X130166321Y-66940000D01*
X130364646Y-66920467D01*
X130619122Y-66843272D01*
X130743800Y-66776630D01*
X130743800Y-68800415D01*
X130704159Y-68859742D01*
X130647622Y-68996233D01*
X130618800Y-69141131D01*
X130618800Y-69288869D01*
X130647622Y-69433767D01*
X130704159Y-69570258D01*
X130786237Y-69693097D01*
X130890703Y-69797563D01*
X131013542Y-69879641D01*
X131150033Y-69936178D01*
X131220016Y-69950099D01*
X132030702Y-70760784D01*
X132044622Y-70830767D01*
X132101159Y-70967258D01*
X132183237Y-71090097D01*
X132287703Y-71194563D01*
X132410542Y-71276641D01*
X132547033Y-71333178D01*
X132691931Y-71362000D01*
X132839669Y-71362000D01*
X132984567Y-71333178D01*
X133121058Y-71276641D01*
X133243897Y-71194563D01*
X133348363Y-71090097D01*
X133430441Y-70967258D01*
X133486978Y-70830767D01*
X133515800Y-70685869D01*
X133515800Y-70538131D01*
X133486978Y-70393233D01*
X133430441Y-70256742D01*
X133348363Y-70133903D01*
X133243897Y-70029437D01*
X133121058Y-69947359D01*
X132984567Y-69890822D01*
X132914584Y-69876902D01*
X132799683Y-69762000D01*
X136887081Y-69762000D01*
X136887081Y-71462000D01*
X136896735Y-71560017D01*
X136925325Y-71654267D01*
X136971754Y-71741129D01*
X137034236Y-71817264D01*
X137110371Y-71879746D01*
X137197233Y-71926175D01*
X137291483Y-71954765D01*
X137389500Y-71964419D01*
X139089500Y-71964419D01*
X139187517Y-71954765D01*
X139281767Y-71926175D01*
X139368629Y-71879746D01*
X139444764Y-71817264D01*
X139507246Y-71741129D01*
X139553675Y-71654267D01*
X139582265Y-71560017D01*
X139591919Y-71462000D01*
X139591919Y-71254022D01*
X139651585Y-71365649D01*
X139820287Y-71571213D01*
X140025851Y-71739915D01*
X140260378Y-71865272D01*
X140514854Y-71942467D01*
X140713179Y-71962000D01*
X140845821Y-71962000D01*
X141044146Y-71942467D01*
X141298622Y-71865272D01*
X141533149Y-71739915D01*
X141738713Y-71571213D01*
X141907415Y-71365649D01*
X142032772Y-71131122D01*
X142109967Y-70876646D01*
X142136032Y-70612000D01*
X142109967Y-70347354D01*
X142032772Y-70092878D01*
X141907415Y-69858351D01*
X141738713Y-69652787D01*
X141533149Y-69484085D01*
X141298622Y-69358728D01*
X141044146Y-69281533D01*
X140845821Y-69262000D01*
X140713179Y-69262000D01*
X140514854Y-69281533D01*
X140260378Y-69358728D01*
X140025851Y-69484085D01*
X139820287Y-69652787D01*
X139651585Y-69858351D01*
X139591919Y-69969978D01*
X139591919Y-69762000D01*
X139582265Y-69663983D01*
X139553675Y-69569733D01*
X139507246Y-69482871D01*
X139444764Y-69406736D01*
X139368629Y-69344254D01*
X139281767Y-69297825D01*
X139187517Y-69269235D01*
X139089500Y-69259581D01*
X137389500Y-69259581D01*
X137291483Y-69269235D01*
X137197233Y-69297825D01*
X137110371Y-69344254D01*
X137034236Y-69406736D01*
X136971754Y-69482871D01*
X136925325Y-69569733D01*
X136896735Y-69663983D01*
X136887081Y-69762000D01*
X132799683Y-69762000D01*
X132103899Y-69066216D01*
X132089978Y-68996233D01*
X132033441Y-68859742D01*
X131993800Y-68800415D01*
X131993800Y-66775348D01*
X132120878Y-66843272D01*
X132375354Y-66920467D01*
X132573679Y-66940000D01*
X132706321Y-66940000D01*
X132904646Y-66920467D01*
X133159122Y-66843272D01*
X133393649Y-66717915D01*
X133599213Y-66549213D01*
X133767915Y-66343649D01*
X133893272Y-66109122D01*
X133970467Y-65854646D01*
X133996532Y-65590000D01*
X133970467Y-65325354D01*
X133893272Y-65070878D01*
X133767915Y-64836351D01*
X133599213Y-64630787D01*
X133393649Y-64462085D01*
X133159122Y-64336728D01*
X133103978Y-64320000D01*
X133159122Y-64303272D01*
X133393649Y-64177915D01*
X133599213Y-64009213D01*
X133767915Y-63803649D01*
X133893272Y-63569122D01*
X133910000Y-63513978D01*
X133926728Y-63569122D01*
X134052085Y-63803649D01*
X134220787Y-64009213D01*
X134426351Y-64177915D01*
X134660878Y-64303272D01*
X134915354Y-64380467D01*
X135113679Y-64400000D01*
X135246321Y-64400000D01*
X135444646Y-64380467D01*
X135699122Y-64303272D01*
X135933649Y-64177915D01*
X136139213Y-64009213D01*
X136307915Y-63803649D01*
X136433272Y-63569122D01*
X136510467Y-63314646D01*
X136536532Y-63050000D01*
X136510467Y-62785354D01*
X136433272Y-62530878D01*
X136307915Y-62296351D01*
X136139213Y-62090787D01*
X135933649Y-61922085D01*
X135699122Y-61796728D01*
X135444646Y-61719533D01*
X135246321Y-61700000D01*
X135113679Y-61700000D01*
X134915354Y-61719533D01*
X134660878Y-61796728D01*
X134426351Y-61922085D01*
X134220787Y-62090787D01*
X134052085Y-62296351D01*
X133926728Y-62530878D01*
X133910000Y-62586022D01*
X133893272Y-62530878D01*
X133767915Y-62296351D01*
X133599213Y-62090787D01*
X133393649Y-61922085D01*
X133159122Y-61796728D01*
X132904646Y-61719533D01*
X132706321Y-61700000D01*
X132573679Y-61700000D01*
X132375354Y-61719533D01*
X132120878Y-61796728D01*
X131993800Y-61864652D01*
X131993800Y-61854293D01*
X131996823Y-61823599D01*
X131993800Y-61792905D01*
X131993800Y-61792896D01*
X131984757Y-61701079D01*
X131949019Y-61583266D01*
X131896200Y-61484449D01*
X131890982Y-61474687D01*
X131857395Y-61433762D01*
X131823623Y-61392611D01*
X138769483Y-61392611D01*
X138524232Y-61494197D01*
X138000119Y-61844398D01*
X137554398Y-62290119D01*
X137204197Y-62814232D01*
X136962975Y-63396595D01*
X136840000Y-64014828D01*
X136840000Y-64645172D01*
X136962975Y-65263405D01*
X137204197Y-65845768D01*
X137554398Y-66369881D01*
X138000119Y-66815602D01*
X138524232Y-67165803D01*
X139106595Y-67407025D01*
X139724828Y-67530000D01*
X140355172Y-67530000D01*
X140973405Y-67407025D01*
X141555768Y-67165803D01*
X142079881Y-66815602D01*
X142525602Y-66369881D01*
X142875803Y-65845768D01*
X142971357Y-65615080D01*
X142971351Y-112049049D01*
X142865803Y-111794232D01*
X142515602Y-111270119D01*
X142069881Y-110824398D01*
X141545768Y-110474197D01*
X140963405Y-110232975D01*
X140345172Y-110110000D01*
X139714828Y-110110000D01*
X139096595Y-110232975D01*
X138514232Y-110474197D01*
X137990119Y-110824398D01*
X137544398Y-111270119D01*
X137194197Y-111794232D01*
X136952975Y-112376595D01*
X136830000Y-112994828D01*
X136830000Y-113625172D01*
X136952975Y-114243405D01*
X137194197Y-114825768D01*
X137544398Y-115349881D01*
X137990119Y-115795602D01*
X138514232Y-116145803D01*
X138747948Y-116242611D01*
X83346194Y-116242611D01*
X83555768Y-116155803D01*
X84079881Y-115805602D01*
X84525602Y-115359881D01*
X84875803Y-114835768D01*
X85117025Y-114253405D01*
X85240000Y-113635172D01*
X85240000Y-113004828D01*
X85236852Y-112989000D01*
X99059081Y-112989000D01*
X99059081Y-114689000D01*
X99068735Y-114787017D01*
X99097325Y-114881267D01*
X99143754Y-114968129D01*
X99206236Y-115044264D01*
X99282371Y-115106746D01*
X99369233Y-115153175D01*
X99463483Y-115181765D01*
X99561500Y-115191419D01*
X101261500Y-115191419D01*
X101359517Y-115181765D01*
X101453767Y-115153175D01*
X101540629Y-115106746D01*
X101616764Y-115044264D01*
X101679246Y-114968129D01*
X101725675Y-114881267D01*
X101754265Y-114787017D01*
X101763919Y-114689000D01*
X101763919Y-114481022D01*
X101823585Y-114592649D01*
X101992287Y-114798213D01*
X102197851Y-114966915D01*
X102432378Y-115092272D01*
X102686854Y-115169467D01*
X102885179Y-115189000D01*
X103017821Y-115189000D01*
X103216146Y-115169467D01*
X103470622Y-115092272D01*
X103705149Y-114966915D01*
X103910713Y-114798213D01*
X104079415Y-114592649D01*
X104204772Y-114358122D01*
X104281967Y-114103646D01*
X104308032Y-113839000D01*
X104281967Y-113574354D01*
X104204772Y-113319878D01*
X104079415Y-113085351D01*
X103910713Y-112879787D01*
X103705149Y-112711085D01*
X103470622Y-112585728D01*
X103216146Y-112508533D01*
X103017821Y-112489000D01*
X102885179Y-112489000D01*
X102686854Y-112508533D01*
X102432378Y-112585728D01*
X102197851Y-112711085D01*
X101992287Y-112879787D01*
X101823585Y-113085351D01*
X101763919Y-113196978D01*
X101763919Y-112989000D01*
X101754265Y-112890983D01*
X101725675Y-112796733D01*
X101679246Y-112709871D01*
X101616764Y-112633736D01*
X101540629Y-112571254D01*
X101453767Y-112524825D01*
X101359517Y-112496235D01*
X101261500Y-112486581D01*
X99561500Y-112486581D01*
X99463483Y-112496235D01*
X99369233Y-112524825D01*
X99282371Y-112571254D01*
X99206236Y-112633736D01*
X99143754Y-112709871D01*
X99097325Y-112796733D01*
X99068735Y-112890983D01*
X99059081Y-112989000D01*
X85236852Y-112989000D01*
X85117025Y-112386595D01*
X85084595Y-112308301D01*
X116458000Y-112308301D01*
X116458000Y-112608699D01*
X116516605Y-112903326D01*
X116631562Y-113180858D01*
X116798455Y-113430631D01*
X117010869Y-113643045D01*
X117260642Y-113809938D01*
X117538174Y-113924895D01*
X117832801Y-113983500D01*
X118133199Y-113983500D01*
X118427826Y-113924895D01*
X118705358Y-113809938D01*
X118955131Y-113643045D01*
X119167545Y-113430631D01*
X119334438Y-113180858D01*
X119449395Y-112903326D01*
X119508000Y-112608699D01*
X119508000Y-112308301D01*
X119449395Y-112013674D01*
X119334438Y-111736142D01*
X119167545Y-111486369D01*
X118955131Y-111273955D01*
X118705358Y-111107062D01*
X118427826Y-110992105D01*
X118133199Y-110933500D01*
X117832801Y-110933500D01*
X117538174Y-110992105D01*
X117260642Y-111107062D01*
X117010869Y-111273955D01*
X116798455Y-111486369D01*
X116631562Y-111736142D01*
X116516605Y-112013674D01*
X116458000Y-112308301D01*
X85084595Y-112308301D01*
X84875803Y-111804232D01*
X84525602Y-111280119D01*
X84079881Y-110834398D01*
X83555768Y-110484197D01*
X82973405Y-110242975D01*
X82355172Y-110120000D01*
X81724828Y-110120000D01*
X81106595Y-110242975D01*
X80524232Y-110484197D01*
X80000119Y-110834398D01*
X79554398Y-111280119D01*
X79204197Y-111804232D01*
X79121356Y-112004228D01*
X79121356Y-101854000D01*
X127230968Y-101854000D01*
X127257033Y-102118646D01*
X127334228Y-102373122D01*
X127459585Y-102607649D01*
X127628287Y-102813213D01*
X127833851Y-102981915D01*
X128068378Y-103107272D01*
X128322854Y-103184467D01*
X128521179Y-103204000D01*
X128653821Y-103204000D01*
X128852146Y-103184467D01*
X129106622Y-103107272D01*
X129341149Y-102981915D01*
X129546713Y-102813213D01*
X129715415Y-102607649D01*
X129840772Y-102373122D01*
X129917967Y-102118646D01*
X129944032Y-101854000D01*
X129917967Y-101589354D01*
X129840772Y-101334878D01*
X129715415Y-101100351D01*
X129546713Y-100894787D01*
X129341149Y-100726085D01*
X129229522Y-100666419D01*
X129437500Y-100666419D01*
X129535517Y-100656765D01*
X129629767Y-100628175D01*
X129716629Y-100581746D01*
X129792764Y-100519264D01*
X129855246Y-100443129D01*
X129901675Y-100356267D01*
X129930265Y-100262017D01*
X129939919Y-100164000D01*
X129939919Y-98464000D01*
X129930265Y-98365983D01*
X129901675Y-98271733D01*
X129855246Y-98184871D01*
X129792764Y-98108736D01*
X129716629Y-98046254D01*
X129629767Y-97999825D01*
X129535517Y-97971235D01*
X129437500Y-97961581D01*
X127737500Y-97961581D01*
X127639483Y-97971235D01*
X127545233Y-97999825D01*
X127458371Y-98046254D01*
X127382236Y-98108736D01*
X127319754Y-98184871D01*
X127273325Y-98271733D01*
X127244735Y-98365983D01*
X127235081Y-98464000D01*
X127235081Y-100164000D01*
X127244735Y-100262017D01*
X127273325Y-100356267D01*
X127319754Y-100443129D01*
X127382236Y-100519264D01*
X127458371Y-100581746D01*
X127545233Y-100628175D01*
X127639483Y-100656765D01*
X127737500Y-100666419D01*
X127945478Y-100666419D01*
X127833851Y-100726085D01*
X127628287Y-100894787D01*
X127459585Y-101100351D01*
X127334228Y-101334878D01*
X127257033Y-101589354D01*
X127230968Y-101854000D01*
X79121356Y-101854000D01*
X79121356Y-97369801D01*
X95475000Y-97369801D01*
X95475000Y-97670199D01*
X95533605Y-97964826D01*
X95648562Y-98242358D01*
X95815455Y-98492131D01*
X96027869Y-98704545D01*
X96277642Y-98871438D01*
X96555174Y-98986395D01*
X96849801Y-99045000D01*
X97150199Y-99045000D01*
X97444826Y-98986395D01*
X97722358Y-98871438D01*
X97972131Y-98704545D01*
X98184545Y-98492131D01*
X98351438Y-98242358D01*
X98466395Y-97964826D01*
X98525000Y-97670199D01*
X98525000Y-97369801D01*
X98521022Y-97349801D01*
X115875000Y-97349801D01*
X115875000Y-97650199D01*
X115933605Y-97944826D01*
X116048562Y-98222358D01*
X116215455Y-98472131D01*
X116427869Y-98684545D01*
X116677642Y-98851438D01*
X116955174Y-98966395D01*
X117249801Y-99025000D01*
X117550199Y-99025000D01*
X117844826Y-98966395D01*
X118122358Y-98851438D01*
X118372131Y-98684545D01*
X118584545Y-98472131D01*
X118751438Y-98222358D01*
X118866395Y-97944826D01*
X118925000Y-97650199D01*
X118925000Y-97349801D01*
X118866395Y-97055174D01*
X118751438Y-96777642D01*
X118584545Y-96527869D01*
X118372131Y-96315455D01*
X118122358Y-96148562D01*
X117844826Y-96033605D01*
X117550199Y-95975000D01*
X117249801Y-95975000D01*
X116955174Y-96033605D01*
X116677642Y-96148562D01*
X116427869Y-96315455D01*
X116215455Y-96527869D01*
X116048562Y-96777642D01*
X115933605Y-97055174D01*
X115875000Y-97349801D01*
X98521022Y-97349801D01*
X98466395Y-97075174D01*
X98351438Y-96797642D01*
X98184545Y-96547869D01*
X97972131Y-96335455D01*
X97722358Y-96168562D01*
X97444826Y-96053605D01*
X97150199Y-95995000D01*
X96849801Y-95995000D01*
X96555174Y-96053605D01*
X96277642Y-96168562D01*
X96027869Y-96335455D01*
X95815455Y-96547869D01*
X95648562Y-96797642D01*
X95533605Y-97075174D01*
X95475000Y-97369801D01*
X79121356Y-97369801D01*
X79121356Y-89395704D01*
X88558000Y-89395704D01*
X88558000Y-89644296D01*
X88606498Y-89888112D01*
X88701630Y-90117781D01*
X88839741Y-90324478D01*
X89015522Y-90500259D01*
X89222219Y-90638370D01*
X89451888Y-90733502D01*
X89695704Y-90782000D01*
X89944296Y-90782000D01*
X90188112Y-90733502D01*
X90417781Y-90638370D01*
X90624478Y-90500259D01*
X90800259Y-90324478D01*
X90938370Y-90117781D01*
X91033502Y-89888112D01*
X91082000Y-89644296D01*
X91082000Y-89395704D01*
X91034262Y-89155704D01*
X123578000Y-89155704D01*
X123578000Y-89404296D01*
X123626498Y-89648112D01*
X123721630Y-89877781D01*
X123859741Y-90084478D01*
X124035522Y-90260259D01*
X124242219Y-90398370D01*
X124471888Y-90493502D01*
X124715704Y-90542000D01*
X124964296Y-90542000D01*
X125208112Y-90493502D01*
X125437781Y-90398370D01*
X125644478Y-90260259D01*
X125820259Y-90084478D01*
X125821045Y-90083301D01*
X137286000Y-90083301D01*
X137286000Y-90383699D01*
X137344605Y-90678326D01*
X137459562Y-90955858D01*
X137626455Y-91205631D01*
X137838869Y-91418045D01*
X138088642Y-91584938D01*
X138366174Y-91699895D01*
X138660801Y-91758500D01*
X138961199Y-91758500D01*
X139255826Y-91699895D01*
X139533358Y-91584938D01*
X139783131Y-91418045D01*
X139995545Y-91205631D01*
X140162438Y-90955858D01*
X140277395Y-90678326D01*
X140336000Y-90383699D01*
X140336000Y-90083301D01*
X140277395Y-89788674D01*
X140162438Y-89511142D01*
X139995545Y-89261369D01*
X139783131Y-89048955D01*
X139533358Y-88882062D01*
X139255826Y-88767105D01*
X138961199Y-88708500D01*
X138660801Y-88708500D01*
X138366174Y-88767105D01*
X138088642Y-88882062D01*
X137838869Y-89048955D01*
X137626455Y-89261369D01*
X137459562Y-89511142D01*
X137344605Y-89788674D01*
X137286000Y-90083301D01*
X125821045Y-90083301D01*
X125958370Y-89877781D01*
X126053502Y-89648112D01*
X126102000Y-89404296D01*
X126102000Y-89155704D01*
X126053502Y-88911888D01*
X125958370Y-88682219D01*
X125820259Y-88475522D01*
X125644478Y-88299741D01*
X125437781Y-88161630D01*
X125208112Y-88066498D01*
X124964296Y-88018000D01*
X124715704Y-88018000D01*
X124471888Y-88066498D01*
X124242219Y-88161630D01*
X124035522Y-88299741D01*
X123859741Y-88475522D01*
X123721630Y-88682219D01*
X123626498Y-88911888D01*
X123578000Y-89155704D01*
X91034262Y-89155704D01*
X91033502Y-89151888D01*
X90938370Y-88922219D01*
X90800259Y-88715522D01*
X90624478Y-88539741D01*
X90417781Y-88401630D01*
X90188112Y-88306498D01*
X89944296Y-88258000D01*
X89695704Y-88258000D01*
X89451888Y-88306498D01*
X89222219Y-88401630D01*
X89015522Y-88539741D01*
X88839741Y-88715522D01*
X88701630Y-88922219D01*
X88606498Y-89151888D01*
X88558000Y-89395704D01*
X79121356Y-89395704D01*
X79121356Y-86855704D01*
X88558000Y-86855704D01*
X88558000Y-87104296D01*
X88606498Y-87348112D01*
X88701630Y-87577781D01*
X88839741Y-87784478D01*
X89015522Y-87960259D01*
X89222219Y-88098370D01*
X89451888Y-88193502D01*
X89695704Y-88242000D01*
X89944296Y-88242000D01*
X90188112Y-88193502D01*
X90417781Y-88098370D01*
X90624478Y-87960259D01*
X90800259Y-87784478D01*
X90938370Y-87577781D01*
X91033502Y-87348112D01*
X91082000Y-87104296D01*
X91082000Y-86855704D01*
X91034262Y-86615704D01*
X123578000Y-86615704D01*
X123578000Y-86864296D01*
X123626498Y-87108112D01*
X123721630Y-87337781D01*
X123859741Y-87544478D01*
X124035522Y-87720259D01*
X124242219Y-87858370D01*
X124471888Y-87953502D01*
X124715704Y-88002000D01*
X124964296Y-88002000D01*
X125208112Y-87953502D01*
X125437781Y-87858370D01*
X125644478Y-87720259D01*
X125820259Y-87544478D01*
X125958370Y-87337781D01*
X126053502Y-87108112D01*
X126102000Y-86864296D01*
X126102000Y-86615704D01*
X131198000Y-86615704D01*
X131198000Y-86864296D01*
X131246498Y-87108112D01*
X131341630Y-87337781D01*
X131479741Y-87544478D01*
X131655522Y-87720259D01*
X131862219Y-87858370D01*
X132091888Y-87953502D01*
X132335704Y-88002000D01*
X132584296Y-88002000D01*
X132828112Y-87953502D01*
X133057781Y-87858370D01*
X133264478Y-87720259D01*
X133440259Y-87544478D01*
X133578370Y-87337781D01*
X133673502Y-87108112D01*
X133722000Y-86864296D01*
X133722000Y-86615704D01*
X133673502Y-86371888D01*
X133578370Y-86142219D01*
X133440259Y-85935522D01*
X133264478Y-85759741D01*
X133057781Y-85621630D01*
X132828112Y-85526498D01*
X132584296Y-85478000D01*
X132335704Y-85478000D01*
X132091888Y-85526498D01*
X131862219Y-85621630D01*
X131655522Y-85759741D01*
X131479741Y-85935522D01*
X131341630Y-86142219D01*
X131246498Y-86371888D01*
X131198000Y-86615704D01*
X126102000Y-86615704D01*
X126053502Y-86371888D01*
X125958370Y-86142219D01*
X125820259Y-85935522D01*
X125644478Y-85759741D01*
X125437781Y-85621630D01*
X125208112Y-85526498D01*
X124964296Y-85478000D01*
X124715704Y-85478000D01*
X124471888Y-85526498D01*
X124242219Y-85621630D01*
X124035522Y-85759741D01*
X123859741Y-85935522D01*
X123721630Y-86142219D01*
X123626498Y-86371888D01*
X123578000Y-86615704D01*
X91034262Y-86615704D01*
X91033502Y-86611888D01*
X90938370Y-86382219D01*
X90800259Y-86175522D01*
X90624478Y-85999741D01*
X90417781Y-85861630D01*
X90188112Y-85766498D01*
X89944296Y-85718000D01*
X89695704Y-85718000D01*
X89451888Y-85766498D01*
X89222219Y-85861630D01*
X89015522Y-85999741D01*
X88839741Y-86175522D01*
X88701630Y-86382219D01*
X88606498Y-86611888D01*
X88558000Y-86855704D01*
X79121356Y-86855704D01*
X79121356Y-84315704D01*
X80938000Y-84315704D01*
X80938000Y-84564296D01*
X80986498Y-84808112D01*
X81081630Y-85037781D01*
X81219741Y-85244478D01*
X81395522Y-85420259D01*
X81602219Y-85558370D01*
X81831888Y-85653502D01*
X82075704Y-85702000D01*
X82324296Y-85702000D01*
X82568112Y-85653502D01*
X82797781Y-85558370D01*
X83004478Y-85420259D01*
X83180259Y-85244478D01*
X83318370Y-85037781D01*
X83413502Y-84808112D01*
X83462000Y-84564296D01*
X83462000Y-84315704D01*
X88558000Y-84315704D01*
X88558000Y-84564296D01*
X88606498Y-84808112D01*
X88701630Y-85037781D01*
X88839741Y-85244478D01*
X89015522Y-85420259D01*
X89222219Y-85558370D01*
X89451888Y-85653502D01*
X89695704Y-85702000D01*
X89944296Y-85702000D01*
X90188112Y-85653502D01*
X90417781Y-85558370D01*
X90624478Y-85420259D01*
X90800259Y-85244478D01*
X90938370Y-85037781D01*
X91033502Y-84808112D01*
X91082000Y-84564296D01*
X91082000Y-84315704D01*
X91034262Y-84075704D01*
X123578000Y-84075704D01*
X123578000Y-84324296D01*
X123626498Y-84568112D01*
X123721630Y-84797781D01*
X123859741Y-85004478D01*
X124035522Y-85180259D01*
X124242219Y-85318370D01*
X124471888Y-85413502D01*
X124715704Y-85462000D01*
X124964296Y-85462000D01*
X125208112Y-85413502D01*
X125437781Y-85318370D01*
X125644478Y-85180259D01*
X125820259Y-85004478D01*
X125958370Y-84797781D01*
X126053502Y-84568112D01*
X126102000Y-84324296D01*
X126102000Y-84075704D01*
X126053502Y-83831888D01*
X125958370Y-83602219D01*
X125820259Y-83395522D01*
X125644478Y-83219741D01*
X125437781Y-83081630D01*
X125361420Y-83050000D01*
X134867581Y-83050000D01*
X134867581Y-84750000D01*
X134877235Y-84848017D01*
X134905825Y-84942267D01*
X134952254Y-85029129D01*
X135014736Y-85105264D01*
X135090871Y-85167746D01*
X135177733Y-85214175D01*
X135271983Y-85242765D01*
X135370000Y-85252419D01*
X137070000Y-85252419D01*
X137168017Y-85242765D01*
X137262267Y-85214175D01*
X137349129Y-85167746D01*
X137425264Y-85105264D01*
X137487746Y-85029129D01*
X137534175Y-84942267D01*
X137562765Y-84848017D01*
X137572419Y-84750000D01*
X137572419Y-84542022D01*
X137632085Y-84653649D01*
X137800787Y-84859213D01*
X138006351Y-85027915D01*
X138240878Y-85153272D01*
X138495354Y-85230467D01*
X138693679Y-85250000D01*
X138826321Y-85250000D01*
X139024646Y-85230467D01*
X139279122Y-85153272D01*
X139513649Y-85027915D01*
X139719213Y-84859213D01*
X139887915Y-84653649D01*
X140013272Y-84419122D01*
X140090467Y-84164646D01*
X140116532Y-83900000D01*
X140090467Y-83635354D01*
X140013272Y-83380878D01*
X139887915Y-83146351D01*
X139719213Y-82940787D01*
X139513649Y-82772085D01*
X139279122Y-82646728D01*
X139024646Y-82569533D01*
X138826321Y-82550000D01*
X138693679Y-82550000D01*
X138495354Y-82569533D01*
X138240878Y-82646728D01*
X138006351Y-82772085D01*
X137800787Y-82940787D01*
X137632085Y-83146351D01*
X137572419Y-83257978D01*
X137572419Y-83050000D01*
X137562765Y-82951983D01*
X137534175Y-82857733D01*
X137487746Y-82770871D01*
X137425264Y-82694736D01*
X137349129Y-82632254D01*
X137262267Y-82585825D01*
X137168017Y-82557235D01*
X137070000Y-82547581D01*
X135370000Y-82547581D01*
X135271983Y-82557235D01*
X135177733Y-82585825D01*
X135090871Y-82632254D01*
X135014736Y-82694736D01*
X134952254Y-82770871D01*
X134905825Y-82857733D01*
X134877235Y-82951983D01*
X134867581Y-83050000D01*
X125361420Y-83050000D01*
X125208112Y-82986498D01*
X124964296Y-82938000D01*
X124715704Y-82938000D01*
X124471888Y-82986498D01*
X124242219Y-83081630D01*
X124035522Y-83219741D01*
X123859741Y-83395522D01*
X123721630Y-83602219D01*
X123626498Y-83831888D01*
X123578000Y-84075704D01*
X91034262Y-84075704D01*
X91033502Y-84071888D01*
X90938370Y-83842219D01*
X90800259Y-83635522D01*
X90624478Y-83459741D01*
X90417781Y-83321630D01*
X90188112Y-83226498D01*
X89944296Y-83178000D01*
X89695704Y-83178000D01*
X89451888Y-83226498D01*
X89222219Y-83321630D01*
X89015522Y-83459741D01*
X88839741Y-83635522D01*
X88701630Y-83842219D01*
X88606498Y-84071888D01*
X88558000Y-84315704D01*
X83462000Y-84315704D01*
X83413502Y-84071888D01*
X83318370Y-83842219D01*
X83180259Y-83635522D01*
X83004478Y-83459741D01*
X82797781Y-83321630D01*
X82568112Y-83226498D01*
X82324296Y-83178000D01*
X82075704Y-83178000D01*
X81831888Y-83226498D01*
X81602219Y-83321630D01*
X81395522Y-83459741D01*
X81219741Y-83635522D01*
X81081630Y-83842219D01*
X80986498Y-84071888D01*
X80938000Y-84315704D01*
X79121356Y-84315704D01*
X79121356Y-81775704D01*
X88558000Y-81775704D01*
X88558000Y-82024296D01*
X88606498Y-82268112D01*
X88701630Y-82497781D01*
X88839741Y-82704478D01*
X89015522Y-82880259D01*
X89222219Y-83018370D01*
X89451888Y-83113502D01*
X89695704Y-83162000D01*
X89944296Y-83162000D01*
X90188112Y-83113502D01*
X90417781Y-83018370D01*
X90624478Y-82880259D01*
X90800259Y-82704478D01*
X90938370Y-82497781D01*
X91033502Y-82268112D01*
X91082000Y-82024296D01*
X91082000Y-81775704D01*
X91034262Y-81535704D01*
X123578000Y-81535704D01*
X123578000Y-81784296D01*
X123626498Y-82028112D01*
X123721630Y-82257781D01*
X123859741Y-82464478D01*
X124035522Y-82640259D01*
X124242219Y-82778370D01*
X124471888Y-82873502D01*
X124715704Y-82922000D01*
X124964296Y-82922000D01*
X125208112Y-82873502D01*
X125437781Y-82778370D01*
X125644478Y-82640259D01*
X125820259Y-82464478D01*
X125958370Y-82257781D01*
X126053502Y-82028112D01*
X126102000Y-81784296D01*
X126102000Y-81535704D01*
X126053502Y-81291888D01*
X125958370Y-81062219D01*
X125820259Y-80855522D01*
X125644478Y-80679741D01*
X125437781Y-80541630D01*
X125208112Y-80446498D01*
X124964296Y-80398000D01*
X124715704Y-80398000D01*
X124471888Y-80446498D01*
X124242219Y-80541630D01*
X124035522Y-80679741D01*
X123859741Y-80855522D01*
X123721630Y-81062219D01*
X123626498Y-81291888D01*
X123578000Y-81535704D01*
X91034262Y-81535704D01*
X91033502Y-81531888D01*
X90938370Y-81302219D01*
X90800259Y-81095522D01*
X90624478Y-80919741D01*
X90417781Y-80781630D01*
X90188112Y-80686498D01*
X89944296Y-80638000D01*
X89695704Y-80638000D01*
X89451888Y-80686498D01*
X89222219Y-80781630D01*
X89015522Y-80919741D01*
X88839741Y-81095522D01*
X88701630Y-81302219D01*
X88606498Y-81531888D01*
X88558000Y-81775704D01*
X79121356Y-81775704D01*
X79121356Y-74729801D01*
X81155000Y-74729801D01*
X81155000Y-75030199D01*
X81213605Y-75324826D01*
X81328562Y-75602358D01*
X81495455Y-75852131D01*
X81707869Y-76064545D01*
X81957642Y-76231438D01*
X82235174Y-76346395D01*
X82529801Y-76405000D01*
X82830199Y-76405000D01*
X83124826Y-76346395D01*
X83402358Y-76231438D01*
X83652131Y-76064545D01*
X83864545Y-75852131D01*
X84031438Y-75602358D01*
X84146395Y-75324826D01*
X84205000Y-75030199D01*
X84205000Y-74729801D01*
X84146395Y-74435174D01*
X84031438Y-74157642D01*
X83864545Y-73907869D01*
X83652131Y-73695455D01*
X83402358Y-73528562D01*
X83124826Y-73413605D01*
X82830199Y-73355000D01*
X82529801Y-73355000D01*
X82235174Y-73413605D01*
X81957642Y-73528562D01*
X81707869Y-73695455D01*
X81495455Y-73907869D01*
X81328562Y-74157642D01*
X81213605Y-74435174D01*
X81155000Y-74729801D01*
X79121356Y-74729801D01*
X79121356Y-67970000D01*
X84307581Y-67970000D01*
X84307581Y-69670000D01*
X84317235Y-69768017D01*
X84345825Y-69862267D01*
X84392254Y-69949129D01*
X84454736Y-70025264D01*
X84530871Y-70087746D01*
X84617733Y-70134175D01*
X84711983Y-70162765D01*
X84810000Y-70172419D01*
X86510000Y-70172419D01*
X86608017Y-70162765D01*
X86702267Y-70134175D01*
X86789129Y-70087746D01*
X86865264Y-70025264D01*
X86927746Y-69949129D01*
X86974175Y-69862267D01*
X87002765Y-69768017D01*
X87012419Y-69670000D01*
X87012419Y-69462022D01*
X87072085Y-69573649D01*
X87240787Y-69779213D01*
X87446351Y-69947915D01*
X87680878Y-70073272D01*
X87935354Y-70150467D01*
X88133679Y-70170000D01*
X88266321Y-70170000D01*
X88464646Y-70150467D01*
X88719122Y-70073272D01*
X88953649Y-69947915D01*
X89159213Y-69779213D01*
X89327915Y-69573649D01*
X89453272Y-69339122D01*
X89530467Y-69084646D01*
X89556532Y-68820000D01*
X89530467Y-68555354D01*
X89453272Y-68300878D01*
X89327915Y-68066351D01*
X89159213Y-67860787D01*
X88953649Y-67692085D01*
X88719122Y-67566728D01*
X88464646Y-67489533D01*
X88266321Y-67470000D01*
X88133679Y-67470000D01*
X87935354Y-67489533D01*
X87680878Y-67566728D01*
X87446351Y-67692085D01*
X87240787Y-67860787D01*
X87072085Y-68066351D01*
X87012419Y-68177978D01*
X87012419Y-67970000D01*
X87002765Y-67871983D01*
X86974175Y-67777733D01*
X86927746Y-67690871D01*
X86865264Y-67614736D01*
X86789129Y-67552254D01*
X86702267Y-67505825D01*
X86608017Y-67477235D01*
X86510000Y-67467581D01*
X84810000Y-67467581D01*
X84711983Y-67477235D01*
X84617733Y-67505825D01*
X84530871Y-67552254D01*
X84454736Y-67614736D01*
X84392254Y-67690871D01*
X84345825Y-67777733D01*
X84317235Y-67871983D01*
X84307581Y-67970000D01*
X79121356Y-67970000D01*
X79121356Y-65625772D01*
X79204197Y-65825768D01*
X79554398Y-66349881D01*
X80000119Y-66795602D01*
X80524232Y-67145803D01*
X81106595Y-67387025D01*
X81724828Y-67510000D01*
X82355172Y-67510000D01*
X82973405Y-67387025D01*
X83555768Y-67145803D01*
X84079881Y-66795602D01*
X84525602Y-66349881D01*
X84875803Y-65825768D01*
X85117025Y-65243405D01*
X85240000Y-64625172D01*
X85240000Y-63994828D01*
X85117025Y-63376595D01*
X84875803Y-62794232D01*
X84525602Y-62270119D01*
X84079881Y-61824398D01*
X83555768Y-61474197D01*
X83358801Y-61392611D01*
X86489496Y-61392611D01*
X86489277Y-61392877D01*
X86489277Y-61392877D01*
G37*
X86489277Y-61392877D02*
X86475920Y-61403839D01*
X86397817Y-61499009D01*
X86339781Y-61607586D01*
X86304043Y-61725399D01*
X86295000Y-61817216D01*
X86295000Y-61817225D01*
X86291977Y-61847919D01*
X86292634Y-61854586D01*
X86166351Y-61922085D01*
X85960787Y-62090787D01*
X85792085Y-62296351D01*
X85666728Y-62530878D01*
X85589533Y-62785354D01*
X85563468Y-63050000D01*
X85589533Y-63314646D01*
X85666728Y-63569122D01*
X85792085Y-63803649D01*
X85960787Y-64009213D01*
X86166351Y-64177915D01*
X86277978Y-64237581D01*
X86070000Y-64237581D01*
X85971983Y-64247235D01*
X85877733Y-64275825D01*
X85790871Y-64322254D01*
X85714736Y-64384736D01*
X85652254Y-64460871D01*
X85605825Y-64547733D01*
X85577235Y-64641983D01*
X85567581Y-64740000D01*
X85567581Y-66440000D01*
X85577235Y-66538017D01*
X85605825Y-66632267D01*
X85652254Y-66719129D01*
X85714736Y-66795264D01*
X85790871Y-66857746D01*
X85877733Y-66904175D01*
X85971983Y-66932765D01*
X86070000Y-66942419D01*
X87770000Y-66942419D01*
X87868017Y-66932765D01*
X87962267Y-66904175D01*
X88049129Y-66857746D01*
X88125264Y-66795264D01*
X88187746Y-66719129D01*
X88234175Y-66632267D01*
X88262765Y-66538017D01*
X88272419Y-66440000D01*
X88272419Y-66232022D01*
X88332085Y-66343649D01*
X88500787Y-66549213D01*
X88706351Y-66717915D01*
X88940878Y-66843272D01*
X89195354Y-66920467D01*
X89393679Y-66940000D01*
X89526321Y-66940000D01*
X89724646Y-66920467D01*
X89979122Y-66843272D01*
X90213649Y-66717915D01*
X90419213Y-66549213D01*
X90587915Y-66343649D01*
X90713272Y-66109122D01*
X90730000Y-66053978D01*
X90746728Y-66109122D01*
X90872085Y-66343649D01*
X91040787Y-66549213D01*
X91246351Y-66717915D01*
X91480878Y-66843272D01*
X91735354Y-66920467D01*
X91933679Y-66940000D01*
X92066321Y-66940000D01*
X92264646Y-66920467D01*
X92519122Y-66843272D01*
X92753649Y-66717915D01*
X92959213Y-66549213D01*
X93127915Y-66343649D01*
X93253272Y-66109122D01*
X93270000Y-66053978D01*
X93286728Y-66109122D01*
X93412085Y-66343649D01*
X93580787Y-66549213D01*
X93786351Y-66717915D01*
X94020878Y-66843272D01*
X94275354Y-66920467D01*
X94473679Y-66940000D01*
X94606321Y-66940000D01*
X94804646Y-66920467D01*
X95059122Y-66843272D01*
X95293649Y-66717915D01*
X95499213Y-66549213D01*
X95667915Y-66343649D01*
X95793272Y-66109122D01*
X95870467Y-65854646D01*
X95896532Y-65590000D01*
X95870467Y-65325354D01*
X95793272Y-65070878D01*
X95667915Y-64836351D01*
X95499213Y-64630787D01*
X95293649Y-64462085D01*
X95059122Y-64336728D01*
X95003978Y-64320000D01*
X95059122Y-64303272D01*
X95293649Y-64177915D01*
X95499213Y-64009213D01*
X95667915Y-63803649D01*
X95793272Y-63569122D01*
X95810000Y-63513978D01*
X95826728Y-63569122D01*
X95952085Y-63803649D01*
X96120787Y-64009213D01*
X96326351Y-64177915D01*
X96560878Y-64303272D01*
X96815354Y-64380467D01*
X97013679Y-64400000D01*
X97146321Y-64400000D01*
X97344646Y-64380467D01*
X97599122Y-64303272D01*
X97833649Y-64177915D01*
X98039213Y-64009213D01*
X98207915Y-63803649D01*
X98333272Y-63569122D01*
X98350000Y-63513978D01*
X98366728Y-63569122D01*
X98492085Y-63803649D01*
X98660787Y-64009213D01*
X98866351Y-64177915D01*
X99100878Y-64303272D01*
X99156022Y-64320000D01*
X99100878Y-64336728D01*
X98866351Y-64462085D01*
X98660787Y-64630787D01*
X98492085Y-64836351D01*
X98366728Y-65070878D01*
X98289533Y-65325354D01*
X98263468Y-65590000D01*
X98289533Y-65854646D01*
X98366728Y-66109122D01*
X98492085Y-66343649D01*
X98660787Y-66549213D01*
X98866351Y-66717915D01*
X99100878Y-66843272D01*
X99355354Y-66920467D01*
X99553679Y-66940000D01*
X99686321Y-66940000D01*
X99884646Y-66920467D01*
X100139122Y-66843272D01*
X100373649Y-66717915D01*
X100579213Y-66549213D01*
X100747915Y-66343649D01*
X100873272Y-66109122D01*
X100890000Y-66053978D01*
X100906728Y-66109122D01*
X101032085Y-66343649D01*
X101200787Y-66549213D01*
X101406351Y-66717915D01*
X101640878Y-66843272D01*
X101895354Y-66920467D01*
X102093679Y-66940000D01*
X102226321Y-66940000D01*
X102424646Y-66920467D01*
X102679122Y-66843272D01*
X102913649Y-66717915D01*
X103119213Y-66549213D01*
X103287915Y-66343649D01*
X103413272Y-66109122D01*
X103430000Y-66053978D01*
X103446728Y-66109122D01*
X103572085Y-66343649D01*
X103740787Y-66549213D01*
X103946351Y-66717915D01*
X104180878Y-66843272D01*
X104435354Y-66920467D01*
X104633679Y-66940000D01*
X104766321Y-66940000D01*
X104964646Y-66920467D01*
X105219122Y-66843272D01*
X105453649Y-66717915D01*
X105659213Y-66549213D01*
X105827915Y-66343649D01*
X105953272Y-66109122D01*
X105970000Y-66053978D01*
X105986728Y-66109122D01*
X106112085Y-66343649D01*
X106280787Y-66549213D01*
X106486351Y-66717915D01*
X106720878Y-66843272D01*
X106975354Y-66920467D01*
X107173679Y-66940000D01*
X107306321Y-66940000D01*
X107504646Y-66920467D01*
X107759122Y-66843272D01*
X107993649Y-66717915D01*
X108199213Y-66549213D01*
X108367915Y-66343649D01*
X108493272Y-66109122D01*
X108510000Y-66053978D01*
X108526728Y-66109122D01*
X108652085Y-66343649D01*
X108820787Y-66549213D01*
X109026351Y-66717915D01*
X109260878Y-66843272D01*
X109515354Y-66920467D01*
X109713679Y-66940000D01*
X109846321Y-66940000D01*
X110044646Y-66920467D01*
X110299122Y-66843272D01*
X110533649Y-66717915D01*
X110739213Y-66549213D01*
X110907915Y-66343649D01*
X111033272Y-66109122D01*
X111050000Y-66053978D01*
X111066728Y-66109122D01*
X111192085Y-66343649D01*
X111360787Y-66549213D01*
X111566351Y-66717915D01*
X111800878Y-66843272D01*
X112055354Y-66920467D01*
X112253679Y-66940000D01*
X112386321Y-66940000D01*
X112584646Y-66920467D01*
X112839122Y-66843272D01*
X113073649Y-66717915D01*
X113279213Y-66549213D01*
X113447915Y-66343649D01*
X113573272Y-66109122D01*
X113590000Y-66053978D01*
X113606728Y-66109122D01*
X113732085Y-66343649D01*
X113900787Y-66549213D01*
X114106351Y-66717915D01*
X114340878Y-66843272D01*
X114595354Y-66920467D01*
X114793679Y-66940000D01*
X114926321Y-66940000D01*
X115124646Y-66920467D01*
X115379122Y-66843272D01*
X115613649Y-66717915D01*
X115819213Y-66549213D01*
X115987915Y-66343649D01*
X116113272Y-66109122D01*
X116190467Y-65854646D01*
X116216532Y-65590000D01*
X116190467Y-65325354D01*
X116113272Y-65070878D01*
X115987915Y-64836351D01*
X115819213Y-64630787D01*
X115613649Y-64462085D01*
X115379122Y-64336728D01*
X115323978Y-64320000D01*
X115379122Y-64303272D01*
X115613649Y-64177915D01*
X115819213Y-64009213D01*
X115987915Y-63803649D01*
X116113272Y-63569122D01*
X116130000Y-63513978D01*
X116146728Y-63569122D01*
X116272085Y-63803649D01*
X116440787Y-64009213D01*
X116646351Y-64177915D01*
X116880878Y-64303272D01*
X117135354Y-64380467D01*
X117333679Y-64400000D01*
X117466321Y-64400000D01*
X117664646Y-64380467D01*
X117919122Y-64303272D01*
X118153649Y-64177915D01*
X118359213Y-64009213D01*
X118527915Y-63803649D01*
X118653272Y-63569122D01*
X118670000Y-63513978D01*
X118686728Y-63569122D01*
X118812085Y-63803649D01*
X118980787Y-64009213D01*
X119186351Y-64177915D01*
X119420878Y-64303272D01*
X119476022Y-64320000D01*
X119420878Y-64336728D01*
X119186351Y-64462085D01*
X118980787Y-64630787D01*
X118812085Y-64836351D01*
X118686728Y-65070878D01*
X118609533Y-65325354D01*
X118583468Y-65590000D01*
X118609533Y-65854646D01*
X118686728Y-66109122D01*
X118812085Y-66343649D01*
X118980787Y-66549213D01*
X119186351Y-66717915D01*
X119420878Y-66843272D01*
X119675354Y-66920467D01*
X119873679Y-66940000D01*
X120006321Y-66940000D01*
X120204646Y-66920467D01*
X120459122Y-66843272D01*
X120693649Y-66717915D01*
X120899213Y-66549213D01*
X121067915Y-66343649D01*
X121193272Y-66109122D01*
X121210000Y-66053978D01*
X121226728Y-66109122D01*
X121352085Y-66343649D01*
X121520787Y-66549213D01*
X121726351Y-66717915D01*
X121960878Y-66843272D01*
X122215354Y-66920467D01*
X122413679Y-66940000D01*
X122546321Y-66940000D01*
X122744646Y-66920467D01*
X122999122Y-66843272D01*
X123233649Y-66717915D01*
X123439213Y-66549213D01*
X123607915Y-66343649D01*
X123733272Y-66109122D01*
X123750000Y-66053978D01*
X123766728Y-66109122D01*
X123892085Y-66343649D01*
X124060787Y-66549213D01*
X124266351Y-66717915D01*
X124500878Y-66843272D01*
X124755354Y-66920467D01*
X124953679Y-66940000D01*
X125086321Y-66940000D01*
X125284646Y-66920467D01*
X125539122Y-66843272D01*
X125773649Y-66717915D01*
X125979213Y-66549213D01*
X126147915Y-66343649D01*
X126273272Y-66109122D01*
X126290000Y-66053978D01*
X126306728Y-66109122D01*
X126432085Y-66343649D01*
X126600787Y-66549213D01*
X126806351Y-66717915D01*
X127040878Y-66843272D01*
X127295354Y-66920467D01*
X127493679Y-66940000D01*
X127626321Y-66940000D01*
X127824646Y-66920467D01*
X128079122Y-66843272D01*
X128313649Y-66717915D01*
X128519213Y-66549213D01*
X128687915Y-66343649D01*
X128813272Y-66109122D01*
X128830000Y-66053978D01*
X128846728Y-66109122D01*
X128972085Y-66343649D01*
X129140787Y-66549213D01*
X129346351Y-66717915D01*
X129580878Y-66843272D01*
X129835354Y-66920467D01*
X130033679Y-66940000D01*
X130166321Y-66940000D01*
X130364646Y-66920467D01*
X130619122Y-66843272D01*
X130743800Y-66776630D01*
X130743800Y-68800415D01*
X130704159Y-68859742D01*
X130647622Y-68996233D01*
X130618800Y-69141131D01*
X130618800Y-69288869D01*
X130647622Y-69433767D01*
X130704159Y-69570258D01*
X130786237Y-69693097D01*
X130890703Y-69797563D01*
X131013542Y-69879641D01*
X131150033Y-69936178D01*
X131220016Y-69950099D01*
X132030702Y-70760784D01*
X132044622Y-70830767D01*
X132101159Y-70967258D01*
X132183237Y-71090097D01*
X132287703Y-71194563D01*
X132410542Y-71276641D01*
X132547033Y-71333178D01*
X132691931Y-71362000D01*
X132839669Y-71362000D01*
X132984567Y-71333178D01*
X133121058Y-71276641D01*
X133243897Y-71194563D01*
X133348363Y-71090097D01*
X133430441Y-70967258D01*
X133486978Y-70830767D01*
X133515800Y-70685869D01*
X133515800Y-70538131D01*
X133486978Y-70393233D01*
X133430441Y-70256742D01*
X133348363Y-70133903D01*
X133243897Y-70029437D01*
X133121058Y-69947359D01*
X132984567Y-69890822D01*
X132914584Y-69876902D01*
X132799683Y-69762000D01*
X136887081Y-69762000D01*
X136887081Y-71462000D01*
X136896735Y-71560017D01*
X136925325Y-71654267D01*
X136971754Y-71741129D01*
X137034236Y-71817264D01*
X137110371Y-71879746D01*
X137197233Y-71926175D01*
X137291483Y-71954765D01*
X137389500Y-71964419D01*
X139089500Y-71964419D01*
X139187517Y-71954765D01*
X139281767Y-71926175D01*
X139368629Y-71879746D01*
X139444764Y-71817264D01*
X139507246Y-71741129D01*
X139553675Y-71654267D01*
X139582265Y-71560017D01*
X139591919Y-71462000D01*
X139591919Y-71254022D01*
X139651585Y-71365649D01*
X139820287Y-71571213D01*
X140025851Y-71739915D01*
X140260378Y-71865272D01*
X140514854Y-71942467D01*
X140713179Y-71962000D01*
X140845821Y-71962000D01*
X141044146Y-71942467D01*
X141298622Y-71865272D01*
X141533149Y-71739915D01*
X141738713Y-71571213D01*
X141907415Y-71365649D01*
X142032772Y-71131122D01*
X142109967Y-70876646D01*
X142136032Y-70612000D01*
X142109967Y-70347354D01*
X142032772Y-70092878D01*
X141907415Y-69858351D01*
X141738713Y-69652787D01*
X141533149Y-69484085D01*
X141298622Y-69358728D01*
X141044146Y-69281533D01*
X140845821Y-69262000D01*
X140713179Y-69262000D01*
X140514854Y-69281533D01*
X140260378Y-69358728D01*
X140025851Y-69484085D01*
X139820287Y-69652787D01*
X139651585Y-69858351D01*
X139591919Y-69969978D01*
X139591919Y-69762000D01*
X139582265Y-69663983D01*
X139553675Y-69569733D01*
X139507246Y-69482871D01*
X139444764Y-69406736D01*
X139368629Y-69344254D01*
X139281767Y-69297825D01*
X139187517Y-69269235D01*
X139089500Y-69259581D01*
X137389500Y-69259581D01*
X137291483Y-69269235D01*
X137197233Y-69297825D01*
X137110371Y-69344254D01*
X137034236Y-69406736D01*
X136971754Y-69482871D01*
X136925325Y-69569733D01*
X136896735Y-69663983D01*
X136887081Y-69762000D01*
X132799683Y-69762000D01*
X132103899Y-69066216D01*
X132089978Y-68996233D01*
X132033441Y-68859742D01*
X131993800Y-68800415D01*
X131993800Y-66775348D01*
X132120878Y-66843272D01*
X132375354Y-66920467D01*
X132573679Y-66940000D01*
X132706321Y-66940000D01*
X132904646Y-66920467D01*
X133159122Y-66843272D01*
X133393649Y-66717915D01*
X133599213Y-66549213D01*
X133767915Y-66343649D01*
X133893272Y-66109122D01*
X133970467Y-65854646D01*
X133996532Y-65590000D01*
X133970467Y-65325354D01*
X133893272Y-65070878D01*
X133767915Y-64836351D01*
X133599213Y-64630787D01*
X133393649Y-64462085D01*
X133159122Y-64336728D01*
X133103978Y-64320000D01*
X133159122Y-64303272D01*
X133393649Y-64177915D01*
X133599213Y-64009213D01*
X133767915Y-63803649D01*
X133893272Y-63569122D01*
X133910000Y-63513978D01*
X133926728Y-63569122D01*
X134052085Y-63803649D01*
X134220787Y-64009213D01*
X134426351Y-64177915D01*
X134660878Y-64303272D01*
X134915354Y-64380467D01*
X135113679Y-64400000D01*
X135246321Y-64400000D01*
X135444646Y-64380467D01*
X135699122Y-64303272D01*
X135933649Y-64177915D01*
X136139213Y-64009213D01*
X136307915Y-63803649D01*
X136433272Y-63569122D01*
X136510467Y-63314646D01*
X136536532Y-63050000D01*
X136510467Y-62785354D01*
X136433272Y-62530878D01*
X136307915Y-62296351D01*
X136139213Y-62090787D01*
X135933649Y-61922085D01*
X135699122Y-61796728D01*
X135444646Y-61719533D01*
X135246321Y-61700000D01*
X135113679Y-61700000D01*
X134915354Y-61719533D01*
X134660878Y-61796728D01*
X134426351Y-61922085D01*
X134220787Y-62090787D01*
X134052085Y-62296351D01*
X133926728Y-62530878D01*
X133910000Y-62586022D01*
X133893272Y-62530878D01*
X133767915Y-62296351D01*
X133599213Y-62090787D01*
X133393649Y-61922085D01*
X133159122Y-61796728D01*
X132904646Y-61719533D01*
X132706321Y-61700000D01*
X132573679Y-61700000D01*
X132375354Y-61719533D01*
X132120878Y-61796728D01*
X131993800Y-61864652D01*
X131993800Y-61854293D01*
X131996823Y-61823599D01*
X131993800Y-61792905D01*
X131993800Y-61792896D01*
X131984757Y-61701079D01*
X131949019Y-61583266D01*
X131896200Y-61484449D01*
X131890982Y-61474687D01*
X131857395Y-61433762D01*
X131823623Y-61392611D01*
X138769483Y-61392611D01*
X138524232Y-61494197D01*
X138000119Y-61844398D01*
X137554398Y-62290119D01*
X137204197Y-62814232D01*
X136962975Y-63396595D01*
X136840000Y-64014828D01*
X136840000Y-64645172D01*
X136962975Y-65263405D01*
X137204197Y-65845768D01*
X137554398Y-66369881D01*
X138000119Y-66815602D01*
X138524232Y-67165803D01*
X139106595Y-67407025D01*
X139724828Y-67530000D01*
X140355172Y-67530000D01*
X140973405Y-67407025D01*
X141555768Y-67165803D01*
X142079881Y-66815602D01*
X142525602Y-66369881D01*
X142875803Y-65845768D01*
X142971357Y-65615080D01*
X142971351Y-112049049D01*
X142865803Y-111794232D01*
X142515602Y-111270119D01*
X142069881Y-110824398D01*
X141545768Y-110474197D01*
X140963405Y-110232975D01*
X140345172Y-110110000D01*
X139714828Y-110110000D01*
X139096595Y-110232975D01*
X138514232Y-110474197D01*
X137990119Y-110824398D01*
X137544398Y-111270119D01*
X137194197Y-111794232D01*
X136952975Y-112376595D01*
X136830000Y-112994828D01*
X136830000Y-113625172D01*
X136952975Y-114243405D01*
X137194197Y-114825768D01*
X137544398Y-115349881D01*
X137990119Y-115795602D01*
X138514232Y-116145803D01*
X138747948Y-116242611D01*
X83346194Y-116242611D01*
X83555768Y-116155803D01*
X84079881Y-115805602D01*
X84525602Y-115359881D01*
X84875803Y-114835768D01*
X85117025Y-114253405D01*
X85240000Y-113635172D01*
X85240000Y-113004828D01*
X85236852Y-112989000D01*
X99059081Y-112989000D01*
X99059081Y-114689000D01*
X99068735Y-114787017D01*
X99097325Y-114881267D01*
X99143754Y-114968129D01*
X99206236Y-115044264D01*
X99282371Y-115106746D01*
X99369233Y-115153175D01*
X99463483Y-115181765D01*
X99561500Y-115191419D01*
X101261500Y-115191419D01*
X101359517Y-115181765D01*
X101453767Y-115153175D01*
X101540629Y-115106746D01*
X101616764Y-115044264D01*
X101679246Y-114968129D01*
X101725675Y-114881267D01*
X101754265Y-114787017D01*
X101763919Y-114689000D01*
X101763919Y-114481022D01*
X101823585Y-114592649D01*
X101992287Y-114798213D01*
X102197851Y-114966915D01*
X102432378Y-115092272D01*
X102686854Y-115169467D01*
X102885179Y-115189000D01*
X103017821Y-115189000D01*
X103216146Y-115169467D01*
X103470622Y-115092272D01*
X103705149Y-114966915D01*
X103910713Y-114798213D01*
X104079415Y-114592649D01*
X104204772Y-114358122D01*
X104281967Y-114103646D01*
X104308032Y-113839000D01*
X104281967Y-113574354D01*
X104204772Y-113319878D01*
X104079415Y-113085351D01*
X103910713Y-112879787D01*
X103705149Y-112711085D01*
X103470622Y-112585728D01*
X103216146Y-112508533D01*
X103017821Y-112489000D01*
X102885179Y-112489000D01*
X102686854Y-112508533D01*
X102432378Y-112585728D01*
X102197851Y-112711085D01*
X101992287Y-112879787D01*
X101823585Y-113085351D01*
X101763919Y-113196978D01*
X101763919Y-112989000D01*
X101754265Y-112890983D01*
X101725675Y-112796733D01*
X101679246Y-112709871D01*
X101616764Y-112633736D01*
X101540629Y-112571254D01*
X101453767Y-112524825D01*
X101359517Y-112496235D01*
X101261500Y-112486581D01*
X99561500Y-112486581D01*
X99463483Y-112496235D01*
X99369233Y-112524825D01*
X99282371Y-112571254D01*
X99206236Y-112633736D01*
X99143754Y-112709871D01*
X99097325Y-112796733D01*
X99068735Y-112890983D01*
X99059081Y-112989000D01*
X85236852Y-112989000D01*
X85117025Y-112386595D01*
X85084595Y-112308301D01*
X116458000Y-112308301D01*
X116458000Y-112608699D01*
X116516605Y-112903326D01*
X116631562Y-113180858D01*
X116798455Y-113430631D01*
X117010869Y-113643045D01*
X117260642Y-113809938D01*
X117538174Y-113924895D01*
X117832801Y-113983500D01*
X118133199Y-113983500D01*
X118427826Y-113924895D01*
X118705358Y-113809938D01*
X118955131Y-113643045D01*
X119167545Y-113430631D01*
X119334438Y-113180858D01*
X119449395Y-112903326D01*
X119508000Y-112608699D01*
X119508000Y-112308301D01*
X119449395Y-112013674D01*
X119334438Y-111736142D01*
X119167545Y-111486369D01*
X118955131Y-111273955D01*
X118705358Y-111107062D01*
X118427826Y-110992105D01*
X118133199Y-110933500D01*
X117832801Y-110933500D01*
X117538174Y-110992105D01*
X117260642Y-111107062D01*
X117010869Y-111273955D01*
X116798455Y-111486369D01*
X116631562Y-111736142D01*
X116516605Y-112013674D01*
X116458000Y-112308301D01*
X85084595Y-112308301D01*
X84875803Y-111804232D01*
X84525602Y-111280119D01*
X84079881Y-110834398D01*
X83555768Y-110484197D01*
X82973405Y-110242975D01*
X82355172Y-110120000D01*
X81724828Y-110120000D01*
X81106595Y-110242975D01*
X80524232Y-110484197D01*
X80000119Y-110834398D01*
X79554398Y-111280119D01*
X79204197Y-111804232D01*
X79121356Y-112004228D01*
X79121356Y-101854000D01*
X127230968Y-101854000D01*
X127257033Y-102118646D01*
X127334228Y-102373122D01*
X127459585Y-102607649D01*
X127628287Y-102813213D01*
X127833851Y-102981915D01*
X128068378Y-103107272D01*
X128322854Y-103184467D01*
X128521179Y-103204000D01*
X128653821Y-103204000D01*
X128852146Y-103184467D01*
X129106622Y-103107272D01*
X129341149Y-102981915D01*
X129546713Y-102813213D01*
X129715415Y-102607649D01*
X129840772Y-102373122D01*
X129917967Y-102118646D01*
X129944032Y-101854000D01*
X129917967Y-101589354D01*
X129840772Y-101334878D01*
X129715415Y-101100351D01*
X129546713Y-100894787D01*
X129341149Y-100726085D01*
X129229522Y-100666419D01*
X129437500Y-100666419D01*
X129535517Y-100656765D01*
X129629767Y-100628175D01*
X129716629Y-100581746D01*
X129792764Y-100519264D01*
X129855246Y-100443129D01*
X129901675Y-100356267D01*
X129930265Y-100262017D01*
X129939919Y-100164000D01*
X129939919Y-98464000D01*
X129930265Y-98365983D01*
X129901675Y-98271733D01*
X129855246Y-98184871D01*
X129792764Y-98108736D01*
X129716629Y-98046254D01*
X129629767Y-97999825D01*
X129535517Y-97971235D01*
X129437500Y-97961581D01*
X127737500Y-97961581D01*
X127639483Y-97971235D01*
X127545233Y-97999825D01*
X127458371Y-98046254D01*
X127382236Y-98108736D01*
X127319754Y-98184871D01*
X127273325Y-98271733D01*
X127244735Y-98365983D01*
X127235081Y-98464000D01*
X127235081Y-100164000D01*
X127244735Y-100262017D01*
X127273325Y-100356267D01*
X127319754Y-100443129D01*
X127382236Y-100519264D01*
X127458371Y-100581746D01*
X127545233Y-100628175D01*
X127639483Y-100656765D01*
X127737500Y-100666419D01*
X127945478Y-100666419D01*
X127833851Y-100726085D01*
X127628287Y-100894787D01*
X127459585Y-101100351D01*
X127334228Y-101334878D01*
X127257033Y-101589354D01*
X127230968Y-101854000D01*
X79121356Y-101854000D01*
X79121356Y-97369801D01*
X95475000Y-97369801D01*
X95475000Y-97670199D01*
X95533605Y-97964826D01*
X95648562Y-98242358D01*
X95815455Y-98492131D01*
X96027869Y-98704545D01*
X96277642Y-98871438D01*
X96555174Y-98986395D01*
X96849801Y-99045000D01*
X97150199Y-99045000D01*
X97444826Y-98986395D01*
X97722358Y-98871438D01*
X97972131Y-98704545D01*
X98184545Y-98492131D01*
X98351438Y-98242358D01*
X98466395Y-97964826D01*
X98525000Y-97670199D01*
X98525000Y-97369801D01*
X98521022Y-97349801D01*
X115875000Y-97349801D01*
X115875000Y-97650199D01*
X115933605Y-97944826D01*
X116048562Y-98222358D01*
X116215455Y-98472131D01*
X116427869Y-98684545D01*
X116677642Y-98851438D01*
X116955174Y-98966395D01*
X117249801Y-99025000D01*
X117550199Y-99025000D01*
X117844826Y-98966395D01*
X118122358Y-98851438D01*
X118372131Y-98684545D01*
X118584545Y-98472131D01*
X118751438Y-98222358D01*
X118866395Y-97944826D01*
X118925000Y-97650199D01*
X118925000Y-97349801D01*
X118866395Y-97055174D01*
X118751438Y-96777642D01*
X118584545Y-96527869D01*
X118372131Y-96315455D01*
X118122358Y-96148562D01*
X117844826Y-96033605D01*
X117550199Y-95975000D01*
X117249801Y-95975000D01*
X116955174Y-96033605D01*
X116677642Y-96148562D01*
X116427869Y-96315455D01*
X116215455Y-96527869D01*
X116048562Y-96777642D01*
X115933605Y-97055174D01*
X115875000Y-97349801D01*
X98521022Y-97349801D01*
X98466395Y-97075174D01*
X98351438Y-96797642D01*
X98184545Y-96547869D01*
X97972131Y-96335455D01*
X97722358Y-96168562D01*
X97444826Y-96053605D01*
X97150199Y-95995000D01*
X96849801Y-95995000D01*
X96555174Y-96053605D01*
X96277642Y-96168562D01*
X96027869Y-96335455D01*
X95815455Y-96547869D01*
X95648562Y-96797642D01*
X95533605Y-97075174D01*
X95475000Y-97369801D01*
X79121356Y-97369801D01*
X79121356Y-89395704D01*
X88558000Y-89395704D01*
X88558000Y-89644296D01*
X88606498Y-89888112D01*
X88701630Y-90117781D01*
X88839741Y-90324478D01*
X89015522Y-90500259D01*
X89222219Y-90638370D01*
X89451888Y-90733502D01*
X89695704Y-90782000D01*
X89944296Y-90782000D01*
X90188112Y-90733502D01*
X90417781Y-90638370D01*
X90624478Y-90500259D01*
X90800259Y-90324478D01*
X90938370Y-90117781D01*
X91033502Y-89888112D01*
X91082000Y-89644296D01*
X91082000Y-89395704D01*
X91034262Y-89155704D01*
X123578000Y-89155704D01*
X123578000Y-89404296D01*
X123626498Y-89648112D01*
X123721630Y-89877781D01*
X123859741Y-90084478D01*
X124035522Y-90260259D01*
X124242219Y-90398370D01*
X124471888Y-90493502D01*
X124715704Y-90542000D01*
X124964296Y-90542000D01*
X125208112Y-90493502D01*
X125437781Y-90398370D01*
X125644478Y-90260259D01*
X125820259Y-90084478D01*
X125821045Y-90083301D01*
X137286000Y-90083301D01*
X137286000Y-90383699D01*
X137344605Y-90678326D01*
X137459562Y-90955858D01*
X137626455Y-91205631D01*
X137838869Y-91418045D01*
X138088642Y-91584938D01*
X138366174Y-91699895D01*
X138660801Y-91758500D01*
X138961199Y-91758500D01*
X139255826Y-91699895D01*
X139533358Y-91584938D01*
X139783131Y-91418045D01*
X139995545Y-91205631D01*
X140162438Y-90955858D01*
X140277395Y-90678326D01*
X140336000Y-90383699D01*
X140336000Y-90083301D01*
X140277395Y-89788674D01*
X140162438Y-89511142D01*
X139995545Y-89261369D01*
X139783131Y-89048955D01*
X139533358Y-88882062D01*
X139255826Y-88767105D01*
X138961199Y-88708500D01*
X138660801Y-88708500D01*
X138366174Y-88767105D01*
X138088642Y-88882062D01*
X137838869Y-89048955D01*
X137626455Y-89261369D01*
X137459562Y-89511142D01*
X137344605Y-89788674D01*
X137286000Y-90083301D01*
X125821045Y-90083301D01*
X125958370Y-89877781D01*
X126053502Y-89648112D01*
X126102000Y-89404296D01*
X126102000Y-89155704D01*
X126053502Y-88911888D01*
X125958370Y-88682219D01*
X125820259Y-88475522D01*
X125644478Y-88299741D01*
X125437781Y-88161630D01*
X125208112Y-88066498D01*
X124964296Y-88018000D01*
X124715704Y-88018000D01*
X124471888Y-88066498D01*
X124242219Y-88161630D01*
X124035522Y-88299741D01*
X123859741Y-88475522D01*
X123721630Y-88682219D01*
X123626498Y-88911888D01*
X123578000Y-89155704D01*
X91034262Y-89155704D01*
X91033502Y-89151888D01*
X90938370Y-88922219D01*
X90800259Y-88715522D01*
X90624478Y-88539741D01*
X90417781Y-88401630D01*
X90188112Y-88306498D01*
X89944296Y-88258000D01*
X89695704Y-88258000D01*
X89451888Y-88306498D01*
X89222219Y-88401630D01*
X89015522Y-88539741D01*
X88839741Y-88715522D01*
X88701630Y-88922219D01*
X88606498Y-89151888D01*
X88558000Y-89395704D01*
X79121356Y-89395704D01*
X79121356Y-86855704D01*
X88558000Y-86855704D01*
X88558000Y-87104296D01*
X88606498Y-87348112D01*
X88701630Y-87577781D01*
X88839741Y-87784478D01*
X89015522Y-87960259D01*
X89222219Y-88098370D01*
X89451888Y-88193502D01*
X89695704Y-88242000D01*
X89944296Y-88242000D01*
X90188112Y-88193502D01*
X90417781Y-88098370D01*
X90624478Y-87960259D01*
X90800259Y-87784478D01*
X90938370Y-87577781D01*
X91033502Y-87348112D01*
X91082000Y-87104296D01*
X91082000Y-86855704D01*
X91034262Y-86615704D01*
X123578000Y-86615704D01*
X123578000Y-86864296D01*
X123626498Y-87108112D01*
X123721630Y-87337781D01*
X123859741Y-87544478D01*
X124035522Y-87720259D01*
X124242219Y-87858370D01*
X124471888Y-87953502D01*
X124715704Y-88002000D01*
X124964296Y-88002000D01*
X125208112Y-87953502D01*
X125437781Y-87858370D01*
X125644478Y-87720259D01*
X125820259Y-87544478D01*
X125958370Y-87337781D01*
X126053502Y-87108112D01*
X126102000Y-86864296D01*
X126102000Y-86615704D01*
X131198000Y-86615704D01*
X131198000Y-86864296D01*
X131246498Y-87108112D01*
X131341630Y-87337781D01*
X131479741Y-87544478D01*
X131655522Y-87720259D01*
X131862219Y-87858370D01*
X132091888Y-87953502D01*
X132335704Y-88002000D01*
X132584296Y-88002000D01*
X132828112Y-87953502D01*
X133057781Y-87858370D01*
X133264478Y-87720259D01*
X133440259Y-87544478D01*
X133578370Y-87337781D01*
X133673502Y-87108112D01*
X133722000Y-86864296D01*
X133722000Y-86615704D01*
X133673502Y-86371888D01*
X133578370Y-86142219D01*
X133440259Y-85935522D01*
X133264478Y-85759741D01*
X133057781Y-85621630D01*
X132828112Y-85526498D01*
X132584296Y-85478000D01*
X132335704Y-85478000D01*
X132091888Y-85526498D01*
X131862219Y-85621630D01*
X131655522Y-85759741D01*
X131479741Y-85935522D01*
X131341630Y-86142219D01*
X131246498Y-86371888D01*
X131198000Y-86615704D01*
X126102000Y-86615704D01*
X126053502Y-86371888D01*
X125958370Y-86142219D01*
X125820259Y-85935522D01*
X125644478Y-85759741D01*
X125437781Y-85621630D01*
X125208112Y-85526498D01*
X124964296Y-85478000D01*
X124715704Y-85478000D01*
X124471888Y-85526498D01*
X124242219Y-85621630D01*
X124035522Y-85759741D01*
X123859741Y-85935522D01*
X123721630Y-86142219D01*
X123626498Y-86371888D01*
X123578000Y-86615704D01*
X91034262Y-86615704D01*
X91033502Y-86611888D01*
X90938370Y-86382219D01*
X90800259Y-86175522D01*
X90624478Y-85999741D01*
X90417781Y-85861630D01*
X90188112Y-85766498D01*
X89944296Y-85718000D01*
X89695704Y-85718000D01*
X89451888Y-85766498D01*
X89222219Y-85861630D01*
X89015522Y-85999741D01*
X88839741Y-86175522D01*
X88701630Y-86382219D01*
X88606498Y-86611888D01*
X88558000Y-86855704D01*
X79121356Y-86855704D01*
X79121356Y-84315704D01*
X80938000Y-84315704D01*
X80938000Y-84564296D01*
X80986498Y-84808112D01*
X81081630Y-85037781D01*
X81219741Y-85244478D01*
X81395522Y-85420259D01*
X81602219Y-85558370D01*
X81831888Y-85653502D01*
X82075704Y-85702000D01*
X82324296Y-85702000D01*
X82568112Y-85653502D01*
X82797781Y-85558370D01*
X83004478Y-85420259D01*
X83180259Y-85244478D01*
X83318370Y-85037781D01*
X83413502Y-84808112D01*
X83462000Y-84564296D01*
X83462000Y-84315704D01*
X88558000Y-84315704D01*
X88558000Y-84564296D01*
X88606498Y-84808112D01*
X88701630Y-85037781D01*
X88839741Y-85244478D01*
X89015522Y-85420259D01*
X89222219Y-85558370D01*
X89451888Y-85653502D01*
X89695704Y-85702000D01*
X89944296Y-85702000D01*
X90188112Y-85653502D01*
X90417781Y-85558370D01*
X90624478Y-85420259D01*
X90800259Y-85244478D01*
X90938370Y-85037781D01*
X91033502Y-84808112D01*
X91082000Y-84564296D01*
X91082000Y-84315704D01*
X91034262Y-84075704D01*
X123578000Y-84075704D01*
X123578000Y-84324296D01*
X123626498Y-84568112D01*
X123721630Y-84797781D01*
X123859741Y-85004478D01*
X124035522Y-85180259D01*
X124242219Y-85318370D01*
X124471888Y-85413502D01*
X124715704Y-85462000D01*
X124964296Y-85462000D01*
X125208112Y-85413502D01*
X125437781Y-85318370D01*
X125644478Y-85180259D01*
X125820259Y-85004478D01*
X125958370Y-84797781D01*
X126053502Y-84568112D01*
X126102000Y-84324296D01*
X126102000Y-84075704D01*
X126053502Y-83831888D01*
X125958370Y-83602219D01*
X125820259Y-83395522D01*
X125644478Y-83219741D01*
X125437781Y-83081630D01*
X125361420Y-83050000D01*
X134867581Y-83050000D01*
X134867581Y-84750000D01*
X134877235Y-84848017D01*
X134905825Y-84942267D01*
X134952254Y-85029129D01*
X135014736Y-85105264D01*
X135090871Y-85167746D01*
X135177733Y-85214175D01*
X135271983Y-85242765D01*
X135370000Y-85252419D01*
X137070000Y-85252419D01*
X137168017Y-85242765D01*
X137262267Y-85214175D01*
X137349129Y-85167746D01*
X137425264Y-85105264D01*
X137487746Y-85029129D01*
X137534175Y-84942267D01*
X137562765Y-84848017D01*
X137572419Y-84750000D01*
X137572419Y-84542022D01*
X137632085Y-84653649D01*
X137800787Y-84859213D01*
X138006351Y-85027915D01*
X138240878Y-85153272D01*
X138495354Y-85230467D01*
X138693679Y-85250000D01*
X138826321Y-85250000D01*
X139024646Y-85230467D01*
X139279122Y-85153272D01*
X139513649Y-85027915D01*
X139719213Y-84859213D01*
X139887915Y-84653649D01*
X140013272Y-84419122D01*
X140090467Y-84164646D01*
X140116532Y-83900000D01*
X140090467Y-83635354D01*
X140013272Y-83380878D01*
X139887915Y-83146351D01*
X139719213Y-82940787D01*
X139513649Y-82772085D01*
X139279122Y-82646728D01*
X139024646Y-82569533D01*
X138826321Y-82550000D01*
X138693679Y-82550000D01*
X138495354Y-82569533D01*
X138240878Y-82646728D01*
X138006351Y-82772085D01*
X137800787Y-82940787D01*
X137632085Y-83146351D01*
X137572419Y-83257978D01*
X137572419Y-83050000D01*
X137562765Y-82951983D01*
X137534175Y-82857733D01*
X137487746Y-82770871D01*
X137425264Y-82694736D01*
X137349129Y-82632254D01*
X137262267Y-82585825D01*
X137168017Y-82557235D01*
X137070000Y-82547581D01*
X135370000Y-82547581D01*
X135271983Y-82557235D01*
X135177733Y-82585825D01*
X135090871Y-82632254D01*
X135014736Y-82694736D01*
X134952254Y-82770871D01*
X134905825Y-82857733D01*
X134877235Y-82951983D01*
X134867581Y-83050000D01*
X125361420Y-83050000D01*
X125208112Y-82986498D01*
X124964296Y-82938000D01*
X124715704Y-82938000D01*
X124471888Y-82986498D01*
X124242219Y-83081630D01*
X124035522Y-83219741D01*
X123859741Y-83395522D01*
X123721630Y-83602219D01*
X123626498Y-83831888D01*
X123578000Y-84075704D01*
X91034262Y-84075704D01*
X91033502Y-84071888D01*
X90938370Y-83842219D01*
X90800259Y-83635522D01*
X90624478Y-83459741D01*
X90417781Y-83321630D01*
X90188112Y-83226498D01*
X89944296Y-83178000D01*
X89695704Y-83178000D01*
X89451888Y-83226498D01*
X89222219Y-83321630D01*
X89015522Y-83459741D01*
X88839741Y-83635522D01*
X88701630Y-83842219D01*
X88606498Y-84071888D01*
X88558000Y-84315704D01*
X83462000Y-84315704D01*
X83413502Y-84071888D01*
X83318370Y-83842219D01*
X83180259Y-83635522D01*
X83004478Y-83459741D01*
X82797781Y-83321630D01*
X82568112Y-83226498D01*
X82324296Y-83178000D01*
X82075704Y-83178000D01*
X81831888Y-83226498D01*
X81602219Y-83321630D01*
X81395522Y-83459741D01*
X81219741Y-83635522D01*
X81081630Y-83842219D01*
X80986498Y-84071888D01*
X80938000Y-84315704D01*
X79121356Y-84315704D01*
X79121356Y-81775704D01*
X88558000Y-81775704D01*
X88558000Y-82024296D01*
X88606498Y-82268112D01*
X88701630Y-82497781D01*
X88839741Y-82704478D01*
X89015522Y-82880259D01*
X89222219Y-83018370D01*
X89451888Y-83113502D01*
X89695704Y-83162000D01*
X89944296Y-83162000D01*
X90188112Y-83113502D01*
X90417781Y-83018370D01*
X90624478Y-82880259D01*
X90800259Y-82704478D01*
X90938370Y-82497781D01*
X91033502Y-82268112D01*
X91082000Y-82024296D01*
X91082000Y-81775704D01*
X91034262Y-81535704D01*
X123578000Y-81535704D01*
X123578000Y-81784296D01*
X123626498Y-82028112D01*
X123721630Y-82257781D01*
X123859741Y-82464478D01*
X124035522Y-82640259D01*
X124242219Y-82778370D01*
X124471888Y-82873502D01*
X124715704Y-82922000D01*
X124964296Y-82922000D01*
X125208112Y-82873502D01*
X125437781Y-82778370D01*
X125644478Y-82640259D01*
X125820259Y-82464478D01*
X125958370Y-82257781D01*
X126053502Y-82028112D01*
X126102000Y-81784296D01*
X126102000Y-81535704D01*
X126053502Y-81291888D01*
X125958370Y-81062219D01*
X125820259Y-80855522D01*
X125644478Y-80679741D01*
X125437781Y-80541630D01*
X125208112Y-80446498D01*
X124964296Y-80398000D01*
X124715704Y-80398000D01*
X124471888Y-80446498D01*
X124242219Y-80541630D01*
X124035522Y-80679741D01*
X123859741Y-80855522D01*
X123721630Y-81062219D01*
X123626498Y-81291888D01*
X123578000Y-81535704D01*
X91034262Y-81535704D01*
X91033502Y-81531888D01*
X90938370Y-81302219D01*
X90800259Y-81095522D01*
X90624478Y-80919741D01*
X90417781Y-80781630D01*
X90188112Y-80686498D01*
X89944296Y-80638000D01*
X89695704Y-80638000D01*
X89451888Y-80686498D01*
X89222219Y-80781630D01*
X89015522Y-80919741D01*
X88839741Y-81095522D01*
X88701630Y-81302219D01*
X88606498Y-81531888D01*
X88558000Y-81775704D01*
X79121356Y-81775704D01*
X79121356Y-74729801D01*
X81155000Y-74729801D01*
X81155000Y-75030199D01*
X81213605Y-75324826D01*
X81328562Y-75602358D01*
X81495455Y-75852131D01*
X81707869Y-76064545D01*
X81957642Y-76231438D01*
X82235174Y-76346395D01*
X82529801Y-76405000D01*
X82830199Y-76405000D01*
X83124826Y-76346395D01*
X83402358Y-76231438D01*
X83652131Y-76064545D01*
X83864545Y-75852131D01*
X84031438Y-75602358D01*
X84146395Y-75324826D01*
X84205000Y-75030199D01*
X84205000Y-74729801D01*
X84146395Y-74435174D01*
X84031438Y-74157642D01*
X83864545Y-73907869D01*
X83652131Y-73695455D01*
X83402358Y-73528562D01*
X83124826Y-73413605D01*
X82830199Y-73355000D01*
X82529801Y-73355000D01*
X82235174Y-73413605D01*
X81957642Y-73528562D01*
X81707869Y-73695455D01*
X81495455Y-73907869D01*
X81328562Y-74157642D01*
X81213605Y-74435174D01*
X81155000Y-74729801D01*
X79121356Y-74729801D01*
X79121356Y-67970000D01*
X84307581Y-67970000D01*
X84307581Y-69670000D01*
X84317235Y-69768017D01*
X84345825Y-69862267D01*
X84392254Y-69949129D01*
X84454736Y-70025264D01*
X84530871Y-70087746D01*
X84617733Y-70134175D01*
X84711983Y-70162765D01*
X84810000Y-70172419D01*
X86510000Y-70172419D01*
X86608017Y-70162765D01*
X86702267Y-70134175D01*
X86789129Y-70087746D01*
X86865264Y-70025264D01*
X86927746Y-69949129D01*
X86974175Y-69862267D01*
X87002765Y-69768017D01*
X87012419Y-69670000D01*
X87012419Y-69462022D01*
X87072085Y-69573649D01*
X87240787Y-69779213D01*
X87446351Y-69947915D01*
X87680878Y-70073272D01*
X87935354Y-70150467D01*
X88133679Y-70170000D01*
X88266321Y-70170000D01*
X88464646Y-70150467D01*
X88719122Y-70073272D01*
X88953649Y-69947915D01*
X89159213Y-69779213D01*
X89327915Y-69573649D01*
X89453272Y-69339122D01*
X89530467Y-69084646D01*
X89556532Y-68820000D01*
X89530467Y-68555354D01*
X89453272Y-68300878D01*
X89327915Y-68066351D01*
X89159213Y-67860787D01*
X88953649Y-67692085D01*
X88719122Y-67566728D01*
X88464646Y-67489533D01*
X88266321Y-67470000D01*
X88133679Y-67470000D01*
X87935354Y-67489533D01*
X87680878Y-67566728D01*
X87446351Y-67692085D01*
X87240787Y-67860787D01*
X87072085Y-68066351D01*
X87012419Y-68177978D01*
X87012419Y-67970000D01*
X87002765Y-67871983D01*
X86974175Y-67777733D01*
X86927746Y-67690871D01*
X86865264Y-67614736D01*
X86789129Y-67552254D01*
X86702267Y-67505825D01*
X86608017Y-67477235D01*
X86510000Y-67467581D01*
X84810000Y-67467581D01*
X84711983Y-67477235D01*
X84617733Y-67505825D01*
X84530871Y-67552254D01*
X84454736Y-67614736D01*
X84392254Y-67690871D01*
X84345825Y-67777733D01*
X84317235Y-67871983D01*
X84307581Y-67970000D01*
X79121356Y-67970000D01*
X79121356Y-65625772D01*
X79204197Y-65825768D01*
X79554398Y-66349881D01*
X80000119Y-66795602D01*
X80524232Y-67145803D01*
X81106595Y-67387025D01*
X81724828Y-67510000D01*
X82355172Y-67510000D01*
X82973405Y-67387025D01*
X83555768Y-67145803D01*
X84079881Y-66795602D01*
X84525602Y-66349881D01*
X84875803Y-65825768D01*
X85117025Y-65243405D01*
X85240000Y-64625172D01*
X85240000Y-63994828D01*
X85117025Y-63376595D01*
X84875803Y-62794232D01*
X84525602Y-62270119D01*
X84079881Y-61824398D01*
X83555768Y-61474197D01*
X83358801Y-61392611D01*
X86489496Y-61392611D01*
X86489277Y-61392877D01*
G36*
X103572085Y-62296351D02*
G01*
X103446728Y-62530878D01*
X103369533Y-62785354D01*
X103343468Y-63050000D01*
X103369533Y-63314646D01*
X103446728Y-63569122D01*
X103572085Y-63803649D01*
X103740787Y-64009213D01*
X103946351Y-64177915D01*
X104180878Y-64303272D01*
X104236022Y-64320000D01*
X104180878Y-64336728D01*
X103946351Y-64462085D01*
X103740787Y-64630787D01*
X103572085Y-64836351D01*
X103446728Y-65070878D01*
X103430000Y-65126022D01*
X103413272Y-65070878D01*
X103287915Y-64836351D01*
X103119213Y-64630787D01*
X102913649Y-64462085D01*
X102679122Y-64336728D01*
X102424646Y-64259533D01*
X102226321Y-64240000D01*
X102093679Y-64240000D01*
X101895354Y-64259533D01*
X101640878Y-64336728D01*
X101406351Y-64462085D01*
X101200787Y-64630787D01*
X101032085Y-64836351D01*
X100906728Y-65070878D01*
X100890000Y-65126022D01*
X100873272Y-65070878D01*
X100747915Y-64836351D01*
X100579213Y-64630787D01*
X100373649Y-64462085D01*
X100139122Y-64336728D01*
X100083978Y-64320000D01*
X100139122Y-64303272D01*
X100373649Y-64177915D01*
X100579213Y-64009213D01*
X100747915Y-63803649D01*
X100873272Y-63569122D01*
X100950467Y-63314646D01*
X100976532Y-63050000D01*
X100950467Y-62785354D01*
X100873272Y-62530878D01*
X100747915Y-62296351D01*
X100581029Y-62093000D01*
X103738971Y-62093000D01*
X103572085Y-62296351D01*
X103572085Y-62296351D01*
G37*
X103572085Y-62296351D02*
X103446728Y-62530878D01*
X103369533Y-62785354D01*
X103343468Y-63050000D01*
X103369533Y-63314646D01*
X103446728Y-63569122D01*
X103572085Y-63803649D01*
X103740787Y-64009213D01*
X103946351Y-64177915D01*
X104180878Y-64303272D01*
X104236022Y-64320000D01*
X104180878Y-64336728D01*
X103946351Y-64462085D01*
X103740787Y-64630787D01*
X103572085Y-64836351D01*
X103446728Y-65070878D01*
X103430000Y-65126022D01*
X103413272Y-65070878D01*
X103287915Y-64836351D01*
X103119213Y-64630787D01*
X102913649Y-64462085D01*
X102679122Y-64336728D01*
X102424646Y-64259533D01*
X102226321Y-64240000D01*
X102093679Y-64240000D01*
X101895354Y-64259533D01*
X101640878Y-64336728D01*
X101406351Y-64462085D01*
X101200787Y-64630787D01*
X101032085Y-64836351D01*
X100906728Y-65070878D01*
X100890000Y-65126022D01*
X100873272Y-65070878D01*
X100747915Y-64836351D01*
X100579213Y-64630787D01*
X100373649Y-64462085D01*
X100139122Y-64336728D01*
X100083978Y-64320000D01*
X100139122Y-64303272D01*
X100373649Y-64177915D01*
X100579213Y-64009213D01*
X100747915Y-63803649D01*
X100873272Y-63569122D01*
X100950467Y-63314646D01*
X100976532Y-63050000D01*
X100950467Y-62785354D01*
X100873272Y-62530878D01*
X100747915Y-62296351D01*
X100581029Y-62093000D01*
X103738971Y-62093000D01*
X103572085Y-62296351D01*
G36*
X111192085Y-62296351D02*
G01*
X111066728Y-62530878D01*
X110989533Y-62785354D01*
X110963468Y-63050000D01*
X110989533Y-63314646D01*
X111066728Y-63569122D01*
X111192085Y-63803649D01*
X111360787Y-64009213D01*
X111566351Y-64177915D01*
X111800878Y-64303272D01*
X111856022Y-64320000D01*
X111800878Y-64336728D01*
X111566351Y-64462085D01*
X111360787Y-64630787D01*
X111192085Y-64836351D01*
X111066728Y-65070878D01*
X111050000Y-65126022D01*
X111033272Y-65070878D01*
X110907915Y-64836351D01*
X110739213Y-64630787D01*
X110533649Y-64462085D01*
X110299122Y-64336728D01*
X110044646Y-64259533D01*
X109846321Y-64240000D01*
X109713679Y-64240000D01*
X109515354Y-64259533D01*
X109260878Y-64336728D01*
X109026351Y-64462085D01*
X108820787Y-64630787D01*
X108652085Y-64836351D01*
X108526728Y-65070878D01*
X108510000Y-65126022D01*
X108493272Y-65070878D01*
X108367915Y-64836351D01*
X108199213Y-64630787D01*
X107993649Y-64462085D01*
X107759122Y-64336728D01*
X107703978Y-64320000D01*
X107759122Y-64303272D01*
X107993649Y-64177915D01*
X108199213Y-64009213D01*
X108367915Y-63803649D01*
X108493272Y-63569122D01*
X108570467Y-63314646D01*
X108596532Y-63050000D01*
X108570467Y-62785354D01*
X108493272Y-62530878D01*
X108367915Y-62296351D01*
X108201029Y-62093000D01*
X111358971Y-62093000D01*
X111192085Y-62296351D01*
X111192085Y-62296351D01*
G37*
X111192085Y-62296351D02*
X111066728Y-62530878D01*
X110989533Y-62785354D01*
X110963468Y-63050000D01*
X110989533Y-63314646D01*
X111066728Y-63569122D01*
X111192085Y-63803649D01*
X111360787Y-64009213D01*
X111566351Y-64177915D01*
X111800878Y-64303272D01*
X111856022Y-64320000D01*
X111800878Y-64336728D01*
X111566351Y-64462085D01*
X111360787Y-64630787D01*
X111192085Y-64836351D01*
X111066728Y-65070878D01*
X111050000Y-65126022D01*
X111033272Y-65070878D01*
X110907915Y-64836351D01*
X110739213Y-64630787D01*
X110533649Y-64462085D01*
X110299122Y-64336728D01*
X110044646Y-64259533D01*
X109846321Y-64240000D01*
X109713679Y-64240000D01*
X109515354Y-64259533D01*
X109260878Y-64336728D01*
X109026351Y-64462085D01*
X108820787Y-64630787D01*
X108652085Y-64836351D01*
X108526728Y-65070878D01*
X108510000Y-65126022D01*
X108493272Y-65070878D01*
X108367915Y-64836351D01*
X108199213Y-64630787D01*
X107993649Y-64462085D01*
X107759122Y-64336728D01*
X107703978Y-64320000D01*
X107759122Y-64303272D01*
X107993649Y-64177915D01*
X108199213Y-64009213D01*
X108367915Y-63803649D01*
X108493272Y-63569122D01*
X108570467Y-63314646D01*
X108596532Y-63050000D01*
X108570467Y-62785354D01*
X108493272Y-62530878D01*
X108367915Y-62296351D01*
X108201029Y-62093000D01*
X111358971Y-62093000D01*
X111192085Y-62296351D01*
G36*
X123892085Y-62296351D02*
G01*
X123766728Y-62530878D01*
X123689533Y-62785354D01*
X123663468Y-63050000D01*
X123689533Y-63314646D01*
X123766728Y-63569122D01*
X123892085Y-63803649D01*
X124060787Y-64009213D01*
X124266351Y-64177915D01*
X124500878Y-64303272D01*
X124556022Y-64320000D01*
X124500878Y-64336728D01*
X124266351Y-64462085D01*
X124060787Y-64630787D01*
X123892085Y-64836351D01*
X123766728Y-65070878D01*
X123750000Y-65126022D01*
X123733272Y-65070878D01*
X123607915Y-64836351D01*
X123439213Y-64630787D01*
X123233649Y-64462085D01*
X122999122Y-64336728D01*
X122744646Y-64259533D01*
X122546321Y-64240000D01*
X122413679Y-64240000D01*
X122215354Y-64259533D01*
X121960878Y-64336728D01*
X121726351Y-64462085D01*
X121520787Y-64630787D01*
X121352085Y-64836351D01*
X121226728Y-65070878D01*
X121210000Y-65126022D01*
X121193272Y-65070878D01*
X121067915Y-64836351D01*
X120899213Y-64630787D01*
X120693649Y-64462085D01*
X120459122Y-64336728D01*
X120403978Y-64320000D01*
X120459122Y-64303272D01*
X120693649Y-64177915D01*
X120899213Y-64009213D01*
X121067915Y-63803649D01*
X121193272Y-63569122D01*
X121270467Y-63314646D01*
X121296532Y-63050000D01*
X121270467Y-62785354D01*
X121193272Y-62530878D01*
X121067915Y-62296351D01*
X120901029Y-62093000D01*
X124058971Y-62093000D01*
X123892085Y-62296351D01*
X123892085Y-62296351D01*
G37*
X123892085Y-62296351D02*
X123766728Y-62530878D01*
X123689533Y-62785354D01*
X123663468Y-63050000D01*
X123689533Y-63314646D01*
X123766728Y-63569122D01*
X123892085Y-63803649D01*
X124060787Y-64009213D01*
X124266351Y-64177915D01*
X124500878Y-64303272D01*
X124556022Y-64320000D01*
X124500878Y-64336728D01*
X124266351Y-64462085D01*
X124060787Y-64630787D01*
X123892085Y-64836351D01*
X123766728Y-65070878D01*
X123750000Y-65126022D01*
X123733272Y-65070878D01*
X123607915Y-64836351D01*
X123439213Y-64630787D01*
X123233649Y-64462085D01*
X122999122Y-64336728D01*
X122744646Y-64259533D01*
X122546321Y-64240000D01*
X122413679Y-64240000D01*
X122215354Y-64259533D01*
X121960878Y-64336728D01*
X121726351Y-64462085D01*
X121520787Y-64630787D01*
X121352085Y-64836351D01*
X121226728Y-65070878D01*
X121210000Y-65126022D01*
X121193272Y-65070878D01*
X121067915Y-64836351D01*
X120899213Y-64630787D01*
X120693649Y-64462085D01*
X120459122Y-64336728D01*
X120403978Y-64320000D01*
X120459122Y-64303272D01*
X120693649Y-64177915D01*
X120899213Y-64009213D01*
X121067915Y-63803649D01*
X121193272Y-63569122D01*
X121270467Y-63314646D01*
X121296532Y-63050000D01*
X121270467Y-62785354D01*
X121193272Y-62530878D01*
X121067915Y-62296351D01*
X120901029Y-62093000D01*
X124058971Y-62093000D01*
X123892085Y-62296351D01*
G36*
X128972085Y-62296351D02*
G01*
X128846728Y-62530878D01*
X128769533Y-62785354D01*
X128743468Y-63050000D01*
X128769533Y-63314646D01*
X128846728Y-63569122D01*
X128972085Y-63803649D01*
X129140787Y-64009213D01*
X129346351Y-64177915D01*
X129580878Y-64303272D01*
X129636022Y-64320000D01*
X129580878Y-64336728D01*
X129346351Y-64462085D01*
X129140787Y-64630787D01*
X128972085Y-64836351D01*
X128846728Y-65070878D01*
X128830000Y-65126022D01*
X128813272Y-65070878D01*
X128687915Y-64836351D01*
X128519213Y-64630787D01*
X128313649Y-64462085D01*
X128079122Y-64336728D01*
X127824646Y-64259533D01*
X127626321Y-64240000D01*
X127493679Y-64240000D01*
X127295354Y-64259533D01*
X127040878Y-64336728D01*
X126806351Y-64462085D01*
X126600787Y-64630787D01*
X126432085Y-64836351D01*
X126306728Y-65070878D01*
X126290000Y-65126022D01*
X126273272Y-65070878D01*
X126147915Y-64836351D01*
X125979213Y-64630787D01*
X125773649Y-64462085D01*
X125539122Y-64336728D01*
X125483978Y-64320000D01*
X125539122Y-64303272D01*
X125773649Y-64177915D01*
X125979213Y-64009213D01*
X126147915Y-63803649D01*
X126273272Y-63569122D01*
X126350467Y-63314646D01*
X126376532Y-63050000D01*
X126350467Y-62785354D01*
X126273272Y-62530878D01*
X126147915Y-62296351D01*
X125981029Y-62093000D01*
X129138971Y-62093000D01*
X128972085Y-62296351D01*
X128972085Y-62296351D01*
G37*
X128972085Y-62296351D02*
X128846728Y-62530878D01*
X128769533Y-62785354D01*
X128743468Y-63050000D01*
X128769533Y-63314646D01*
X128846728Y-63569122D01*
X128972085Y-63803649D01*
X129140787Y-64009213D01*
X129346351Y-64177915D01*
X129580878Y-64303272D01*
X129636022Y-64320000D01*
X129580878Y-64336728D01*
X129346351Y-64462085D01*
X129140787Y-64630787D01*
X128972085Y-64836351D01*
X128846728Y-65070878D01*
X128830000Y-65126022D01*
X128813272Y-65070878D01*
X128687915Y-64836351D01*
X128519213Y-64630787D01*
X128313649Y-64462085D01*
X128079122Y-64336728D01*
X127824646Y-64259533D01*
X127626321Y-64240000D01*
X127493679Y-64240000D01*
X127295354Y-64259533D01*
X127040878Y-64336728D01*
X126806351Y-64462085D01*
X126600787Y-64630787D01*
X126432085Y-64836351D01*
X126306728Y-65070878D01*
X126290000Y-65126022D01*
X126273272Y-65070878D01*
X126147915Y-64836351D01*
X125979213Y-64630787D01*
X125773649Y-64462085D01*
X125539122Y-64336728D01*
X125483978Y-64320000D01*
X125539122Y-64303272D01*
X125773649Y-64177915D01*
X125979213Y-64009213D01*
X126147915Y-63803649D01*
X126273272Y-63569122D01*
X126350467Y-63314646D01*
X126376532Y-63050000D01*
X126350467Y-62785354D01*
X126273272Y-62530878D01*
X126147915Y-62296351D01*
X125981029Y-62093000D01*
X129138971Y-62093000D01*
X128972085Y-62296351D01*
G36*
X93412085Y-62296351D02*
G01*
X93286728Y-62530878D01*
X93209533Y-62785354D01*
X93183468Y-63050000D01*
X93209533Y-63314646D01*
X93286728Y-63569122D01*
X93412085Y-63803649D01*
X93580787Y-64009213D01*
X93786351Y-64177915D01*
X94020878Y-64303272D01*
X94076022Y-64320000D01*
X94020878Y-64336728D01*
X93786351Y-64462085D01*
X93580787Y-64630787D01*
X93412085Y-64836351D01*
X93286728Y-65070878D01*
X93270000Y-65126022D01*
X93253272Y-65070878D01*
X93127915Y-64836351D01*
X92959213Y-64630787D01*
X92753649Y-64462085D01*
X92519122Y-64336728D01*
X92264646Y-64259533D01*
X92066321Y-64240000D01*
X91933679Y-64240000D01*
X91735354Y-64259533D01*
X91480878Y-64336728D01*
X91246351Y-64462085D01*
X91040787Y-64630787D01*
X90872085Y-64836351D01*
X90746728Y-65070878D01*
X90730000Y-65126022D01*
X90713272Y-65070878D01*
X90587915Y-64836351D01*
X90419213Y-64630787D01*
X90213649Y-64462085D01*
X89979122Y-64336728D01*
X89923978Y-64320000D01*
X89979122Y-64303272D01*
X90213649Y-64177915D01*
X90419213Y-64009213D01*
X90587915Y-63803649D01*
X90713272Y-63569122D01*
X90790467Y-63314646D01*
X90816532Y-63050000D01*
X90790467Y-62785354D01*
X90713272Y-62530878D01*
X90587915Y-62296351D01*
X90421029Y-62093000D01*
X93578971Y-62093000D01*
X93412085Y-62296351D01*
X93412085Y-62296351D01*
G37*
X93412085Y-62296351D02*
X93286728Y-62530878D01*
X93209533Y-62785354D01*
X93183468Y-63050000D01*
X93209533Y-63314646D01*
X93286728Y-63569122D01*
X93412085Y-63803649D01*
X93580787Y-64009213D01*
X93786351Y-64177915D01*
X94020878Y-64303272D01*
X94076022Y-64320000D01*
X94020878Y-64336728D01*
X93786351Y-64462085D01*
X93580787Y-64630787D01*
X93412085Y-64836351D01*
X93286728Y-65070878D01*
X93270000Y-65126022D01*
X93253272Y-65070878D01*
X93127915Y-64836351D01*
X92959213Y-64630787D01*
X92753649Y-64462085D01*
X92519122Y-64336728D01*
X92264646Y-64259533D01*
X92066321Y-64240000D01*
X91933679Y-64240000D01*
X91735354Y-64259533D01*
X91480878Y-64336728D01*
X91246351Y-64462085D01*
X91040787Y-64630787D01*
X90872085Y-64836351D01*
X90746728Y-65070878D01*
X90730000Y-65126022D01*
X90713272Y-65070878D01*
X90587915Y-64836351D01*
X90419213Y-64630787D01*
X90213649Y-64462085D01*
X89979122Y-64336728D01*
X89923978Y-64320000D01*
X89979122Y-64303272D01*
X90213649Y-64177915D01*
X90419213Y-64009213D01*
X90587915Y-63803649D01*
X90713272Y-63569122D01*
X90790467Y-63314646D01*
X90816532Y-63050000D01*
X90790467Y-62785354D01*
X90713272Y-62530878D01*
X90587915Y-62296351D01*
X90421029Y-62093000D01*
X93578971Y-62093000D01*
X93412085Y-62296351D01*
M02*
