G04 #@! TF.GenerationSoftware,KiCad,Pcbnew,(5.1.4)-1*
G04 #@! TF.CreationDate,2019-09-24T11:14:09+05:30*
G04 #@! TF.ProjectId,RPi Hat RF Transmitter V1,52506920-4861-4742-9052-46205472616e,rev?*
G04 #@! TF.SameCoordinates,Original*
G04 #@! TF.FileFunction,Legend,Bot*
G04 #@! TF.FilePolarity,Positive*
%FSLAX46Y46*%
G04 Gerber Fmt 4.6, Leading zero omitted, Abs format (unit mm)*
G04 Created by KiCad (PCBNEW (5.1.4)-1) date 2019-09-24 11:14:09*
%MOMM*%
%LPD*%
G04 APERTURE LIST*
%ADD10C,0.150000*%
%ADD11C,0.200000*%
%ADD12C,0.300000*%
%ADD13C,0.130000*%
%ADD14C,0.120000*%
G04 APERTURE END LIST*
D10*
X102108000Y-88836500D02*
X102108000Y-88900000D01*
X97917000Y-88836500D02*
X102108000Y-88836500D01*
X97917000Y-81534000D02*
X97917000Y-88836500D01*
X102108000Y-91186000D02*
X102108000Y-88900000D01*
X97028000Y-91186000D02*
X102108000Y-91186000D01*
X78546356Y-63817611D02*
X78546356Y-113817611D01*
X140546356Y-60817611D02*
X81546356Y-60817611D01*
X143546351Y-113822847D02*
X143546356Y-63817611D01*
X81546356Y-116817611D02*
X140546356Y-116817611D01*
X124206000Y-78105000D02*
X124206000Y-75311000D01*
X125984000Y-78105000D02*
X124206000Y-78105000D01*
X125984000Y-84963000D02*
X125984000Y-78105000D01*
D11*
X108092476Y-74088761D02*
X106949619Y-74088761D01*
X107521047Y-76088761D02*
X107521047Y-74088761D01*
X105521047Y-75993523D02*
X105711523Y-76088761D01*
X106092476Y-76088761D01*
X106282952Y-75993523D01*
X106378190Y-75803047D01*
X106378190Y-75041142D01*
X106282952Y-74850666D01*
X106092476Y-74755428D01*
X105711523Y-74755428D01*
X105521047Y-74850666D01*
X105425809Y-75041142D01*
X105425809Y-75231619D01*
X106378190Y-75422095D01*
X103711523Y-75993523D02*
X103902000Y-76088761D01*
X104282952Y-76088761D01*
X104473428Y-75993523D01*
X104568666Y-75898285D01*
X104663904Y-75707809D01*
X104663904Y-75136380D01*
X104568666Y-74945904D01*
X104473428Y-74850666D01*
X104282952Y-74755428D01*
X103902000Y-74755428D01*
X103711523Y-74850666D01*
X102854380Y-76088761D02*
X102854380Y-74088761D01*
X101997238Y-76088761D02*
X101997238Y-75041142D01*
X102092476Y-74850666D01*
X102282952Y-74755428D01*
X102568666Y-74755428D01*
X102759142Y-74850666D01*
X102854380Y-74945904D01*
D12*
X119879285Y-78573142D02*
X119879285Y-75573142D01*
X118165000Y-78573142D02*
X119450714Y-76858857D01*
X118165000Y-75573142D02*
X119879285Y-77287428D01*
X115593571Y-78573142D02*
X115593571Y-77001714D01*
X115736428Y-76716000D01*
X116022142Y-76573142D01*
X116593571Y-76573142D01*
X116879285Y-76716000D01*
X115593571Y-78430285D02*
X115879285Y-78573142D01*
X116593571Y-78573142D01*
X116879285Y-78430285D01*
X117022142Y-78144571D01*
X117022142Y-77858857D01*
X116879285Y-77573142D01*
X116593571Y-77430285D01*
X115879285Y-77430285D01*
X115593571Y-77287428D01*
X114165000Y-78573142D02*
X114165000Y-76573142D01*
X114165000Y-76858857D02*
X114022142Y-76716000D01*
X113736428Y-76573142D01*
X113307857Y-76573142D01*
X113022142Y-76716000D01*
X112879285Y-77001714D01*
X112879285Y-78573142D01*
X112879285Y-77001714D02*
X112736428Y-76716000D01*
X112450714Y-76573142D01*
X112022142Y-76573142D01*
X111736428Y-76716000D01*
X111593571Y-77001714D01*
X111593571Y-78573142D01*
X108879285Y-76573142D02*
X108879285Y-78573142D01*
X110165000Y-76573142D02*
X110165000Y-78144571D01*
X110022142Y-78430285D01*
X109736428Y-78573142D01*
X109307857Y-78573142D01*
X109022142Y-78430285D01*
X108879285Y-78287428D01*
X107450714Y-78573142D02*
X107450714Y-76573142D01*
X107450714Y-75573142D02*
X107593571Y-75716000D01*
X107450714Y-75858857D01*
X107307857Y-75716000D01*
X107450714Y-75573142D01*
X107450714Y-75858857D01*
X120640857Y-72096142D02*
X121640857Y-70667571D01*
X122355142Y-72096142D02*
X122355142Y-69096142D01*
X121212285Y-69096142D01*
X120926571Y-69239000D01*
X120783714Y-69381857D01*
X120640857Y-69667571D01*
X120640857Y-70096142D01*
X120783714Y-70381857D01*
X120926571Y-70524714D01*
X121212285Y-70667571D01*
X122355142Y-70667571D01*
X118069428Y-72096142D02*
X118069428Y-70524714D01*
X118212285Y-70239000D01*
X118498000Y-70096142D01*
X119069428Y-70096142D01*
X119355142Y-70239000D01*
X118069428Y-71953285D02*
X118355142Y-72096142D01*
X119069428Y-72096142D01*
X119355142Y-71953285D01*
X119498000Y-71667571D01*
X119498000Y-71381857D01*
X119355142Y-71096142D01*
X119069428Y-70953285D01*
X118355142Y-70953285D01*
X118069428Y-70810428D01*
X115355142Y-72096142D02*
X115355142Y-69096142D01*
X115355142Y-71953285D02*
X115640857Y-72096142D01*
X116212285Y-72096142D01*
X116498000Y-71953285D01*
X116640857Y-71810428D01*
X116783714Y-71524714D01*
X116783714Y-70667571D01*
X116640857Y-70381857D01*
X116498000Y-70239000D01*
X116212285Y-70096142D01*
X115640857Y-70096142D01*
X115355142Y-70239000D01*
X113926571Y-72096142D02*
X113926571Y-70096142D01*
X113926571Y-69096142D02*
X114069428Y-69239000D01*
X113926571Y-69381857D01*
X113783714Y-69239000D01*
X113926571Y-69096142D01*
X113926571Y-69381857D01*
X112069428Y-72096142D02*
X112355142Y-71953285D01*
X112498000Y-71810428D01*
X112640857Y-71524714D01*
X112640857Y-70667571D01*
X112498000Y-70381857D01*
X112355142Y-70239000D01*
X112069428Y-70096142D01*
X111640857Y-70096142D01*
X111355142Y-70239000D01*
X111212285Y-70381857D01*
X111069428Y-70667571D01*
X111069428Y-71524714D01*
X111212285Y-71810428D01*
X111355142Y-71953285D01*
X111640857Y-72096142D01*
X112069428Y-72096142D01*
X108926571Y-69096142D02*
X108926571Y-71239000D01*
X109069428Y-71667571D01*
X109355142Y-71953285D01*
X109783714Y-72096142D01*
X110069428Y-72096142D01*
X107498000Y-72096142D02*
X107498000Y-70096142D01*
X107498000Y-69096142D02*
X107640857Y-69239000D01*
X107498000Y-69381857D01*
X107355142Y-69239000D01*
X107498000Y-69096142D01*
X107498000Y-69381857D01*
X106498000Y-70096142D02*
X105355142Y-70096142D01*
X106069428Y-69096142D02*
X106069428Y-71667571D01*
X105926571Y-71953285D01*
X105640857Y-72096142D01*
X105355142Y-72096142D01*
X104783714Y-70096142D02*
X103640857Y-70096142D01*
X104355142Y-69096142D02*
X104355142Y-71667571D01*
X104212285Y-71953285D01*
X103926571Y-72096142D01*
X103640857Y-72096142D01*
X101498000Y-71953285D02*
X101783714Y-72096142D01*
X102355142Y-72096142D01*
X102640857Y-71953285D01*
X102783714Y-71667571D01*
X102783714Y-70524714D01*
X102640857Y-70239000D01*
X102355142Y-70096142D01*
X101783714Y-70096142D01*
X101498000Y-70239000D01*
X101355142Y-70524714D01*
X101355142Y-70810428D01*
X102783714Y-71096142D01*
X100069428Y-72096142D02*
X100069428Y-70096142D01*
X100069428Y-70667571D02*
X99926571Y-70381857D01*
X99783714Y-70239000D01*
X99498000Y-70096142D01*
X99212285Y-70096142D01*
D13*
X83423000Y-82146857D02*
X83423000Y-83004000D01*
X83480142Y-83175428D01*
X83594428Y-83289714D01*
X83765857Y-83346857D01*
X83880142Y-83346857D01*
X82851571Y-83346857D02*
X82851571Y-82146857D01*
X82394428Y-82146857D01*
X82280142Y-82204000D01*
X82223000Y-82261142D01*
X82165857Y-82375428D01*
X82165857Y-82546857D01*
X82223000Y-82661142D01*
X82280142Y-82718285D01*
X82394428Y-82775428D01*
X82851571Y-82775428D01*
X81023000Y-83346857D02*
X81708714Y-83346857D01*
X81365857Y-83346857D02*
X81365857Y-82146857D01*
X81480142Y-82318285D01*
X81594428Y-82432571D01*
X81708714Y-82489714D01*
X83296000Y-86845857D02*
X83296000Y-87703000D01*
X83353142Y-87874428D01*
X83467428Y-87988714D01*
X83638857Y-88045857D01*
X83753142Y-88045857D01*
X82724571Y-88045857D02*
X82724571Y-86845857D01*
X82267428Y-86845857D01*
X82153142Y-86903000D01*
X82096000Y-86960142D01*
X82038857Y-87074428D01*
X82038857Y-87245857D01*
X82096000Y-87360142D01*
X82153142Y-87417285D01*
X82267428Y-87474428D01*
X82724571Y-87474428D01*
X81638857Y-86845857D02*
X80896000Y-86845857D01*
X81296000Y-87303000D01*
X81124571Y-87303000D01*
X81010285Y-87360142D01*
X80953142Y-87417285D01*
X80896000Y-87531571D01*
X80896000Y-87817285D01*
X80953142Y-87931571D01*
X81010285Y-87988714D01*
X81124571Y-88045857D01*
X81467428Y-88045857D01*
X81581714Y-87988714D01*
X81638857Y-87931571D01*
X83296000Y-89131857D02*
X83296000Y-89989000D01*
X83353142Y-90160428D01*
X83467428Y-90274714D01*
X83638857Y-90331857D01*
X83753142Y-90331857D01*
X82724571Y-90331857D02*
X82724571Y-89131857D01*
X82267428Y-89131857D01*
X82153142Y-89189000D01*
X82096000Y-89246142D01*
X82038857Y-89360428D01*
X82038857Y-89531857D01*
X82096000Y-89646142D01*
X82153142Y-89703285D01*
X82267428Y-89760428D01*
X82724571Y-89760428D01*
X81010285Y-89531857D02*
X81010285Y-90331857D01*
X81296000Y-89074714D02*
X81581714Y-89931857D01*
X80838857Y-89931857D01*
X101424357Y-90395357D02*
X101424357Y-89195357D01*
X100967214Y-89195357D01*
X100852928Y-89252500D01*
X100795785Y-89309642D01*
X100738642Y-89423928D01*
X100738642Y-89595357D01*
X100795785Y-89709642D01*
X100852928Y-89766785D01*
X100967214Y-89823928D01*
X101424357Y-89823928D01*
X99995785Y-89195357D02*
X99767214Y-89195357D01*
X99652928Y-89252500D01*
X99538642Y-89366785D01*
X99481500Y-89595357D01*
X99481500Y-89995357D01*
X99538642Y-90223928D01*
X99652928Y-90338214D01*
X99767214Y-90395357D01*
X99995785Y-90395357D01*
X100110071Y-90338214D01*
X100224357Y-90223928D01*
X100281500Y-89995357D01*
X100281500Y-89595357D01*
X100224357Y-89366785D01*
X100110071Y-89252500D01*
X99995785Y-89195357D01*
X99081500Y-89195357D02*
X98795785Y-90395357D01*
X98567214Y-89538214D01*
X98338642Y-90395357D01*
X98052928Y-89195357D01*
X97595785Y-89766785D02*
X97195785Y-89766785D01*
X97024357Y-90395357D02*
X97595785Y-90395357D01*
X97595785Y-89195357D01*
X97024357Y-89195357D01*
X95824357Y-90395357D02*
X96224357Y-89823928D01*
X96510071Y-90395357D02*
X96510071Y-89195357D01*
X96052928Y-89195357D01*
X95938642Y-89252500D01*
X95881500Y-89309642D01*
X95824357Y-89423928D01*
X95824357Y-89595357D01*
X95881500Y-89709642D01*
X95938642Y-89766785D01*
X96052928Y-89823928D01*
X96510071Y-89823928D01*
X94395785Y-90395357D02*
X94395785Y-89195357D01*
X93824357Y-90395357D02*
X93824357Y-89195357D01*
X93138642Y-90395357D01*
X93138642Y-89195357D01*
X91710071Y-90338214D02*
X91538642Y-90395357D01*
X91252928Y-90395357D01*
X91138642Y-90338214D01*
X91081500Y-90281071D01*
X91024357Y-90166785D01*
X91024357Y-90052500D01*
X91081500Y-89938214D01*
X91138642Y-89881071D01*
X91252928Y-89823928D01*
X91481500Y-89766785D01*
X91595785Y-89709642D01*
X91652928Y-89652500D01*
X91710071Y-89538214D01*
X91710071Y-89423928D01*
X91652928Y-89309642D01*
X91595785Y-89252500D01*
X91481500Y-89195357D01*
X91195785Y-89195357D01*
X91024357Y-89252500D01*
X90510071Y-89766785D02*
X90110071Y-89766785D01*
X89938642Y-90395357D02*
X90510071Y-90395357D01*
X90510071Y-89195357D01*
X89938642Y-89195357D01*
X88852928Y-90395357D02*
X89424357Y-90395357D01*
X89424357Y-89195357D01*
X86852928Y-90395357D02*
X87252928Y-89823928D01*
X87538642Y-90395357D02*
X87538642Y-89195357D01*
X87081500Y-89195357D01*
X86967214Y-89252500D01*
X86910071Y-89309642D01*
X86852928Y-89423928D01*
X86852928Y-89595357D01*
X86910071Y-89709642D01*
X86967214Y-89766785D01*
X87081500Y-89823928D01*
X87538642Y-89823928D01*
X86338642Y-90395357D02*
X86338642Y-89195357D01*
X85881500Y-89195357D01*
X85767214Y-89252500D01*
X85710071Y-89309642D01*
X85652928Y-89423928D01*
X85652928Y-89595357D01*
X85710071Y-89709642D01*
X85767214Y-89766785D01*
X85881500Y-89823928D01*
X86338642Y-89823928D01*
X85138642Y-90395357D02*
X85138642Y-89195357D01*
X93332000Y-88045857D02*
X93903428Y-88045857D01*
X93903428Y-86845857D01*
X92932000Y-87417285D02*
X92532000Y-87417285D01*
X92360571Y-88045857D02*
X92932000Y-88045857D01*
X92932000Y-86845857D01*
X92360571Y-86845857D01*
X91846285Y-88045857D02*
X91846285Y-86845857D01*
X91560571Y-86845857D01*
X91389142Y-86903000D01*
X91274857Y-87017285D01*
X91217714Y-87131571D01*
X91160571Y-87360142D01*
X91160571Y-87531571D01*
X91217714Y-87760142D01*
X91274857Y-87874428D01*
X91389142Y-87988714D01*
X91560571Y-88045857D01*
X91846285Y-88045857D01*
X89732000Y-87417285D02*
X89332000Y-87417285D01*
X89160571Y-88045857D02*
X89732000Y-88045857D01*
X89732000Y-86845857D01*
X89160571Y-86845857D01*
X88646285Y-88045857D02*
X88646285Y-86845857D01*
X87960571Y-88045857D01*
X87960571Y-86845857D01*
X83296000Y-84432857D02*
X83296000Y-85290000D01*
X83353142Y-85461428D01*
X83467428Y-85575714D01*
X83638857Y-85632857D01*
X83753142Y-85632857D01*
X82724571Y-85632857D02*
X82724571Y-84432857D01*
X82267428Y-84432857D01*
X82153142Y-84490000D01*
X82096000Y-84547142D01*
X82038857Y-84661428D01*
X82038857Y-84832857D01*
X82096000Y-84947142D01*
X82153142Y-85004285D01*
X82267428Y-85061428D01*
X82724571Y-85061428D01*
X81581714Y-84547142D02*
X81524571Y-84490000D01*
X81410285Y-84432857D01*
X81124571Y-84432857D01*
X81010285Y-84490000D01*
X80953142Y-84547142D01*
X80896000Y-84661428D01*
X80896000Y-84775714D01*
X80953142Y-84947142D01*
X81638857Y-85632857D01*
X80896000Y-85632857D01*
X96770142Y-85632857D02*
X97170142Y-85061428D01*
X97455857Y-85632857D02*
X97455857Y-84432857D01*
X96998714Y-84432857D01*
X96884428Y-84490000D01*
X96827285Y-84547142D01*
X96770142Y-84661428D01*
X96770142Y-84832857D01*
X96827285Y-84947142D01*
X96884428Y-85004285D01*
X96998714Y-85061428D01*
X97455857Y-85061428D01*
X95855857Y-85004285D02*
X96255857Y-85004285D01*
X96255857Y-85632857D02*
X96255857Y-84432857D01*
X95684428Y-84432857D01*
X94370142Y-85575714D02*
X94198714Y-85632857D01*
X93913000Y-85632857D01*
X93798714Y-85575714D01*
X93741571Y-85518571D01*
X93684428Y-85404285D01*
X93684428Y-85290000D01*
X93741571Y-85175714D01*
X93798714Y-85118571D01*
X93913000Y-85061428D01*
X94141571Y-85004285D01*
X94255857Y-84947142D01*
X94313000Y-84890000D01*
X94370142Y-84775714D01*
X94370142Y-84661428D01*
X94313000Y-84547142D01*
X94255857Y-84490000D01*
X94141571Y-84432857D01*
X93855857Y-84432857D01*
X93684428Y-84490000D01*
X93284428Y-84432857D02*
X92998714Y-85632857D01*
X92770142Y-84775714D01*
X92541571Y-85632857D01*
X92255857Y-84432857D01*
X91798714Y-85632857D02*
X91798714Y-84432857D01*
X91398714Y-84432857D02*
X90713000Y-84432857D01*
X91055857Y-85632857D02*
X91055857Y-84432857D01*
X89627285Y-85518571D02*
X89684428Y-85575714D01*
X89855857Y-85632857D01*
X89970142Y-85632857D01*
X90141571Y-85575714D01*
X90255857Y-85461428D01*
X90313000Y-85347142D01*
X90370142Y-85118571D01*
X90370142Y-84947142D01*
X90313000Y-84718571D01*
X90255857Y-84604285D01*
X90141571Y-84490000D01*
X89970142Y-84432857D01*
X89855857Y-84432857D01*
X89684428Y-84490000D01*
X89627285Y-84547142D01*
X89113000Y-85632857D02*
X89113000Y-84432857D01*
X89113000Y-85004285D02*
X88427285Y-85004285D01*
X88427285Y-85632857D02*
X88427285Y-84432857D01*
X86941571Y-85004285D02*
X86541571Y-85004285D01*
X86370142Y-85632857D02*
X86941571Y-85632857D01*
X86941571Y-84432857D01*
X86370142Y-84432857D01*
X85855857Y-85632857D02*
X85855857Y-84432857D01*
X85170142Y-85632857D01*
X85170142Y-84432857D01*
X94132000Y-83004000D02*
X93560571Y-83004000D01*
X94246285Y-83346857D02*
X93846285Y-82146857D01*
X93446285Y-83346857D01*
X93046285Y-83346857D02*
X93046285Y-82146857D01*
X92646285Y-83004000D01*
X92246285Y-82146857D01*
X92246285Y-83346857D01*
X91674857Y-83346857D02*
X91674857Y-82146857D01*
X91217714Y-82146857D01*
X91103428Y-82204000D01*
X91046285Y-82261142D01*
X90989142Y-82375428D01*
X90989142Y-82546857D01*
X91046285Y-82661142D01*
X91103428Y-82718285D01*
X91217714Y-82775428D01*
X91674857Y-82775428D01*
X89560571Y-82718285D02*
X89160571Y-82718285D01*
X88989142Y-83346857D02*
X89560571Y-83346857D01*
X89560571Y-82146857D01*
X88989142Y-82146857D01*
X88474857Y-83346857D02*
X88474857Y-82146857D01*
X87789142Y-83346857D01*
X87789142Y-82146857D01*
D10*
X97917000Y-81534000D02*
X84709000Y-81534000D01*
X84709000Y-91186000D02*
X97028000Y-91186000D01*
X79883000Y-91186000D02*
X84709000Y-91186000D01*
X84582000Y-81534000D02*
X79883000Y-81534000D01*
X84709000Y-81534000D02*
X84709000Y-91186000D01*
X79883000Y-91186000D02*
X79883000Y-81534000D01*
X132080000Y-84963000D02*
X143383000Y-84963000D01*
X125984000Y-84963000D02*
X132080000Y-84963000D01*
X131953000Y-75311000D02*
X124206000Y-75311000D01*
X143383000Y-75311000D02*
X132080000Y-75311000D01*
D13*
X142823571Y-82781857D02*
X142023571Y-82781857D01*
X142537857Y-83981857D01*
X141052142Y-83181857D02*
X141052142Y-83981857D01*
X141337857Y-82724714D02*
X141623571Y-83581857D01*
X140880714Y-83581857D01*
X140480714Y-83639000D02*
X139909285Y-83639000D01*
X140595000Y-83981857D02*
X140195000Y-82781857D01*
X139795000Y-83981857D01*
X139395000Y-82781857D02*
X139395000Y-83753285D01*
X139337857Y-83867571D01*
X139280714Y-83924714D01*
X139166428Y-83981857D01*
X138937857Y-83981857D01*
X138823571Y-83924714D01*
X138766428Y-83867571D01*
X138709285Y-83753285D01*
X138709285Y-82781857D01*
X137452142Y-83867571D02*
X137509285Y-83924714D01*
X137680714Y-83981857D01*
X137795000Y-83981857D01*
X137966428Y-83924714D01*
X138080714Y-83810428D01*
X138137857Y-83696142D01*
X138195000Y-83467571D01*
X138195000Y-83296142D01*
X138137857Y-83067571D01*
X138080714Y-82953285D01*
X137966428Y-82839000D01*
X137795000Y-82781857D01*
X137680714Y-82781857D01*
X137509285Y-82839000D01*
X137452142Y-82896142D01*
X136995000Y-82896142D02*
X136937857Y-82839000D01*
X136823571Y-82781857D01*
X136537857Y-82781857D01*
X136423571Y-82839000D01*
X136366428Y-82896142D01*
X136309285Y-83010428D01*
X136309285Y-83124714D01*
X136366428Y-83296142D01*
X137052142Y-83981857D01*
X136309285Y-83981857D01*
X135166428Y-82839000D02*
X135280714Y-82781857D01*
X135452142Y-82781857D01*
X135623571Y-82839000D01*
X135737857Y-82953285D01*
X135795000Y-83067571D01*
X135852142Y-83296142D01*
X135852142Y-83467571D01*
X135795000Y-83696142D01*
X135737857Y-83810428D01*
X135623571Y-83924714D01*
X135452142Y-83981857D01*
X135337857Y-83981857D01*
X135166428Y-83924714D01*
X135109285Y-83867571D01*
X135109285Y-83467571D01*
X135337857Y-83467571D01*
X134366428Y-82781857D02*
X134252142Y-82781857D01*
X134137857Y-82839000D01*
X134080714Y-82896142D01*
X134023571Y-83010428D01*
X133966428Y-83239000D01*
X133966428Y-83524714D01*
X134023571Y-83753285D01*
X134080714Y-83867571D01*
X134137857Y-83924714D01*
X134252142Y-83981857D01*
X134366428Y-83981857D01*
X134480714Y-83924714D01*
X134537857Y-83867571D01*
X134595000Y-83753285D01*
X134652142Y-83524714D01*
X134652142Y-83239000D01*
X134595000Y-83010428D01*
X134537857Y-82896142D01*
X134480714Y-82839000D01*
X134366428Y-82781857D01*
X132937857Y-83181857D02*
X132937857Y-83981857D01*
X133223571Y-82724714D02*
X133509285Y-83581857D01*
X132766428Y-83581857D01*
X142195000Y-81638714D02*
X142023571Y-81695857D01*
X141737857Y-81695857D01*
X141623571Y-81638714D01*
X141566428Y-81581571D01*
X141509285Y-81467285D01*
X141509285Y-81353000D01*
X141566428Y-81238714D01*
X141623571Y-81181571D01*
X141737857Y-81124428D01*
X141966428Y-81067285D01*
X142080714Y-81010142D01*
X142137857Y-80953000D01*
X142195000Y-80838714D01*
X142195000Y-80724428D01*
X142137857Y-80610142D01*
X142080714Y-80553000D01*
X141966428Y-80495857D01*
X141680714Y-80495857D01*
X141509285Y-80553000D01*
X140595000Y-81067285D02*
X140423571Y-81124428D01*
X140366428Y-81181571D01*
X140309285Y-81295857D01*
X140309285Y-81467285D01*
X140366428Y-81581571D01*
X140423571Y-81638714D01*
X140537857Y-81695857D01*
X140995000Y-81695857D01*
X140995000Y-80495857D01*
X140595000Y-80495857D01*
X140480714Y-80553000D01*
X140423571Y-80610142D01*
X140366428Y-80724428D01*
X140366428Y-80838714D01*
X140423571Y-80953000D01*
X140480714Y-81010142D01*
X140595000Y-81067285D01*
X140995000Y-81067285D01*
X139395000Y-81067285D02*
X139223571Y-81124428D01*
X139166428Y-81181571D01*
X139109285Y-81295857D01*
X139109285Y-81467285D01*
X139166428Y-81581571D01*
X139223571Y-81638714D01*
X139337857Y-81695857D01*
X139795000Y-81695857D01*
X139795000Y-80495857D01*
X139395000Y-80495857D01*
X139280714Y-80553000D01*
X139223571Y-80610142D01*
X139166428Y-80724428D01*
X139166428Y-80838714D01*
X139223571Y-80953000D01*
X139280714Y-81010142D01*
X139395000Y-81067285D01*
X139795000Y-81067285D01*
X138023571Y-80495857D02*
X138595000Y-80495857D01*
X138652142Y-81067285D01*
X138595000Y-81010142D01*
X138480714Y-80953000D01*
X138195000Y-80953000D01*
X138080714Y-81010142D01*
X138023571Y-81067285D01*
X137966428Y-81181571D01*
X137966428Y-81467285D01*
X138023571Y-81581571D01*
X138080714Y-81638714D01*
X138195000Y-81695857D01*
X138480714Y-81695857D01*
X138595000Y-81638714D01*
X138652142Y-81581571D01*
X137223571Y-80495857D02*
X137109285Y-80495857D01*
X136995000Y-80553000D01*
X136937857Y-80610142D01*
X136880714Y-80724428D01*
X136823571Y-80953000D01*
X136823571Y-81238714D01*
X136880714Y-81467285D01*
X136937857Y-81581571D01*
X136995000Y-81638714D01*
X137109285Y-81695857D01*
X137223571Y-81695857D01*
X137337857Y-81638714D01*
X137395000Y-81581571D01*
X137452142Y-81467285D01*
X137509285Y-81238714D01*
X137509285Y-80953000D01*
X137452142Y-80724428D01*
X137395000Y-80610142D01*
X137337857Y-80553000D01*
X137223571Y-80495857D01*
X136137857Y-81010142D02*
X136252142Y-80953000D01*
X136309285Y-80895857D01*
X136366428Y-80781571D01*
X136366428Y-80724428D01*
X136309285Y-80610142D01*
X136252142Y-80553000D01*
X136137857Y-80495857D01*
X135909285Y-80495857D01*
X135795000Y-80553000D01*
X135737857Y-80610142D01*
X135680714Y-80724428D01*
X135680714Y-80781571D01*
X135737857Y-80895857D01*
X135795000Y-80953000D01*
X135909285Y-81010142D01*
X136137857Y-81010142D01*
X136252142Y-81067285D01*
X136309285Y-81124428D01*
X136366428Y-81238714D01*
X136366428Y-81467285D01*
X136309285Y-81581571D01*
X136252142Y-81638714D01*
X136137857Y-81695857D01*
X135909285Y-81695857D01*
X135795000Y-81638714D01*
X135737857Y-81581571D01*
X135680714Y-81467285D01*
X135680714Y-81238714D01*
X135737857Y-81124428D01*
X135795000Y-81067285D01*
X135909285Y-81010142D01*
X135109285Y-81695857D02*
X134880714Y-81695857D01*
X134766428Y-81638714D01*
X134709285Y-81581571D01*
X134595000Y-81410142D01*
X134537857Y-81181571D01*
X134537857Y-80724428D01*
X134595000Y-80610142D01*
X134652142Y-80553000D01*
X134766428Y-80495857D01*
X134995000Y-80495857D01*
X135109285Y-80553000D01*
X135166428Y-80610142D01*
X135223571Y-80724428D01*
X135223571Y-81010142D01*
X135166428Y-81124428D01*
X135109285Y-81181571D01*
X134995000Y-81238714D01*
X134766428Y-81238714D01*
X134652142Y-81181571D01*
X134595000Y-81124428D01*
X134537857Y-81010142D01*
X134137857Y-80495857D02*
X133337857Y-80495857D01*
X134137857Y-81695857D01*
X133337857Y-81695857D01*
X142852142Y-79352714D02*
X142680714Y-79409857D01*
X142395000Y-79409857D01*
X142280714Y-79352714D01*
X142223571Y-79295571D01*
X142166428Y-79181285D01*
X142166428Y-79067000D01*
X142223571Y-78952714D01*
X142280714Y-78895571D01*
X142395000Y-78838428D01*
X142623571Y-78781285D01*
X142737857Y-78724142D01*
X142795000Y-78667000D01*
X142852142Y-78552714D01*
X142852142Y-78438428D01*
X142795000Y-78324142D01*
X142737857Y-78267000D01*
X142623571Y-78209857D01*
X142337857Y-78209857D01*
X142166428Y-78267000D01*
X141652142Y-79409857D02*
X141652142Y-78209857D01*
X140966428Y-79409857D01*
X140966428Y-78209857D01*
X140509285Y-78209857D02*
X139709285Y-78209857D01*
X140223571Y-79409857D01*
X138737857Y-78609857D02*
X138737857Y-79409857D01*
X139023571Y-78152714D02*
X139309285Y-79009857D01*
X138566428Y-79009857D01*
X138109285Y-79409857D02*
X138109285Y-78209857D01*
X138109285Y-78781285D02*
X137423571Y-78781285D01*
X137423571Y-79409857D02*
X137423571Y-78209857D01*
X136166428Y-79295571D02*
X136223571Y-79352714D01*
X136395000Y-79409857D01*
X136509285Y-79409857D01*
X136680714Y-79352714D01*
X136795000Y-79238428D01*
X136852142Y-79124142D01*
X136909285Y-78895571D01*
X136909285Y-78724142D01*
X136852142Y-78495571D01*
X136795000Y-78381285D01*
X136680714Y-78267000D01*
X136509285Y-78209857D01*
X136395000Y-78209857D01*
X136223571Y-78267000D01*
X136166428Y-78324142D01*
X135023571Y-79409857D02*
X135709285Y-79409857D01*
X135366428Y-79409857D02*
X135366428Y-78209857D01*
X135480714Y-78381285D01*
X135595000Y-78495571D01*
X135709285Y-78552714D01*
X134623571Y-78209857D02*
X133880714Y-78209857D01*
X134280714Y-78667000D01*
X134109285Y-78667000D01*
X133995000Y-78724142D01*
X133937857Y-78781285D01*
X133880714Y-78895571D01*
X133880714Y-79181285D01*
X133937857Y-79295571D01*
X133995000Y-79352714D01*
X134109285Y-79409857D01*
X134452142Y-79409857D01*
X134566428Y-79352714D01*
X134623571Y-79295571D01*
X133309285Y-79409857D02*
X133080714Y-79409857D01*
X132966428Y-79352714D01*
X132909285Y-79295571D01*
X132795000Y-79124142D01*
X132737857Y-78895571D01*
X132737857Y-78438428D01*
X132795000Y-78324142D01*
X132852142Y-78267000D01*
X132966428Y-78209857D01*
X133195000Y-78209857D01*
X133309285Y-78267000D01*
X133366428Y-78324142D01*
X133423571Y-78438428D01*
X133423571Y-78724142D01*
X133366428Y-78838428D01*
X133309285Y-78895571D01*
X133195000Y-78952714D01*
X132966428Y-78952714D01*
X132852142Y-78895571D01*
X132795000Y-78838428D01*
X132737857Y-78724142D01*
X141010857Y-77123857D02*
X141010857Y-75923857D01*
X141010857Y-76495285D02*
X140325142Y-76495285D01*
X140325142Y-77123857D02*
X140325142Y-75923857D01*
X139753714Y-77123857D02*
X139753714Y-75923857D01*
X139353714Y-76781000D01*
X138953714Y-75923857D01*
X138953714Y-77123857D01*
X137696571Y-77009571D02*
X137753714Y-77066714D01*
X137925142Y-77123857D01*
X138039428Y-77123857D01*
X138210857Y-77066714D01*
X138325142Y-76952428D01*
X138382285Y-76838142D01*
X138439428Y-76609571D01*
X138439428Y-76438142D01*
X138382285Y-76209571D01*
X138325142Y-76095285D01*
X138210857Y-75981000D01*
X138039428Y-75923857D01*
X137925142Y-75923857D01*
X137753714Y-75981000D01*
X137696571Y-76038142D01*
X137239428Y-76038142D02*
X137182285Y-75981000D01*
X137068000Y-75923857D01*
X136782285Y-75923857D01*
X136668000Y-75981000D01*
X136610857Y-76038142D01*
X136553714Y-76152428D01*
X136553714Y-76266714D01*
X136610857Y-76438142D01*
X137296571Y-77123857D01*
X136553714Y-77123857D01*
X135525142Y-76323857D02*
X135525142Y-77123857D01*
X135810857Y-75866714D02*
X136096571Y-76723857D01*
X135353714Y-76723857D01*
X134268000Y-77123857D02*
X134953714Y-77123857D01*
X134610857Y-77123857D02*
X134610857Y-75923857D01*
X134725142Y-76095285D01*
X134839428Y-76209571D01*
X134953714Y-76266714D01*
X129946285Y-82845357D02*
X129946285Y-83816785D01*
X129889142Y-83931071D01*
X129832000Y-83988214D01*
X129717714Y-84045357D01*
X129489142Y-84045357D01*
X129374857Y-83988214D01*
X129317714Y-83931071D01*
X129260571Y-83816785D01*
X129260571Y-82845357D01*
X128746285Y-82959642D02*
X128689142Y-82902500D01*
X128574857Y-82845357D01*
X128289142Y-82845357D01*
X128174857Y-82902500D01*
X128117714Y-82959642D01*
X128060571Y-83073928D01*
X128060571Y-83188214D01*
X128117714Y-83359642D01*
X128803428Y-84045357D01*
X128060571Y-84045357D01*
X129946285Y-80495857D02*
X129946285Y-81467285D01*
X129889142Y-81581571D01*
X129832000Y-81638714D01*
X129717714Y-81695857D01*
X129489142Y-81695857D01*
X129374857Y-81638714D01*
X129317714Y-81581571D01*
X129260571Y-81467285D01*
X129260571Y-80495857D01*
X128060571Y-81695857D02*
X128746285Y-81695857D01*
X128403428Y-81695857D02*
X128403428Y-80495857D01*
X128517714Y-80667285D01*
X128632000Y-80781571D01*
X128746285Y-80838714D01*
X130393928Y-79409857D02*
X130393928Y-78209857D01*
X129136785Y-79295571D02*
X129193928Y-79352714D01*
X129365357Y-79409857D01*
X129479642Y-79409857D01*
X129651071Y-79352714D01*
X129765357Y-79238428D01*
X129822500Y-79124142D01*
X129879642Y-78895571D01*
X129879642Y-78724142D01*
X129822500Y-78495571D01*
X129765357Y-78381285D01*
X129651071Y-78267000D01*
X129479642Y-78209857D01*
X129365357Y-78209857D01*
X129193928Y-78267000D01*
X129136785Y-78324142D01*
X128736785Y-78209857D02*
X127993928Y-78209857D01*
X128393928Y-78667000D01*
X128222500Y-78667000D01*
X128108214Y-78724142D01*
X128051071Y-78781285D01*
X127993928Y-78895571D01*
X127993928Y-79181285D01*
X128051071Y-79295571D01*
X128108214Y-79352714D01*
X128222500Y-79409857D01*
X128565357Y-79409857D01*
X128679642Y-79352714D01*
X128736785Y-79295571D01*
X131514428Y-77123857D02*
X131514428Y-75923857D01*
X130257285Y-77009571D02*
X130314428Y-77066714D01*
X130485857Y-77123857D01*
X130600142Y-77123857D01*
X130771571Y-77066714D01*
X130885857Y-76952428D01*
X130943000Y-76838142D01*
X131000142Y-76609571D01*
X131000142Y-76438142D01*
X130943000Y-76209571D01*
X130885857Y-76095285D01*
X130771571Y-75981000D01*
X130600142Y-75923857D01*
X130485857Y-75923857D01*
X130314428Y-75981000D01*
X130257285Y-76038142D01*
X129114428Y-77123857D02*
X129800142Y-77123857D01*
X129457285Y-77123857D02*
X129457285Y-75923857D01*
X129571571Y-76095285D01*
X129685857Y-76209571D01*
X129800142Y-76266714D01*
X128543000Y-77066714D02*
X128543000Y-77123857D01*
X128600142Y-77238142D01*
X128657285Y-77295285D01*
X127114428Y-77123857D02*
X127114428Y-75923857D01*
X125857285Y-77009571D02*
X125914428Y-77066714D01*
X126085857Y-77123857D01*
X126200142Y-77123857D01*
X126371571Y-77066714D01*
X126485857Y-76952428D01*
X126543000Y-76838142D01*
X126600142Y-76609571D01*
X126600142Y-76438142D01*
X126543000Y-76209571D01*
X126485857Y-76095285D01*
X126371571Y-75981000D01*
X126200142Y-75923857D01*
X126085857Y-75923857D01*
X125914428Y-75981000D01*
X125857285Y-76038142D01*
X125400142Y-76038142D02*
X125343000Y-75981000D01*
X125228714Y-75923857D01*
X124943000Y-75923857D01*
X124828714Y-75981000D01*
X124771571Y-76038142D01*
X124714428Y-76152428D01*
X124714428Y-76266714D01*
X124771571Y-76438142D01*
X125457285Y-77123857D01*
X124714428Y-77123857D01*
D10*
X132080000Y-75311000D02*
X132080000Y-84963000D01*
X143383000Y-84963000D02*
X143383000Y-75311000D01*
X114109500Y-91313000D02*
X117792500Y-91313000D01*
X114109500Y-83121500D02*
X114109500Y-91249500D01*
X114109500Y-81026000D02*
X114109500Y-83058000D01*
X117792500Y-81026000D02*
X114109500Y-81026000D01*
X123507500Y-91313000D02*
X120840500Y-91313000D01*
X123507500Y-83121500D02*
X123507500Y-91249500D01*
X123507500Y-81026000D02*
X123507500Y-83058000D01*
X120840500Y-81026000D02*
X123507500Y-81026000D01*
X120840500Y-81026000D02*
X120840500Y-81280000D01*
X117792500Y-81026000D02*
X120840500Y-81026000D01*
X117792500Y-81280000D02*
X117792500Y-81026000D01*
X117792500Y-91249500D02*
X117792500Y-81343500D01*
X120777000Y-91313000D02*
X117729000Y-91313000D01*
X120840500Y-81343500D02*
X120840500Y-91249500D01*
X123507500Y-83121500D02*
X114109500Y-83121500D01*
D13*
X115722428Y-90166857D02*
X115722428Y-90966857D01*
X116008142Y-89709714D02*
X116293857Y-90566857D01*
X115551000Y-90566857D01*
X116351000Y-87734857D02*
X115608142Y-87734857D01*
X116008142Y-88192000D01*
X115836714Y-88192000D01*
X115722428Y-88249142D01*
X115665285Y-88306285D01*
X115608142Y-88420571D01*
X115608142Y-88706285D01*
X115665285Y-88820571D01*
X115722428Y-88877714D01*
X115836714Y-88934857D01*
X116179571Y-88934857D01*
X116293857Y-88877714D01*
X116351000Y-88820571D01*
X116166857Y-85753642D02*
X116109714Y-85696500D01*
X115995428Y-85639357D01*
X115709714Y-85639357D01*
X115595428Y-85696500D01*
X115538285Y-85753642D01*
X115481142Y-85867928D01*
X115481142Y-85982214D01*
X115538285Y-86153642D01*
X116224000Y-86839357D01*
X115481142Y-86839357D01*
X115481142Y-84680357D02*
X116166857Y-84680357D01*
X115824000Y-84680357D02*
X115824000Y-83480357D01*
X115938285Y-83651785D01*
X116052571Y-83766071D01*
X116166857Y-83823214D01*
X116487500Y-81956285D02*
X116887500Y-81956285D01*
X116887500Y-82584857D02*
X116887500Y-81384857D01*
X116316071Y-81384857D01*
X115858928Y-82584857D02*
X115858928Y-81384857D01*
X114716071Y-82584857D02*
X115287500Y-82584857D01*
X115287500Y-81384857D01*
X119259357Y-84667642D02*
X119373642Y-84667642D01*
X119487928Y-84610500D01*
X119545071Y-84553357D01*
X119602214Y-84439071D01*
X119659357Y-84210500D01*
X119659357Y-83924785D01*
X119602214Y-83696214D01*
X119545071Y-83581928D01*
X119487928Y-83524785D01*
X119373642Y-83467642D01*
X119259357Y-83467642D01*
X119145071Y-83524785D01*
X119087928Y-83581928D01*
X119030785Y-83696214D01*
X118973642Y-83924785D01*
X118973642Y-84210500D01*
X119030785Y-84439071D01*
X119087928Y-84553357D01*
X119145071Y-84610500D01*
X119259357Y-84667642D01*
X122180357Y-84667642D02*
X122294642Y-84667642D01*
X122408928Y-84610500D01*
X122466071Y-84553357D01*
X122523214Y-84439071D01*
X122580357Y-84210500D01*
X122580357Y-83924785D01*
X122523214Y-83696214D01*
X122466071Y-83581928D01*
X122408928Y-83524785D01*
X122294642Y-83467642D01*
X122180357Y-83467642D01*
X122066071Y-83524785D01*
X122008928Y-83581928D01*
X121951785Y-83696214D01*
X121894642Y-83924785D01*
X121894642Y-84210500D01*
X121951785Y-84439071D01*
X122008928Y-84553357D01*
X122066071Y-84610500D01*
X122180357Y-84667642D01*
X122116857Y-88922142D02*
X122231142Y-88922142D01*
X122345428Y-88865000D01*
X122402571Y-88807857D01*
X122459714Y-88693571D01*
X122516857Y-88465000D01*
X122516857Y-88179285D01*
X122459714Y-87950714D01*
X122402571Y-87836428D01*
X122345428Y-87779285D01*
X122231142Y-87722142D01*
X122116857Y-87722142D01*
X122002571Y-87779285D01*
X121945428Y-87836428D01*
X121888285Y-87950714D01*
X121831142Y-88179285D01*
X121831142Y-88465000D01*
X121888285Y-88693571D01*
X121945428Y-88807857D01*
X122002571Y-88865000D01*
X122116857Y-88922142D01*
X118783142Y-88934857D02*
X119468857Y-88934857D01*
X119126000Y-88934857D02*
X119126000Y-87734857D01*
X119240285Y-87906285D01*
X119354571Y-88020571D01*
X119468857Y-88077714D01*
X118783142Y-90966857D02*
X119468857Y-90966857D01*
X119126000Y-90966857D02*
X119126000Y-89766857D01*
X119240285Y-89938285D01*
X119354571Y-90052571D01*
X119468857Y-90109714D01*
X121831142Y-90966857D02*
X122516857Y-90966857D01*
X122174000Y-90966857D02*
X122174000Y-89766857D01*
X122288285Y-89938285D01*
X122402571Y-90052571D01*
X122516857Y-90109714D01*
X119103785Y-81956285D02*
X118932357Y-82013428D01*
X118875214Y-82070571D01*
X118818071Y-82184857D01*
X118818071Y-82356285D01*
X118875214Y-82470571D01*
X118932357Y-82527714D01*
X119046642Y-82584857D01*
X119503785Y-82584857D01*
X119503785Y-81384857D01*
X119103785Y-81384857D01*
X118989500Y-81442000D01*
X118932357Y-81499142D01*
X118875214Y-81613428D01*
X118875214Y-81727714D01*
X118932357Y-81842000D01*
X118989500Y-81899142D01*
X119103785Y-81956285D01*
X119503785Y-81956285D01*
X122523214Y-82242000D02*
X121951785Y-82242000D01*
X122637500Y-82584857D02*
X122237500Y-81384857D01*
X121837500Y-82584857D01*
X119195857Y-86826642D02*
X119310142Y-86826642D01*
X119424428Y-86769500D01*
X119481571Y-86712357D01*
X119538714Y-86598071D01*
X119595857Y-86369500D01*
X119595857Y-86083785D01*
X119538714Y-85855214D01*
X119481571Y-85740928D01*
X119424428Y-85683785D01*
X119310142Y-85626642D01*
X119195857Y-85626642D01*
X119081571Y-85683785D01*
X119024428Y-85740928D01*
X118967285Y-85855214D01*
X118910142Y-86083785D01*
X118910142Y-86369500D01*
X118967285Y-86598071D01*
X119024428Y-86712357D01*
X119081571Y-86769500D01*
X119195857Y-86826642D01*
X121831142Y-86839357D02*
X122516857Y-86839357D01*
X122174000Y-86839357D02*
X122174000Y-85639357D01*
X122288285Y-85810785D01*
X122402571Y-85925071D01*
X122516857Y-85982214D01*
D10*
X78546356Y-63817611D02*
G75*
G02X81546356Y-60817611I3000000J0D01*
G01*
X140546356Y-60817611D02*
G75*
G02X143546356Y-63817611I0J-3000000D01*
G01*
X81546356Y-116817611D02*
G75*
G02X78546356Y-113817611I0J3000000D01*
G01*
X143546351Y-113822847D02*
G75*
G02X140546356Y-116817611I-2999995J5236D01*
G01*
D14*
X80529500Y-101202748D02*
X80529500Y-101725252D01*
X79109500Y-101202748D02*
X79109500Y-101725252D01*
X85344000Y-99397500D02*
X88794000Y-99397500D01*
X85344000Y-99397500D02*
X83394000Y-99397500D01*
X85344000Y-109517500D02*
X87294000Y-109517500D01*
X85344000Y-109517500D02*
X83394000Y-109517500D01*
X100395248Y-83745000D02*
X100917752Y-83745000D01*
X100395248Y-85165000D02*
X100917752Y-85165000D01*
X85590000Y-65590000D02*
X85590000Y-66920000D01*
X85590000Y-66920000D02*
X86920000Y-66920000D01*
X85590000Y-64320000D02*
X88190000Y-64320000D01*
X88190000Y-64320000D02*
X88190000Y-66920000D01*
X88190000Y-66920000D02*
X136510000Y-66920000D01*
X136510000Y-61720000D02*
X136510000Y-66920000D01*
X85590000Y-61720000D02*
X136510000Y-61720000D01*
X85590000Y-61720000D02*
X85590000Y-64320000D01*
D10*
X80906857Y-99163142D02*
X80954476Y-99210761D01*
X81097333Y-99258380D01*
X81192571Y-99258380D01*
X81335428Y-99210761D01*
X81430666Y-99115523D01*
X81478285Y-99020285D01*
X81525904Y-98829809D01*
X81525904Y-98686952D01*
X81478285Y-98496476D01*
X81430666Y-98401238D01*
X81335428Y-98306000D01*
X81192571Y-98258380D01*
X81097333Y-98258380D01*
X80954476Y-98306000D01*
X80906857Y-98353619D01*
X79954476Y-99258380D02*
X80525904Y-99258380D01*
X80240190Y-99258380D02*
X80240190Y-98258380D01*
X80335428Y-98401238D01*
X80430666Y-98496476D01*
X80525904Y-98544095D01*
X79478285Y-99258380D02*
X79287809Y-99258380D01*
X79192571Y-99210761D01*
X79144952Y-99163142D01*
X79049714Y-99020285D01*
X79002095Y-98829809D01*
X79002095Y-98448857D01*
X79049714Y-98353619D01*
X79097333Y-98306000D01*
X79192571Y-98258380D01*
X79383047Y-98258380D01*
X79478285Y-98306000D01*
X79525904Y-98353619D01*
X79573523Y-98448857D01*
X79573523Y-98686952D01*
X79525904Y-98782190D01*
X79478285Y-98829809D01*
X79383047Y-98877428D01*
X79192571Y-98877428D01*
X79097333Y-98829809D01*
X79049714Y-98782190D01*
X79002095Y-98686952D01*
X86320190Y-99009880D02*
X86320190Y-98009880D01*
X85272571Y-98914642D02*
X85320190Y-98962261D01*
X85463047Y-99009880D01*
X85558285Y-99009880D01*
X85701142Y-98962261D01*
X85796380Y-98867023D01*
X85844000Y-98771785D01*
X85891619Y-98581309D01*
X85891619Y-98438452D01*
X85844000Y-98247976D01*
X85796380Y-98152738D01*
X85701142Y-98057500D01*
X85558285Y-98009880D01*
X85463047Y-98009880D01*
X85320190Y-98057500D01*
X85272571Y-98105119D01*
X84939238Y-98009880D02*
X84320190Y-98009880D01*
X84653523Y-98390833D01*
X84510666Y-98390833D01*
X84415428Y-98438452D01*
X84367809Y-98486071D01*
X84320190Y-98581309D01*
X84320190Y-98819404D01*
X84367809Y-98914642D01*
X84415428Y-98962261D01*
X84510666Y-99009880D01*
X84796380Y-99009880D01*
X84891619Y-98962261D01*
X84939238Y-98914642D01*
X101480857Y-82875380D02*
X101814190Y-82399190D01*
X102052285Y-82875380D02*
X102052285Y-81875380D01*
X101671333Y-81875380D01*
X101576095Y-81923000D01*
X101528476Y-81970619D01*
X101480857Y-82065857D01*
X101480857Y-82208714D01*
X101528476Y-82303952D01*
X101576095Y-82351571D01*
X101671333Y-82399190D01*
X102052285Y-82399190D01*
X100528476Y-82875380D02*
X101099904Y-82875380D01*
X100814190Y-82875380D02*
X100814190Y-81875380D01*
X100909428Y-82018238D01*
X101004666Y-82113476D01*
X101099904Y-82161095D01*
X99623714Y-81875380D02*
X100099904Y-81875380D01*
X100147523Y-82351571D01*
X100099904Y-82303952D01*
X100004666Y-82256333D01*
X99766571Y-82256333D01*
X99671333Y-82303952D01*
X99623714Y-82351571D01*
X99576095Y-82446809D01*
X99576095Y-82684904D01*
X99623714Y-82780142D01*
X99671333Y-82827761D01*
X99766571Y-82875380D01*
X100004666Y-82875380D01*
X100099904Y-82827761D01*
X100147523Y-82780142D01*
X111458333Y-67143380D02*
X111458333Y-67857666D01*
X111505952Y-68000523D01*
X111601190Y-68095761D01*
X111744047Y-68143380D01*
X111839285Y-68143380D01*
X111077380Y-67143380D02*
X110458333Y-67143380D01*
X110791666Y-67524333D01*
X110648809Y-67524333D01*
X110553571Y-67571952D01*
X110505952Y-67619571D01*
X110458333Y-67714809D01*
X110458333Y-67952904D01*
X110505952Y-68048142D01*
X110553571Y-68095761D01*
X110648809Y-68143380D01*
X110934523Y-68143380D01*
X111029761Y-68095761D01*
X111077380Y-68048142D01*
M02*
