G04 #@! TF.GenerationSoftware,KiCad,Pcbnew,(5.1.4)-1*
G04 #@! TF.CreationDate,2019-09-24T11:14:08+05:30*
G04 #@! TF.ProjectId,RPi Hat RF Transmitter V1,52506920-4861-4742-9052-46205472616e,rev?*
G04 #@! TF.SameCoordinates,Original*
G04 #@! TF.FileFunction,Copper,L4,Bot*
G04 #@! TF.FilePolarity,Positive*
%FSLAX46Y46*%
G04 Gerber Fmt 4.6, Leading zero omitted, Abs format (unit mm)*
G04 Created by KiCad (PCBNEW (5.1.4)-1) date 2019-09-24 11:14:08*
%MOMM*%
%LPD*%
G04 APERTURE LIST*
%ADD10C,0.150000*%
%ADD11C,2.250000*%
%ADD12C,2.050000*%
%ADD13C,0.100000*%
%ADD14C,1.150000*%
%ADD15O,1.700000X1.700000*%
%ADD16R,1.700000X1.700000*%
%ADD17C,0.600000*%
%ADD18O,1.200000X1.900000*%
%ADD19C,1.450000*%
%ADD20C,3.000000*%
%ADD21C,0.500000*%
%ADD22C,0.250000*%
%ADD23C,0.400000*%
%ADD24C,0.500000*%
%ADD25C,0.200000*%
G04 APERTURE END LIST*
D10*
X78546356Y-63817611D02*
X78546356Y-113817611D01*
X140546356Y-60817611D02*
X81546356Y-60817611D01*
X143546351Y-113822847D02*
X143546356Y-63817611D01*
X81546356Y-116817611D02*
X140546356Y-116817611D01*
X78546356Y-63817611D02*
G75*
G02X81546356Y-60817611I3000000J0D01*
G01*
X140546356Y-60817611D02*
G75*
G02X143546356Y-63817611I0J-3000000D01*
G01*
X81546356Y-116817611D02*
G75*
G02X78546356Y-113817611I0J3000000D01*
G01*
X143546351Y-113822847D02*
G75*
G02X140546356Y-116817611I-2999995J5236D01*
G01*
D11*
X120523000Y-114998500D03*
X115443000Y-114998500D03*
X115443000Y-109918500D03*
X120523000Y-109918500D03*
D12*
X117983000Y-112458500D03*
D11*
X80137000Y-79438500D03*
X80137000Y-74358500D03*
X85217000Y-74358500D03*
X85217000Y-79438500D03*
D12*
X82677000Y-76898500D03*
D13*
G36*
X80294005Y-101915204D02*
G01*
X80318273Y-101918804D01*
X80342072Y-101924765D01*
X80365171Y-101933030D01*
X80387350Y-101943520D01*
X80408393Y-101956132D01*
X80428099Y-101970747D01*
X80446277Y-101987223D01*
X80462753Y-102005401D01*
X80477368Y-102025107D01*
X80489980Y-102046150D01*
X80500470Y-102068329D01*
X80508735Y-102091428D01*
X80514696Y-102115227D01*
X80518296Y-102139495D01*
X80519500Y-102163999D01*
X80519500Y-102814001D01*
X80518296Y-102838505D01*
X80514696Y-102862773D01*
X80508735Y-102886572D01*
X80500470Y-102909671D01*
X80489980Y-102931850D01*
X80477368Y-102952893D01*
X80462753Y-102972599D01*
X80446277Y-102990777D01*
X80428099Y-103007253D01*
X80408393Y-103021868D01*
X80387350Y-103034480D01*
X80365171Y-103044970D01*
X80342072Y-103053235D01*
X80318273Y-103059196D01*
X80294005Y-103062796D01*
X80269501Y-103064000D01*
X79369499Y-103064000D01*
X79344995Y-103062796D01*
X79320727Y-103059196D01*
X79296928Y-103053235D01*
X79273829Y-103044970D01*
X79251650Y-103034480D01*
X79230607Y-103021868D01*
X79210901Y-103007253D01*
X79192723Y-102990777D01*
X79176247Y-102972599D01*
X79161632Y-102952893D01*
X79149020Y-102931850D01*
X79138530Y-102909671D01*
X79130265Y-102886572D01*
X79124304Y-102862773D01*
X79120704Y-102838505D01*
X79119500Y-102814001D01*
X79119500Y-102163999D01*
X79120704Y-102139495D01*
X79124304Y-102115227D01*
X79130265Y-102091428D01*
X79138530Y-102068329D01*
X79149020Y-102046150D01*
X79161632Y-102025107D01*
X79176247Y-102005401D01*
X79192723Y-101987223D01*
X79210901Y-101970747D01*
X79230607Y-101956132D01*
X79251650Y-101943520D01*
X79273829Y-101933030D01*
X79296928Y-101924765D01*
X79320727Y-101918804D01*
X79344995Y-101915204D01*
X79369499Y-101914000D01*
X80269501Y-101914000D01*
X80294005Y-101915204D01*
X80294005Y-101915204D01*
G37*
D14*
X79819500Y-102489000D03*
D13*
G36*
X80294005Y-99865204D02*
G01*
X80318273Y-99868804D01*
X80342072Y-99874765D01*
X80365171Y-99883030D01*
X80387350Y-99893520D01*
X80408393Y-99906132D01*
X80428099Y-99920747D01*
X80446277Y-99937223D01*
X80462753Y-99955401D01*
X80477368Y-99975107D01*
X80489980Y-99996150D01*
X80500470Y-100018329D01*
X80508735Y-100041428D01*
X80514696Y-100065227D01*
X80518296Y-100089495D01*
X80519500Y-100113999D01*
X80519500Y-100764001D01*
X80518296Y-100788505D01*
X80514696Y-100812773D01*
X80508735Y-100836572D01*
X80500470Y-100859671D01*
X80489980Y-100881850D01*
X80477368Y-100902893D01*
X80462753Y-100922599D01*
X80446277Y-100940777D01*
X80428099Y-100957253D01*
X80408393Y-100971868D01*
X80387350Y-100984480D01*
X80365171Y-100994970D01*
X80342072Y-101003235D01*
X80318273Y-101009196D01*
X80294005Y-101012796D01*
X80269501Y-101014000D01*
X79369499Y-101014000D01*
X79344995Y-101012796D01*
X79320727Y-101009196D01*
X79296928Y-101003235D01*
X79273829Y-100994970D01*
X79251650Y-100984480D01*
X79230607Y-100971868D01*
X79210901Y-100957253D01*
X79192723Y-100940777D01*
X79176247Y-100922599D01*
X79161632Y-100902893D01*
X79149020Y-100881850D01*
X79138530Y-100859671D01*
X79130265Y-100836572D01*
X79124304Y-100812773D01*
X79120704Y-100788505D01*
X79119500Y-100764001D01*
X79119500Y-100113999D01*
X79120704Y-100089495D01*
X79124304Y-100065227D01*
X79130265Y-100041428D01*
X79138530Y-100018329D01*
X79149020Y-99996150D01*
X79161632Y-99975107D01*
X79176247Y-99955401D01*
X79192723Y-99937223D01*
X79210901Y-99920747D01*
X79230607Y-99906132D01*
X79251650Y-99893520D01*
X79273829Y-99883030D01*
X79296928Y-99874765D01*
X79320727Y-99868804D01*
X79344995Y-99865204D01*
X79369499Y-99864000D01*
X80269501Y-99864000D01*
X80294005Y-99865204D01*
X80294005Y-99865204D01*
G37*
D14*
X79819500Y-100439000D03*
D11*
X136271000Y-87693500D03*
X141351000Y-87693500D03*
X141351000Y-92773500D03*
X136271000Y-92773500D03*
D12*
X138811000Y-90233500D03*
D11*
X118491000Y-97282000D03*
X118491000Y-102362000D03*
X113411000Y-102362000D03*
X113411000Y-97282000D03*
D12*
X115951000Y-99822000D03*
D11*
X102679500Y-97282000D03*
X102679500Y-102362000D03*
X97599500Y-102362000D03*
X97599500Y-97282000D03*
D12*
X100139500Y-99822000D03*
D15*
X140779500Y-70612000D03*
D16*
X138239500Y-70612000D03*
D13*
G36*
X83708703Y-99713222D02*
G01*
X83723264Y-99715382D01*
X83737543Y-99718959D01*
X83751403Y-99723918D01*
X83764710Y-99730212D01*
X83777336Y-99737780D01*
X83789159Y-99746548D01*
X83800066Y-99756434D01*
X83809952Y-99767341D01*
X83818720Y-99779164D01*
X83826288Y-99791790D01*
X83832582Y-99805097D01*
X83837541Y-99818957D01*
X83841118Y-99833236D01*
X83843278Y-99847797D01*
X83844000Y-99862500D01*
X83844000Y-100162500D01*
X83843278Y-100177203D01*
X83841118Y-100191764D01*
X83837541Y-100206043D01*
X83832582Y-100219903D01*
X83826288Y-100233210D01*
X83818720Y-100245836D01*
X83809952Y-100257659D01*
X83800066Y-100268566D01*
X83789159Y-100278452D01*
X83777336Y-100287220D01*
X83764710Y-100294788D01*
X83751403Y-100301082D01*
X83737543Y-100306041D01*
X83723264Y-100309618D01*
X83708703Y-100311778D01*
X83694000Y-100312500D01*
X82044000Y-100312500D01*
X82029297Y-100311778D01*
X82014736Y-100309618D01*
X82000457Y-100306041D01*
X81986597Y-100301082D01*
X81973290Y-100294788D01*
X81960664Y-100287220D01*
X81948841Y-100278452D01*
X81937934Y-100268566D01*
X81928048Y-100257659D01*
X81919280Y-100245836D01*
X81911712Y-100233210D01*
X81905418Y-100219903D01*
X81900459Y-100206043D01*
X81896882Y-100191764D01*
X81894722Y-100177203D01*
X81894000Y-100162500D01*
X81894000Y-99862500D01*
X81894722Y-99847797D01*
X81896882Y-99833236D01*
X81900459Y-99818957D01*
X81905418Y-99805097D01*
X81911712Y-99791790D01*
X81919280Y-99779164D01*
X81928048Y-99767341D01*
X81937934Y-99756434D01*
X81948841Y-99746548D01*
X81960664Y-99737780D01*
X81973290Y-99730212D01*
X81986597Y-99723918D01*
X82000457Y-99718959D01*
X82014736Y-99715382D01*
X82029297Y-99713222D01*
X82044000Y-99712500D01*
X83694000Y-99712500D01*
X83708703Y-99713222D01*
X83708703Y-99713222D01*
G37*
D17*
X82869000Y-100012500D03*
D13*
G36*
X83708703Y-100983222D02*
G01*
X83723264Y-100985382D01*
X83737543Y-100988959D01*
X83751403Y-100993918D01*
X83764710Y-101000212D01*
X83777336Y-101007780D01*
X83789159Y-101016548D01*
X83800066Y-101026434D01*
X83809952Y-101037341D01*
X83818720Y-101049164D01*
X83826288Y-101061790D01*
X83832582Y-101075097D01*
X83837541Y-101088957D01*
X83841118Y-101103236D01*
X83843278Y-101117797D01*
X83844000Y-101132500D01*
X83844000Y-101432500D01*
X83843278Y-101447203D01*
X83841118Y-101461764D01*
X83837541Y-101476043D01*
X83832582Y-101489903D01*
X83826288Y-101503210D01*
X83818720Y-101515836D01*
X83809952Y-101527659D01*
X83800066Y-101538566D01*
X83789159Y-101548452D01*
X83777336Y-101557220D01*
X83764710Y-101564788D01*
X83751403Y-101571082D01*
X83737543Y-101576041D01*
X83723264Y-101579618D01*
X83708703Y-101581778D01*
X83694000Y-101582500D01*
X82044000Y-101582500D01*
X82029297Y-101581778D01*
X82014736Y-101579618D01*
X82000457Y-101576041D01*
X81986597Y-101571082D01*
X81973290Y-101564788D01*
X81960664Y-101557220D01*
X81948841Y-101548452D01*
X81937934Y-101538566D01*
X81928048Y-101527659D01*
X81919280Y-101515836D01*
X81911712Y-101503210D01*
X81905418Y-101489903D01*
X81900459Y-101476043D01*
X81896882Y-101461764D01*
X81894722Y-101447203D01*
X81894000Y-101432500D01*
X81894000Y-101132500D01*
X81894722Y-101117797D01*
X81896882Y-101103236D01*
X81900459Y-101088957D01*
X81905418Y-101075097D01*
X81911712Y-101061790D01*
X81919280Y-101049164D01*
X81928048Y-101037341D01*
X81937934Y-101026434D01*
X81948841Y-101016548D01*
X81960664Y-101007780D01*
X81973290Y-101000212D01*
X81986597Y-100993918D01*
X82000457Y-100988959D01*
X82014736Y-100985382D01*
X82029297Y-100983222D01*
X82044000Y-100982500D01*
X83694000Y-100982500D01*
X83708703Y-100983222D01*
X83708703Y-100983222D01*
G37*
D17*
X82869000Y-101282500D03*
D13*
G36*
X83708703Y-102253222D02*
G01*
X83723264Y-102255382D01*
X83737543Y-102258959D01*
X83751403Y-102263918D01*
X83764710Y-102270212D01*
X83777336Y-102277780D01*
X83789159Y-102286548D01*
X83800066Y-102296434D01*
X83809952Y-102307341D01*
X83818720Y-102319164D01*
X83826288Y-102331790D01*
X83832582Y-102345097D01*
X83837541Y-102358957D01*
X83841118Y-102373236D01*
X83843278Y-102387797D01*
X83844000Y-102402500D01*
X83844000Y-102702500D01*
X83843278Y-102717203D01*
X83841118Y-102731764D01*
X83837541Y-102746043D01*
X83832582Y-102759903D01*
X83826288Y-102773210D01*
X83818720Y-102785836D01*
X83809952Y-102797659D01*
X83800066Y-102808566D01*
X83789159Y-102818452D01*
X83777336Y-102827220D01*
X83764710Y-102834788D01*
X83751403Y-102841082D01*
X83737543Y-102846041D01*
X83723264Y-102849618D01*
X83708703Y-102851778D01*
X83694000Y-102852500D01*
X82044000Y-102852500D01*
X82029297Y-102851778D01*
X82014736Y-102849618D01*
X82000457Y-102846041D01*
X81986597Y-102841082D01*
X81973290Y-102834788D01*
X81960664Y-102827220D01*
X81948841Y-102818452D01*
X81937934Y-102808566D01*
X81928048Y-102797659D01*
X81919280Y-102785836D01*
X81911712Y-102773210D01*
X81905418Y-102759903D01*
X81900459Y-102746043D01*
X81896882Y-102731764D01*
X81894722Y-102717203D01*
X81894000Y-102702500D01*
X81894000Y-102402500D01*
X81894722Y-102387797D01*
X81896882Y-102373236D01*
X81900459Y-102358957D01*
X81905418Y-102345097D01*
X81911712Y-102331790D01*
X81919280Y-102319164D01*
X81928048Y-102307341D01*
X81937934Y-102296434D01*
X81948841Y-102286548D01*
X81960664Y-102277780D01*
X81973290Y-102270212D01*
X81986597Y-102263918D01*
X82000457Y-102258959D01*
X82014736Y-102255382D01*
X82029297Y-102253222D01*
X82044000Y-102252500D01*
X83694000Y-102252500D01*
X83708703Y-102253222D01*
X83708703Y-102253222D01*
G37*
D17*
X82869000Y-102552500D03*
D13*
G36*
X83708703Y-103523222D02*
G01*
X83723264Y-103525382D01*
X83737543Y-103528959D01*
X83751403Y-103533918D01*
X83764710Y-103540212D01*
X83777336Y-103547780D01*
X83789159Y-103556548D01*
X83800066Y-103566434D01*
X83809952Y-103577341D01*
X83818720Y-103589164D01*
X83826288Y-103601790D01*
X83832582Y-103615097D01*
X83837541Y-103628957D01*
X83841118Y-103643236D01*
X83843278Y-103657797D01*
X83844000Y-103672500D01*
X83844000Y-103972500D01*
X83843278Y-103987203D01*
X83841118Y-104001764D01*
X83837541Y-104016043D01*
X83832582Y-104029903D01*
X83826288Y-104043210D01*
X83818720Y-104055836D01*
X83809952Y-104067659D01*
X83800066Y-104078566D01*
X83789159Y-104088452D01*
X83777336Y-104097220D01*
X83764710Y-104104788D01*
X83751403Y-104111082D01*
X83737543Y-104116041D01*
X83723264Y-104119618D01*
X83708703Y-104121778D01*
X83694000Y-104122500D01*
X82044000Y-104122500D01*
X82029297Y-104121778D01*
X82014736Y-104119618D01*
X82000457Y-104116041D01*
X81986597Y-104111082D01*
X81973290Y-104104788D01*
X81960664Y-104097220D01*
X81948841Y-104088452D01*
X81937934Y-104078566D01*
X81928048Y-104067659D01*
X81919280Y-104055836D01*
X81911712Y-104043210D01*
X81905418Y-104029903D01*
X81900459Y-104016043D01*
X81896882Y-104001764D01*
X81894722Y-103987203D01*
X81894000Y-103972500D01*
X81894000Y-103672500D01*
X81894722Y-103657797D01*
X81896882Y-103643236D01*
X81900459Y-103628957D01*
X81905418Y-103615097D01*
X81911712Y-103601790D01*
X81919280Y-103589164D01*
X81928048Y-103577341D01*
X81937934Y-103566434D01*
X81948841Y-103556548D01*
X81960664Y-103547780D01*
X81973290Y-103540212D01*
X81986597Y-103533918D01*
X82000457Y-103528959D01*
X82014736Y-103525382D01*
X82029297Y-103523222D01*
X82044000Y-103522500D01*
X83694000Y-103522500D01*
X83708703Y-103523222D01*
X83708703Y-103523222D01*
G37*
D17*
X82869000Y-103822500D03*
D13*
G36*
X83708703Y-104793222D02*
G01*
X83723264Y-104795382D01*
X83737543Y-104798959D01*
X83751403Y-104803918D01*
X83764710Y-104810212D01*
X83777336Y-104817780D01*
X83789159Y-104826548D01*
X83800066Y-104836434D01*
X83809952Y-104847341D01*
X83818720Y-104859164D01*
X83826288Y-104871790D01*
X83832582Y-104885097D01*
X83837541Y-104898957D01*
X83841118Y-104913236D01*
X83843278Y-104927797D01*
X83844000Y-104942500D01*
X83844000Y-105242500D01*
X83843278Y-105257203D01*
X83841118Y-105271764D01*
X83837541Y-105286043D01*
X83832582Y-105299903D01*
X83826288Y-105313210D01*
X83818720Y-105325836D01*
X83809952Y-105337659D01*
X83800066Y-105348566D01*
X83789159Y-105358452D01*
X83777336Y-105367220D01*
X83764710Y-105374788D01*
X83751403Y-105381082D01*
X83737543Y-105386041D01*
X83723264Y-105389618D01*
X83708703Y-105391778D01*
X83694000Y-105392500D01*
X82044000Y-105392500D01*
X82029297Y-105391778D01*
X82014736Y-105389618D01*
X82000457Y-105386041D01*
X81986597Y-105381082D01*
X81973290Y-105374788D01*
X81960664Y-105367220D01*
X81948841Y-105358452D01*
X81937934Y-105348566D01*
X81928048Y-105337659D01*
X81919280Y-105325836D01*
X81911712Y-105313210D01*
X81905418Y-105299903D01*
X81900459Y-105286043D01*
X81896882Y-105271764D01*
X81894722Y-105257203D01*
X81894000Y-105242500D01*
X81894000Y-104942500D01*
X81894722Y-104927797D01*
X81896882Y-104913236D01*
X81900459Y-104898957D01*
X81905418Y-104885097D01*
X81911712Y-104871790D01*
X81919280Y-104859164D01*
X81928048Y-104847341D01*
X81937934Y-104836434D01*
X81948841Y-104826548D01*
X81960664Y-104817780D01*
X81973290Y-104810212D01*
X81986597Y-104803918D01*
X82000457Y-104798959D01*
X82014736Y-104795382D01*
X82029297Y-104793222D01*
X82044000Y-104792500D01*
X83694000Y-104792500D01*
X83708703Y-104793222D01*
X83708703Y-104793222D01*
G37*
D17*
X82869000Y-105092500D03*
D13*
G36*
X83708703Y-106063222D02*
G01*
X83723264Y-106065382D01*
X83737543Y-106068959D01*
X83751403Y-106073918D01*
X83764710Y-106080212D01*
X83777336Y-106087780D01*
X83789159Y-106096548D01*
X83800066Y-106106434D01*
X83809952Y-106117341D01*
X83818720Y-106129164D01*
X83826288Y-106141790D01*
X83832582Y-106155097D01*
X83837541Y-106168957D01*
X83841118Y-106183236D01*
X83843278Y-106197797D01*
X83844000Y-106212500D01*
X83844000Y-106512500D01*
X83843278Y-106527203D01*
X83841118Y-106541764D01*
X83837541Y-106556043D01*
X83832582Y-106569903D01*
X83826288Y-106583210D01*
X83818720Y-106595836D01*
X83809952Y-106607659D01*
X83800066Y-106618566D01*
X83789159Y-106628452D01*
X83777336Y-106637220D01*
X83764710Y-106644788D01*
X83751403Y-106651082D01*
X83737543Y-106656041D01*
X83723264Y-106659618D01*
X83708703Y-106661778D01*
X83694000Y-106662500D01*
X82044000Y-106662500D01*
X82029297Y-106661778D01*
X82014736Y-106659618D01*
X82000457Y-106656041D01*
X81986597Y-106651082D01*
X81973290Y-106644788D01*
X81960664Y-106637220D01*
X81948841Y-106628452D01*
X81937934Y-106618566D01*
X81928048Y-106607659D01*
X81919280Y-106595836D01*
X81911712Y-106583210D01*
X81905418Y-106569903D01*
X81900459Y-106556043D01*
X81896882Y-106541764D01*
X81894722Y-106527203D01*
X81894000Y-106512500D01*
X81894000Y-106212500D01*
X81894722Y-106197797D01*
X81896882Y-106183236D01*
X81900459Y-106168957D01*
X81905418Y-106155097D01*
X81911712Y-106141790D01*
X81919280Y-106129164D01*
X81928048Y-106117341D01*
X81937934Y-106106434D01*
X81948841Y-106096548D01*
X81960664Y-106087780D01*
X81973290Y-106080212D01*
X81986597Y-106073918D01*
X82000457Y-106068959D01*
X82014736Y-106065382D01*
X82029297Y-106063222D01*
X82044000Y-106062500D01*
X83694000Y-106062500D01*
X83708703Y-106063222D01*
X83708703Y-106063222D01*
G37*
D17*
X82869000Y-106362500D03*
D13*
G36*
X83708703Y-107333222D02*
G01*
X83723264Y-107335382D01*
X83737543Y-107338959D01*
X83751403Y-107343918D01*
X83764710Y-107350212D01*
X83777336Y-107357780D01*
X83789159Y-107366548D01*
X83800066Y-107376434D01*
X83809952Y-107387341D01*
X83818720Y-107399164D01*
X83826288Y-107411790D01*
X83832582Y-107425097D01*
X83837541Y-107438957D01*
X83841118Y-107453236D01*
X83843278Y-107467797D01*
X83844000Y-107482500D01*
X83844000Y-107782500D01*
X83843278Y-107797203D01*
X83841118Y-107811764D01*
X83837541Y-107826043D01*
X83832582Y-107839903D01*
X83826288Y-107853210D01*
X83818720Y-107865836D01*
X83809952Y-107877659D01*
X83800066Y-107888566D01*
X83789159Y-107898452D01*
X83777336Y-107907220D01*
X83764710Y-107914788D01*
X83751403Y-107921082D01*
X83737543Y-107926041D01*
X83723264Y-107929618D01*
X83708703Y-107931778D01*
X83694000Y-107932500D01*
X82044000Y-107932500D01*
X82029297Y-107931778D01*
X82014736Y-107929618D01*
X82000457Y-107926041D01*
X81986597Y-107921082D01*
X81973290Y-107914788D01*
X81960664Y-107907220D01*
X81948841Y-107898452D01*
X81937934Y-107888566D01*
X81928048Y-107877659D01*
X81919280Y-107865836D01*
X81911712Y-107853210D01*
X81905418Y-107839903D01*
X81900459Y-107826043D01*
X81896882Y-107811764D01*
X81894722Y-107797203D01*
X81894000Y-107782500D01*
X81894000Y-107482500D01*
X81894722Y-107467797D01*
X81896882Y-107453236D01*
X81900459Y-107438957D01*
X81905418Y-107425097D01*
X81911712Y-107411790D01*
X81919280Y-107399164D01*
X81928048Y-107387341D01*
X81937934Y-107376434D01*
X81948841Y-107366548D01*
X81960664Y-107357780D01*
X81973290Y-107350212D01*
X81986597Y-107343918D01*
X82000457Y-107338959D01*
X82014736Y-107335382D01*
X82029297Y-107333222D01*
X82044000Y-107332500D01*
X83694000Y-107332500D01*
X83708703Y-107333222D01*
X83708703Y-107333222D01*
G37*
D17*
X82869000Y-107632500D03*
D13*
G36*
X83708703Y-108603222D02*
G01*
X83723264Y-108605382D01*
X83737543Y-108608959D01*
X83751403Y-108613918D01*
X83764710Y-108620212D01*
X83777336Y-108627780D01*
X83789159Y-108636548D01*
X83800066Y-108646434D01*
X83809952Y-108657341D01*
X83818720Y-108669164D01*
X83826288Y-108681790D01*
X83832582Y-108695097D01*
X83837541Y-108708957D01*
X83841118Y-108723236D01*
X83843278Y-108737797D01*
X83844000Y-108752500D01*
X83844000Y-109052500D01*
X83843278Y-109067203D01*
X83841118Y-109081764D01*
X83837541Y-109096043D01*
X83832582Y-109109903D01*
X83826288Y-109123210D01*
X83818720Y-109135836D01*
X83809952Y-109147659D01*
X83800066Y-109158566D01*
X83789159Y-109168452D01*
X83777336Y-109177220D01*
X83764710Y-109184788D01*
X83751403Y-109191082D01*
X83737543Y-109196041D01*
X83723264Y-109199618D01*
X83708703Y-109201778D01*
X83694000Y-109202500D01*
X82044000Y-109202500D01*
X82029297Y-109201778D01*
X82014736Y-109199618D01*
X82000457Y-109196041D01*
X81986597Y-109191082D01*
X81973290Y-109184788D01*
X81960664Y-109177220D01*
X81948841Y-109168452D01*
X81937934Y-109158566D01*
X81928048Y-109147659D01*
X81919280Y-109135836D01*
X81911712Y-109123210D01*
X81905418Y-109109903D01*
X81900459Y-109096043D01*
X81896882Y-109081764D01*
X81894722Y-109067203D01*
X81894000Y-109052500D01*
X81894000Y-108752500D01*
X81894722Y-108737797D01*
X81896882Y-108723236D01*
X81900459Y-108708957D01*
X81905418Y-108695097D01*
X81911712Y-108681790D01*
X81919280Y-108669164D01*
X81928048Y-108657341D01*
X81937934Y-108646434D01*
X81948841Y-108636548D01*
X81960664Y-108627780D01*
X81973290Y-108620212D01*
X81986597Y-108613918D01*
X82000457Y-108608959D01*
X82014736Y-108605382D01*
X82029297Y-108603222D01*
X82044000Y-108602500D01*
X83694000Y-108602500D01*
X83708703Y-108603222D01*
X83708703Y-108603222D01*
G37*
D17*
X82869000Y-108902500D03*
D13*
G36*
X88658703Y-108603222D02*
G01*
X88673264Y-108605382D01*
X88687543Y-108608959D01*
X88701403Y-108613918D01*
X88714710Y-108620212D01*
X88727336Y-108627780D01*
X88739159Y-108636548D01*
X88750066Y-108646434D01*
X88759952Y-108657341D01*
X88768720Y-108669164D01*
X88776288Y-108681790D01*
X88782582Y-108695097D01*
X88787541Y-108708957D01*
X88791118Y-108723236D01*
X88793278Y-108737797D01*
X88794000Y-108752500D01*
X88794000Y-109052500D01*
X88793278Y-109067203D01*
X88791118Y-109081764D01*
X88787541Y-109096043D01*
X88782582Y-109109903D01*
X88776288Y-109123210D01*
X88768720Y-109135836D01*
X88759952Y-109147659D01*
X88750066Y-109158566D01*
X88739159Y-109168452D01*
X88727336Y-109177220D01*
X88714710Y-109184788D01*
X88701403Y-109191082D01*
X88687543Y-109196041D01*
X88673264Y-109199618D01*
X88658703Y-109201778D01*
X88644000Y-109202500D01*
X86994000Y-109202500D01*
X86979297Y-109201778D01*
X86964736Y-109199618D01*
X86950457Y-109196041D01*
X86936597Y-109191082D01*
X86923290Y-109184788D01*
X86910664Y-109177220D01*
X86898841Y-109168452D01*
X86887934Y-109158566D01*
X86878048Y-109147659D01*
X86869280Y-109135836D01*
X86861712Y-109123210D01*
X86855418Y-109109903D01*
X86850459Y-109096043D01*
X86846882Y-109081764D01*
X86844722Y-109067203D01*
X86844000Y-109052500D01*
X86844000Y-108752500D01*
X86844722Y-108737797D01*
X86846882Y-108723236D01*
X86850459Y-108708957D01*
X86855418Y-108695097D01*
X86861712Y-108681790D01*
X86869280Y-108669164D01*
X86878048Y-108657341D01*
X86887934Y-108646434D01*
X86898841Y-108636548D01*
X86910664Y-108627780D01*
X86923290Y-108620212D01*
X86936597Y-108613918D01*
X86950457Y-108608959D01*
X86964736Y-108605382D01*
X86979297Y-108603222D01*
X86994000Y-108602500D01*
X88644000Y-108602500D01*
X88658703Y-108603222D01*
X88658703Y-108603222D01*
G37*
D17*
X87819000Y-108902500D03*
D13*
G36*
X88658703Y-107333222D02*
G01*
X88673264Y-107335382D01*
X88687543Y-107338959D01*
X88701403Y-107343918D01*
X88714710Y-107350212D01*
X88727336Y-107357780D01*
X88739159Y-107366548D01*
X88750066Y-107376434D01*
X88759952Y-107387341D01*
X88768720Y-107399164D01*
X88776288Y-107411790D01*
X88782582Y-107425097D01*
X88787541Y-107438957D01*
X88791118Y-107453236D01*
X88793278Y-107467797D01*
X88794000Y-107482500D01*
X88794000Y-107782500D01*
X88793278Y-107797203D01*
X88791118Y-107811764D01*
X88787541Y-107826043D01*
X88782582Y-107839903D01*
X88776288Y-107853210D01*
X88768720Y-107865836D01*
X88759952Y-107877659D01*
X88750066Y-107888566D01*
X88739159Y-107898452D01*
X88727336Y-107907220D01*
X88714710Y-107914788D01*
X88701403Y-107921082D01*
X88687543Y-107926041D01*
X88673264Y-107929618D01*
X88658703Y-107931778D01*
X88644000Y-107932500D01*
X86994000Y-107932500D01*
X86979297Y-107931778D01*
X86964736Y-107929618D01*
X86950457Y-107926041D01*
X86936597Y-107921082D01*
X86923290Y-107914788D01*
X86910664Y-107907220D01*
X86898841Y-107898452D01*
X86887934Y-107888566D01*
X86878048Y-107877659D01*
X86869280Y-107865836D01*
X86861712Y-107853210D01*
X86855418Y-107839903D01*
X86850459Y-107826043D01*
X86846882Y-107811764D01*
X86844722Y-107797203D01*
X86844000Y-107782500D01*
X86844000Y-107482500D01*
X86844722Y-107467797D01*
X86846882Y-107453236D01*
X86850459Y-107438957D01*
X86855418Y-107425097D01*
X86861712Y-107411790D01*
X86869280Y-107399164D01*
X86878048Y-107387341D01*
X86887934Y-107376434D01*
X86898841Y-107366548D01*
X86910664Y-107357780D01*
X86923290Y-107350212D01*
X86936597Y-107343918D01*
X86950457Y-107338959D01*
X86964736Y-107335382D01*
X86979297Y-107333222D01*
X86994000Y-107332500D01*
X88644000Y-107332500D01*
X88658703Y-107333222D01*
X88658703Y-107333222D01*
G37*
D17*
X87819000Y-107632500D03*
D13*
G36*
X88658703Y-106063222D02*
G01*
X88673264Y-106065382D01*
X88687543Y-106068959D01*
X88701403Y-106073918D01*
X88714710Y-106080212D01*
X88727336Y-106087780D01*
X88739159Y-106096548D01*
X88750066Y-106106434D01*
X88759952Y-106117341D01*
X88768720Y-106129164D01*
X88776288Y-106141790D01*
X88782582Y-106155097D01*
X88787541Y-106168957D01*
X88791118Y-106183236D01*
X88793278Y-106197797D01*
X88794000Y-106212500D01*
X88794000Y-106512500D01*
X88793278Y-106527203D01*
X88791118Y-106541764D01*
X88787541Y-106556043D01*
X88782582Y-106569903D01*
X88776288Y-106583210D01*
X88768720Y-106595836D01*
X88759952Y-106607659D01*
X88750066Y-106618566D01*
X88739159Y-106628452D01*
X88727336Y-106637220D01*
X88714710Y-106644788D01*
X88701403Y-106651082D01*
X88687543Y-106656041D01*
X88673264Y-106659618D01*
X88658703Y-106661778D01*
X88644000Y-106662500D01*
X86994000Y-106662500D01*
X86979297Y-106661778D01*
X86964736Y-106659618D01*
X86950457Y-106656041D01*
X86936597Y-106651082D01*
X86923290Y-106644788D01*
X86910664Y-106637220D01*
X86898841Y-106628452D01*
X86887934Y-106618566D01*
X86878048Y-106607659D01*
X86869280Y-106595836D01*
X86861712Y-106583210D01*
X86855418Y-106569903D01*
X86850459Y-106556043D01*
X86846882Y-106541764D01*
X86844722Y-106527203D01*
X86844000Y-106512500D01*
X86844000Y-106212500D01*
X86844722Y-106197797D01*
X86846882Y-106183236D01*
X86850459Y-106168957D01*
X86855418Y-106155097D01*
X86861712Y-106141790D01*
X86869280Y-106129164D01*
X86878048Y-106117341D01*
X86887934Y-106106434D01*
X86898841Y-106096548D01*
X86910664Y-106087780D01*
X86923290Y-106080212D01*
X86936597Y-106073918D01*
X86950457Y-106068959D01*
X86964736Y-106065382D01*
X86979297Y-106063222D01*
X86994000Y-106062500D01*
X88644000Y-106062500D01*
X88658703Y-106063222D01*
X88658703Y-106063222D01*
G37*
D17*
X87819000Y-106362500D03*
D13*
G36*
X88658703Y-104793222D02*
G01*
X88673264Y-104795382D01*
X88687543Y-104798959D01*
X88701403Y-104803918D01*
X88714710Y-104810212D01*
X88727336Y-104817780D01*
X88739159Y-104826548D01*
X88750066Y-104836434D01*
X88759952Y-104847341D01*
X88768720Y-104859164D01*
X88776288Y-104871790D01*
X88782582Y-104885097D01*
X88787541Y-104898957D01*
X88791118Y-104913236D01*
X88793278Y-104927797D01*
X88794000Y-104942500D01*
X88794000Y-105242500D01*
X88793278Y-105257203D01*
X88791118Y-105271764D01*
X88787541Y-105286043D01*
X88782582Y-105299903D01*
X88776288Y-105313210D01*
X88768720Y-105325836D01*
X88759952Y-105337659D01*
X88750066Y-105348566D01*
X88739159Y-105358452D01*
X88727336Y-105367220D01*
X88714710Y-105374788D01*
X88701403Y-105381082D01*
X88687543Y-105386041D01*
X88673264Y-105389618D01*
X88658703Y-105391778D01*
X88644000Y-105392500D01*
X86994000Y-105392500D01*
X86979297Y-105391778D01*
X86964736Y-105389618D01*
X86950457Y-105386041D01*
X86936597Y-105381082D01*
X86923290Y-105374788D01*
X86910664Y-105367220D01*
X86898841Y-105358452D01*
X86887934Y-105348566D01*
X86878048Y-105337659D01*
X86869280Y-105325836D01*
X86861712Y-105313210D01*
X86855418Y-105299903D01*
X86850459Y-105286043D01*
X86846882Y-105271764D01*
X86844722Y-105257203D01*
X86844000Y-105242500D01*
X86844000Y-104942500D01*
X86844722Y-104927797D01*
X86846882Y-104913236D01*
X86850459Y-104898957D01*
X86855418Y-104885097D01*
X86861712Y-104871790D01*
X86869280Y-104859164D01*
X86878048Y-104847341D01*
X86887934Y-104836434D01*
X86898841Y-104826548D01*
X86910664Y-104817780D01*
X86923290Y-104810212D01*
X86936597Y-104803918D01*
X86950457Y-104798959D01*
X86964736Y-104795382D01*
X86979297Y-104793222D01*
X86994000Y-104792500D01*
X88644000Y-104792500D01*
X88658703Y-104793222D01*
X88658703Y-104793222D01*
G37*
D17*
X87819000Y-105092500D03*
D13*
G36*
X88658703Y-103523222D02*
G01*
X88673264Y-103525382D01*
X88687543Y-103528959D01*
X88701403Y-103533918D01*
X88714710Y-103540212D01*
X88727336Y-103547780D01*
X88739159Y-103556548D01*
X88750066Y-103566434D01*
X88759952Y-103577341D01*
X88768720Y-103589164D01*
X88776288Y-103601790D01*
X88782582Y-103615097D01*
X88787541Y-103628957D01*
X88791118Y-103643236D01*
X88793278Y-103657797D01*
X88794000Y-103672500D01*
X88794000Y-103972500D01*
X88793278Y-103987203D01*
X88791118Y-104001764D01*
X88787541Y-104016043D01*
X88782582Y-104029903D01*
X88776288Y-104043210D01*
X88768720Y-104055836D01*
X88759952Y-104067659D01*
X88750066Y-104078566D01*
X88739159Y-104088452D01*
X88727336Y-104097220D01*
X88714710Y-104104788D01*
X88701403Y-104111082D01*
X88687543Y-104116041D01*
X88673264Y-104119618D01*
X88658703Y-104121778D01*
X88644000Y-104122500D01*
X86994000Y-104122500D01*
X86979297Y-104121778D01*
X86964736Y-104119618D01*
X86950457Y-104116041D01*
X86936597Y-104111082D01*
X86923290Y-104104788D01*
X86910664Y-104097220D01*
X86898841Y-104088452D01*
X86887934Y-104078566D01*
X86878048Y-104067659D01*
X86869280Y-104055836D01*
X86861712Y-104043210D01*
X86855418Y-104029903D01*
X86850459Y-104016043D01*
X86846882Y-104001764D01*
X86844722Y-103987203D01*
X86844000Y-103972500D01*
X86844000Y-103672500D01*
X86844722Y-103657797D01*
X86846882Y-103643236D01*
X86850459Y-103628957D01*
X86855418Y-103615097D01*
X86861712Y-103601790D01*
X86869280Y-103589164D01*
X86878048Y-103577341D01*
X86887934Y-103566434D01*
X86898841Y-103556548D01*
X86910664Y-103547780D01*
X86923290Y-103540212D01*
X86936597Y-103533918D01*
X86950457Y-103528959D01*
X86964736Y-103525382D01*
X86979297Y-103523222D01*
X86994000Y-103522500D01*
X88644000Y-103522500D01*
X88658703Y-103523222D01*
X88658703Y-103523222D01*
G37*
D17*
X87819000Y-103822500D03*
D13*
G36*
X88658703Y-102253222D02*
G01*
X88673264Y-102255382D01*
X88687543Y-102258959D01*
X88701403Y-102263918D01*
X88714710Y-102270212D01*
X88727336Y-102277780D01*
X88739159Y-102286548D01*
X88750066Y-102296434D01*
X88759952Y-102307341D01*
X88768720Y-102319164D01*
X88776288Y-102331790D01*
X88782582Y-102345097D01*
X88787541Y-102358957D01*
X88791118Y-102373236D01*
X88793278Y-102387797D01*
X88794000Y-102402500D01*
X88794000Y-102702500D01*
X88793278Y-102717203D01*
X88791118Y-102731764D01*
X88787541Y-102746043D01*
X88782582Y-102759903D01*
X88776288Y-102773210D01*
X88768720Y-102785836D01*
X88759952Y-102797659D01*
X88750066Y-102808566D01*
X88739159Y-102818452D01*
X88727336Y-102827220D01*
X88714710Y-102834788D01*
X88701403Y-102841082D01*
X88687543Y-102846041D01*
X88673264Y-102849618D01*
X88658703Y-102851778D01*
X88644000Y-102852500D01*
X86994000Y-102852500D01*
X86979297Y-102851778D01*
X86964736Y-102849618D01*
X86950457Y-102846041D01*
X86936597Y-102841082D01*
X86923290Y-102834788D01*
X86910664Y-102827220D01*
X86898841Y-102818452D01*
X86887934Y-102808566D01*
X86878048Y-102797659D01*
X86869280Y-102785836D01*
X86861712Y-102773210D01*
X86855418Y-102759903D01*
X86850459Y-102746043D01*
X86846882Y-102731764D01*
X86844722Y-102717203D01*
X86844000Y-102702500D01*
X86844000Y-102402500D01*
X86844722Y-102387797D01*
X86846882Y-102373236D01*
X86850459Y-102358957D01*
X86855418Y-102345097D01*
X86861712Y-102331790D01*
X86869280Y-102319164D01*
X86878048Y-102307341D01*
X86887934Y-102296434D01*
X86898841Y-102286548D01*
X86910664Y-102277780D01*
X86923290Y-102270212D01*
X86936597Y-102263918D01*
X86950457Y-102258959D01*
X86964736Y-102255382D01*
X86979297Y-102253222D01*
X86994000Y-102252500D01*
X88644000Y-102252500D01*
X88658703Y-102253222D01*
X88658703Y-102253222D01*
G37*
D17*
X87819000Y-102552500D03*
D13*
G36*
X88658703Y-100983222D02*
G01*
X88673264Y-100985382D01*
X88687543Y-100988959D01*
X88701403Y-100993918D01*
X88714710Y-101000212D01*
X88727336Y-101007780D01*
X88739159Y-101016548D01*
X88750066Y-101026434D01*
X88759952Y-101037341D01*
X88768720Y-101049164D01*
X88776288Y-101061790D01*
X88782582Y-101075097D01*
X88787541Y-101088957D01*
X88791118Y-101103236D01*
X88793278Y-101117797D01*
X88794000Y-101132500D01*
X88794000Y-101432500D01*
X88793278Y-101447203D01*
X88791118Y-101461764D01*
X88787541Y-101476043D01*
X88782582Y-101489903D01*
X88776288Y-101503210D01*
X88768720Y-101515836D01*
X88759952Y-101527659D01*
X88750066Y-101538566D01*
X88739159Y-101548452D01*
X88727336Y-101557220D01*
X88714710Y-101564788D01*
X88701403Y-101571082D01*
X88687543Y-101576041D01*
X88673264Y-101579618D01*
X88658703Y-101581778D01*
X88644000Y-101582500D01*
X86994000Y-101582500D01*
X86979297Y-101581778D01*
X86964736Y-101579618D01*
X86950457Y-101576041D01*
X86936597Y-101571082D01*
X86923290Y-101564788D01*
X86910664Y-101557220D01*
X86898841Y-101548452D01*
X86887934Y-101538566D01*
X86878048Y-101527659D01*
X86869280Y-101515836D01*
X86861712Y-101503210D01*
X86855418Y-101489903D01*
X86850459Y-101476043D01*
X86846882Y-101461764D01*
X86844722Y-101447203D01*
X86844000Y-101432500D01*
X86844000Y-101132500D01*
X86844722Y-101117797D01*
X86846882Y-101103236D01*
X86850459Y-101088957D01*
X86855418Y-101075097D01*
X86861712Y-101061790D01*
X86869280Y-101049164D01*
X86878048Y-101037341D01*
X86887934Y-101026434D01*
X86898841Y-101016548D01*
X86910664Y-101007780D01*
X86923290Y-101000212D01*
X86936597Y-100993918D01*
X86950457Y-100988959D01*
X86964736Y-100985382D01*
X86979297Y-100983222D01*
X86994000Y-100982500D01*
X88644000Y-100982500D01*
X88658703Y-100983222D01*
X88658703Y-100983222D01*
G37*
D17*
X87819000Y-101282500D03*
D13*
G36*
X88658703Y-99713222D02*
G01*
X88673264Y-99715382D01*
X88687543Y-99718959D01*
X88701403Y-99723918D01*
X88714710Y-99730212D01*
X88727336Y-99737780D01*
X88739159Y-99746548D01*
X88750066Y-99756434D01*
X88759952Y-99767341D01*
X88768720Y-99779164D01*
X88776288Y-99791790D01*
X88782582Y-99805097D01*
X88787541Y-99818957D01*
X88791118Y-99833236D01*
X88793278Y-99847797D01*
X88794000Y-99862500D01*
X88794000Y-100162500D01*
X88793278Y-100177203D01*
X88791118Y-100191764D01*
X88787541Y-100206043D01*
X88782582Y-100219903D01*
X88776288Y-100233210D01*
X88768720Y-100245836D01*
X88759952Y-100257659D01*
X88750066Y-100268566D01*
X88739159Y-100278452D01*
X88727336Y-100287220D01*
X88714710Y-100294788D01*
X88701403Y-100301082D01*
X88687543Y-100306041D01*
X88673264Y-100309618D01*
X88658703Y-100311778D01*
X88644000Y-100312500D01*
X86994000Y-100312500D01*
X86979297Y-100311778D01*
X86964736Y-100309618D01*
X86950457Y-100306041D01*
X86936597Y-100301082D01*
X86923290Y-100294788D01*
X86910664Y-100287220D01*
X86898841Y-100278452D01*
X86887934Y-100268566D01*
X86878048Y-100257659D01*
X86869280Y-100245836D01*
X86861712Y-100233210D01*
X86855418Y-100219903D01*
X86850459Y-100206043D01*
X86846882Y-100191764D01*
X86844722Y-100177203D01*
X86844000Y-100162500D01*
X86844000Y-99862500D01*
X86844722Y-99847797D01*
X86846882Y-99833236D01*
X86850459Y-99818957D01*
X86855418Y-99805097D01*
X86861712Y-99791790D01*
X86869280Y-99779164D01*
X86878048Y-99767341D01*
X86887934Y-99756434D01*
X86898841Y-99746548D01*
X86910664Y-99737780D01*
X86923290Y-99730212D01*
X86936597Y-99723918D01*
X86950457Y-99718959D01*
X86964736Y-99715382D01*
X86979297Y-99713222D01*
X86994000Y-99712500D01*
X88644000Y-99712500D01*
X88658703Y-99713222D01*
X88658703Y-99713222D01*
G37*
D17*
X87819000Y-100012500D03*
D13*
G36*
X102031005Y-83756204D02*
G01*
X102055273Y-83759804D01*
X102079072Y-83765765D01*
X102102171Y-83774030D01*
X102124350Y-83784520D01*
X102145393Y-83797132D01*
X102165099Y-83811747D01*
X102183277Y-83828223D01*
X102199753Y-83846401D01*
X102214368Y-83866107D01*
X102226980Y-83887150D01*
X102237470Y-83909329D01*
X102245735Y-83932428D01*
X102251696Y-83956227D01*
X102255296Y-83980495D01*
X102256500Y-84004999D01*
X102256500Y-84905001D01*
X102255296Y-84929505D01*
X102251696Y-84953773D01*
X102245735Y-84977572D01*
X102237470Y-85000671D01*
X102226980Y-85022850D01*
X102214368Y-85043893D01*
X102199753Y-85063599D01*
X102183277Y-85081777D01*
X102165099Y-85098253D01*
X102145393Y-85112868D01*
X102124350Y-85125480D01*
X102102171Y-85135970D01*
X102079072Y-85144235D01*
X102055273Y-85150196D01*
X102031005Y-85153796D01*
X102006501Y-85155000D01*
X101356499Y-85155000D01*
X101331995Y-85153796D01*
X101307727Y-85150196D01*
X101283928Y-85144235D01*
X101260829Y-85135970D01*
X101238650Y-85125480D01*
X101217607Y-85112868D01*
X101197901Y-85098253D01*
X101179723Y-85081777D01*
X101163247Y-85063599D01*
X101148632Y-85043893D01*
X101136020Y-85022850D01*
X101125530Y-85000671D01*
X101117265Y-84977572D01*
X101111304Y-84953773D01*
X101107704Y-84929505D01*
X101106500Y-84905001D01*
X101106500Y-84004999D01*
X101107704Y-83980495D01*
X101111304Y-83956227D01*
X101117265Y-83932428D01*
X101125530Y-83909329D01*
X101136020Y-83887150D01*
X101148632Y-83866107D01*
X101163247Y-83846401D01*
X101179723Y-83828223D01*
X101197901Y-83811747D01*
X101217607Y-83797132D01*
X101238650Y-83784520D01*
X101260829Y-83774030D01*
X101283928Y-83765765D01*
X101307727Y-83759804D01*
X101331995Y-83756204D01*
X101356499Y-83755000D01*
X102006501Y-83755000D01*
X102031005Y-83756204D01*
X102031005Y-83756204D01*
G37*
D14*
X101681500Y-84455000D03*
D13*
G36*
X99981005Y-83756204D02*
G01*
X100005273Y-83759804D01*
X100029072Y-83765765D01*
X100052171Y-83774030D01*
X100074350Y-83784520D01*
X100095393Y-83797132D01*
X100115099Y-83811747D01*
X100133277Y-83828223D01*
X100149753Y-83846401D01*
X100164368Y-83866107D01*
X100176980Y-83887150D01*
X100187470Y-83909329D01*
X100195735Y-83932428D01*
X100201696Y-83956227D01*
X100205296Y-83980495D01*
X100206500Y-84004999D01*
X100206500Y-84905001D01*
X100205296Y-84929505D01*
X100201696Y-84953773D01*
X100195735Y-84977572D01*
X100187470Y-85000671D01*
X100176980Y-85022850D01*
X100164368Y-85043893D01*
X100149753Y-85063599D01*
X100133277Y-85081777D01*
X100115099Y-85098253D01*
X100095393Y-85112868D01*
X100074350Y-85125480D01*
X100052171Y-85135970D01*
X100029072Y-85144235D01*
X100005273Y-85150196D01*
X99981005Y-85153796D01*
X99956501Y-85155000D01*
X99306499Y-85155000D01*
X99281995Y-85153796D01*
X99257727Y-85150196D01*
X99233928Y-85144235D01*
X99210829Y-85135970D01*
X99188650Y-85125480D01*
X99167607Y-85112868D01*
X99147901Y-85098253D01*
X99129723Y-85081777D01*
X99113247Y-85063599D01*
X99098632Y-85043893D01*
X99086020Y-85022850D01*
X99075530Y-85000671D01*
X99067265Y-84977572D01*
X99061304Y-84953773D01*
X99057704Y-84929505D01*
X99056500Y-84905001D01*
X99056500Y-84004999D01*
X99057704Y-83980495D01*
X99061304Y-83956227D01*
X99067265Y-83932428D01*
X99075530Y-83909329D01*
X99086020Y-83887150D01*
X99098632Y-83866107D01*
X99113247Y-83846401D01*
X99129723Y-83828223D01*
X99147901Y-83811747D01*
X99167607Y-83797132D01*
X99188650Y-83784520D01*
X99210829Y-83774030D01*
X99233928Y-83765765D01*
X99257727Y-83759804D01*
X99281995Y-83756204D01*
X99306499Y-83755000D01*
X99956501Y-83755000D01*
X99981005Y-83756204D01*
X99981005Y-83756204D01*
G37*
D14*
X99631500Y-84455000D03*
D15*
X83058000Y-92837000D03*
D16*
X80518000Y-92837000D03*
D15*
X99822000Y-87503000D03*
D16*
X102362000Y-87503000D03*
D15*
X128587500Y-101854000D03*
D16*
X128587500Y-99314000D03*
D15*
X111315500Y-87503000D03*
X108775500Y-87503000D03*
D16*
X106235500Y-87503000D03*
D15*
X111315500Y-84391500D03*
X108775500Y-84391500D03*
D16*
X106235500Y-84391500D03*
D18*
X94257500Y-115379500D03*
X87257500Y-115379500D03*
D19*
X93257500Y-112679500D03*
X88257500Y-112679500D03*
D15*
X107061000Y-114871500D03*
X107061000Y-112331500D03*
X107061000Y-109791500D03*
D16*
X107061000Y-107251500D03*
D15*
X103314500Y-114871500D03*
X103314500Y-112331500D03*
X103314500Y-109791500D03*
D16*
X103314500Y-107251500D03*
D15*
X135180000Y-63050000D03*
X135180000Y-65590000D03*
X132640000Y-63050000D03*
X132640000Y-65590000D03*
X130100000Y-63050000D03*
X130100000Y-65590000D03*
X127560000Y-63050000D03*
X127560000Y-65590000D03*
X125020000Y-63050000D03*
X125020000Y-65590000D03*
X122480000Y-63050000D03*
X122480000Y-65590000D03*
X119940000Y-63050000D03*
X119940000Y-65590000D03*
X117400000Y-63050000D03*
X117400000Y-65590000D03*
X114860000Y-63050000D03*
X114860000Y-65590000D03*
X112320000Y-63050000D03*
X112320000Y-65590000D03*
X109780000Y-63050000D03*
X109780000Y-65590000D03*
X107240000Y-63050000D03*
X107240000Y-65590000D03*
X104700000Y-63050000D03*
X104700000Y-65590000D03*
X102160000Y-63050000D03*
X102160000Y-65590000D03*
X99620000Y-63050000D03*
X99620000Y-65590000D03*
X97080000Y-63050000D03*
X97080000Y-65590000D03*
X94540000Y-63050000D03*
X94540000Y-65590000D03*
X92000000Y-63050000D03*
X92000000Y-65590000D03*
X89460000Y-63050000D03*
X89460000Y-65590000D03*
X86920000Y-63050000D03*
D16*
X86920000Y-65590000D03*
D20*
X82040000Y-64310000D03*
X140040000Y-64330000D03*
X82040000Y-113320000D03*
X140030000Y-113310000D03*
D21*
X140398500Y-100711000D03*
X141986000Y-101536500D03*
X140970000Y-101536500D03*
X142494000Y-103378000D03*
X140589000Y-103378000D03*
X99441000Y-94107000D03*
X136906000Y-98044000D03*
X136906000Y-100584000D03*
X136906000Y-99314000D03*
X136906000Y-101981000D03*
X131699000Y-99441000D03*
X131699000Y-101981000D03*
X131699000Y-100711000D03*
X131699000Y-103378000D03*
X132842000Y-96647000D03*
X135382000Y-96647000D03*
X134112000Y-96647000D03*
X136779000Y-96901000D03*
X142494000Y-102298500D03*
X141605000Y-102298500D03*
X92075000Y-70485000D03*
X81280000Y-72263000D03*
X81280000Y-71247000D03*
X81534000Y-70231000D03*
X82042000Y-69342000D03*
X82804000Y-68580000D03*
X83820000Y-67945000D03*
X84963000Y-67945000D03*
X86106000Y-67945000D03*
X87249000Y-67945000D03*
X88392000Y-67945000D03*
X89535000Y-67945000D03*
X90805000Y-67945000D03*
X91948000Y-67945000D03*
X92837000Y-67691000D03*
X84074000Y-72263000D03*
X84201000Y-71247000D03*
X84963000Y-70485000D03*
X86106000Y-70485000D03*
X88519000Y-70485000D03*
X89662000Y-70485000D03*
X87376000Y-70485000D03*
X90932000Y-70485000D03*
X94615000Y-69342000D03*
X95377000Y-68580000D03*
X95758000Y-67818000D03*
X95758000Y-66929000D03*
X93472000Y-67056000D03*
X100584000Y-80835500D03*
X98679000Y-75501500D03*
X112293400Y-80899000D03*
X97028000Y-70866000D03*
X98552000Y-70358000D03*
X100203000Y-70866000D03*
X101981000Y-70358000D03*
X103632000Y-70866000D03*
X105029000Y-70358000D03*
X107061000Y-70358000D03*
X109982000Y-70358000D03*
X111633000Y-70358000D03*
X112776000Y-70612000D03*
X114173000Y-70485000D03*
X115570000Y-70739000D03*
X118491000Y-70739000D03*
X119761000Y-70739000D03*
X121031000Y-70739000D03*
X122174000Y-70739000D03*
X123317000Y-71247000D03*
X124206000Y-72136000D03*
X125095000Y-73025000D03*
X125984000Y-73914000D03*
X126492000Y-74930000D03*
X126492000Y-76073000D03*
X126492000Y-77343000D03*
X126492000Y-78613000D03*
X126492000Y-80010000D03*
X127381000Y-80772000D03*
X128651000Y-81280000D03*
X129794000Y-81280000D03*
X130937000Y-81280000D03*
X133858000Y-81280000D03*
X135382000Y-81280000D03*
X136652000Y-81534000D03*
X137541000Y-82423000D03*
X138557000Y-83439000D03*
X139573000Y-84455000D03*
X140208000Y-85344000D03*
X141351000Y-85344000D03*
X142494000Y-85344000D03*
X140843000Y-84455000D03*
X141986000Y-84455000D03*
X141986000Y-85979000D03*
X140716000Y-85852000D03*
X140716000Y-89408000D03*
X140970000Y-90297000D03*
X142113000Y-89408000D03*
X142240000Y-90297000D03*
X142748000Y-91186000D03*
X140462000Y-91059000D03*
X142748000Y-94488000D03*
X141605000Y-94488000D03*
X140462000Y-94488000D03*
X140589000Y-95377000D03*
X140652500Y-96583500D03*
X140716000Y-97726500D03*
X140398500Y-98996500D03*
X140398500Y-99949000D03*
X141351000Y-100711000D03*
X142367000Y-100711000D03*
X142494000Y-104394000D03*
X141605000Y-103378000D03*
X140589000Y-102298500D03*
X131699000Y-97282000D03*
X131572000Y-98298000D03*
X137160000Y-95694500D03*
X137350500Y-94488000D03*
X137033000Y-91059000D03*
X136652000Y-90297000D03*
X137033000Y-89408000D03*
X135509000Y-89408000D03*
X135382000Y-90297000D03*
X135001000Y-91186000D03*
X137541000Y-86106000D03*
X136398000Y-84963000D03*
X135255000Y-83947000D03*
X133985000Y-83820000D03*
X131191000Y-83820000D03*
X129921000Y-83820000D03*
X128651000Y-83820000D03*
X126873000Y-84328000D03*
X126873000Y-86233000D03*
X126873000Y-85217000D03*
X125476000Y-84328000D03*
X125476000Y-85217000D03*
X125476000Y-86233000D03*
X123952000Y-84328000D03*
X123952000Y-86233000D03*
X123952000Y-85217000D03*
X122555000Y-84328000D03*
X121793000Y-85979000D03*
X121031000Y-86868000D03*
X80137000Y-72263000D03*
X85344000Y-72263000D03*
X86614000Y-72771000D03*
X87249000Y-73914000D03*
X86995000Y-75057000D03*
X86106000Y-76200000D03*
X84836000Y-76200000D03*
X84836000Y-77470000D03*
X86106000Y-77470000D03*
X87122000Y-78359000D03*
X87249000Y-79375000D03*
X86995000Y-80391000D03*
X86233000Y-81280000D03*
X84836000Y-81280000D03*
X83947000Y-81788000D03*
X83947000Y-83058000D03*
X84455000Y-84201000D03*
X82550000Y-86487000D03*
X81534000Y-85471000D03*
X81407000Y-84201000D03*
X81407000Y-82931000D03*
X81407000Y-81788000D03*
X81407000Y-80772000D03*
X80391000Y-81407000D03*
X79375000Y-81280000D03*
X80645000Y-77343000D03*
X80645000Y-76200000D03*
X79502000Y-76200000D03*
X79502000Y-77343000D03*
X84328000Y-88392000D03*
X85217000Y-89281000D03*
X86487000Y-89535000D03*
X87757000Y-89535000D03*
X89027000Y-89789000D03*
X90424000Y-90043000D03*
X89979500Y-86360000D03*
X89979500Y-84455000D03*
X89979500Y-85344000D03*
X94488000Y-84455000D03*
X94488000Y-85344000D03*
X94488000Y-86360000D03*
X93091000Y-86360000D03*
X91440000Y-86360000D03*
X93081000Y-85354000D03*
X93081000Y-84465000D03*
X91440000Y-84455000D03*
X91440000Y-85344000D03*
X89916000Y-76073000D03*
X89916000Y-77216000D03*
X89916000Y-78486000D03*
X89916000Y-79883000D03*
X89916000Y-81026000D03*
X92329000Y-78740000D03*
X92329000Y-77470000D03*
X92329000Y-76200000D03*
X93091000Y-75184000D03*
X93980000Y-74295000D03*
X94869000Y-73279000D03*
X96139000Y-73279000D03*
X97155000Y-73279000D03*
X97028000Y-74168000D03*
X97155000Y-75057000D03*
X99822000Y-75057000D03*
X100965000Y-75057000D03*
X100330000Y-73914000D03*
X100330000Y-73025000D03*
X102997000Y-75057000D03*
X102108000Y-75565000D03*
X103759000Y-73914000D03*
X103505000Y-73025000D03*
X105029000Y-73533000D03*
X106172000Y-73406000D03*
X107188000Y-73533000D03*
X109982000Y-73533000D03*
X111633000Y-73533000D03*
X112522000Y-74041000D03*
X112522000Y-75057000D03*
X113538000Y-75565000D03*
X114808000Y-75565000D03*
X115824000Y-75184000D03*
X115951000Y-74295000D03*
X115951000Y-73152000D03*
X118872000Y-75184000D03*
X119253000Y-74168000D03*
X119253000Y-73152000D03*
X120523000Y-73152000D03*
X121666000Y-73406000D03*
X122555000Y-74295000D03*
X123444000Y-75184000D03*
X123825000Y-76073000D03*
X123825000Y-77216000D03*
X123825000Y-78359000D03*
X122682000Y-77597000D03*
X121412000Y-77597000D03*
X120142000Y-77597000D03*
X118872000Y-77470000D03*
X116205000Y-77470000D03*
X114935000Y-77343000D03*
X113411000Y-77343000D03*
X111887000Y-77216000D03*
X110109000Y-77216000D03*
X107442000Y-77216000D03*
X106172000Y-77343000D03*
X104648000Y-77216000D03*
X103632000Y-77597000D03*
X102235000Y-77343000D03*
X100457000Y-77597000D03*
X98806000Y-77343000D03*
X97282000Y-77470000D03*
X95885000Y-77470000D03*
X94488000Y-77470000D03*
X93345000Y-77978000D03*
X94615000Y-80010000D03*
X95631000Y-79883000D03*
X96774000Y-79883000D03*
X97155000Y-80645000D03*
X103505000Y-81661000D03*
X100330000Y-81661000D03*
X103759000Y-80645000D03*
X103632000Y-79883000D03*
X104902000Y-80518000D03*
X106172000Y-80391000D03*
X107442000Y-80518000D03*
X109982000Y-80391000D03*
X111252000Y-80391000D03*
X115697000Y-81788000D03*
X115697000Y-80645000D03*
X115824000Y-79883000D03*
X118999000Y-82042000D03*
X119126000Y-81026000D03*
X119126000Y-80010000D03*
X120396000Y-80010000D03*
X121412000Y-80010000D03*
X122555000Y-80772000D03*
X99568000Y-93218000D03*
X100838000Y-93218000D03*
X102108000Y-93218000D03*
X103378000Y-93218000D03*
X104521000Y-93218000D03*
X105791000Y-93218000D03*
X105918000Y-94107000D03*
X108966000Y-94869000D03*
X110363000Y-94869000D03*
X111633000Y-94742000D03*
X111633000Y-93853000D03*
X112141000Y-93091000D03*
X113538000Y-93091000D03*
X114935000Y-93091000D03*
X116332000Y-93091000D03*
X117856000Y-93091000D03*
X118364000Y-93853000D03*
X118618000Y-94869000D03*
X120142000Y-94996000D03*
X121158000Y-94869000D03*
X122301000Y-94996000D03*
X123571000Y-94869000D03*
X123952000Y-93853000D03*
X123952000Y-92837000D03*
X124841000Y-92329000D03*
X124841000Y-93472000D03*
X122682000Y-96266000D03*
X121793000Y-97155000D03*
X120777000Y-98171000D03*
X116586000Y-97790000D03*
X115189000Y-97790000D03*
X120269000Y-96012000D03*
X120523000Y-96901000D03*
X114046000Y-98933000D03*
X114046000Y-100330000D03*
X115189000Y-101727000D03*
X116713000Y-101727000D03*
X99187000Y-94996000D03*
X97790000Y-94996000D03*
X96520000Y-94996000D03*
X95250000Y-94996000D03*
X93853000Y-94996000D03*
X93472000Y-93980000D03*
X94361000Y-96266000D03*
X95123000Y-97028000D03*
X95758000Y-97790000D03*
X99441000Y-97790000D03*
X100711000Y-97790000D03*
X102235000Y-99060000D03*
X102362000Y-100330000D03*
X100711000Y-101854000D03*
X99568000Y-101854000D03*
X95758000Y-101092000D03*
X94742000Y-100457000D03*
X93726000Y-99441000D03*
X92710000Y-98425000D03*
X91694000Y-97409000D03*
X131699000Y-106172000D03*
X131699000Y-107315000D03*
X131572000Y-108458000D03*
X130302000Y-107950000D03*
X128905000Y-108077000D03*
X127381000Y-108077000D03*
X126238000Y-108458000D03*
X124968000Y-108585000D03*
X123952000Y-109601000D03*
X122936000Y-110617000D03*
X122047000Y-111252000D03*
X118618000Y-110363000D03*
X117348000Y-110363000D03*
X115697000Y-111760000D03*
X115697000Y-113030000D03*
X117348000Y-114427000D03*
X118491000Y-114427000D03*
X122047000Y-113665000D03*
X123444000Y-113665000D03*
X124587000Y-112649000D03*
X125476000Y-111633000D03*
X126365000Y-110871000D03*
X127381000Y-111506000D03*
X128651000Y-111506000D03*
X130048000Y-111506000D03*
X131191000Y-111125000D03*
X132080000Y-111252000D03*
X133096000Y-111506000D03*
X134493000Y-111379000D03*
X135636000Y-111125000D03*
X136779000Y-110998000D03*
X137922000Y-109982000D03*
X138938000Y-108966000D03*
X139954000Y-107950000D03*
X140208000Y-106680000D03*
X140335000Y-105410000D03*
X140589000Y-104394000D03*
X141605000Y-104394000D03*
X137541000Y-105410000D03*
X137414000Y-106680000D03*
X136525000Y-107569000D03*
X135636000Y-108331000D03*
X135001000Y-107442000D03*
X134493000Y-103505000D03*
X122555000Y-85217000D03*
X122809000Y-86233000D03*
X120269000Y-101092000D03*
X121412000Y-100965000D03*
X122428000Y-99949000D03*
X123571000Y-98806000D03*
X124714000Y-97663000D03*
X125857000Y-96520000D03*
X127000000Y-95250000D03*
X127254000Y-93853000D03*
X127254000Y-92456000D03*
X127254000Y-91059000D03*
X127254000Y-89662000D03*
X134493000Y-100203000D03*
X86487000Y-86487000D03*
X87630000Y-86741000D03*
X88773000Y-86614000D03*
X136906000Y-104394000D03*
X136906000Y-103251000D03*
X141351000Y-99949000D03*
X142367000Y-99949000D03*
X142494000Y-105410000D03*
X141414500Y-105410000D03*
X131368800Y-69215000D03*
X132765800Y-70612000D03*
D17*
X135509000Y-70612000D03*
D21*
X95549000Y-82759000D03*
X95504000Y-81343500D03*
X114363500Y-89154000D03*
X92138500Y-103949500D03*
X90995500Y-99758500D03*
X80581500Y-95377000D03*
X86614000Y-93345000D03*
X94678500Y-89916000D03*
X116052600Y-83159600D03*
X113538000Y-86487000D03*
X97282000Y-68643500D03*
X90233500Y-103822500D03*
X90233500Y-105092500D03*
X90170000Y-106362500D03*
X90233500Y-107632500D03*
X103568500Y-84455000D03*
D22*
X92000000Y-63050000D02*
X90728800Y-64321200D01*
X90728800Y-64321200D02*
X90728800Y-66598800D01*
X90728800Y-66598800D02*
X90728800Y-67081400D01*
X90728800Y-67081400D02*
X90500200Y-67310000D01*
X86920000Y-61847919D02*
X86920000Y-63050000D01*
X86944319Y-61823600D02*
X86920000Y-61847919D01*
X132765800Y-70612000D02*
X131368800Y-69215000D01*
X131368800Y-69215000D02*
X131368800Y-61823600D01*
X131368800Y-61823600D02*
X131013200Y-61468000D01*
X131013200Y-61468000D02*
X87325200Y-61468000D01*
X87325200Y-61468000D02*
X86969600Y-61823600D01*
X86969600Y-61823600D02*
X86944319Y-61823600D01*
D23*
X132651500Y-75501500D02*
X132651500Y-89916000D01*
X128587500Y-93980000D02*
X128587500Y-99314000D01*
X132651500Y-89916000D02*
X128587500Y-93980000D01*
X128587500Y-99314000D02*
X126809500Y-99314000D01*
X126809500Y-99314000D02*
X124015500Y-102108000D01*
X124015500Y-102108000D02*
X124015500Y-104521000D01*
X124015500Y-104521000D02*
X122618500Y-105918000D01*
X122618500Y-105918000D02*
X111315500Y-105918000D01*
X109982000Y-107251500D02*
X107061000Y-107251500D01*
X111315500Y-105918000D02*
X109982000Y-107251500D01*
X106235500Y-87503000D02*
X106235500Y-90792300D01*
X107061000Y-91617800D02*
X107061000Y-107251500D01*
X106235500Y-90805000D02*
X107061000Y-91630500D01*
D24*
X132651500Y-75501500D02*
X134366000Y-73787000D01*
X134366000Y-73787000D02*
X139446000Y-73787000D01*
X140779500Y-72453500D02*
X140779500Y-70612000D01*
X139446000Y-73787000D02*
X140779500Y-72453500D01*
D23*
X91313000Y-101282500D02*
X93535500Y-103505000D01*
X93535500Y-103505000D02*
X93535500Y-105664000D01*
X95123000Y-107251500D02*
X103314500Y-107251500D01*
X93535500Y-105664000D02*
X95123000Y-107251500D01*
D22*
X99620000Y-65590000D02*
X99620000Y-68378000D01*
X99620000Y-68378000D02*
X100584000Y-69342000D01*
X108775500Y-84391500D02*
X108775500Y-69850000D01*
X108267500Y-69342000D02*
X100584000Y-69342000D01*
X108775500Y-69850000D02*
X108267500Y-69342000D01*
D23*
X90106500Y-101282500D02*
X91313000Y-101282500D01*
X89725500Y-101282500D02*
X90106500Y-101282500D01*
X87819000Y-101282500D02*
X89725500Y-101282500D01*
D22*
X95549000Y-82759000D02*
X95549000Y-91014000D01*
X94297500Y-92265500D02*
X91313000Y-92265500D01*
X89725500Y-93853000D02*
X89725500Y-101282500D01*
X91313000Y-92265500D02*
X89725500Y-93853000D01*
X95549000Y-91014000D02*
X94297500Y-92265500D01*
D23*
X90995500Y-102552500D02*
X87819000Y-102552500D01*
X92138500Y-103695500D02*
X90995500Y-102552500D01*
X103314500Y-109791500D02*
X94170500Y-109791500D01*
X94170500Y-109791500D02*
X92138500Y-107759500D01*
D22*
X102160000Y-67743000D02*
X102160000Y-65590000D01*
X102806500Y-68389500D02*
X102160000Y-67743000D01*
X116395500Y-68389500D02*
X102806500Y-68389500D01*
X108775500Y-87503000D02*
X108775500Y-88705081D01*
X117348000Y-69342000D02*
X116395500Y-68389500D01*
X95504000Y-81343500D02*
X96520000Y-82359500D01*
X108775500Y-88705081D02*
X108775500Y-89154000D01*
X117348000Y-88328500D02*
X117348000Y-86804500D01*
X116522500Y-89154000D02*
X117348000Y-88328500D01*
X117348000Y-86995000D02*
X117348000Y-86804500D01*
X117348000Y-86804500D02*
X117348000Y-69342000D01*
X108775500Y-89154000D02*
X114363500Y-89154000D01*
X114363500Y-89154000D02*
X116522500Y-89154000D01*
D23*
X92138500Y-107759500D02*
X92138500Y-103949500D01*
X92138500Y-103949500D02*
X92138500Y-103695500D01*
D22*
X96520000Y-85623400D02*
X96520000Y-84836000D01*
X96520000Y-84836000D02*
X96520000Y-82359500D01*
X90424000Y-99187000D02*
X90995500Y-99758500D01*
X90424000Y-94170500D02*
X90424000Y-99187000D01*
X91630500Y-92964000D02*
X90424000Y-94170500D01*
X94742000Y-92964000D02*
X91630500Y-92964000D01*
X96520000Y-91186000D02*
X94742000Y-92964000D01*
X96570800Y-85979000D02*
X96520000Y-86029800D01*
X108453581Y-85979000D02*
X96570800Y-85979000D01*
X108775500Y-86300919D02*
X108453581Y-85979000D01*
X108775500Y-87503000D02*
X108775500Y-86300919D01*
X96520000Y-84836000D02*
X96520000Y-86029800D01*
X96520000Y-86029800D02*
X96520000Y-91186000D01*
D23*
X80246000Y-100012500D02*
X79819500Y-100439000D01*
X82869000Y-100012500D02*
X80246000Y-100012500D01*
X79819500Y-100439000D02*
X79819500Y-96139000D01*
X79819500Y-96139000D02*
X80581500Y-95377000D01*
X86614000Y-93345000D02*
X89217500Y-93345000D01*
X89217500Y-93345000D02*
X90995500Y-91567000D01*
X90995500Y-91567000D02*
X93789500Y-91567000D01*
X93789500Y-91567000D02*
X94678500Y-90678000D01*
X94678500Y-90678000D02*
X94678500Y-89916000D01*
X115519200Y-86207600D02*
X116052600Y-85674200D01*
X116052600Y-85674200D02*
X116052600Y-83159600D01*
X113817400Y-86207600D02*
X115519200Y-86207600D01*
X113538000Y-86487000D02*
X113817400Y-86207600D01*
X83058000Y-92837000D02*
X83058000Y-94805500D01*
X83058000Y-94805500D02*
X84074000Y-95821500D01*
X84074000Y-95821500D02*
X87249000Y-95821500D01*
X87819000Y-96391500D02*
X87819000Y-100012500D01*
X87249000Y-95821500D02*
X87819000Y-96391500D01*
X95567500Y-70358000D02*
X97282000Y-68643500D01*
X94107000Y-70358000D02*
X95567500Y-70358000D01*
X88074500Y-76390500D02*
X94107000Y-70358000D01*
X88074500Y-83058000D02*
X88074500Y-76390500D01*
X83058000Y-92837000D02*
X83058000Y-88074500D01*
X83058000Y-88074500D02*
X88074500Y-83058000D01*
X90233500Y-103822500D02*
X87819000Y-103822500D01*
X87819000Y-105092500D02*
X90233500Y-105092500D01*
X87819000Y-106362500D02*
X90170000Y-106362500D01*
X90233500Y-107632500D02*
X87819000Y-107632500D01*
X101681500Y-84455000D02*
X103568500Y-84455000D01*
D25*
G36*
X86489277Y-61392877D02*
G01*
X86475920Y-61403839D01*
X86397817Y-61499009D01*
X86339781Y-61607586D01*
X86304043Y-61725399D01*
X86295000Y-61817216D01*
X86295000Y-61817225D01*
X86291977Y-61847919D01*
X86292634Y-61854586D01*
X86166351Y-61922085D01*
X85960787Y-62090787D01*
X85792085Y-62296351D01*
X85666728Y-62530878D01*
X85589533Y-62785354D01*
X85563468Y-63050000D01*
X85589533Y-63314646D01*
X85666728Y-63569122D01*
X85792085Y-63803649D01*
X85960787Y-64009213D01*
X86166351Y-64177915D01*
X86277978Y-64237581D01*
X86070000Y-64237581D01*
X85971983Y-64247235D01*
X85877733Y-64275825D01*
X85790871Y-64322254D01*
X85714736Y-64384736D01*
X85652254Y-64460871D01*
X85605825Y-64547733D01*
X85577235Y-64641983D01*
X85567581Y-64740000D01*
X85567581Y-66440000D01*
X85577235Y-66538017D01*
X85605825Y-66632267D01*
X85652254Y-66719129D01*
X85714736Y-66795264D01*
X85790871Y-66857746D01*
X85877733Y-66904175D01*
X85971983Y-66932765D01*
X86070000Y-66942419D01*
X87770000Y-66942419D01*
X87868017Y-66932765D01*
X87962267Y-66904175D01*
X88049129Y-66857746D01*
X88125264Y-66795264D01*
X88187746Y-66719129D01*
X88234175Y-66632267D01*
X88262765Y-66538017D01*
X88272419Y-66440000D01*
X88272419Y-66232022D01*
X88332085Y-66343649D01*
X88500787Y-66549213D01*
X88706351Y-66717915D01*
X88940878Y-66843272D01*
X89195354Y-66920467D01*
X89393679Y-66940000D01*
X89526321Y-66940000D01*
X89724646Y-66920467D01*
X89979122Y-66843272D01*
X90213649Y-66717915D01*
X90419213Y-66549213D01*
X90587915Y-66343649D01*
X90713272Y-66109122D01*
X90730000Y-66053978D01*
X90746728Y-66109122D01*
X90872085Y-66343649D01*
X91040787Y-66549213D01*
X91246351Y-66717915D01*
X91480878Y-66843272D01*
X91735354Y-66920467D01*
X91933679Y-66940000D01*
X92066321Y-66940000D01*
X92264646Y-66920467D01*
X92519122Y-66843272D01*
X92753649Y-66717915D01*
X92959213Y-66549213D01*
X93127915Y-66343649D01*
X93253272Y-66109122D01*
X93270000Y-66053978D01*
X93286728Y-66109122D01*
X93412085Y-66343649D01*
X93580787Y-66549213D01*
X93786351Y-66717915D01*
X94020878Y-66843272D01*
X94275354Y-66920467D01*
X94473679Y-66940000D01*
X94606321Y-66940000D01*
X94804646Y-66920467D01*
X95059122Y-66843272D01*
X95293649Y-66717915D01*
X95499213Y-66549213D01*
X95667915Y-66343649D01*
X95793272Y-66109122D01*
X95870467Y-65854646D01*
X95896532Y-65590000D01*
X95870467Y-65325354D01*
X95793272Y-65070878D01*
X95667915Y-64836351D01*
X95499213Y-64630787D01*
X95293649Y-64462085D01*
X95059122Y-64336728D01*
X95003978Y-64320000D01*
X95059122Y-64303272D01*
X95293649Y-64177915D01*
X95499213Y-64009213D01*
X95667915Y-63803649D01*
X95793272Y-63569122D01*
X95810000Y-63513978D01*
X95826728Y-63569122D01*
X95952085Y-63803649D01*
X96120787Y-64009213D01*
X96326351Y-64177915D01*
X96560878Y-64303272D01*
X96815354Y-64380467D01*
X97013679Y-64400000D01*
X97146321Y-64400000D01*
X97344646Y-64380467D01*
X97599122Y-64303272D01*
X97833649Y-64177915D01*
X98039213Y-64009213D01*
X98207915Y-63803649D01*
X98333272Y-63569122D01*
X98350000Y-63513978D01*
X98366728Y-63569122D01*
X98492085Y-63803649D01*
X98660787Y-64009213D01*
X98866351Y-64177915D01*
X99100878Y-64303272D01*
X99156022Y-64320000D01*
X99100878Y-64336728D01*
X98866351Y-64462085D01*
X98660787Y-64630787D01*
X98492085Y-64836351D01*
X98366728Y-65070878D01*
X98289533Y-65325354D01*
X98263468Y-65590000D01*
X98289533Y-65854646D01*
X98366728Y-66109122D01*
X98492085Y-66343649D01*
X98660787Y-66549213D01*
X98866351Y-66717915D01*
X98995000Y-66786679D01*
X98995001Y-68347296D01*
X98991977Y-68378000D01*
X98995001Y-68408704D01*
X99004044Y-68500521D01*
X99039782Y-68618334D01*
X99097818Y-68726911D01*
X99175921Y-68822080D01*
X99199772Y-68841654D01*
X100120346Y-69762229D01*
X100139920Y-69786080D01*
X100235089Y-69864183D01*
X100343666Y-69922219D01*
X100461479Y-69957957D01*
X100553296Y-69967000D01*
X100553298Y-69967000D01*
X100584000Y-69970024D01*
X100614701Y-69967000D01*
X108008617Y-69967000D01*
X108150501Y-70108884D01*
X108150500Y-83194821D01*
X108021851Y-83263585D01*
X107816287Y-83432287D01*
X107647585Y-83637851D01*
X107587919Y-83749478D01*
X107587919Y-83541500D01*
X107578265Y-83443483D01*
X107549675Y-83349233D01*
X107503246Y-83262371D01*
X107440764Y-83186236D01*
X107364629Y-83123754D01*
X107277767Y-83077325D01*
X107183517Y-83048735D01*
X107085500Y-83039081D01*
X105385500Y-83039081D01*
X105287483Y-83048735D01*
X105193233Y-83077325D01*
X105106371Y-83123754D01*
X105030236Y-83186236D01*
X104967754Y-83262371D01*
X104921325Y-83349233D01*
X104892735Y-83443483D01*
X104883081Y-83541500D01*
X104883081Y-85241500D01*
X104892735Y-85339517D01*
X104897128Y-85354000D01*
X102606691Y-85354000D01*
X102632114Y-85323022D01*
X102701645Y-85192939D01*
X102713153Y-85155000D01*
X103298605Y-85155000D01*
X103349733Y-85176178D01*
X103494631Y-85205000D01*
X103642369Y-85205000D01*
X103787267Y-85176178D01*
X103923758Y-85119641D01*
X104046597Y-85037563D01*
X104151063Y-84933097D01*
X104233141Y-84810258D01*
X104289678Y-84673767D01*
X104318500Y-84528869D01*
X104318500Y-84381131D01*
X104289678Y-84236233D01*
X104233141Y-84099742D01*
X104151063Y-83976903D01*
X104046597Y-83872437D01*
X103923758Y-83790359D01*
X103787267Y-83733822D01*
X103642369Y-83705000D01*
X103494631Y-83705000D01*
X103349733Y-83733822D01*
X103298605Y-83755000D01*
X102713153Y-83755000D01*
X102701645Y-83717061D01*
X102632114Y-83586978D01*
X102538541Y-83472959D01*
X102424522Y-83379386D01*
X102294439Y-83309855D01*
X102153290Y-83267039D01*
X102006501Y-83252581D01*
X101356499Y-83252581D01*
X101209710Y-83267039D01*
X101068561Y-83309855D01*
X100938478Y-83379386D01*
X100824459Y-83472959D01*
X100730886Y-83586978D01*
X100661355Y-83717061D01*
X100618539Y-83858210D01*
X100604081Y-84004999D01*
X100604081Y-84905001D01*
X100618539Y-85051790D01*
X100661355Y-85192939D01*
X100730886Y-85323022D01*
X100756309Y-85354000D01*
X97145000Y-85354000D01*
X97145000Y-82390194D01*
X97148023Y-82359500D01*
X97145000Y-82328806D01*
X97145000Y-82328796D01*
X97135957Y-82236979D01*
X97100219Y-82119166D01*
X97042183Y-82010589D01*
X96964080Y-81915420D01*
X96940229Y-81895846D01*
X96239099Y-81194716D01*
X96225178Y-81124733D01*
X96168641Y-80988242D01*
X96086563Y-80865403D01*
X95982097Y-80760937D01*
X95859258Y-80678859D01*
X95722767Y-80622322D01*
X95577869Y-80593500D01*
X95430131Y-80593500D01*
X95285233Y-80622322D01*
X95148742Y-80678859D01*
X95025903Y-80760937D01*
X94921437Y-80865403D01*
X94839359Y-80988242D01*
X94782822Y-81124733D01*
X94754000Y-81269631D01*
X94754000Y-81417369D01*
X94782822Y-81562267D01*
X94839359Y-81698758D01*
X94921437Y-81821597D01*
X95025903Y-81926063D01*
X95148742Y-82008141D01*
X95275315Y-82060570D01*
X95193742Y-82094359D01*
X95070903Y-82176437D01*
X94966437Y-82280903D01*
X94884359Y-82403742D01*
X94827822Y-82540233D01*
X94799000Y-82685131D01*
X94799000Y-82832869D01*
X94827822Y-82977767D01*
X94884359Y-83114258D01*
X94924000Y-83173585D01*
X94924001Y-89205896D01*
X94897267Y-89194822D01*
X94752369Y-89166000D01*
X94604631Y-89166000D01*
X94459733Y-89194822D01*
X94323242Y-89251359D01*
X94200403Y-89333437D01*
X94095937Y-89437903D01*
X94013859Y-89560742D01*
X93957322Y-89697233D01*
X93928500Y-89842131D01*
X93928500Y-89989869D01*
X93957322Y-90134767D01*
X93978500Y-90185895D01*
X93978500Y-90388050D01*
X93499551Y-90867000D01*
X91029887Y-90867000D01*
X90995500Y-90863613D01*
X90961113Y-90867000D01*
X90961110Y-90867000D01*
X90858276Y-90877128D01*
X90735364Y-90914413D01*
X90726325Y-90917155D01*
X90604719Y-90982155D01*
X90528503Y-91044704D01*
X90498130Y-91069630D01*
X90476208Y-91096342D01*
X88927551Y-92645000D01*
X86883895Y-92645000D01*
X86832767Y-92623822D01*
X86687869Y-92595000D01*
X86540131Y-92595000D01*
X86395233Y-92623822D01*
X86258742Y-92680359D01*
X86135903Y-92762437D01*
X86031437Y-92866903D01*
X85949359Y-92989742D01*
X85892822Y-93126233D01*
X85864000Y-93271131D01*
X85864000Y-93418869D01*
X85892822Y-93563767D01*
X85949359Y-93700258D01*
X86031437Y-93823097D01*
X86135903Y-93927563D01*
X86258742Y-94009641D01*
X86395233Y-94066178D01*
X86540131Y-94095000D01*
X86687869Y-94095000D01*
X86832767Y-94066178D01*
X86883895Y-94045000D01*
X89100500Y-94045000D01*
X89100501Y-99397207D01*
X89006465Y-99320033D01*
X88893670Y-99259743D01*
X88771281Y-99222617D01*
X88644000Y-99210081D01*
X88519000Y-99210081D01*
X88519000Y-96425887D01*
X88522387Y-96391500D01*
X88519000Y-96357110D01*
X88508872Y-96254276D01*
X88468845Y-96122325D01*
X88403845Y-96000719D01*
X88370069Y-95959563D01*
X88338292Y-95920842D01*
X88338287Y-95920837D01*
X88316369Y-95894130D01*
X88289663Y-95872213D01*
X87768296Y-95350847D01*
X87746370Y-95324130D01*
X87639781Y-95236655D01*
X87518175Y-95171655D01*
X87386224Y-95131628D01*
X87283390Y-95121500D01*
X87283387Y-95121500D01*
X87249000Y-95118113D01*
X87214613Y-95121500D01*
X84363950Y-95121500D01*
X83758000Y-94515551D01*
X83758000Y-93993591D01*
X83811649Y-93964915D01*
X84017213Y-93796213D01*
X84185915Y-93590649D01*
X84311272Y-93356122D01*
X84388467Y-93101646D01*
X84414532Y-92837000D01*
X84388467Y-92572354D01*
X84311272Y-92317878D01*
X84185915Y-92083351D01*
X84017213Y-91877787D01*
X83811649Y-91709085D01*
X83758000Y-91680409D01*
X83758000Y-88364449D01*
X88545158Y-83577291D01*
X88571869Y-83555370D01*
X88659345Y-83448781D01*
X88724345Y-83327175D01*
X88764372Y-83195224D01*
X88774500Y-83092390D01*
X88774500Y-83092388D01*
X88777887Y-83058001D01*
X88774500Y-83023614D01*
X88774500Y-76680449D01*
X94396949Y-71058000D01*
X95533113Y-71058000D01*
X95567500Y-71061387D01*
X95601887Y-71058000D01*
X95601890Y-71058000D01*
X95704724Y-71047872D01*
X95836675Y-71007845D01*
X95958281Y-70942845D01*
X96064870Y-70855370D01*
X96086796Y-70828653D01*
X97586131Y-69329319D01*
X97637258Y-69308141D01*
X97760097Y-69226063D01*
X97864563Y-69121597D01*
X97946641Y-68998758D01*
X98003178Y-68862267D01*
X98032000Y-68717369D01*
X98032000Y-68569631D01*
X98003178Y-68424733D01*
X97946641Y-68288242D01*
X97864563Y-68165403D01*
X97760097Y-68060937D01*
X97637258Y-67978859D01*
X97500767Y-67922322D01*
X97355869Y-67893500D01*
X97208131Y-67893500D01*
X97063233Y-67922322D01*
X96926742Y-67978859D01*
X96803903Y-68060937D01*
X96699437Y-68165403D01*
X96617359Y-68288242D01*
X96596181Y-68339369D01*
X95277551Y-69658000D01*
X94141386Y-69658000D01*
X94106999Y-69654613D01*
X94072612Y-69658000D01*
X94072610Y-69658000D01*
X93969776Y-69668128D01*
X93837825Y-69708155D01*
X93716219Y-69773155D01*
X93609630Y-69860630D01*
X93587704Y-69887347D01*
X87603842Y-75871209D01*
X87577131Y-75893130D01*
X87555210Y-75919841D01*
X87555208Y-75919843D01*
X87489655Y-75999719D01*
X87424655Y-76121326D01*
X87384629Y-76253277D01*
X87371113Y-76390500D01*
X87374501Y-76424897D01*
X87374500Y-82768051D01*
X82587342Y-87555209D01*
X82560631Y-87577130D01*
X82538710Y-87603841D01*
X82538708Y-87603843D01*
X82473155Y-87683719D01*
X82408155Y-87805326D01*
X82368129Y-87937277D01*
X82354613Y-88074500D01*
X82358001Y-88108897D01*
X82358000Y-91680409D01*
X82304351Y-91709085D01*
X82098787Y-91877787D01*
X81930085Y-92083351D01*
X81804728Y-92317878D01*
X81727533Y-92572354D01*
X81701468Y-92837000D01*
X81727533Y-93101646D01*
X81804728Y-93356122D01*
X81930085Y-93590649D01*
X82098787Y-93796213D01*
X82304351Y-93964915D01*
X82358001Y-93993591D01*
X82358001Y-94771103D01*
X82354613Y-94805500D01*
X82368129Y-94942723D01*
X82408155Y-95074674D01*
X82473155Y-95196281D01*
X82508851Y-95239776D01*
X82560631Y-95302870D01*
X82587342Y-95324791D01*
X83554707Y-96292157D01*
X83576630Y-96318870D01*
X83603341Y-96340791D01*
X83603342Y-96340792D01*
X83683218Y-96406345D01*
X83804825Y-96471345D01*
X83936776Y-96511372D01*
X84039610Y-96521500D01*
X84039613Y-96521500D01*
X84074000Y-96524887D01*
X84108387Y-96521500D01*
X86959051Y-96521500D01*
X87119000Y-96681450D01*
X87119001Y-99210081D01*
X86994000Y-99210081D01*
X86866719Y-99222617D01*
X86744330Y-99259743D01*
X86631535Y-99320033D01*
X86532670Y-99401170D01*
X86451533Y-99500035D01*
X86391243Y-99612830D01*
X86354117Y-99735219D01*
X86341581Y-99862500D01*
X86341581Y-100162500D01*
X86354117Y-100289781D01*
X86391243Y-100412170D01*
X86451533Y-100524965D01*
X86532670Y-100623830D01*
X86561512Y-100647500D01*
X86532670Y-100671170D01*
X86451533Y-100770035D01*
X86391243Y-100882830D01*
X86354117Y-101005219D01*
X86341581Y-101132500D01*
X86341581Y-101432500D01*
X86354117Y-101559781D01*
X86391243Y-101682170D01*
X86451533Y-101794965D01*
X86532670Y-101893830D01*
X86561512Y-101917500D01*
X86532670Y-101941170D01*
X86451533Y-102040035D01*
X86391243Y-102152830D01*
X86354117Y-102275219D01*
X86341581Y-102402500D01*
X86341581Y-102702500D01*
X86354117Y-102829781D01*
X86391243Y-102952170D01*
X86451533Y-103064965D01*
X86532670Y-103163830D01*
X86561512Y-103187500D01*
X86532670Y-103211170D01*
X86451533Y-103310035D01*
X86391243Y-103422830D01*
X86354117Y-103545219D01*
X86341581Y-103672500D01*
X86341581Y-103972500D01*
X86354117Y-104099781D01*
X86391243Y-104222170D01*
X86451533Y-104334965D01*
X86532670Y-104433830D01*
X86561512Y-104457500D01*
X86532670Y-104481170D01*
X86451533Y-104580035D01*
X86391243Y-104692830D01*
X86354117Y-104815219D01*
X86341581Y-104942500D01*
X86341581Y-105242500D01*
X86354117Y-105369781D01*
X86391243Y-105492170D01*
X86451533Y-105604965D01*
X86532670Y-105703830D01*
X86561512Y-105727500D01*
X86532670Y-105751170D01*
X86451533Y-105850035D01*
X86391243Y-105962830D01*
X86354117Y-106085219D01*
X86341581Y-106212500D01*
X86341581Y-106512500D01*
X86354117Y-106639781D01*
X86391243Y-106762170D01*
X86451533Y-106874965D01*
X86532670Y-106973830D01*
X86561512Y-106997500D01*
X86532670Y-107021170D01*
X86451533Y-107120035D01*
X86391243Y-107232830D01*
X86354117Y-107355219D01*
X86341581Y-107482500D01*
X86341581Y-107782500D01*
X86354117Y-107909781D01*
X86391243Y-108032170D01*
X86451533Y-108144965D01*
X86532670Y-108243830D01*
X86631535Y-108324967D01*
X86744330Y-108385257D01*
X86866719Y-108422383D01*
X86994000Y-108434919D01*
X88644000Y-108434919D01*
X88771281Y-108422383D01*
X88893670Y-108385257D01*
X88992372Y-108332500D01*
X89963605Y-108332500D01*
X90014733Y-108353678D01*
X90159631Y-108382500D01*
X90307369Y-108382500D01*
X90452267Y-108353678D01*
X90588758Y-108297141D01*
X90711597Y-108215063D01*
X90816063Y-108110597D01*
X90898141Y-107987758D01*
X90954678Y-107851267D01*
X90983500Y-107706369D01*
X90983500Y-107558631D01*
X90954678Y-107413733D01*
X90898141Y-107277242D01*
X90816063Y-107154403D01*
X90711597Y-107049937D01*
X90601369Y-106976285D01*
X90648097Y-106945063D01*
X90752563Y-106840597D01*
X90834641Y-106717758D01*
X90891178Y-106581267D01*
X90920000Y-106436369D01*
X90920000Y-106288631D01*
X90891178Y-106143733D01*
X90834641Y-106007242D01*
X90752563Y-105884403D01*
X90648097Y-105779937D01*
X90601369Y-105748715D01*
X90711597Y-105675063D01*
X90816063Y-105570597D01*
X90898141Y-105447758D01*
X90954678Y-105311267D01*
X90983500Y-105166369D01*
X90983500Y-105018631D01*
X90954678Y-104873733D01*
X90898141Y-104737242D01*
X90816063Y-104614403D01*
X90711597Y-104509937D01*
X90633119Y-104457500D01*
X90711597Y-104405063D01*
X90816063Y-104300597D01*
X90898141Y-104177758D01*
X90954678Y-104041267D01*
X90983500Y-103896369D01*
X90983500Y-103748631D01*
X90954678Y-103603733D01*
X90898141Y-103467242D01*
X90853535Y-103400485D01*
X91388500Y-103935450D01*
X91388500Y-104023369D01*
X91417322Y-104168267D01*
X91438501Y-104219397D01*
X91438500Y-107725113D01*
X91435113Y-107759500D01*
X91438500Y-107793887D01*
X91438500Y-107793889D01*
X91448628Y-107896723D01*
X91487019Y-108023281D01*
X91488655Y-108028674D01*
X91553655Y-108150281D01*
X91619208Y-108230157D01*
X91641130Y-108256869D01*
X91667843Y-108278792D01*
X93651209Y-110262158D01*
X93673130Y-110288870D01*
X93699841Y-110310791D01*
X93699842Y-110310792D01*
X93779718Y-110376345D01*
X93901325Y-110441345D01*
X94033276Y-110481372D01*
X94136110Y-110491500D01*
X94136113Y-110491500D01*
X94170500Y-110494887D01*
X94204887Y-110491500D01*
X102157909Y-110491500D01*
X102186585Y-110545149D01*
X102355287Y-110750713D01*
X102560851Y-110919415D01*
X102795378Y-111044772D01*
X102850522Y-111061500D01*
X102795378Y-111078228D01*
X102560851Y-111203585D01*
X102355287Y-111372287D01*
X102186585Y-111577851D01*
X102061228Y-111812378D01*
X101984033Y-112066854D01*
X101957968Y-112331500D01*
X101984033Y-112596146D01*
X102061228Y-112850622D01*
X102186585Y-113085149D01*
X102355287Y-113290713D01*
X102560851Y-113459415D01*
X102795378Y-113584772D01*
X103049854Y-113661967D01*
X103248179Y-113681500D01*
X103380821Y-113681500D01*
X103579146Y-113661967D01*
X103833622Y-113584772D01*
X104068149Y-113459415D01*
X104273713Y-113290713D01*
X104442415Y-113085149D01*
X104567772Y-112850622D01*
X104644967Y-112596146D01*
X104671032Y-112331500D01*
X104668748Y-112308301D01*
X116458000Y-112308301D01*
X116458000Y-112608699D01*
X116516605Y-112903326D01*
X116631562Y-113180858D01*
X116798455Y-113430631D01*
X117010869Y-113643045D01*
X117260642Y-113809938D01*
X117538174Y-113924895D01*
X117832801Y-113983500D01*
X118133199Y-113983500D01*
X118427826Y-113924895D01*
X118705358Y-113809938D01*
X118955131Y-113643045D01*
X119167545Y-113430631D01*
X119334438Y-113180858D01*
X119449395Y-112903326D01*
X119508000Y-112608699D01*
X119508000Y-112308301D01*
X119449395Y-112013674D01*
X119334438Y-111736142D01*
X119167545Y-111486369D01*
X118955131Y-111273955D01*
X118705358Y-111107062D01*
X118427826Y-110992105D01*
X118133199Y-110933500D01*
X117832801Y-110933500D01*
X117538174Y-110992105D01*
X117260642Y-111107062D01*
X117010869Y-111273955D01*
X116798455Y-111486369D01*
X116631562Y-111736142D01*
X116516605Y-112013674D01*
X116458000Y-112308301D01*
X104668748Y-112308301D01*
X104644967Y-112066854D01*
X104567772Y-111812378D01*
X104442415Y-111577851D01*
X104273713Y-111372287D01*
X104068149Y-111203585D01*
X103833622Y-111078228D01*
X103778478Y-111061500D01*
X103833622Y-111044772D01*
X104068149Y-110919415D01*
X104273713Y-110750713D01*
X104442415Y-110545149D01*
X104567772Y-110310622D01*
X104644967Y-110056146D01*
X104671032Y-109791500D01*
X104644967Y-109526854D01*
X104567772Y-109272378D01*
X104442415Y-109037851D01*
X104273713Y-108832287D01*
X104068149Y-108663585D01*
X103956522Y-108603919D01*
X104164500Y-108603919D01*
X104262517Y-108594265D01*
X104356767Y-108565675D01*
X104443629Y-108519246D01*
X104519764Y-108456764D01*
X104582246Y-108380629D01*
X104628675Y-108293767D01*
X104657265Y-108199517D01*
X104666919Y-108101500D01*
X104666919Y-106401500D01*
X104657265Y-106303483D01*
X104628675Y-106209233D01*
X104582246Y-106122371D01*
X104519764Y-106046236D01*
X104443629Y-105983754D01*
X104356767Y-105937325D01*
X104262517Y-105908735D01*
X104164500Y-105899081D01*
X102464500Y-105899081D01*
X102366483Y-105908735D01*
X102272233Y-105937325D01*
X102185371Y-105983754D01*
X102109236Y-106046236D01*
X102046754Y-106122371D01*
X102000325Y-106209233D01*
X101971735Y-106303483D01*
X101962081Y-106401500D01*
X101962081Y-106551500D01*
X95412950Y-106551500D01*
X94235500Y-105374051D01*
X94235500Y-103539390D01*
X94238887Y-103505000D01*
X94225372Y-103367776D01*
X94185345Y-103235825D01*
X94120345Y-103114219D01*
X94054792Y-103034342D01*
X94054787Y-103034337D01*
X94032869Y-103007630D01*
X94006163Y-102985713D01*
X91832296Y-100811847D01*
X91810370Y-100785130D01*
X91703781Y-100697655D01*
X91582175Y-100632655D01*
X91450224Y-100592628D01*
X91347390Y-100582500D01*
X91347387Y-100582500D01*
X91313000Y-100579113D01*
X91278613Y-100582500D01*
X90350500Y-100582500D01*
X90350500Y-100143153D01*
X90412937Y-100236597D01*
X90517403Y-100341063D01*
X90640242Y-100423141D01*
X90776733Y-100479678D01*
X90921631Y-100508500D01*
X91069369Y-100508500D01*
X91214267Y-100479678D01*
X91350758Y-100423141D01*
X91473597Y-100341063D01*
X91578063Y-100236597D01*
X91660141Y-100113758D01*
X91716678Y-99977267D01*
X91745500Y-99832369D01*
X91745500Y-99684631D01*
X91742948Y-99671801D01*
X98614500Y-99671801D01*
X98614500Y-99972199D01*
X98673105Y-100266826D01*
X98788062Y-100544358D01*
X98954955Y-100794131D01*
X99167369Y-101006545D01*
X99417142Y-101173438D01*
X99694674Y-101288395D01*
X99989301Y-101347000D01*
X100289699Y-101347000D01*
X100584326Y-101288395D01*
X100861858Y-101173438D01*
X101111631Y-101006545D01*
X101324045Y-100794131D01*
X101490938Y-100544358D01*
X101605895Y-100266826D01*
X101664500Y-99972199D01*
X101664500Y-99671801D01*
X101605895Y-99377174D01*
X101490938Y-99099642D01*
X101324045Y-98849869D01*
X101111631Y-98637455D01*
X100861858Y-98470562D01*
X100584326Y-98355605D01*
X100289699Y-98297000D01*
X99989301Y-98297000D01*
X99694674Y-98355605D01*
X99417142Y-98470562D01*
X99167369Y-98637455D01*
X98954955Y-98849869D01*
X98788062Y-99099642D01*
X98673105Y-99377174D01*
X98614500Y-99671801D01*
X91742948Y-99671801D01*
X91716678Y-99539733D01*
X91660141Y-99403242D01*
X91578063Y-99280403D01*
X91473597Y-99175937D01*
X91350758Y-99093859D01*
X91214267Y-99037322D01*
X91144284Y-99023402D01*
X91049000Y-98928118D01*
X91049000Y-94429382D01*
X91889383Y-93589000D01*
X94711306Y-93589000D01*
X94742000Y-93592023D01*
X94772694Y-93589000D01*
X94772704Y-93589000D01*
X94864521Y-93579957D01*
X94982334Y-93544219D01*
X95090911Y-93486183D01*
X95186080Y-93408080D01*
X95205658Y-93384224D01*
X96940229Y-91649654D01*
X96964080Y-91630080D01*
X97002381Y-91583410D01*
X97042183Y-91534912D01*
X97083250Y-91458080D01*
X97100219Y-91426334D01*
X97135957Y-91308521D01*
X97145000Y-91216704D01*
X97145000Y-91216702D01*
X97148024Y-91186000D01*
X97145000Y-91155298D01*
X97145000Y-86604000D01*
X98813371Y-86604000D01*
X98694085Y-86749351D01*
X98568728Y-86983878D01*
X98491533Y-87238354D01*
X98465468Y-87503000D01*
X98491533Y-87767646D01*
X98568728Y-88022122D01*
X98694085Y-88256649D01*
X98862787Y-88462213D01*
X99068351Y-88630915D01*
X99302878Y-88756272D01*
X99557354Y-88833467D01*
X99755679Y-88853000D01*
X99888321Y-88853000D01*
X100086646Y-88833467D01*
X100341122Y-88756272D01*
X100575649Y-88630915D01*
X100781213Y-88462213D01*
X100949915Y-88256649D01*
X101009581Y-88145022D01*
X101009581Y-88353000D01*
X101019235Y-88451017D01*
X101047825Y-88545267D01*
X101094254Y-88632129D01*
X101156736Y-88708264D01*
X101232871Y-88770746D01*
X101319733Y-88817175D01*
X101413983Y-88845765D01*
X101512000Y-88855419D01*
X103212000Y-88855419D01*
X103310017Y-88845765D01*
X103404267Y-88817175D01*
X103491129Y-88770746D01*
X103567264Y-88708264D01*
X103629746Y-88632129D01*
X103676175Y-88545267D01*
X103704765Y-88451017D01*
X103714419Y-88353000D01*
X103714419Y-86653000D01*
X103709593Y-86604000D01*
X104887907Y-86604000D01*
X104883081Y-86653000D01*
X104883081Y-88353000D01*
X104892735Y-88451017D01*
X104921325Y-88545267D01*
X104967754Y-88632129D01*
X105030236Y-88708264D01*
X105106371Y-88770746D01*
X105193233Y-88817175D01*
X105287483Y-88845765D01*
X105385500Y-88855419D01*
X105535500Y-88855419D01*
X105535501Y-90770603D01*
X105532113Y-90805000D01*
X105545629Y-90942223D01*
X105585655Y-91074174D01*
X105650655Y-91195781D01*
X105716208Y-91275657D01*
X106361000Y-91920449D01*
X106361001Y-105899081D01*
X106211000Y-105899081D01*
X106112983Y-105908735D01*
X106018733Y-105937325D01*
X105931871Y-105983754D01*
X105855736Y-106046236D01*
X105793254Y-106122371D01*
X105746825Y-106209233D01*
X105718235Y-106303483D01*
X105708581Y-106401500D01*
X105708581Y-108101500D01*
X105718235Y-108199517D01*
X105746825Y-108293767D01*
X105793254Y-108380629D01*
X105855736Y-108456764D01*
X105931871Y-108519246D01*
X106018733Y-108565675D01*
X106112983Y-108594265D01*
X106211000Y-108603919D01*
X106418978Y-108603919D01*
X106307351Y-108663585D01*
X106101787Y-108832287D01*
X105933085Y-109037851D01*
X105807728Y-109272378D01*
X105730533Y-109526854D01*
X105704468Y-109791500D01*
X105730533Y-110056146D01*
X105807728Y-110310622D01*
X105933085Y-110545149D01*
X106101787Y-110750713D01*
X106307351Y-110919415D01*
X106541878Y-111044772D01*
X106796354Y-111121967D01*
X106994679Y-111141500D01*
X107127321Y-111141500D01*
X107325646Y-111121967D01*
X107580122Y-111044772D01*
X107814649Y-110919415D01*
X108020213Y-110750713D01*
X108188915Y-110545149D01*
X108314272Y-110310622D01*
X108391467Y-110056146D01*
X108417532Y-109791500D01*
X108391467Y-109526854D01*
X108314272Y-109272378D01*
X108188915Y-109037851D01*
X108020213Y-108832287D01*
X107814649Y-108663585D01*
X107703022Y-108603919D01*
X107911000Y-108603919D01*
X108009017Y-108594265D01*
X108103267Y-108565675D01*
X108190129Y-108519246D01*
X108266264Y-108456764D01*
X108328746Y-108380629D01*
X108375175Y-108293767D01*
X108403765Y-108199517D01*
X108413419Y-108101500D01*
X108413419Y-107951500D01*
X109947613Y-107951500D01*
X109982000Y-107954887D01*
X110016387Y-107951500D01*
X110016390Y-107951500D01*
X110119224Y-107941372D01*
X110251175Y-107901345D01*
X110372781Y-107836345D01*
X110479370Y-107748870D01*
X110501296Y-107722153D01*
X111605450Y-106618000D01*
X122584113Y-106618000D01*
X122618500Y-106621387D01*
X122652887Y-106618000D01*
X122652890Y-106618000D01*
X122755724Y-106607872D01*
X122887675Y-106567845D01*
X123009281Y-106502845D01*
X123115870Y-106415370D01*
X123137796Y-106388653D01*
X124486153Y-105040296D01*
X124512870Y-105018370D01*
X124600345Y-104911781D01*
X124665345Y-104790175D01*
X124705372Y-104658224D01*
X124715500Y-104555390D01*
X124715500Y-104555388D01*
X124718887Y-104521001D01*
X124715500Y-104486614D01*
X124715500Y-102397949D01*
X127099450Y-100014000D01*
X127235081Y-100014000D01*
X127235081Y-100164000D01*
X127244735Y-100262017D01*
X127273325Y-100356267D01*
X127319754Y-100443129D01*
X127382236Y-100519264D01*
X127458371Y-100581746D01*
X127545233Y-100628175D01*
X127639483Y-100656765D01*
X127737500Y-100666419D01*
X127945478Y-100666419D01*
X127833851Y-100726085D01*
X127628287Y-100894787D01*
X127459585Y-101100351D01*
X127334228Y-101334878D01*
X127257033Y-101589354D01*
X127230968Y-101854000D01*
X127257033Y-102118646D01*
X127334228Y-102373122D01*
X127459585Y-102607649D01*
X127628287Y-102813213D01*
X127833851Y-102981915D01*
X128068378Y-103107272D01*
X128322854Y-103184467D01*
X128521179Y-103204000D01*
X128653821Y-103204000D01*
X128852146Y-103184467D01*
X129106622Y-103107272D01*
X129341149Y-102981915D01*
X129546713Y-102813213D01*
X129715415Y-102607649D01*
X129840772Y-102373122D01*
X129917967Y-102118646D01*
X129944032Y-101854000D01*
X129917967Y-101589354D01*
X129840772Y-101334878D01*
X129715415Y-101100351D01*
X129546713Y-100894787D01*
X129341149Y-100726085D01*
X129229522Y-100666419D01*
X129437500Y-100666419D01*
X129535517Y-100656765D01*
X129629767Y-100628175D01*
X129716629Y-100581746D01*
X129792764Y-100519264D01*
X129855246Y-100443129D01*
X129901675Y-100356267D01*
X129930265Y-100262017D01*
X129939919Y-100164000D01*
X129939919Y-98464000D01*
X129930265Y-98365983D01*
X129901675Y-98271733D01*
X129855246Y-98184871D01*
X129792764Y-98108736D01*
X129716629Y-98046254D01*
X129629767Y-97999825D01*
X129535517Y-97971235D01*
X129437500Y-97961581D01*
X129287500Y-97961581D01*
X129287500Y-94269949D01*
X133122159Y-90435291D01*
X133148870Y-90413370D01*
X133173220Y-90383699D01*
X133236345Y-90306782D01*
X133301345Y-90185175D01*
X133302723Y-90180631D01*
X133332248Y-90083301D01*
X137286000Y-90083301D01*
X137286000Y-90383699D01*
X137344605Y-90678326D01*
X137459562Y-90955858D01*
X137626455Y-91205631D01*
X137838869Y-91418045D01*
X138088642Y-91584938D01*
X138366174Y-91699895D01*
X138660801Y-91758500D01*
X138961199Y-91758500D01*
X139255826Y-91699895D01*
X139533358Y-91584938D01*
X139783131Y-91418045D01*
X139995545Y-91205631D01*
X140162438Y-90955858D01*
X140277395Y-90678326D01*
X140336000Y-90383699D01*
X140336000Y-90083301D01*
X140277395Y-89788674D01*
X140162438Y-89511142D01*
X139995545Y-89261369D01*
X139783131Y-89048955D01*
X139533358Y-88882062D01*
X139255826Y-88767105D01*
X138961199Y-88708500D01*
X138660801Y-88708500D01*
X138366174Y-88767105D01*
X138088642Y-88882062D01*
X137838869Y-89048955D01*
X137626455Y-89261369D01*
X137459562Y-89511142D01*
X137344605Y-89788674D01*
X137286000Y-90083301D01*
X133332248Y-90083301D01*
X133341372Y-90053224D01*
X133351500Y-89950390D01*
X133351500Y-89950387D01*
X133354887Y-89916000D01*
X133351500Y-89881610D01*
X133351500Y-75862159D01*
X134676660Y-74537000D01*
X139409173Y-74537000D01*
X139446000Y-74540627D01*
X139482827Y-74537000D01*
X139482835Y-74537000D01*
X139593026Y-74526147D01*
X139734401Y-74483261D01*
X139864693Y-74413619D01*
X139978895Y-74319895D01*
X140002378Y-74291281D01*
X141283787Y-73009873D01*
X141312395Y-72986395D01*
X141406119Y-72872193D01*
X141475761Y-72741901D01*
X141518647Y-72600526D01*
X141529500Y-72490335D01*
X141529500Y-72490328D01*
X141533127Y-72453500D01*
X141529500Y-72416672D01*
X141529500Y-71741865D01*
X141533149Y-71739915D01*
X141738713Y-71571213D01*
X141907415Y-71365649D01*
X142032772Y-71131122D01*
X142109967Y-70876646D01*
X142136032Y-70612000D01*
X142109967Y-70347354D01*
X142032772Y-70092878D01*
X141907415Y-69858351D01*
X141738713Y-69652787D01*
X141533149Y-69484085D01*
X141298622Y-69358728D01*
X141044146Y-69281533D01*
X140845821Y-69262000D01*
X140713179Y-69262000D01*
X140514854Y-69281533D01*
X140260378Y-69358728D01*
X140025851Y-69484085D01*
X139820287Y-69652787D01*
X139651585Y-69858351D01*
X139591919Y-69969978D01*
X139591919Y-69762000D01*
X139582265Y-69663983D01*
X139553675Y-69569733D01*
X139507246Y-69482871D01*
X139444764Y-69406736D01*
X139368629Y-69344254D01*
X139281767Y-69297825D01*
X139187517Y-69269235D01*
X139089500Y-69259581D01*
X137389500Y-69259581D01*
X137291483Y-69269235D01*
X137197233Y-69297825D01*
X137110371Y-69344254D01*
X137034236Y-69406736D01*
X136971754Y-69482871D01*
X136925325Y-69569733D01*
X136896735Y-69663983D01*
X136887081Y-69762000D01*
X136887081Y-71462000D01*
X136896735Y-71560017D01*
X136925325Y-71654267D01*
X136971754Y-71741129D01*
X137034236Y-71817264D01*
X137110371Y-71879746D01*
X137197233Y-71926175D01*
X137291483Y-71954765D01*
X137389500Y-71964419D01*
X139089500Y-71964419D01*
X139187517Y-71954765D01*
X139281767Y-71926175D01*
X139368629Y-71879746D01*
X139444764Y-71817264D01*
X139507246Y-71741129D01*
X139553675Y-71654267D01*
X139582265Y-71560017D01*
X139591919Y-71462000D01*
X139591919Y-71254022D01*
X139651585Y-71365649D01*
X139820287Y-71571213D01*
X140025851Y-71739915D01*
X140029500Y-71741866D01*
X140029500Y-72142840D01*
X139135341Y-73037000D01*
X134402827Y-73037000D01*
X134365999Y-73033373D01*
X134329172Y-73037000D01*
X134329165Y-73037000D01*
X134218974Y-73047853D01*
X134077599Y-73090739D01*
X133947307Y-73160381D01*
X133833105Y-73254105D01*
X133809626Y-73282714D01*
X132095124Y-74997217D01*
X132024882Y-75082808D01*
X131955239Y-75213100D01*
X131912353Y-75354475D01*
X131897873Y-75501500D01*
X131912353Y-75648525D01*
X131951500Y-75777574D01*
X131951501Y-89626049D01*
X128116843Y-93460708D01*
X128090130Y-93482631D01*
X128068209Y-93509342D01*
X128068208Y-93509343D01*
X128002655Y-93589219D01*
X127989316Y-93614175D01*
X127937655Y-93710826D01*
X127897628Y-93842777D01*
X127889278Y-93927563D01*
X127884113Y-93980000D01*
X127887500Y-94014387D01*
X127887501Y-97961581D01*
X127737500Y-97961581D01*
X127639483Y-97971235D01*
X127545233Y-97999825D01*
X127458371Y-98046254D01*
X127382236Y-98108736D01*
X127319754Y-98184871D01*
X127273325Y-98271733D01*
X127244735Y-98365983D01*
X127235081Y-98464000D01*
X127235081Y-98614000D01*
X126843887Y-98614000D01*
X126809500Y-98610613D01*
X126775113Y-98614000D01*
X126775110Y-98614000D01*
X126672276Y-98624128D01*
X126540325Y-98664155D01*
X126418719Y-98729155D01*
X126312130Y-98816630D01*
X126290209Y-98843341D01*
X123544843Y-101588708D01*
X123518130Y-101610631D01*
X123496209Y-101637342D01*
X123496208Y-101637343D01*
X123430655Y-101717219D01*
X123389099Y-101794965D01*
X123365655Y-101838826D01*
X123325628Y-101970777D01*
X123317320Y-102055131D01*
X123312113Y-102108000D01*
X123315500Y-102142387D01*
X123315501Y-104231050D01*
X122328551Y-105218000D01*
X111349887Y-105218000D01*
X111315500Y-105214613D01*
X111281113Y-105218000D01*
X111281110Y-105218000D01*
X111178276Y-105228128D01*
X111046325Y-105268155D01*
X110924719Y-105333155D01*
X110818130Y-105420630D01*
X110796208Y-105447342D01*
X109692051Y-106551500D01*
X108413419Y-106551500D01*
X108413419Y-106401500D01*
X108403765Y-106303483D01*
X108375175Y-106209233D01*
X108328746Y-106122371D01*
X108266264Y-106046236D01*
X108190129Y-105983754D01*
X108103267Y-105937325D01*
X108009017Y-105908735D01*
X107911000Y-105899081D01*
X107761000Y-105899081D01*
X107761000Y-99671801D01*
X114426000Y-99671801D01*
X114426000Y-99972199D01*
X114484605Y-100266826D01*
X114599562Y-100544358D01*
X114766455Y-100794131D01*
X114978869Y-101006545D01*
X115228642Y-101173438D01*
X115506174Y-101288395D01*
X115800801Y-101347000D01*
X116101199Y-101347000D01*
X116395826Y-101288395D01*
X116673358Y-101173438D01*
X116923131Y-101006545D01*
X117135545Y-100794131D01*
X117302438Y-100544358D01*
X117417395Y-100266826D01*
X117476000Y-99972199D01*
X117476000Y-99671801D01*
X117417395Y-99377174D01*
X117302438Y-99099642D01*
X117135545Y-98849869D01*
X116923131Y-98637455D01*
X116673358Y-98470562D01*
X116395826Y-98355605D01*
X116101199Y-98297000D01*
X115800801Y-98297000D01*
X115506174Y-98355605D01*
X115228642Y-98470562D01*
X114978869Y-98637455D01*
X114766455Y-98849869D01*
X114599562Y-99099642D01*
X114484605Y-99377174D01*
X114426000Y-99671801D01*
X107761000Y-99671801D01*
X107761000Y-91664886D01*
X107764387Y-91630499D01*
X107761000Y-91596112D01*
X107761000Y-91583410D01*
X107750872Y-91480576D01*
X107710845Y-91348625D01*
X107645845Y-91227019D01*
X107558369Y-91120430D01*
X107460836Y-91040387D01*
X106935500Y-90515051D01*
X106935500Y-88855419D01*
X107085500Y-88855419D01*
X107183517Y-88845765D01*
X107277767Y-88817175D01*
X107364629Y-88770746D01*
X107440764Y-88708264D01*
X107503246Y-88632129D01*
X107549675Y-88545267D01*
X107578265Y-88451017D01*
X107587919Y-88353000D01*
X107587919Y-88145022D01*
X107647585Y-88256649D01*
X107816287Y-88462213D01*
X108021851Y-88630915D01*
X108150500Y-88699679D01*
X108150500Y-89123296D01*
X108147476Y-89154000D01*
X108159543Y-89276521D01*
X108195281Y-89394334D01*
X108253317Y-89502911D01*
X108331420Y-89598080D01*
X108426589Y-89676183D01*
X108535166Y-89734219D01*
X108652979Y-89769957D01*
X108744796Y-89779000D01*
X108775500Y-89782024D01*
X108806204Y-89779000D01*
X113948915Y-89779000D01*
X114008242Y-89818641D01*
X114144733Y-89875178D01*
X114289631Y-89904000D01*
X114437369Y-89904000D01*
X114582267Y-89875178D01*
X114718758Y-89818641D01*
X114778085Y-89779000D01*
X116491806Y-89779000D01*
X116522500Y-89782023D01*
X116553194Y-89779000D01*
X116553204Y-89779000D01*
X116645021Y-89769957D01*
X116762834Y-89734219D01*
X116871411Y-89676183D01*
X116966580Y-89598080D01*
X116986158Y-89574224D01*
X117768230Y-88792153D01*
X117792080Y-88772580D01*
X117844863Y-88708264D01*
X117870182Y-88677413D01*
X117928218Y-88568836D01*
X117963956Y-88451023D01*
X117963957Y-88451021D01*
X117973000Y-88359204D01*
X117973000Y-88359195D01*
X117976023Y-88328501D01*
X117973000Y-88297807D01*
X117973000Y-69372693D01*
X117976023Y-69341999D01*
X117973000Y-69311305D01*
X117973000Y-69311296D01*
X117963957Y-69219479D01*
X117928219Y-69101666D01*
X117883243Y-69017523D01*
X117870182Y-68993087D01*
X117811652Y-68921768D01*
X117811649Y-68921765D01*
X117792080Y-68897920D01*
X117768234Y-68878350D01*
X116859158Y-67969276D01*
X116839580Y-67945420D01*
X116744411Y-67867317D01*
X116635834Y-67809281D01*
X116518021Y-67773543D01*
X116426204Y-67764500D01*
X116426194Y-67764500D01*
X116395500Y-67761477D01*
X116364806Y-67764500D01*
X103065383Y-67764500D01*
X102785000Y-67484118D01*
X102785000Y-66786679D01*
X102913649Y-66717915D01*
X103119213Y-66549213D01*
X103287915Y-66343649D01*
X103413272Y-66109122D01*
X103430000Y-66053978D01*
X103446728Y-66109122D01*
X103572085Y-66343649D01*
X103740787Y-66549213D01*
X103946351Y-66717915D01*
X104180878Y-66843272D01*
X104435354Y-66920467D01*
X104633679Y-66940000D01*
X104766321Y-66940000D01*
X104964646Y-66920467D01*
X105219122Y-66843272D01*
X105453649Y-66717915D01*
X105659213Y-66549213D01*
X105827915Y-66343649D01*
X105953272Y-66109122D01*
X105970000Y-66053978D01*
X105986728Y-66109122D01*
X106112085Y-66343649D01*
X106280787Y-66549213D01*
X106486351Y-66717915D01*
X106720878Y-66843272D01*
X106975354Y-66920467D01*
X107173679Y-66940000D01*
X107306321Y-66940000D01*
X107504646Y-66920467D01*
X107759122Y-66843272D01*
X107993649Y-66717915D01*
X108199213Y-66549213D01*
X108367915Y-66343649D01*
X108493272Y-66109122D01*
X108510000Y-66053978D01*
X108526728Y-66109122D01*
X108652085Y-66343649D01*
X108820787Y-66549213D01*
X109026351Y-66717915D01*
X109260878Y-66843272D01*
X109515354Y-66920467D01*
X109713679Y-66940000D01*
X109846321Y-66940000D01*
X110044646Y-66920467D01*
X110299122Y-66843272D01*
X110533649Y-66717915D01*
X110739213Y-66549213D01*
X110907915Y-66343649D01*
X111033272Y-66109122D01*
X111050000Y-66053978D01*
X111066728Y-66109122D01*
X111192085Y-66343649D01*
X111360787Y-66549213D01*
X111566351Y-66717915D01*
X111800878Y-66843272D01*
X112055354Y-66920467D01*
X112253679Y-66940000D01*
X112386321Y-66940000D01*
X112584646Y-66920467D01*
X112839122Y-66843272D01*
X113073649Y-66717915D01*
X113279213Y-66549213D01*
X113447915Y-66343649D01*
X113573272Y-66109122D01*
X113590000Y-66053978D01*
X113606728Y-66109122D01*
X113732085Y-66343649D01*
X113900787Y-66549213D01*
X114106351Y-66717915D01*
X114340878Y-66843272D01*
X114595354Y-66920467D01*
X114793679Y-66940000D01*
X114926321Y-66940000D01*
X115124646Y-66920467D01*
X115379122Y-66843272D01*
X115613649Y-66717915D01*
X115819213Y-66549213D01*
X115987915Y-66343649D01*
X116113272Y-66109122D01*
X116190467Y-65854646D01*
X116216532Y-65590000D01*
X116190467Y-65325354D01*
X116113272Y-65070878D01*
X115987915Y-64836351D01*
X115819213Y-64630787D01*
X115613649Y-64462085D01*
X115379122Y-64336728D01*
X115323978Y-64320000D01*
X115379122Y-64303272D01*
X115613649Y-64177915D01*
X115819213Y-64009213D01*
X115987915Y-63803649D01*
X116113272Y-63569122D01*
X116130000Y-63513978D01*
X116146728Y-63569122D01*
X116272085Y-63803649D01*
X116440787Y-64009213D01*
X116646351Y-64177915D01*
X116880878Y-64303272D01*
X117135354Y-64380467D01*
X117333679Y-64400000D01*
X117466321Y-64400000D01*
X117664646Y-64380467D01*
X117919122Y-64303272D01*
X118153649Y-64177915D01*
X118359213Y-64009213D01*
X118527915Y-63803649D01*
X118653272Y-63569122D01*
X118670000Y-63513978D01*
X118686728Y-63569122D01*
X118812085Y-63803649D01*
X118980787Y-64009213D01*
X119186351Y-64177915D01*
X119420878Y-64303272D01*
X119476022Y-64320000D01*
X119420878Y-64336728D01*
X119186351Y-64462085D01*
X118980787Y-64630787D01*
X118812085Y-64836351D01*
X118686728Y-65070878D01*
X118609533Y-65325354D01*
X118583468Y-65590000D01*
X118609533Y-65854646D01*
X118686728Y-66109122D01*
X118812085Y-66343649D01*
X118980787Y-66549213D01*
X119186351Y-66717915D01*
X119420878Y-66843272D01*
X119675354Y-66920467D01*
X119873679Y-66940000D01*
X120006321Y-66940000D01*
X120204646Y-66920467D01*
X120459122Y-66843272D01*
X120693649Y-66717915D01*
X120899213Y-66549213D01*
X121067915Y-66343649D01*
X121193272Y-66109122D01*
X121210000Y-66053978D01*
X121226728Y-66109122D01*
X121352085Y-66343649D01*
X121520787Y-66549213D01*
X121726351Y-66717915D01*
X121960878Y-66843272D01*
X122215354Y-66920467D01*
X122413679Y-66940000D01*
X122546321Y-66940000D01*
X122744646Y-66920467D01*
X122999122Y-66843272D01*
X123233649Y-66717915D01*
X123439213Y-66549213D01*
X123607915Y-66343649D01*
X123733272Y-66109122D01*
X123750000Y-66053978D01*
X123766728Y-66109122D01*
X123892085Y-66343649D01*
X124060787Y-66549213D01*
X124266351Y-66717915D01*
X124500878Y-66843272D01*
X124755354Y-66920467D01*
X124953679Y-66940000D01*
X125086321Y-66940000D01*
X125284646Y-66920467D01*
X125539122Y-66843272D01*
X125773649Y-66717915D01*
X125979213Y-66549213D01*
X126147915Y-66343649D01*
X126273272Y-66109122D01*
X126290000Y-66053978D01*
X126306728Y-66109122D01*
X126432085Y-66343649D01*
X126600787Y-66549213D01*
X126806351Y-66717915D01*
X127040878Y-66843272D01*
X127295354Y-66920467D01*
X127493679Y-66940000D01*
X127626321Y-66940000D01*
X127824646Y-66920467D01*
X128079122Y-66843272D01*
X128313649Y-66717915D01*
X128519213Y-66549213D01*
X128687915Y-66343649D01*
X128813272Y-66109122D01*
X128830000Y-66053978D01*
X128846728Y-66109122D01*
X128972085Y-66343649D01*
X129140787Y-66549213D01*
X129346351Y-66717915D01*
X129580878Y-66843272D01*
X129835354Y-66920467D01*
X130033679Y-66940000D01*
X130166321Y-66940000D01*
X130364646Y-66920467D01*
X130619122Y-66843272D01*
X130743800Y-66776630D01*
X130743800Y-68800415D01*
X130704159Y-68859742D01*
X130647622Y-68996233D01*
X130618800Y-69141131D01*
X130618800Y-69288869D01*
X130647622Y-69433767D01*
X130704159Y-69570258D01*
X130786237Y-69693097D01*
X130890703Y-69797563D01*
X131013542Y-69879641D01*
X131150033Y-69936178D01*
X131220016Y-69950099D01*
X132030702Y-70760784D01*
X132044622Y-70830767D01*
X132101159Y-70967258D01*
X132183237Y-71090097D01*
X132287703Y-71194563D01*
X132410542Y-71276641D01*
X132547033Y-71333178D01*
X132691931Y-71362000D01*
X132839669Y-71362000D01*
X132984567Y-71333178D01*
X133121058Y-71276641D01*
X133243897Y-71194563D01*
X133348363Y-71090097D01*
X133430441Y-70967258D01*
X133486978Y-70830767D01*
X133515800Y-70685869D01*
X133515800Y-70538131D01*
X133514821Y-70533207D01*
X134709000Y-70533207D01*
X134709000Y-70690793D01*
X134739743Y-70845351D01*
X134800049Y-70990942D01*
X134887599Y-71121970D01*
X134999030Y-71233401D01*
X135130058Y-71320951D01*
X135275649Y-71381257D01*
X135430207Y-71412000D01*
X135587793Y-71412000D01*
X135742351Y-71381257D01*
X135887942Y-71320951D01*
X136018970Y-71233401D01*
X136130401Y-71121970D01*
X136217951Y-70990942D01*
X136278257Y-70845351D01*
X136309000Y-70690793D01*
X136309000Y-70533207D01*
X136278257Y-70378649D01*
X136217951Y-70233058D01*
X136130401Y-70102030D01*
X136018970Y-69990599D01*
X135887942Y-69903049D01*
X135742351Y-69842743D01*
X135587793Y-69812000D01*
X135430207Y-69812000D01*
X135275649Y-69842743D01*
X135130058Y-69903049D01*
X134999030Y-69990599D01*
X134887599Y-70102030D01*
X134800049Y-70233058D01*
X134739743Y-70378649D01*
X134709000Y-70533207D01*
X133514821Y-70533207D01*
X133486978Y-70393233D01*
X133430441Y-70256742D01*
X133348363Y-70133903D01*
X133243897Y-70029437D01*
X133121058Y-69947359D01*
X132984567Y-69890822D01*
X132914584Y-69876902D01*
X132103899Y-69066216D01*
X132089978Y-68996233D01*
X132033441Y-68859742D01*
X131993800Y-68800415D01*
X131993800Y-66775348D01*
X132120878Y-66843272D01*
X132375354Y-66920467D01*
X132573679Y-66940000D01*
X132706321Y-66940000D01*
X132904646Y-66920467D01*
X133159122Y-66843272D01*
X133393649Y-66717915D01*
X133599213Y-66549213D01*
X133767915Y-66343649D01*
X133893272Y-66109122D01*
X133970467Y-65854646D01*
X133996532Y-65590000D01*
X133970467Y-65325354D01*
X133893272Y-65070878D01*
X133767915Y-64836351D01*
X133599213Y-64630787D01*
X133393649Y-64462085D01*
X133159122Y-64336728D01*
X133103978Y-64320000D01*
X133159122Y-64303272D01*
X133393649Y-64177915D01*
X133599213Y-64009213D01*
X133767915Y-63803649D01*
X133893272Y-63569122D01*
X133910000Y-63513978D01*
X133926728Y-63569122D01*
X134052085Y-63803649D01*
X134220787Y-64009213D01*
X134426351Y-64177915D01*
X134660878Y-64303272D01*
X134915354Y-64380467D01*
X135113679Y-64400000D01*
X135246321Y-64400000D01*
X135444646Y-64380467D01*
X135699122Y-64303272D01*
X135933649Y-64177915D01*
X136139213Y-64009213D01*
X136307915Y-63803649D01*
X136433272Y-63569122D01*
X136510467Y-63314646D01*
X136536532Y-63050000D01*
X136510467Y-62785354D01*
X136433272Y-62530878D01*
X136307915Y-62296351D01*
X136139213Y-62090787D01*
X135933649Y-61922085D01*
X135699122Y-61796728D01*
X135444646Y-61719533D01*
X135246321Y-61700000D01*
X135113679Y-61700000D01*
X134915354Y-61719533D01*
X134660878Y-61796728D01*
X134426351Y-61922085D01*
X134220787Y-62090787D01*
X134052085Y-62296351D01*
X133926728Y-62530878D01*
X133910000Y-62586022D01*
X133893272Y-62530878D01*
X133767915Y-62296351D01*
X133599213Y-62090787D01*
X133393649Y-61922085D01*
X133159122Y-61796728D01*
X132904646Y-61719533D01*
X132706321Y-61700000D01*
X132573679Y-61700000D01*
X132375354Y-61719533D01*
X132120878Y-61796728D01*
X131993800Y-61864652D01*
X131993800Y-61854293D01*
X131996823Y-61823599D01*
X131993800Y-61792905D01*
X131993800Y-61792896D01*
X131984757Y-61701079D01*
X131949019Y-61583266D01*
X131896200Y-61484449D01*
X131890982Y-61474687D01*
X131857395Y-61433762D01*
X131823623Y-61392611D01*
X138769483Y-61392611D01*
X138524232Y-61494197D01*
X138000119Y-61844398D01*
X137554398Y-62290119D01*
X137204197Y-62814232D01*
X136962975Y-63396595D01*
X136840000Y-64014828D01*
X136840000Y-64645172D01*
X136962975Y-65263405D01*
X137204197Y-65845768D01*
X137554398Y-66369881D01*
X138000119Y-66815602D01*
X138524232Y-67165803D01*
X139106595Y-67407025D01*
X139724828Y-67530000D01*
X140355172Y-67530000D01*
X140973405Y-67407025D01*
X141555768Y-67165803D01*
X142079881Y-66815602D01*
X142525602Y-66369881D01*
X142875803Y-65845768D01*
X142971357Y-65615080D01*
X142971351Y-112049049D01*
X142865803Y-111794232D01*
X142515602Y-111270119D01*
X142069881Y-110824398D01*
X141545768Y-110474197D01*
X140963405Y-110232975D01*
X140345172Y-110110000D01*
X139714828Y-110110000D01*
X139096595Y-110232975D01*
X138514232Y-110474197D01*
X137990119Y-110824398D01*
X137544398Y-111270119D01*
X137194197Y-111794232D01*
X136952975Y-112376595D01*
X136830000Y-112994828D01*
X136830000Y-113625172D01*
X136952975Y-114243405D01*
X137194197Y-114825768D01*
X137544398Y-115349881D01*
X137990119Y-115795602D01*
X138514232Y-116145803D01*
X138747948Y-116242611D01*
X83346194Y-116242611D01*
X83555768Y-116155803D01*
X84079881Y-115805602D01*
X84525602Y-115359881D01*
X84875803Y-114835768D01*
X85117025Y-114253405D01*
X85240000Y-113635172D01*
X85240000Y-113004828D01*
X85117025Y-112386595D01*
X84875803Y-111804232D01*
X84525602Y-111280119D01*
X84079881Y-110834398D01*
X83555768Y-110484197D01*
X82973405Y-110242975D01*
X82355172Y-110120000D01*
X81724828Y-110120000D01*
X81106595Y-110242975D01*
X80524232Y-110484197D01*
X80000119Y-110834398D01*
X79554398Y-111280119D01*
X79204197Y-111804232D01*
X79121356Y-112004228D01*
X79121356Y-101471216D01*
X79222710Y-101501961D01*
X79369499Y-101516419D01*
X80269501Y-101516419D01*
X80416290Y-101501961D01*
X80557439Y-101459145D01*
X80687522Y-101389614D01*
X80801541Y-101296041D01*
X80895114Y-101182022D01*
X80964645Y-101051939D01*
X81007461Y-100910790D01*
X81021919Y-100764001D01*
X81021919Y-100712500D01*
X81548751Y-100712500D01*
X81501533Y-100770035D01*
X81441243Y-100882830D01*
X81404117Y-101005219D01*
X81391581Y-101132500D01*
X81391581Y-101432500D01*
X81404117Y-101559781D01*
X81441243Y-101682170D01*
X81501533Y-101794965D01*
X81582670Y-101893830D01*
X81611512Y-101917500D01*
X81582670Y-101941170D01*
X81501533Y-102040035D01*
X81441243Y-102152830D01*
X81404117Y-102275219D01*
X81391581Y-102402500D01*
X81391581Y-102702500D01*
X81404117Y-102829781D01*
X81441243Y-102952170D01*
X81501533Y-103064965D01*
X81582670Y-103163830D01*
X81611512Y-103187500D01*
X81582670Y-103211170D01*
X81501533Y-103310035D01*
X81441243Y-103422830D01*
X81404117Y-103545219D01*
X81391581Y-103672500D01*
X81391581Y-103972500D01*
X81404117Y-104099781D01*
X81441243Y-104222170D01*
X81501533Y-104334965D01*
X81582670Y-104433830D01*
X81611512Y-104457500D01*
X81582670Y-104481170D01*
X81501533Y-104580035D01*
X81441243Y-104692830D01*
X81404117Y-104815219D01*
X81391581Y-104942500D01*
X81391581Y-105242500D01*
X81404117Y-105369781D01*
X81441243Y-105492170D01*
X81501533Y-105604965D01*
X81582670Y-105703830D01*
X81611512Y-105727500D01*
X81582670Y-105751170D01*
X81501533Y-105850035D01*
X81441243Y-105962830D01*
X81404117Y-106085219D01*
X81391581Y-106212500D01*
X81391581Y-106512500D01*
X81404117Y-106639781D01*
X81441243Y-106762170D01*
X81501533Y-106874965D01*
X81582670Y-106973830D01*
X81611512Y-106997500D01*
X81582670Y-107021170D01*
X81501533Y-107120035D01*
X81441243Y-107232830D01*
X81404117Y-107355219D01*
X81391581Y-107482500D01*
X81391581Y-107782500D01*
X81404117Y-107909781D01*
X81441243Y-108032170D01*
X81501533Y-108144965D01*
X81582670Y-108243830D01*
X81611512Y-108267500D01*
X81582670Y-108291170D01*
X81501533Y-108390035D01*
X81441243Y-108502830D01*
X81404117Y-108625219D01*
X81391581Y-108752500D01*
X81391581Y-109052500D01*
X81404117Y-109179781D01*
X81441243Y-109302170D01*
X81501533Y-109414965D01*
X81582670Y-109513830D01*
X81681535Y-109594967D01*
X81794330Y-109655257D01*
X81916719Y-109692383D01*
X82044000Y-109704919D01*
X83694000Y-109704919D01*
X83821281Y-109692383D01*
X83943670Y-109655257D01*
X84056465Y-109594967D01*
X84155330Y-109513830D01*
X84236467Y-109414965D01*
X84296757Y-109302170D01*
X84333883Y-109179781D01*
X84346419Y-109052500D01*
X84346419Y-108752500D01*
X84333883Y-108625219D01*
X84296757Y-108502830D01*
X84236467Y-108390035D01*
X84155330Y-108291170D01*
X84126488Y-108267500D01*
X84155330Y-108243830D01*
X84236467Y-108144965D01*
X84296757Y-108032170D01*
X84333883Y-107909781D01*
X84346419Y-107782500D01*
X84346419Y-107482500D01*
X84333883Y-107355219D01*
X84296757Y-107232830D01*
X84236467Y-107120035D01*
X84155330Y-107021170D01*
X84126488Y-106997500D01*
X84155330Y-106973830D01*
X84236467Y-106874965D01*
X84296757Y-106762170D01*
X84333883Y-106639781D01*
X84346419Y-106512500D01*
X84346419Y-106212500D01*
X84333883Y-106085219D01*
X84296757Y-105962830D01*
X84236467Y-105850035D01*
X84155330Y-105751170D01*
X84126488Y-105727500D01*
X84155330Y-105703830D01*
X84236467Y-105604965D01*
X84296757Y-105492170D01*
X84333883Y-105369781D01*
X84346419Y-105242500D01*
X84346419Y-104942500D01*
X84333883Y-104815219D01*
X84296757Y-104692830D01*
X84236467Y-104580035D01*
X84155330Y-104481170D01*
X84126488Y-104457500D01*
X84155330Y-104433830D01*
X84236467Y-104334965D01*
X84296757Y-104222170D01*
X84333883Y-104099781D01*
X84346419Y-103972500D01*
X84346419Y-103672500D01*
X84333883Y-103545219D01*
X84296757Y-103422830D01*
X84236467Y-103310035D01*
X84155330Y-103211170D01*
X84126488Y-103187500D01*
X84155330Y-103163830D01*
X84236467Y-103064965D01*
X84296757Y-102952170D01*
X84333883Y-102829781D01*
X84346419Y-102702500D01*
X84346419Y-102402500D01*
X84333883Y-102275219D01*
X84296757Y-102152830D01*
X84236467Y-102040035D01*
X84155330Y-101941170D01*
X84126488Y-101917500D01*
X84155330Y-101893830D01*
X84236467Y-101794965D01*
X84296757Y-101682170D01*
X84333883Y-101559781D01*
X84346419Y-101432500D01*
X84346419Y-101132500D01*
X84333883Y-101005219D01*
X84296757Y-100882830D01*
X84236467Y-100770035D01*
X84155330Y-100671170D01*
X84126488Y-100647500D01*
X84155330Y-100623830D01*
X84236467Y-100524965D01*
X84296757Y-100412170D01*
X84333883Y-100289781D01*
X84346419Y-100162500D01*
X84346419Y-99862500D01*
X84333883Y-99735219D01*
X84296757Y-99612830D01*
X84236467Y-99500035D01*
X84155330Y-99401170D01*
X84056465Y-99320033D01*
X83943670Y-99259743D01*
X83821281Y-99222617D01*
X83694000Y-99210081D01*
X82044000Y-99210081D01*
X81916719Y-99222617D01*
X81794330Y-99259743D01*
X81695628Y-99312500D01*
X80519500Y-99312500D01*
X80519500Y-96428949D01*
X80885631Y-96062819D01*
X80936758Y-96041641D01*
X81059597Y-95959563D01*
X81164063Y-95855097D01*
X81246141Y-95732258D01*
X81302678Y-95595767D01*
X81331500Y-95450869D01*
X81331500Y-95303131D01*
X81302678Y-95158233D01*
X81246141Y-95021742D01*
X81164063Y-94898903D01*
X81059597Y-94794437D01*
X80936758Y-94712359D01*
X80800267Y-94655822D01*
X80655369Y-94627000D01*
X80507631Y-94627000D01*
X80362733Y-94655822D01*
X80226242Y-94712359D01*
X80103403Y-94794437D01*
X79998937Y-94898903D01*
X79916859Y-95021742D01*
X79895681Y-95072869D01*
X79348842Y-95619709D01*
X79322131Y-95641630D01*
X79300210Y-95668341D01*
X79300208Y-95668343D01*
X79234655Y-95748219D01*
X79169655Y-95869826D01*
X79154180Y-95920842D01*
X79129950Y-96000720D01*
X79129629Y-96001777D01*
X79121356Y-96085770D01*
X79121356Y-76748301D01*
X81152000Y-76748301D01*
X81152000Y-77048699D01*
X81210605Y-77343326D01*
X81325562Y-77620858D01*
X81492455Y-77870631D01*
X81704869Y-78083045D01*
X81954642Y-78249938D01*
X82232174Y-78364895D01*
X82526801Y-78423500D01*
X82827199Y-78423500D01*
X83121826Y-78364895D01*
X83399358Y-78249938D01*
X83649131Y-78083045D01*
X83861545Y-77870631D01*
X84028438Y-77620858D01*
X84143395Y-77343326D01*
X84202000Y-77048699D01*
X84202000Y-76748301D01*
X84143395Y-76453674D01*
X84028438Y-76176142D01*
X83861545Y-75926369D01*
X83649131Y-75713955D01*
X83399358Y-75547062D01*
X83121826Y-75432105D01*
X82827199Y-75373500D01*
X82526801Y-75373500D01*
X82232174Y-75432105D01*
X81954642Y-75547062D01*
X81704869Y-75713955D01*
X81492455Y-75926369D01*
X81325562Y-76176142D01*
X81210605Y-76453674D01*
X81152000Y-76748301D01*
X79121356Y-76748301D01*
X79121356Y-65625772D01*
X79204197Y-65825768D01*
X79554398Y-66349881D01*
X80000119Y-66795602D01*
X80524232Y-67145803D01*
X81106595Y-67387025D01*
X81724828Y-67510000D01*
X82355172Y-67510000D01*
X82973405Y-67387025D01*
X83555768Y-67145803D01*
X84079881Y-66795602D01*
X84525602Y-66349881D01*
X84875803Y-65825768D01*
X85117025Y-65243405D01*
X85240000Y-64625172D01*
X85240000Y-63994828D01*
X85117025Y-63376595D01*
X84875803Y-62794232D01*
X84525602Y-62270119D01*
X84079881Y-61824398D01*
X83555768Y-61474197D01*
X83358801Y-61392611D01*
X86489496Y-61392611D01*
X86489277Y-61392877D01*
X86489277Y-61392877D01*
G37*
X86489277Y-61392877D02*
X86475920Y-61403839D01*
X86397817Y-61499009D01*
X86339781Y-61607586D01*
X86304043Y-61725399D01*
X86295000Y-61817216D01*
X86295000Y-61817225D01*
X86291977Y-61847919D01*
X86292634Y-61854586D01*
X86166351Y-61922085D01*
X85960787Y-62090787D01*
X85792085Y-62296351D01*
X85666728Y-62530878D01*
X85589533Y-62785354D01*
X85563468Y-63050000D01*
X85589533Y-63314646D01*
X85666728Y-63569122D01*
X85792085Y-63803649D01*
X85960787Y-64009213D01*
X86166351Y-64177915D01*
X86277978Y-64237581D01*
X86070000Y-64237581D01*
X85971983Y-64247235D01*
X85877733Y-64275825D01*
X85790871Y-64322254D01*
X85714736Y-64384736D01*
X85652254Y-64460871D01*
X85605825Y-64547733D01*
X85577235Y-64641983D01*
X85567581Y-64740000D01*
X85567581Y-66440000D01*
X85577235Y-66538017D01*
X85605825Y-66632267D01*
X85652254Y-66719129D01*
X85714736Y-66795264D01*
X85790871Y-66857746D01*
X85877733Y-66904175D01*
X85971983Y-66932765D01*
X86070000Y-66942419D01*
X87770000Y-66942419D01*
X87868017Y-66932765D01*
X87962267Y-66904175D01*
X88049129Y-66857746D01*
X88125264Y-66795264D01*
X88187746Y-66719129D01*
X88234175Y-66632267D01*
X88262765Y-66538017D01*
X88272419Y-66440000D01*
X88272419Y-66232022D01*
X88332085Y-66343649D01*
X88500787Y-66549213D01*
X88706351Y-66717915D01*
X88940878Y-66843272D01*
X89195354Y-66920467D01*
X89393679Y-66940000D01*
X89526321Y-66940000D01*
X89724646Y-66920467D01*
X89979122Y-66843272D01*
X90213649Y-66717915D01*
X90419213Y-66549213D01*
X90587915Y-66343649D01*
X90713272Y-66109122D01*
X90730000Y-66053978D01*
X90746728Y-66109122D01*
X90872085Y-66343649D01*
X91040787Y-66549213D01*
X91246351Y-66717915D01*
X91480878Y-66843272D01*
X91735354Y-66920467D01*
X91933679Y-66940000D01*
X92066321Y-66940000D01*
X92264646Y-66920467D01*
X92519122Y-66843272D01*
X92753649Y-66717915D01*
X92959213Y-66549213D01*
X93127915Y-66343649D01*
X93253272Y-66109122D01*
X93270000Y-66053978D01*
X93286728Y-66109122D01*
X93412085Y-66343649D01*
X93580787Y-66549213D01*
X93786351Y-66717915D01*
X94020878Y-66843272D01*
X94275354Y-66920467D01*
X94473679Y-66940000D01*
X94606321Y-66940000D01*
X94804646Y-66920467D01*
X95059122Y-66843272D01*
X95293649Y-66717915D01*
X95499213Y-66549213D01*
X95667915Y-66343649D01*
X95793272Y-66109122D01*
X95870467Y-65854646D01*
X95896532Y-65590000D01*
X95870467Y-65325354D01*
X95793272Y-65070878D01*
X95667915Y-64836351D01*
X95499213Y-64630787D01*
X95293649Y-64462085D01*
X95059122Y-64336728D01*
X95003978Y-64320000D01*
X95059122Y-64303272D01*
X95293649Y-64177915D01*
X95499213Y-64009213D01*
X95667915Y-63803649D01*
X95793272Y-63569122D01*
X95810000Y-63513978D01*
X95826728Y-63569122D01*
X95952085Y-63803649D01*
X96120787Y-64009213D01*
X96326351Y-64177915D01*
X96560878Y-64303272D01*
X96815354Y-64380467D01*
X97013679Y-64400000D01*
X97146321Y-64400000D01*
X97344646Y-64380467D01*
X97599122Y-64303272D01*
X97833649Y-64177915D01*
X98039213Y-64009213D01*
X98207915Y-63803649D01*
X98333272Y-63569122D01*
X98350000Y-63513978D01*
X98366728Y-63569122D01*
X98492085Y-63803649D01*
X98660787Y-64009213D01*
X98866351Y-64177915D01*
X99100878Y-64303272D01*
X99156022Y-64320000D01*
X99100878Y-64336728D01*
X98866351Y-64462085D01*
X98660787Y-64630787D01*
X98492085Y-64836351D01*
X98366728Y-65070878D01*
X98289533Y-65325354D01*
X98263468Y-65590000D01*
X98289533Y-65854646D01*
X98366728Y-66109122D01*
X98492085Y-66343649D01*
X98660787Y-66549213D01*
X98866351Y-66717915D01*
X98995000Y-66786679D01*
X98995001Y-68347296D01*
X98991977Y-68378000D01*
X98995001Y-68408704D01*
X99004044Y-68500521D01*
X99039782Y-68618334D01*
X99097818Y-68726911D01*
X99175921Y-68822080D01*
X99199772Y-68841654D01*
X100120346Y-69762229D01*
X100139920Y-69786080D01*
X100235089Y-69864183D01*
X100343666Y-69922219D01*
X100461479Y-69957957D01*
X100553296Y-69967000D01*
X100553298Y-69967000D01*
X100584000Y-69970024D01*
X100614701Y-69967000D01*
X108008617Y-69967000D01*
X108150501Y-70108884D01*
X108150500Y-83194821D01*
X108021851Y-83263585D01*
X107816287Y-83432287D01*
X107647585Y-83637851D01*
X107587919Y-83749478D01*
X107587919Y-83541500D01*
X107578265Y-83443483D01*
X107549675Y-83349233D01*
X107503246Y-83262371D01*
X107440764Y-83186236D01*
X107364629Y-83123754D01*
X107277767Y-83077325D01*
X107183517Y-83048735D01*
X107085500Y-83039081D01*
X105385500Y-83039081D01*
X105287483Y-83048735D01*
X105193233Y-83077325D01*
X105106371Y-83123754D01*
X105030236Y-83186236D01*
X104967754Y-83262371D01*
X104921325Y-83349233D01*
X104892735Y-83443483D01*
X104883081Y-83541500D01*
X104883081Y-85241500D01*
X104892735Y-85339517D01*
X104897128Y-85354000D01*
X102606691Y-85354000D01*
X102632114Y-85323022D01*
X102701645Y-85192939D01*
X102713153Y-85155000D01*
X103298605Y-85155000D01*
X103349733Y-85176178D01*
X103494631Y-85205000D01*
X103642369Y-85205000D01*
X103787267Y-85176178D01*
X103923758Y-85119641D01*
X104046597Y-85037563D01*
X104151063Y-84933097D01*
X104233141Y-84810258D01*
X104289678Y-84673767D01*
X104318500Y-84528869D01*
X104318500Y-84381131D01*
X104289678Y-84236233D01*
X104233141Y-84099742D01*
X104151063Y-83976903D01*
X104046597Y-83872437D01*
X103923758Y-83790359D01*
X103787267Y-83733822D01*
X103642369Y-83705000D01*
X103494631Y-83705000D01*
X103349733Y-83733822D01*
X103298605Y-83755000D01*
X102713153Y-83755000D01*
X102701645Y-83717061D01*
X102632114Y-83586978D01*
X102538541Y-83472959D01*
X102424522Y-83379386D01*
X102294439Y-83309855D01*
X102153290Y-83267039D01*
X102006501Y-83252581D01*
X101356499Y-83252581D01*
X101209710Y-83267039D01*
X101068561Y-83309855D01*
X100938478Y-83379386D01*
X100824459Y-83472959D01*
X100730886Y-83586978D01*
X100661355Y-83717061D01*
X100618539Y-83858210D01*
X100604081Y-84004999D01*
X100604081Y-84905001D01*
X100618539Y-85051790D01*
X100661355Y-85192939D01*
X100730886Y-85323022D01*
X100756309Y-85354000D01*
X97145000Y-85354000D01*
X97145000Y-82390194D01*
X97148023Y-82359500D01*
X97145000Y-82328806D01*
X97145000Y-82328796D01*
X97135957Y-82236979D01*
X97100219Y-82119166D01*
X97042183Y-82010589D01*
X96964080Y-81915420D01*
X96940229Y-81895846D01*
X96239099Y-81194716D01*
X96225178Y-81124733D01*
X96168641Y-80988242D01*
X96086563Y-80865403D01*
X95982097Y-80760937D01*
X95859258Y-80678859D01*
X95722767Y-80622322D01*
X95577869Y-80593500D01*
X95430131Y-80593500D01*
X95285233Y-80622322D01*
X95148742Y-80678859D01*
X95025903Y-80760937D01*
X94921437Y-80865403D01*
X94839359Y-80988242D01*
X94782822Y-81124733D01*
X94754000Y-81269631D01*
X94754000Y-81417369D01*
X94782822Y-81562267D01*
X94839359Y-81698758D01*
X94921437Y-81821597D01*
X95025903Y-81926063D01*
X95148742Y-82008141D01*
X95275315Y-82060570D01*
X95193742Y-82094359D01*
X95070903Y-82176437D01*
X94966437Y-82280903D01*
X94884359Y-82403742D01*
X94827822Y-82540233D01*
X94799000Y-82685131D01*
X94799000Y-82832869D01*
X94827822Y-82977767D01*
X94884359Y-83114258D01*
X94924000Y-83173585D01*
X94924001Y-89205896D01*
X94897267Y-89194822D01*
X94752369Y-89166000D01*
X94604631Y-89166000D01*
X94459733Y-89194822D01*
X94323242Y-89251359D01*
X94200403Y-89333437D01*
X94095937Y-89437903D01*
X94013859Y-89560742D01*
X93957322Y-89697233D01*
X93928500Y-89842131D01*
X93928500Y-89989869D01*
X93957322Y-90134767D01*
X93978500Y-90185895D01*
X93978500Y-90388050D01*
X93499551Y-90867000D01*
X91029887Y-90867000D01*
X90995500Y-90863613D01*
X90961113Y-90867000D01*
X90961110Y-90867000D01*
X90858276Y-90877128D01*
X90735364Y-90914413D01*
X90726325Y-90917155D01*
X90604719Y-90982155D01*
X90528503Y-91044704D01*
X90498130Y-91069630D01*
X90476208Y-91096342D01*
X88927551Y-92645000D01*
X86883895Y-92645000D01*
X86832767Y-92623822D01*
X86687869Y-92595000D01*
X86540131Y-92595000D01*
X86395233Y-92623822D01*
X86258742Y-92680359D01*
X86135903Y-92762437D01*
X86031437Y-92866903D01*
X85949359Y-92989742D01*
X85892822Y-93126233D01*
X85864000Y-93271131D01*
X85864000Y-93418869D01*
X85892822Y-93563767D01*
X85949359Y-93700258D01*
X86031437Y-93823097D01*
X86135903Y-93927563D01*
X86258742Y-94009641D01*
X86395233Y-94066178D01*
X86540131Y-94095000D01*
X86687869Y-94095000D01*
X86832767Y-94066178D01*
X86883895Y-94045000D01*
X89100500Y-94045000D01*
X89100501Y-99397207D01*
X89006465Y-99320033D01*
X88893670Y-99259743D01*
X88771281Y-99222617D01*
X88644000Y-99210081D01*
X88519000Y-99210081D01*
X88519000Y-96425887D01*
X88522387Y-96391500D01*
X88519000Y-96357110D01*
X88508872Y-96254276D01*
X88468845Y-96122325D01*
X88403845Y-96000719D01*
X88370069Y-95959563D01*
X88338292Y-95920842D01*
X88338287Y-95920837D01*
X88316369Y-95894130D01*
X88289663Y-95872213D01*
X87768296Y-95350847D01*
X87746370Y-95324130D01*
X87639781Y-95236655D01*
X87518175Y-95171655D01*
X87386224Y-95131628D01*
X87283390Y-95121500D01*
X87283387Y-95121500D01*
X87249000Y-95118113D01*
X87214613Y-95121500D01*
X84363950Y-95121500D01*
X83758000Y-94515551D01*
X83758000Y-93993591D01*
X83811649Y-93964915D01*
X84017213Y-93796213D01*
X84185915Y-93590649D01*
X84311272Y-93356122D01*
X84388467Y-93101646D01*
X84414532Y-92837000D01*
X84388467Y-92572354D01*
X84311272Y-92317878D01*
X84185915Y-92083351D01*
X84017213Y-91877787D01*
X83811649Y-91709085D01*
X83758000Y-91680409D01*
X83758000Y-88364449D01*
X88545158Y-83577291D01*
X88571869Y-83555370D01*
X88659345Y-83448781D01*
X88724345Y-83327175D01*
X88764372Y-83195224D01*
X88774500Y-83092390D01*
X88774500Y-83092388D01*
X88777887Y-83058001D01*
X88774500Y-83023614D01*
X88774500Y-76680449D01*
X94396949Y-71058000D01*
X95533113Y-71058000D01*
X95567500Y-71061387D01*
X95601887Y-71058000D01*
X95601890Y-71058000D01*
X95704724Y-71047872D01*
X95836675Y-71007845D01*
X95958281Y-70942845D01*
X96064870Y-70855370D01*
X96086796Y-70828653D01*
X97586131Y-69329319D01*
X97637258Y-69308141D01*
X97760097Y-69226063D01*
X97864563Y-69121597D01*
X97946641Y-68998758D01*
X98003178Y-68862267D01*
X98032000Y-68717369D01*
X98032000Y-68569631D01*
X98003178Y-68424733D01*
X97946641Y-68288242D01*
X97864563Y-68165403D01*
X97760097Y-68060937D01*
X97637258Y-67978859D01*
X97500767Y-67922322D01*
X97355869Y-67893500D01*
X97208131Y-67893500D01*
X97063233Y-67922322D01*
X96926742Y-67978859D01*
X96803903Y-68060937D01*
X96699437Y-68165403D01*
X96617359Y-68288242D01*
X96596181Y-68339369D01*
X95277551Y-69658000D01*
X94141386Y-69658000D01*
X94106999Y-69654613D01*
X94072612Y-69658000D01*
X94072610Y-69658000D01*
X93969776Y-69668128D01*
X93837825Y-69708155D01*
X93716219Y-69773155D01*
X93609630Y-69860630D01*
X93587704Y-69887347D01*
X87603842Y-75871209D01*
X87577131Y-75893130D01*
X87555210Y-75919841D01*
X87555208Y-75919843D01*
X87489655Y-75999719D01*
X87424655Y-76121326D01*
X87384629Y-76253277D01*
X87371113Y-76390500D01*
X87374501Y-76424897D01*
X87374500Y-82768051D01*
X82587342Y-87555209D01*
X82560631Y-87577130D01*
X82538710Y-87603841D01*
X82538708Y-87603843D01*
X82473155Y-87683719D01*
X82408155Y-87805326D01*
X82368129Y-87937277D01*
X82354613Y-88074500D01*
X82358001Y-88108897D01*
X82358000Y-91680409D01*
X82304351Y-91709085D01*
X82098787Y-91877787D01*
X81930085Y-92083351D01*
X81804728Y-92317878D01*
X81727533Y-92572354D01*
X81701468Y-92837000D01*
X81727533Y-93101646D01*
X81804728Y-93356122D01*
X81930085Y-93590649D01*
X82098787Y-93796213D01*
X82304351Y-93964915D01*
X82358001Y-93993591D01*
X82358001Y-94771103D01*
X82354613Y-94805500D01*
X82368129Y-94942723D01*
X82408155Y-95074674D01*
X82473155Y-95196281D01*
X82508851Y-95239776D01*
X82560631Y-95302870D01*
X82587342Y-95324791D01*
X83554707Y-96292157D01*
X83576630Y-96318870D01*
X83603341Y-96340791D01*
X83603342Y-96340792D01*
X83683218Y-96406345D01*
X83804825Y-96471345D01*
X83936776Y-96511372D01*
X84039610Y-96521500D01*
X84039613Y-96521500D01*
X84074000Y-96524887D01*
X84108387Y-96521500D01*
X86959051Y-96521500D01*
X87119000Y-96681450D01*
X87119001Y-99210081D01*
X86994000Y-99210081D01*
X86866719Y-99222617D01*
X86744330Y-99259743D01*
X86631535Y-99320033D01*
X86532670Y-99401170D01*
X86451533Y-99500035D01*
X86391243Y-99612830D01*
X86354117Y-99735219D01*
X86341581Y-99862500D01*
X86341581Y-100162500D01*
X86354117Y-100289781D01*
X86391243Y-100412170D01*
X86451533Y-100524965D01*
X86532670Y-100623830D01*
X86561512Y-100647500D01*
X86532670Y-100671170D01*
X86451533Y-100770035D01*
X86391243Y-100882830D01*
X86354117Y-101005219D01*
X86341581Y-101132500D01*
X86341581Y-101432500D01*
X86354117Y-101559781D01*
X86391243Y-101682170D01*
X86451533Y-101794965D01*
X86532670Y-101893830D01*
X86561512Y-101917500D01*
X86532670Y-101941170D01*
X86451533Y-102040035D01*
X86391243Y-102152830D01*
X86354117Y-102275219D01*
X86341581Y-102402500D01*
X86341581Y-102702500D01*
X86354117Y-102829781D01*
X86391243Y-102952170D01*
X86451533Y-103064965D01*
X86532670Y-103163830D01*
X86561512Y-103187500D01*
X86532670Y-103211170D01*
X86451533Y-103310035D01*
X86391243Y-103422830D01*
X86354117Y-103545219D01*
X86341581Y-103672500D01*
X86341581Y-103972500D01*
X86354117Y-104099781D01*
X86391243Y-104222170D01*
X86451533Y-104334965D01*
X86532670Y-104433830D01*
X86561512Y-104457500D01*
X86532670Y-104481170D01*
X86451533Y-104580035D01*
X86391243Y-104692830D01*
X86354117Y-104815219D01*
X86341581Y-104942500D01*
X86341581Y-105242500D01*
X86354117Y-105369781D01*
X86391243Y-105492170D01*
X86451533Y-105604965D01*
X86532670Y-105703830D01*
X86561512Y-105727500D01*
X86532670Y-105751170D01*
X86451533Y-105850035D01*
X86391243Y-105962830D01*
X86354117Y-106085219D01*
X86341581Y-106212500D01*
X86341581Y-106512500D01*
X86354117Y-106639781D01*
X86391243Y-106762170D01*
X86451533Y-106874965D01*
X86532670Y-106973830D01*
X86561512Y-106997500D01*
X86532670Y-107021170D01*
X86451533Y-107120035D01*
X86391243Y-107232830D01*
X86354117Y-107355219D01*
X86341581Y-107482500D01*
X86341581Y-107782500D01*
X86354117Y-107909781D01*
X86391243Y-108032170D01*
X86451533Y-108144965D01*
X86532670Y-108243830D01*
X86631535Y-108324967D01*
X86744330Y-108385257D01*
X86866719Y-108422383D01*
X86994000Y-108434919D01*
X88644000Y-108434919D01*
X88771281Y-108422383D01*
X88893670Y-108385257D01*
X88992372Y-108332500D01*
X89963605Y-108332500D01*
X90014733Y-108353678D01*
X90159631Y-108382500D01*
X90307369Y-108382500D01*
X90452267Y-108353678D01*
X90588758Y-108297141D01*
X90711597Y-108215063D01*
X90816063Y-108110597D01*
X90898141Y-107987758D01*
X90954678Y-107851267D01*
X90983500Y-107706369D01*
X90983500Y-107558631D01*
X90954678Y-107413733D01*
X90898141Y-107277242D01*
X90816063Y-107154403D01*
X90711597Y-107049937D01*
X90601369Y-106976285D01*
X90648097Y-106945063D01*
X90752563Y-106840597D01*
X90834641Y-106717758D01*
X90891178Y-106581267D01*
X90920000Y-106436369D01*
X90920000Y-106288631D01*
X90891178Y-106143733D01*
X90834641Y-106007242D01*
X90752563Y-105884403D01*
X90648097Y-105779937D01*
X90601369Y-105748715D01*
X90711597Y-105675063D01*
X90816063Y-105570597D01*
X90898141Y-105447758D01*
X90954678Y-105311267D01*
X90983500Y-105166369D01*
X90983500Y-105018631D01*
X90954678Y-104873733D01*
X90898141Y-104737242D01*
X90816063Y-104614403D01*
X90711597Y-104509937D01*
X90633119Y-104457500D01*
X90711597Y-104405063D01*
X90816063Y-104300597D01*
X90898141Y-104177758D01*
X90954678Y-104041267D01*
X90983500Y-103896369D01*
X90983500Y-103748631D01*
X90954678Y-103603733D01*
X90898141Y-103467242D01*
X90853535Y-103400485D01*
X91388500Y-103935450D01*
X91388500Y-104023369D01*
X91417322Y-104168267D01*
X91438501Y-104219397D01*
X91438500Y-107725113D01*
X91435113Y-107759500D01*
X91438500Y-107793887D01*
X91438500Y-107793889D01*
X91448628Y-107896723D01*
X91487019Y-108023281D01*
X91488655Y-108028674D01*
X91553655Y-108150281D01*
X91619208Y-108230157D01*
X91641130Y-108256869D01*
X91667843Y-108278792D01*
X93651209Y-110262158D01*
X93673130Y-110288870D01*
X93699841Y-110310791D01*
X93699842Y-110310792D01*
X93779718Y-110376345D01*
X93901325Y-110441345D01*
X94033276Y-110481372D01*
X94136110Y-110491500D01*
X94136113Y-110491500D01*
X94170500Y-110494887D01*
X94204887Y-110491500D01*
X102157909Y-110491500D01*
X102186585Y-110545149D01*
X102355287Y-110750713D01*
X102560851Y-110919415D01*
X102795378Y-111044772D01*
X102850522Y-111061500D01*
X102795378Y-111078228D01*
X102560851Y-111203585D01*
X102355287Y-111372287D01*
X102186585Y-111577851D01*
X102061228Y-111812378D01*
X101984033Y-112066854D01*
X101957968Y-112331500D01*
X101984033Y-112596146D01*
X102061228Y-112850622D01*
X102186585Y-113085149D01*
X102355287Y-113290713D01*
X102560851Y-113459415D01*
X102795378Y-113584772D01*
X103049854Y-113661967D01*
X103248179Y-113681500D01*
X103380821Y-113681500D01*
X103579146Y-113661967D01*
X103833622Y-113584772D01*
X104068149Y-113459415D01*
X104273713Y-113290713D01*
X104442415Y-113085149D01*
X104567772Y-112850622D01*
X104644967Y-112596146D01*
X104671032Y-112331500D01*
X104668748Y-112308301D01*
X116458000Y-112308301D01*
X116458000Y-112608699D01*
X116516605Y-112903326D01*
X116631562Y-113180858D01*
X116798455Y-113430631D01*
X117010869Y-113643045D01*
X117260642Y-113809938D01*
X117538174Y-113924895D01*
X117832801Y-113983500D01*
X118133199Y-113983500D01*
X118427826Y-113924895D01*
X118705358Y-113809938D01*
X118955131Y-113643045D01*
X119167545Y-113430631D01*
X119334438Y-113180858D01*
X119449395Y-112903326D01*
X119508000Y-112608699D01*
X119508000Y-112308301D01*
X119449395Y-112013674D01*
X119334438Y-111736142D01*
X119167545Y-111486369D01*
X118955131Y-111273955D01*
X118705358Y-111107062D01*
X118427826Y-110992105D01*
X118133199Y-110933500D01*
X117832801Y-110933500D01*
X117538174Y-110992105D01*
X117260642Y-111107062D01*
X117010869Y-111273955D01*
X116798455Y-111486369D01*
X116631562Y-111736142D01*
X116516605Y-112013674D01*
X116458000Y-112308301D01*
X104668748Y-112308301D01*
X104644967Y-112066854D01*
X104567772Y-111812378D01*
X104442415Y-111577851D01*
X104273713Y-111372287D01*
X104068149Y-111203585D01*
X103833622Y-111078228D01*
X103778478Y-111061500D01*
X103833622Y-111044772D01*
X104068149Y-110919415D01*
X104273713Y-110750713D01*
X104442415Y-110545149D01*
X104567772Y-110310622D01*
X104644967Y-110056146D01*
X104671032Y-109791500D01*
X104644967Y-109526854D01*
X104567772Y-109272378D01*
X104442415Y-109037851D01*
X104273713Y-108832287D01*
X104068149Y-108663585D01*
X103956522Y-108603919D01*
X104164500Y-108603919D01*
X104262517Y-108594265D01*
X104356767Y-108565675D01*
X104443629Y-108519246D01*
X104519764Y-108456764D01*
X104582246Y-108380629D01*
X104628675Y-108293767D01*
X104657265Y-108199517D01*
X104666919Y-108101500D01*
X104666919Y-106401500D01*
X104657265Y-106303483D01*
X104628675Y-106209233D01*
X104582246Y-106122371D01*
X104519764Y-106046236D01*
X104443629Y-105983754D01*
X104356767Y-105937325D01*
X104262517Y-105908735D01*
X104164500Y-105899081D01*
X102464500Y-105899081D01*
X102366483Y-105908735D01*
X102272233Y-105937325D01*
X102185371Y-105983754D01*
X102109236Y-106046236D01*
X102046754Y-106122371D01*
X102000325Y-106209233D01*
X101971735Y-106303483D01*
X101962081Y-106401500D01*
X101962081Y-106551500D01*
X95412950Y-106551500D01*
X94235500Y-105374051D01*
X94235500Y-103539390D01*
X94238887Y-103505000D01*
X94225372Y-103367776D01*
X94185345Y-103235825D01*
X94120345Y-103114219D01*
X94054792Y-103034342D01*
X94054787Y-103034337D01*
X94032869Y-103007630D01*
X94006163Y-102985713D01*
X91832296Y-100811847D01*
X91810370Y-100785130D01*
X91703781Y-100697655D01*
X91582175Y-100632655D01*
X91450224Y-100592628D01*
X91347390Y-100582500D01*
X91347387Y-100582500D01*
X91313000Y-100579113D01*
X91278613Y-100582500D01*
X90350500Y-100582500D01*
X90350500Y-100143153D01*
X90412937Y-100236597D01*
X90517403Y-100341063D01*
X90640242Y-100423141D01*
X90776733Y-100479678D01*
X90921631Y-100508500D01*
X91069369Y-100508500D01*
X91214267Y-100479678D01*
X91350758Y-100423141D01*
X91473597Y-100341063D01*
X91578063Y-100236597D01*
X91660141Y-100113758D01*
X91716678Y-99977267D01*
X91745500Y-99832369D01*
X91745500Y-99684631D01*
X91742948Y-99671801D01*
X98614500Y-99671801D01*
X98614500Y-99972199D01*
X98673105Y-100266826D01*
X98788062Y-100544358D01*
X98954955Y-100794131D01*
X99167369Y-101006545D01*
X99417142Y-101173438D01*
X99694674Y-101288395D01*
X99989301Y-101347000D01*
X100289699Y-101347000D01*
X100584326Y-101288395D01*
X100861858Y-101173438D01*
X101111631Y-101006545D01*
X101324045Y-100794131D01*
X101490938Y-100544358D01*
X101605895Y-100266826D01*
X101664500Y-99972199D01*
X101664500Y-99671801D01*
X101605895Y-99377174D01*
X101490938Y-99099642D01*
X101324045Y-98849869D01*
X101111631Y-98637455D01*
X100861858Y-98470562D01*
X100584326Y-98355605D01*
X100289699Y-98297000D01*
X99989301Y-98297000D01*
X99694674Y-98355605D01*
X99417142Y-98470562D01*
X99167369Y-98637455D01*
X98954955Y-98849869D01*
X98788062Y-99099642D01*
X98673105Y-99377174D01*
X98614500Y-99671801D01*
X91742948Y-99671801D01*
X91716678Y-99539733D01*
X91660141Y-99403242D01*
X91578063Y-99280403D01*
X91473597Y-99175937D01*
X91350758Y-99093859D01*
X91214267Y-99037322D01*
X91144284Y-99023402D01*
X91049000Y-98928118D01*
X91049000Y-94429382D01*
X91889383Y-93589000D01*
X94711306Y-93589000D01*
X94742000Y-93592023D01*
X94772694Y-93589000D01*
X94772704Y-93589000D01*
X94864521Y-93579957D01*
X94982334Y-93544219D01*
X95090911Y-93486183D01*
X95186080Y-93408080D01*
X95205658Y-93384224D01*
X96940229Y-91649654D01*
X96964080Y-91630080D01*
X97002381Y-91583410D01*
X97042183Y-91534912D01*
X97083250Y-91458080D01*
X97100219Y-91426334D01*
X97135957Y-91308521D01*
X97145000Y-91216704D01*
X97145000Y-91216702D01*
X97148024Y-91186000D01*
X97145000Y-91155298D01*
X97145000Y-86604000D01*
X98813371Y-86604000D01*
X98694085Y-86749351D01*
X98568728Y-86983878D01*
X98491533Y-87238354D01*
X98465468Y-87503000D01*
X98491533Y-87767646D01*
X98568728Y-88022122D01*
X98694085Y-88256649D01*
X98862787Y-88462213D01*
X99068351Y-88630915D01*
X99302878Y-88756272D01*
X99557354Y-88833467D01*
X99755679Y-88853000D01*
X99888321Y-88853000D01*
X100086646Y-88833467D01*
X100341122Y-88756272D01*
X100575649Y-88630915D01*
X100781213Y-88462213D01*
X100949915Y-88256649D01*
X101009581Y-88145022D01*
X101009581Y-88353000D01*
X101019235Y-88451017D01*
X101047825Y-88545267D01*
X101094254Y-88632129D01*
X101156736Y-88708264D01*
X101232871Y-88770746D01*
X101319733Y-88817175D01*
X101413983Y-88845765D01*
X101512000Y-88855419D01*
X103212000Y-88855419D01*
X103310017Y-88845765D01*
X103404267Y-88817175D01*
X103491129Y-88770746D01*
X103567264Y-88708264D01*
X103629746Y-88632129D01*
X103676175Y-88545267D01*
X103704765Y-88451017D01*
X103714419Y-88353000D01*
X103714419Y-86653000D01*
X103709593Y-86604000D01*
X104887907Y-86604000D01*
X104883081Y-86653000D01*
X104883081Y-88353000D01*
X104892735Y-88451017D01*
X104921325Y-88545267D01*
X104967754Y-88632129D01*
X105030236Y-88708264D01*
X105106371Y-88770746D01*
X105193233Y-88817175D01*
X105287483Y-88845765D01*
X105385500Y-88855419D01*
X105535500Y-88855419D01*
X105535501Y-90770603D01*
X105532113Y-90805000D01*
X105545629Y-90942223D01*
X105585655Y-91074174D01*
X105650655Y-91195781D01*
X105716208Y-91275657D01*
X106361000Y-91920449D01*
X106361001Y-105899081D01*
X106211000Y-105899081D01*
X106112983Y-105908735D01*
X106018733Y-105937325D01*
X105931871Y-105983754D01*
X105855736Y-106046236D01*
X105793254Y-106122371D01*
X105746825Y-106209233D01*
X105718235Y-106303483D01*
X105708581Y-106401500D01*
X105708581Y-108101500D01*
X105718235Y-108199517D01*
X105746825Y-108293767D01*
X105793254Y-108380629D01*
X105855736Y-108456764D01*
X105931871Y-108519246D01*
X106018733Y-108565675D01*
X106112983Y-108594265D01*
X106211000Y-108603919D01*
X106418978Y-108603919D01*
X106307351Y-108663585D01*
X106101787Y-108832287D01*
X105933085Y-109037851D01*
X105807728Y-109272378D01*
X105730533Y-109526854D01*
X105704468Y-109791500D01*
X105730533Y-110056146D01*
X105807728Y-110310622D01*
X105933085Y-110545149D01*
X106101787Y-110750713D01*
X106307351Y-110919415D01*
X106541878Y-111044772D01*
X106796354Y-111121967D01*
X106994679Y-111141500D01*
X107127321Y-111141500D01*
X107325646Y-111121967D01*
X107580122Y-111044772D01*
X107814649Y-110919415D01*
X108020213Y-110750713D01*
X108188915Y-110545149D01*
X108314272Y-110310622D01*
X108391467Y-110056146D01*
X108417532Y-109791500D01*
X108391467Y-109526854D01*
X108314272Y-109272378D01*
X108188915Y-109037851D01*
X108020213Y-108832287D01*
X107814649Y-108663585D01*
X107703022Y-108603919D01*
X107911000Y-108603919D01*
X108009017Y-108594265D01*
X108103267Y-108565675D01*
X108190129Y-108519246D01*
X108266264Y-108456764D01*
X108328746Y-108380629D01*
X108375175Y-108293767D01*
X108403765Y-108199517D01*
X108413419Y-108101500D01*
X108413419Y-107951500D01*
X109947613Y-107951500D01*
X109982000Y-107954887D01*
X110016387Y-107951500D01*
X110016390Y-107951500D01*
X110119224Y-107941372D01*
X110251175Y-107901345D01*
X110372781Y-107836345D01*
X110479370Y-107748870D01*
X110501296Y-107722153D01*
X111605450Y-106618000D01*
X122584113Y-106618000D01*
X122618500Y-106621387D01*
X122652887Y-106618000D01*
X122652890Y-106618000D01*
X122755724Y-106607872D01*
X122887675Y-106567845D01*
X123009281Y-106502845D01*
X123115870Y-106415370D01*
X123137796Y-106388653D01*
X124486153Y-105040296D01*
X124512870Y-105018370D01*
X124600345Y-104911781D01*
X124665345Y-104790175D01*
X124705372Y-104658224D01*
X124715500Y-104555390D01*
X124715500Y-104555388D01*
X124718887Y-104521001D01*
X124715500Y-104486614D01*
X124715500Y-102397949D01*
X127099450Y-100014000D01*
X127235081Y-100014000D01*
X127235081Y-100164000D01*
X127244735Y-100262017D01*
X127273325Y-100356267D01*
X127319754Y-100443129D01*
X127382236Y-100519264D01*
X127458371Y-100581746D01*
X127545233Y-100628175D01*
X127639483Y-100656765D01*
X127737500Y-100666419D01*
X127945478Y-100666419D01*
X127833851Y-100726085D01*
X127628287Y-100894787D01*
X127459585Y-101100351D01*
X127334228Y-101334878D01*
X127257033Y-101589354D01*
X127230968Y-101854000D01*
X127257033Y-102118646D01*
X127334228Y-102373122D01*
X127459585Y-102607649D01*
X127628287Y-102813213D01*
X127833851Y-102981915D01*
X128068378Y-103107272D01*
X128322854Y-103184467D01*
X128521179Y-103204000D01*
X128653821Y-103204000D01*
X128852146Y-103184467D01*
X129106622Y-103107272D01*
X129341149Y-102981915D01*
X129546713Y-102813213D01*
X129715415Y-102607649D01*
X129840772Y-102373122D01*
X129917967Y-102118646D01*
X129944032Y-101854000D01*
X129917967Y-101589354D01*
X129840772Y-101334878D01*
X129715415Y-101100351D01*
X129546713Y-100894787D01*
X129341149Y-100726085D01*
X129229522Y-100666419D01*
X129437500Y-100666419D01*
X129535517Y-100656765D01*
X129629767Y-100628175D01*
X129716629Y-100581746D01*
X129792764Y-100519264D01*
X129855246Y-100443129D01*
X129901675Y-100356267D01*
X129930265Y-100262017D01*
X129939919Y-100164000D01*
X129939919Y-98464000D01*
X129930265Y-98365983D01*
X129901675Y-98271733D01*
X129855246Y-98184871D01*
X129792764Y-98108736D01*
X129716629Y-98046254D01*
X129629767Y-97999825D01*
X129535517Y-97971235D01*
X129437500Y-97961581D01*
X129287500Y-97961581D01*
X129287500Y-94269949D01*
X133122159Y-90435291D01*
X133148870Y-90413370D01*
X133173220Y-90383699D01*
X133236345Y-90306782D01*
X133301345Y-90185175D01*
X133302723Y-90180631D01*
X133332248Y-90083301D01*
X137286000Y-90083301D01*
X137286000Y-90383699D01*
X137344605Y-90678326D01*
X137459562Y-90955858D01*
X137626455Y-91205631D01*
X137838869Y-91418045D01*
X138088642Y-91584938D01*
X138366174Y-91699895D01*
X138660801Y-91758500D01*
X138961199Y-91758500D01*
X139255826Y-91699895D01*
X139533358Y-91584938D01*
X139783131Y-91418045D01*
X139995545Y-91205631D01*
X140162438Y-90955858D01*
X140277395Y-90678326D01*
X140336000Y-90383699D01*
X140336000Y-90083301D01*
X140277395Y-89788674D01*
X140162438Y-89511142D01*
X139995545Y-89261369D01*
X139783131Y-89048955D01*
X139533358Y-88882062D01*
X139255826Y-88767105D01*
X138961199Y-88708500D01*
X138660801Y-88708500D01*
X138366174Y-88767105D01*
X138088642Y-88882062D01*
X137838869Y-89048955D01*
X137626455Y-89261369D01*
X137459562Y-89511142D01*
X137344605Y-89788674D01*
X137286000Y-90083301D01*
X133332248Y-90083301D01*
X133341372Y-90053224D01*
X133351500Y-89950390D01*
X133351500Y-89950387D01*
X133354887Y-89916000D01*
X133351500Y-89881610D01*
X133351500Y-75862159D01*
X134676660Y-74537000D01*
X139409173Y-74537000D01*
X139446000Y-74540627D01*
X139482827Y-74537000D01*
X139482835Y-74537000D01*
X139593026Y-74526147D01*
X139734401Y-74483261D01*
X139864693Y-74413619D01*
X139978895Y-74319895D01*
X140002378Y-74291281D01*
X141283787Y-73009873D01*
X141312395Y-72986395D01*
X141406119Y-72872193D01*
X141475761Y-72741901D01*
X141518647Y-72600526D01*
X141529500Y-72490335D01*
X141529500Y-72490328D01*
X141533127Y-72453500D01*
X141529500Y-72416672D01*
X141529500Y-71741865D01*
X141533149Y-71739915D01*
X141738713Y-71571213D01*
X141907415Y-71365649D01*
X142032772Y-71131122D01*
X142109967Y-70876646D01*
X142136032Y-70612000D01*
X142109967Y-70347354D01*
X142032772Y-70092878D01*
X141907415Y-69858351D01*
X141738713Y-69652787D01*
X141533149Y-69484085D01*
X141298622Y-69358728D01*
X141044146Y-69281533D01*
X140845821Y-69262000D01*
X140713179Y-69262000D01*
X140514854Y-69281533D01*
X140260378Y-69358728D01*
X140025851Y-69484085D01*
X139820287Y-69652787D01*
X139651585Y-69858351D01*
X139591919Y-69969978D01*
X139591919Y-69762000D01*
X139582265Y-69663983D01*
X139553675Y-69569733D01*
X139507246Y-69482871D01*
X139444764Y-69406736D01*
X139368629Y-69344254D01*
X139281767Y-69297825D01*
X139187517Y-69269235D01*
X139089500Y-69259581D01*
X137389500Y-69259581D01*
X137291483Y-69269235D01*
X137197233Y-69297825D01*
X137110371Y-69344254D01*
X137034236Y-69406736D01*
X136971754Y-69482871D01*
X136925325Y-69569733D01*
X136896735Y-69663983D01*
X136887081Y-69762000D01*
X136887081Y-71462000D01*
X136896735Y-71560017D01*
X136925325Y-71654267D01*
X136971754Y-71741129D01*
X137034236Y-71817264D01*
X137110371Y-71879746D01*
X137197233Y-71926175D01*
X137291483Y-71954765D01*
X137389500Y-71964419D01*
X139089500Y-71964419D01*
X139187517Y-71954765D01*
X139281767Y-71926175D01*
X139368629Y-71879746D01*
X139444764Y-71817264D01*
X139507246Y-71741129D01*
X139553675Y-71654267D01*
X139582265Y-71560017D01*
X139591919Y-71462000D01*
X139591919Y-71254022D01*
X139651585Y-71365649D01*
X139820287Y-71571213D01*
X140025851Y-71739915D01*
X140029500Y-71741866D01*
X140029500Y-72142840D01*
X139135341Y-73037000D01*
X134402827Y-73037000D01*
X134365999Y-73033373D01*
X134329172Y-73037000D01*
X134329165Y-73037000D01*
X134218974Y-73047853D01*
X134077599Y-73090739D01*
X133947307Y-73160381D01*
X133833105Y-73254105D01*
X133809626Y-73282714D01*
X132095124Y-74997217D01*
X132024882Y-75082808D01*
X131955239Y-75213100D01*
X131912353Y-75354475D01*
X131897873Y-75501500D01*
X131912353Y-75648525D01*
X131951500Y-75777574D01*
X131951501Y-89626049D01*
X128116843Y-93460708D01*
X128090130Y-93482631D01*
X128068209Y-93509342D01*
X128068208Y-93509343D01*
X128002655Y-93589219D01*
X127989316Y-93614175D01*
X127937655Y-93710826D01*
X127897628Y-93842777D01*
X127889278Y-93927563D01*
X127884113Y-93980000D01*
X127887500Y-94014387D01*
X127887501Y-97961581D01*
X127737500Y-97961581D01*
X127639483Y-97971235D01*
X127545233Y-97999825D01*
X127458371Y-98046254D01*
X127382236Y-98108736D01*
X127319754Y-98184871D01*
X127273325Y-98271733D01*
X127244735Y-98365983D01*
X127235081Y-98464000D01*
X127235081Y-98614000D01*
X126843887Y-98614000D01*
X126809500Y-98610613D01*
X126775113Y-98614000D01*
X126775110Y-98614000D01*
X126672276Y-98624128D01*
X126540325Y-98664155D01*
X126418719Y-98729155D01*
X126312130Y-98816630D01*
X126290209Y-98843341D01*
X123544843Y-101588708D01*
X123518130Y-101610631D01*
X123496209Y-101637342D01*
X123496208Y-101637343D01*
X123430655Y-101717219D01*
X123389099Y-101794965D01*
X123365655Y-101838826D01*
X123325628Y-101970777D01*
X123317320Y-102055131D01*
X123312113Y-102108000D01*
X123315500Y-102142387D01*
X123315501Y-104231050D01*
X122328551Y-105218000D01*
X111349887Y-105218000D01*
X111315500Y-105214613D01*
X111281113Y-105218000D01*
X111281110Y-105218000D01*
X111178276Y-105228128D01*
X111046325Y-105268155D01*
X110924719Y-105333155D01*
X110818130Y-105420630D01*
X110796208Y-105447342D01*
X109692051Y-106551500D01*
X108413419Y-106551500D01*
X108413419Y-106401500D01*
X108403765Y-106303483D01*
X108375175Y-106209233D01*
X108328746Y-106122371D01*
X108266264Y-106046236D01*
X108190129Y-105983754D01*
X108103267Y-105937325D01*
X108009017Y-105908735D01*
X107911000Y-105899081D01*
X107761000Y-105899081D01*
X107761000Y-99671801D01*
X114426000Y-99671801D01*
X114426000Y-99972199D01*
X114484605Y-100266826D01*
X114599562Y-100544358D01*
X114766455Y-100794131D01*
X114978869Y-101006545D01*
X115228642Y-101173438D01*
X115506174Y-101288395D01*
X115800801Y-101347000D01*
X116101199Y-101347000D01*
X116395826Y-101288395D01*
X116673358Y-101173438D01*
X116923131Y-101006545D01*
X117135545Y-100794131D01*
X117302438Y-100544358D01*
X117417395Y-100266826D01*
X117476000Y-99972199D01*
X117476000Y-99671801D01*
X117417395Y-99377174D01*
X117302438Y-99099642D01*
X117135545Y-98849869D01*
X116923131Y-98637455D01*
X116673358Y-98470562D01*
X116395826Y-98355605D01*
X116101199Y-98297000D01*
X115800801Y-98297000D01*
X115506174Y-98355605D01*
X115228642Y-98470562D01*
X114978869Y-98637455D01*
X114766455Y-98849869D01*
X114599562Y-99099642D01*
X114484605Y-99377174D01*
X114426000Y-99671801D01*
X107761000Y-99671801D01*
X107761000Y-91664886D01*
X107764387Y-91630499D01*
X107761000Y-91596112D01*
X107761000Y-91583410D01*
X107750872Y-91480576D01*
X107710845Y-91348625D01*
X107645845Y-91227019D01*
X107558369Y-91120430D01*
X107460836Y-91040387D01*
X106935500Y-90515051D01*
X106935500Y-88855419D01*
X107085500Y-88855419D01*
X107183517Y-88845765D01*
X107277767Y-88817175D01*
X107364629Y-88770746D01*
X107440764Y-88708264D01*
X107503246Y-88632129D01*
X107549675Y-88545267D01*
X107578265Y-88451017D01*
X107587919Y-88353000D01*
X107587919Y-88145022D01*
X107647585Y-88256649D01*
X107816287Y-88462213D01*
X108021851Y-88630915D01*
X108150500Y-88699679D01*
X108150500Y-89123296D01*
X108147476Y-89154000D01*
X108159543Y-89276521D01*
X108195281Y-89394334D01*
X108253317Y-89502911D01*
X108331420Y-89598080D01*
X108426589Y-89676183D01*
X108535166Y-89734219D01*
X108652979Y-89769957D01*
X108744796Y-89779000D01*
X108775500Y-89782024D01*
X108806204Y-89779000D01*
X113948915Y-89779000D01*
X114008242Y-89818641D01*
X114144733Y-89875178D01*
X114289631Y-89904000D01*
X114437369Y-89904000D01*
X114582267Y-89875178D01*
X114718758Y-89818641D01*
X114778085Y-89779000D01*
X116491806Y-89779000D01*
X116522500Y-89782023D01*
X116553194Y-89779000D01*
X116553204Y-89779000D01*
X116645021Y-89769957D01*
X116762834Y-89734219D01*
X116871411Y-89676183D01*
X116966580Y-89598080D01*
X116986158Y-89574224D01*
X117768230Y-88792153D01*
X117792080Y-88772580D01*
X117844863Y-88708264D01*
X117870182Y-88677413D01*
X117928218Y-88568836D01*
X117963956Y-88451023D01*
X117963957Y-88451021D01*
X117973000Y-88359204D01*
X117973000Y-88359195D01*
X117976023Y-88328501D01*
X117973000Y-88297807D01*
X117973000Y-69372693D01*
X117976023Y-69341999D01*
X117973000Y-69311305D01*
X117973000Y-69311296D01*
X117963957Y-69219479D01*
X117928219Y-69101666D01*
X117883243Y-69017523D01*
X117870182Y-68993087D01*
X117811652Y-68921768D01*
X117811649Y-68921765D01*
X117792080Y-68897920D01*
X117768234Y-68878350D01*
X116859158Y-67969276D01*
X116839580Y-67945420D01*
X116744411Y-67867317D01*
X116635834Y-67809281D01*
X116518021Y-67773543D01*
X116426204Y-67764500D01*
X116426194Y-67764500D01*
X116395500Y-67761477D01*
X116364806Y-67764500D01*
X103065383Y-67764500D01*
X102785000Y-67484118D01*
X102785000Y-66786679D01*
X102913649Y-66717915D01*
X103119213Y-66549213D01*
X103287915Y-66343649D01*
X103413272Y-66109122D01*
X103430000Y-66053978D01*
X103446728Y-66109122D01*
X103572085Y-66343649D01*
X103740787Y-66549213D01*
X103946351Y-66717915D01*
X104180878Y-66843272D01*
X104435354Y-66920467D01*
X104633679Y-66940000D01*
X104766321Y-66940000D01*
X104964646Y-66920467D01*
X105219122Y-66843272D01*
X105453649Y-66717915D01*
X105659213Y-66549213D01*
X105827915Y-66343649D01*
X105953272Y-66109122D01*
X105970000Y-66053978D01*
X105986728Y-66109122D01*
X106112085Y-66343649D01*
X106280787Y-66549213D01*
X106486351Y-66717915D01*
X106720878Y-66843272D01*
X106975354Y-66920467D01*
X107173679Y-66940000D01*
X107306321Y-66940000D01*
X107504646Y-66920467D01*
X107759122Y-66843272D01*
X107993649Y-66717915D01*
X108199213Y-66549213D01*
X108367915Y-66343649D01*
X108493272Y-66109122D01*
X108510000Y-66053978D01*
X108526728Y-66109122D01*
X108652085Y-66343649D01*
X108820787Y-66549213D01*
X109026351Y-66717915D01*
X109260878Y-66843272D01*
X109515354Y-66920467D01*
X109713679Y-66940000D01*
X109846321Y-66940000D01*
X110044646Y-66920467D01*
X110299122Y-66843272D01*
X110533649Y-66717915D01*
X110739213Y-66549213D01*
X110907915Y-66343649D01*
X111033272Y-66109122D01*
X111050000Y-66053978D01*
X111066728Y-66109122D01*
X111192085Y-66343649D01*
X111360787Y-66549213D01*
X111566351Y-66717915D01*
X111800878Y-66843272D01*
X112055354Y-66920467D01*
X112253679Y-66940000D01*
X112386321Y-66940000D01*
X112584646Y-66920467D01*
X112839122Y-66843272D01*
X113073649Y-66717915D01*
X113279213Y-66549213D01*
X113447915Y-66343649D01*
X113573272Y-66109122D01*
X113590000Y-66053978D01*
X113606728Y-66109122D01*
X113732085Y-66343649D01*
X113900787Y-66549213D01*
X114106351Y-66717915D01*
X114340878Y-66843272D01*
X114595354Y-66920467D01*
X114793679Y-66940000D01*
X114926321Y-66940000D01*
X115124646Y-66920467D01*
X115379122Y-66843272D01*
X115613649Y-66717915D01*
X115819213Y-66549213D01*
X115987915Y-66343649D01*
X116113272Y-66109122D01*
X116190467Y-65854646D01*
X116216532Y-65590000D01*
X116190467Y-65325354D01*
X116113272Y-65070878D01*
X115987915Y-64836351D01*
X115819213Y-64630787D01*
X115613649Y-64462085D01*
X115379122Y-64336728D01*
X115323978Y-64320000D01*
X115379122Y-64303272D01*
X115613649Y-64177915D01*
X115819213Y-64009213D01*
X115987915Y-63803649D01*
X116113272Y-63569122D01*
X116130000Y-63513978D01*
X116146728Y-63569122D01*
X116272085Y-63803649D01*
X116440787Y-64009213D01*
X116646351Y-64177915D01*
X116880878Y-64303272D01*
X117135354Y-64380467D01*
X117333679Y-64400000D01*
X117466321Y-64400000D01*
X117664646Y-64380467D01*
X117919122Y-64303272D01*
X118153649Y-64177915D01*
X118359213Y-64009213D01*
X118527915Y-63803649D01*
X118653272Y-63569122D01*
X118670000Y-63513978D01*
X118686728Y-63569122D01*
X118812085Y-63803649D01*
X118980787Y-64009213D01*
X119186351Y-64177915D01*
X119420878Y-64303272D01*
X119476022Y-64320000D01*
X119420878Y-64336728D01*
X119186351Y-64462085D01*
X118980787Y-64630787D01*
X118812085Y-64836351D01*
X118686728Y-65070878D01*
X118609533Y-65325354D01*
X118583468Y-65590000D01*
X118609533Y-65854646D01*
X118686728Y-66109122D01*
X118812085Y-66343649D01*
X118980787Y-66549213D01*
X119186351Y-66717915D01*
X119420878Y-66843272D01*
X119675354Y-66920467D01*
X119873679Y-66940000D01*
X120006321Y-66940000D01*
X120204646Y-66920467D01*
X120459122Y-66843272D01*
X120693649Y-66717915D01*
X120899213Y-66549213D01*
X121067915Y-66343649D01*
X121193272Y-66109122D01*
X121210000Y-66053978D01*
X121226728Y-66109122D01*
X121352085Y-66343649D01*
X121520787Y-66549213D01*
X121726351Y-66717915D01*
X121960878Y-66843272D01*
X122215354Y-66920467D01*
X122413679Y-66940000D01*
X122546321Y-66940000D01*
X122744646Y-66920467D01*
X122999122Y-66843272D01*
X123233649Y-66717915D01*
X123439213Y-66549213D01*
X123607915Y-66343649D01*
X123733272Y-66109122D01*
X123750000Y-66053978D01*
X123766728Y-66109122D01*
X123892085Y-66343649D01*
X124060787Y-66549213D01*
X124266351Y-66717915D01*
X124500878Y-66843272D01*
X124755354Y-66920467D01*
X124953679Y-66940000D01*
X125086321Y-66940000D01*
X125284646Y-66920467D01*
X125539122Y-66843272D01*
X125773649Y-66717915D01*
X125979213Y-66549213D01*
X126147915Y-66343649D01*
X126273272Y-66109122D01*
X126290000Y-66053978D01*
X126306728Y-66109122D01*
X126432085Y-66343649D01*
X126600787Y-66549213D01*
X126806351Y-66717915D01*
X127040878Y-66843272D01*
X127295354Y-66920467D01*
X127493679Y-66940000D01*
X127626321Y-66940000D01*
X127824646Y-66920467D01*
X128079122Y-66843272D01*
X128313649Y-66717915D01*
X128519213Y-66549213D01*
X128687915Y-66343649D01*
X128813272Y-66109122D01*
X128830000Y-66053978D01*
X128846728Y-66109122D01*
X128972085Y-66343649D01*
X129140787Y-66549213D01*
X129346351Y-66717915D01*
X129580878Y-66843272D01*
X129835354Y-66920467D01*
X130033679Y-66940000D01*
X130166321Y-66940000D01*
X130364646Y-66920467D01*
X130619122Y-66843272D01*
X130743800Y-66776630D01*
X130743800Y-68800415D01*
X130704159Y-68859742D01*
X130647622Y-68996233D01*
X130618800Y-69141131D01*
X130618800Y-69288869D01*
X130647622Y-69433767D01*
X130704159Y-69570258D01*
X130786237Y-69693097D01*
X130890703Y-69797563D01*
X131013542Y-69879641D01*
X131150033Y-69936178D01*
X131220016Y-69950099D01*
X132030702Y-70760784D01*
X132044622Y-70830767D01*
X132101159Y-70967258D01*
X132183237Y-71090097D01*
X132287703Y-71194563D01*
X132410542Y-71276641D01*
X132547033Y-71333178D01*
X132691931Y-71362000D01*
X132839669Y-71362000D01*
X132984567Y-71333178D01*
X133121058Y-71276641D01*
X133243897Y-71194563D01*
X133348363Y-71090097D01*
X133430441Y-70967258D01*
X133486978Y-70830767D01*
X133515800Y-70685869D01*
X133515800Y-70538131D01*
X133514821Y-70533207D01*
X134709000Y-70533207D01*
X134709000Y-70690793D01*
X134739743Y-70845351D01*
X134800049Y-70990942D01*
X134887599Y-71121970D01*
X134999030Y-71233401D01*
X135130058Y-71320951D01*
X135275649Y-71381257D01*
X135430207Y-71412000D01*
X135587793Y-71412000D01*
X135742351Y-71381257D01*
X135887942Y-71320951D01*
X136018970Y-71233401D01*
X136130401Y-71121970D01*
X136217951Y-70990942D01*
X136278257Y-70845351D01*
X136309000Y-70690793D01*
X136309000Y-70533207D01*
X136278257Y-70378649D01*
X136217951Y-70233058D01*
X136130401Y-70102030D01*
X136018970Y-69990599D01*
X135887942Y-69903049D01*
X135742351Y-69842743D01*
X135587793Y-69812000D01*
X135430207Y-69812000D01*
X135275649Y-69842743D01*
X135130058Y-69903049D01*
X134999030Y-69990599D01*
X134887599Y-70102030D01*
X134800049Y-70233058D01*
X134739743Y-70378649D01*
X134709000Y-70533207D01*
X133514821Y-70533207D01*
X133486978Y-70393233D01*
X133430441Y-70256742D01*
X133348363Y-70133903D01*
X133243897Y-70029437D01*
X133121058Y-69947359D01*
X132984567Y-69890822D01*
X132914584Y-69876902D01*
X132103899Y-69066216D01*
X132089978Y-68996233D01*
X132033441Y-68859742D01*
X131993800Y-68800415D01*
X131993800Y-66775348D01*
X132120878Y-66843272D01*
X132375354Y-66920467D01*
X132573679Y-66940000D01*
X132706321Y-66940000D01*
X132904646Y-66920467D01*
X133159122Y-66843272D01*
X133393649Y-66717915D01*
X133599213Y-66549213D01*
X133767915Y-66343649D01*
X133893272Y-66109122D01*
X133970467Y-65854646D01*
X133996532Y-65590000D01*
X133970467Y-65325354D01*
X133893272Y-65070878D01*
X133767915Y-64836351D01*
X133599213Y-64630787D01*
X133393649Y-64462085D01*
X133159122Y-64336728D01*
X133103978Y-64320000D01*
X133159122Y-64303272D01*
X133393649Y-64177915D01*
X133599213Y-64009213D01*
X133767915Y-63803649D01*
X133893272Y-63569122D01*
X133910000Y-63513978D01*
X133926728Y-63569122D01*
X134052085Y-63803649D01*
X134220787Y-64009213D01*
X134426351Y-64177915D01*
X134660878Y-64303272D01*
X134915354Y-64380467D01*
X135113679Y-64400000D01*
X135246321Y-64400000D01*
X135444646Y-64380467D01*
X135699122Y-64303272D01*
X135933649Y-64177915D01*
X136139213Y-64009213D01*
X136307915Y-63803649D01*
X136433272Y-63569122D01*
X136510467Y-63314646D01*
X136536532Y-63050000D01*
X136510467Y-62785354D01*
X136433272Y-62530878D01*
X136307915Y-62296351D01*
X136139213Y-62090787D01*
X135933649Y-61922085D01*
X135699122Y-61796728D01*
X135444646Y-61719533D01*
X135246321Y-61700000D01*
X135113679Y-61700000D01*
X134915354Y-61719533D01*
X134660878Y-61796728D01*
X134426351Y-61922085D01*
X134220787Y-62090787D01*
X134052085Y-62296351D01*
X133926728Y-62530878D01*
X133910000Y-62586022D01*
X133893272Y-62530878D01*
X133767915Y-62296351D01*
X133599213Y-62090787D01*
X133393649Y-61922085D01*
X133159122Y-61796728D01*
X132904646Y-61719533D01*
X132706321Y-61700000D01*
X132573679Y-61700000D01*
X132375354Y-61719533D01*
X132120878Y-61796728D01*
X131993800Y-61864652D01*
X131993800Y-61854293D01*
X131996823Y-61823599D01*
X131993800Y-61792905D01*
X131993800Y-61792896D01*
X131984757Y-61701079D01*
X131949019Y-61583266D01*
X131896200Y-61484449D01*
X131890982Y-61474687D01*
X131857395Y-61433762D01*
X131823623Y-61392611D01*
X138769483Y-61392611D01*
X138524232Y-61494197D01*
X138000119Y-61844398D01*
X137554398Y-62290119D01*
X137204197Y-62814232D01*
X136962975Y-63396595D01*
X136840000Y-64014828D01*
X136840000Y-64645172D01*
X136962975Y-65263405D01*
X137204197Y-65845768D01*
X137554398Y-66369881D01*
X138000119Y-66815602D01*
X138524232Y-67165803D01*
X139106595Y-67407025D01*
X139724828Y-67530000D01*
X140355172Y-67530000D01*
X140973405Y-67407025D01*
X141555768Y-67165803D01*
X142079881Y-66815602D01*
X142525602Y-66369881D01*
X142875803Y-65845768D01*
X142971357Y-65615080D01*
X142971351Y-112049049D01*
X142865803Y-111794232D01*
X142515602Y-111270119D01*
X142069881Y-110824398D01*
X141545768Y-110474197D01*
X140963405Y-110232975D01*
X140345172Y-110110000D01*
X139714828Y-110110000D01*
X139096595Y-110232975D01*
X138514232Y-110474197D01*
X137990119Y-110824398D01*
X137544398Y-111270119D01*
X137194197Y-111794232D01*
X136952975Y-112376595D01*
X136830000Y-112994828D01*
X136830000Y-113625172D01*
X136952975Y-114243405D01*
X137194197Y-114825768D01*
X137544398Y-115349881D01*
X137990119Y-115795602D01*
X138514232Y-116145803D01*
X138747948Y-116242611D01*
X83346194Y-116242611D01*
X83555768Y-116155803D01*
X84079881Y-115805602D01*
X84525602Y-115359881D01*
X84875803Y-114835768D01*
X85117025Y-114253405D01*
X85240000Y-113635172D01*
X85240000Y-113004828D01*
X85117025Y-112386595D01*
X84875803Y-111804232D01*
X84525602Y-111280119D01*
X84079881Y-110834398D01*
X83555768Y-110484197D01*
X82973405Y-110242975D01*
X82355172Y-110120000D01*
X81724828Y-110120000D01*
X81106595Y-110242975D01*
X80524232Y-110484197D01*
X80000119Y-110834398D01*
X79554398Y-111280119D01*
X79204197Y-111804232D01*
X79121356Y-112004228D01*
X79121356Y-101471216D01*
X79222710Y-101501961D01*
X79369499Y-101516419D01*
X80269501Y-101516419D01*
X80416290Y-101501961D01*
X80557439Y-101459145D01*
X80687522Y-101389614D01*
X80801541Y-101296041D01*
X80895114Y-101182022D01*
X80964645Y-101051939D01*
X81007461Y-100910790D01*
X81021919Y-100764001D01*
X81021919Y-100712500D01*
X81548751Y-100712500D01*
X81501533Y-100770035D01*
X81441243Y-100882830D01*
X81404117Y-101005219D01*
X81391581Y-101132500D01*
X81391581Y-101432500D01*
X81404117Y-101559781D01*
X81441243Y-101682170D01*
X81501533Y-101794965D01*
X81582670Y-101893830D01*
X81611512Y-101917500D01*
X81582670Y-101941170D01*
X81501533Y-102040035D01*
X81441243Y-102152830D01*
X81404117Y-102275219D01*
X81391581Y-102402500D01*
X81391581Y-102702500D01*
X81404117Y-102829781D01*
X81441243Y-102952170D01*
X81501533Y-103064965D01*
X81582670Y-103163830D01*
X81611512Y-103187500D01*
X81582670Y-103211170D01*
X81501533Y-103310035D01*
X81441243Y-103422830D01*
X81404117Y-103545219D01*
X81391581Y-103672500D01*
X81391581Y-103972500D01*
X81404117Y-104099781D01*
X81441243Y-104222170D01*
X81501533Y-104334965D01*
X81582670Y-104433830D01*
X81611512Y-104457500D01*
X81582670Y-104481170D01*
X81501533Y-104580035D01*
X81441243Y-104692830D01*
X81404117Y-104815219D01*
X81391581Y-104942500D01*
X81391581Y-105242500D01*
X81404117Y-105369781D01*
X81441243Y-105492170D01*
X81501533Y-105604965D01*
X81582670Y-105703830D01*
X81611512Y-105727500D01*
X81582670Y-105751170D01*
X81501533Y-105850035D01*
X81441243Y-105962830D01*
X81404117Y-106085219D01*
X81391581Y-106212500D01*
X81391581Y-106512500D01*
X81404117Y-106639781D01*
X81441243Y-106762170D01*
X81501533Y-106874965D01*
X81582670Y-106973830D01*
X81611512Y-106997500D01*
X81582670Y-107021170D01*
X81501533Y-107120035D01*
X81441243Y-107232830D01*
X81404117Y-107355219D01*
X81391581Y-107482500D01*
X81391581Y-107782500D01*
X81404117Y-107909781D01*
X81441243Y-108032170D01*
X81501533Y-108144965D01*
X81582670Y-108243830D01*
X81611512Y-108267500D01*
X81582670Y-108291170D01*
X81501533Y-108390035D01*
X81441243Y-108502830D01*
X81404117Y-108625219D01*
X81391581Y-108752500D01*
X81391581Y-109052500D01*
X81404117Y-109179781D01*
X81441243Y-109302170D01*
X81501533Y-109414965D01*
X81582670Y-109513830D01*
X81681535Y-109594967D01*
X81794330Y-109655257D01*
X81916719Y-109692383D01*
X82044000Y-109704919D01*
X83694000Y-109704919D01*
X83821281Y-109692383D01*
X83943670Y-109655257D01*
X84056465Y-109594967D01*
X84155330Y-109513830D01*
X84236467Y-109414965D01*
X84296757Y-109302170D01*
X84333883Y-109179781D01*
X84346419Y-109052500D01*
X84346419Y-108752500D01*
X84333883Y-108625219D01*
X84296757Y-108502830D01*
X84236467Y-108390035D01*
X84155330Y-108291170D01*
X84126488Y-108267500D01*
X84155330Y-108243830D01*
X84236467Y-108144965D01*
X84296757Y-108032170D01*
X84333883Y-107909781D01*
X84346419Y-107782500D01*
X84346419Y-107482500D01*
X84333883Y-107355219D01*
X84296757Y-107232830D01*
X84236467Y-107120035D01*
X84155330Y-107021170D01*
X84126488Y-106997500D01*
X84155330Y-106973830D01*
X84236467Y-106874965D01*
X84296757Y-106762170D01*
X84333883Y-106639781D01*
X84346419Y-106512500D01*
X84346419Y-106212500D01*
X84333883Y-106085219D01*
X84296757Y-105962830D01*
X84236467Y-105850035D01*
X84155330Y-105751170D01*
X84126488Y-105727500D01*
X84155330Y-105703830D01*
X84236467Y-105604965D01*
X84296757Y-105492170D01*
X84333883Y-105369781D01*
X84346419Y-105242500D01*
X84346419Y-104942500D01*
X84333883Y-104815219D01*
X84296757Y-104692830D01*
X84236467Y-104580035D01*
X84155330Y-104481170D01*
X84126488Y-104457500D01*
X84155330Y-104433830D01*
X84236467Y-104334965D01*
X84296757Y-104222170D01*
X84333883Y-104099781D01*
X84346419Y-103972500D01*
X84346419Y-103672500D01*
X84333883Y-103545219D01*
X84296757Y-103422830D01*
X84236467Y-103310035D01*
X84155330Y-103211170D01*
X84126488Y-103187500D01*
X84155330Y-103163830D01*
X84236467Y-103064965D01*
X84296757Y-102952170D01*
X84333883Y-102829781D01*
X84346419Y-102702500D01*
X84346419Y-102402500D01*
X84333883Y-102275219D01*
X84296757Y-102152830D01*
X84236467Y-102040035D01*
X84155330Y-101941170D01*
X84126488Y-101917500D01*
X84155330Y-101893830D01*
X84236467Y-101794965D01*
X84296757Y-101682170D01*
X84333883Y-101559781D01*
X84346419Y-101432500D01*
X84346419Y-101132500D01*
X84333883Y-101005219D01*
X84296757Y-100882830D01*
X84236467Y-100770035D01*
X84155330Y-100671170D01*
X84126488Y-100647500D01*
X84155330Y-100623830D01*
X84236467Y-100524965D01*
X84296757Y-100412170D01*
X84333883Y-100289781D01*
X84346419Y-100162500D01*
X84346419Y-99862500D01*
X84333883Y-99735219D01*
X84296757Y-99612830D01*
X84236467Y-99500035D01*
X84155330Y-99401170D01*
X84056465Y-99320033D01*
X83943670Y-99259743D01*
X83821281Y-99222617D01*
X83694000Y-99210081D01*
X82044000Y-99210081D01*
X81916719Y-99222617D01*
X81794330Y-99259743D01*
X81695628Y-99312500D01*
X80519500Y-99312500D01*
X80519500Y-96428949D01*
X80885631Y-96062819D01*
X80936758Y-96041641D01*
X81059597Y-95959563D01*
X81164063Y-95855097D01*
X81246141Y-95732258D01*
X81302678Y-95595767D01*
X81331500Y-95450869D01*
X81331500Y-95303131D01*
X81302678Y-95158233D01*
X81246141Y-95021742D01*
X81164063Y-94898903D01*
X81059597Y-94794437D01*
X80936758Y-94712359D01*
X80800267Y-94655822D01*
X80655369Y-94627000D01*
X80507631Y-94627000D01*
X80362733Y-94655822D01*
X80226242Y-94712359D01*
X80103403Y-94794437D01*
X79998937Y-94898903D01*
X79916859Y-95021742D01*
X79895681Y-95072869D01*
X79348842Y-95619709D01*
X79322131Y-95641630D01*
X79300210Y-95668341D01*
X79300208Y-95668343D01*
X79234655Y-95748219D01*
X79169655Y-95869826D01*
X79154180Y-95920842D01*
X79129950Y-96000720D01*
X79129629Y-96001777D01*
X79121356Y-96085770D01*
X79121356Y-76748301D01*
X81152000Y-76748301D01*
X81152000Y-77048699D01*
X81210605Y-77343326D01*
X81325562Y-77620858D01*
X81492455Y-77870631D01*
X81704869Y-78083045D01*
X81954642Y-78249938D01*
X82232174Y-78364895D01*
X82526801Y-78423500D01*
X82827199Y-78423500D01*
X83121826Y-78364895D01*
X83399358Y-78249938D01*
X83649131Y-78083045D01*
X83861545Y-77870631D01*
X84028438Y-77620858D01*
X84143395Y-77343326D01*
X84202000Y-77048699D01*
X84202000Y-76748301D01*
X84143395Y-76453674D01*
X84028438Y-76176142D01*
X83861545Y-75926369D01*
X83649131Y-75713955D01*
X83399358Y-75547062D01*
X83121826Y-75432105D01*
X82827199Y-75373500D01*
X82526801Y-75373500D01*
X82232174Y-75432105D01*
X81954642Y-75547062D01*
X81704869Y-75713955D01*
X81492455Y-75926369D01*
X81325562Y-76176142D01*
X81210605Y-76453674D01*
X81152000Y-76748301D01*
X79121356Y-76748301D01*
X79121356Y-65625772D01*
X79204197Y-65825768D01*
X79554398Y-66349881D01*
X80000119Y-66795602D01*
X80524232Y-67145803D01*
X81106595Y-67387025D01*
X81724828Y-67510000D01*
X82355172Y-67510000D01*
X82973405Y-67387025D01*
X83555768Y-67145803D01*
X84079881Y-66795602D01*
X84525602Y-66349881D01*
X84875803Y-65825768D01*
X85117025Y-65243405D01*
X85240000Y-64625172D01*
X85240000Y-63994828D01*
X85117025Y-63376595D01*
X84875803Y-62794232D01*
X84525602Y-62270119D01*
X84079881Y-61824398D01*
X83555768Y-61474197D01*
X83358801Y-61392611D01*
X86489496Y-61392611D01*
X86489277Y-61392877D01*
G36*
X116723001Y-69600885D02*
G01*
X116723000Y-82818246D01*
X116717241Y-82804342D01*
X116635163Y-82681503D01*
X116530697Y-82577037D01*
X116407858Y-82494959D01*
X116271367Y-82438422D01*
X116126469Y-82409600D01*
X115978731Y-82409600D01*
X115833833Y-82438422D01*
X115697342Y-82494959D01*
X115574503Y-82577037D01*
X115470037Y-82681503D01*
X115387959Y-82804342D01*
X115331422Y-82940833D01*
X115302600Y-83085731D01*
X115302600Y-83233469D01*
X115331422Y-83378367D01*
X115352601Y-83429497D01*
X115352600Y-85384250D01*
X115229251Y-85507600D01*
X113851786Y-85507600D01*
X113817399Y-85504213D01*
X113783012Y-85507600D01*
X113783010Y-85507600D01*
X113680176Y-85517728D01*
X113548225Y-85557755D01*
X113426619Y-85622755D01*
X113320030Y-85710230D01*
X113298100Y-85736952D01*
X113233871Y-85801180D01*
X113182742Y-85822359D01*
X113059903Y-85904437D01*
X112955437Y-86008903D01*
X112873359Y-86131742D01*
X112816822Y-86268233D01*
X112788000Y-86413131D01*
X112788000Y-86560869D01*
X112816822Y-86705767D01*
X112873359Y-86842258D01*
X112955437Y-86965097D01*
X113059903Y-87069563D01*
X113182742Y-87151641D01*
X113319233Y-87208178D01*
X113464131Y-87237000D01*
X113611869Y-87237000D01*
X113756767Y-87208178D01*
X113893258Y-87151641D01*
X114016097Y-87069563D01*
X114120563Y-86965097D01*
X114158981Y-86907600D01*
X115484813Y-86907600D01*
X115519200Y-86910987D01*
X115553587Y-86907600D01*
X115553590Y-86907600D01*
X115656424Y-86897472D01*
X115788375Y-86857445D01*
X115909981Y-86792445D01*
X116016570Y-86704970D01*
X116038496Y-86678254D01*
X116523263Y-86193487D01*
X116549969Y-86171570D01*
X116571887Y-86144863D01*
X116571892Y-86144858D01*
X116637445Y-86064981D01*
X116656250Y-86029800D01*
X116702445Y-85943375D01*
X116723000Y-85875614D01*
X116723000Y-87025703D01*
X116723001Y-87025712D01*
X116723000Y-88069617D01*
X116263618Y-88529000D01*
X114778085Y-88529000D01*
X114718758Y-88489359D01*
X114582267Y-88432822D01*
X114437369Y-88404000D01*
X114289631Y-88404000D01*
X114144733Y-88432822D01*
X114008242Y-88489359D01*
X113948915Y-88529000D01*
X109653333Y-88529000D01*
X109734713Y-88462213D01*
X109903415Y-88256649D01*
X110028772Y-88022122D01*
X110105967Y-87767646D01*
X110132032Y-87503000D01*
X110105967Y-87238354D01*
X110028772Y-86983878D01*
X109903415Y-86749351D01*
X109734713Y-86543787D01*
X109529149Y-86375085D01*
X109402866Y-86307586D01*
X109403523Y-86300918D01*
X109400500Y-86270224D01*
X109400500Y-86270215D01*
X109391457Y-86178398D01*
X109355719Y-86060585D01*
X109297683Y-85952008D01*
X109219580Y-85856839D01*
X109195724Y-85837261D01*
X109071054Y-85712591D01*
X109294622Y-85644772D01*
X109529149Y-85519415D01*
X109734713Y-85350713D01*
X109903415Y-85145149D01*
X110028772Y-84910622D01*
X110105967Y-84656146D01*
X110132032Y-84391500D01*
X110105967Y-84126854D01*
X110028772Y-83872378D01*
X109903415Y-83637851D01*
X109734713Y-83432287D01*
X109529149Y-83263585D01*
X109400500Y-83194821D01*
X109400500Y-69880693D01*
X109403523Y-69849999D01*
X109400500Y-69819305D01*
X109400500Y-69819296D01*
X109391457Y-69727479D01*
X109355719Y-69609666D01*
X109297683Y-69501089D01*
X109297682Y-69501087D01*
X109239152Y-69429768D01*
X109239149Y-69429765D01*
X109219580Y-69405920D01*
X109195734Y-69386350D01*
X108823882Y-69014500D01*
X116136618Y-69014500D01*
X116723001Y-69600885D01*
X116723001Y-69600885D01*
G37*
X116723001Y-69600885D02*
X116723000Y-82818246D01*
X116717241Y-82804342D01*
X116635163Y-82681503D01*
X116530697Y-82577037D01*
X116407858Y-82494959D01*
X116271367Y-82438422D01*
X116126469Y-82409600D01*
X115978731Y-82409600D01*
X115833833Y-82438422D01*
X115697342Y-82494959D01*
X115574503Y-82577037D01*
X115470037Y-82681503D01*
X115387959Y-82804342D01*
X115331422Y-82940833D01*
X115302600Y-83085731D01*
X115302600Y-83233469D01*
X115331422Y-83378367D01*
X115352601Y-83429497D01*
X115352600Y-85384250D01*
X115229251Y-85507600D01*
X113851786Y-85507600D01*
X113817399Y-85504213D01*
X113783012Y-85507600D01*
X113783010Y-85507600D01*
X113680176Y-85517728D01*
X113548225Y-85557755D01*
X113426619Y-85622755D01*
X113320030Y-85710230D01*
X113298100Y-85736952D01*
X113233871Y-85801180D01*
X113182742Y-85822359D01*
X113059903Y-85904437D01*
X112955437Y-86008903D01*
X112873359Y-86131742D01*
X112816822Y-86268233D01*
X112788000Y-86413131D01*
X112788000Y-86560869D01*
X112816822Y-86705767D01*
X112873359Y-86842258D01*
X112955437Y-86965097D01*
X113059903Y-87069563D01*
X113182742Y-87151641D01*
X113319233Y-87208178D01*
X113464131Y-87237000D01*
X113611869Y-87237000D01*
X113756767Y-87208178D01*
X113893258Y-87151641D01*
X114016097Y-87069563D01*
X114120563Y-86965097D01*
X114158981Y-86907600D01*
X115484813Y-86907600D01*
X115519200Y-86910987D01*
X115553587Y-86907600D01*
X115553590Y-86907600D01*
X115656424Y-86897472D01*
X115788375Y-86857445D01*
X115909981Y-86792445D01*
X116016570Y-86704970D01*
X116038496Y-86678254D01*
X116523263Y-86193487D01*
X116549969Y-86171570D01*
X116571887Y-86144863D01*
X116571892Y-86144858D01*
X116637445Y-86064981D01*
X116656250Y-86029800D01*
X116702445Y-85943375D01*
X116723000Y-85875614D01*
X116723000Y-87025703D01*
X116723001Y-87025712D01*
X116723000Y-88069617D01*
X116263618Y-88529000D01*
X114778085Y-88529000D01*
X114718758Y-88489359D01*
X114582267Y-88432822D01*
X114437369Y-88404000D01*
X114289631Y-88404000D01*
X114144733Y-88432822D01*
X114008242Y-88489359D01*
X113948915Y-88529000D01*
X109653333Y-88529000D01*
X109734713Y-88462213D01*
X109903415Y-88256649D01*
X110028772Y-88022122D01*
X110105967Y-87767646D01*
X110132032Y-87503000D01*
X110105967Y-87238354D01*
X110028772Y-86983878D01*
X109903415Y-86749351D01*
X109734713Y-86543787D01*
X109529149Y-86375085D01*
X109402866Y-86307586D01*
X109403523Y-86300918D01*
X109400500Y-86270224D01*
X109400500Y-86270215D01*
X109391457Y-86178398D01*
X109355719Y-86060585D01*
X109297683Y-85952008D01*
X109219580Y-85856839D01*
X109195724Y-85837261D01*
X109071054Y-85712591D01*
X109294622Y-85644772D01*
X109529149Y-85519415D01*
X109734713Y-85350713D01*
X109903415Y-85145149D01*
X110028772Y-84910622D01*
X110105967Y-84656146D01*
X110132032Y-84391500D01*
X110105967Y-84126854D01*
X110028772Y-83872378D01*
X109903415Y-83637851D01*
X109734713Y-83432287D01*
X109529149Y-83263585D01*
X109400500Y-83194821D01*
X109400500Y-69880693D01*
X109403523Y-69849999D01*
X109400500Y-69819305D01*
X109400500Y-69819296D01*
X109391457Y-69727479D01*
X109355719Y-69609666D01*
X109297683Y-69501089D01*
X109297682Y-69501087D01*
X109239152Y-69429768D01*
X109239149Y-69429765D01*
X109219580Y-69405920D01*
X109195734Y-69386350D01*
X108823882Y-69014500D01*
X116136618Y-69014500D01*
X116723001Y-69600885D01*
G36*
X123892085Y-62296351D02*
G01*
X123766728Y-62530878D01*
X123689533Y-62785354D01*
X123663468Y-63050000D01*
X123689533Y-63314646D01*
X123766728Y-63569122D01*
X123892085Y-63803649D01*
X124060787Y-64009213D01*
X124266351Y-64177915D01*
X124500878Y-64303272D01*
X124556022Y-64320000D01*
X124500878Y-64336728D01*
X124266351Y-64462085D01*
X124060787Y-64630787D01*
X123892085Y-64836351D01*
X123766728Y-65070878D01*
X123750000Y-65126022D01*
X123733272Y-65070878D01*
X123607915Y-64836351D01*
X123439213Y-64630787D01*
X123233649Y-64462085D01*
X122999122Y-64336728D01*
X122744646Y-64259533D01*
X122546321Y-64240000D01*
X122413679Y-64240000D01*
X122215354Y-64259533D01*
X121960878Y-64336728D01*
X121726351Y-64462085D01*
X121520787Y-64630787D01*
X121352085Y-64836351D01*
X121226728Y-65070878D01*
X121210000Y-65126022D01*
X121193272Y-65070878D01*
X121067915Y-64836351D01*
X120899213Y-64630787D01*
X120693649Y-64462085D01*
X120459122Y-64336728D01*
X120403978Y-64320000D01*
X120459122Y-64303272D01*
X120693649Y-64177915D01*
X120899213Y-64009213D01*
X121067915Y-63803649D01*
X121193272Y-63569122D01*
X121270467Y-63314646D01*
X121296532Y-63050000D01*
X121270467Y-62785354D01*
X121193272Y-62530878D01*
X121067915Y-62296351D01*
X120901029Y-62093000D01*
X124058971Y-62093000D01*
X123892085Y-62296351D01*
X123892085Y-62296351D01*
G37*
X123892085Y-62296351D02*
X123766728Y-62530878D01*
X123689533Y-62785354D01*
X123663468Y-63050000D01*
X123689533Y-63314646D01*
X123766728Y-63569122D01*
X123892085Y-63803649D01*
X124060787Y-64009213D01*
X124266351Y-64177915D01*
X124500878Y-64303272D01*
X124556022Y-64320000D01*
X124500878Y-64336728D01*
X124266351Y-64462085D01*
X124060787Y-64630787D01*
X123892085Y-64836351D01*
X123766728Y-65070878D01*
X123750000Y-65126022D01*
X123733272Y-65070878D01*
X123607915Y-64836351D01*
X123439213Y-64630787D01*
X123233649Y-64462085D01*
X122999122Y-64336728D01*
X122744646Y-64259533D01*
X122546321Y-64240000D01*
X122413679Y-64240000D01*
X122215354Y-64259533D01*
X121960878Y-64336728D01*
X121726351Y-64462085D01*
X121520787Y-64630787D01*
X121352085Y-64836351D01*
X121226728Y-65070878D01*
X121210000Y-65126022D01*
X121193272Y-65070878D01*
X121067915Y-64836351D01*
X120899213Y-64630787D01*
X120693649Y-64462085D01*
X120459122Y-64336728D01*
X120403978Y-64320000D01*
X120459122Y-64303272D01*
X120693649Y-64177915D01*
X120899213Y-64009213D01*
X121067915Y-63803649D01*
X121193272Y-63569122D01*
X121270467Y-63314646D01*
X121296532Y-63050000D01*
X121270467Y-62785354D01*
X121193272Y-62530878D01*
X121067915Y-62296351D01*
X120901029Y-62093000D01*
X124058971Y-62093000D01*
X123892085Y-62296351D01*
G36*
X93412085Y-62296351D02*
G01*
X93286728Y-62530878D01*
X93209533Y-62785354D01*
X93183468Y-63050000D01*
X93209533Y-63314646D01*
X93286728Y-63569122D01*
X93412085Y-63803649D01*
X93580787Y-64009213D01*
X93786351Y-64177915D01*
X94020878Y-64303272D01*
X94076022Y-64320000D01*
X94020878Y-64336728D01*
X93786351Y-64462085D01*
X93580787Y-64630787D01*
X93412085Y-64836351D01*
X93286728Y-65070878D01*
X93270000Y-65126022D01*
X93253272Y-65070878D01*
X93127915Y-64836351D01*
X92959213Y-64630787D01*
X92753649Y-64462085D01*
X92519122Y-64336728D01*
X92264646Y-64259533D01*
X92066321Y-64240000D01*
X91933679Y-64240000D01*
X91735354Y-64259533D01*
X91480878Y-64336728D01*
X91246351Y-64462085D01*
X91040787Y-64630787D01*
X90872085Y-64836351D01*
X90746728Y-65070878D01*
X90730000Y-65126022D01*
X90713272Y-65070878D01*
X90587915Y-64836351D01*
X90419213Y-64630787D01*
X90213649Y-64462085D01*
X89979122Y-64336728D01*
X89923978Y-64320000D01*
X89979122Y-64303272D01*
X90213649Y-64177915D01*
X90419213Y-64009213D01*
X90587915Y-63803649D01*
X90713272Y-63569122D01*
X90790467Y-63314646D01*
X90816532Y-63050000D01*
X90790467Y-62785354D01*
X90713272Y-62530878D01*
X90587915Y-62296351D01*
X90421029Y-62093000D01*
X93578971Y-62093000D01*
X93412085Y-62296351D01*
X93412085Y-62296351D01*
G37*
X93412085Y-62296351D02*
X93286728Y-62530878D01*
X93209533Y-62785354D01*
X93183468Y-63050000D01*
X93209533Y-63314646D01*
X93286728Y-63569122D01*
X93412085Y-63803649D01*
X93580787Y-64009213D01*
X93786351Y-64177915D01*
X94020878Y-64303272D01*
X94076022Y-64320000D01*
X94020878Y-64336728D01*
X93786351Y-64462085D01*
X93580787Y-64630787D01*
X93412085Y-64836351D01*
X93286728Y-65070878D01*
X93270000Y-65126022D01*
X93253272Y-65070878D01*
X93127915Y-64836351D01*
X92959213Y-64630787D01*
X92753649Y-64462085D01*
X92519122Y-64336728D01*
X92264646Y-64259533D01*
X92066321Y-64240000D01*
X91933679Y-64240000D01*
X91735354Y-64259533D01*
X91480878Y-64336728D01*
X91246351Y-64462085D01*
X91040787Y-64630787D01*
X90872085Y-64836351D01*
X90746728Y-65070878D01*
X90730000Y-65126022D01*
X90713272Y-65070878D01*
X90587915Y-64836351D01*
X90419213Y-64630787D01*
X90213649Y-64462085D01*
X89979122Y-64336728D01*
X89923978Y-64320000D01*
X89979122Y-64303272D01*
X90213649Y-64177915D01*
X90419213Y-64009213D01*
X90587915Y-63803649D01*
X90713272Y-63569122D01*
X90790467Y-63314646D01*
X90816532Y-63050000D01*
X90790467Y-62785354D01*
X90713272Y-62530878D01*
X90587915Y-62296351D01*
X90421029Y-62093000D01*
X93578971Y-62093000D01*
X93412085Y-62296351D01*
G36*
X103572085Y-62296351D02*
G01*
X103446728Y-62530878D01*
X103369533Y-62785354D01*
X103343468Y-63050000D01*
X103369533Y-63314646D01*
X103446728Y-63569122D01*
X103572085Y-63803649D01*
X103740787Y-64009213D01*
X103946351Y-64177915D01*
X104180878Y-64303272D01*
X104236022Y-64320000D01*
X104180878Y-64336728D01*
X103946351Y-64462085D01*
X103740787Y-64630787D01*
X103572085Y-64836351D01*
X103446728Y-65070878D01*
X103430000Y-65126022D01*
X103413272Y-65070878D01*
X103287915Y-64836351D01*
X103119213Y-64630787D01*
X102913649Y-64462085D01*
X102679122Y-64336728D01*
X102424646Y-64259533D01*
X102226321Y-64240000D01*
X102093679Y-64240000D01*
X101895354Y-64259533D01*
X101640878Y-64336728D01*
X101406351Y-64462085D01*
X101200787Y-64630787D01*
X101032085Y-64836351D01*
X100906728Y-65070878D01*
X100890000Y-65126022D01*
X100873272Y-65070878D01*
X100747915Y-64836351D01*
X100579213Y-64630787D01*
X100373649Y-64462085D01*
X100139122Y-64336728D01*
X100083978Y-64320000D01*
X100139122Y-64303272D01*
X100373649Y-64177915D01*
X100579213Y-64009213D01*
X100747915Y-63803649D01*
X100873272Y-63569122D01*
X100950467Y-63314646D01*
X100976532Y-63050000D01*
X100950467Y-62785354D01*
X100873272Y-62530878D01*
X100747915Y-62296351D01*
X100581029Y-62093000D01*
X103738971Y-62093000D01*
X103572085Y-62296351D01*
X103572085Y-62296351D01*
G37*
X103572085Y-62296351D02*
X103446728Y-62530878D01*
X103369533Y-62785354D01*
X103343468Y-63050000D01*
X103369533Y-63314646D01*
X103446728Y-63569122D01*
X103572085Y-63803649D01*
X103740787Y-64009213D01*
X103946351Y-64177915D01*
X104180878Y-64303272D01*
X104236022Y-64320000D01*
X104180878Y-64336728D01*
X103946351Y-64462085D01*
X103740787Y-64630787D01*
X103572085Y-64836351D01*
X103446728Y-65070878D01*
X103430000Y-65126022D01*
X103413272Y-65070878D01*
X103287915Y-64836351D01*
X103119213Y-64630787D01*
X102913649Y-64462085D01*
X102679122Y-64336728D01*
X102424646Y-64259533D01*
X102226321Y-64240000D01*
X102093679Y-64240000D01*
X101895354Y-64259533D01*
X101640878Y-64336728D01*
X101406351Y-64462085D01*
X101200787Y-64630787D01*
X101032085Y-64836351D01*
X100906728Y-65070878D01*
X100890000Y-65126022D01*
X100873272Y-65070878D01*
X100747915Y-64836351D01*
X100579213Y-64630787D01*
X100373649Y-64462085D01*
X100139122Y-64336728D01*
X100083978Y-64320000D01*
X100139122Y-64303272D01*
X100373649Y-64177915D01*
X100579213Y-64009213D01*
X100747915Y-63803649D01*
X100873272Y-63569122D01*
X100950467Y-63314646D01*
X100976532Y-63050000D01*
X100950467Y-62785354D01*
X100873272Y-62530878D01*
X100747915Y-62296351D01*
X100581029Y-62093000D01*
X103738971Y-62093000D01*
X103572085Y-62296351D01*
G36*
X111192085Y-62296351D02*
G01*
X111066728Y-62530878D01*
X110989533Y-62785354D01*
X110963468Y-63050000D01*
X110989533Y-63314646D01*
X111066728Y-63569122D01*
X111192085Y-63803649D01*
X111360787Y-64009213D01*
X111566351Y-64177915D01*
X111800878Y-64303272D01*
X111856022Y-64320000D01*
X111800878Y-64336728D01*
X111566351Y-64462085D01*
X111360787Y-64630787D01*
X111192085Y-64836351D01*
X111066728Y-65070878D01*
X111050000Y-65126022D01*
X111033272Y-65070878D01*
X110907915Y-64836351D01*
X110739213Y-64630787D01*
X110533649Y-64462085D01*
X110299122Y-64336728D01*
X110044646Y-64259533D01*
X109846321Y-64240000D01*
X109713679Y-64240000D01*
X109515354Y-64259533D01*
X109260878Y-64336728D01*
X109026351Y-64462085D01*
X108820787Y-64630787D01*
X108652085Y-64836351D01*
X108526728Y-65070878D01*
X108510000Y-65126022D01*
X108493272Y-65070878D01*
X108367915Y-64836351D01*
X108199213Y-64630787D01*
X107993649Y-64462085D01*
X107759122Y-64336728D01*
X107703978Y-64320000D01*
X107759122Y-64303272D01*
X107993649Y-64177915D01*
X108199213Y-64009213D01*
X108367915Y-63803649D01*
X108493272Y-63569122D01*
X108570467Y-63314646D01*
X108596532Y-63050000D01*
X108570467Y-62785354D01*
X108493272Y-62530878D01*
X108367915Y-62296351D01*
X108201029Y-62093000D01*
X111358971Y-62093000D01*
X111192085Y-62296351D01*
X111192085Y-62296351D01*
G37*
X111192085Y-62296351D02*
X111066728Y-62530878D01*
X110989533Y-62785354D01*
X110963468Y-63050000D01*
X110989533Y-63314646D01*
X111066728Y-63569122D01*
X111192085Y-63803649D01*
X111360787Y-64009213D01*
X111566351Y-64177915D01*
X111800878Y-64303272D01*
X111856022Y-64320000D01*
X111800878Y-64336728D01*
X111566351Y-64462085D01*
X111360787Y-64630787D01*
X111192085Y-64836351D01*
X111066728Y-65070878D01*
X111050000Y-65126022D01*
X111033272Y-65070878D01*
X110907915Y-64836351D01*
X110739213Y-64630787D01*
X110533649Y-64462085D01*
X110299122Y-64336728D01*
X110044646Y-64259533D01*
X109846321Y-64240000D01*
X109713679Y-64240000D01*
X109515354Y-64259533D01*
X109260878Y-64336728D01*
X109026351Y-64462085D01*
X108820787Y-64630787D01*
X108652085Y-64836351D01*
X108526728Y-65070878D01*
X108510000Y-65126022D01*
X108493272Y-65070878D01*
X108367915Y-64836351D01*
X108199213Y-64630787D01*
X107993649Y-64462085D01*
X107759122Y-64336728D01*
X107703978Y-64320000D01*
X107759122Y-64303272D01*
X107993649Y-64177915D01*
X108199213Y-64009213D01*
X108367915Y-63803649D01*
X108493272Y-63569122D01*
X108570467Y-63314646D01*
X108596532Y-63050000D01*
X108570467Y-62785354D01*
X108493272Y-62530878D01*
X108367915Y-62296351D01*
X108201029Y-62093000D01*
X111358971Y-62093000D01*
X111192085Y-62296351D01*
G36*
X128972085Y-62296351D02*
G01*
X128846728Y-62530878D01*
X128769533Y-62785354D01*
X128743468Y-63050000D01*
X128769533Y-63314646D01*
X128846728Y-63569122D01*
X128972085Y-63803649D01*
X129140787Y-64009213D01*
X129346351Y-64177915D01*
X129580878Y-64303272D01*
X129636022Y-64320000D01*
X129580878Y-64336728D01*
X129346351Y-64462085D01*
X129140787Y-64630787D01*
X128972085Y-64836351D01*
X128846728Y-65070878D01*
X128830000Y-65126022D01*
X128813272Y-65070878D01*
X128687915Y-64836351D01*
X128519213Y-64630787D01*
X128313649Y-64462085D01*
X128079122Y-64336728D01*
X127824646Y-64259533D01*
X127626321Y-64240000D01*
X127493679Y-64240000D01*
X127295354Y-64259533D01*
X127040878Y-64336728D01*
X126806351Y-64462085D01*
X126600787Y-64630787D01*
X126432085Y-64836351D01*
X126306728Y-65070878D01*
X126290000Y-65126022D01*
X126273272Y-65070878D01*
X126147915Y-64836351D01*
X125979213Y-64630787D01*
X125773649Y-64462085D01*
X125539122Y-64336728D01*
X125483978Y-64320000D01*
X125539122Y-64303272D01*
X125773649Y-64177915D01*
X125979213Y-64009213D01*
X126147915Y-63803649D01*
X126273272Y-63569122D01*
X126350467Y-63314646D01*
X126376532Y-63050000D01*
X126350467Y-62785354D01*
X126273272Y-62530878D01*
X126147915Y-62296351D01*
X125981029Y-62093000D01*
X129138971Y-62093000D01*
X128972085Y-62296351D01*
X128972085Y-62296351D01*
G37*
X128972085Y-62296351D02*
X128846728Y-62530878D01*
X128769533Y-62785354D01*
X128743468Y-63050000D01*
X128769533Y-63314646D01*
X128846728Y-63569122D01*
X128972085Y-63803649D01*
X129140787Y-64009213D01*
X129346351Y-64177915D01*
X129580878Y-64303272D01*
X129636022Y-64320000D01*
X129580878Y-64336728D01*
X129346351Y-64462085D01*
X129140787Y-64630787D01*
X128972085Y-64836351D01*
X128846728Y-65070878D01*
X128830000Y-65126022D01*
X128813272Y-65070878D01*
X128687915Y-64836351D01*
X128519213Y-64630787D01*
X128313649Y-64462085D01*
X128079122Y-64336728D01*
X127824646Y-64259533D01*
X127626321Y-64240000D01*
X127493679Y-64240000D01*
X127295354Y-64259533D01*
X127040878Y-64336728D01*
X126806351Y-64462085D01*
X126600787Y-64630787D01*
X126432085Y-64836351D01*
X126306728Y-65070878D01*
X126290000Y-65126022D01*
X126273272Y-65070878D01*
X126147915Y-64836351D01*
X125979213Y-64630787D01*
X125773649Y-64462085D01*
X125539122Y-64336728D01*
X125483978Y-64320000D01*
X125539122Y-64303272D01*
X125773649Y-64177915D01*
X125979213Y-64009213D01*
X126147915Y-63803649D01*
X126273272Y-63569122D01*
X126350467Y-63314646D01*
X126376532Y-63050000D01*
X126350467Y-62785354D01*
X126273272Y-62530878D01*
X126147915Y-62296351D01*
X125981029Y-62093000D01*
X129138971Y-62093000D01*
X128972085Y-62296351D01*
M02*
