G04 #@! TF.GenerationSoftware,KiCad,Pcbnew,(5.1.4)-1*
G04 #@! TF.CreationDate,2019-10-20T15:20:57+05:30*
G04 #@! TF.ProjectId,RPi Hat RF Transmitter V1,52506920-4861-4742-9052-46205472616e,rev?*
G04 #@! TF.SameCoordinates,Original*
G04 #@! TF.FileFunction,Paste,Top*
G04 #@! TF.FilePolarity,Positive*
%FSLAX46Y46*%
G04 Gerber Fmt 4.6, Leading zero omitted, Abs format (unit mm)*
G04 Created by KiCad (PCBNEW (5.1.4)-1) date 2019-10-20 15:20:57*
%MOMM*%
%LPD*%
G04 APERTURE LIST*
%ADD10C,0.150000*%
%ADD11R,1.500000X1.900000*%
%ADD12R,0.400000X1.350000*%
%ADD13C,0.100000*%
%ADD14C,0.610000*%
%ADD15C,1.040000*%
%ADD16C,1.150000*%
%ADD17C,3.000000*%
%ADD18C,1.100000*%
%ADD19C,0.800000*%
G04 APERTURE END LIST*
D10*
X78546356Y-63817611D02*
X78546356Y-113817611D01*
X140546356Y-60817611D02*
X81546356Y-60817611D01*
X143546351Y-113822847D02*
X143546356Y-63817611D01*
X81546356Y-116817611D02*
X140546356Y-116817611D01*
X78546356Y-63817611D02*
G75*
G02X81546356Y-60817611I3000000J0D01*
G01*
X140546356Y-60817611D02*
G75*
G02X143546356Y-63817611I0J-3000000D01*
G01*
X81546356Y-116817611D02*
G75*
G02X78546356Y-113817611I0J3000000D01*
G01*
X143546351Y-113822847D02*
G75*
G02X140546356Y-116817611I-2999995J5236D01*
G01*
D11*
X89757500Y-115379500D03*
D12*
X90757500Y-112679500D03*
X91407500Y-112679500D03*
X92057500Y-112679500D03*
X89457500Y-112679500D03*
X90107500Y-112679500D03*
D11*
X91757500Y-115379500D03*
D13*
G36*
X107287448Y-95950734D02*
G01*
X107302251Y-95952930D01*
X107316768Y-95956567D01*
X107330859Y-95961608D01*
X107344388Y-95968007D01*
X107357224Y-95975701D01*
X107369245Y-95984616D01*
X107380334Y-95994666D01*
X107390384Y-96005755D01*
X107399299Y-96017776D01*
X107406993Y-96030612D01*
X107413392Y-96044141D01*
X107418433Y-96058232D01*
X107422070Y-96072749D01*
X107424266Y-96087552D01*
X107425000Y-96102500D01*
X107425000Y-97042500D01*
X107424266Y-97057448D01*
X107422070Y-97072251D01*
X107418433Y-97086768D01*
X107413392Y-97100859D01*
X107406993Y-97114388D01*
X107399299Y-97127224D01*
X107390384Y-97139245D01*
X107380334Y-97150334D01*
X107369245Y-97160384D01*
X107357224Y-97169299D01*
X107344388Y-97176993D01*
X107330859Y-97183392D01*
X107316768Y-97188433D01*
X107302251Y-97192070D01*
X107287448Y-97194266D01*
X107272500Y-97195000D01*
X106967500Y-97195000D01*
X106952552Y-97194266D01*
X106937749Y-97192070D01*
X106923232Y-97188433D01*
X106909141Y-97183392D01*
X106895612Y-97176993D01*
X106882776Y-97169299D01*
X106870755Y-97160384D01*
X106859666Y-97150334D01*
X106849616Y-97139245D01*
X106840701Y-97127224D01*
X106833007Y-97114388D01*
X106826608Y-97100859D01*
X106821567Y-97086768D01*
X106817930Y-97072251D01*
X106815734Y-97057448D01*
X106815000Y-97042500D01*
X106815000Y-96102500D01*
X106815734Y-96087552D01*
X106817930Y-96072749D01*
X106821567Y-96058232D01*
X106826608Y-96044141D01*
X106833007Y-96030612D01*
X106840701Y-96017776D01*
X106849616Y-96005755D01*
X106859666Y-95994666D01*
X106870755Y-95984616D01*
X106882776Y-95975701D01*
X106895612Y-95968007D01*
X106909141Y-95961608D01*
X106923232Y-95956567D01*
X106937749Y-95952930D01*
X106952552Y-95950734D01*
X106967500Y-95950000D01*
X107272500Y-95950000D01*
X107287448Y-95950734D01*
X107287448Y-95950734D01*
G37*
D14*
X107120000Y-96572500D03*
D13*
G36*
X107287448Y-97805734D02*
G01*
X107302251Y-97807930D01*
X107316768Y-97811567D01*
X107330859Y-97816608D01*
X107344388Y-97823007D01*
X107357224Y-97830701D01*
X107369245Y-97839616D01*
X107380334Y-97849666D01*
X107390384Y-97860755D01*
X107399299Y-97872776D01*
X107406993Y-97885612D01*
X107413392Y-97899141D01*
X107418433Y-97913232D01*
X107422070Y-97927749D01*
X107424266Y-97942552D01*
X107425000Y-97957500D01*
X107425000Y-98897500D01*
X107424266Y-98912448D01*
X107422070Y-98927251D01*
X107418433Y-98941768D01*
X107413392Y-98955859D01*
X107406993Y-98969388D01*
X107399299Y-98982224D01*
X107390384Y-98994245D01*
X107380334Y-99005334D01*
X107369245Y-99015384D01*
X107357224Y-99024299D01*
X107344388Y-99031993D01*
X107330859Y-99038392D01*
X107316768Y-99043433D01*
X107302251Y-99047070D01*
X107287448Y-99049266D01*
X107272500Y-99050000D01*
X106967500Y-99050000D01*
X106952552Y-99049266D01*
X106937749Y-99047070D01*
X106923232Y-99043433D01*
X106909141Y-99038392D01*
X106895612Y-99031993D01*
X106882776Y-99024299D01*
X106870755Y-99015384D01*
X106859666Y-99005334D01*
X106849616Y-98994245D01*
X106840701Y-98982224D01*
X106833007Y-98969388D01*
X106826608Y-98955859D01*
X106821567Y-98941768D01*
X106817930Y-98927251D01*
X106815734Y-98912448D01*
X106815000Y-98897500D01*
X106815000Y-97957500D01*
X106815734Y-97942552D01*
X106817930Y-97927749D01*
X106821567Y-97913232D01*
X106826608Y-97899141D01*
X106833007Y-97885612D01*
X106840701Y-97872776D01*
X106849616Y-97860755D01*
X106859666Y-97849666D01*
X106870755Y-97839616D01*
X106882776Y-97830701D01*
X106895612Y-97823007D01*
X106909141Y-97816608D01*
X106923232Y-97811567D01*
X106937749Y-97807930D01*
X106952552Y-97805734D01*
X106967500Y-97805000D01*
X107272500Y-97805000D01*
X107287448Y-97805734D01*
X107287448Y-97805734D01*
G37*
D14*
X107120000Y-98427500D03*
D13*
G36*
X109039865Y-96601202D02*
G01*
X109064095Y-96604796D01*
X109087855Y-96610748D01*
X109110918Y-96619000D01*
X109133061Y-96629472D01*
X109154070Y-96642065D01*
X109173745Y-96656657D01*
X109191894Y-96673106D01*
X109208343Y-96691255D01*
X109222935Y-96710930D01*
X109235528Y-96731939D01*
X109246000Y-96754082D01*
X109254252Y-96777145D01*
X109260204Y-96800905D01*
X109263798Y-96825135D01*
X109265000Y-96849600D01*
X109265000Y-98150400D01*
X109263798Y-98174865D01*
X109260204Y-98199095D01*
X109254252Y-98222855D01*
X109246000Y-98245918D01*
X109235528Y-98268061D01*
X109222935Y-98289070D01*
X109208343Y-98308745D01*
X109191894Y-98326894D01*
X109173745Y-98343343D01*
X109154070Y-98357935D01*
X109133061Y-98370528D01*
X109110918Y-98381000D01*
X109087855Y-98389252D01*
X109064095Y-98395204D01*
X109039865Y-98398798D01*
X109015400Y-98400000D01*
X108474600Y-98400000D01*
X108450135Y-98398798D01*
X108425905Y-98395204D01*
X108402145Y-98389252D01*
X108379082Y-98381000D01*
X108356939Y-98370528D01*
X108335930Y-98357935D01*
X108316255Y-98343343D01*
X108298106Y-98326894D01*
X108281657Y-98308745D01*
X108267065Y-98289070D01*
X108254472Y-98268061D01*
X108244000Y-98245918D01*
X108235748Y-98222855D01*
X108229796Y-98199095D01*
X108226202Y-98174865D01*
X108225000Y-98150400D01*
X108225000Y-96849600D01*
X108226202Y-96825135D01*
X108229796Y-96800905D01*
X108235748Y-96777145D01*
X108244000Y-96754082D01*
X108254472Y-96731939D01*
X108267065Y-96710930D01*
X108281657Y-96691255D01*
X108298106Y-96673106D01*
X108316255Y-96656657D01*
X108335930Y-96642065D01*
X108356939Y-96629472D01*
X108379082Y-96619000D01*
X108402145Y-96610748D01*
X108425905Y-96604796D01*
X108450135Y-96601202D01*
X108474600Y-96600000D01*
X109015400Y-96600000D01*
X109039865Y-96601202D01*
X109039865Y-96601202D01*
G37*
D15*
X108745000Y-97500000D03*
D13*
G36*
X105789865Y-96601202D02*
G01*
X105814095Y-96604796D01*
X105837855Y-96610748D01*
X105860918Y-96619000D01*
X105883061Y-96629472D01*
X105904070Y-96642065D01*
X105923745Y-96656657D01*
X105941894Y-96673106D01*
X105958343Y-96691255D01*
X105972935Y-96710930D01*
X105985528Y-96731939D01*
X105996000Y-96754082D01*
X106004252Y-96777145D01*
X106010204Y-96800905D01*
X106013798Y-96825135D01*
X106015000Y-96849600D01*
X106015000Y-98150400D01*
X106013798Y-98174865D01*
X106010204Y-98199095D01*
X106004252Y-98222855D01*
X105996000Y-98245918D01*
X105985528Y-98268061D01*
X105972935Y-98289070D01*
X105958343Y-98308745D01*
X105941894Y-98326894D01*
X105923745Y-98343343D01*
X105904070Y-98357935D01*
X105883061Y-98370528D01*
X105860918Y-98381000D01*
X105837855Y-98389252D01*
X105814095Y-98395204D01*
X105789865Y-98398798D01*
X105765400Y-98400000D01*
X105224600Y-98400000D01*
X105200135Y-98398798D01*
X105175905Y-98395204D01*
X105152145Y-98389252D01*
X105129082Y-98381000D01*
X105106939Y-98370528D01*
X105085930Y-98357935D01*
X105066255Y-98343343D01*
X105048106Y-98326894D01*
X105031657Y-98308745D01*
X105017065Y-98289070D01*
X105004472Y-98268061D01*
X104994000Y-98245918D01*
X104985748Y-98222855D01*
X104979796Y-98199095D01*
X104976202Y-98174865D01*
X104975000Y-98150400D01*
X104975000Y-96849600D01*
X104976202Y-96825135D01*
X104979796Y-96800905D01*
X104985748Y-96777145D01*
X104994000Y-96754082D01*
X105004472Y-96731939D01*
X105017065Y-96710930D01*
X105031657Y-96691255D01*
X105048106Y-96673106D01*
X105066255Y-96656657D01*
X105085930Y-96642065D01*
X105106939Y-96629472D01*
X105129082Y-96619000D01*
X105152145Y-96610748D01*
X105175905Y-96604796D01*
X105200135Y-96601202D01*
X105224600Y-96600000D01*
X105765400Y-96600000D01*
X105789865Y-96601202D01*
X105789865Y-96601202D01*
G37*
D15*
X105495000Y-97500000D03*
D13*
G36*
X121135505Y-89923204D02*
G01*
X121159773Y-89926804D01*
X121183572Y-89932765D01*
X121206671Y-89941030D01*
X121228850Y-89951520D01*
X121249893Y-89964132D01*
X121269599Y-89978747D01*
X121287777Y-89995223D01*
X121304253Y-90013401D01*
X121318868Y-90033107D01*
X121331480Y-90054150D01*
X121341970Y-90076329D01*
X121350235Y-90099428D01*
X121356196Y-90123227D01*
X121359796Y-90147495D01*
X121361000Y-90171999D01*
X121361000Y-90822001D01*
X121359796Y-90846505D01*
X121356196Y-90870773D01*
X121350235Y-90894572D01*
X121341970Y-90917671D01*
X121331480Y-90939850D01*
X121318868Y-90960893D01*
X121304253Y-90980599D01*
X121287777Y-90998777D01*
X121269599Y-91015253D01*
X121249893Y-91029868D01*
X121228850Y-91042480D01*
X121206671Y-91052970D01*
X121183572Y-91061235D01*
X121159773Y-91067196D01*
X121135505Y-91070796D01*
X121111001Y-91072000D01*
X120210999Y-91072000D01*
X120186495Y-91070796D01*
X120162227Y-91067196D01*
X120138428Y-91061235D01*
X120115329Y-91052970D01*
X120093150Y-91042480D01*
X120072107Y-91029868D01*
X120052401Y-91015253D01*
X120034223Y-90998777D01*
X120017747Y-90980599D01*
X120003132Y-90960893D01*
X119990520Y-90939850D01*
X119980030Y-90917671D01*
X119971765Y-90894572D01*
X119965804Y-90870773D01*
X119962204Y-90846505D01*
X119961000Y-90822001D01*
X119961000Y-90171999D01*
X119962204Y-90147495D01*
X119965804Y-90123227D01*
X119971765Y-90099428D01*
X119980030Y-90076329D01*
X119990520Y-90054150D01*
X120003132Y-90033107D01*
X120017747Y-90013401D01*
X120034223Y-89995223D01*
X120052401Y-89978747D01*
X120072107Y-89964132D01*
X120093150Y-89951520D01*
X120115329Y-89941030D01*
X120138428Y-89932765D01*
X120162227Y-89926804D01*
X120186495Y-89923204D01*
X120210999Y-89922000D01*
X121111001Y-89922000D01*
X121135505Y-89923204D01*
X121135505Y-89923204D01*
G37*
D16*
X120661000Y-90497000D03*
D13*
G36*
X121135505Y-87873204D02*
G01*
X121159773Y-87876804D01*
X121183572Y-87882765D01*
X121206671Y-87891030D01*
X121228850Y-87901520D01*
X121249893Y-87914132D01*
X121269599Y-87928747D01*
X121287777Y-87945223D01*
X121304253Y-87963401D01*
X121318868Y-87983107D01*
X121331480Y-88004150D01*
X121341970Y-88026329D01*
X121350235Y-88049428D01*
X121356196Y-88073227D01*
X121359796Y-88097495D01*
X121361000Y-88121999D01*
X121361000Y-88772001D01*
X121359796Y-88796505D01*
X121356196Y-88820773D01*
X121350235Y-88844572D01*
X121341970Y-88867671D01*
X121331480Y-88889850D01*
X121318868Y-88910893D01*
X121304253Y-88930599D01*
X121287777Y-88948777D01*
X121269599Y-88965253D01*
X121249893Y-88979868D01*
X121228850Y-88992480D01*
X121206671Y-89002970D01*
X121183572Y-89011235D01*
X121159773Y-89017196D01*
X121135505Y-89020796D01*
X121111001Y-89022000D01*
X120210999Y-89022000D01*
X120186495Y-89020796D01*
X120162227Y-89017196D01*
X120138428Y-89011235D01*
X120115329Y-89002970D01*
X120093150Y-88992480D01*
X120072107Y-88979868D01*
X120052401Y-88965253D01*
X120034223Y-88948777D01*
X120017747Y-88930599D01*
X120003132Y-88910893D01*
X119990520Y-88889850D01*
X119980030Y-88867671D01*
X119971765Y-88844572D01*
X119965804Y-88820773D01*
X119962204Y-88796505D01*
X119961000Y-88772001D01*
X119961000Y-88121999D01*
X119962204Y-88097495D01*
X119965804Y-88073227D01*
X119971765Y-88049428D01*
X119980030Y-88026329D01*
X119990520Y-88004150D01*
X120003132Y-87983107D01*
X120017747Y-87963401D01*
X120034223Y-87945223D01*
X120052401Y-87928747D01*
X120072107Y-87914132D01*
X120093150Y-87901520D01*
X120115329Y-87891030D01*
X120138428Y-87882765D01*
X120162227Y-87876804D01*
X120186495Y-87873204D01*
X120210999Y-87872000D01*
X121111001Y-87872000D01*
X121135505Y-87873204D01*
X121135505Y-87873204D01*
G37*
D16*
X120661000Y-88447000D03*
D13*
G36*
X116828505Y-87748204D02*
G01*
X116852773Y-87751804D01*
X116876572Y-87757765D01*
X116899671Y-87766030D01*
X116921850Y-87776520D01*
X116942893Y-87789132D01*
X116962599Y-87803747D01*
X116980777Y-87820223D01*
X116997253Y-87838401D01*
X117011868Y-87858107D01*
X117024480Y-87879150D01*
X117034970Y-87901329D01*
X117043235Y-87924428D01*
X117049196Y-87948227D01*
X117052796Y-87972495D01*
X117054000Y-87996999D01*
X117054000Y-88897001D01*
X117052796Y-88921505D01*
X117049196Y-88945773D01*
X117043235Y-88969572D01*
X117034970Y-88992671D01*
X117024480Y-89014850D01*
X117011868Y-89035893D01*
X116997253Y-89055599D01*
X116980777Y-89073777D01*
X116962599Y-89090253D01*
X116942893Y-89104868D01*
X116921850Y-89117480D01*
X116899671Y-89127970D01*
X116876572Y-89136235D01*
X116852773Y-89142196D01*
X116828505Y-89145796D01*
X116804001Y-89147000D01*
X116153999Y-89147000D01*
X116129495Y-89145796D01*
X116105227Y-89142196D01*
X116081428Y-89136235D01*
X116058329Y-89127970D01*
X116036150Y-89117480D01*
X116015107Y-89104868D01*
X115995401Y-89090253D01*
X115977223Y-89073777D01*
X115960747Y-89055599D01*
X115946132Y-89035893D01*
X115933520Y-89014850D01*
X115923030Y-88992671D01*
X115914765Y-88969572D01*
X115908804Y-88945773D01*
X115905204Y-88921505D01*
X115904000Y-88897001D01*
X115904000Y-87996999D01*
X115905204Y-87972495D01*
X115908804Y-87948227D01*
X115914765Y-87924428D01*
X115923030Y-87901329D01*
X115933520Y-87879150D01*
X115946132Y-87858107D01*
X115960747Y-87838401D01*
X115977223Y-87820223D01*
X115995401Y-87803747D01*
X116015107Y-87789132D01*
X116036150Y-87776520D01*
X116058329Y-87766030D01*
X116081428Y-87757765D01*
X116105227Y-87751804D01*
X116129495Y-87748204D01*
X116153999Y-87747000D01*
X116804001Y-87747000D01*
X116828505Y-87748204D01*
X116828505Y-87748204D01*
G37*
D16*
X116479000Y-88447000D03*
D13*
G36*
X114778505Y-87748204D02*
G01*
X114802773Y-87751804D01*
X114826572Y-87757765D01*
X114849671Y-87766030D01*
X114871850Y-87776520D01*
X114892893Y-87789132D01*
X114912599Y-87803747D01*
X114930777Y-87820223D01*
X114947253Y-87838401D01*
X114961868Y-87858107D01*
X114974480Y-87879150D01*
X114984970Y-87901329D01*
X114993235Y-87924428D01*
X114999196Y-87948227D01*
X115002796Y-87972495D01*
X115004000Y-87996999D01*
X115004000Y-88897001D01*
X115002796Y-88921505D01*
X114999196Y-88945773D01*
X114993235Y-88969572D01*
X114984970Y-88992671D01*
X114974480Y-89014850D01*
X114961868Y-89035893D01*
X114947253Y-89055599D01*
X114930777Y-89073777D01*
X114912599Y-89090253D01*
X114892893Y-89104868D01*
X114871850Y-89117480D01*
X114849671Y-89127970D01*
X114826572Y-89136235D01*
X114802773Y-89142196D01*
X114778505Y-89145796D01*
X114754001Y-89147000D01*
X114103999Y-89147000D01*
X114079495Y-89145796D01*
X114055227Y-89142196D01*
X114031428Y-89136235D01*
X114008329Y-89127970D01*
X113986150Y-89117480D01*
X113965107Y-89104868D01*
X113945401Y-89090253D01*
X113927223Y-89073777D01*
X113910747Y-89055599D01*
X113896132Y-89035893D01*
X113883520Y-89014850D01*
X113873030Y-88992671D01*
X113864765Y-88969572D01*
X113858804Y-88945773D01*
X113855204Y-88921505D01*
X113854000Y-88897001D01*
X113854000Y-87996999D01*
X113855204Y-87972495D01*
X113858804Y-87948227D01*
X113864765Y-87924428D01*
X113873030Y-87901329D01*
X113883520Y-87879150D01*
X113896132Y-87858107D01*
X113910747Y-87838401D01*
X113927223Y-87820223D01*
X113945401Y-87803747D01*
X113965107Y-87789132D01*
X113986150Y-87776520D01*
X114008329Y-87766030D01*
X114031428Y-87757765D01*
X114055227Y-87751804D01*
X114079495Y-87748204D01*
X114103999Y-87747000D01*
X114754001Y-87747000D01*
X114778505Y-87748204D01*
X114778505Y-87748204D01*
G37*
D16*
X114429000Y-88447000D03*
D13*
G36*
X118976505Y-89923204D02*
G01*
X119000773Y-89926804D01*
X119024572Y-89932765D01*
X119047671Y-89941030D01*
X119069850Y-89951520D01*
X119090893Y-89964132D01*
X119110599Y-89978747D01*
X119128777Y-89995223D01*
X119145253Y-90013401D01*
X119159868Y-90033107D01*
X119172480Y-90054150D01*
X119182970Y-90076329D01*
X119191235Y-90099428D01*
X119197196Y-90123227D01*
X119200796Y-90147495D01*
X119202000Y-90171999D01*
X119202000Y-90822001D01*
X119200796Y-90846505D01*
X119197196Y-90870773D01*
X119191235Y-90894572D01*
X119182970Y-90917671D01*
X119172480Y-90939850D01*
X119159868Y-90960893D01*
X119145253Y-90980599D01*
X119128777Y-90998777D01*
X119110599Y-91015253D01*
X119090893Y-91029868D01*
X119069850Y-91042480D01*
X119047671Y-91052970D01*
X119024572Y-91061235D01*
X119000773Y-91067196D01*
X118976505Y-91070796D01*
X118952001Y-91072000D01*
X118051999Y-91072000D01*
X118027495Y-91070796D01*
X118003227Y-91067196D01*
X117979428Y-91061235D01*
X117956329Y-91052970D01*
X117934150Y-91042480D01*
X117913107Y-91029868D01*
X117893401Y-91015253D01*
X117875223Y-90998777D01*
X117858747Y-90980599D01*
X117844132Y-90960893D01*
X117831520Y-90939850D01*
X117821030Y-90917671D01*
X117812765Y-90894572D01*
X117806804Y-90870773D01*
X117803204Y-90846505D01*
X117802000Y-90822001D01*
X117802000Y-90171999D01*
X117803204Y-90147495D01*
X117806804Y-90123227D01*
X117812765Y-90099428D01*
X117821030Y-90076329D01*
X117831520Y-90054150D01*
X117844132Y-90033107D01*
X117858747Y-90013401D01*
X117875223Y-89995223D01*
X117893401Y-89978747D01*
X117913107Y-89964132D01*
X117934150Y-89951520D01*
X117956329Y-89941030D01*
X117979428Y-89932765D01*
X118003227Y-89926804D01*
X118027495Y-89923204D01*
X118051999Y-89922000D01*
X118952001Y-89922000D01*
X118976505Y-89923204D01*
X118976505Y-89923204D01*
G37*
D16*
X118502000Y-90497000D03*
D13*
G36*
X118976505Y-87873204D02*
G01*
X119000773Y-87876804D01*
X119024572Y-87882765D01*
X119047671Y-87891030D01*
X119069850Y-87901520D01*
X119090893Y-87914132D01*
X119110599Y-87928747D01*
X119128777Y-87945223D01*
X119145253Y-87963401D01*
X119159868Y-87983107D01*
X119172480Y-88004150D01*
X119182970Y-88026329D01*
X119191235Y-88049428D01*
X119197196Y-88073227D01*
X119200796Y-88097495D01*
X119202000Y-88121999D01*
X119202000Y-88772001D01*
X119200796Y-88796505D01*
X119197196Y-88820773D01*
X119191235Y-88844572D01*
X119182970Y-88867671D01*
X119172480Y-88889850D01*
X119159868Y-88910893D01*
X119145253Y-88930599D01*
X119128777Y-88948777D01*
X119110599Y-88965253D01*
X119090893Y-88979868D01*
X119069850Y-88992480D01*
X119047671Y-89002970D01*
X119024572Y-89011235D01*
X119000773Y-89017196D01*
X118976505Y-89020796D01*
X118952001Y-89022000D01*
X118051999Y-89022000D01*
X118027495Y-89020796D01*
X118003227Y-89017196D01*
X117979428Y-89011235D01*
X117956329Y-89002970D01*
X117934150Y-88992480D01*
X117913107Y-88979868D01*
X117893401Y-88965253D01*
X117875223Y-88948777D01*
X117858747Y-88930599D01*
X117844132Y-88910893D01*
X117831520Y-88889850D01*
X117821030Y-88867671D01*
X117812765Y-88844572D01*
X117806804Y-88820773D01*
X117803204Y-88796505D01*
X117802000Y-88772001D01*
X117802000Y-88121999D01*
X117803204Y-88097495D01*
X117806804Y-88073227D01*
X117812765Y-88049428D01*
X117821030Y-88026329D01*
X117831520Y-88004150D01*
X117844132Y-87983107D01*
X117858747Y-87963401D01*
X117875223Y-87945223D01*
X117893401Y-87928747D01*
X117913107Y-87914132D01*
X117934150Y-87901520D01*
X117956329Y-87891030D01*
X117979428Y-87882765D01*
X118003227Y-87876804D01*
X118027495Y-87873204D01*
X118051999Y-87872000D01*
X118952001Y-87872000D01*
X118976505Y-87873204D01*
X118976505Y-87873204D01*
G37*
D16*
X118502000Y-88447000D03*
D13*
G36*
X112882505Y-87748204D02*
G01*
X112906773Y-87751804D01*
X112930572Y-87757765D01*
X112953671Y-87766030D01*
X112975850Y-87776520D01*
X112996893Y-87789132D01*
X113016599Y-87803747D01*
X113034777Y-87820223D01*
X113051253Y-87838401D01*
X113065868Y-87858107D01*
X113078480Y-87879150D01*
X113088970Y-87901329D01*
X113097235Y-87924428D01*
X113103196Y-87948227D01*
X113106796Y-87972495D01*
X113108000Y-87996999D01*
X113108000Y-88897001D01*
X113106796Y-88921505D01*
X113103196Y-88945773D01*
X113097235Y-88969572D01*
X113088970Y-88992671D01*
X113078480Y-89014850D01*
X113065868Y-89035893D01*
X113051253Y-89055599D01*
X113034777Y-89073777D01*
X113016599Y-89090253D01*
X112996893Y-89104868D01*
X112975850Y-89117480D01*
X112953671Y-89127970D01*
X112930572Y-89136235D01*
X112906773Y-89142196D01*
X112882505Y-89145796D01*
X112858001Y-89147000D01*
X112207999Y-89147000D01*
X112183495Y-89145796D01*
X112159227Y-89142196D01*
X112135428Y-89136235D01*
X112112329Y-89127970D01*
X112090150Y-89117480D01*
X112069107Y-89104868D01*
X112049401Y-89090253D01*
X112031223Y-89073777D01*
X112014747Y-89055599D01*
X112000132Y-89035893D01*
X111987520Y-89014850D01*
X111977030Y-88992671D01*
X111968765Y-88969572D01*
X111962804Y-88945773D01*
X111959204Y-88921505D01*
X111958000Y-88897001D01*
X111958000Y-87996999D01*
X111959204Y-87972495D01*
X111962804Y-87948227D01*
X111968765Y-87924428D01*
X111977030Y-87901329D01*
X111987520Y-87879150D01*
X112000132Y-87858107D01*
X112014747Y-87838401D01*
X112031223Y-87820223D01*
X112049401Y-87803747D01*
X112069107Y-87789132D01*
X112090150Y-87776520D01*
X112112329Y-87766030D01*
X112135428Y-87757765D01*
X112159227Y-87751804D01*
X112183495Y-87748204D01*
X112207999Y-87747000D01*
X112858001Y-87747000D01*
X112882505Y-87748204D01*
X112882505Y-87748204D01*
G37*
D16*
X112533000Y-88447000D03*
D13*
G36*
X110832505Y-87748204D02*
G01*
X110856773Y-87751804D01*
X110880572Y-87757765D01*
X110903671Y-87766030D01*
X110925850Y-87776520D01*
X110946893Y-87789132D01*
X110966599Y-87803747D01*
X110984777Y-87820223D01*
X111001253Y-87838401D01*
X111015868Y-87858107D01*
X111028480Y-87879150D01*
X111038970Y-87901329D01*
X111047235Y-87924428D01*
X111053196Y-87948227D01*
X111056796Y-87972495D01*
X111058000Y-87996999D01*
X111058000Y-88897001D01*
X111056796Y-88921505D01*
X111053196Y-88945773D01*
X111047235Y-88969572D01*
X111038970Y-88992671D01*
X111028480Y-89014850D01*
X111015868Y-89035893D01*
X111001253Y-89055599D01*
X110984777Y-89073777D01*
X110966599Y-89090253D01*
X110946893Y-89104868D01*
X110925850Y-89117480D01*
X110903671Y-89127970D01*
X110880572Y-89136235D01*
X110856773Y-89142196D01*
X110832505Y-89145796D01*
X110808001Y-89147000D01*
X110157999Y-89147000D01*
X110133495Y-89145796D01*
X110109227Y-89142196D01*
X110085428Y-89136235D01*
X110062329Y-89127970D01*
X110040150Y-89117480D01*
X110019107Y-89104868D01*
X109999401Y-89090253D01*
X109981223Y-89073777D01*
X109964747Y-89055599D01*
X109950132Y-89035893D01*
X109937520Y-89014850D01*
X109927030Y-88992671D01*
X109918765Y-88969572D01*
X109912804Y-88945773D01*
X109909204Y-88921505D01*
X109908000Y-88897001D01*
X109908000Y-87996999D01*
X109909204Y-87972495D01*
X109912804Y-87948227D01*
X109918765Y-87924428D01*
X109927030Y-87901329D01*
X109937520Y-87879150D01*
X109950132Y-87858107D01*
X109964747Y-87838401D01*
X109981223Y-87820223D01*
X109999401Y-87803747D01*
X110019107Y-87789132D01*
X110040150Y-87776520D01*
X110062329Y-87766030D01*
X110085428Y-87757765D01*
X110109227Y-87751804D01*
X110133495Y-87748204D01*
X110157999Y-87747000D01*
X110808001Y-87747000D01*
X110832505Y-87748204D01*
X110832505Y-87748204D01*
G37*
D16*
X110483000Y-88447000D03*
D13*
G36*
X135731505Y-104520704D02*
G01*
X135755773Y-104524304D01*
X135779572Y-104530265D01*
X135802671Y-104538530D01*
X135824850Y-104549020D01*
X135845893Y-104561632D01*
X135865599Y-104576247D01*
X135883777Y-104592723D01*
X135900253Y-104610901D01*
X135914868Y-104630607D01*
X135927480Y-104651650D01*
X135937970Y-104673829D01*
X135946235Y-104696928D01*
X135952196Y-104720727D01*
X135955796Y-104744995D01*
X135957000Y-104769499D01*
X135957000Y-105669501D01*
X135955796Y-105694005D01*
X135952196Y-105718273D01*
X135946235Y-105742072D01*
X135937970Y-105765171D01*
X135927480Y-105787350D01*
X135914868Y-105808393D01*
X135900253Y-105828099D01*
X135883777Y-105846277D01*
X135865599Y-105862753D01*
X135845893Y-105877368D01*
X135824850Y-105889980D01*
X135802671Y-105900470D01*
X135779572Y-105908735D01*
X135755773Y-105914696D01*
X135731505Y-105918296D01*
X135707001Y-105919500D01*
X135056999Y-105919500D01*
X135032495Y-105918296D01*
X135008227Y-105914696D01*
X134984428Y-105908735D01*
X134961329Y-105900470D01*
X134939150Y-105889980D01*
X134918107Y-105877368D01*
X134898401Y-105862753D01*
X134880223Y-105846277D01*
X134863747Y-105828099D01*
X134849132Y-105808393D01*
X134836520Y-105787350D01*
X134826030Y-105765171D01*
X134817765Y-105742072D01*
X134811804Y-105718273D01*
X134808204Y-105694005D01*
X134807000Y-105669501D01*
X134807000Y-104769499D01*
X134808204Y-104744995D01*
X134811804Y-104720727D01*
X134817765Y-104696928D01*
X134826030Y-104673829D01*
X134836520Y-104651650D01*
X134849132Y-104630607D01*
X134863747Y-104610901D01*
X134880223Y-104592723D01*
X134898401Y-104576247D01*
X134918107Y-104561632D01*
X134939150Y-104549020D01*
X134961329Y-104538530D01*
X134984428Y-104530265D01*
X135008227Y-104524304D01*
X135032495Y-104520704D01*
X135056999Y-104519500D01*
X135707001Y-104519500D01*
X135731505Y-104520704D01*
X135731505Y-104520704D01*
G37*
D16*
X135382000Y-105219500D03*
D13*
G36*
X133681505Y-104520704D02*
G01*
X133705773Y-104524304D01*
X133729572Y-104530265D01*
X133752671Y-104538530D01*
X133774850Y-104549020D01*
X133795893Y-104561632D01*
X133815599Y-104576247D01*
X133833777Y-104592723D01*
X133850253Y-104610901D01*
X133864868Y-104630607D01*
X133877480Y-104651650D01*
X133887970Y-104673829D01*
X133896235Y-104696928D01*
X133902196Y-104720727D01*
X133905796Y-104744995D01*
X133907000Y-104769499D01*
X133907000Y-105669501D01*
X133905796Y-105694005D01*
X133902196Y-105718273D01*
X133896235Y-105742072D01*
X133887970Y-105765171D01*
X133877480Y-105787350D01*
X133864868Y-105808393D01*
X133850253Y-105828099D01*
X133833777Y-105846277D01*
X133815599Y-105862753D01*
X133795893Y-105877368D01*
X133774850Y-105889980D01*
X133752671Y-105900470D01*
X133729572Y-105908735D01*
X133705773Y-105914696D01*
X133681505Y-105918296D01*
X133657001Y-105919500D01*
X133006999Y-105919500D01*
X132982495Y-105918296D01*
X132958227Y-105914696D01*
X132934428Y-105908735D01*
X132911329Y-105900470D01*
X132889150Y-105889980D01*
X132868107Y-105877368D01*
X132848401Y-105862753D01*
X132830223Y-105846277D01*
X132813747Y-105828099D01*
X132799132Y-105808393D01*
X132786520Y-105787350D01*
X132776030Y-105765171D01*
X132767765Y-105742072D01*
X132761804Y-105718273D01*
X132758204Y-105694005D01*
X132757000Y-105669501D01*
X132757000Y-104769499D01*
X132758204Y-104744995D01*
X132761804Y-104720727D01*
X132767765Y-104696928D01*
X132776030Y-104673829D01*
X132786520Y-104651650D01*
X132799132Y-104630607D01*
X132813747Y-104610901D01*
X132830223Y-104592723D01*
X132848401Y-104576247D01*
X132868107Y-104561632D01*
X132889150Y-104549020D01*
X132911329Y-104538530D01*
X132934428Y-104530265D01*
X132958227Y-104524304D01*
X132982495Y-104520704D01*
X133006999Y-104519500D01*
X133657001Y-104519500D01*
X133681505Y-104520704D01*
X133681505Y-104520704D01*
G37*
D16*
X133332000Y-105219500D03*
D13*
G36*
X128220505Y-109029204D02*
G01*
X128244773Y-109032804D01*
X128268572Y-109038765D01*
X128291671Y-109047030D01*
X128313850Y-109057520D01*
X128334893Y-109070132D01*
X128354599Y-109084747D01*
X128372777Y-109101223D01*
X128389253Y-109119401D01*
X128403868Y-109139107D01*
X128416480Y-109160150D01*
X128426970Y-109182329D01*
X128435235Y-109205428D01*
X128441196Y-109229227D01*
X128444796Y-109253495D01*
X128446000Y-109277999D01*
X128446000Y-110178001D01*
X128444796Y-110202505D01*
X128441196Y-110226773D01*
X128435235Y-110250572D01*
X128426970Y-110273671D01*
X128416480Y-110295850D01*
X128403868Y-110316893D01*
X128389253Y-110336599D01*
X128372777Y-110354777D01*
X128354599Y-110371253D01*
X128334893Y-110385868D01*
X128313850Y-110398480D01*
X128291671Y-110408970D01*
X128268572Y-110417235D01*
X128244773Y-110423196D01*
X128220505Y-110426796D01*
X128196001Y-110428000D01*
X127545999Y-110428000D01*
X127521495Y-110426796D01*
X127497227Y-110423196D01*
X127473428Y-110417235D01*
X127450329Y-110408970D01*
X127428150Y-110398480D01*
X127407107Y-110385868D01*
X127387401Y-110371253D01*
X127369223Y-110354777D01*
X127352747Y-110336599D01*
X127338132Y-110316893D01*
X127325520Y-110295850D01*
X127315030Y-110273671D01*
X127306765Y-110250572D01*
X127300804Y-110226773D01*
X127297204Y-110202505D01*
X127296000Y-110178001D01*
X127296000Y-109277999D01*
X127297204Y-109253495D01*
X127300804Y-109229227D01*
X127306765Y-109205428D01*
X127315030Y-109182329D01*
X127325520Y-109160150D01*
X127338132Y-109139107D01*
X127352747Y-109119401D01*
X127369223Y-109101223D01*
X127387401Y-109084747D01*
X127407107Y-109070132D01*
X127428150Y-109057520D01*
X127450329Y-109047030D01*
X127473428Y-109038765D01*
X127497227Y-109032804D01*
X127521495Y-109029204D01*
X127545999Y-109028000D01*
X128196001Y-109028000D01*
X128220505Y-109029204D01*
X128220505Y-109029204D01*
G37*
D16*
X127871000Y-109728000D03*
D13*
G36*
X130270505Y-109029204D02*
G01*
X130294773Y-109032804D01*
X130318572Y-109038765D01*
X130341671Y-109047030D01*
X130363850Y-109057520D01*
X130384893Y-109070132D01*
X130404599Y-109084747D01*
X130422777Y-109101223D01*
X130439253Y-109119401D01*
X130453868Y-109139107D01*
X130466480Y-109160150D01*
X130476970Y-109182329D01*
X130485235Y-109205428D01*
X130491196Y-109229227D01*
X130494796Y-109253495D01*
X130496000Y-109277999D01*
X130496000Y-110178001D01*
X130494796Y-110202505D01*
X130491196Y-110226773D01*
X130485235Y-110250572D01*
X130476970Y-110273671D01*
X130466480Y-110295850D01*
X130453868Y-110316893D01*
X130439253Y-110336599D01*
X130422777Y-110354777D01*
X130404599Y-110371253D01*
X130384893Y-110385868D01*
X130363850Y-110398480D01*
X130341671Y-110408970D01*
X130318572Y-110417235D01*
X130294773Y-110423196D01*
X130270505Y-110426796D01*
X130246001Y-110428000D01*
X129595999Y-110428000D01*
X129571495Y-110426796D01*
X129547227Y-110423196D01*
X129523428Y-110417235D01*
X129500329Y-110408970D01*
X129478150Y-110398480D01*
X129457107Y-110385868D01*
X129437401Y-110371253D01*
X129419223Y-110354777D01*
X129402747Y-110336599D01*
X129388132Y-110316893D01*
X129375520Y-110295850D01*
X129365030Y-110273671D01*
X129356765Y-110250572D01*
X129350804Y-110226773D01*
X129347204Y-110202505D01*
X129346000Y-110178001D01*
X129346000Y-109277999D01*
X129347204Y-109253495D01*
X129350804Y-109229227D01*
X129356765Y-109205428D01*
X129365030Y-109182329D01*
X129375520Y-109160150D01*
X129388132Y-109139107D01*
X129402747Y-109119401D01*
X129419223Y-109101223D01*
X129437401Y-109084747D01*
X129457107Y-109070132D01*
X129478150Y-109057520D01*
X129500329Y-109047030D01*
X129523428Y-109038765D01*
X129547227Y-109032804D01*
X129571495Y-109029204D01*
X129595999Y-109028000D01*
X130246001Y-109028000D01*
X130270505Y-109029204D01*
X130270505Y-109029204D01*
G37*
D16*
X129921000Y-109728000D03*
D13*
G36*
X135686005Y-101218704D02*
G01*
X135710273Y-101222304D01*
X135734072Y-101228265D01*
X135757171Y-101236530D01*
X135779350Y-101247020D01*
X135800393Y-101259632D01*
X135820099Y-101274247D01*
X135838277Y-101290723D01*
X135854753Y-101308901D01*
X135869368Y-101328607D01*
X135881980Y-101349650D01*
X135892470Y-101371829D01*
X135900735Y-101394928D01*
X135906696Y-101418727D01*
X135910296Y-101442995D01*
X135911500Y-101467499D01*
X135911500Y-102367501D01*
X135910296Y-102392005D01*
X135906696Y-102416273D01*
X135900735Y-102440072D01*
X135892470Y-102463171D01*
X135881980Y-102485350D01*
X135869368Y-102506393D01*
X135854753Y-102526099D01*
X135838277Y-102544277D01*
X135820099Y-102560753D01*
X135800393Y-102575368D01*
X135779350Y-102587980D01*
X135757171Y-102598470D01*
X135734072Y-102606735D01*
X135710273Y-102612696D01*
X135686005Y-102616296D01*
X135661501Y-102617500D01*
X135011499Y-102617500D01*
X134986995Y-102616296D01*
X134962727Y-102612696D01*
X134938928Y-102606735D01*
X134915829Y-102598470D01*
X134893650Y-102587980D01*
X134872607Y-102575368D01*
X134852901Y-102560753D01*
X134834723Y-102544277D01*
X134818247Y-102526099D01*
X134803632Y-102506393D01*
X134791020Y-102485350D01*
X134780530Y-102463171D01*
X134772265Y-102440072D01*
X134766304Y-102416273D01*
X134762704Y-102392005D01*
X134761500Y-102367501D01*
X134761500Y-101467499D01*
X134762704Y-101442995D01*
X134766304Y-101418727D01*
X134772265Y-101394928D01*
X134780530Y-101371829D01*
X134791020Y-101349650D01*
X134803632Y-101328607D01*
X134818247Y-101308901D01*
X134834723Y-101290723D01*
X134852901Y-101274247D01*
X134872607Y-101259632D01*
X134893650Y-101247020D01*
X134915829Y-101236530D01*
X134938928Y-101228265D01*
X134962727Y-101222304D01*
X134986995Y-101218704D01*
X135011499Y-101217500D01*
X135661501Y-101217500D01*
X135686005Y-101218704D01*
X135686005Y-101218704D01*
G37*
D16*
X135336500Y-101917500D03*
D13*
G36*
X133636005Y-101218704D02*
G01*
X133660273Y-101222304D01*
X133684072Y-101228265D01*
X133707171Y-101236530D01*
X133729350Y-101247020D01*
X133750393Y-101259632D01*
X133770099Y-101274247D01*
X133788277Y-101290723D01*
X133804753Y-101308901D01*
X133819368Y-101328607D01*
X133831980Y-101349650D01*
X133842470Y-101371829D01*
X133850735Y-101394928D01*
X133856696Y-101418727D01*
X133860296Y-101442995D01*
X133861500Y-101467499D01*
X133861500Y-102367501D01*
X133860296Y-102392005D01*
X133856696Y-102416273D01*
X133850735Y-102440072D01*
X133842470Y-102463171D01*
X133831980Y-102485350D01*
X133819368Y-102506393D01*
X133804753Y-102526099D01*
X133788277Y-102544277D01*
X133770099Y-102560753D01*
X133750393Y-102575368D01*
X133729350Y-102587980D01*
X133707171Y-102598470D01*
X133684072Y-102606735D01*
X133660273Y-102612696D01*
X133636005Y-102616296D01*
X133611501Y-102617500D01*
X132961499Y-102617500D01*
X132936995Y-102616296D01*
X132912727Y-102612696D01*
X132888928Y-102606735D01*
X132865829Y-102598470D01*
X132843650Y-102587980D01*
X132822607Y-102575368D01*
X132802901Y-102560753D01*
X132784723Y-102544277D01*
X132768247Y-102526099D01*
X132753632Y-102506393D01*
X132741020Y-102485350D01*
X132730530Y-102463171D01*
X132722265Y-102440072D01*
X132716304Y-102416273D01*
X132712704Y-102392005D01*
X132711500Y-102367501D01*
X132711500Y-101467499D01*
X132712704Y-101442995D01*
X132716304Y-101418727D01*
X132722265Y-101394928D01*
X132730530Y-101371829D01*
X132741020Y-101349650D01*
X132753632Y-101328607D01*
X132768247Y-101308901D01*
X132784723Y-101290723D01*
X132802901Y-101274247D01*
X132822607Y-101259632D01*
X132843650Y-101247020D01*
X132865829Y-101236530D01*
X132888928Y-101228265D01*
X132912727Y-101222304D01*
X132936995Y-101218704D01*
X132961499Y-101217500D01*
X133611501Y-101217500D01*
X133636005Y-101218704D01*
X133636005Y-101218704D01*
G37*
D16*
X133286500Y-101917500D03*
D13*
G36*
X135668005Y-97853204D02*
G01*
X135692273Y-97856804D01*
X135716072Y-97862765D01*
X135739171Y-97871030D01*
X135761350Y-97881520D01*
X135782393Y-97894132D01*
X135802099Y-97908747D01*
X135820277Y-97925223D01*
X135836753Y-97943401D01*
X135851368Y-97963107D01*
X135863980Y-97984150D01*
X135874470Y-98006329D01*
X135882735Y-98029428D01*
X135888696Y-98053227D01*
X135892296Y-98077495D01*
X135893500Y-98101999D01*
X135893500Y-99002001D01*
X135892296Y-99026505D01*
X135888696Y-99050773D01*
X135882735Y-99074572D01*
X135874470Y-99097671D01*
X135863980Y-99119850D01*
X135851368Y-99140893D01*
X135836753Y-99160599D01*
X135820277Y-99178777D01*
X135802099Y-99195253D01*
X135782393Y-99209868D01*
X135761350Y-99222480D01*
X135739171Y-99232970D01*
X135716072Y-99241235D01*
X135692273Y-99247196D01*
X135668005Y-99250796D01*
X135643501Y-99252000D01*
X134993499Y-99252000D01*
X134968995Y-99250796D01*
X134944727Y-99247196D01*
X134920928Y-99241235D01*
X134897829Y-99232970D01*
X134875650Y-99222480D01*
X134854607Y-99209868D01*
X134834901Y-99195253D01*
X134816723Y-99178777D01*
X134800247Y-99160599D01*
X134785632Y-99140893D01*
X134773020Y-99119850D01*
X134762530Y-99097671D01*
X134754265Y-99074572D01*
X134748304Y-99050773D01*
X134744704Y-99026505D01*
X134743500Y-99002001D01*
X134743500Y-98101999D01*
X134744704Y-98077495D01*
X134748304Y-98053227D01*
X134754265Y-98029428D01*
X134762530Y-98006329D01*
X134773020Y-97984150D01*
X134785632Y-97963107D01*
X134800247Y-97943401D01*
X134816723Y-97925223D01*
X134834901Y-97908747D01*
X134854607Y-97894132D01*
X134875650Y-97881520D01*
X134897829Y-97871030D01*
X134920928Y-97862765D01*
X134944727Y-97856804D01*
X134968995Y-97853204D01*
X134993499Y-97852000D01*
X135643501Y-97852000D01*
X135668005Y-97853204D01*
X135668005Y-97853204D01*
G37*
D16*
X135318500Y-98552000D03*
D13*
G36*
X133618005Y-97853204D02*
G01*
X133642273Y-97856804D01*
X133666072Y-97862765D01*
X133689171Y-97871030D01*
X133711350Y-97881520D01*
X133732393Y-97894132D01*
X133752099Y-97908747D01*
X133770277Y-97925223D01*
X133786753Y-97943401D01*
X133801368Y-97963107D01*
X133813980Y-97984150D01*
X133824470Y-98006329D01*
X133832735Y-98029428D01*
X133838696Y-98053227D01*
X133842296Y-98077495D01*
X133843500Y-98101999D01*
X133843500Y-99002001D01*
X133842296Y-99026505D01*
X133838696Y-99050773D01*
X133832735Y-99074572D01*
X133824470Y-99097671D01*
X133813980Y-99119850D01*
X133801368Y-99140893D01*
X133786753Y-99160599D01*
X133770277Y-99178777D01*
X133752099Y-99195253D01*
X133732393Y-99209868D01*
X133711350Y-99222480D01*
X133689171Y-99232970D01*
X133666072Y-99241235D01*
X133642273Y-99247196D01*
X133618005Y-99250796D01*
X133593501Y-99252000D01*
X132943499Y-99252000D01*
X132918995Y-99250796D01*
X132894727Y-99247196D01*
X132870928Y-99241235D01*
X132847829Y-99232970D01*
X132825650Y-99222480D01*
X132804607Y-99209868D01*
X132784901Y-99195253D01*
X132766723Y-99178777D01*
X132750247Y-99160599D01*
X132735632Y-99140893D01*
X132723020Y-99119850D01*
X132712530Y-99097671D01*
X132704265Y-99074572D01*
X132698304Y-99050773D01*
X132694704Y-99026505D01*
X132693500Y-99002001D01*
X132693500Y-98101999D01*
X132694704Y-98077495D01*
X132698304Y-98053227D01*
X132704265Y-98029428D01*
X132712530Y-98006329D01*
X132723020Y-97984150D01*
X132735632Y-97963107D01*
X132750247Y-97943401D01*
X132766723Y-97925223D01*
X132784901Y-97908747D01*
X132804607Y-97894132D01*
X132825650Y-97881520D01*
X132847829Y-97871030D01*
X132870928Y-97862765D01*
X132894727Y-97856804D01*
X132918995Y-97853204D01*
X132943499Y-97852000D01*
X133593501Y-97852000D01*
X133618005Y-97853204D01*
X133618005Y-97853204D01*
G37*
D16*
X133268500Y-98552000D03*
D13*
G36*
X139349005Y-96971204D02*
G01*
X139373273Y-96974804D01*
X139397072Y-96980765D01*
X139420171Y-96989030D01*
X139442350Y-96999520D01*
X139463393Y-97012132D01*
X139483099Y-97026747D01*
X139501277Y-97043223D01*
X139517753Y-97061401D01*
X139532368Y-97081107D01*
X139544980Y-97102150D01*
X139555470Y-97124329D01*
X139563735Y-97147428D01*
X139569696Y-97171227D01*
X139573296Y-97195495D01*
X139574500Y-97219999D01*
X139574500Y-97870001D01*
X139573296Y-97894505D01*
X139569696Y-97918773D01*
X139563735Y-97942572D01*
X139555470Y-97965671D01*
X139544980Y-97987850D01*
X139532368Y-98008893D01*
X139517753Y-98028599D01*
X139501277Y-98046777D01*
X139483099Y-98063253D01*
X139463393Y-98077868D01*
X139442350Y-98090480D01*
X139420171Y-98100970D01*
X139397072Y-98109235D01*
X139373273Y-98115196D01*
X139349005Y-98118796D01*
X139324501Y-98120000D01*
X138424499Y-98120000D01*
X138399995Y-98118796D01*
X138375727Y-98115196D01*
X138351928Y-98109235D01*
X138328829Y-98100970D01*
X138306650Y-98090480D01*
X138285607Y-98077868D01*
X138265901Y-98063253D01*
X138247723Y-98046777D01*
X138231247Y-98028599D01*
X138216632Y-98008893D01*
X138204020Y-97987850D01*
X138193530Y-97965671D01*
X138185265Y-97942572D01*
X138179304Y-97918773D01*
X138175704Y-97894505D01*
X138174500Y-97870001D01*
X138174500Y-97219999D01*
X138175704Y-97195495D01*
X138179304Y-97171227D01*
X138185265Y-97147428D01*
X138193530Y-97124329D01*
X138204020Y-97102150D01*
X138216632Y-97081107D01*
X138231247Y-97061401D01*
X138247723Y-97043223D01*
X138265901Y-97026747D01*
X138285607Y-97012132D01*
X138306650Y-96999520D01*
X138328829Y-96989030D01*
X138351928Y-96980765D01*
X138375727Y-96974804D01*
X138399995Y-96971204D01*
X138424499Y-96970000D01*
X139324501Y-96970000D01*
X139349005Y-96971204D01*
X139349005Y-96971204D01*
G37*
D16*
X138874500Y-97545000D03*
D13*
G36*
X139349005Y-94921204D02*
G01*
X139373273Y-94924804D01*
X139397072Y-94930765D01*
X139420171Y-94939030D01*
X139442350Y-94949520D01*
X139463393Y-94962132D01*
X139483099Y-94976747D01*
X139501277Y-94993223D01*
X139517753Y-95011401D01*
X139532368Y-95031107D01*
X139544980Y-95052150D01*
X139555470Y-95074329D01*
X139563735Y-95097428D01*
X139569696Y-95121227D01*
X139573296Y-95145495D01*
X139574500Y-95169999D01*
X139574500Y-95820001D01*
X139573296Y-95844505D01*
X139569696Y-95868773D01*
X139563735Y-95892572D01*
X139555470Y-95915671D01*
X139544980Y-95937850D01*
X139532368Y-95958893D01*
X139517753Y-95978599D01*
X139501277Y-95996777D01*
X139483099Y-96013253D01*
X139463393Y-96027868D01*
X139442350Y-96040480D01*
X139420171Y-96050970D01*
X139397072Y-96059235D01*
X139373273Y-96065196D01*
X139349005Y-96068796D01*
X139324501Y-96070000D01*
X138424499Y-96070000D01*
X138399995Y-96068796D01*
X138375727Y-96065196D01*
X138351928Y-96059235D01*
X138328829Y-96050970D01*
X138306650Y-96040480D01*
X138285607Y-96027868D01*
X138265901Y-96013253D01*
X138247723Y-95996777D01*
X138231247Y-95978599D01*
X138216632Y-95958893D01*
X138204020Y-95937850D01*
X138193530Y-95915671D01*
X138185265Y-95892572D01*
X138179304Y-95868773D01*
X138175704Y-95844505D01*
X138174500Y-95820001D01*
X138174500Y-95169999D01*
X138175704Y-95145495D01*
X138179304Y-95121227D01*
X138185265Y-95097428D01*
X138193530Y-95074329D01*
X138204020Y-95052150D01*
X138216632Y-95031107D01*
X138231247Y-95011401D01*
X138247723Y-94993223D01*
X138265901Y-94976747D01*
X138285607Y-94962132D01*
X138306650Y-94949520D01*
X138328829Y-94939030D01*
X138351928Y-94930765D01*
X138375727Y-94924804D01*
X138399995Y-94921204D01*
X138424499Y-94920000D01*
X139324501Y-94920000D01*
X139349005Y-94921204D01*
X139349005Y-94921204D01*
G37*
D16*
X138874500Y-95495000D03*
D13*
G36*
X113604005Y-84519204D02*
G01*
X113628273Y-84522804D01*
X113652072Y-84528765D01*
X113675171Y-84537030D01*
X113697350Y-84547520D01*
X113718393Y-84560132D01*
X113738099Y-84574747D01*
X113756277Y-84591223D01*
X113772753Y-84609401D01*
X113787368Y-84629107D01*
X113799980Y-84650150D01*
X113810470Y-84672329D01*
X113818735Y-84695428D01*
X113824696Y-84719227D01*
X113828296Y-84743495D01*
X113829500Y-84767999D01*
X113829500Y-85418001D01*
X113828296Y-85442505D01*
X113824696Y-85466773D01*
X113818735Y-85490572D01*
X113810470Y-85513671D01*
X113799980Y-85535850D01*
X113787368Y-85556893D01*
X113772753Y-85576599D01*
X113756277Y-85594777D01*
X113738099Y-85611253D01*
X113718393Y-85625868D01*
X113697350Y-85638480D01*
X113675171Y-85648970D01*
X113652072Y-85657235D01*
X113628273Y-85663196D01*
X113604005Y-85666796D01*
X113579501Y-85668000D01*
X112679499Y-85668000D01*
X112654995Y-85666796D01*
X112630727Y-85663196D01*
X112606928Y-85657235D01*
X112583829Y-85648970D01*
X112561650Y-85638480D01*
X112540607Y-85625868D01*
X112520901Y-85611253D01*
X112502723Y-85594777D01*
X112486247Y-85576599D01*
X112471632Y-85556893D01*
X112459020Y-85535850D01*
X112448530Y-85513671D01*
X112440265Y-85490572D01*
X112434304Y-85466773D01*
X112430704Y-85442505D01*
X112429500Y-85418001D01*
X112429500Y-84767999D01*
X112430704Y-84743495D01*
X112434304Y-84719227D01*
X112440265Y-84695428D01*
X112448530Y-84672329D01*
X112459020Y-84650150D01*
X112471632Y-84629107D01*
X112486247Y-84609401D01*
X112502723Y-84591223D01*
X112520901Y-84574747D01*
X112540607Y-84560132D01*
X112561650Y-84547520D01*
X112583829Y-84537030D01*
X112606928Y-84528765D01*
X112630727Y-84522804D01*
X112654995Y-84519204D01*
X112679499Y-84518000D01*
X113579501Y-84518000D01*
X113604005Y-84519204D01*
X113604005Y-84519204D01*
G37*
D16*
X113129500Y-85093000D03*
D13*
G36*
X113604005Y-82469204D02*
G01*
X113628273Y-82472804D01*
X113652072Y-82478765D01*
X113675171Y-82487030D01*
X113697350Y-82497520D01*
X113718393Y-82510132D01*
X113738099Y-82524747D01*
X113756277Y-82541223D01*
X113772753Y-82559401D01*
X113787368Y-82579107D01*
X113799980Y-82600150D01*
X113810470Y-82622329D01*
X113818735Y-82645428D01*
X113824696Y-82669227D01*
X113828296Y-82693495D01*
X113829500Y-82717999D01*
X113829500Y-83368001D01*
X113828296Y-83392505D01*
X113824696Y-83416773D01*
X113818735Y-83440572D01*
X113810470Y-83463671D01*
X113799980Y-83485850D01*
X113787368Y-83506893D01*
X113772753Y-83526599D01*
X113756277Y-83544777D01*
X113738099Y-83561253D01*
X113718393Y-83575868D01*
X113697350Y-83588480D01*
X113675171Y-83598970D01*
X113652072Y-83607235D01*
X113628273Y-83613196D01*
X113604005Y-83616796D01*
X113579501Y-83618000D01*
X112679499Y-83618000D01*
X112654995Y-83616796D01*
X112630727Y-83613196D01*
X112606928Y-83607235D01*
X112583829Y-83598970D01*
X112561650Y-83588480D01*
X112540607Y-83575868D01*
X112520901Y-83561253D01*
X112502723Y-83544777D01*
X112486247Y-83526599D01*
X112471632Y-83506893D01*
X112459020Y-83485850D01*
X112448530Y-83463671D01*
X112440265Y-83440572D01*
X112434304Y-83416773D01*
X112430704Y-83392505D01*
X112429500Y-83368001D01*
X112429500Y-82717999D01*
X112430704Y-82693495D01*
X112434304Y-82669227D01*
X112440265Y-82645428D01*
X112448530Y-82622329D01*
X112459020Y-82600150D01*
X112471632Y-82579107D01*
X112486247Y-82559401D01*
X112502723Y-82541223D01*
X112520901Y-82524747D01*
X112540607Y-82510132D01*
X112561650Y-82497520D01*
X112583829Y-82487030D01*
X112606928Y-82478765D01*
X112630727Y-82472804D01*
X112654995Y-82469204D01*
X112679499Y-82468000D01*
X113579501Y-82468000D01*
X113604005Y-82469204D01*
X113604005Y-82469204D01*
G37*
D16*
X113129500Y-83043000D03*
D13*
G36*
X106551505Y-82304704D02*
G01*
X106575773Y-82308304D01*
X106599572Y-82314265D01*
X106622671Y-82322530D01*
X106644850Y-82333020D01*
X106665893Y-82345632D01*
X106685599Y-82360247D01*
X106703777Y-82376723D01*
X106720253Y-82394901D01*
X106734868Y-82414607D01*
X106747480Y-82435650D01*
X106757970Y-82457829D01*
X106766235Y-82480928D01*
X106772196Y-82504727D01*
X106775796Y-82528995D01*
X106777000Y-82553499D01*
X106777000Y-83453501D01*
X106775796Y-83478005D01*
X106772196Y-83502273D01*
X106766235Y-83526072D01*
X106757970Y-83549171D01*
X106747480Y-83571350D01*
X106734868Y-83592393D01*
X106720253Y-83612099D01*
X106703777Y-83630277D01*
X106685599Y-83646753D01*
X106665893Y-83661368D01*
X106644850Y-83673980D01*
X106622671Y-83684470D01*
X106599572Y-83692735D01*
X106575773Y-83698696D01*
X106551505Y-83702296D01*
X106527001Y-83703500D01*
X105876999Y-83703500D01*
X105852495Y-83702296D01*
X105828227Y-83698696D01*
X105804428Y-83692735D01*
X105781329Y-83684470D01*
X105759150Y-83673980D01*
X105738107Y-83661368D01*
X105718401Y-83646753D01*
X105700223Y-83630277D01*
X105683747Y-83612099D01*
X105669132Y-83592393D01*
X105656520Y-83571350D01*
X105646030Y-83549171D01*
X105637765Y-83526072D01*
X105631804Y-83502273D01*
X105628204Y-83478005D01*
X105627000Y-83453501D01*
X105627000Y-82553499D01*
X105628204Y-82528995D01*
X105631804Y-82504727D01*
X105637765Y-82480928D01*
X105646030Y-82457829D01*
X105656520Y-82435650D01*
X105669132Y-82414607D01*
X105683747Y-82394901D01*
X105700223Y-82376723D01*
X105718401Y-82360247D01*
X105738107Y-82345632D01*
X105759150Y-82333020D01*
X105781329Y-82322530D01*
X105804428Y-82314265D01*
X105828227Y-82308304D01*
X105852495Y-82304704D01*
X105876999Y-82303500D01*
X106527001Y-82303500D01*
X106551505Y-82304704D01*
X106551505Y-82304704D01*
G37*
D16*
X106202000Y-83003500D03*
D13*
G36*
X104501505Y-82304704D02*
G01*
X104525773Y-82308304D01*
X104549572Y-82314265D01*
X104572671Y-82322530D01*
X104594850Y-82333020D01*
X104615893Y-82345632D01*
X104635599Y-82360247D01*
X104653777Y-82376723D01*
X104670253Y-82394901D01*
X104684868Y-82414607D01*
X104697480Y-82435650D01*
X104707970Y-82457829D01*
X104716235Y-82480928D01*
X104722196Y-82504727D01*
X104725796Y-82528995D01*
X104727000Y-82553499D01*
X104727000Y-83453501D01*
X104725796Y-83478005D01*
X104722196Y-83502273D01*
X104716235Y-83526072D01*
X104707970Y-83549171D01*
X104697480Y-83571350D01*
X104684868Y-83592393D01*
X104670253Y-83612099D01*
X104653777Y-83630277D01*
X104635599Y-83646753D01*
X104615893Y-83661368D01*
X104594850Y-83673980D01*
X104572671Y-83684470D01*
X104549572Y-83692735D01*
X104525773Y-83698696D01*
X104501505Y-83702296D01*
X104477001Y-83703500D01*
X103826999Y-83703500D01*
X103802495Y-83702296D01*
X103778227Y-83698696D01*
X103754428Y-83692735D01*
X103731329Y-83684470D01*
X103709150Y-83673980D01*
X103688107Y-83661368D01*
X103668401Y-83646753D01*
X103650223Y-83630277D01*
X103633747Y-83612099D01*
X103619132Y-83592393D01*
X103606520Y-83571350D01*
X103596030Y-83549171D01*
X103587765Y-83526072D01*
X103581804Y-83502273D01*
X103578204Y-83478005D01*
X103577000Y-83453501D01*
X103577000Y-82553499D01*
X103578204Y-82528995D01*
X103581804Y-82504727D01*
X103587765Y-82480928D01*
X103596030Y-82457829D01*
X103606520Y-82435650D01*
X103619132Y-82414607D01*
X103633747Y-82394901D01*
X103650223Y-82376723D01*
X103668401Y-82360247D01*
X103688107Y-82345632D01*
X103709150Y-82333020D01*
X103731329Y-82322530D01*
X103754428Y-82314265D01*
X103778227Y-82308304D01*
X103802495Y-82304704D01*
X103826999Y-82303500D01*
X104477001Y-82303500D01*
X104501505Y-82304704D01*
X104501505Y-82304704D01*
G37*
D16*
X104152000Y-83003500D03*
D13*
G36*
X98237005Y-84461704D02*
G01*
X98261273Y-84465304D01*
X98285072Y-84471265D01*
X98308171Y-84479530D01*
X98330350Y-84490020D01*
X98351393Y-84502632D01*
X98371099Y-84517247D01*
X98389277Y-84533723D01*
X98405753Y-84551901D01*
X98420368Y-84571607D01*
X98432980Y-84592650D01*
X98443470Y-84614829D01*
X98451735Y-84637928D01*
X98457696Y-84661727D01*
X98461296Y-84685995D01*
X98462500Y-84710499D01*
X98462500Y-85360501D01*
X98461296Y-85385005D01*
X98457696Y-85409273D01*
X98451735Y-85433072D01*
X98443470Y-85456171D01*
X98432980Y-85478350D01*
X98420368Y-85499393D01*
X98405753Y-85519099D01*
X98389277Y-85537277D01*
X98371099Y-85553753D01*
X98351393Y-85568368D01*
X98330350Y-85580980D01*
X98308171Y-85591470D01*
X98285072Y-85599735D01*
X98261273Y-85605696D01*
X98237005Y-85609296D01*
X98212501Y-85610500D01*
X97312499Y-85610500D01*
X97287995Y-85609296D01*
X97263727Y-85605696D01*
X97239928Y-85599735D01*
X97216829Y-85591470D01*
X97194650Y-85580980D01*
X97173607Y-85568368D01*
X97153901Y-85553753D01*
X97135723Y-85537277D01*
X97119247Y-85519099D01*
X97104632Y-85499393D01*
X97092020Y-85478350D01*
X97081530Y-85456171D01*
X97073265Y-85433072D01*
X97067304Y-85409273D01*
X97063704Y-85385005D01*
X97062500Y-85360501D01*
X97062500Y-84710499D01*
X97063704Y-84685995D01*
X97067304Y-84661727D01*
X97073265Y-84637928D01*
X97081530Y-84614829D01*
X97092020Y-84592650D01*
X97104632Y-84571607D01*
X97119247Y-84551901D01*
X97135723Y-84533723D01*
X97153901Y-84517247D01*
X97173607Y-84502632D01*
X97194650Y-84490020D01*
X97216829Y-84479530D01*
X97239928Y-84471265D01*
X97263727Y-84465304D01*
X97287995Y-84461704D01*
X97312499Y-84460500D01*
X98212501Y-84460500D01*
X98237005Y-84461704D01*
X98237005Y-84461704D01*
G37*
D16*
X97762500Y-85035500D03*
D13*
G36*
X98237005Y-82411704D02*
G01*
X98261273Y-82415304D01*
X98285072Y-82421265D01*
X98308171Y-82429530D01*
X98330350Y-82440020D01*
X98351393Y-82452632D01*
X98371099Y-82467247D01*
X98389277Y-82483723D01*
X98405753Y-82501901D01*
X98420368Y-82521607D01*
X98432980Y-82542650D01*
X98443470Y-82564829D01*
X98451735Y-82587928D01*
X98457696Y-82611727D01*
X98461296Y-82635995D01*
X98462500Y-82660499D01*
X98462500Y-83310501D01*
X98461296Y-83335005D01*
X98457696Y-83359273D01*
X98451735Y-83383072D01*
X98443470Y-83406171D01*
X98432980Y-83428350D01*
X98420368Y-83449393D01*
X98405753Y-83469099D01*
X98389277Y-83487277D01*
X98371099Y-83503753D01*
X98351393Y-83518368D01*
X98330350Y-83530980D01*
X98308171Y-83541470D01*
X98285072Y-83549735D01*
X98261273Y-83555696D01*
X98237005Y-83559296D01*
X98212501Y-83560500D01*
X97312499Y-83560500D01*
X97287995Y-83559296D01*
X97263727Y-83555696D01*
X97239928Y-83549735D01*
X97216829Y-83541470D01*
X97194650Y-83530980D01*
X97173607Y-83518368D01*
X97153901Y-83503753D01*
X97135723Y-83487277D01*
X97119247Y-83469099D01*
X97104632Y-83449393D01*
X97092020Y-83428350D01*
X97081530Y-83406171D01*
X97073265Y-83383072D01*
X97067304Y-83359273D01*
X97063704Y-83335005D01*
X97062500Y-83310501D01*
X97062500Y-82660499D01*
X97063704Y-82635995D01*
X97067304Y-82611727D01*
X97073265Y-82587928D01*
X97081530Y-82564829D01*
X97092020Y-82542650D01*
X97104632Y-82521607D01*
X97119247Y-82501901D01*
X97135723Y-82483723D01*
X97153901Y-82467247D01*
X97173607Y-82452632D01*
X97194650Y-82440020D01*
X97216829Y-82429530D01*
X97239928Y-82421265D01*
X97263727Y-82415304D01*
X97287995Y-82411704D01*
X97312499Y-82410500D01*
X98212501Y-82410500D01*
X98237005Y-82411704D01*
X98237005Y-82411704D01*
G37*
D16*
X97762500Y-82985500D03*
D13*
G36*
X106657505Y-89923204D02*
G01*
X106681773Y-89926804D01*
X106705572Y-89932765D01*
X106728671Y-89941030D01*
X106750850Y-89951520D01*
X106771893Y-89964132D01*
X106791599Y-89978747D01*
X106809777Y-89995223D01*
X106826253Y-90013401D01*
X106840868Y-90033107D01*
X106853480Y-90054150D01*
X106863970Y-90076329D01*
X106872235Y-90099428D01*
X106878196Y-90123227D01*
X106881796Y-90147495D01*
X106883000Y-90171999D01*
X106883000Y-90822001D01*
X106881796Y-90846505D01*
X106878196Y-90870773D01*
X106872235Y-90894572D01*
X106863970Y-90917671D01*
X106853480Y-90939850D01*
X106840868Y-90960893D01*
X106826253Y-90980599D01*
X106809777Y-90998777D01*
X106791599Y-91015253D01*
X106771893Y-91029868D01*
X106750850Y-91042480D01*
X106728671Y-91052970D01*
X106705572Y-91061235D01*
X106681773Y-91067196D01*
X106657505Y-91070796D01*
X106633001Y-91072000D01*
X105732999Y-91072000D01*
X105708495Y-91070796D01*
X105684227Y-91067196D01*
X105660428Y-91061235D01*
X105637329Y-91052970D01*
X105615150Y-91042480D01*
X105594107Y-91029868D01*
X105574401Y-91015253D01*
X105556223Y-90998777D01*
X105539747Y-90980599D01*
X105525132Y-90960893D01*
X105512520Y-90939850D01*
X105502030Y-90917671D01*
X105493765Y-90894572D01*
X105487804Y-90870773D01*
X105484204Y-90846505D01*
X105483000Y-90822001D01*
X105483000Y-90171999D01*
X105484204Y-90147495D01*
X105487804Y-90123227D01*
X105493765Y-90099428D01*
X105502030Y-90076329D01*
X105512520Y-90054150D01*
X105525132Y-90033107D01*
X105539747Y-90013401D01*
X105556223Y-89995223D01*
X105574401Y-89978747D01*
X105594107Y-89964132D01*
X105615150Y-89951520D01*
X105637329Y-89941030D01*
X105660428Y-89932765D01*
X105684227Y-89926804D01*
X105708495Y-89923204D01*
X105732999Y-89922000D01*
X106633001Y-89922000D01*
X106657505Y-89923204D01*
X106657505Y-89923204D01*
G37*
D16*
X106183000Y-90497000D03*
D13*
G36*
X106657505Y-87873204D02*
G01*
X106681773Y-87876804D01*
X106705572Y-87882765D01*
X106728671Y-87891030D01*
X106750850Y-87901520D01*
X106771893Y-87914132D01*
X106791599Y-87928747D01*
X106809777Y-87945223D01*
X106826253Y-87963401D01*
X106840868Y-87983107D01*
X106853480Y-88004150D01*
X106863970Y-88026329D01*
X106872235Y-88049428D01*
X106878196Y-88073227D01*
X106881796Y-88097495D01*
X106883000Y-88121999D01*
X106883000Y-88772001D01*
X106881796Y-88796505D01*
X106878196Y-88820773D01*
X106872235Y-88844572D01*
X106863970Y-88867671D01*
X106853480Y-88889850D01*
X106840868Y-88910893D01*
X106826253Y-88930599D01*
X106809777Y-88948777D01*
X106791599Y-88965253D01*
X106771893Y-88979868D01*
X106750850Y-88992480D01*
X106728671Y-89002970D01*
X106705572Y-89011235D01*
X106681773Y-89017196D01*
X106657505Y-89020796D01*
X106633001Y-89022000D01*
X105732999Y-89022000D01*
X105708495Y-89020796D01*
X105684227Y-89017196D01*
X105660428Y-89011235D01*
X105637329Y-89002970D01*
X105615150Y-88992480D01*
X105594107Y-88979868D01*
X105574401Y-88965253D01*
X105556223Y-88948777D01*
X105539747Y-88930599D01*
X105525132Y-88910893D01*
X105512520Y-88889850D01*
X105502030Y-88867671D01*
X105493765Y-88844572D01*
X105487804Y-88820773D01*
X105484204Y-88796505D01*
X105483000Y-88772001D01*
X105483000Y-88121999D01*
X105484204Y-88097495D01*
X105487804Y-88073227D01*
X105493765Y-88049428D01*
X105502030Y-88026329D01*
X105512520Y-88004150D01*
X105525132Y-87983107D01*
X105539747Y-87963401D01*
X105556223Y-87945223D01*
X105574401Y-87928747D01*
X105594107Y-87914132D01*
X105615150Y-87901520D01*
X105637329Y-87891030D01*
X105660428Y-87882765D01*
X105684227Y-87876804D01*
X105708495Y-87873204D01*
X105732999Y-87872000D01*
X106633001Y-87872000D01*
X106657505Y-87873204D01*
X106657505Y-87873204D01*
G37*
D16*
X106183000Y-88447000D03*
D13*
G36*
X113527505Y-77281204D02*
G01*
X113551773Y-77284804D01*
X113575572Y-77290765D01*
X113598671Y-77299030D01*
X113620850Y-77309520D01*
X113641893Y-77322132D01*
X113661599Y-77336747D01*
X113679777Y-77353223D01*
X113696253Y-77371401D01*
X113710868Y-77391107D01*
X113723480Y-77412150D01*
X113733970Y-77434329D01*
X113742235Y-77457428D01*
X113748196Y-77481227D01*
X113751796Y-77505495D01*
X113753000Y-77529999D01*
X113753000Y-78180001D01*
X113751796Y-78204505D01*
X113748196Y-78228773D01*
X113742235Y-78252572D01*
X113733970Y-78275671D01*
X113723480Y-78297850D01*
X113710868Y-78318893D01*
X113696253Y-78338599D01*
X113679777Y-78356777D01*
X113661599Y-78373253D01*
X113641893Y-78387868D01*
X113620850Y-78400480D01*
X113598671Y-78410970D01*
X113575572Y-78419235D01*
X113551773Y-78425196D01*
X113527505Y-78428796D01*
X113503001Y-78430000D01*
X112602999Y-78430000D01*
X112578495Y-78428796D01*
X112554227Y-78425196D01*
X112530428Y-78419235D01*
X112507329Y-78410970D01*
X112485150Y-78400480D01*
X112464107Y-78387868D01*
X112444401Y-78373253D01*
X112426223Y-78356777D01*
X112409747Y-78338599D01*
X112395132Y-78318893D01*
X112382520Y-78297850D01*
X112372030Y-78275671D01*
X112363765Y-78252572D01*
X112357804Y-78228773D01*
X112354204Y-78204505D01*
X112353000Y-78180001D01*
X112353000Y-77529999D01*
X112354204Y-77505495D01*
X112357804Y-77481227D01*
X112363765Y-77457428D01*
X112372030Y-77434329D01*
X112382520Y-77412150D01*
X112395132Y-77391107D01*
X112409747Y-77371401D01*
X112426223Y-77353223D01*
X112444401Y-77336747D01*
X112464107Y-77322132D01*
X112485150Y-77309520D01*
X112507329Y-77299030D01*
X112530428Y-77290765D01*
X112554227Y-77284804D01*
X112578495Y-77281204D01*
X112602999Y-77280000D01*
X113503001Y-77280000D01*
X113527505Y-77281204D01*
X113527505Y-77281204D01*
G37*
D16*
X113053000Y-77855000D03*
D13*
G36*
X113527505Y-75231204D02*
G01*
X113551773Y-75234804D01*
X113575572Y-75240765D01*
X113598671Y-75249030D01*
X113620850Y-75259520D01*
X113641893Y-75272132D01*
X113661599Y-75286747D01*
X113679777Y-75303223D01*
X113696253Y-75321401D01*
X113710868Y-75341107D01*
X113723480Y-75362150D01*
X113733970Y-75384329D01*
X113742235Y-75407428D01*
X113748196Y-75431227D01*
X113751796Y-75455495D01*
X113753000Y-75479999D01*
X113753000Y-76130001D01*
X113751796Y-76154505D01*
X113748196Y-76178773D01*
X113742235Y-76202572D01*
X113733970Y-76225671D01*
X113723480Y-76247850D01*
X113710868Y-76268893D01*
X113696253Y-76288599D01*
X113679777Y-76306777D01*
X113661599Y-76323253D01*
X113641893Y-76337868D01*
X113620850Y-76350480D01*
X113598671Y-76360970D01*
X113575572Y-76369235D01*
X113551773Y-76375196D01*
X113527505Y-76378796D01*
X113503001Y-76380000D01*
X112602999Y-76380000D01*
X112578495Y-76378796D01*
X112554227Y-76375196D01*
X112530428Y-76369235D01*
X112507329Y-76360970D01*
X112485150Y-76350480D01*
X112464107Y-76337868D01*
X112444401Y-76323253D01*
X112426223Y-76306777D01*
X112409747Y-76288599D01*
X112395132Y-76268893D01*
X112382520Y-76247850D01*
X112372030Y-76225671D01*
X112363765Y-76202572D01*
X112357804Y-76178773D01*
X112354204Y-76154505D01*
X112353000Y-76130001D01*
X112353000Y-75479999D01*
X112354204Y-75455495D01*
X112357804Y-75431227D01*
X112363765Y-75407428D01*
X112372030Y-75384329D01*
X112382520Y-75362150D01*
X112395132Y-75341107D01*
X112409747Y-75321401D01*
X112426223Y-75303223D01*
X112444401Y-75286747D01*
X112464107Y-75272132D01*
X112485150Y-75259520D01*
X112507329Y-75249030D01*
X112530428Y-75240765D01*
X112554227Y-75234804D01*
X112578495Y-75231204D01*
X112602999Y-75230000D01*
X113503001Y-75230000D01*
X113527505Y-75231204D01*
X113527505Y-75231204D01*
G37*
D16*
X113053000Y-75805000D03*
D13*
G36*
X100436505Y-87748204D02*
G01*
X100460773Y-87751804D01*
X100484572Y-87757765D01*
X100507671Y-87766030D01*
X100529850Y-87776520D01*
X100550893Y-87789132D01*
X100570599Y-87803747D01*
X100588777Y-87820223D01*
X100605253Y-87838401D01*
X100619868Y-87858107D01*
X100632480Y-87879150D01*
X100642970Y-87901329D01*
X100651235Y-87924428D01*
X100657196Y-87948227D01*
X100660796Y-87972495D01*
X100662000Y-87996999D01*
X100662000Y-88897001D01*
X100660796Y-88921505D01*
X100657196Y-88945773D01*
X100651235Y-88969572D01*
X100642970Y-88992671D01*
X100632480Y-89014850D01*
X100619868Y-89035893D01*
X100605253Y-89055599D01*
X100588777Y-89073777D01*
X100570599Y-89090253D01*
X100550893Y-89104868D01*
X100529850Y-89117480D01*
X100507671Y-89127970D01*
X100484572Y-89136235D01*
X100460773Y-89142196D01*
X100436505Y-89145796D01*
X100412001Y-89147000D01*
X99761999Y-89147000D01*
X99737495Y-89145796D01*
X99713227Y-89142196D01*
X99689428Y-89136235D01*
X99666329Y-89127970D01*
X99644150Y-89117480D01*
X99623107Y-89104868D01*
X99603401Y-89090253D01*
X99585223Y-89073777D01*
X99568747Y-89055599D01*
X99554132Y-89035893D01*
X99541520Y-89014850D01*
X99531030Y-88992671D01*
X99522765Y-88969572D01*
X99516804Y-88945773D01*
X99513204Y-88921505D01*
X99512000Y-88897001D01*
X99512000Y-87996999D01*
X99513204Y-87972495D01*
X99516804Y-87948227D01*
X99522765Y-87924428D01*
X99531030Y-87901329D01*
X99541520Y-87879150D01*
X99554132Y-87858107D01*
X99568747Y-87838401D01*
X99585223Y-87820223D01*
X99603401Y-87803747D01*
X99623107Y-87789132D01*
X99644150Y-87776520D01*
X99666329Y-87766030D01*
X99689428Y-87757765D01*
X99713227Y-87751804D01*
X99737495Y-87748204D01*
X99761999Y-87747000D01*
X100412001Y-87747000D01*
X100436505Y-87748204D01*
X100436505Y-87748204D01*
G37*
D16*
X100087000Y-88447000D03*
D13*
G36*
X98386505Y-87748204D02*
G01*
X98410773Y-87751804D01*
X98434572Y-87757765D01*
X98457671Y-87766030D01*
X98479850Y-87776520D01*
X98500893Y-87789132D01*
X98520599Y-87803747D01*
X98538777Y-87820223D01*
X98555253Y-87838401D01*
X98569868Y-87858107D01*
X98582480Y-87879150D01*
X98592970Y-87901329D01*
X98601235Y-87924428D01*
X98607196Y-87948227D01*
X98610796Y-87972495D01*
X98612000Y-87996999D01*
X98612000Y-88897001D01*
X98610796Y-88921505D01*
X98607196Y-88945773D01*
X98601235Y-88969572D01*
X98592970Y-88992671D01*
X98582480Y-89014850D01*
X98569868Y-89035893D01*
X98555253Y-89055599D01*
X98538777Y-89073777D01*
X98520599Y-89090253D01*
X98500893Y-89104868D01*
X98479850Y-89117480D01*
X98457671Y-89127970D01*
X98434572Y-89136235D01*
X98410773Y-89142196D01*
X98386505Y-89145796D01*
X98362001Y-89147000D01*
X97711999Y-89147000D01*
X97687495Y-89145796D01*
X97663227Y-89142196D01*
X97639428Y-89136235D01*
X97616329Y-89127970D01*
X97594150Y-89117480D01*
X97573107Y-89104868D01*
X97553401Y-89090253D01*
X97535223Y-89073777D01*
X97518747Y-89055599D01*
X97504132Y-89035893D01*
X97491520Y-89014850D01*
X97481030Y-88992671D01*
X97472765Y-88969572D01*
X97466804Y-88945773D01*
X97463204Y-88921505D01*
X97462000Y-88897001D01*
X97462000Y-87996999D01*
X97463204Y-87972495D01*
X97466804Y-87948227D01*
X97472765Y-87924428D01*
X97481030Y-87901329D01*
X97491520Y-87879150D01*
X97504132Y-87858107D01*
X97518747Y-87838401D01*
X97535223Y-87820223D01*
X97553401Y-87803747D01*
X97573107Y-87789132D01*
X97594150Y-87776520D01*
X97616329Y-87766030D01*
X97639428Y-87757765D01*
X97663227Y-87751804D01*
X97687495Y-87748204D01*
X97711999Y-87747000D01*
X98362001Y-87747000D01*
X98386505Y-87748204D01*
X98386505Y-87748204D01*
G37*
D16*
X98037000Y-88447000D03*
D13*
G36*
X106314505Y-75066704D02*
G01*
X106338773Y-75070304D01*
X106362572Y-75076265D01*
X106385671Y-75084530D01*
X106407850Y-75095020D01*
X106428893Y-75107632D01*
X106448599Y-75122247D01*
X106466777Y-75138723D01*
X106483253Y-75156901D01*
X106497868Y-75176607D01*
X106510480Y-75197650D01*
X106520970Y-75219829D01*
X106529235Y-75242928D01*
X106535196Y-75266727D01*
X106538796Y-75290995D01*
X106540000Y-75315499D01*
X106540000Y-76215501D01*
X106538796Y-76240005D01*
X106535196Y-76264273D01*
X106529235Y-76288072D01*
X106520970Y-76311171D01*
X106510480Y-76333350D01*
X106497868Y-76354393D01*
X106483253Y-76374099D01*
X106466777Y-76392277D01*
X106448599Y-76408753D01*
X106428893Y-76423368D01*
X106407850Y-76435980D01*
X106385671Y-76446470D01*
X106362572Y-76454735D01*
X106338773Y-76460696D01*
X106314505Y-76464296D01*
X106290001Y-76465500D01*
X105639999Y-76465500D01*
X105615495Y-76464296D01*
X105591227Y-76460696D01*
X105567428Y-76454735D01*
X105544329Y-76446470D01*
X105522150Y-76435980D01*
X105501107Y-76423368D01*
X105481401Y-76408753D01*
X105463223Y-76392277D01*
X105446747Y-76374099D01*
X105432132Y-76354393D01*
X105419520Y-76333350D01*
X105409030Y-76311171D01*
X105400765Y-76288072D01*
X105394804Y-76264273D01*
X105391204Y-76240005D01*
X105390000Y-76215501D01*
X105390000Y-75315499D01*
X105391204Y-75290995D01*
X105394804Y-75266727D01*
X105400765Y-75242928D01*
X105409030Y-75219829D01*
X105419520Y-75197650D01*
X105432132Y-75176607D01*
X105446747Y-75156901D01*
X105463223Y-75138723D01*
X105481401Y-75122247D01*
X105501107Y-75107632D01*
X105522150Y-75095020D01*
X105544329Y-75084530D01*
X105567428Y-75076265D01*
X105591227Y-75070304D01*
X105615495Y-75066704D01*
X105639999Y-75065500D01*
X106290001Y-75065500D01*
X106314505Y-75066704D01*
X106314505Y-75066704D01*
G37*
D16*
X105965000Y-75765500D03*
D13*
G36*
X104264505Y-75066704D02*
G01*
X104288773Y-75070304D01*
X104312572Y-75076265D01*
X104335671Y-75084530D01*
X104357850Y-75095020D01*
X104378893Y-75107632D01*
X104398599Y-75122247D01*
X104416777Y-75138723D01*
X104433253Y-75156901D01*
X104447868Y-75176607D01*
X104460480Y-75197650D01*
X104470970Y-75219829D01*
X104479235Y-75242928D01*
X104485196Y-75266727D01*
X104488796Y-75290995D01*
X104490000Y-75315499D01*
X104490000Y-76215501D01*
X104488796Y-76240005D01*
X104485196Y-76264273D01*
X104479235Y-76288072D01*
X104470970Y-76311171D01*
X104460480Y-76333350D01*
X104447868Y-76354393D01*
X104433253Y-76374099D01*
X104416777Y-76392277D01*
X104398599Y-76408753D01*
X104378893Y-76423368D01*
X104357850Y-76435980D01*
X104335671Y-76446470D01*
X104312572Y-76454735D01*
X104288773Y-76460696D01*
X104264505Y-76464296D01*
X104240001Y-76465500D01*
X103589999Y-76465500D01*
X103565495Y-76464296D01*
X103541227Y-76460696D01*
X103517428Y-76454735D01*
X103494329Y-76446470D01*
X103472150Y-76435980D01*
X103451107Y-76423368D01*
X103431401Y-76408753D01*
X103413223Y-76392277D01*
X103396747Y-76374099D01*
X103382132Y-76354393D01*
X103369520Y-76333350D01*
X103359030Y-76311171D01*
X103350765Y-76288072D01*
X103344804Y-76264273D01*
X103341204Y-76240005D01*
X103340000Y-76215501D01*
X103340000Y-75315499D01*
X103341204Y-75290995D01*
X103344804Y-75266727D01*
X103350765Y-75242928D01*
X103359030Y-75219829D01*
X103369520Y-75197650D01*
X103382132Y-75176607D01*
X103396747Y-75156901D01*
X103413223Y-75138723D01*
X103431401Y-75122247D01*
X103451107Y-75107632D01*
X103472150Y-75095020D01*
X103494329Y-75084530D01*
X103517428Y-75076265D01*
X103541227Y-75070304D01*
X103565495Y-75066704D01*
X103589999Y-75065500D01*
X104240001Y-75065500D01*
X104264505Y-75066704D01*
X104264505Y-75066704D01*
G37*
D16*
X103915000Y-75765500D03*
D13*
G36*
X94148005Y-89905204D02*
G01*
X94172273Y-89908804D01*
X94196072Y-89914765D01*
X94219171Y-89923030D01*
X94241350Y-89933520D01*
X94262393Y-89946132D01*
X94282099Y-89960747D01*
X94300277Y-89977223D01*
X94316753Y-89995401D01*
X94331368Y-90015107D01*
X94343980Y-90036150D01*
X94354470Y-90058329D01*
X94362735Y-90081428D01*
X94368696Y-90105227D01*
X94372296Y-90129495D01*
X94373500Y-90153999D01*
X94373500Y-90804001D01*
X94372296Y-90828505D01*
X94368696Y-90852773D01*
X94362735Y-90876572D01*
X94354470Y-90899671D01*
X94343980Y-90921850D01*
X94331368Y-90942893D01*
X94316753Y-90962599D01*
X94300277Y-90980777D01*
X94282099Y-90997253D01*
X94262393Y-91011868D01*
X94241350Y-91024480D01*
X94219171Y-91034970D01*
X94196072Y-91043235D01*
X94172273Y-91049196D01*
X94148005Y-91052796D01*
X94123501Y-91054000D01*
X93223499Y-91054000D01*
X93198995Y-91052796D01*
X93174727Y-91049196D01*
X93150928Y-91043235D01*
X93127829Y-91034970D01*
X93105650Y-91024480D01*
X93084607Y-91011868D01*
X93064901Y-90997253D01*
X93046723Y-90980777D01*
X93030247Y-90962599D01*
X93015632Y-90942893D01*
X93003020Y-90921850D01*
X92992530Y-90899671D01*
X92984265Y-90876572D01*
X92978304Y-90852773D01*
X92974704Y-90828505D01*
X92973500Y-90804001D01*
X92973500Y-90153999D01*
X92974704Y-90129495D01*
X92978304Y-90105227D01*
X92984265Y-90081428D01*
X92992530Y-90058329D01*
X93003020Y-90036150D01*
X93015632Y-90015107D01*
X93030247Y-89995401D01*
X93046723Y-89977223D01*
X93064901Y-89960747D01*
X93084607Y-89946132D01*
X93105650Y-89933520D01*
X93127829Y-89923030D01*
X93150928Y-89914765D01*
X93174727Y-89908804D01*
X93198995Y-89905204D01*
X93223499Y-89904000D01*
X94123501Y-89904000D01*
X94148005Y-89905204D01*
X94148005Y-89905204D01*
G37*
D16*
X93673500Y-90479000D03*
D13*
G36*
X94148005Y-87855204D02*
G01*
X94172273Y-87858804D01*
X94196072Y-87864765D01*
X94219171Y-87873030D01*
X94241350Y-87883520D01*
X94262393Y-87896132D01*
X94282099Y-87910747D01*
X94300277Y-87927223D01*
X94316753Y-87945401D01*
X94331368Y-87965107D01*
X94343980Y-87986150D01*
X94354470Y-88008329D01*
X94362735Y-88031428D01*
X94368696Y-88055227D01*
X94372296Y-88079495D01*
X94373500Y-88103999D01*
X94373500Y-88754001D01*
X94372296Y-88778505D01*
X94368696Y-88802773D01*
X94362735Y-88826572D01*
X94354470Y-88849671D01*
X94343980Y-88871850D01*
X94331368Y-88892893D01*
X94316753Y-88912599D01*
X94300277Y-88930777D01*
X94282099Y-88947253D01*
X94262393Y-88961868D01*
X94241350Y-88974480D01*
X94219171Y-88984970D01*
X94196072Y-88993235D01*
X94172273Y-88999196D01*
X94148005Y-89002796D01*
X94123501Y-89004000D01*
X93223499Y-89004000D01*
X93198995Y-89002796D01*
X93174727Y-88999196D01*
X93150928Y-88993235D01*
X93127829Y-88984970D01*
X93105650Y-88974480D01*
X93084607Y-88961868D01*
X93064901Y-88947253D01*
X93046723Y-88930777D01*
X93030247Y-88912599D01*
X93015632Y-88892893D01*
X93003020Y-88871850D01*
X92992530Y-88849671D01*
X92984265Y-88826572D01*
X92978304Y-88802773D01*
X92974704Y-88778505D01*
X92973500Y-88754001D01*
X92973500Y-88103999D01*
X92974704Y-88079495D01*
X92978304Y-88055227D01*
X92984265Y-88031428D01*
X92992530Y-88008329D01*
X93003020Y-87986150D01*
X93015632Y-87965107D01*
X93030247Y-87945401D01*
X93046723Y-87927223D01*
X93064901Y-87910747D01*
X93084607Y-87896132D01*
X93105650Y-87883520D01*
X93127829Y-87873030D01*
X93150928Y-87864765D01*
X93174727Y-87858804D01*
X93198995Y-87855204D01*
X93223499Y-87854000D01*
X94123501Y-87854000D01*
X94148005Y-87855204D01*
X94148005Y-87855204D01*
G37*
D16*
X93673500Y-88429000D03*
D13*
G36*
X98033505Y-77184204D02*
G01*
X98057773Y-77187804D01*
X98081572Y-77193765D01*
X98104671Y-77202030D01*
X98126850Y-77212520D01*
X98147893Y-77225132D01*
X98167599Y-77239747D01*
X98185777Y-77256223D01*
X98202253Y-77274401D01*
X98216868Y-77294107D01*
X98229480Y-77315150D01*
X98239970Y-77337329D01*
X98248235Y-77360428D01*
X98254196Y-77384227D01*
X98257796Y-77408495D01*
X98259000Y-77432999D01*
X98259000Y-78083001D01*
X98257796Y-78107505D01*
X98254196Y-78131773D01*
X98248235Y-78155572D01*
X98239970Y-78178671D01*
X98229480Y-78200850D01*
X98216868Y-78221893D01*
X98202253Y-78241599D01*
X98185777Y-78259777D01*
X98167599Y-78276253D01*
X98147893Y-78290868D01*
X98126850Y-78303480D01*
X98104671Y-78313970D01*
X98081572Y-78322235D01*
X98057773Y-78328196D01*
X98033505Y-78331796D01*
X98009001Y-78333000D01*
X97108999Y-78333000D01*
X97084495Y-78331796D01*
X97060227Y-78328196D01*
X97036428Y-78322235D01*
X97013329Y-78313970D01*
X96991150Y-78303480D01*
X96970107Y-78290868D01*
X96950401Y-78276253D01*
X96932223Y-78259777D01*
X96915747Y-78241599D01*
X96901132Y-78221893D01*
X96888520Y-78200850D01*
X96878030Y-78178671D01*
X96869765Y-78155572D01*
X96863804Y-78131773D01*
X96860204Y-78107505D01*
X96859000Y-78083001D01*
X96859000Y-77432999D01*
X96860204Y-77408495D01*
X96863804Y-77384227D01*
X96869765Y-77360428D01*
X96878030Y-77337329D01*
X96888520Y-77315150D01*
X96901132Y-77294107D01*
X96915747Y-77274401D01*
X96932223Y-77256223D01*
X96950401Y-77239747D01*
X96970107Y-77225132D01*
X96991150Y-77212520D01*
X97013329Y-77202030D01*
X97036428Y-77193765D01*
X97060227Y-77187804D01*
X97084495Y-77184204D01*
X97108999Y-77183000D01*
X98009001Y-77183000D01*
X98033505Y-77184204D01*
X98033505Y-77184204D01*
G37*
D16*
X97559000Y-77758000D03*
D13*
G36*
X98033505Y-75134204D02*
G01*
X98057773Y-75137804D01*
X98081572Y-75143765D01*
X98104671Y-75152030D01*
X98126850Y-75162520D01*
X98147893Y-75175132D01*
X98167599Y-75189747D01*
X98185777Y-75206223D01*
X98202253Y-75224401D01*
X98216868Y-75244107D01*
X98229480Y-75265150D01*
X98239970Y-75287329D01*
X98248235Y-75310428D01*
X98254196Y-75334227D01*
X98257796Y-75358495D01*
X98259000Y-75382999D01*
X98259000Y-76033001D01*
X98257796Y-76057505D01*
X98254196Y-76081773D01*
X98248235Y-76105572D01*
X98239970Y-76128671D01*
X98229480Y-76150850D01*
X98216868Y-76171893D01*
X98202253Y-76191599D01*
X98185777Y-76209777D01*
X98167599Y-76226253D01*
X98147893Y-76240868D01*
X98126850Y-76253480D01*
X98104671Y-76263970D01*
X98081572Y-76272235D01*
X98057773Y-76278196D01*
X98033505Y-76281796D01*
X98009001Y-76283000D01*
X97108999Y-76283000D01*
X97084495Y-76281796D01*
X97060227Y-76278196D01*
X97036428Y-76272235D01*
X97013329Y-76263970D01*
X96991150Y-76253480D01*
X96970107Y-76240868D01*
X96950401Y-76226253D01*
X96932223Y-76209777D01*
X96915747Y-76191599D01*
X96901132Y-76171893D01*
X96888520Y-76150850D01*
X96878030Y-76128671D01*
X96869765Y-76105572D01*
X96863804Y-76081773D01*
X96860204Y-76057505D01*
X96859000Y-76033001D01*
X96859000Y-75382999D01*
X96860204Y-75358495D01*
X96863804Y-75334227D01*
X96869765Y-75310428D01*
X96878030Y-75287329D01*
X96888520Y-75265150D01*
X96901132Y-75244107D01*
X96915747Y-75224401D01*
X96932223Y-75206223D01*
X96950401Y-75189747D01*
X96970107Y-75175132D01*
X96991150Y-75162520D01*
X97013329Y-75152030D01*
X97036428Y-75143765D01*
X97060227Y-75137804D01*
X97084495Y-75134204D01*
X97108999Y-75133000D01*
X98009001Y-75133000D01*
X98033505Y-75134204D01*
X98033505Y-75134204D01*
G37*
D16*
X97559000Y-75708000D03*
D17*
X141546500Y-102679500D03*
D13*
G36*
X140046500Y-105179500D02*
G01*
X140046500Y-100179500D01*
X143046500Y-100179500D01*
X143046500Y-105179500D01*
X140046500Y-105179500D01*
X140046500Y-105179500D01*
G37*
D18*
X138828000Y-102679500D03*
D13*
G36*
X138078000Y-103229500D02*
G01*
X138078000Y-102129500D01*
X139578000Y-102129500D01*
X139578000Y-103229500D01*
X138078000Y-103229500D01*
X138078000Y-103229500D01*
G37*
D19*
X138828000Y-104179500D03*
D13*
G36*
X138078000Y-104579500D02*
G01*
X138078000Y-103779500D01*
X139578000Y-103779500D01*
X139578000Y-104579500D01*
X138078000Y-104579500D01*
X138078000Y-104579500D01*
G37*
D19*
X138828000Y-101179500D03*
D13*
G36*
X138078000Y-101579500D02*
G01*
X138078000Y-100779500D01*
X139578000Y-100779500D01*
X139578000Y-101579500D01*
X138078000Y-101579500D01*
X138078000Y-101579500D01*
G37*
G36*
X125072505Y-104203204D02*
G01*
X125096773Y-104206804D01*
X125120572Y-104212765D01*
X125143671Y-104221030D01*
X125165850Y-104231520D01*
X125186893Y-104244132D01*
X125206599Y-104258747D01*
X125224777Y-104275223D01*
X125241253Y-104293401D01*
X125255868Y-104313107D01*
X125268480Y-104334150D01*
X125278970Y-104356329D01*
X125287235Y-104379428D01*
X125293196Y-104403227D01*
X125296796Y-104427495D01*
X125298000Y-104451999D01*
X125298000Y-105352001D01*
X125296796Y-105376505D01*
X125293196Y-105400773D01*
X125287235Y-105424572D01*
X125278970Y-105447671D01*
X125268480Y-105469850D01*
X125255868Y-105490893D01*
X125241253Y-105510599D01*
X125224777Y-105528777D01*
X125206599Y-105545253D01*
X125186893Y-105559868D01*
X125165850Y-105572480D01*
X125143671Y-105582970D01*
X125120572Y-105591235D01*
X125096773Y-105597196D01*
X125072505Y-105600796D01*
X125048001Y-105602000D01*
X124397999Y-105602000D01*
X124373495Y-105600796D01*
X124349227Y-105597196D01*
X124325428Y-105591235D01*
X124302329Y-105582970D01*
X124280150Y-105572480D01*
X124259107Y-105559868D01*
X124239401Y-105545253D01*
X124221223Y-105528777D01*
X124204747Y-105510599D01*
X124190132Y-105490893D01*
X124177520Y-105469850D01*
X124167030Y-105447671D01*
X124158765Y-105424572D01*
X124152804Y-105400773D01*
X124149204Y-105376505D01*
X124148000Y-105352001D01*
X124148000Y-104451999D01*
X124149204Y-104427495D01*
X124152804Y-104403227D01*
X124158765Y-104379428D01*
X124167030Y-104356329D01*
X124177520Y-104334150D01*
X124190132Y-104313107D01*
X124204747Y-104293401D01*
X124221223Y-104275223D01*
X124239401Y-104258747D01*
X124259107Y-104244132D01*
X124280150Y-104231520D01*
X124302329Y-104221030D01*
X124325428Y-104212765D01*
X124349227Y-104206804D01*
X124373495Y-104203204D01*
X124397999Y-104202000D01*
X125048001Y-104202000D01*
X125072505Y-104203204D01*
X125072505Y-104203204D01*
G37*
D16*
X124723000Y-104902000D03*
D13*
G36*
X123022505Y-104203204D02*
G01*
X123046773Y-104206804D01*
X123070572Y-104212765D01*
X123093671Y-104221030D01*
X123115850Y-104231520D01*
X123136893Y-104244132D01*
X123156599Y-104258747D01*
X123174777Y-104275223D01*
X123191253Y-104293401D01*
X123205868Y-104313107D01*
X123218480Y-104334150D01*
X123228970Y-104356329D01*
X123237235Y-104379428D01*
X123243196Y-104403227D01*
X123246796Y-104427495D01*
X123248000Y-104451999D01*
X123248000Y-105352001D01*
X123246796Y-105376505D01*
X123243196Y-105400773D01*
X123237235Y-105424572D01*
X123228970Y-105447671D01*
X123218480Y-105469850D01*
X123205868Y-105490893D01*
X123191253Y-105510599D01*
X123174777Y-105528777D01*
X123156599Y-105545253D01*
X123136893Y-105559868D01*
X123115850Y-105572480D01*
X123093671Y-105582970D01*
X123070572Y-105591235D01*
X123046773Y-105597196D01*
X123022505Y-105600796D01*
X122998001Y-105602000D01*
X122347999Y-105602000D01*
X122323495Y-105600796D01*
X122299227Y-105597196D01*
X122275428Y-105591235D01*
X122252329Y-105582970D01*
X122230150Y-105572480D01*
X122209107Y-105559868D01*
X122189401Y-105545253D01*
X122171223Y-105528777D01*
X122154747Y-105510599D01*
X122140132Y-105490893D01*
X122127520Y-105469850D01*
X122117030Y-105447671D01*
X122108765Y-105424572D01*
X122102804Y-105400773D01*
X122099204Y-105376505D01*
X122098000Y-105352001D01*
X122098000Y-104451999D01*
X122099204Y-104427495D01*
X122102804Y-104403227D01*
X122108765Y-104379428D01*
X122117030Y-104356329D01*
X122127520Y-104334150D01*
X122140132Y-104313107D01*
X122154747Y-104293401D01*
X122171223Y-104275223D01*
X122189401Y-104258747D01*
X122209107Y-104244132D01*
X122230150Y-104231520D01*
X122252329Y-104221030D01*
X122275428Y-104212765D01*
X122299227Y-104206804D01*
X122323495Y-104203204D01*
X122347999Y-104202000D01*
X122998001Y-104202000D01*
X123022505Y-104203204D01*
X123022505Y-104203204D01*
G37*
D16*
X122673000Y-104902000D03*
D13*
G36*
X87024505Y-105341204D02*
G01*
X87048773Y-105344804D01*
X87072572Y-105350765D01*
X87095671Y-105359030D01*
X87117850Y-105369520D01*
X87138893Y-105382132D01*
X87158599Y-105396747D01*
X87176777Y-105413223D01*
X87193253Y-105431401D01*
X87207868Y-105451107D01*
X87220480Y-105472150D01*
X87230970Y-105494329D01*
X87239235Y-105517428D01*
X87245196Y-105541227D01*
X87248796Y-105565495D01*
X87250000Y-105589999D01*
X87250000Y-106490001D01*
X87248796Y-106514505D01*
X87245196Y-106538773D01*
X87239235Y-106562572D01*
X87230970Y-106585671D01*
X87220480Y-106607850D01*
X87207868Y-106628893D01*
X87193253Y-106648599D01*
X87176777Y-106666777D01*
X87158599Y-106683253D01*
X87138893Y-106697868D01*
X87117850Y-106710480D01*
X87095671Y-106720970D01*
X87072572Y-106729235D01*
X87048773Y-106735196D01*
X87024505Y-106738796D01*
X87000001Y-106740000D01*
X86349999Y-106740000D01*
X86325495Y-106738796D01*
X86301227Y-106735196D01*
X86277428Y-106729235D01*
X86254329Y-106720970D01*
X86232150Y-106710480D01*
X86211107Y-106697868D01*
X86191401Y-106683253D01*
X86173223Y-106666777D01*
X86156747Y-106648599D01*
X86142132Y-106628893D01*
X86129520Y-106607850D01*
X86119030Y-106585671D01*
X86110765Y-106562572D01*
X86104804Y-106538773D01*
X86101204Y-106514505D01*
X86100000Y-106490001D01*
X86100000Y-105589999D01*
X86101204Y-105565495D01*
X86104804Y-105541227D01*
X86110765Y-105517428D01*
X86119030Y-105494329D01*
X86129520Y-105472150D01*
X86142132Y-105451107D01*
X86156747Y-105431401D01*
X86173223Y-105413223D01*
X86191401Y-105396747D01*
X86211107Y-105382132D01*
X86232150Y-105369520D01*
X86254329Y-105359030D01*
X86277428Y-105350765D01*
X86301227Y-105344804D01*
X86325495Y-105341204D01*
X86349999Y-105340000D01*
X87000001Y-105340000D01*
X87024505Y-105341204D01*
X87024505Y-105341204D01*
G37*
D16*
X86675000Y-106040000D03*
D13*
G36*
X89074505Y-105341204D02*
G01*
X89098773Y-105344804D01*
X89122572Y-105350765D01*
X89145671Y-105359030D01*
X89167850Y-105369520D01*
X89188893Y-105382132D01*
X89208599Y-105396747D01*
X89226777Y-105413223D01*
X89243253Y-105431401D01*
X89257868Y-105451107D01*
X89270480Y-105472150D01*
X89280970Y-105494329D01*
X89289235Y-105517428D01*
X89295196Y-105541227D01*
X89298796Y-105565495D01*
X89300000Y-105589999D01*
X89300000Y-106490001D01*
X89298796Y-106514505D01*
X89295196Y-106538773D01*
X89289235Y-106562572D01*
X89280970Y-106585671D01*
X89270480Y-106607850D01*
X89257868Y-106628893D01*
X89243253Y-106648599D01*
X89226777Y-106666777D01*
X89208599Y-106683253D01*
X89188893Y-106697868D01*
X89167850Y-106710480D01*
X89145671Y-106720970D01*
X89122572Y-106729235D01*
X89098773Y-106735196D01*
X89074505Y-106738796D01*
X89050001Y-106740000D01*
X88399999Y-106740000D01*
X88375495Y-106738796D01*
X88351227Y-106735196D01*
X88327428Y-106729235D01*
X88304329Y-106720970D01*
X88282150Y-106710480D01*
X88261107Y-106697868D01*
X88241401Y-106683253D01*
X88223223Y-106666777D01*
X88206747Y-106648599D01*
X88192132Y-106628893D01*
X88179520Y-106607850D01*
X88169030Y-106585671D01*
X88160765Y-106562572D01*
X88154804Y-106538773D01*
X88151204Y-106514505D01*
X88150000Y-106490001D01*
X88150000Y-105589999D01*
X88151204Y-105565495D01*
X88154804Y-105541227D01*
X88160765Y-105517428D01*
X88169030Y-105494329D01*
X88179520Y-105472150D01*
X88192132Y-105451107D01*
X88206747Y-105431401D01*
X88223223Y-105413223D01*
X88241401Y-105396747D01*
X88261107Y-105382132D01*
X88282150Y-105369520D01*
X88304329Y-105359030D01*
X88327428Y-105350765D01*
X88351227Y-105344804D01*
X88375495Y-105341204D01*
X88399999Y-105340000D01*
X89050001Y-105340000D01*
X89074505Y-105341204D01*
X89074505Y-105341204D01*
G37*
D16*
X88725000Y-106040000D03*
D13*
G36*
X133824505Y-109154204D02*
G01*
X133848773Y-109157804D01*
X133872572Y-109163765D01*
X133895671Y-109172030D01*
X133917850Y-109182520D01*
X133938893Y-109195132D01*
X133958599Y-109209747D01*
X133976777Y-109226223D01*
X133993253Y-109244401D01*
X134007868Y-109264107D01*
X134020480Y-109285150D01*
X134030970Y-109307329D01*
X134039235Y-109330428D01*
X134045196Y-109354227D01*
X134048796Y-109378495D01*
X134050000Y-109402999D01*
X134050000Y-110053001D01*
X134048796Y-110077505D01*
X134045196Y-110101773D01*
X134039235Y-110125572D01*
X134030970Y-110148671D01*
X134020480Y-110170850D01*
X134007868Y-110191893D01*
X133993253Y-110211599D01*
X133976777Y-110229777D01*
X133958599Y-110246253D01*
X133938893Y-110260868D01*
X133917850Y-110273480D01*
X133895671Y-110283970D01*
X133872572Y-110292235D01*
X133848773Y-110298196D01*
X133824505Y-110301796D01*
X133800001Y-110303000D01*
X132899999Y-110303000D01*
X132875495Y-110301796D01*
X132851227Y-110298196D01*
X132827428Y-110292235D01*
X132804329Y-110283970D01*
X132782150Y-110273480D01*
X132761107Y-110260868D01*
X132741401Y-110246253D01*
X132723223Y-110229777D01*
X132706747Y-110211599D01*
X132692132Y-110191893D01*
X132679520Y-110170850D01*
X132669030Y-110148671D01*
X132660765Y-110125572D01*
X132654804Y-110101773D01*
X132651204Y-110077505D01*
X132650000Y-110053001D01*
X132650000Y-109402999D01*
X132651204Y-109378495D01*
X132654804Y-109354227D01*
X132660765Y-109330428D01*
X132669030Y-109307329D01*
X132679520Y-109285150D01*
X132692132Y-109264107D01*
X132706747Y-109244401D01*
X132723223Y-109226223D01*
X132741401Y-109209747D01*
X132761107Y-109195132D01*
X132782150Y-109182520D01*
X132804329Y-109172030D01*
X132827428Y-109163765D01*
X132851227Y-109157804D01*
X132875495Y-109154204D01*
X132899999Y-109153000D01*
X133800001Y-109153000D01*
X133824505Y-109154204D01*
X133824505Y-109154204D01*
G37*
D16*
X133350000Y-109728000D03*
D13*
G36*
X133824505Y-107104204D02*
G01*
X133848773Y-107107804D01*
X133872572Y-107113765D01*
X133895671Y-107122030D01*
X133917850Y-107132520D01*
X133938893Y-107145132D01*
X133958599Y-107159747D01*
X133976777Y-107176223D01*
X133993253Y-107194401D01*
X134007868Y-107214107D01*
X134020480Y-107235150D01*
X134030970Y-107257329D01*
X134039235Y-107280428D01*
X134045196Y-107304227D01*
X134048796Y-107328495D01*
X134050000Y-107352999D01*
X134050000Y-108003001D01*
X134048796Y-108027505D01*
X134045196Y-108051773D01*
X134039235Y-108075572D01*
X134030970Y-108098671D01*
X134020480Y-108120850D01*
X134007868Y-108141893D01*
X133993253Y-108161599D01*
X133976777Y-108179777D01*
X133958599Y-108196253D01*
X133938893Y-108210868D01*
X133917850Y-108223480D01*
X133895671Y-108233970D01*
X133872572Y-108242235D01*
X133848773Y-108248196D01*
X133824505Y-108251796D01*
X133800001Y-108253000D01*
X132899999Y-108253000D01*
X132875495Y-108251796D01*
X132851227Y-108248196D01*
X132827428Y-108242235D01*
X132804329Y-108233970D01*
X132782150Y-108223480D01*
X132761107Y-108210868D01*
X132741401Y-108196253D01*
X132723223Y-108179777D01*
X132706747Y-108161599D01*
X132692132Y-108141893D01*
X132679520Y-108120850D01*
X132669030Y-108098671D01*
X132660765Y-108075572D01*
X132654804Y-108051773D01*
X132651204Y-108027505D01*
X132650000Y-108003001D01*
X132650000Y-107352999D01*
X132651204Y-107328495D01*
X132654804Y-107304227D01*
X132660765Y-107280428D01*
X132669030Y-107257329D01*
X132679520Y-107235150D01*
X132692132Y-107214107D01*
X132706747Y-107194401D01*
X132723223Y-107176223D01*
X132741401Y-107159747D01*
X132761107Y-107145132D01*
X132782150Y-107132520D01*
X132804329Y-107122030D01*
X132827428Y-107113765D01*
X132851227Y-107107804D01*
X132875495Y-107104204D01*
X132899999Y-107103000D01*
X133800001Y-107103000D01*
X133824505Y-107104204D01*
X133824505Y-107104204D01*
G37*
D16*
X133350000Y-107678000D03*
D13*
G36*
X116969505Y-84479704D02*
G01*
X116993773Y-84483304D01*
X117017572Y-84489265D01*
X117040671Y-84497530D01*
X117062850Y-84508020D01*
X117083893Y-84520632D01*
X117103599Y-84535247D01*
X117121777Y-84551723D01*
X117138253Y-84569901D01*
X117152868Y-84589607D01*
X117165480Y-84610650D01*
X117175970Y-84632829D01*
X117184235Y-84655928D01*
X117190196Y-84679727D01*
X117193796Y-84703995D01*
X117195000Y-84728499D01*
X117195000Y-85378501D01*
X117193796Y-85403005D01*
X117190196Y-85427273D01*
X117184235Y-85451072D01*
X117175970Y-85474171D01*
X117165480Y-85496350D01*
X117152868Y-85517393D01*
X117138253Y-85537099D01*
X117121777Y-85555277D01*
X117103599Y-85571753D01*
X117083893Y-85586368D01*
X117062850Y-85598980D01*
X117040671Y-85609470D01*
X117017572Y-85617735D01*
X116993773Y-85623696D01*
X116969505Y-85627296D01*
X116945001Y-85628500D01*
X116044999Y-85628500D01*
X116020495Y-85627296D01*
X115996227Y-85623696D01*
X115972428Y-85617735D01*
X115949329Y-85609470D01*
X115927150Y-85598980D01*
X115906107Y-85586368D01*
X115886401Y-85571753D01*
X115868223Y-85555277D01*
X115851747Y-85537099D01*
X115837132Y-85517393D01*
X115824520Y-85496350D01*
X115814030Y-85474171D01*
X115805765Y-85451072D01*
X115799804Y-85427273D01*
X115796204Y-85403005D01*
X115795000Y-85378501D01*
X115795000Y-84728499D01*
X115796204Y-84703995D01*
X115799804Y-84679727D01*
X115805765Y-84655928D01*
X115814030Y-84632829D01*
X115824520Y-84610650D01*
X115837132Y-84589607D01*
X115851747Y-84569901D01*
X115868223Y-84551723D01*
X115886401Y-84535247D01*
X115906107Y-84520632D01*
X115927150Y-84508020D01*
X115949329Y-84497530D01*
X115972428Y-84489265D01*
X115996227Y-84483304D01*
X116020495Y-84479704D01*
X116044999Y-84478500D01*
X116945001Y-84478500D01*
X116969505Y-84479704D01*
X116969505Y-84479704D01*
G37*
D16*
X116495000Y-85053500D03*
D13*
G36*
X116969505Y-82429704D02*
G01*
X116993773Y-82433304D01*
X117017572Y-82439265D01*
X117040671Y-82447530D01*
X117062850Y-82458020D01*
X117083893Y-82470632D01*
X117103599Y-82485247D01*
X117121777Y-82501723D01*
X117138253Y-82519901D01*
X117152868Y-82539607D01*
X117165480Y-82560650D01*
X117175970Y-82582829D01*
X117184235Y-82605928D01*
X117190196Y-82629727D01*
X117193796Y-82653995D01*
X117195000Y-82678499D01*
X117195000Y-83328501D01*
X117193796Y-83353005D01*
X117190196Y-83377273D01*
X117184235Y-83401072D01*
X117175970Y-83424171D01*
X117165480Y-83446350D01*
X117152868Y-83467393D01*
X117138253Y-83487099D01*
X117121777Y-83505277D01*
X117103599Y-83521753D01*
X117083893Y-83536368D01*
X117062850Y-83548980D01*
X117040671Y-83559470D01*
X117017572Y-83567735D01*
X116993773Y-83573696D01*
X116969505Y-83577296D01*
X116945001Y-83578500D01*
X116044999Y-83578500D01*
X116020495Y-83577296D01*
X115996227Y-83573696D01*
X115972428Y-83567735D01*
X115949329Y-83559470D01*
X115927150Y-83548980D01*
X115906107Y-83536368D01*
X115886401Y-83521753D01*
X115868223Y-83505277D01*
X115851747Y-83487099D01*
X115837132Y-83467393D01*
X115824520Y-83446350D01*
X115814030Y-83424171D01*
X115805765Y-83401072D01*
X115799804Y-83377273D01*
X115796204Y-83353005D01*
X115795000Y-83328501D01*
X115795000Y-82678499D01*
X115796204Y-82653995D01*
X115799804Y-82629727D01*
X115805765Y-82605928D01*
X115814030Y-82582829D01*
X115824520Y-82560650D01*
X115837132Y-82539607D01*
X115851747Y-82519901D01*
X115868223Y-82501723D01*
X115886401Y-82485247D01*
X115906107Y-82470632D01*
X115927150Y-82458020D01*
X115949329Y-82447530D01*
X115972428Y-82439265D01*
X115996227Y-82433304D01*
X116020495Y-82429704D01*
X116044999Y-82428500D01*
X116945001Y-82428500D01*
X116969505Y-82429704D01*
X116969505Y-82429704D01*
G37*
D16*
X116495000Y-83003500D03*
D13*
G36*
X111066005Y-82304704D02*
G01*
X111090273Y-82308304D01*
X111114072Y-82314265D01*
X111137171Y-82322530D01*
X111159350Y-82333020D01*
X111180393Y-82345632D01*
X111200099Y-82360247D01*
X111218277Y-82376723D01*
X111234753Y-82394901D01*
X111249368Y-82414607D01*
X111261980Y-82435650D01*
X111272470Y-82457829D01*
X111280735Y-82480928D01*
X111286696Y-82504727D01*
X111290296Y-82528995D01*
X111291500Y-82553499D01*
X111291500Y-83453501D01*
X111290296Y-83478005D01*
X111286696Y-83502273D01*
X111280735Y-83526072D01*
X111272470Y-83549171D01*
X111261980Y-83571350D01*
X111249368Y-83592393D01*
X111234753Y-83612099D01*
X111218277Y-83630277D01*
X111200099Y-83646753D01*
X111180393Y-83661368D01*
X111159350Y-83673980D01*
X111137171Y-83684470D01*
X111114072Y-83692735D01*
X111090273Y-83698696D01*
X111066005Y-83702296D01*
X111041501Y-83703500D01*
X110391499Y-83703500D01*
X110366995Y-83702296D01*
X110342727Y-83698696D01*
X110318928Y-83692735D01*
X110295829Y-83684470D01*
X110273650Y-83673980D01*
X110252607Y-83661368D01*
X110232901Y-83646753D01*
X110214723Y-83630277D01*
X110198247Y-83612099D01*
X110183632Y-83592393D01*
X110171020Y-83571350D01*
X110160530Y-83549171D01*
X110152265Y-83526072D01*
X110146304Y-83502273D01*
X110142704Y-83478005D01*
X110141500Y-83453501D01*
X110141500Y-82553499D01*
X110142704Y-82528995D01*
X110146304Y-82504727D01*
X110152265Y-82480928D01*
X110160530Y-82457829D01*
X110171020Y-82435650D01*
X110183632Y-82414607D01*
X110198247Y-82394901D01*
X110214723Y-82376723D01*
X110232901Y-82360247D01*
X110252607Y-82345632D01*
X110273650Y-82333020D01*
X110295829Y-82322530D01*
X110318928Y-82314265D01*
X110342727Y-82308304D01*
X110366995Y-82304704D01*
X110391499Y-82303500D01*
X111041501Y-82303500D01*
X111066005Y-82304704D01*
X111066005Y-82304704D01*
G37*
D16*
X110716500Y-83003500D03*
D13*
G36*
X109016005Y-82304704D02*
G01*
X109040273Y-82308304D01*
X109064072Y-82314265D01*
X109087171Y-82322530D01*
X109109350Y-82333020D01*
X109130393Y-82345632D01*
X109150099Y-82360247D01*
X109168277Y-82376723D01*
X109184753Y-82394901D01*
X109199368Y-82414607D01*
X109211980Y-82435650D01*
X109222470Y-82457829D01*
X109230735Y-82480928D01*
X109236696Y-82504727D01*
X109240296Y-82528995D01*
X109241500Y-82553499D01*
X109241500Y-83453501D01*
X109240296Y-83478005D01*
X109236696Y-83502273D01*
X109230735Y-83526072D01*
X109222470Y-83549171D01*
X109211980Y-83571350D01*
X109199368Y-83592393D01*
X109184753Y-83612099D01*
X109168277Y-83630277D01*
X109150099Y-83646753D01*
X109130393Y-83661368D01*
X109109350Y-83673980D01*
X109087171Y-83684470D01*
X109064072Y-83692735D01*
X109040273Y-83698696D01*
X109016005Y-83702296D01*
X108991501Y-83703500D01*
X108341499Y-83703500D01*
X108316995Y-83702296D01*
X108292727Y-83698696D01*
X108268928Y-83692735D01*
X108245829Y-83684470D01*
X108223650Y-83673980D01*
X108202607Y-83661368D01*
X108182901Y-83646753D01*
X108164723Y-83630277D01*
X108148247Y-83612099D01*
X108133632Y-83592393D01*
X108121020Y-83571350D01*
X108110530Y-83549171D01*
X108102265Y-83526072D01*
X108096304Y-83502273D01*
X108092704Y-83478005D01*
X108091500Y-83453501D01*
X108091500Y-82553499D01*
X108092704Y-82528995D01*
X108096304Y-82504727D01*
X108102265Y-82480928D01*
X108110530Y-82457829D01*
X108121020Y-82435650D01*
X108133632Y-82414607D01*
X108148247Y-82394901D01*
X108164723Y-82376723D01*
X108182901Y-82360247D01*
X108202607Y-82345632D01*
X108223650Y-82333020D01*
X108245829Y-82322530D01*
X108268928Y-82314265D01*
X108292727Y-82308304D01*
X108316995Y-82304704D01*
X108341499Y-82303500D01*
X108991501Y-82303500D01*
X109016005Y-82304704D01*
X109016005Y-82304704D01*
G37*
D16*
X108666500Y-83003500D03*
D13*
G36*
X101539005Y-84479704D02*
G01*
X101563273Y-84483304D01*
X101587072Y-84489265D01*
X101610171Y-84497530D01*
X101632350Y-84508020D01*
X101653393Y-84520632D01*
X101673099Y-84535247D01*
X101691277Y-84551723D01*
X101707753Y-84569901D01*
X101722368Y-84589607D01*
X101734980Y-84610650D01*
X101745470Y-84632829D01*
X101753735Y-84655928D01*
X101759696Y-84679727D01*
X101763296Y-84703995D01*
X101764500Y-84728499D01*
X101764500Y-85378501D01*
X101763296Y-85403005D01*
X101759696Y-85427273D01*
X101753735Y-85451072D01*
X101745470Y-85474171D01*
X101734980Y-85496350D01*
X101722368Y-85517393D01*
X101707753Y-85537099D01*
X101691277Y-85555277D01*
X101673099Y-85571753D01*
X101653393Y-85586368D01*
X101632350Y-85598980D01*
X101610171Y-85609470D01*
X101587072Y-85617735D01*
X101563273Y-85623696D01*
X101539005Y-85627296D01*
X101514501Y-85628500D01*
X100614499Y-85628500D01*
X100589995Y-85627296D01*
X100565727Y-85623696D01*
X100541928Y-85617735D01*
X100518829Y-85609470D01*
X100496650Y-85598980D01*
X100475607Y-85586368D01*
X100455901Y-85571753D01*
X100437723Y-85555277D01*
X100421247Y-85537099D01*
X100406632Y-85517393D01*
X100394020Y-85496350D01*
X100383530Y-85474171D01*
X100375265Y-85451072D01*
X100369304Y-85427273D01*
X100365704Y-85403005D01*
X100364500Y-85378501D01*
X100364500Y-84728499D01*
X100365704Y-84703995D01*
X100369304Y-84679727D01*
X100375265Y-84655928D01*
X100383530Y-84632829D01*
X100394020Y-84610650D01*
X100406632Y-84589607D01*
X100421247Y-84569901D01*
X100437723Y-84551723D01*
X100455901Y-84535247D01*
X100475607Y-84520632D01*
X100496650Y-84508020D01*
X100518829Y-84497530D01*
X100541928Y-84489265D01*
X100565727Y-84483304D01*
X100589995Y-84479704D01*
X100614499Y-84478500D01*
X101514501Y-84478500D01*
X101539005Y-84479704D01*
X101539005Y-84479704D01*
G37*
D16*
X101064500Y-85053500D03*
D13*
G36*
X101539005Y-82429704D02*
G01*
X101563273Y-82433304D01*
X101587072Y-82439265D01*
X101610171Y-82447530D01*
X101632350Y-82458020D01*
X101653393Y-82470632D01*
X101673099Y-82485247D01*
X101691277Y-82501723D01*
X101707753Y-82519901D01*
X101722368Y-82539607D01*
X101734980Y-82560650D01*
X101745470Y-82582829D01*
X101753735Y-82605928D01*
X101759696Y-82629727D01*
X101763296Y-82653995D01*
X101764500Y-82678499D01*
X101764500Y-83328501D01*
X101763296Y-83353005D01*
X101759696Y-83377273D01*
X101753735Y-83401072D01*
X101745470Y-83424171D01*
X101734980Y-83446350D01*
X101722368Y-83467393D01*
X101707753Y-83487099D01*
X101691277Y-83505277D01*
X101673099Y-83521753D01*
X101653393Y-83536368D01*
X101632350Y-83548980D01*
X101610171Y-83559470D01*
X101587072Y-83567735D01*
X101563273Y-83573696D01*
X101539005Y-83577296D01*
X101514501Y-83578500D01*
X100614499Y-83578500D01*
X100589995Y-83577296D01*
X100565727Y-83573696D01*
X100541928Y-83567735D01*
X100518829Y-83559470D01*
X100496650Y-83548980D01*
X100475607Y-83536368D01*
X100455901Y-83521753D01*
X100437723Y-83505277D01*
X100421247Y-83487099D01*
X100406632Y-83467393D01*
X100394020Y-83446350D01*
X100383530Y-83424171D01*
X100375265Y-83401072D01*
X100369304Y-83377273D01*
X100365704Y-83353005D01*
X100364500Y-83328501D01*
X100364500Y-82678499D01*
X100365704Y-82653995D01*
X100369304Y-82629727D01*
X100375265Y-82605928D01*
X100383530Y-82582829D01*
X100394020Y-82560650D01*
X100406632Y-82539607D01*
X100421247Y-82519901D01*
X100437723Y-82501723D01*
X100455901Y-82485247D01*
X100475607Y-82470632D01*
X100496650Y-82458020D01*
X100518829Y-82447530D01*
X100541928Y-82439265D01*
X100565727Y-82433304D01*
X100589995Y-82429704D01*
X100614499Y-82428500D01*
X101514501Y-82428500D01*
X101539005Y-82429704D01*
X101539005Y-82429704D01*
G37*
D16*
X101064500Y-83003500D03*
D13*
G36*
X108816505Y-89923204D02*
G01*
X108840773Y-89926804D01*
X108864572Y-89932765D01*
X108887671Y-89941030D01*
X108909850Y-89951520D01*
X108930893Y-89964132D01*
X108950599Y-89978747D01*
X108968777Y-89995223D01*
X108985253Y-90013401D01*
X108999868Y-90033107D01*
X109012480Y-90054150D01*
X109022970Y-90076329D01*
X109031235Y-90099428D01*
X109037196Y-90123227D01*
X109040796Y-90147495D01*
X109042000Y-90171999D01*
X109042000Y-90822001D01*
X109040796Y-90846505D01*
X109037196Y-90870773D01*
X109031235Y-90894572D01*
X109022970Y-90917671D01*
X109012480Y-90939850D01*
X108999868Y-90960893D01*
X108985253Y-90980599D01*
X108968777Y-90998777D01*
X108950599Y-91015253D01*
X108930893Y-91029868D01*
X108909850Y-91042480D01*
X108887671Y-91052970D01*
X108864572Y-91061235D01*
X108840773Y-91067196D01*
X108816505Y-91070796D01*
X108792001Y-91072000D01*
X107891999Y-91072000D01*
X107867495Y-91070796D01*
X107843227Y-91067196D01*
X107819428Y-91061235D01*
X107796329Y-91052970D01*
X107774150Y-91042480D01*
X107753107Y-91029868D01*
X107733401Y-91015253D01*
X107715223Y-90998777D01*
X107698747Y-90980599D01*
X107684132Y-90960893D01*
X107671520Y-90939850D01*
X107661030Y-90917671D01*
X107652765Y-90894572D01*
X107646804Y-90870773D01*
X107643204Y-90846505D01*
X107642000Y-90822001D01*
X107642000Y-90171999D01*
X107643204Y-90147495D01*
X107646804Y-90123227D01*
X107652765Y-90099428D01*
X107661030Y-90076329D01*
X107671520Y-90054150D01*
X107684132Y-90033107D01*
X107698747Y-90013401D01*
X107715223Y-89995223D01*
X107733401Y-89978747D01*
X107753107Y-89964132D01*
X107774150Y-89951520D01*
X107796329Y-89941030D01*
X107819428Y-89932765D01*
X107843227Y-89926804D01*
X107867495Y-89923204D01*
X107891999Y-89922000D01*
X108792001Y-89922000D01*
X108816505Y-89923204D01*
X108816505Y-89923204D01*
G37*
D16*
X108342000Y-90497000D03*
D13*
G36*
X108816505Y-87873204D02*
G01*
X108840773Y-87876804D01*
X108864572Y-87882765D01*
X108887671Y-87891030D01*
X108909850Y-87901520D01*
X108930893Y-87914132D01*
X108950599Y-87928747D01*
X108968777Y-87945223D01*
X108985253Y-87963401D01*
X108999868Y-87983107D01*
X109012480Y-88004150D01*
X109022970Y-88026329D01*
X109031235Y-88049428D01*
X109037196Y-88073227D01*
X109040796Y-88097495D01*
X109042000Y-88121999D01*
X109042000Y-88772001D01*
X109040796Y-88796505D01*
X109037196Y-88820773D01*
X109031235Y-88844572D01*
X109022970Y-88867671D01*
X109012480Y-88889850D01*
X108999868Y-88910893D01*
X108985253Y-88930599D01*
X108968777Y-88948777D01*
X108950599Y-88965253D01*
X108930893Y-88979868D01*
X108909850Y-88992480D01*
X108887671Y-89002970D01*
X108864572Y-89011235D01*
X108840773Y-89017196D01*
X108816505Y-89020796D01*
X108792001Y-89022000D01*
X107891999Y-89022000D01*
X107867495Y-89020796D01*
X107843227Y-89017196D01*
X107819428Y-89011235D01*
X107796329Y-89002970D01*
X107774150Y-88992480D01*
X107753107Y-88979868D01*
X107733401Y-88965253D01*
X107715223Y-88948777D01*
X107698747Y-88930599D01*
X107684132Y-88910893D01*
X107671520Y-88889850D01*
X107661030Y-88867671D01*
X107652765Y-88844572D01*
X107646804Y-88820773D01*
X107643204Y-88796505D01*
X107642000Y-88772001D01*
X107642000Y-88121999D01*
X107643204Y-88097495D01*
X107646804Y-88073227D01*
X107652765Y-88049428D01*
X107661030Y-88026329D01*
X107671520Y-88004150D01*
X107684132Y-87983107D01*
X107698747Y-87963401D01*
X107715223Y-87945223D01*
X107733401Y-87928747D01*
X107753107Y-87914132D01*
X107774150Y-87901520D01*
X107796329Y-87891030D01*
X107819428Y-87882765D01*
X107843227Y-87876804D01*
X107867495Y-87873204D01*
X107891999Y-87872000D01*
X108792001Y-87872000D01*
X108816505Y-87873204D01*
X108816505Y-87873204D01*
G37*
D16*
X108342000Y-88447000D03*
D13*
G36*
X116956505Y-77287204D02*
G01*
X116980773Y-77290804D01*
X117004572Y-77296765D01*
X117027671Y-77305030D01*
X117049850Y-77315520D01*
X117070893Y-77328132D01*
X117090599Y-77342747D01*
X117108777Y-77359223D01*
X117125253Y-77377401D01*
X117139868Y-77397107D01*
X117152480Y-77418150D01*
X117162970Y-77440329D01*
X117171235Y-77463428D01*
X117177196Y-77487227D01*
X117180796Y-77511495D01*
X117182000Y-77535999D01*
X117182000Y-78186001D01*
X117180796Y-78210505D01*
X117177196Y-78234773D01*
X117171235Y-78258572D01*
X117162970Y-78281671D01*
X117152480Y-78303850D01*
X117139868Y-78324893D01*
X117125253Y-78344599D01*
X117108777Y-78362777D01*
X117090599Y-78379253D01*
X117070893Y-78393868D01*
X117049850Y-78406480D01*
X117027671Y-78416970D01*
X117004572Y-78425235D01*
X116980773Y-78431196D01*
X116956505Y-78434796D01*
X116932001Y-78436000D01*
X116031999Y-78436000D01*
X116007495Y-78434796D01*
X115983227Y-78431196D01*
X115959428Y-78425235D01*
X115936329Y-78416970D01*
X115914150Y-78406480D01*
X115893107Y-78393868D01*
X115873401Y-78379253D01*
X115855223Y-78362777D01*
X115838747Y-78344599D01*
X115824132Y-78324893D01*
X115811520Y-78303850D01*
X115801030Y-78281671D01*
X115792765Y-78258572D01*
X115786804Y-78234773D01*
X115783204Y-78210505D01*
X115782000Y-78186001D01*
X115782000Y-77535999D01*
X115783204Y-77511495D01*
X115786804Y-77487227D01*
X115792765Y-77463428D01*
X115801030Y-77440329D01*
X115811520Y-77418150D01*
X115824132Y-77397107D01*
X115838747Y-77377401D01*
X115855223Y-77359223D01*
X115873401Y-77342747D01*
X115893107Y-77328132D01*
X115914150Y-77315520D01*
X115936329Y-77305030D01*
X115959428Y-77296765D01*
X115983227Y-77290804D01*
X116007495Y-77287204D01*
X116031999Y-77286000D01*
X116932001Y-77286000D01*
X116956505Y-77287204D01*
X116956505Y-77287204D01*
G37*
D16*
X116482000Y-77861000D03*
D13*
G36*
X116956505Y-75237204D02*
G01*
X116980773Y-75240804D01*
X117004572Y-75246765D01*
X117027671Y-75255030D01*
X117049850Y-75265520D01*
X117070893Y-75278132D01*
X117090599Y-75292747D01*
X117108777Y-75309223D01*
X117125253Y-75327401D01*
X117139868Y-75347107D01*
X117152480Y-75368150D01*
X117162970Y-75390329D01*
X117171235Y-75413428D01*
X117177196Y-75437227D01*
X117180796Y-75461495D01*
X117182000Y-75485999D01*
X117182000Y-76136001D01*
X117180796Y-76160505D01*
X117177196Y-76184773D01*
X117171235Y-76208572D01*
X117162970Y-76231671D01*
X117152480Y-76253850D01*
X117139868Y-76274893D01*
X117125253Y-76294599D01*
X117108777Y-76312777D01*
X117090599Y-76329253D01*
X117070893Y-76343868D01*
X117049850Y-76356480D01*
X117027671Y-76366970D01*
X117004572Y-76375235D01*
X116980773Y-76381196D01*
X116956505Y-76384796D01*
X116932001Y-76386000D01*
X116031999Y-76386000D01*
X116007495Y-76384796D01*
X115983227Y-76381196D01*
X115959428Y-76375235D01*
X115936329Y-76366970D01*
X115914150Y-76356480D01*
X115893107Y-76343868D01*
X115873401Y-76329253D01*
X115855223Y-76312777D01*
X115838747Y-76294599D01*
X115824132Y-76274893D01*
X115811520Y-76253850D01*
X115801030Y-76231671D01*
X115792765Y-76208572D01*
X115786804Y-76184773D01*
X115783204Y-76160505D01*
X115782000Y-76136001D01*
X115782000Y-75485999D01*
X115783204Y-75461495D01*
X115786804Y-75437227D01*
X115792765Y-75413428D01*
X115801030Y-75390329D01*
X115811520Y-75368150D01*
X115824132Y-75347107D01*
X115838747Y-75327401D01*
X115855223Y-75309223D01*
X115873401Y-75292747D01*
X115893107Y-75278132D01*
X115914150Y-75265520D01*
X115936329Y-75255030D01*
X115959428Y-75246765D01*
X115983227Y-75240804D01*
X116007495Y-75237204D01*
X116031999Y-75236000D01*
X116932001Y-75236000D01*
X116956505Y-75237204D01*
X116956505Y-75237204D01*
G37*
D16*
X116482000Y-75811000D03*
D13*
G36*
X104518505Y-87748204D02*
G01*
X104542773Y-87751804D01*
X104566572Y-87757765D01*
X104589671Y-87766030D01*
X104611850Y-87776520D01*
X104632893Y-87789132D01*
X104652599Y-87803747D01*
X104670777Y-87820223D01*
X104687253Y-87838401D01*
X104701868Y-87858107D01*
X104714480Y-87879150D01*
X104724970Y-87901329D01*
X104733235Y-87924428D01*
X104739196Y-87948227D01*
X104742796Y-87972495D01*
X104744000Y-87996999D01*
X104744000Y-88897001D01*
X104742796Y-88921505D01*
X104739196Y-88945773D01*
X104733235Y-88969572D01*
X104724970Y-88992671D01*
X104714480Y-89014850D01*
X104701868Y-89035893D01*
X104687253Y-89055599D01*
X104670777Y-89073777D01*
X104652599Y-89090253D01*
X104632893Y-89104868D01*
X104611850Y-89117480D01*
X104589671Y-89127970D01*
X104566572Y-89136235D01*
X104542773Y-89142196D01*
X104518505Y-89145796D01*
X104494001Y-89147000D01*
X103843999Y-89147000D01*
X103819495Y-89145796D01*
X103795227Y-89142196D01*
X103771428Y-89136235D01*
X103748329Y-89127970D01*
X103726150Y-89117480D01*
X103705107Y-89104868D01*
X103685401Y-89090253D01*
X103667223Y-89073777D01*
X103650747Y-89055599D01*
X103636132Y-89035893D01*
X103623520Y-89014850D01*
X103613030Y-88992671D01*
X103604765Y-88969572D01*
X103598804Y-88945773D01*
X103595204Y-88921505D01*
X103594000Y-88897001D01*
X103594000Y-87996999D01*
X103595204Y-87972495D01*
X103598804Y-87948227D01*
X103604765Y-87924428D01*
X103613030Y-87901329D01*
X103623520Y-87879150D01*
X103636132Y-87858107D01*
X103650747Y-87838401D01*
X103667223Y-87820223D01*
X103685401Y-87803747D01*
X103705107Y-87789132D01*
X103726150Y-87776520D01*
X103748329Y-87766030D01*
X103771428Y-87757765D01*
X103795227Y-87751804D01*
X103819495Y-87748204D01*
X103843999Y-87747000D01*
X104494001Y-87747000D01*
X104518505Y-87748204D01*
X104518505Y-87748204D01*
G37*
D16*
X104169000Y-88447000D03*
D13*
G36*
X102468505Y-87748204D02*
G01*
X102492773Y-87751804D01*
X102516572Y-87757765D01*
X102539671Y-87766030D01*
X102561850Y-87776520D01*
X102582893Y-87789132D01*
X102602599Y-87803747D01*
X102620777Y-87820223D01*
X102637253Y-87838401D01*
X102651868Y-87858107D01*
X102664480Y-87879150D01*
X102674970Y-87901329D01*
X102683235Y-87924428D01*
X102689196Y-87948227D01*
X102692796Y-87972495D01*
X102694000Y-87996999D01*
X102694000Y-88897001D01*
X102692796Y-88921505D01*
X102689196Y-88945773D01*
X102683235Y-88969572D01*
X102674970Y-88992671D01*
X102664480Y-89014850D01*
X102651868Y-89035893D01*
X102637253Y-89055599D01*
X102620777Y-89073777D01*
X102602599Y-89090253D01*
X102582893Y-89104868D01*
X102561850Y-89117480D01*
X102539671Y-89127970D01*
X102516572Y-89136235D01*
X102492773Y-89142196D01*
X102468505Y-89145796D01*
X102444001Y-89147000D01*
X101793999Y-89147000D01*
X101769495Y-89145796D01*
X101745227Y-89142196D01*
X101721428Y-89136235D01*
X101698329Y-89127970D01*
X101676150Y-89117480D01*
X101655107Y-89104868D01*
X101635401Y-89090253D01*
X101617223Y-89073777D01*
X101600747Y-89055599D01*
X101586132Y-89035893D01*
X101573520Y-89014850D01*
X101563030Y-88992671D01*
X101554765Y-88969572D01*
X101548804Y-88945773D01*
X101545204Y-88921505D01*
X101544000Y-88897001D01*
X101544000Y-87996999D01*
X101545204Y-87972495D01*
X101548804Y-87948227D01*
X101554765Y-87924428D01*
X101563030Y-87901329D01*
X101573520Y-87879150D01*
X101586132Y-87858107D01*
X101600747Y-87838401D01*
X101617223Y-87820223D01*
X101635401Y-87803747D01*
X101655107Y-87789132D01*
X101676150Y-87776520D01*
X101698329Y-87766030D01*
X101721428Y-87757765D01*
X101745227Y-87751804D01*
X101769495Y-87748204D01*
X101793999Y-87747000D01*
X102444001Y-87747000D01*
X102468505Y-87748204D01*
X102468505Y-87748204D01*
G37*
D16*
X102119000Y-88447000D03*
D13*
G36*
X110880505Y-75066704D02*
G01*
X110904773Y-75070304D01*
X110928572Y-75076265D01*
X110951671Y-75084530D01*
X110973850Y-75095020D01*
X110994893Y-75107632D01*
X111014599Y-75122247D01*
X111032777Y-75138723D01*
X111049253Y-75156901D01*
X111063868Y-75176607D01*
X111076480Y-75197650D01*
X111086970Y-75219829D01*
X111095235Y-75242928D01*
X111101196Y-75266727D01*
X111104796Y-75290995D01*
X111106000Y-75315499D01*
X111106000Y-76215501D01*
X111104796Y-76240005D01*
X111101196Y-76264273D01*
X111095235Y-76288072D01*
X111086970Y-76311171D01*
X111076480Y-76333350D01*
X111063868Y-76354393D01*
X111049253Y-76374099D01*
X111032777Y-76392277D01*
X111014599Y-76408753D01*
X110994893Y-76423368D01*
X110973850Y-76435980D01*
X110951671Y-76446470D01*
X110928572Y-76454735D01*
X110904773Y-76460696D01*
X110880505Y-76464296D01*
X110856001Y-76465500D01*
X110205999Y-76465500D01*
X110181495Y-76464296D01*
X110157227Y-76460696D01*
X110133428Y-76454735D01*
X110110329Y-76446470D01*
X110088150Y-76435980D01*
X110067107Y-76423368D01*
X110047401Y-76408753D01*
X110029223Y-76392277D01*
X110012747Y-76374099D01*
X109998132Y-76354393D01*
X109985520Y-76333350D01*
X109975030Y-76311171D01*
X109966765Y-76288072D01*
X109960804Y-76264273D01*
X109957204Y-76240005D01*
X109956000Y-76215501D01*
X109956000Y-75315499D01*
X109957204Y-75290995D01*
X109960804Y-75266727D01*
X109966765Y-75242928D01*
X109975030Y-75219829D01*
X109985520Y-75197650D01*
X109998132Y-75176607D01*
X110012747Y-75156901D01*
X110029223Y-75138723D01*
X110047401Y-75122247D01*
X110067107Y-75107632D01*
X110088150Y-75095020D01*
X110110329Y-75084530D01*
X110133428Y-75076265D01*
X110157227Y-75070304D01*
X110181495Y-75066704D01*
X110205999Y-75065500D01*
X110856001Y-75065500D01*
X110880505Y-75066704D01*
X110880505Y-75066704D01*
G37*
D16*
X110531000Y-75765500D03*
D13*
G36*
X108830505Y-75066704D02*
G01*
X108854773Y-75070304D01*
X108878572Y-75076265D01*
X108901671Y-75084530D01*
X108923850Y-75095020D01*
X108944893Y-75107632D01*
X108964599Y-75122247D01*
X108982777Y-75138723D01*
X108999253Y-75156901D01*
X109013868Y-75176607D01*
X109026480Y-75197650D01*
X109036970Y-75219829D01*
X109045235Y-75242928D01*
X109051196Y-75266727D01*
X109054796Y-75290995D01*
X109056000Y-75315499D01*
X109056000Y-76215501D01*
X109054796Y-76240005D01*
X109051196Y-76264273D01*
X109045235Y-76288072D01*
X109036970Y-76311171D01*
X109026480Y-76333350D01*
X109013868Y-76354393D01*
X108999253Y-76374099D01*
X108982777Y-76392277D01*
X108964599Y-76408753D01*
X108944893Y-76423368D01*
X108923850Y-76435980D01*
X108901671Y-76446470D01*
X108878572Y-76454735D01*
X108854773Y-76460696D01*
X108830505Y-76464296D01*
X108806001Y-76465500D01*
X108155999Y-76465500D01*
X108131495Y-76464296D01*
X108107227Y-76460696D01*
X108083428Y-76454735D01*
X108060329Y-76446470D01*
X108038150Y-76435980D01*
X108017107Y-76423368D01*
X107997401Y-76408753D01*
X107979223Y-76392277D01*
X107962747Y-76374099D01*
X107948132Y-76354393D01*
X107935520Y-76333350D01*
X107925030Y-76311171D01*
X107916765Y-76288072D01*
X107910804Y-76264273D01*
X107907204Y-76240005D01*
X107906000Y-76215501D01*
X107906000Y-75315499D01*
X107907204Y-75290995D01*
X107910804Y-75266727D01*
X107916765Y-75242928D01*
X107925030Y-75219829D01*
X107935520Y-75197650D01*
X107948132Y-75176607D01*
X107962747Y-75156901D01*
X107979223Y-75138723D01*
X107997401Y-75122247D01*
X108017107Y-75107632D01*
X108038150Y-75095020D01*
X108060329Y-75084530D01*
X108083428Y-75076265D01*
X108107227Y-75070304D01*
X108131495Y-75066704D01*
X108155999Y-75065500D01*
X108806001Y-75065500D01*
X108830505Y-75066704D01*
X108830505Y-75066704D01*
G37*
D16*
X108481000Y-75765500D03*
D13*
G36*
X96497505Y-89905204D02*
G01*
X96521773Y-89908804D01*
X96545572Y-89914765D01*
X96568671Y-89923030D01*
X96590850Y-89933520D01*
X96611893Y-89946132D01*
X96631599Y-89960747D01*
X96649777Y-89977223D01*
X96666253Y-89995401D01*
X96680868Y-90015107D01*
X96693480Y-90036150D01*
X96703970Y-90058329D01*
X96712235Y-90081428D01*
X96718196Y-90105227D01*
X96721796Y-90129495D01*
X96723000Y-90153999D01*
X96723000Y-90804001D01*
X96721796Y-90828505D01*
X96718196Y-90852773D01*
X96712235Y-90876572D01*
X96703970Y-90899671D01*
X96693480Y-90921850D01*
X96680868Y-90942893D01*
X96666253Y-90962599D01*
X96649777Y-90980777D01*
X96631599Y-90997253D01*
X96611893Y-91011868D01*
X96590850Y-91024480D01*
X96568671Y-91034970D01*
X96545572Y-91043235D01*
X96521773Y-91049196D01*
X96497505Y-91052796D01*
X96473001Y-91054000D01*
X95572999Y-91054000D01*
X95548495Y-91052796D01*
X95524227Y-91049196D01*
X95500428Y-91043235D01*
X95477329Y-91034970D01*
X95455150Y-91024480D01*
X95434107Y-91011868D01*
X95414401Y-90997253D01*
X95396223Y-90980777D01*
X95379747Y-90962599D01*
X95365132Y-90942893D01*
X95352520Y-90921850D01*
X95342030Y-90899671D01*
X95333765Y-90876572D01*
X95327804Y-90852773D01*
X95324204Y-90828505D01*
X95323000Y-90804001D01*
X95323000Y-90153999D01*
X95324204Y-90129495D01*
X95327804Y-90105227D01*
X95333765Y-90081428D01*
X95342030Y-90058329D01*
X95352520Y-90036150D01*
X95365132Y-90015107D01*
X95379747Y-89995401D01*
X95396223Y-89977223D01*
X95414401Y-89960747D01*
X95434107Y-89946132D01*
X95455150Y-89933520D01*
X95477329Y-89923030D01*
X95500428Y-89914765D01*
X95524227Y-89908804D01*
X95548495Y-89905204D01*
X95572999Y-89904000D01*
X96473001Y-89904000D01*
X96497505Y-89905204D01*
X96497505Y-89905204D01*
G37*
D16*
X96023000Y-90479000D03*
D13*
G36*
X96497505Y-87855204D02*
G01*
X96521773Y-87858804D01*
X96545572Y-87864765D01*
X96568671Y-87873030D01*
X96590850Y-87883520D01*
X96611893Y-87896132D01*
X96631599Y-87910747D01*
X96649777Y-87927223D01*
X96666253Y-87945401D01*
X96680868Y-87965107D01*
X96693480Y-87986150D01*
X96703970Y-88008329D01*
X96712235Y-88031428D01*
X96718196Y-88055227D01*
X96721796Y-88079495D01*
X96723000Y-88103999D01*
X96723000Y-88754001D01*
X96721796Y-88778505D01*
X96718196Y-88802773D01*
X96712235Y-88826572D01*
X96703970Y-88849671D01*
X96693480Y-88871850D01*
X96680868Y-88892893D01*
X96666253Y-88912599D01*
X96649777Y-88930777D01*
X96631599Y-88947253D01*
X96611893Y-88961868D01*
X96590850Y-88974480D01*
X96568671Y-88984970D01*
X96545572Y-88993235D01*
X96521773Y-88999196D01*
X96497505Y-89002796D01*
X96473001Y-89004000D01*
X95572999Y-89004000D01*
X95548495Y-89002796D01*
X95524227Y-88999196D01*
X95500428Y-88993235D01*
X95477329Y-88984970D01*
X95455150Y-88974480D01*
X95434107Y-88961868D01*
X95414401Y-88947253D01*
X95396223Y-88930777D01*
X95379747Y-88912599D01*
X95365132Y-88892893D01*
X95352520Y-88871850D01*
X95342030Y-88849671D01*
X95333765Y-88826572D01*
X95327804Y-88802773D01*
X95324204Y-88778505D01*
X95323000Y-88754001D01*
X95323000Y-88103999D01*
X95324204Y-88079495D01*
X95327804Y-88055227D01*
X95333765Y-88031428D01*
X95342030Y-88008329D01*
X95352520Y-87986150D01*
X95365132Y-87965107D01*
X95379747Y-87945401D01*
X95396223Y-87927223D01*
X95414401Y-87910747D01*
X95434107Y-87896132D01*
X95455150Y-87883520D01*
X95477329Y-87873030D01*
X95500428Y-87864765D01*
X95524227Y-87858804D01*
X95548495Y-87855204D01*
X95572999Y-87854000D01*
X96473001Y-87854000D01*
X96497505Y-87855204D01*
X96497505Y-87855204D01*
G37*
D16*
X96023000Y-88429000D03*
D13*
G36*
X101335505Y-77160204D02*
G01*
X101359773Y-77163804D01*
X101383572Y-77169765D01*
X101406671Y-77178030D01*
X101428850Y-77188520D01*
X101449893Y-77201132D01*
X101469599Y-77215747D01*
X101487777Y-77232223D01*
X101504253Y-77250401D01*
X101518868Y-77270107D01*
X101531480Y-77291150D01*
X101541970Y-77313329D01*
X101550235Y-77336428D01*
X101556196Y-77360227D01*
X101559796Y-77384495D01*
X101561000Y-77408999D01*
X101561000Y-78059001D01*
X101559796Y-78083505D01*
X101556196Y-78107773D01*
X101550235Y-78131572D01*
X101541970Y-78154671D01*
X101531480Y-78176850D01*
X101518868Y-78197893D01*
X101504253Y-78217599D01*
X101487777Y-78235777D01*
X101469599Y-78252253D01*
X101449893Y-78266868D01*
X101428850Y-78279480D01*
X101406671Y-78289970D01*
X101383572Y-78298235D01*
X101359773Y-78304196D01*
X101335505Y-78307796D01*
X101311001Y-78309000D01*
X100410999Y-78309000D01*
X100386495Y-78307796D01*
X100362227Y-78304196D01*
X100338428Y-78298235D01*
X100315329Y-78289970D01*
X100293150Y-78279480D01*
X100272107Y-78266868D01*
X100252401Y-78252253D01*
X100234223Y-78235777D01*
X100217747Y-78217599D01*
X100203132Y-78197893D01*
X100190520Y-78176850D01*
X100180030Y-78154671D01*
X100171765Y-78131572D01*
X100165804Y-78107773D01*
X100162204Y-78083505D01*
X100161000Y-78059001D01*
X100161000Y-77408999D01*
X100162204Y-77384495D01*
X100165804Y-77360227D01*
X100171765Y-77336428D01*
X100180030Y-77313329D01*
X100190520Y-77291150D01*
X100203132Y-77270107D01*
X100217747Y-77250401D01*
X100234223Y-77232223D01*
X100252401Y-77215747D01*
X100272107Y-77201132D01*
X100293150Y-77188520D01*
X100315329Y-77178030D01*
X100338428Y-77169765D01*
X100362227Y-77163804D01*
X100386495Y-77160204D01*
X100410999Y-77159000D01*
X101311001Y-77159000D01*
X101335505Y-77160204D01*
X101335505Y-77160204D01*
G37*
D16*
X100861000Y-77734000D03*
D13*
G36*
X101335505Y-75110204D02*
G01*
X101359773Y-75113804D01*
X101383572Y-75119765D01*
X101406671Y-75128030D01*
X101428850Y-75138520D01*
X101449893Y-75151132D01*
X101469599Y-75165747D01*
X101487777Y-75182223D01*
X101504253Y-75200401D01*
X101518868Y-75220107D01*
X101531480Y-75241150D01*
X101541970Y-75263329D01*
X101550235Y-75286428D01*
X101556196Y-75310227D01*
X101559796Y-75334495D01*
X101561000Y-75358999D01*
X101561000Y-76009001D01*
X101559796Y-76033505D01*
X101556196Y-76057773D01*
X101550235Y-76081572D01*
X101541970Y-76104671D01*
X101531480Y-76126850D01*
X101518868Y-76147893D01*
X101504253Y-76167599D01*
X101487777Y-76185777D01*
X101469599Y-76202253D01*
X101449893Y-76216868D01*
X101428850Y-76229480D01*
X101406671Y-76239970D01*
X101383572Y-76248235D01*
X101359773Y-76254196D01*
X101335505Y-76257796D01*
X101311001Y-76259000D01*
X100410999Y-76259000D01*
X100386495Y-76257796D01*
X100362227Y-76254196D01*
X100338428Y-76248235D01*
X100315329Y-76239970D01*
X100293150Y-76229480D01*
X100272107Y-76216868D01*
X100252401Y-76202253D01*
X100234223Y-76185777D01*
X100217747Y-76167599D01*
X100203132Y-76147893D01*
X100190520Y-76126850D01*
X100180030Y-76104671D01*
X100171765Y-76081572D01*
X100165804Y-76057773D01*
X100162204Y-76033505D01*
X100161000Y-76009001D01*
X100161000Y-75358999D01*
X100162204Y-75334495D01*
X100165804Y-75310227D01*
X100171765Y-75286428D01*
X100180030Y-75263329D01*
X100190520Y-75241150D01*
X100203132Y-75220107D01*
X100217747Y-75200401D01*
X100234223Y-75182223D01*
X100252401Y-75165747D01*
X100272107Y-75151132D01*
X100293150Y-75138520D01*
X100315329Y-75128030D01*
X100338428Y-75119765D01*
X100362227Y-75113804D01*
X100386495Y-75110204D01*
X100410999Y-75109000D01*
X101311001Y-75109000D01*
X101335505Y-75110204D01*
X101335505Y-75110204D01*
G37*
D16*
X100861000Y-75684000D03*
D13*
G36*
X129898505Y-104139704D02*
G01*
X129922773Y-104143304D01*
X129946572Y-104149265D01*
X129969671Y-104157530D01*
X129991850Y-104168020D01*
X130012893Y-104180632D01*
X130032599Y-104195247D01*
X130050777Y-104211723D01*
X130067253Y-104229901D01*
X130081868Y-104249607D01*
X130094480Y-104270650D01*
X130104970Y-104292829D01*
X130113235Y-104315928D01*
X130119196Y-104339727D01*
X130122796Y-104363995D01*
X130124000Y-104388499D01*
X130124000Y-105288501D01*
X130122796Y-105313005D01*
X130119196Y-105337273D01*
X130113235Y-105361072D01*
X130104970Y-105384171D01*
X130094480Y-105406350D01*
X130081868Y-105427393D01*
X130067253Y-105447099D01*
X130050777Y-105465277D01*
X130032599Y-105481753D01*
X130012893Y-105496368D01*
X129991850Y-105508980D01*
X129969671Y-105519470D01*
X129946572Y-105527735D01*
X129922773Y-105533696D01*
X129898505Y-105537296D01*
X129874001Y-105538500D01*
X129223999Y-105538500D01*
X129199495Y-105537296D01*
X129175227Y-105533696D01*
X129151428Y-105527735D01*
X129128329Y-105519470D01*
X129106150Y-105508980D01*
X129085107Y-105496368D01*
X129065401Y-105481753D01*
X129047223Y-105465277D01*
X129030747Y-105447099D01*
X129016132Y-105427393D01*
X129003520Y-105406350D01*
X128993030Y-105384171D01*
X128984765Y-105361072D01*
X128978804Y-105337273D01*
X128975204Y-105313005D01*
X128974000Y-105288501D01*
X128974000Y-104388499D01*
X128975204Y-104363995D01*
X128978804Y-104339727D01*
X128984765Y-104315928D01*
X128993030Y-104292829D01*
X129003520Y-104270650D01*
X129016132Y-104249607D01*
X129030747Y-104229901D01*
X129047223Y-104211723D01*
X129065401Y-104195247D01*
X129085107Y-104180632D01*
X129106150Y-104168020D01*
X129128329Y-104157530D01*
X129151428Y-104149265D01*
X129175227Y-104143304D01*
X129199495Y-104139704D01*
X129223999Y-104138500D01*
X129874001Y-104138500D01*
X129898505Y-104139704D01*
X129898505Y-104139704D01*
G37*
D16*
X129549000Y-104838500D03*
D13*
G36*
X127848505Y-104139704D02*
G01*
X127872773Y-104143304D01*
X127896572Y-104149265D01*
X127919671Y-104157530D01*
X127941850Y-104168020D01*
X127962893Y-104180632D01*
X127982599Y-104195247D01*
X128000777Y-104211723D01*
X128017253Y-104229901D01*
X128031868Y-104249607D01*
X128044480Y-104270650D01*
X128054970Y-104292829D01*
X128063235Y-104315928D01*
X128069196Y-104339727D01*
X128072796Y-104363995D01*
X128074000Y-104388499D01*
X128074000Y-105288501D01*
X128072796Y-105313005D01*
X128069196Y-105337273D01*
X128063235Y-105361072D01*
X128054970Y-105384171D01*
X128044480Y-105406350D01*
X128031868Y-105427393D01*
X128017253Y-105447099D01*
X128000777Y-105465277D01*
X127982599Y-105481753D01*
X127962893Y-105496368D01*
X127941850Y-105508980D01*
X127919671Y-105519470D01*
X127896572Y-105527735D01*
X127872773Y-105533696D01*
X127848505Y-105537296D01*
X127824001Y-105538500D01*
X127173999Y-105538500D01*
X127149495Y-105537296D01*
X127125227Y-105533696D01*
X127101428Y-105527735D01*
X127078329Y-105519470D01*
X127056150Y-105508980D01*
X127035107Y-105496368D01*
X127015401Y-105481753D01*
X126997223Y-105465277D01*
X126980747Y-105447099D01*
X126966132Y-105427393D01*
X126953520Y-105406350D01*
X126943030Y-105384171D01*
X126934765Y-105361072D01*
X126928804Y-105337273D01*
X126925204Y-105313005D01*
X126924000Y-105288501D01*
X126924000Y-104388499D01*
X126925204Y-104363995D01*
X126928804Y-104339727D01*
X126934765Y-104315928D01*
X126943030Y-104292829D01*
X126953520Y-104270650D01*
X126966132Y-104249607D01*
X126980747Y-104229901D01*
X126997223Y-104211723D01*
X127015401Y-104195247D01*
X127035107Y-104180632D01*
X127056150Y-104168020D01*
X127078329Y-104157530D01*
X127101428Y-104149265D01*
X127125227Y-104143304D01*
X127149495Y-104139704D01*
X127173999Y-104138500D01*
X127824001Y-104138500D01*
X127848505Y-104139704D01*
X127848505Y-104139704D01*
G37*
D16*
X127499000Y-104838500D03*
D13*
G36*
X89114505Y-107801204D02*
G01*
X89138773Y-107804804D01*
X89162572Y-107810765D01*
X89185671Y-107819030D01*
X89207850Y-107829520D01*
X89228893Y-107842132D01*
X89248599Y-107856747D01*
X89266777Y-107873223D01*
X89283253Y-107891401D01*
X89297868Y-107911107D01*
X89310480Y-107932150D01*
X89320970Y-107954329D01*
X89329235Y-107977428D01*
X89335196Y-108001227D01*
X89338796Y-108025495D01*
X89340000Y-108049999D01*
X89340000Y-108950001D01*
X89338796Y-108974505D01*
X89335196Y-108998773D01*
X89329235Y-109022572D01*
X89320970Y-109045671D01*
X89310480Y-109067850D01*
X89297868Y-109088893D01*
X89283253Y-109108599D01*
X89266777Y-109126777D01*
X89248599Y-109143253D01*
X89228893Y-109157868D01*
X89207850Y-109170480D01*
X89185671Y-109180970D01*
X89162572Y-109189235D01*
X89138773Y-109195196D01*
X89114505Y-109198796D01*
X89090001Y-109200000D01*
X88439999Y-109200000D01*
X88415495Y-109198796D01*
X88391227Y-109195196D01*
X88367428Y-109189235D01*
X88344329Y-109180970D01*
X88322150Y-109170480D01*
X88301107Y-109157868D01*
X88281401Y-109143253D01*
X88263223Y-109126777D01*
X88246747Y-109108599D01*
X88232132Y-109088893D01*
X88219520Y-109067850D01*
X88209030Y-109045671D01*
X88200765Y-109022572D01*
X88194804Y-108998773D01*
X88191204Y-108974505D01*
X88190000Y-108950001D01*
X88190000Y-108049999D01*
X88191204Y-108025495D01*
X88194804Y-108001227D01*
X88200765Y-107977428D01*
X88209030Y-107954329D01*
X88219520Y-107932150D01*
X88232132Y-107911107D01*
X88246747Y-107891401D01*
X88263223Y-107873223D01*
X88281401Y-107856747D01*
X88301107Y-107842132D01*
X88322150Y-107829520D01*
X88344329Y-107819030D01*
X88367428Y-107810765D01*
X88391227Y-107804804D01*
X88415495Y-107801204D01*
X88439999Y-107800000D01*
X89090001Y-107800000D01*
X89114505Y-107801204D01*
X89114505Y-107801204D01*
G37*
D16*
X88765000Y-108500000D03*
D13*
G36*
X87064505Y-107801204D02*
G01*
X87088773Y-107804804D01*
X87112572Y-107810765D01*
X87135671Y-107819030D01*
X87157850Y-107829520D01*
X87178893Y-107842132D01*
X87198599Y-107856747D01*
X87216777Y-107873223D01*
X87233253Y-107891401D01*
X87247868Y-107911107D01*
X87260480Y-107932150D01*
X87270970Y-107954329D01*
X87279235Y-107977428D01*
X87285196Y-108001227D01*
X87288796Y-108025495D01*
X87290000Y-108049999D01*
X87290000Y-108950001D01*
X87288796Y-108974505D01*
X87285196Y-108998773D01*
X87279235Y-109022572D01*
X87270970Y-109045671D01*
X87260480Y-109067850D01*
X87247868Y-109088893D01*
X87233253Y-109108599D01*
X87216777Y-109126777D01*
X87198599Y-109143253D01*
X87178893Y-109157868D01*
X87157850Y-109170480D01*
X87135671Y-109180970D01*
X87112572Y-109189235D01*
X87088773Y-109195196D01*
X87064505Y-109198796D01*
X87040001Y-109200000D01*
X86389999Y-109200000D01*
X86365495Y-109198796D01*
X86341227Y-109195196D01*
X86317428Y-109189235D01*
X86294329Y-109180970D01*
X86272150Y-109170480D01*
X86251107Y-109157868D01*
X86231401Y-109143253D01*
X86213223Y-109126777D01*
X86196747Y-109108599D01*
X86182132Y-109088893D01*
X86169520Y-109067850D01*
X86159030Y-109045671D01*
X86150765Y-109022572D01*
X86144804Y-108998773D01*
X86141204Y-108974505D01*
X86140000Y-108950001D01*
X86140000Y-108049999D01*
X86141204Y-108025495D01*
X86144804Y-108001227D01*
X86150765Y-107977428D01*
X86159030Y-107954329D01*
X86169520Y-107932150D01*
X86182132Y-107911107D01*
X86196747Y-107891401D01*
X86213223Y-107873223D01*
X86231401Y-107856747D01*
X86251107Y-107842132D01*
X86272150Y-107829520D01*
X86294329Y-107819030D01*
X86317428Y-107810765D01*
X86341227Y-107804804D01*
X86365495Y-107801204D01*
X86389999Y-107800000D01*
X87040001Y-107800000D01*
X87064505Y-107801204D01*
X87064505Y-107801204D01*
G37*
D16*
X86715000Y-108500000D03*
M02*
