G04 #@! TF.GenerationSoftware,KiCad,Pcbnew,(5.1.4)-1*
G04 #@! TF.CreationDate,2019-09-24T11:14:09+05:30*
G04 #@! TF.ProjectId,RPi Hat RF Transmitter V1,52506920-4861-4742-9052-46205472616e,rev?*
G04 #@! TF.SameCoordinates,Original*
G04 #@! TF.FileFunction,Soldermask,Bot*
G04 #@! TF.FilePolarity,Negative*
%FSLAX46Y46*%
G04 Gerber Fmt 4.6, Leading zero omitted, Abs format (unit mm)*
G04 Created by KiCad (PCBNEW (5.1.4)-1) date 2019-09-24 11:14:09*
%MOMM*%
%LPD*%
G04 APERTURE LIST*
%ADD10C,0.150000*%
%ADD11C,2.450000*%
%ADD12C,2.250000*%
%ADD13C,0.100000*%
%ADD14C,1.350000*%
%ADD15O,1.900000X1.900000*%
%ADD16R,1.900000X1.900000*%
%ADD17C,0.800000*%
%ADD18O,1.400000X2.100000*%
%ADD19C,1.650000*%
%ADD20C,3.200000*%
G04 APERTURE END LIST*
D10*
X78546356Y-63817611D02*
X78546356Y-113817611D01*
X140546356Y-60817611D02*
X81546356Y-60817611D01*
X143546351Y-113822847D02*
X143546356Y-63817611D01*
X81546356Y-116817611D02*
X140546356Y-116817611D01*
X78546356Y-63817611D02*
G75*
G02X81546356Y-60817611I3000000J0D01*
G01*
X140546356Y-60817611D02*
G75*
G02X143546356Y-63817611I0J-3000000D01*
G01*
X81546356Y-116817611D02*
G75*
G02X78546356Y-113817611I0J3000000D01*
G01*
X143546351Y-113822847D02*
G75*
G02X140546356Y-116817611I-2999995J5236D01*
G01*
D11*
X120523000Y-114998500D03*
X115443000Y-114998500D03*
X115443000Y-109918500D03*
X120523000Y-109918500D03*
D12*
X117983000Y-112458500D03*
D11*
X80137000Y-79438500D03*
X80137000Y-74358500D03*
X85217000Y-74358500D03*
X85217000Y-79438500D03*
D12*
X82677000Y-76898500D03*
D13*
G36*
X80354789Y-101815413D02*
G01*
X80383278Y-101819639D01*
X80411215Y-101826637D01*
X80438332Y-101836340D01*
X80464367Y-101848653D01*
X80489070Y-101863460D01*
X80512203Y-101880616D01*
X80533543Y-101899957D01*
X80552884Y-101921297D01*
X80570040Y-101944430D01*
X80584847Y-101969133D01*
X80597160Y-101995168D01*
X80606863Y-102022285D01*
X80613861Y-102050222D01*
X80618087Y-102078711D01*
X80619500Y-102107477D01*
X80619500Y-102870523D01*
X80618087Y-102899289D01*
X80613861Y-102927778D01*
X80606863Y-102955715D01*
X80597160Y-102982832D01*
X80584847Y-103008867D01*
X80570040Y-103033570D01*
X80552884Y-103056703D01*
X80533543Y-103078043D01*
X80512203Y-103097384D01*
X80489070Y-103114540D01*
X80464367Y-103129347D01*
X80438332Y-103141660D01*
X80411215Y-103151363D01*
X80383278Y-103158361D01*
X80354789Y-103162587D01*
X80326023Y-103164000D01*
X79312977Y-103164000D01*
X79284211Y-103162587D01*
X79255722Y-103158361D01*
X79227785Y-103151363D01*
X79200668Y-103141660D01*
X79174633Y-103129347D01*
X79149930Y-103114540D01*
X79126797Y-103097384D01*
X79105457Y-103078043D01*
X79086116Y-103056703D01*
X79068960Y-103033570D01*
X79054153Y-103008867D01*
X79041840Y-102982832D01*
X79032137Y-102955715D01*
X79025139Y-102927778D01*
X79020913Y-102899289D01*
X79019500Y-102870523D01*
X79019500Y-102107477D01*
X79020913Y-102078711D01*
X79025139Y-102050222D01*
X79032137Y-102022285D01*
X79041840Y-101995168D01*
X79054153Y-101969133D01*
X79068960Y-101944430D01*
X79086116Y-101921297D01*
X79105457Y-101899957D01*
X79126797Y-101880616D01*
X79149930Y-101863460D01*
X79174633Y-101848653D01*
X79200668Y-101836340D01*
X79227785Y-101826637D01*
X79255722Y-101819639D01*
X79284211Y-101815413D01*
X79312977Y-101814000D01*
X80326023Y-101814000D01*
X80354789Y-101815413D01*
X80354789Y-101815413D01*
G37*
D14*
X79819500Y-102489000D03*
D13*
G36*
X80354789Y-99765413D02*
G01*
X80383278Y-99769639D01*
X80411215Y-99776637D01*
X80438332Y-99786340D01*
X80464367Y-99798653D01*
X80489070Y-99813460D01*
X80512203Y-99830616D01*
X80533543Y-99849957D01*
X80552884Y-99871297D01*
X80570040Y-99894430D01*
X80584847Y-99919133D01*
X80597160Y-99945168D01*
X80606863Y-99972285D01*
X80613861Y-100000222D01*
X80618087Y-100028711D01*
X80619500Y-100057477D01*
X80619500Y-100820523D01*
X80618087Y-100849289D01*
X80613861Y-100877778D01*
X80606863Y-100905715D01*
X80597160Y-100932832D01*
X80584847Y-100958867D01*
X80570040Y-100983570D01*
X80552884Y-101006703D01*
X80533543Y-101028043D01*
X80512203Y-101047384D01*
X80489070Y-101064540D01*
X80464367Y-101079347D01*
X80438332Y-101091660D01*
X80411215Y-101101363D01*
X80383278Y-101108361D01*
X80354789Y-101112587D01*
X80326023Y-101114000D01*
X79312977Y-101114000D01*
X79284211Y-101112587D01*
X79255722Y-101108361D01*
X79227785Y-101101363D01*
X79200668Y-101091660D01*
X79174633Y-101079347D01*
X79149930Y-101064540D01*
X79126797Y-101047384D01*
X79105457Y-101028043D01*
X79086116Y-101006703D01*
X79068960Y-100983570D01*
X79054153Y-100958867D01*
X79041840Y-100932832D01*
X79032137Y-100905715D01*
X79025139Y-100877778D01*
X79020913Y-100849289D01*
X79019500Y-100820523D01*
X79019500Y-100057477D01*
X79020913Y-100028711D01*
X79025139Y-100000222D01*
X79032137Y-99972285D01*
X79041840Y-99945168D01*
X79054153Y-99919133D01*
X79068960Y-99894430D01*
X79086116Y-99871297D01*
X79105457Y-99849957D01*
X79126797Y-99830616D01*
X79149930Y-99813460D01*
X79174633Y-99798653D01*
X79200668Y-99786340D01*
X79227785Y-99776637D01*
X79255722Y-99769639D01*
X79284211Y-99765413D01*
X79312977Y-99764000D01*
X80326023Y-99764000D01*
X80354789Y-99765413D01*
X80354789Y-99765413D01*
G37*
D14*
X79819500Y-100439000D03*
D11*
X136271000Y-87693500D03*
X141351000Y-87693500D03*
X141351000Y-92773500D03*
X136271000Y-92773500D03*
D12*
X138811000Y-90233500D03*
D11*
X118491000Y-97282000D03*
X118491000Y-102362000D03*
X113411000Y-102362000D03*
X113411000Y-97282000D03*
D12*
X115951000Y-99822000D03*
D11*
X102679500Y-97282000D03*
X102679500Y-102362000D03*
X97599500Y-102362000D03*
X97599500Y-97282000D03*
D12*
X100139500Y-99822000D03*
D15*
X140779500Y-70612000D03*
D16*
X138239500Y-70612000D03*
D13*
G36*
X83763603Y-99613463D02*
G01*
X83783018Y-99616343D01*
X83802057Y-99621112D01*
X83820537Y-99627724D01*
X83838279Y-99636116D01*
X83855114Y-99646206D01*
X83870879Y-99657898D01*
X83885421Y-99671079D01*
X83898602Y-99685621D01*
X83910294Y-99701386D01*
X83920384Y-99718221D01*
X83928776Y-99735963D01*
X83935388Y-99754443D01*
X83940157Y-99773482D01*
X83943037Y-99792897D01*
X83944000Y-99812500D01*
X83944000Y-100212500D01*
X83943037Y-100232103D01*
X83940157Y-100251518D01*
X83935388Y-100270557D01*
X83928776Y-100289037D01*
X83920384Y-100306779D01*
X83910294Y-100323614D01*
X83898602Y-100339379D01*
X83885421Y-100353921D01*
X83870879Y-100367102D01*
X83855114Y-100378794D01*
X83838279Y-100388884D01*
X83820537Y-100397276D01*
X83802057Y-100403888D01*
X83783018Y-100408657D01*
X83763603Y-100411537D01*
X83744000Y-100412500D01*
X81994000Y-100412500D01*
X81974397Y-100411537D01*
X81954982Y-100408657D01*
X81935943Y-100403888D01*
X81917463Y-100397276D01*
X81899721Y-100388884D01*
X81882886Y-100378794D01*
X81867121Y-100367102D01*
X81852579Y-100353921D01*
X81839398Y-100339379D01*
X81827706Y-100323614D01*
X81817616Y-100306779D01*
X81809224Y-100289037D01*
X81802612Y-100270557D01*
X81797843Y-100251518D01*
X81794963Y-100232103D01*
X81794000Y-100212500D01*
X81794000Y-99812500D01*
X81794963Y-99792897D01*
X81797843Y-99773482D01*
X81802612Y-99754443D01*
X81809224Y-99735963D01*
X81817616Y-99718221D01*
X81827706Y-99701386D01*
X81839398Y-99685621D01*
X81852579Y-99671079D01*
X81867121Y-99657898D01*
X81882886Y-99646206D01*
X81899721Y-99636116D01*
X81917463Y-99627724D01*
X81935943Y-99621112D01*
X81954982Y-99616343D01*
X81974397Y-99613463D01*
X81994000Y-99612500D01*
X83744000Y-99612500D01*
X83763603Y-99613463D01*
X83763603Y-99613463D01*
G37*
D17*
X82869000Y-100012500D03*
D13*
G36*
X83763603Y-100883463D02*
G01*
X83783018Y-100886343D01*
X83802057Y-100891112D01*
X83820537Y-100897724D01*
X83838279Y-100906116D01*
X83855114Y-100916206D01*
X83870879Y-100927898D01*
X83885421Y-100941079D01*
X83898602Y-100955621D01*
X83910294Y-100971386D01*
X83920384Y-100988221D01*
X83928776Y-101005963D01*
X83935388Y-101024443D01*
X83940157Y-101043482D01*
X83943037Y-101062897D01*
X83944000Y-101082500D01*
X83944000Y-101482500D01*
X83943037Y-101502103D01*
X83940157Y-101521518D01*
X83935388Y-101540557D01*
X83928776Y-101559037D01*
X83920384Y-101576779D01*
X83910294Y-101593614D01*
X83898602Y-101609379D01*
X83885421Y-101623921D01*
X83870879Y-101637102D01*
X83855114Y-101648794D01*
X83838279Y-101658884D01*
X83820537Y-101667276D01*
X83802057Y-101673888D01*
X83783018Y-101678657D01*
X83763603Y-101681537D01*
X83744000Y-101682500D01*
X81994000Y-101682500D01*
X81974397Y-101681537D01*
X81954982Y-101678657D01*
X81935943Y-101673888D01*
X81917463Y-101667276D01*
X81899721Y-101658884D01*
X81882886Y-101648794D01*
X81867121Y-101637102D01*
X81852579Y-101623921D01*
X81839398Y-101609379D01*
X81827706Y-101593614D01*
X81817616Y-101576779D01*
X81809224Y-101559037D01*
X81802612Y-101540557D01*
X81797843Y-101521518D01*
X81794963Y-101502103D01*
X81794000Y-101482500D01*
X81794000Y-101082500D01*
X81794963Y-101062897D01*
X81797843Y-101043482D01*
X81802612Y-101024443D01*
X81809224Y-101005963D01*
X81817616Y-100988221D01*
X81827706Y-100971386D01*
X81839398Y-100955621D01*
X81852579Y-100941079D01*
X81867121Y-100927898D01*
X81882886Y-100916206D01*
X81899721Y-100906116D01*
X81917463Y-100897724D01*
X81935943Y-100891112D01*
X81954982Y-100886343D01*
X81974397Y-100883463D01*
X81994000Y-100882500D01*
X83744000Y-100882500D01*
X83763603Y-100883463D01*
X83763603Y-100883463D01*
G37*
D17*
X82869000Y-101282500D03*
D13*
G36*
X83763603Y-102153463D02*
G01*
X83783018Y-102156343D01*
X83802057Y-102161112D01*
X83820537Y-102167724D01*
X83838279Y-102176116D01*
X83855114Y-102186206D01*
X83870879Y-102197898D01*
X83885421Y-102211079D01*
X83898602Y-102225621D01*
X83910294Y-102241386D01*
X83920384Y-102258221D01*
X83928776Y-102275963D01*
X83935388Y-102294443D01*
X83940157Y-102313482D01*
X83943037Y-102332897D01*
X83944000Y-102352500D01*
X83944000Y-102752500D01*
X83943037Y-102772103D01*
X83940157Y-102791518D01*
X83935388Y-102810557D01*
X83928776Y-102829037D01*
X83920384Y-102846779D01*
X83910294Y-102863614D01*
X83898602Y-102879379D01*
X83885421Y-102893921D01*
X83870879Y-102907102D01*
X83855114Y-102918794D01*
X83838279Y-102928884D01*
X83820537Y-102937276D01*
X83802057Y-102943888D01*
X83783018Y-102948657D01*
X83763603Y-102951537D01*
X83744000Y-102952500D01*
X81994000Y-102952500D01*
X81974397Y-102951537D01*
X81954982Y-102948657D01*
X81935943Y-102943888D01*
X81917463Y-102937276D01*
X81899721Y-102928884D01*
X81882886Y-102918794D01*
X81867121Y-102907102D01*
X81852579Y-102893921D01*
X81839398Y-102879379D01*
X81827706Y-102863614D01*
X81817616Y-102846779D01*
X81809224Y-102829037D01*
X81802612Y-102810557D01*
X81797843Y-102791518D01*
X81794963Y-102772103D01*
X81794000Y-102752500D01*
X81794000Y-102352500D01*
X81794963Y-102332897D01*
X81797843Y-102313482D01*
X81802612Y-102294443D01*
X81809224Y-102275963D01*
X81817616Y-102258221D01*
X81827706Y-102241386D01*
X81839398Y-102225621D01*
X81852579Y-102211079D01*
X81867121Y-102197898D01*
X81882886Y-102186206D01*
X81899721Y-102176116D01*
X81917463Y-102167724D01*
X81935943Y-102161112D01*
X81954982Y-102156343D01*
X81974397Y-102153463D01*
X81994000Y-102152500D01*
X83744000Y-102152500D01*
X83763603Y-102153463D01*
X83763603Y-102153463D01*
G37*
D17*
X82869000Y-102552500D03*
D13*
G36*
X83763603Y-103423463D02*
G01*
X83783018Y-103426343D01*
X83802057Y-103431112D01*
X83820537Y-103437724D01*
X83838279Y-103446116D01*
X83855114Y-103456206D01*
X83870879Y-103467898D01*
X83885421Y-103481079D01*
X83898602Y-103495621D01*
X83910294Y-103511386D01*
X83920384Y-103528221D01*
X83928776Y-103545963D01*
X83935388Y-103564443D01*
X83940157Y-103583482D01*
X83943037Y-103602897D01*
X83944000Y-103622500D01*
X83944000Y-104022500D01*
X83943037Y-104042103D01*
X83940157Y-104061518D01*
X83935388Y-104080557D01*
X83928776Y-104099037D01*
X83920384Y-104116779D01*
X83910294Y-104133614D01*
X83898602Y-104149379D01*
X83885421Y-104163921D01*
X83870879Y-104177102D01*
X83855114Y-104188794D01*
X83838279Y-104198884D01*
X83820537Y-104207276D01*
X83802057Y-104213888D01*
X83783018Y-104218657D01*
X83763603Y-104221537D01*
X83744000Y-104222500D01*
X81994000Y-104222500D01*
X81974397Y-104221537D01*
X81954982Y-104218657D01*
X81935943Y-104213888D01*
X81917463Y-104207276D01*
X81899721Y-104198884D01*
X81882886Y-104188794D01*
X81867121Y-104177102D01*
X81852579Y-104163921D01*
X81839398Y-104149379D01*
X81827706Y-104133614D01*
X81817616Y-104116779D01*
X81809224Y-104099037D01*
X81802612Y-104080557D01*
X81797843Y-104061518D01*
X81794963Y-104042103D01*
X81794000Y-104022500D01*
X81794000Y-103622500D01*
X81794963Y-103602897D01*
X81797843Y-103583482D01*
X81802612Y-103564443D01*
X81809224Y-103545963D01*
X81817616Y-103528221D01*
X81827706Y-103511386D01*
X81839398Y-103495621D01*
X81852579Y-103481079D01*
X81867121Y-103467898D01*
X81882886Y-103456206D01*
X81899721Y-103446116D01*
X81917463Y-103437724D01*
X81935943Y-103431112D01*
X81954982Y-103426343D01*
X81974397Y-103423463D01*
X81994000Y-103422500D01*
X83744000Y-103422500D01*
X83763603Y-103423463D01*
X83763603Y-103423463D01*
G37*
D17*
X82869000Y-103822500D03*
D13*
G36*
X83763603Y-104693463D02*
G01*
X83783018Y-104696343D01*
X83802057Y-104701112D01*
X83820537Y-104707724D01*
X83838279Y-104716116D01*
X83855114Y-104726206D01*
X83870879Y-104737898D01*
X83885421Y-104751079D01*
X83898602Y-104765621D01*
X83910294Y-104781386D01*
X83920384Y-104798221D01*
X83928776Y-104815963D01*
X83935388Y-104834443D01*
X83940157Y-104853482D01*
X83943037Y-104872897D01*
X83944000Y-104892500D01*
X83944000Y-105292500D01*
X83943037Y-105312103D01*
X83940157Y-105331518D01*
X83935388Y-105350557D01*
X83928776Y-105369037D01*
X83920384Y-105386779D01*
X83910294Y-105403614D01*
X83898602Y-105419379D01*
X83885421Y-105433921D01*
X83870879Y-105447102D01*
X83855114Y-105458794D01*
X83838279Y-105468884D01*
X83820537Y-105477276D01*
X83802057Y-105483888D01*
X83783018Y-105488657D01*
X83763603Y-105491537D01*
X83744000Y-105492500D01*
X81994000Y-105492500D01*
X81974397Y-105491537D01*
X81954982Y-105488657D01*
X81935943Y-105483888D01*
X81917463Y-105477276D01*
X81899721Y-105468884D01*
X81882886Y-105458794D01*
X81867121Y-105447102D01*
X81852579Y-105433921D01*
X81839398Y-105419379D01*
X81827706Y-105403614D01*
X81817616Y-105386779D01*
X81809224Y-105369037D01*
X81802612Y-105350557D01*
X81797843Y-105331518D01*
X81794963Y-105312103D01*
X81794000Y-105292500D01*
X81794000Y-104892500D01*
X81794963Y-104872897D01*
X81797843Y-104853482D01*
X81802612Y-104834443D01*
X81809224Y-104815963D01*
X81817616Y-104798221D01*
X81827706Y-104781386D01*
X81839398Y-104765621D01*
X81852579Y-104751079D01*
X81867121Y-104737898D01*
X81882886Y-104726206D01*
X81899721Y-104716116D01*
X81917463Y-104707724D01*
X81935943Y-104701112D01*
X81954982Y-104696343D01*
X81974397Y-104693463D01*
X81994000Y-104692500D01*
X83744000Y-104692500D01*
X83763603Y-104693463D01*
X83763603Y-104693463D01*
G37*
D17*
X82869000Y-105092500D03*
D13*
G36*
X83763603Y-105963463D02*
G01*
X83783018Y-105966343D01*
X83802057Y-105971112D01*
X83820537Y-105977724D01*
X83838279Y-105986116D01*
X83855114Y-105996206D01*
X83870879Y-106007898D01*
X83885421Y-106021079D01*
X83898602Y-106035621D01*
X83910294Y-106051386D01*
X83920384Y-106068221D01*
X83928776Y-106085963D01*
X83935388Y-106104443D01*
X83940157Y-106123482D01*
X83943037Y-106142897D01*
X83944000Y-106162500D01*
X83944000Y-106562500D01*
X83943037Y-106582103D01*
X83940157Y-106601518D01*
X83935388Y-106620557D01*
X83928776Y-106639037D01*
X83920384Y-106656779D01*
X83910294Y-106673614D01*
X83898602Y-106689379D01*
X83885421Y-106703921D01*
X83870879Y-106717102D01*
X83855114Y-106728794D01*
X83838279Y-106738884D01*
X83820537Y-106747276D01*
X83802057Y-106753888D01*
X83783018Y-106758657D01*
X83763603Y-106761537D01*
X83744000Y-106762500D01*
X81994000Y-106762500D01*
X81974397Y-106761537D01*
X81954982Y-106758657D01*
X81935943Y-106753888D01*
X81917463Y-106747276D01*
X81899721Y-106738884D01*
X81882886Y-106728794D01*
X81867121Y-106717102D01*
X81852579Y-106703921D01*
X81839398Y-106689379D01*
X81827706Y-106673614D01*
X81817616Y-106656779D01*
X81809224Y-106639037D01*
X81802612Y-106620557D01*
X81797843Y-106601518D01*
X81794963Y-106582103D01*
X81794000Y-106562500D01*
X81794000Y-106162500D01*
X81794963Y-106142897D01*
X81797843Y-106123482D01*
X81802612Y-106104443D01*
X81809224Y-106085963D01*
X81817616Y-106068221D01*
X81827706Y-106051386D01*
X81839398Y-106035621D01*
X81852579Y-106021079D01*
X81867121Y-106007898D01*
X81882886Y-105996206D01*
X81899721Y-105986116D01*
X81917463Y-105977724D01*
X81935943Y-105971112D01*
X81954982Y-105966343D01*
X81974397Y-105963463D01*
X81994000Y-105962500D01*
X83744000Y-105962500D01*
X83763603Y-105963463D01*
X83763603Y-105963463D01*
G37*
D17*
X82869000Y-106362500D03*
D13*
G36*
X83763603Y-107233463D02*
G01*
X83783018Y-107236343D01*
X83802057Y-107241112D01*
X83820537Y-107247724D01*
X83838279Y-107256116D01*
X83855114Y-107266206D01*
X83870879Y-107277898D01*
X83885421Y-107291079D01*
X83898602Y-107305621D01*
X83910294Y-107321386D01*
X83920384Y-107338221D01*
X83928776Y-107355963D01*
X83935388Y-107374443D01*
X83940157Y-107393482D01*
X83943037Y-107412897D01*
X83944000Y-107432500D01*
X83944000Y-107832500D01*
X83943037Y-107852103D01*
X83940157Y-107871518D01*
X83935388Y-107890557D01*
X83928776Y-107909037D01*
X83920384Y-107926779D01*
X83910294Y-107943614D01*
X83898602Y-107959379D01*
X83885421Y-107973921D01*
X83870879Y-107987102D01*
X83855114Y-107998794D01*
X83838279Y-108008884D01*
X83820537Y-108017276D01*
X83802057Y-108023888D01*
X83783018Y-108028657D01*
X83763603Y-108031537D01*
X83744000Y-108032500D01*
X81994000Y-108032500D01*
X81974397Y-108031537D01*
X81954982Y-108028657D01*
X81935943Y-108023888D01*
X81917463Y-108017276D01*
X81899721Y-108008884D01*
X81882886Y-107998794D01*
X81867121Y-107987102D01*
X81852579Y-107973921D01*
X81839398Y-107959379D01*
X81827706Y-107943614D01*
X81817616Y-107926779D01*
X81809224Y-107909037D01*
X81802612Y-107890557D01*
X81797843Y-107871518D01*
X81794963Y-107852103D01*
X81794000Y-107832500D01*
X81794000Y-107432500D01*
X81794963Y-107412897D01*
X81797843Y-107393482D01*
X81802612Y-107374443D01*
X81809224Y-107355963D01*
X81817616Y-107338221D01*
X81827706Y-107321386D01*
X81839398Y-107305621D01*
X81852579Y-107291079D01*
X81867121Y-107277898D01*
X81882886Y-107266206D01*
X81899721Y-107256116D01*
X81917463Y-107247724D01*
X81935943Y-107241112D01*
X81954982Y-107236343D01*
X81974397Y-107233463D01*
X81994000Y-107232500D01*
X83744000Y-107232500D01*
X83763603Y-107233463D01*
X83763603Y-107233463D01*
G37*
D17*
X82869000Y-107632500D03*
D13*
G36*
X83763603Y-108503463D02*
G01*
X83783018Y-108506343D01*
X83802057Y-108511112D01*
X83820537Y-108517724D01*
X83838279Y-108526116D01*
X83855114Y-108536206D01*
X83870879Y-108547898D01*
X83885421Y-108561079D01*
X83898602Y-108575621D01*
X83910294Y-108591386D01*
X83920384Y-108608221D01*
X83928776Y-108625963D01*
X83935388Y-108644443D01*
X83940157Y-108663482D01*
X83943037Y-108682897D01*
X83944000Y-108702500D01*
X83944000Y-109102500D01*
X83943037Y-109122103D01*
X83940157Y-109141518D01*
X83935388Y-109160557D01*
X83928776Y-109179037D01*
X83920384Y-109196779D01*
X83910294Y-109213614D01*
X83898602Y-109229379D01*
X83885421Y-109243921D01*
X83870879Y-109257102D01*
X83855114Y-109268794D01*
X83838279Y-109278884D01*
X83820537Y-109287276D01*
X83802057Y-109293888D01*
X83783018Y-109298657D01*
X83763603Y-109301537D01*
X83744000Y-109302500D01*
X81994000Y-109302500D01*
X81974397Y-109301537D01*
X81954982Y-109298657D01*
X81935943Y-109293888D01*
X81917463Y-109287276D01*
X81899721Y-109278884D01*
X81882886Y-109268794D01*
X81867121Y-109257102D01*
X81852579Y-109243921D01*
X81839398Y-109229379D01*
X81827706Y-109213614D01*
X81817616Y-109196779D01*
X81809224Y-109179037D01*
X81802612Y-109160557D01*
X81797843Y-109141518D01*
X81794963Y-109122103D01*
X81794000Y-109102500D01*
X81794000Y-108702500D01*
X81794963Y-108682897D01*
X81797843Y-108663482D01*
X81802612Y-108644443D01*
X81809224Y-108625963D01*
X81817616Y-108608221D01*
X81827706Y-108591386D01*
X81839398Y-108575621D01*
X81852579Y-108561079D01*
X81867121Y-108547898D01*
X81882886Y-108536206D01*
X81899721Y-108526116D01*
X81917463Y-108517724D01*
X81935943Y-108511112D01*
X81954982Y-108506343D01*
X81974397Y-108503463D01*
X81994000Y-108502500D01*
X83744000Y-108502500D01*
X83763603Y-108503463D01*
X83763603Y-108503463D01*
G37*
D17*
X82869000Y-108902500D03*
D13*
G36*
X88713603Y-108503463D02*
G01*
X88733018Y-108506343D01*
X88752057Y-108511112D01*
X88770537Y-108517724D01*
X88788279Y-108526116D01*
X88805114Y-108536206D01*
X88820879Y-108547898D01*
X88835421Y-108561079D01*
X88848602Y-108575621D01*
X88860294Y-108591386D01*
X88870384Y-108608221D01*
X88878776Y-108625963D01*
X88885388Y-108644443D01*
X88890157Y-108663482D01*
X88893037Y-108682897D01*
X88894000Y-108702500D01*
X88894000Y-109102500D01*
X88893037Y-109122103D01*
X88890157Y-109141518D01*
X88885388Y-109160557D01*
X88878776Y-109179037D01*
X88870384Y-109196779D01*
X88860294Y-109213614D01*
X88848602Y-109229379D01*
X88835421Y-109243921D01*
X88820879Y-109257102D01*
X88805114Y-109268794D01*
X88788279Y-109278884D01*
X88770537Y-109287276D01*
X88752057Y-109293888D01*
X88733018Y-109298657D01*
X88713603Y-109301537D01*
X88694000Y-109302500D01*
X86944000Y-109302500D01*
X86924397Y-109301537D01*
X86904982Y-109298657D01*
X86885943Y-109293888D01*
X86867463Y-109287276D01*
X86849721Y-109278884D01*
X86832886Y-109268794D01*
X86817121Y-109257102D01*
X86802579Y-109243921D01*
X86789398Y-109229379D01*
X86777706Y-109213614D01*
X86767616Y-109196779D01*
X86759224Y-109179037D01*
X86752612Y-109160557D01*
X86747843Y-109141518D01*
X86744963Y-109122103D01*
X86744000Y-109102500D01*
X86744000Y-108702500D01*
X86744963Y-108682897D01*
X86747843Y-108663482D01*
X86752612Y-108644443D01*
X86759224Y-108625963D01*
X86767616Y-108608221D01*
X86777706Y-108591386D01*
X86789398Y-108575621D01*
X86802579Y-108561079D01*
X86817121Y-108547898D01*
X86832886Y-108536206D01*
X86849721Y-108526116D01*
X86867463Y-108517724D01*
X86885943Y-108511112D01*
X86904982Y-108506343D01*
X86924397Y-108503463D01*
X86944000Y-108502500D01*
X88694000Y-108502500D01*
X88713603Y-108503463D01*
X88713603Y-108503463D01*
G37*
D17*
X87819000Y-108902500D03*
D13*
G36*
X88713603Y-107233463D02*
G01*
X88733018Y-107236343D01*
X88752057Y-107241112D01*
X88770537Y-107247724D01*
X88788279Y-107256116D01*
X88805114Y-107266206D01*
X88820879Y-107277898D01*
X88835421Y-107291079D01*
X88848602Y-107305621D01*
X88860294Y-107321386D01*
X88870384Y-107338221D01*
X88878776Y-107355963D01*
X88885388Y-107374443D01*
X88890157Y-107393482D01*
X88893037Y-107412897D01*
X88894000Y-107432500D01*
X88894000Y-107832500D01*
X88893037Y-107852103D01*
X88890157Y-107871518D01*
X88885388Y-107890557D01*
X88878776Y-107909037D01*
X88870384Y-107926779D01*
X88860294Y-107943614D01*
X88848602Y-107959379D01*
X88835421Y-107973921D01*
X88820879Y-107987102D01*
X88805114Y-107998794D01*
X88788279Y-108008884D01*
X88770537Y-108017276D01*
X88752057Y-108023888D01*
X88733018Y-108028657D01*
X88713603Y-108031537D01*
X88694000Y-108032500D01*
X86944000Y-108032500D01*
X86924397Y-108031537D01*
X86904982Y-108028657D01*
X86885943Y-108023888D01*
X86867463Y-108017276D01*
X86849721Y-108008884D01*
X86832886Y-107998794D01*
X86817121Y-107987102D01*
X86802579Y-107973921D01*
X86789398Y-107959379D01*
X86777706Y-107943614D01*
X86767616Y-107926779D01*
X86759224Y-107909037D01*
X86752612Y-107890557D01*
X86747843Y-107871518D01*
X86744963Y-107852103D01*
X86744000Y-107832500D01*
X86744000Y-107432500D01*
X86744963Y-107412897D01*
X86747843Y-107393482D01*
X86752612Y-107374443D01*
X86759224Y-107355963D01*
X86767616Y-107338221D01*
X86777706Y-107321386D01*
X86789398Y-107305621D01*
X86802579Y-107291079D01*
X86817121Y-107277898D01*
X86832886Y-107266206D01*
X86849721Y-107256116D01*
X86867463Y-107247724D01*
X86885943Y-107241112D01*
X86904982Y-107236343D01*
X86924397Y-107233463D01*
X86944000Y-107232500D01*
X88694000Y-107232500D01*
X88713603Y-107233463D01*
X88713603Y-107233463D01*
G37*
D17*
X87819000Y-107632500D03*
D13*
G36*
X88713603Y-105963463D02*
G01*
X88733018Y-105966343D01*
X88752057Y-105971112D01*
X88770537Y-105977724D01*
X88788279Y-105986116D01*
X88805114Y-105996206D01*
X88820879Y-106007898D01*
X88835421Y-106021079D01*
X88848602Y-106035621D01*
X88860294Y-106051386D01*
X88870384Y-106068221D01*
X88878776Y-106085963D01*
X88885388Y-106104443D01*
X88890157Y-106123482D01*
X88893037Y-106142897D01*
X88894000Y-106162500D01*
X88894000Y-106562500D01*
X88893037Y-106582103D01*
X88890157Y-106601518D01*
X88885388Y-106620557D01*
X88878776Y-106639037D01*
X88870384Y-106656779D01*
X88860294Y-106673614D01*
X88848602Y-106689379D01*
X88835421Y-106703921D01*
X88820879Y-106717102D01*
X88805114Y-106728794D01*
X88788279Y-106738884D01*
X88770537Y-106747276D01*
X88752057Y-106753888D01*
X88733018Y-106758657D01*
X88713603Y-106761537D01*
X88694000Y-106762500D01*
X86944000Y-106762500D01*
X86924397Y-106761537D01*
X86904982Y-106758657D01*
X86885943Y-106753888D01*
X86867463Y-106747276D01*
X86849721Y-106738884D01*
X86832886Y-106728794D01*
X86817121Y-106717102D01*
X86802579Y-106703921D01*
X86789398Y-106689379D01*
X86777706Y-106673614D01*
X86767616Y-106656779D01*
X86759224Y-106639037D01*
X86752612Y-106620557D01*
X86747843Y-106601518D01*
X86744963Y-106582103D01*
X86744000Y-106562500D01*
X86744000Y-106162500D01*
X86744963Y-106142897D01*
X86747843Y-106123482D01*
X86752612Y-106104443D01*
X86759224Y-106085963D01*
X86767616Y-106068221D01*
X86777706Y-106051386D01*
X86789398Y-106035621D01*
X86802579Y-106021079D01*
X86817121Y-106007898D01*
X86832886Y-105996206D01*
X86849721Y-105986116D01*
X86867463Y-105977724D01*
X86885943Y-105971112D01*
X86904982Y-105966343D01*
X86924397Y-105963463D01*
X86944000Y-105962500D01*
X88694000Y-105962500D01*
X88713603Y-105963463D01*
X88713603Y-105963463D01*
G37*
D17*
X87819000Y-106362500D03*
D13*
G36*
X88713603Y-104693463D02*
G01*
X88733018Y-104696343D01*
X88752057Y-104701112D01*
X88770537Y-104707724D01*
X88788279Y-104716116D01*
X88805114Y-104726206D01*
X88820879Y-104737898D01*
X88835421Y-104751079D01*
X88848602Y-104765621D01*
X88860294Y-104781386D01*
X88870384Y-104798221D01*
X88878776Y-104815963D01*
X88885388Y-104834443D01*
X88890157Y-104853482D01*
X88893037Y-104872897D01*
X88894000Y-104892500D01*
X88894000Y-105292500D01*
X88893037Y-105312103D01*
X88890157Y-105331518D01*
X88885388Y-105350557D01*
X88878776Y-105369037D01*
X88870384Y-105386779D01*
X88860294Y-105403614D01*
X88848602Y-105419379D01*
X88835421Y-105433921D01*
X88820879Y-105447102D01*
X88805114Y-105458794D01*
X88788279Y-105468884D01*
X88770537Y-105477276D01*
X88752057Y-105483888D01*
X88733018Y-105488657D01*
X88713603Y-105491537D01*
X88694000Y-105492500D01*
X86944000Y-105492500D01*
X86924397Y-105491537D01*
X86904982Y-105488657D01*
X86885943Y-105483888D01*
X86867463Y-105477276D01*
X86849721Y-105468884D01*
X86832886Y-105458794D01*
X86817121Y-105447102D01*
X86802579Y-105433921D01*
X86789398Y-105419379D01*
X86777706Y-105403614D01*
X86767616Y-105386779D01*
X86759224Y-105369037D01*
X86752612Y-105350557D01*
X86747843Y-105331518D01*
X86744963Y-105312103D01*
X86744000Y-105292500D01*
X86744000Y-104892500D01*
X86744963Y-104872897D01*
X86747843Y-104853482D01*
X86752612Y-104834443D01*
X86759224Y-104815963D01*
X86767616Y-104798221D01*
X86777706Y-104781386D01*
X86789398Y-104765621D01*
X86802579Y-104751079D01*
X86817121Y-104737898D01*
X86832886Y-104726206D01*
X86849721Y-104716116D01*
X86867463Y-104707724D01*
X86885943Y-104701112D01*
X86904982Y-104696343D01*
X86924397Y-104693463D01*
X86944000Y-104692500D01*
X88694000Y-104692500D01*
X88713603Y-104693463D01*
X88713603Y-104693463D01*
G37*
D17*
X87819000Y-105092500D03*
D13*
G36*
X88713603Y-103423463D02*
G01*
X88733018Y-103426343D01*
X88752057Y-103431112D01*
X88770537Y-103437724D01*
X88788279Y-103446116D01*
X88805114Y-103456206D01*
X88820879Y-103467898D01*
X88835421Y-103481079D01*
X88848602Y-103495621D01*
X88860294Y-103511386D01*
X88870384Y-103528221D01*
X88878776Y-103545963D01*
X88885388Y-103564443D01*
X88890157Y-103583482D01*
X88893037Y-103602897D01*
X88894000Y-103622500D01*
X88894000Y-104022500D01*
X88893037Y-104042103D01*
X88890157Y-104061518D01*
X88885388Y-104080557D01*
X88878776Y-104099037D01*
X88870384Y-104116779D01*
X88860294Y-104133614D01*
X88848602Y-104149379D01*
X88835421Y-104163921D01*
X88820879Y-104177102D01*
X88805114Y-104188794D01*
X88788279Y-104198884D01*
X88770537Y-104207276D01*
X88752057Y-104213888D01*
X88733018Y-104218657D01*
X88713603Y-104221537D01*
X88694000Y-104222500D01*
X86944000Y-104222500D01*
X86924397Y-104221537D01*
X86904982Y-104218657D01*
X86885943Y-104213888D01*
X86867463Y-104207276D01*
X86849721Y-104198884D01*
X86832886Y-104188794D01*
X86817121Y-104177102D01*
X86802579Y-104163921D01*
X86789398Y-104149379D01*
X86777706Y-104133614D01*
X86767616Y-104116779D01*
X86759224Y-104099037D01*
X86752612Y-104080557D01*
X86747843Y-104061518D01*
X86744963Y-104042103D01*
X86744000Y-104022500D01*
X86744000Y-103622500D01*
X86744963Y-103602897D01*
X86747843Y-103583482D01*
X86752612Y-103564443D01*
X86759224Y-103545963D01*
X86767616Y-103528221D01*
X86777706Y-103511386D01*
X86789398Y-103495621D01*
X86802579Y-103481079D01*
X86817121Y-103467898D01*
X86832886Y-103456206D01*
X86849721Y-103446116D01*
X86867463Y-103437724D01*
X86885943Y-103431112D01*
X86904982Y-103426343D01*
X86924397Y-103423463D01*
X86944000Y-103422500D01*
X88694000Y-103422500D01*
X88713603Y-103423463D01*
X88713603Y-103423463D01*
G37*
D17*
X87819000Y-103822500D03*
D13*
G36*
X88713603Y-102153463D02*
G01*
X88733018Y-102156343D01*
X88752057Y-102161112D01*
X88770537Y-102167724D01*
X88788279Y-102176116D01*
X88805114Y-102186206D01*
X88820879Y-102197898D01*
X88835421Y-102211079D01*
X88848602Y-102225621D01*
X88860294Y-102241386D01*
X88870384Y-102258221D01*
X88878776Y-102275963D01*
X88885388Y-102294443D01*
X88890157Y-102313482D01*
X88893037Y-102332897D01*
X88894000Y-102352500D01*
X88894000Y-102752500D01*
X88893037Y-102772103D01*
X88890157Y-102791518D01*
X88885388Y-102810557D01*
X88878776Y-102829037D01*
X88870384Y-102846779D01*
X88860294Y-102863614D01*
X88848602Y-102879379D01*
X88835421Y-102893921D01*
X88820879Y-102907102D01*
X88805114Y-102918794D01*
X88788279Y-102928884D01*
X88770537Y-102937276D01*
X88752057Y-102943888D01*
X88733018Y-102948657D01*
X88713603Y-102951537D01*
X88694000Y-102952500D01*
X86944000Y-102952500D01*
X86924397Y-102951537D01*
X86904982Y-102948657D01*
X86885943Y-102943888D01*
X86867463Y-102937276D01*
X86849721Y-102928884D01*
X86832886Y-102918794D01*
X86817121Y-102907102D01*
X86802579Y-102893921D01*
X86789398Y-102879379D01*
X86777706Y-102863614D01*
X86767616Y-102846779D01*
X86759224Y-102829037D01*
X86752612Y-102810557D01*
X86747843Y-102791518D01*
X86744963Y-102772103D01*
X86744000Y-102752500D01*
X86744000Y-102352500D01*
X86744963Y-102332897D01*
X86747843Y-102313482D01*
X86752612Y-102294443D01*
X86759224Y-102275963D01*
X86767616Y-102258221D01*
X86777706Y-102241386D01*
X86789398Y-102225621D01*
X86802579Y-102211079D01*
X86817121Y-102197898D01*
X86832886Y-102186206D01*
X86849721Y-102176116D01*
X86867463Y-102167724D01*
X86885943Y-102161112D01*
X86904982Y-102156343D01*
X86924397Y-102153463D01*
X86944000Y-102152500D01*
X88694000Y-102152500D01*
X88713603Y-102153463D01*
X88713603Y-102153463D01*
G37*
D17*
X87819000Y-102552500D03*
D13*
G36*
X88713603Y-100883463D02*
G01*
X88733018Y-100886343D01*
X88752057Y-100891112D01*
X88770537Y-100897724D01*
X88788279Y-100906116D01*
X88805114Y-100916206D01*
X88820879Y-100927898D01*
X88835421Y-100941079D01*
X88848602Y-100955621D01*
X88860294Y-100971386D01*
X88870384Y-100988221D01*
X88878776Y-101005963D01*
X88885388Y-101024443D01*
X88890157Y-101043482D01*
X88893037Y-101062897D01*
X88894000Y-101082500D01*
X88894000Y-101482500D01*
X88893037Y-101502103D01*
X88890157Y-101521518D01*
X88885388Y-101540557D01*
X88878776Y-101559037D01*
X88870384Y-101576779D01*
X88860294Y-101593614D01*
X88848602Y-101609379D01*
X88835421Y-101623921D01*
X88820879Y-101637102D01*
X88805114Y-101648794D01*
X88788279Y-101658884D01*
X88770537Y-101667276D01*
X88752057Y-101673888D01*
X88733018Y-101678657D01*
X88713603Y-101681537D01*
X88694000Y-101682500D01*
X86944000Y-101682500D01*
X86924397Y-101681537D01*
X86904982Y-101678657D01*
X86885943Y-101673888D01*
X86867463Y-101667276D01*
X86849721Y-101658884D01*
X86832886Y-101648794D01*
X86817121Y-101637102D01*
X86802579Y-101623921D01*
X86789398Y-101609379D01*
X86777706Y-101593614D01*
X86767616Y-101576779D01*
X86759224Y-101559037D01*
X86752612Y-101540557D01*
X86747843Y-101521518D01*
X86744963Y-101502103D01*
X86744000Y-101482500D01*
X86744000Y-101082500D01*
X86744963Y-101062897D01*
X86747843Y-101043482D01*
X86752612Y-101024443D01*
X86759224Y-101005963D01*
X86767616Y-100988221D01*
X86777706Y-100971386D01*
X86789398Y-100955621D01*
X86802579Y-100941079D01*
X86817121Y-100927898D01*
X86832886Y-100916206D01*
X86849721Y-100906116D01*
X86867463Y-100897724D01*
X86885943Y-100891112D01*
X86904982Y-100886343D01*
X86924397Y-100883463D01*
X86944000Y-100882500D01*
X88694000Y-100882500D01*
X88713603Y-100883463D01*
X88713603Y-100883463D01*
G37*
D17*
X87819000Y-101282500D03*
D13*
G36*
X88713603Y-99613463D02*
G01*
X88733018Y-99616343D01*
X88752057Y-99621112D01*
X88770537Y-99627724D01*
X88788279Y-99636116D01*
X88805114Y-99646206D01*
X88820879Y-99657898D01*
X88835421Y-99671079D01*
X88848602Y-99685621D01*
X88860294Y-99701386D01*
X88870384Y-99718221D01*
X88878776Y-99735963D01*
X88885388Y-99754443D01*
X88890157Y-99773482D01*
X88893037Y-99792897D01*
X88894000Y-99812500D01*
X88894000Y-100212500D01*
X88893037Y-100232103D01*
X88890157Y-100251518D01*
X88885388Y-100270557D01*
X88878776Y-100289037D01*
X88870384Y-100306779D01*
X88860294Y-100323614D01*
X88848602Y-100339379D01*
X88835421Y-100353921D01*
X88820879Y-100367102D01*
X88805114Y-100378794D01*
X88788279Y-100388884D01*
X88770537Y-100397276D01*
X88752057Y-100403888D01*
X88733018Y-100408657D01*
X88713603Y-100411537D01*
X88694000Y-100412500D01*
X86944000Y-100412500D01*
X86924397Y-100411537D01*
X86904982Y-100408657D01*
X86885943Y-100403888D01*
X86867463Y-100397276D01*
X86849721Y-100388884D01*
X86832886Y-100378794D01*
X86817121Y-100367102D01*
X86802579Y-100353921D01*
X86789398Y-100339379D01*
X86777706Y-100323614D01*
X86767616Y-100306779D01*
X86759224Y-100289037D01*
X86752612Y-100270557D01*
X86747843Y-100251518D01*
X86744963Y-100232103D01*
X86744000Y-100212500D01*
X86744000Y-99812500D01*
X86744963Y-99792897D01*
X86747843Y-99773482D01*
X86752612Y-99754443D01*
X86759224Y-99735963D01*
X86767616Y-99718221D01*
X86777706Y-99701386D01*
X86789398Y-99685621D01*
X86802579Y-99671079D01*
X86817121Y-99657898D01*
X86832886Y-99646206D01*
X86849721Y-99636116D01*
X86867463Y-99627724D01*
X86885943Y-99621112D01*
X86904982Y-99616343D01*
X86924397Y-99613463D01*
X86944000Y-99612500D01*
X88694000Y-99612500D01*
X88713603Y-99613463D01*
X88713603Y-99613463D01*
G37*
D17*
X87819000Y-100012500D03*
D13*
G36*
X102091789Y-83656413D02*
G01*
X102120278Y-83660639D01*
X102148215Y-83667637D01*
X102175332Y-83677340D01*
X102201367Y-83689653D01*
X102226070Y-83704460D01*
X102249203Y-83721616D01*
X102270543Y-83740957D01*
X102289884Y-83762297D01*
X102307040Y-83785430D01*
X102321847Y-83810133D01*
X102334160Y-83836168D01*
X102343863Y-83863285D01*
X102350861Y-83891222D01*
X102355087Y-83919711D01*
X102356500Y-83948477D01*
X102356500Y-84961523D01*
X102355087Y-84990289D01*
X102350861Y-85018778D01*
X102343863Y-85046715D01*
X102334160Y-85073832D01*
X102321847Y-85099867D01*
X102307040Y-85124570D01*
X102289884Y-85147703D01*
X102270543Y-85169043D01*
X102249203Y-85188384D01*
X102226070Y-85205540D01*
X102201367Y-85220347D01*
X102175332Y-85232660D01*
X102148215Y-85242363D01*
X102120278Y-85249361D01*
X102091789Y-85253587D01*
X102063023Y-85255000D01*
X101299977Y-85255000D01*
X101271211Y-85253587D01*
X101242722Y-85249361D01*
X101214785Y-85242363D01*
X101187668Y-85232660D01*
X101161633Y-85220347D01*
X101136930Y-85205540D01*
X101113797Y-85188384D01*
X101092457Y-85169043D01*
X101073116Y-85147703D01*
X101055960Y-85124570D01*
X101041153Y-85099867D01*
X101028840Y-85073832D01*
X101019137Y-85046715D01*
X101012139Y-85018778D01*
X101007913Y-84990289D01*
X101006500Y-84961523D01*
X101006500Y-83948477D01*
X101007913Y-83919711D01*
X101012139Y-83891222D01*
X101019137Y-83863285D01*
X101028840Y-83836168D01*
X101041153Y-83810133D01*
X101055960Y-83785430D01*
X101073116Y-83762297D01*
X101092457Y-83740957D01*
X101113797Y-83721616D01*
X101136930Y-83704460D01*
X101161633Y-83689653D01*
X101187668Y-83677340D01*
X101214785Y-83667637D01*
X101242722Y-83660639D01*
X101271211Y-83656413D01*
X101299977Y-83655000D01*
X102063023Y-83655000D01*
X102091789Y-83656413D01*
X102091789Y-83656413D01*
G37*
D14*
X101681500Y-84455000D03*
D13*
G36*
X100041789Y-83656413D02*
G01*
X100070278Y-83660639D01*
X100098215Y-83667637D01*
X100125332Y-83677340D01*
X100151367Y-83689653D01*
X100176070Y-83704460D01*
X100199203Y-83721616D01*
X100220543Y-83740957D01*
X100239884Y-83762297D01*
X100257040Y-83785430D01*
X100271847Y-83810133D01*
X100284160Y-83836168D01*
X100293863Y-83863285D01*
X100300861Y-83891222D01*
X100305087Y-83919711D01*
X100306500Y-83948477D01*
X100306500Y-84961523D01*
X100305087Y-84990289D01*
X100300861Y-85018778D01*
X100293863Y-85046715D01*
X100284160Y-85073832D01*
X100271847Y-85099867D01*
X100257040Y-85124570D01*
X100239884Y-85147703D01*
X100220543Y-85169043D01*
X100199203Y-85188384D01*
X100176070Y-85205540D01*
X100151367Y-85220347D01*
X100125332Y-85232660D01*
X100098215Y-85242363D01*
X100070278Y-85249361D01*
X100041789Y-85253587D01*
X100013023Y-85255000D01*
X99249977Y-85255000D01*
X99221211Y-85253587D01*
X99192722Y-85249361D01*
X99164785Y-85242363D01*
X99137668Y-85232660D01*
X99111633Y-85220347D01*
X99086930Y-85205540D01*
X99063797Y-85188384D01*
X99042457Y-85169043D01*
X99023116Y-85147703D01*
X99005960Y-85124570D01*
X98991153Y-85099867D01*
X98978840Y-85073832D01*
X98969137Y-85046715D01*
X98962139Y-85018778D01*
X98957913Y-84990289D01*
X98956500Y-84961523D01*
X98956500Y-83948477D01*
X98957913Y-83919711D01*
X98962139Y-83891222D01*
X98969137Y-83863285D01*
X98978840Y-83836168D01*
X98991153Y-83810133D01*
X99005960Y-83785430D01*
X99023116Y-83762297D01*
X99042457Y-83740957D01*
X99063797Y-83721616D01*
X99086930Y-83704460D01*
X99111633Y-83689653D01*
X99137668Y-83677340D01*
X99164785Y-83667637D01*
X99192722Y-83660639D01*
X99221211Y-83656413D01*
X99249977Y-83655000D01*
X100013023Y-83655000D01*
X100041789Y-83656413D01*
X100041789Y-83656413D01*
G37*
D14*
X99631500Y-84455000D03*
D15*
X83058000Y-92837000D03*
D16*
X80518000Y-92837000D03*
D15*
X99822000Y-87503000D03*
D16*
X102362000Y-87503000D03*
D15*
X128587500Y-101854000D03*
D16*
X128587500Y-99314000D03*
D15*
X111315500Y-87503000D03*
X108775500Y-87503000D03*
D16*
X106235500Y-87503000D03*
D15*
X111315500Y-84391500D03*
X108775500Y-84391500D03*
D16*
X106235500Y-84391500D03*
D18*
X94257500Y-115379500D03*
X87257500Y-115379500D03*
D19*
X93257500Y-112679500D03*
X88257500Y-112679500D03*
D15*
X107061000Y-114871500D03*
X107061000Y-112331500D03*
X107061000Y-109791500D03*
D16*
X107061000Y-107251500D03*
D15*
X103314500Y-114871500D03*
X103314500Y-112331500D03*
X103314500Y-109791500D03*
D16*
X103314500Y-107251500D03*
D15*
X135180000Y-63050000D03*
X135180000Y-65590000D03*
X132640000Y-63050000D03*
X132640000Y-65590000D03*
X130100000Y-63050000D03*
X130100000Y-65590000D03*
X127560000Y-63050000D03*
X127560000Y-65590000D03*
X125020000Y-63050000D03*
X125020000Y-65590000D03*
X122480000Y-63050000D03*
X122480000Y-65590000D03*
X119940000Y-63050000D03*
X119940000Y-65590000D03*
X117400000Y-63050000D03*
X117400000Y-65590000D03*
X114860000Y-63050000D03*
X114860000Y-65590000D03*
X112320000Y-63050000D03*
X112320000Y-65590000D03*
X109780000Y-63050000D03*
X109780000Y-65590000D03*
X107240000Y-63050000D03*
X107240000Y-65590000D03*
X104700000Y-63050000D03*
X104700000Y-65590000D03*
X102160000Y-63050000D03*
X102160000Y-65590000D03*
X99620000Y-63050000D03*
X99620000Y-65590000D03*
X97080000Y-63050000D03*
X97080000Y-65590000D03*
X94540000Y-63050000D03*
X94540000Y-65590000D03*
X92000000Y-63050000D03*
X92000000Y-65590000D03*
X89460000Y-63050000D03*
X89460000Y-65590000D03*
X86920000Y-63050000D03*
D16*
X86920000Y-65590000D03*
D20*
X82040000Y-64310000D03*
X140040000Y-64330000D03*
X82040000Y-113320000D03*
X140030000Y-113310000D03*
M02*
