G04 #@! TF.GenerationSoftware,KiCad,Pcbnew,(5.1.4)-1*
G04 #@! TF.CreationDate,2019-09-24T11:14:08+05:30*
G04 #@! TF.ProjectId,RPi Hat RF Transmitter V1,52506920-4861-4742-9052-46205472616e,rev?*
G04 #@! TF.SameCoordinates,Original*
G04 #@! TF.FileFunction,Paste,Top*
G04 #@! TF.FilePolarity,Positive*
%FSLAX46Y46*%
G04 Gerber Fmt 4.6, Leading zero omitted, Abs format (unit mm)*
G04 Created by KiCad (PCBNEW (5.1.4)-1) date 2019-09-24 11:14:08*
%MOMM*%
%LPD*%
G04 APERTURE LIST*
%ADD10C,0.150000*%
%ADD11C,0.100000*%
%ADD12C,1.150000*%
%ADD13R,1.560000X0.650000*%
%ADD14C,3.000000*%
%ADD15C,1.100000*%
%ADD16C,0.800000*%
%ADD17R,1.500000X1.900000*%
%ADD18R,0.400000X1.350000*%
%ADD19R,0.440000X1.525000*%
G04 APERTURE END LIST*
D10*
X78546356Y-63817611D02*
X78546356Y-113817611D01*
X140546356Y-60817611D02*
X81546356Y-60817611D01*
X143546351Y-113822847D02*
X143546356Y-63817611D01*
X81546356Y-116817611D02*
X140546356Y-116817611D01*
X78546356Y-63817611D02*
G75*
G02X81546356Y-60817611I3000000J0D01*
G01*
X140546356Y-60817611D02*
G75*
G02X143546356Y-63817611I0J-3000000D01*
G01*
X81546356Y-116817611D02*
G75*
G02X78546356Y-113817611I0J3000000D01*
G01*
X143546351Y-113822847D02*
G75*
G02X140546356Y-116817611I-2999995J5236D01*
G01*
D11*
G36*
X122775505Y-93043204D02*
G01*
X122799773Y-93046804D01*
X122823572Y-93052765D01*
X122846671Y-93061030D01*
X122868850Y-93071520D01*
X122889893Y-93084132D01*
X122909599Y-93098747D01*
X122927777Y-93115223D01*
X122944253Y-93133401D01*
X122958868Y-93153107D01*
X122971480Y-93174150D01*
X122981970Y-93196329D01*
X122990235Y-93219428D01*
X122996196Y-93243227D01*
X122999796Y-93267495D01*
X123001000Y-93291999D01*
X123001000Y-93942001D01*
X122999796Y-93966505D01*
X122996196Y-93990773D01*
X122990235Y-94014572D01*
X122981970Y-94037671D01*
X122971480Y-94059850D01*
X122958868Y-94080893D01*
X122944253Y-94100599D01*
X122927777Y-94118777D01*
X122909599Y-94135253D01*
X122889893Y-94149868D01*
X122868850Y-94162480D01*
X122846671Y-94172970D01*
X122823572Y-94181235D01*
X122799773Y-94187196D01*
X122775505Y-94190796D01*
X122751001Y-94192000D01*
X121850999Y-94192000D01*
X121826495Y-94190796D01*
X121802227Y-94187196D01*
X121778428Y-94181235D01*
X121755329Y-94172970D01*
X121733150Y-94162480D01*
X121712107Y-94149868D01*
X121692401Y-94135253D01*
X121674223Y-94118777D01*
X121657747Y-94100599D01*
X121643132Y-94080893D01*
X121630520Y-94059850D01*
X121620030Y-94037671D01*
X121611765Y-94014572D01*
X121605804Y-93990773D01*
X121602204Y-93966505D01*
X121601000Y-93942001D01*
X121601000Y-93291999D01*
X121602204Y-93267495D01*
X121605804Y-93243227D01*
X121611765Y-93219428D01*
X121620030Y-93196329D01*
X121630520Y-93174150D01*
X121643132Y-93153107D01*
X121657747Y-93133401D01*
X121674223Y-93115223D01*
X121692401Y-93098747D01*
X121712107Y-93084132D01*
X121733150Y-93071520D01*
X121755329Y-93061030D01*
X121778428Y-93052765D01*
X121802227Y-93046804D01*
X121826495Y-93043204D01*
X121850999Y-93042000D01*
X122751001Y-93042000D01*
X122775505Y-93043204D01*
X122775505Y-93043204D01*
G37*
D12*
X122301000Y-93617000D03*
D11*
G36*
X122775505Y-90993204D02*
G01*
X122799773Y-90996804D01*
X122823572Y-91002765D01*
X122846671Y-91011030D01*
X122868850Y-91021520D01*
X122889893Y-91034132D01*
X122909599Y-91048747D01*
X122927777Y-91065223D01*
X122944253Y-91083401D01*
X122958868Y-91103107D01*
X122971480Y-91124150D01*
X122981970Y-91146329D01*
X122990235Y-91169428D01*
X122996196Y-91193227D01*
X122999796Y-91217495D01*
X123001000Y-91241999D01*
X123001000Y-91892001D01*
X122999796Y-91916505D01*
X122996196Y-91940773D01*
X122990235Y-91964572D01*
X122981970Y-91987671D01*
X122971480Y-92009850D01*
X122958868Y-92030893D01*
X122944253Y-92050599D01*
X122927777Y-92068777D01*
X122909599Y-92085253D01*
X122889893Y-92099868D01*
X122868850Y-92112480D01*
X122846671Y-92122970D01*
X122823572Y-92131235D01*
X122799773Y-92137196D01*
X122775505Y-92140796D01*
X122751001Y-92142000D01*
X121850999Y-92142000D01*
X121826495Y-92140796D01*
X121802227Y-92137196D01*
X121778428Y-92131235D01*
X121755329Y-92122970D01*
X121733150Y-92112480D01*
X121712107Y-92099868D01*
X121692401Y-92085253D01*
X121674223Y-92068777D01*
X121657747Y-92050599D01*
X121643132Y-92030893D01*
X121630520Y-92009850D01*
X121620030Y-91987671D01*
X121611765Y-91964572D01*
X121605804Y-91940773D01*
X121602204Y-91916505D01*
X121601000Y-91892001D01*
X121601000Y-91241999D01*
X121602204Y-91217495D01*
X121605804Y-91193227D01*
X121611765Y-91169428D01*
X121620030Y-91146329D01*
X121630520Y-91124150D01*
X121643132Y-91103107D01*
X121657747Y-91083401D01*
X121674223Y-91065223D01*
X121692401Y-91048747D01*
X121712107Y-91034132D01*
X121733150Y-91021520D01*
X121755329Y-91011030D01*
X121778428Y-91002765D01*
X121802227Y-90996804D01*
X121826495Y-90993204D01*
X121850999Y-90992000D01*
X122751001Y-90992000D01*
X122775505Y-90993204D01*
X122775505Y-90993204D01*
G37*
D12*
X122301000Y-91567000D03*
D11*
G36*
X118468505Y-90868204D02*
G01*
X118492773Y-90871804D01*
X118516572Y-90877765D01*
X118539671Y-90886030D01*
X118561850Y-90896520D01*
X118582893Y-90909132D01*
X118602599Y-90923747D01*
X118620777Y-90940223D01*
X118637253Y-90958401D01*
X118651868Y-90978107D01*
X118664480Y-90999150D01*
X118674970Y-91021329D01*
X118683235Y-91044428D01*
X118689196Y-91068227D01*
X118692796Y-91092495D01*
X118694000Y-91116999D01*
X118694000Y-92017001D01*
X118692796Y-92041505D01*
X118689196Y-92065773D01*
X118683235Y-92089572D01*
X118674970Y-92112671D01*
X118664480Y-92134850D01*
X118651868Y-92155893D01*
X118637253Y-92175599D01*
X118620777Y-92193777D01*
X118602599Y-92210253D01*
X118582893Y-92224868D01*
X118561850Y-92237480D01*
X118539671Y-92247970D01*
X118516572Y-92256235D01*
X118492773Y-92262196D01*
X118468505Y-92265796D01*
X118444001Y-92267000D01*
X117793999Y-92267000D01*
X117769495Y-92265796D01*
X117745227Y-92262196D01*
X117721428Y-92256235D01*
X117698329Y-92247970D01*
X117676150Y-92237480D01*
X117655107Y-92224868D01*
X117635401Y-92210253D01*
X117617223Y-92193777D01*
X117600747Y-92175599D01*
X117586132Y-92155893D01*
X117573520Y-92134850D01*
X117563030Y-92112671D01*
X117554765Y-92089572D01*
X117548804Y-92065773D01*
X117545204Y-92041505D01*
X117544000Y-92017001D01*
X117544000Y-91116999D01*
X117545204Y-91092495D01*
X117548804Y-91068227D01*
X117554765Y-91044428D01*
X117563030Y-91021329D01*
X117573520Y-90999150D01*
X117586132Y-90978107D01*
X117600747Y-90958401D01*
X117617223Y-90940223D01*
X117635401Y-90923747D01*
X117655107Y-90909132D01*
X117676150Y-90896520D01*
X117698329Y-90886030D01*
X117721428Y-90877765D01*
X117745227Y-90871804D01*
X117769495Y-90868204D01*
X117793999Y-90867000D01*
X118444001Y-90867000D01*
X118468505Y-90868204D01*
X118468505Y-90868204D01*
G37*
D12*
X118119000Y-91567000D03*
D11*
G36*
X116418505Y-90868204D02*
G01*
X116442773Y-90871804D01*
X116466572Y-90877765D01*
X116489671Y-90886030D01*
X116511850Y-90896520D01*
X116532893Y-90909132D01*
X116552599Y-90923747D01*
X116570777Y-90940223D01*
X116587253Y-90958401D01*
X116601868Y-90978107D01*
X116614480Y-90999150D01*
X116624970Y-91021329D01*
X116633235Y-91044428D01*
X116639196Y-91068227D01*
X116642796Y-91092495D01*
X116644000Y-91116999D01*
X116644000Y-92017001D01*
X116642796Y-92041505D01*
X116639196Y-92065773D01*
X116633235Y-92089572D01*
X116624970Y-92112671D01*
X116614480Y-92134850D01*
X116601868Y-92155893D01*
X116587253Y-92175599D01*
X116570777Y-92193777D01*
X116552599Y-92210253D01*
X116532893Y-92224868D01*
X116511850Y-92237480D01*
X116489671Y-92247970D01*
X116466572Y-92256235D01*
X116442773Y-92262196D01*
X116418505Y-92265796D01*
X116394001Y-92267000D01*
X115743999Y-92267000D01*
X115719495Y-92265796D01*
X115695227Y-92262196D01*
X115671428Y-92256235D01*
X115648329Y-92247970D01*
X115626150Y-92237480D01*
X115605107Y-92224868D01*
X115585401Y-92210253D01*
X115567223Y-92193777D01*
X115550747Y-92175599D01*
X115536132Y-92155893D01*
X115523520Y-92134850D01*
X115513030Y-92112671D01*
X115504765Y-92089572D01*
X115498804Y-92065773D01*
X115495204Y-92041505D01*
X115494000Y-92017001D01*
X115494000Y-91116999D01*
X115495204Y-91092495D01*
X115498804Y-91068227D01*
X115504765Y-91044428D01*
X115513030Y-91021329D01*
X115523520Y-90999150D01*
X115536132Y-90978107D01*
X115550747Y-90958401D01*
X115567223Y-90940223D01*
X115585401Y-90923747D01*
X115605107Y-90909132D01*
X115626150Y-90896520D01*
X115648329Y-90886030D01*
X115671428Y-90877765D01*
X115695227Y-90871804D01*
X115719495Y-90868204D01*
X115743999Y-90867000D01*
X116394001Y-90867000D01*
X116418505Y-90868204D01*
X116418505Y-90868204D01*
G37*
D12*
X116069000Y-91567000D03*
D11*
G36*
X120616505Y-93043204D02*
G01*
X120640773Y-93046804D01*
X120664572Y-93052765D01*
X120687671Y-93061030D01*
X120709850Y-93071520D01*
X120730893Y-93084132D01*
X120750599Y-93098747D01*
X120768777Y-93115223D01*
X120785253Y-93133401D01*
X120799868Y-93153107D01*
X120812480Y-93174150D01*
X120822970Y-93196329D01*
X120831235Y-93219428D01*
X120837196Y-93243227D01*
X120840796Y-93267495D01*
X120842000Y-93291999D01*
X120842000Y-93942001D01*
X120840796Y-93966505D01*
X120837196Y-93990773D01*
X120831235Y-94014572D01*
X120822970Y-94037671D01*
X120812480Y-94059850D01*
X120799868Y-94080893D01*
X120785253Y-94100599D01*
X120768777Y-94118777D01*
X120750599Y-94135253D01*
X120730893Y-94149868D01*
X120709850Y-94162480D01*
X120687671Y-94172970D01*
X120664572Y-94181235D01*
X120640773Y-94187196D01*
X120616505Y-94190796D01*
X120592001Y-94192000D01*
X119691999Y-94192000D01*
X119667495Y-94190796D01*
X119643227Y-94187196D01*
X119619428Y-94181235D01*
X119596329Y-94172970D01*
X119574150Y-94162480D01*
X119553107Y-94149868D01*
X119533401Y-94135253D01*
X119515223Y-94118777D01*
X119498747Y-94100599D01*
X119484132Y-94080893D01*
X119471520Y-94059850D01*
X119461030Y-94037671D01*
X119452765Y-94014572D01*
X119446804Y-93990773D01*
X119443204Y-93966505D01*
X119442000Y-93942001D01*
X119442000Y-93291999D01*
X119443204Y-93267495D01*
X119446804Y-93243227D01*
X119452765Y-93219428D01*
X119461030Y-93196329D01*
X119471520Y-93174150D01*
X119484132Y-93153107D01*
X119498747Y-93133401D01*
X119515223Y-93115223D01*
X119533401Y-93098747D01*
X119553107Y-93084132D01*
X119574150Y-93071520D01*
X119596329Y-93061030D01*
X119619428Y-93052765D01*
X119643227Y-93046804D01*
X119667495Y-93043204D01*
X119691999Y-93042000D01*
X120592001Y-93042000D01*
X120616505Y-93043204D01*
X120616505Y-93043204D01*
G37*
D12*
X120142000Y-93617000D03*
D11*
G36*
X120616505Y-90993204D02*
G01*
X120640773Y-90996804D01*
X120664572Y-91002765D01*
X120687671Y-91011030D01*
X120709850Y-91021520D01*
X120730893Y-91034132D01*
X120750599Y-91048747D01*
X120768777Y-91065223D01*
X120785253Y-91083401D01*
X120799868Y-91103107D01*
X120812480Y-91124150D01*
X120822970Y-91146329D01*
X120831235Y-91169428D01*
X120837196Y-91193227D01*
X120840796Y-91217495D01*
X120842000Y-91241999D01*
X120842000Y-91892001D01*
X120840796Y-91916505D01*
X120837196Y-91940773D01*
X120831235Y-91964572D01*
X120822970Y-91987671D01*
X120812480Y-92009850D01*
X120799868Y-92030893D01*
X120785253Y-92050599D01*
X120768777Y-92068777D01*
X120750599Y-92085253D01*
X120730893Y-92099868D01*
X120709850Y-92112480D01*
X120687671Y-92122970D01*
X120664572Y-92131235D01*
X120640773Y-92137196D01*
X120616505Y-92140796D01*
X120592001Y-92142000D01*
X119691999Y-92142000D01*
X119667495Y-92140796D01*
X119643227Y-92137196D01*
X119619428Y-92131235D01*
X119596329Y-92122970D01*
X119574150Y-92112480D01*
X119553107Y-92099868D01*
X119533401Y-92085253D01*
X119515223Y-92068777D01*
X119498747Y-92050599D01*
X119484132Y-92030893D01*
X119471520Y-92009850D01*
X119461030Y-91987671D01*
X119452765Y-91964572D01*
X119446804Y-91940773D01*
X119443204Y-91916505D01*
X119442000Y-91892001D01*
X119442000Y-91241999D01*
X119443204Y-91217495D01*
X119446804Y-91193227D01*
X119452765Y-91169428D01*
X119461030Y-91146329D01*
X119471520Y-91124150D01*
X119484132Y-91103107D01*
X119498747Y-91083401D01*
X119515223Y-91065223D01*
X119533401Y-91048747D01*
X119553107Y-91034132D01*
X119574150Y-91021520D01*
X119596329Y-91011030D01*
X119619428Y-91002765D01*
X119643227Y-90996804D01*
X119667495Y-90993204D01*
X119691999Y-90992000D01*
X120592001Y-90992000D01*
X120616505Y-90993204D01*
X120616505Y-90993204D01*
G37*
D12*
X120142000Y-91567000D03*
D11*
G36*
X114522505Y-90868204D02*
G01*
X114546773Y-90871804D01*
X114570572Y-90877765D01*
X114593671Y-90886030D01*
X114615850Y-90896520D01*
X114636893Y-90909132D01*
X114656599Y-90923747D01*
X114674777Y-90940223D01*
X114691253Y-90958401D01*
X114705868Y-90978107D01*
X114718480Y-90999150D01*
X114728970Y-91021329D01*
X114737235Y-91044428D01*
X114743196Y-91068227D01*
X114746796Y-91092495D01*
X114748000Y-91116999D01*
X114748000Y-92017001D01*
X114746796Y-92041505D01*
X114743196Y-92065773D01*
X114737235Y-92089572D01*
X114728970Y-92112671D01*
X114718480Y-92134850D01*
X114705868Y-92155893D01*
X114691253Y-92175599D01*
X114674777Y-92193777D01*
X114656599Y-92210253D01*
X114636893Y-92224868D01*
X114615850Y-92237480D01*
X114593671Y-92247970D01*
X114570572Y-92256235D01*
X114546773Y-92262196D01*
X114522505Y-92265796D01*
X114498001Y-92267000D01*
X113847999Y-92267000D01*
X113823495Y-92265796D01*
X113799227Y-92262196D01*
X113775428Y-92256235D01*
X113752329Y-92247970D01*
X113730150Y-92237480D01*
X113709107Y-92224868D01*
X113689401Y-92210253D01*
X113671223Y-92193777D01*
X113654747Y-92175599D01*
X113640132Y-92155893D01*
X113627520Y-92134850D01*
X113617030Y-92112671D01*
X113608765Y-92089572D01*
X113602804Y-92065773D01*
X113599204Y-92041505D01*
X113598000Y-92017001D01*
X113598000Y-91116999D01*
X113599204Y-91092495D01*
X113602804Y-91068227D01*
X113608765Y-91044428D01*
X113617030Y-91021329D01*
X113627520Y-90999150D01*
X113640132Y-90978107D01*
X113654747Y-90958401D01*
X113671223Y-90940223D01*
X113689401Y-90923747D01*
X113709107Y-90909132D01*
X113730150Y-90896520D01*
X113752329Y-90886030D01*
X113775428Y-90877765D01*
X113799227Y-90871804D01*
X113823495Y-90868204D01*
X113847999Y-90867000D01*
X114498001Y-90867000D01*
X114522505Y-90868204D01*
X114522505Y-90868204D01*
G37*
D12*
X114173000Y-91567000D03*
D11*
G36*
X112472505Y-90868204D02*
G01*
X112496773Y-90871804D01*
X112520572Y-90877765D01*
X112543671Y-90886030D01*
X112565850Y-90896520D01*
X112586893Y-90909132D01*
X112606599Y-90923747D01*
X112624777Y-90940223D01*
X112641253Y-90958401D01*
X112655868Y-90978107D01*
X112668480Y-90999150D01*
X112678970Y-91021329D01*
X112687235Y-91044428D01*
X112693196Y-91068227D01*
X112696796Y-91092495D01*
X112698000Y-91116999D01*
X112698000Y-92017001D01*
X112696796Y-92041505D01*
X112693196Y-92065773D01*
X112687235Y-92089572D01*
X112678970Y-92112671D01*
X112668480Y-92134850D01*
X112655868Y-92155893D01*
X112641253Y-92175599D01*
X112624777Y-92193777D01*
X112606599Y-92210253D01*
X112586893Y-92224868D01*
X112565850Y-92237480D01*
X112543671Y-92247970D01*
X112520572Y-92256235D01*
X112496773Y-92262196D01*
X112472505Y-92265796D01*
X112448001Y-92267000D01*
X111797999Y-92267000D01*
X111773495Y-92265796D01*
X111749227Y-92262196D01*
X111725428Y-92256235D01*
X111702329Y-92247970D01*
X111680150Y-92237480D01*
X111659107Y-92224868D01*
X111639401Y-92210253D01*
X111621223Y-92193777D01*
X111604747Y-92175599D01*
X111590132Y-92155893D01*
X111577520Y-92134850D01*
X111567030Y-92112671D01*
X111558765Y-92089572D01*
X111552804Y-92065773D01*
X111549204Y-92041505D01*
X111548000Y-92017001D01*
X111548000Y-91116999D01*
X111549204Y-91092495D01*
X111552804Y-91068227D01*
X111558765Y-91044428D01*
X111567030Y-91021329D01*
X111577520Y-90999150D01*
X111590132Y-90978107D01*
X111604747Y-90958401D01*
X111621223Y-90940223D01*
X111639401Y-90923747D01*
X111659107Y-90909132D01*
X111680150Y-90896520D01*
X111702329Y-90886030D01*
X111725428Y-90877765D01*
X111749227Y-90871804D01*
X111773495Y-90868204D01*
X111797999Y-90867000D01*
X112448001Y-90867000D01*
X112472505Y-90868204D01*
X112472505Y-90868204D01*
G37*
D12*
X112123000Y-91567000D03*
D11*
G36*
X135731505Y-104520704D02*
G01*
X135755773Y-104524304D01*
X135779572Y-104530265D01*
X135802671Y-104538530D01*
X135824850Y-104549020D01*
X135845893Y-104561632D01*
X135865599Y-104576247D01*
X135883777Y-104592723D01*
X135900253Y-104610901D01*
X135914868Y-104630607D01*
X135927480Y-104651650D01*
X135937970Y-104673829D01*
X135946235Y-104696928D01*
X135952196Y-104720727D01*
X135955796Y-104744995D01*
X135957000Y-104769499D01*
X135957000Y-105669501D01*
X135955796Y-105694005D01*
X135952196Y-105718273D01*
X135946235Y-105742072D01*
X135937970Y-105765171D01*
X135927480Y-105787350D01*
X135914868Y-105808393D01*
X135900253Y-105828099D01*
X135883777Y-105846277D01*
X135865599Y-105862753D01*
X135845893Y-105877368D01*
X135824850Y-105889980D01*
X135802671Y-105900470D01*
X135779572Y-105908735D01*
X135755773Y-105914696D01*
X135731505Y-105918296D01*
X135707001Y-105919500D01*
X135056999Y-105919500D01*
X135032495Y-105918296D01*
X135008227Y-105914696D01*
X134984428Y-105908735D01*
X134961329Y-105900470D01*
X134939150Y-105889980D01*
X134918107Y-105877368D01*
X134898401Y-105862753D01*
X134880223Y-105846277D01*
X134863747Y-105828099D01*
X134849132Y-105808393D01*
X134836520Y-105787350D01*
X134826030Y-105765171D01*
X134817765Y-105742072D01*
X134811804Y-105718273D01*
X134808204Y-105694005D01*
X134807000Y-105669501D01*
X134807000Y-104769499D01*
X134808204Y-104744995D01*
X134811804Y-104720727D01*
X134817765Y-104696928D01*
X134826030Y-104673829D01*
X134836520Y-104651650D01*
X134849132Y-104630607D01*
X134863747Y-104610901D01*
X134880223Y-104592723D01*
X134898401Y-104576247D01*
X134918107Y-104561632D01*
X134939150Y-104549020D01*
X134961329Y-104538530D01*
X134984428Y-104530265D01*
X135008227Y-104524304D01*
X135032495Y-104520704D01*
X135056999Y-104519500D01*
X135707001Y-104519500D01*
X135731505Y-104520704D01*
X135731505Y-104520704D01*
G37*
D12*
X135382000Y-105219500D03*
D11*
G36*
X133681505Y-104520704D02*
G01*
X133705773Y-104524304D01*
X133729572Y-104530265D01*
X133752671Y-104538530D01*
X133774850Y-104549020D01*
X133795893Y-104561632D01*
X133815599Y-104576247D01*
X133833777Y-104592723D01*
X133850253Y-104610901D01*
X133864868Y-104630607D01*
X133877480Y-104651650D01*
X133887970Y-104673829D01*
X133896235Y-104696928D01*
X133902196Y-104720727D01*
X133905796Y-104744995D01*
X133907000Y-104769499D01*
X133907000Y-105669501D01*
X133905796Y-105694005D01*
X133902196Y-105718273D01*
X133896235Y-105742072D01*
X133887970Y-105765171D01*
X133877480Y-105787350D01*
X133864868Y-105808393D01*
X133850253Y-105828099D01*
X133833777Y-105846277D01*
X133815599Y-105862753D01*
X133795893Y-105877368D01*
X133774850Y-105889980D01*
X133752671Y-105900470D01*
X133729572Y-105908735D01*
X133705773Y-105914696D01*
X133681505Y-105918296D01*
X133657001Y-105919500D01*
X133006999Y-105919500D01*
X132982495Y-105918296D01*
X132958227Y-105914696D01*
X132934428Y-105908735D01*
X132911329Y-105900470D01*
X132889150Y-105889980D01*
X132868107Y-105877368D01*
X132848401Y-105862753D01*
X132830223Y-105846277D01*
X132813747Y-105828099D01*
X132799132Y-105808393D01*
X132786520Y-105787350D01*
X132776030Y-105765171D01*
X132767765Y-105742072D01*
X132761804Y-105718273D01*
X132758204Y-105694005D01*
X132757000Y-105669501D01*
X132757000Y-104769499D01*
X132758204Y-104744995D01*
X132761804Y-104720727D01*
X132767765Y-104696928D01*
X132776030Y-104673829D01*
X132786520Y-104651650D01*
X132799132Y-104630607D01*
X132813747Y-104610901D01*
X132830223Y-104592723D01*
X132848401Y-104576247D01*
X132868107Y-104561632D01*
X132889150Y-104549020D01*
X132911329Y-104538530D01*
X132934428Y-104530265D01*
X132958227Y-104524304D01*
X132982495Y-104520704D01*
X133006999Y-104519500D01*
X133657001Y-104519500D01*
X133681505Y-104520704D01*
X133681505Y-104520704D01*
G37*
D12*
X133332000Y-105219500D03*
D11*
G36*
X128220505Y-109029204D02*
G01*
X128244773Y-109032804D01*
X128268572Y-109038765D01*
X128291671Y-109047030D01*
X128313850Y-109057520D01*
X128334893Y-109070132D01*
X128354599Y-109084747D01*
X128372777Y-109101223D01*
X128389253Y-109119401D01*
X128403868Y-109139107D01*
X128416480Y-109160150D01*
X128426970Y-109182329D01*
X128435235Y-109205428D01*
X128441196Y-109229227D01*
X128444796Y-109253495D01*
X128446000Y-109277999D01*
X128446000Y-110178001D01*
X128444796Y-110202505D01*
X128441196Y-110226773D01*
X128435235Y-110250572D01*
X128426970Y-110273671D01*
X128416480Y-110295850D01*
X128403868Y-110316893D01*
X128389253Y-110336599D01*
X128372777Y-110354777D01*
X128354599Y-110371253D01*
X128334893Y-110385868D01*
X128313850Y-110398480D01*
X128291671Y-110408970D01*
X128268572Y-110417235D01*
X128244773Y-110423196D01*
X128220505Y-110426796D01*
X128196001Y-110428000D01*
X127545999Y-110428000D01*
X127521495Y-110426796D01*
X127497227Y-110423196D01*
X127473428Y-110417235D01*
X127450329Y-110408970D01*
X127428150Y-110398480D01*
X127407107Y-110385868D01*
X127387401Y-110371253D01*
X127369223Y-110354777D01*
X127352747Y-110336599D01*
X127338132Y-110316893D01*
X127325520Y-110295850D01*
X127315030Y-110273671D01*
X127306765Y-110250572D01*
X127300804Y-110226773D01*
X127297204Y-110202505D01*
X127296000Y-110178001D01*
X127296000Y-109277999D01*
X127297204Y-109253495D01*
X127300804Y-109229227D01*
X127306765Y-109205428D01*
X127315030Y-109182329D01*
X127325520Y-109160150D01*
X127338132Y-109139107D01*
X127352747Y-109119401D01*
X127369223Y-109101223D01*
X127387401Y-109084747D01*
X127407107Y-109070132D01*
X127428150Y-109057520D01*
X127450329Y-109047030D01*
X127473428Y-109038765D01*
X127497227Y-109032804D01*
X127521495Y-109029204D01*
X127545999Y-109028000D01*
X128196001Y-109028000D01*
X128220505Y-109029204D01*
X128220505Y-109029204D01*
G37*
D12*
X127871000Y-109728000D03*
D11*
G36*
X130270505Y-109029204D02*
G01*
X130294773Y-109032804D01*
X130318572Y-109038765D01*
X130341671Y-109047030D01*
X130363850Y-109057520D01*
X130384893Y-109070132D01*
X130404599Y-109084747D01*
X130422777Y-109101223D01*
X130439253Y-109119401D01*
X130453868Y-109139107D01*
X130466480Y-109160150D01*
X130476970Y-109182329D01*
X130485235Y-109205428D01*
X130491196Y-109229227D01*
X130494796Y-109253495D01*
X130496000Y-109277999D01*
X130496000Y-110178001D01*
X130494796Y-110202505D01*
X130491196Y-110226773D01*
X130485235Y-110250572D01*
X130476970Y-110273671D01*
X130466480Y-110295850D01*
X130453868Y-110316893D01*
X130439253Y-110336599D01*
X130422777Y-110354777D01*
X130404599Y-110371253D01*
X130384893Y-110385868D01*
X130363850Y-110398480D01*
X130341671Y-110408970D01*
X130318572Y-110417235D01*
X130294773Y-110423196D01*
X130270505Y-110426796D01*
X130246001Y-110428000D01*
X129595999Y-110428000D01*
X129571495Y-110426796D01*
X129547227Y-110423196D01*
X129523428Y-110417235D01*
X129500329Y-110408970D01*
X129478150Y-110398480D01*
X129457107Y-110385868D01*
X129437401Y-110371253D01*
X129419223Y-110354777D01*
X129402747Y-110336599D01*
X129388132Y-110316893D01*
X129375520Y-110295850D01*
X129365030Y-110273671D01*
X129356765Y-110250572D01*
X129350804Y-110226773D01*
X129347204Y-110202505D01*
X129346000Y-110178001D01*
X129346000Y-109277999D01*
X129347204Y-109253495D01*
X129350804Y-109229227D01*
X129356765Y-109205428D01*
X129365030Y-109182329D01*
X129375520Y-109160150D01*
X129388132Y-109139107D01*
X129402747Y-109119401D01*
X129419223Y-109101223D01*
X129437401Y-109084747D01*
X129457107Y-109070132D01*
X129478150Y-109057520D01*
X129500329Y-109047030D01*
X129523428Y-109038765D01*
X129547227Y-109032804D01*
X129571495Y-109029204D01*
X129595999Y-109028000D01*
X130246001Y-109028000D01*
X130270505Y-109029204D01*
X130270505Y-109029204D01*
G37*
D12*
X129921000Y-109728000D03*
D11*
G36*
X135686005Y-101218704D02*
G01*
X135710273Y-101222304D01*
X135734072Y-101228265D01*
X135757171Y-101236530D01*
X135779350Y-101247020D01*
X135800393Y-101259632D01*
X135820099Y-101274247D01*
X135838277Y-101290723D01*
X135854753Y-101308901D01*
X135869368Y-101328607D01*
X135881980Y-101349650D01*
X135892470Y-101371829D01*
X135900735Y-101394928D01*
X135906696Y-101418727D01*
X135910296Y-101442995D01*
X135911500Y-101467499D01*
X135911500Y-102367501D01*
X135910296Y-102392005D01*
X135906696Y-102416273D01*
X135900735Y-102440072D01*
X135892470Y-102463171D01*
X135881980Y-102485350D01*
X135869368Y-102506393D01*
X135854753Y-102526099D01*
X135838277Y-102544277D01*
X135820099Y-102560753D01*
X135800393Y-102575368D01*
X135779350Y-102587980D01*
X135757171Y-102598470D01*
X135734072Y-102606735D01*
X135710273Y-102612696D01*
X135686005Y-102616296D01*
X135661501Y-102617500D01*
X135011499Y-102617500D01*
X134986995Y-102616296D01*
X134962727Y-102612696D01*
X134938928Y-102606735D01*
X134915829Y-102598470D01*
X134893650Y-102587980D01*
X134872607Y-102575368D01*
X134852901Y-102560753D01*
X134834723Y-102544277D01*
X134818247Y-102526099D01*
X134803632Y-102506393D01*
X134791020Y-102485350D01*
X134780530Y-102463171D01*
X134772265Y-102440072D01*
X134766304Y-102416273D01*
X134762704Y-102392005D01*
X134761500Y-102367501D01*
X134761500Y-101467499D01*
X134762704Y-101442995D01*
X134766304Y-101418727D01*
X134772265Y-101394928D01*
X134780530Y-101371829D01*
X134791020Y-101349650D01*
X134803632Y-101328607D01*
X134818247Y-101308901D01*
X134834723Y-101290723D01*
X134852901Y-101274247D01*
X134872607Y-101259632D01*
X134893650Y-101247020D01*
X134915829Y-101236530D01*
X134938928Y-101228265D01*
X134962727Y-101222304D01*
X134986995Y-101218704D01*
X135011499Y-101217500D01*
X135661501Y-101217500D01*
X135686005Y-101218704D01*
X135686005Y-101218704D01*
G37*
D12*
X135336500Y-101917500D03*
D11*
G36*
X133636005Y-101218704D02*
G01*
X133660273Y-101222304D01*
X133684072Y-101228265D01*
X133707171Y-101236530D01*
X133729350Y-101247020D01*
X133750393Y-101259632D01*
X133770099Y-101274247D01*
X133788277Y-101290723D01*
X133804753Y-101308901D01*
X133819368Y-101328607D01*
X133831980Y-101349650D01*
X133842470Y-101371829D01*
X133850735Y-101394928D01*
X133856696Y-101418727D01*
X133860296Y-101442995D01*
X133861500Y-101467499D01*
X133861500Y-102367501D01*
X133860296Y-102392005D01*
X133856696Y-102416273D01*
X133850735Y-102440072D01*
X133842470Y-102463171D01*
X133831980Y-102485350D01*
X133819368Y-102506393D01*
X133804753Y-102526099D01*
X133788277Y-102544277D01*
X133770099Y-102560753D01*
X133750393Y-102575368D01*
X133729350Y-102587980D01*
X133707171Y-102598470D01*
X133684072Y-102606735D01*
X133660273Y-102612696D01*
X133636005Y-102616296D01*
X133611501Y-102617500D01*
X132961499Y-102617500D01*
X132936995Y-102616296D01*
X132912727Y-102612696D01*
X132888928Y-102606735D01*
X132865829Y-102598470D01*
X132843650Y-102587980D01*
X132822607Y-102575368D01*
X132802901Y-102560753D01*
X132784723Y-102544277D01*
X132768247Y-102526099D01*
X132753632Y-102506393D01*
X132741020Y-102485350D01*
X132730530Y-102463171D01*
X132722265Y-102440072D01*
X132716304Y-102416273D01*
X132712704Y-102392005D01*
X132711500Y-102367501D01*
X132711500Y-101467499D01*
X132712704Y-101442995D01*
X132716304Y-101418727D01*
X132722265Y-101394928D01*
X132730530Y-101371829D01*
X132741020Y-101349650D01*
X132753632Y-101328607D01*
X132768247Y-101308901D01*
X132784723Y-101290723D01*
X132802901Y-101274247D01*
X132822607Y-101259632D01*
X132843650Y-101247020D01*
X132865829Y-101236530D01*
X132888928Y-101228265D01*
X132912727Y-101222304D01*
X132936995Y-101218704D01*
X132961499Y-101217500D01*
X133611501Y-101217500D01*
X133636005Y-101218704D01*
X133636005Y-101218704D01*
G37*
D12*
X133286500Y-101917500D03*
D11*
G36*
X135668005Y-97853204D02*
G01*
X135692273Y-97856804D01*
X135716072Y-97862765D01*
X135739171Y-97871030D01*
X135761350Y-97881520D01*
X135782393Y-97894132D01*
X135802099Y-97908747D01*
X135820277Y-97925223D01*
X135836753Y-97943401D01*
X135851368Y-97963107D01*
X135863980Y-97984150D01*
X135874470Y-98006329D01*
X135882735Y-98029428D01*
X135888696Y-98053227D01*
X135892296Y-98077495D01*
X135893500Y-98101999D01*
X135893500Y-99002001D01*
X135892296Y-99026505D01*
X135888696Y-99050773D01*
X135882735Y-99074572D01*
X135874470Y-99097671D01*
X135863980Y-99119850D01*
X135851368Y-99140893D01*
X135836753Y-99160599D01*
X135820277Y-99178777D01*
X135802099Y-99195253D01*
X135782393Y-99209868D01*
X135761350Y-99222480D01*
X135739171Y-99232970D01*
X135716072Y-99241235D01*
X135692273Y-99247196D01*
X135668005Y-99250796D01*
X135643501Y-99252000D01*
X134993499Y-99252000D01*
X134968995Y-99250796D01*
X134944727Y-99247196D01*
X134920928Y-99241235D01*
X134897829Y-99232970D01*
X134875650Y-99222480D01*
X134854607Y-99209868D01*
X134834901Y-99195253D01*
X134816723Y-99178777D01*
X134800247Y-99160599D01*
X134785632Y-99140893D01*
X134773020Y-99119850D01*
X134762530Y-99097671D01*
X134754265Y-99074572D01*
X134748304Y-99050773D01*
X134744704Y-99026505D01*
X134743500Y-99002001D01*
X134743500Y-98101999D01*
X134744704Y-98077495D01*
X134748304Y-98053227D01*
X134754265Y-98029428D01*
X134762530Y-98006329D01*
X134773020Y-97984150D01*
X134785632Y-97963107D01*
X134800247Y-97943401D01*
X134816723Y-97925223D01*
X134834901Y-97908747D01*
X134854607Y-97894132D01*
X134875650Y-97881520D01*
X134897829Y-97871030D01*
X134920928Y-97862765D01*
X134944727Y-97856804D01*
X134968995Y-97853204D01*
X134993499Y-97852000D01*
X135643501Y-97852000D01*
X135668005Y-97853204D01*
X135668005Y-97853204D01*
G37*
D12*
X135318500Y-98552000D03*
D11*
G36*
X133618005Y-97853204D02*
G01*
X133642273Y-97856804D01*
X133666072Y-97862765D01*
X133689171Y-97871030D01*
X133711350Y-97881520D01*
X133732393Y-97894132D01*
X133752099Y-97908747D01*
X133770277Y-97925223D01*
X133786753Y-97943401D01*
X133801368Y-97963107D01*
X133813980Y-97984150D01*
X133824470Y-98006329D01*
X133832735Y-98029428D01*
X133838696Y-98053227D01*
X133842296Y-98077495D01*
X133843500Y-98101999D01*
X133843500Y-99002001D01*
X133842296Y-99026505D01*
X133838696Y-99050773D01*
X133832735Y-99074572D01*
X133824470Y-99097671D01*
X133813980Y-99119850D01*
X133801368Y-99140893D01*
X133786753Y-99160599D01*
X133770277Y-99178777D01*
X133752099Y-99195253D01*
X133732393Y-99209868D01*
X133711350Y-99222480D01*
X133689171Y-99232970D01*
X133666072Y-99241235D01*
X133642273Y-99247196D01*
X133618005Y-99250796D01*
X133593501Y-99252000D01*
X132943499Y-99252000D01*
X132918995Y-99250796D01*
X132894727Y-99247196D01*
X132870928Y-99241235D01*
X132847829Y-99232970D01*
X132825650Y-99222480D01*
X132804607Y-99209868D01*
X132784901Y-99195253D01*
X132766723Y-99178777D01*
X132750247Y-99160599D01*
X132735632Y-99140893D01*
X132723020Y-99119850D01*
X132712530Y-99097671D01*
X132704265Y-99074572D01*
X132698304Y-99050773D01*
X132694704Y-99026505D01*
X132693500Y-99002001D01*
X132693500Y-98101999D01*
X132694704Y-98077495D01*
X132698304Y-98053227D01*
X132704265Y-98029428D01*
X132712530Y-98006329D01*
X132723020Y-97984150D01*
X132735632Y-97963107D01*
X132750247Y-97943401D01*
X132766723Y-97925223D01*
X132784901Y-97908747D01*
X132804607Y-97894132D01*
X132825650Y-97881520D01*
X132847829Y-97871030D01*
X132870928Y-97862765D01*
X132894727Y-97856804D01*
X132918995Y-97853204D01*
X132943499Y-97852000D01*
X133593501Y-97852000D01*
X133618005Y-97853204D01*
X133618005Y-97853204D01*
G37*
D12*
X133268500Y-98552000D03*
D11*
G36*
X139349005Y-96971204D02*
G01*
X139373273Y-96974804D01*
X139397072Y-96980765D01*
X139420171Y-96989030D01*
X139442350Y-96999520D01*
X139463393Y-97012132D01*
X139483099Y-97026747D01*
X139501277Y-97043223D01*
X139517753Y-97061401D01*
X139532368Y-97081107D01*
X139544980Y-97102150D01*
X139555470Y-97124329D01*
X139563735Y-97147428D01*
X139569696Y-97171227D01*
X139573296Y-97195495D01*
X139574500Y-97219999D01*
X139574500Y-97870001D01*
X139573296Y-97894505D01*
X139569696Y-97918773D01*
X139563735Y-97942572D01*
X139555470Y-97965671D01*
X139544980Y-97987850D01*
X139532368Y-98008893D01*
X139517753Y-98028599D01*
X139501277Y-98046777D01*
X139483099Y-98063253D01*
X139463393Y-98077868D01*
X139442350Y-98090480D01*
X139420171Y-98100970D01*
X139397072Y-98109235D01*
X139373273Y-98115196D01*
X139349005Y-98118796D01*
X139324501Y-98120000D01*
X138424499Y-98120000D01*
X138399995Y-98118796D01*
X138375727Y-98115196D01*
X138351928Y-98109235D01*
X138328829Y-98100970D01*
X138306650Y-98090480D01*
X138285607Y-98077868D01*
X138265901Y-98063253D01*
X138247723Y-98046777D01*
X138231247Y-98028599D01*
X138216632Y-98008893D01*
X138204020Y-97987850D01*
X138193530Y-97965671D01*
X138185265Y-97942572D01*
X138179304Y-97918773D01*
X138175704Y-97894505D01*
X138174500Y-97870001D01*
X138174500Y-97219999D01*
X138175704Y-97195495D01*
X138179304Y-97171227D01*
X138185265Y-97147428D01*
X138193530Y-97124329D01*
X138204020Y-97102150D01*
X138216632Y-97081107D01*
X138231247Y-97061401D01*
X138247723Y-97043223D01*
X138265901Y-97026747D01*
X138285607Y-97012132D01*
X138306650Y-96999520D01*
X138328829Y-96989030D01*
X138351928Y-96980765D01*
X138375727Y-96974804D01*
X138399995Y-96971204D01*
X138424499Y-96970000D01*
X139324501Y-96970000D01*
X139349005Y-96971204D01*
X139349005Y-96971204D01*
G37*
D12*
X138874500Y-97545000D03*
D11*
G36*
X139349005Y-94921204D02*
G01*
X139373273Y-94924804D01*
X139397072Y-94930765D01*
X139420171Y-94939030D01*
X139442350Y-94949520D01*
X139463393Y-94962132D01*
X139483099Y-94976747D01*
X139501277Y-94993223D01*
X139517753Y-95011401D01*
X139532368Y-95031107D01*
X139544980Y-95052150D01*
X139555470Y-95074329D01*
X139563735Y-95097428D01*
X139569696Y-95121227D01*
X139573296Y-95145495D01*
X139574500Y-95169999D01*
X139574500Y-95820001D01*
X139573296Y-95844505D01*
X139569696Y-95868773D01*
X139563735Y-95892572D01*
X139555470Y-95915671D01*
X139544980Y-95937850D01*
X139532368Y-95958893D01*
X139517753Y-95978599D01*
X139501277Y-95996777D01*
X139483099Y-96013253D01*
X139463393Y-96027868D01*
X139442350Y-96040480D01*
X139420171Y-96050970D01*
X139397072Y-96059235D01*
X139373273Y-96065196D01*
X139349005Y-96068796D01*
X139324501Y-96070000D01*
X138424499Y-96070000D01*
X138399995Y-96068796D01*
X138375727Y-96065196D01*
X138351928Y-96059235D01*
X138328829Y-96050970D01*
X138306650Y-96040480D01*
X138285607Y-96027868D01*
X138265901Y-96013253D01*
X138247723Y-95996777D01*
X138231247Y-95978599D01*
X138216632Y-95958893D01*
X138204020Y-95937850D01*
X138193530Y-95915671D01*
X138185265Y-95892572D01*
X138179304Y-95868773D01*
X138175704Y-95844505D01*
X138174500Y-95820001D01*
X138174500Y-95169999D01*
X138175704Y-95145495D01*
X138179304Y-95121227D01*
X138185265Y-95097428D01*
X138193530Y-95074329D01*
X138204020Y-95052150D01*
X138216632Y-95031107D01*
X138231247Y-95011401D01*
X138247723Y-94993223D01*
X138265901Y-94976747D01*
X138285607Y-94962132D01*
X138306650Y-94949520D01*
X138328829Y-94939030D01*
X138351928Y-94930765D01*
X138375727Y-94924804D01*
X138399995Y-94921204D01*
X138424499Y-94920000D01*
X139324501Y-94920000D01*
X139349005Y-94921204D01*
X139349005Y-94921204D01*
G37*
D12*
X138874500Y-95495000D03*
D11*
G36*
X114584005Y-80319204D02*
G01*
X114608273Y-80322804D01*
X114632072Y-80328765D01*
X114655171Y-80337030D01*
X114677350Y-80347520D01*
X114698393Y-80360132D01*
X114718099Y-80374747D01*
X114736277Y-80391223D01*
X114752753Y-80409401D01*
X114767368Y-80429107D01*
X114779980Y-80450150D01*
X114790470Y-80472329D01*
X114798735Y-80495428D01*
X114804696Y-80519227D01*
X114808296Y-80543495D01*
X114809500Y-80567999D01*
X114809500Y-81218001D01*
X114808296Y-81242505D01*
X114804696Y-81266773D01*
X114798735Y-81290572D01*
X114790470Y-81313671D01*
X114779980Y-81335850D01*
X114767368Y-81356893D01*
X114752753Y-81376599D01*
X114736277Y-81394777D01*
X114718099Y-81411253D01*
X114698393Y-81425868D01*
X114677350Y-81438480D01*
X114655171Y-81448970D01*
X114632072Y-81457235D01*
X114608273Y-81463196D01*
X114584005Y-81466796D01*
X114559501Y-81468000D01*
X113659499Y-81468000D01*
X113634995Y-81466796D01*
X113610727Y-81463196D01*
X113586928Y-81457235D01*
X113563829Y-81448970D01*
X113541650Y-81438480D01*
X113520607Y-81425868D01*
X113500901Y-81411253D01*
X113482723Y-81394777D01*
X113466247Y-81376599D01*
X113451632Y-81356893D01*
X113439020Y-81335850D01*
X113428530Y-81313671D01*
X113420265Y-81290572D01*
X113414304Y-81266773D01*
X113410704Y-81242505D01*
X113409500Y-81218001D01*
X113409500Y-80567999D01*
X113410704Y-80543495D01*
X113414304Y-80519227D01*
X113420265Y-80495428D01*
X113428530Y-80472329D01*
X113439020Y-80450150D01*
X113451632Y-80429107D01*
X113466247Y-80409401D01*
X113482723Y-80391223D01*
X113500901Y-80374747D01*
X113520607Y-80360132D01*
X113541650Y-80347520D01*
X113563829Y-80337030D01*
X113586928Y-80328765D01*
X113610727Y-80322804D01*
X113634995Y-80319204D01*
X113659499Y-80318000D01*
X114559501Y-80318000D01*
X114584005Y-80319204D01*
X114584005Y-80319204D01*
G37*
D12*
X114109500Y-80893000D03*
D11*
G36*
X114584005Y-78269204D02*
G01*
X114608273Y-78272804D01*
X114632072Y-78278765D01*
X114655171Y-78287030D01*
X114677350Y-78297520D01*
X114698393Y-78310132D01*
X114718099Y-78324747D01*
X114736277Y-78341223D01*
X114752753Y-78359401D01*
X114767368Y-78379107D01*
X114779980Y-78400150D01*
X114790470Y-78422329D01*
X114798735Y-78445428D01*
X114804696Y-78469227D01*
X114808296Y-78493495D01*
X114809500Y-78517999D01*
X114809500Y-79168001D01*
X114808296Y-79192505D01*
X114804696Y-79216773D01*
X114798735Y-79240572D01*
X114790470Y-79263671D01*
X114779980Y-79285850D01*
X114767368Y-79306893D01*
X114752753Y-79326599D01*
X114736277Y-79344777D01*
X114718099Y-79361253D01*
X114698393Y-79375868D01*
X114677350Y-79388480D01*
X114655171Y-79398970D01*
X114632072Y-79407235D01*
X114608273Y-79413196D01*
X114584005Y-79416796D01*
X114559501Y-79418000D01*
X113659499Y-79418000D01*
X113634995Y-79416796D01*
X113610727Y-79413196D01*
X113586928Y-79407235D01*
X113563829Y-79398970D01*
X113541650Y-79388480D01*
X113520607Y-79375868D01*
X113500901Y-79361253D01*
X113482723Y-79344777D01*
X113466247Y-79326599D01*
X113451632Y-79306893D01*
X113439020Y-79285850D01*
X113428530Y-79263671D01*
X113420265Y-79240572D01*
X113414304Y-79216773D01*
X113410704Y-79192505D01*
X113409500Y-79168001D01*
X113409500Y-78517999D01*
X113410704Y-78493495D01*
X113414304Y-78469227D01*
X113420265Y-78445428D01*
X113428530Y-78422329D01*
X113439020Y-78400150D01*
X113451632Y-78379107D01*
X113466247Y-78359401D01*
X113482723Y-78341223D01*
X113500901Y-78324747D01*
X113520607Y-78310132D01*
X113541650Y-78297520D01*
X113563829Y-78287030D01*
X113586928Y-78278765D01*
X113610727Y-78272804D01*
X113634995Y-78269204D01*
X113659499Y-78268000D01*
X114559501Y-78268000D01*
X114584005Y-78269204D01*
X114584005Y-78269204D01*
G37*
D12*
X114109500Y-78843000D03*
D11*
G36*
X107531505Y-78104704D02*
G01*
X107555773Y-78108304D01*
X107579572Y-78114265D01*
X107602671Y-78122530D01*
X107624850Y-78133020D01*
X107645893Y-78145632D01*
X107665599Y-78160247D01*
X107683777Y-78176723D01*
X107700253Y-78194901D01*
X107714868Y-78214607D01*
X107727480Y-78235650D01*
X107737970Y-78257829D01*
X107746235Y-78280928D01*
X107752196Y-78304727D01*
X107755796Y-78328995D01*
X107757000Y-78353499D01*
X107757000Y-79253501D01*
X107755796Y-79278005D01*
X107752196Y-79302273D01*
X107746235Y-79326072D01*
X107737970Y-79349171D01*
X107727480Y-79371350D01*
X107714868Y-79392393D01*
X107700253Y-79412099D01*
X107683777Y-79430277D01*
X107665599Y-79446753D01*
X107645893Y-79461368D01*
X107624850Y-79473980D01*
X107602671Y-79484470D01*
X107579572Y-79492735D01*
X107555773Y-79498696D01*
X107531505Y-79502296D01*
X107507001Y-79503500D01*
X106856999Y-79503500D01*
X106832495Y-79502296D01*
X106808227Y-79498696D01*
X106784428Y-79492735D01*
X106761329Y-79484470D01*
X106739150Y-79473980D01*
X106718107Y-79461368D01*
X106698401Y-79446753D01*
X106680223Y-79430277D01*
X106663747Y-79412099D01*
X106649132Y-79392393D01*
X106636520Y-79371350D01*
X106626030Y-79349171D01*
X106617765Y-79326072D01*
X106611804Y-79302273D01*
X106608204Y-79278005D01*
X106607000Y-79253501D01*
X106607000Y-78353499D01*
X106608204Y-78328995D01*
X106611804Y-78304727D01*
X106617765Y-78280928D01*
X106626030Y-78257829D01*
X106636520Y-78235650D01*
X106649132Y-78214607D01*
X106663747Y-78194901D01*
X106680223Y-78176723D01*
X106698401Y-78160247D01*
X106718107Y-78145632D01*
X106739150Y-78133020D01*
X106761329Y-78122530D01*
X106784428Y-78114265D01*
X106808227Y-78108304D01*
X106832495Y-78104704D01*
X106856999Y-78103500D01*
X107507001Y-78103500D01*
X107531505Y-78104704D01*
X107531505Y-78104704D01*
G37*
D12*
X107182000Y-78803500D03*
D11*
G36*
X105481505Y-78104704D02*
G01*
X105505773Y-78108304D01*
X105529572Y-78114265D01*
X105552671Y-78122530D01*
X105574850Y-78133020D01*
X105595893Y-78145632D01*
X105615599Y-78160247D01*
X105633777Y-78176723D01*
X105650253Y-78194901D01*
X105664868Y-78214607D01*
X105677480Y-78235650D01*
X105687970Y-78257829D01*
X105696235Y-78280928D01*
X105702196Y-78304727D01*
X105705796Y-78328995D01*
X105707000Y-78353499D01*
X105707000Y-79253501D01*
X105705796Y-79278005D01*
X105702196Y-79302273D01*
X105696235Y-79326072D01*
X105687970Y-79349171D01*
X105677480Y-79371350D01*
X105664868Y-79392393D01*
X105650253Y-79412099D01*
X105633777Y-79430277D01*
X105615599Y-79446753D01*
X105595893Y-79461368D01*
X105574850Y-79473980D01*
X105552671Y-79484470D01*
X105529572Y-79492735D01*
X105505773Y-79498696D01*
X105481505Y-79502296D01*
X105457001Y-79503500D01*
X104806999Y-79503500D01*
X104782495Y-79502296D01*
X104758227Y-79498696D01*
X104734428Y-79492735D01*
X104711329Y-79484470D01*
X104689150Y-79473980D01*
X104668107Y-79461368D01*
X104648401Y-79446753D01*
X104630223Y-79430277D01*
X104613747Y-79412099D01*
X104599132Y-79392393D01*
X104586520Y-79371350D01*
X104576030Y-79349171D01*
X104567765Y-79326072D01*
X104561804Y-79302273D01*
X104558204Y-79278005D01*
X104557000Y-79253501D01*
X104557000Y-78353499D01*
X104558204Y-78328995D01*
X104561804Y-78304727D01*
X104567765Y-78280928D01*
X104576030Y-78257829D01*
X104586520Y-78235650D01*
X104599132Y-78214607D01*
X104613747Y-78194901D01*
X104630223Y-78176723D01*
X104648401Y-78160247D01*
X104668107Y-78145632D01*
X104689150Y-78133020D01*
X104711329Y-78122530D01*
X104734428Y-78114265D01*
X104758227Y-78108304D01*
X104782495Y-78104704D01*
X104806999Y-78103500D01*
X105457001Y-78103500D01*
X105481505Y-78104704D01*
X105481505Y-78104704D01*
G37*
D12*
X105132000Y-78803500D03*
D11*
G36*
X99217005Y-80261704D02*
G01*
X99241273Y-80265304D01*
X99265072Y-80271265D01*
X99288171Y-80279530D01*
X99310350Y-80290020D01*
X99331393Y-80302632D01*
X99351099Y-80317247D01*
X99369277Y-80333723D01*
X99385753Y-80351901D01*
X99400368Y-80371607D01*
X99412980Y-80392650D01*
X99423470Y-80414829D01*
X99431735Y-80437928D01*
X99437696Y-80461727D01*
X99441296Y-80485995D01*
X99442500Y-80510499D01*
X99442500Y-81160501D01*
X99441296Y-81185005D01*
X99437696Y-81209273D01*
X99431735Y-81233072D01*
X99423470Y-81256171D01*
X99412980Y-81278350D01*
X99400368Y-81299393D01*
X99385753Y-81319099D01*
X99369277Y-81337277D01*
X99351099Y-81353753D01*
X99331393Y-81368368D01*
X99310350Y-81380980D01*
X99288171Y-81391470D01*
X99265072Y-81399735D01*
X99241273Y-81405696D01*
X99217005Y-81409296D01*
X99192501Y-81410500D01*
X98292499Y-81410500D01*
X98267995Y-81409296D01*
X98243727Y-81405696D01*
X98219928Y-81399735D01*
X98196829Y-81391470D01*
X98174650Y-81380980D01*
X98153607Y-81368368D01*
X98133901Y-81353753D01*
X98115723Y-81337277D01*
X98099247Y-81319099D01*
X98084632Y-81299393D01*
X98072020Y-81278350D01*
X98061530Y-81256171D01*
X98053265Y-81233072D01*
X98047304Y-81209273D01*
X98043704Y-81185005D01*
X98042500Y-81160501D01*
X98042500Y-80510499D01*
X98043704Y-80485995D01*
X98047304Y-80461727D01*
X98053265Y-80437928D01*
X98061530Y-80414829D01*
X98072020Y-80392650D01*
X98084632Y-80371607D01*
X98099247Y-80351901D01*
X98115723Y-80333723D01*
X98133901Y-80317247D01*
X98153607Y-80302632D01*
X98174650Y-80290020D01*
X98196829Y-80279530D01*
X98219928Y-80271265D01*
X98243727Y-80265304D01*
X98267995Y-80261704D01*
X98292499Y-80260500D01*
X99192501Y-80260500D01*
X99217005Y-80261704D01*
X99217005Y-80261704D01*
G37*
D12*
X98742500Y-80835500D03*
D11*
G36*
X99217005Y-78211704D02*
G01*
X99241273Y-78215304D01*
X99265072Y-78221265D01*
X99288171Y-78229530D01*
X99310350Y-78240020D01*
X99331393Y-78252632D01*
X99351099Y-78267247D01*
X99369277Y-78283723D01*
X99385753Y-78301901D01*
X99400368Y-78321607D01*
X99412980Y-78342650D01*
X99423470Y-78364829D01*
X99431735Y-78387928D01*
X99437696Y-78411727D01*
X99441296Y-78435995D01*
X99442500Y-78460499D01*
X99442500Y-79110501D01*
X99441296Y-79135005D01*
X99437696Y-79159273D01*
X99431735Y-79183072D01*
X99423470Y-79206171D01*
X99412980Y-79228350D01*
X99400368Y-79249393D01*
X99385753Y-79269099D01*
X99369277Y-79287277D01*
X99351099Y-79303753D01*
X99331393Y-79318368D01*
X99310350Y-79330980D01*
X99288171Y-79341470D01*
X99265072Y-79349735D01*
X99241273Y-79355696D01*
X99217005Y-79359296D01*
X99192501Y-79360500D01*
X98292499Y-79360500D01*
X98267995Y-79359296D01*
X98243727Y-79355696D01*
X98219928Y-79349735D01*
X98196829Y-79341470D01*
X98174650Y-79330980D01*
X98153607Y-79318368D01*
X98133901Y-79303753D01*
X98115723Y-79287277D01*
X98099247Y-79269099D01*
X98084632Y-79249393D01*
X98072020Y-79228350D01*
X98061530Y-79206171D01*
X98053265Y-79183072D01*
X98047304Y-79159273D01*
X98043704Y-79135005D01*
X98042500Y-79110501D01*
X98042500Y-78460499D01*
X98043704Y-78435995D01*
X98047304Y-78411727D01*
X98053265Y-78387928D01*
X98061530Y-78364829D01*
X98072020Y-78342650D01*
X98084632Y-78321607D01*
X98099247Y-78301901D01*
X98115723Y-78283723D01*
X98133901Y-78267247D01*
X98153607Y-78252632D01*
X98174650Y-78240020D01*
X98196829Y-78229530D01*
X98219928Y-78221265D01*
X98243727Y-78215304D01*
X98267995Y-78211704D01*
X98292499Y-78210500D01*
X99192501Y-78210500D01*
X99217005Y-78211704D01*
X99217005Y-78211704D01*
G37*
D12*
X98742500Y-78785500D03*
D11*
G36*
X108297505Y-93043204D02*
G01*
X108321773Y-93046804D01*
X108345572Y-93052765D01*
X108368671Y-93061030D01*
X108390850Y-93071520D01*
X108411893Y-93084132D01*
X108431599Y-93098747D01*
X108449777Y-93115223D01*
X108466253Y-93133401D01*
X108480868Y-93153107D01*
X108493480Y-93174150D01*
X108503970Y-93196329D01*
X108512235Y-93219428D01*
X108518196Y-93243227D01*
X108521796Y-93267495D01*
X108523000Y-93291999D01*
X108523000Y-93942001D01*
X108521796Y-93966505D01*
X108518196Y-93990773D01*
X108512235Y-94014572D01*
X108503970Y-94037671D01*
X108493480Y-94059850D01*
X108480868Y-94080893D01*
X108466253Y-94100599D01*
X108449777Y-94118777D01*
X108431599Y-94135253D01*
X108411893Y-94149868D01*
X108390850Y-94162480D01*
X108368671Y-94172970D01*
X108345572Y-94181235D01*
X108321773Y-94187196D01*
X108297505Y-94190796D01*
X108273001Y-94192000D01*
X107372999Y-94192000D01*
X107348495Y-94190796D01*
X107324227Y-94187196D01*
X107300428Y-94181235D01*
X107277329Y-94172970D01*
X107255150Y-94162480D01*
X107234107Y-94149868D01*
X107214401Y-94135253D01*
X107196223Y-94118777D01*
X107179747Y-94100599D01*
X107165132Y-94080893D01*
X107152520Y-94059850D01*
X107142030Y-94037671D01*
X107133765Y-94014572D01*
X107127804Y-93990773D01*
X107124204Y-93966505D01*
X107123000Y-93942001D01*
X107123000Y-93291999D01*
X107124204Y-93267495D01*
X107127804Y-93243227D01*
X107133765Y-93219428D01*
X107142030Y-93196329D01*
X107152520Y-93174150D01*
X107165132Y-93153107D01*
X107179747Y-93133401D01*
X107196223Y-93115223D01*
X107214401Y-93098747D01*
X107234107Y-93084132D01*
X107255150Y-93071520D01*
X107277329Y-93061030D01*
X107300428Y-93052765D01*
X107324227Y-93046804D01*
X107348495Y-93043204D01*
X107372999Y-93042000D01*
X108273001Y-93042000D01*
X108297505Y-93043204D01*
X108297505Y-93043204D01*
G37*
D12*
X107823000Y-93617000D03*
D11*
G36*
X108297505Y-90993204D02*
G01*
X108321773Y-90996804D01*
X108345572Y-91002765D01*
X108368671Y-91011030D01*
X108390850Y-91021520D01*
X108411893Y-91034132D01*
X108431599Y-91048747D01*
X108449777Y-91065223D01*
X108466253Y-91083401D01*
X108480868Y-91103107D01*
X108493480Y-91124150D01*
X108503970Y-91146329D01*
X108512235Y-91169428D01*
X108518196Y-91193227D01*
X108521796Y-91217495D01*
X108523000Y-91241999D01*
X108523000Y-91892001D01*
X108521796Y-91916505D01*
X108518196Y-91940773D01*
X108512235Y-91964572D01*
X108503970Y-91987671D01*
X108493480Y-92009850D01*
X108480868Y-92030893D01*
X108466253Y-92050599D01*
X108449777Y-92068777D01*
X108431599Y-92085253D01*
X108411893Y-92099868D01*
X108390850Y-92112480D01*
X108368671Y-92122970D01*
X108345572Y-92131235D01*
X108321773Y-92137196D01*
X108297505Y-92140796D01*
X108273001Y-92142000D01*
X107372999Y-92142000D01*
X107348495Y-92140796D01*
X107324227Y-92137196D01*
X107300428Y-92131235D01*
X107277329Y-92122970D01*
X107255150Y-92112480D01*
X107234107Y-92099868D01*
X107214401Y-92085253D01*
X107196223Y-92068777D01*
X107179747Y-92050599D01*
X107165132Y-92030893D01*
X107152520Y-92009850D01*
X107142030Y-91987671D01*
X107133765Y-91964572D01*
X107127804Y-91940773D01*
X107124204Y-91916505D01*
X107123000Y-91892001D01*
X107123000Y-91241999D01*
X107124204Y-91217495D01*
X107127804Y-91193227D01*
X107133765Y-91169428D01*
X107142030Y-91146329D01*
X107152520Y-91124150D01*
X107165132Y-91103107D01*
X107179747Y-91083401D01*
X107196223Y-91065223D01*
X107214401Y-91048747D01*
X107234107Y-91034132D01*
X107255150Y-91021520D01*
X107277329Y-91011030D01*
X107300428Y-91002765D01*
X107324227Y-90996804D01*
X107348495Y-90993204D01*
X107372999Y-90992000D01*
X108273001Y-90992000D01*
X108297505Y-90993204D01*
X108297505Y-90993204D01*
G37*
D12*
X107823000Y-91567000D03*
D11*
G36*
X114647505Y-73461204D02*
G01*
X114671773Y-73464804D01*
X114695572Y-73470765D01*
X114718671Y-73479030D01*
X114740850Y-73489520D01*
X114761893Y-73502132D01*
X114781599Y-73516747D01*
X114799777Y-73533223D01*
X114816253Y-73551401D01*
X114830868Y-73571107D01*
X114843480Y-73592150D01*
X114853970Y-73614329D01*
X114862235Y-73637428D01*
X114868196Y-73661227D01*
X114871796Y-73685495D01*
X114873000Y-73709999D01*
X114873000Y-74360001D01*
X114871796Y-74384505D01*
X114868196Y-74408773D01*
X114862235Y-74432572D01*
X114853970Y-74455671D01*
X114843480Y-74477850D01*
X114830868Y-74498893D01*
X114816253Y-74518599D01*
X114799777Y-74536777D01*
X114781599Y-74553253D01*
X114761893Y-74567868D01*
X114740850Y-74580480D01*
X114718671Y-74590970D01*
X114695572Y-74599235D01*
X114671773Y-74605196D01*
X114647505Y-74608796D01*
X114623001Y-74610000D01*
X113722999Y-74610000D01*
X113698495Y-74608796D01*
X113674227Y-74605196D01*
X113650428Y-74599235D01*
X113627329Y-74590970D01*
X113605150Y-74580480D01*
X113584107Y-74567868D01*
X113564401Y-74553253D01*
X113546223Y-74536777D01*
X113529747Y-74518599D01*
X113515132Y-74498893D01*
X113502520Y-74477850D01*
X113492030Y-74455671D01*
X113483765Y-74432572D01*
X113477804Y-74408773D01*
X113474204Y-74384505D01*
X113473000Y-74360001D01*
X113473000Y-73709999D01*
X113474204Y-73685495D01*
X113477804Y-73661227D01*
X113483765Y-73637428D01*
X113492030Y-73614329D01*
X113502520Y-73592150D01*
X113515132Y-73571107D01*
X113529747Y-73551401D01*
X113546223Y-73533223D01*
X113564401Y-73516747D01*
X113584107Y-73502132D01*
X113605150Y-73489520D01*
X113627329Y-73479030D01*
X113650428Y-73470765D01*
X113674227Y-73464804D01*
X113698495Y-73461204D01*
X113722999Y-73460000D01*
X114623001Y-73460000D01*
X114647505Y-73461204D01*
X114647505Y-73461204D01*
G37*
D12*
X114173000Y-74035000D03*
D11*
G36*
X114647505Y-71411204D02*
G01*
X114671773Y-71414804D01*
X114695572Y-71420765D01*
X114718671Y-71429030D01*
X114740850Y-71439520D01*
X114761893Y-71452132D01*
X114781599Y-71466747D01*
X114799777Y-71483223D01*
X114816253Y-71501401D01*
X114830868Y-71521107D01*
X114843480Y-71542150D01*
X114853970Y-71564329D01*
X114862235Y-71587428D01*
X114868196Y-71611227D01*
X114871796Y-71635495D01*
X114873000Y-71659999D01*
X114873000Y-72310001D01*
X114871796Y-72334505D01*
X114868196Y-72358773D01*
X114862235Y-72382572D01*
X114853970Y-72405671D01*
X114843480Y-72427850D01*
X114830868Y-72448893D01*
X114816253Y-72468599D01*
X114799777Y-72486777D01*
X114781599Y-72503253D01*
X114761893Y-72517868D01*
X114740850Y-72530480D01*
X114718671Y-72540970D01*
X114695572Y-72549235D01*
X114671773Y-72555196D01*
X114647505Y-72558796D01*
X114623001Y-72560000D01*
X113722999Y-72560000D01*
X113698495Y-72558796D01*
X113674227Y-72555196D01*
X113650428Y-72549235D01*
X113627329Y-72540970D01*
X113605150Y-72530480D01*
X113584107Y-72517868D01*
X113564401Y-72503253D01*
X113546223Y-72486777D01*
X113529747Y-72468599D01*
X113515132Y-72448893D01*
X113502520Y-72427850D01*
X113492030Y-72405671D01*
X113483765Y-72382572D01*
X113477804Y-72358773D01*
X113474204Y-72334505D01*
X113473000Y-72310001D01*
X113473000Y-71659999D01*
X113474204Y-71635495D01*
X113477804Y-71611227D01*
X113483765Y-71587428D01*
X113492030Y-71564329D01*
X113502520Y-71542150D01*
X113515132Y-71521107D01*
X113529747Y-71501401D01*
X113546223Y-71483223D01*
X113564401Y-71466747D01*
X113584107Y-71452132D01*
X113605150Y-71439520D01*
X113627329Y-71429030D01*
X113650428Y-71420765D01*
X113674227Y-71414804D01*
X113698495Y-71411204D01*
X113722999Y-71410000D01*
X114623001Y-71410000D01*
X114647505Y-71411204D01*
X114647505Y-71411204D01*
G37*
D12*
X114173000Y-71985000D03*
D11*
G36*
X102076505Y-90868204D02*
G01*
X102100773Y-90871804D01*
X102124572Y-90877765D01*
X102147671Y-90886030D01*
X102169850Y-90896520D01*
X102190893Y-90909132D01*
X102210599Y-90923747D01*
X102228777Y-90940223D01*
X102245253Y-90958401D01*
X102259868Y-90978107D01*
X102272480Y-90999150D01*
X102282970Y-91021329D01*
X102291235Y-91044428D01*
X102297196Y-91068227D01*
X102300796Y-91092495D01*
X102302000Y-91116999D01*
X102302000Y-92017001D01*
X102300796Y-92041505D01*
X102297196Y-92065773D01*
X102291235Y-92089572D01*
X102282970Y-92112671D01*
X102272480Y-92134850D01*
X102259868Y-92155893D01*
X102245253Y-92175599D01*
X102228777Y-92193777D01*
X102210599Y-92210253D01*
X102190893Y-92224868D01*
X102169850Y-92237480D01*
X102147671Y-92247970D01*
X102124572Y-92256235D01*
X102100773Y-92262196D01*
X102076505Y-92265796D01*
X102052001Y-92267000D01*
X101401999Y-92267000D01*
X101377495Y-92265796D01*
X101353227Y-92262196D01*
X101329428Y-92256235D01*
X101306329Y-92247970D01*
X101284150Y-92237480D01*
X101263107Y-92224868D01*
X101243401Y-92210253D01*
X101225223Y-92193777D01*
X101208747Y-92175599D01*
X101194132Y-92155893D01*
X101181520Y-92134850D01*
X101171030Y-92112671D01*
X101162765Y-92089572D01*
X101156804Y-92065773D01*
X101153204Y-92041505D01*
X101152000Y-92017001D01*
X101152000Y-91116999D01*
X101153204Y-91092495D01*
X101156804Y-91068227D01*
X101162765Y-91044428D01*
X101171030Y-91021329D01*
X101181520Y-90999150D01*
X101194132Y-90978107D01*
X101208747Y-90958401D01*
X101225223Y-90940223D01*
X101243401Y-90923747D01*
X101263107Y-90909132D01*
X101284150Y-90896520D01*
X101306329Y-90886030D01*
X101329428Y-90877765D01*
X101353227Y-90871804D01*
X101377495Y-90868204D01*
X101401999Y-90867000D01*
X102052001Y-90867000D01*
X102076505Y-90868204D01*
X102076505Y-90868204D01*
G37*
D12*
X101727000Y-91567000D03*
D11*
G36*
X100026505Y-90868204D02*
G01*
X100050773Y-90871804D01*
X100074572Y-90877765D01*
X100097671Y-90886030D01*
X100119850Y-90896520D01*
X100140893Y-90909132D01*
X100160599Y-90923747D01*
X100178777Y-90940223D01*
X100195253Y-90958401D01*
X100209868Y-90978107D01*
X100222480Y-90999150D01*
X100232970Y-91021329D01*
X100241235Y-91044428D01*
X100247196Y-91068227D01*
X100250796Y-91092495D01*
X100252000Y-91116999D01*
X100252000Y-92017001D01*
X100250796Y-92041505D01*
X100247196Y-92065773D01*
X100241235Y-92089572D01*
X100232970Y-92112671D01*
X100222480Y-92134850D01*
X100209868Y-92155893D01*
X100195253Y-92175599D01*
X100178777Y-92193777D01*
X100160599Y-92210253D01*
X100140893Y-92224868D01*
X100119850Y-92237480D01*
X100097671Y-92247970D01*
X100074572Y-92256235D01*
X100050773Y-92262196D01*
X100026505Y-92265796D01*
X100002001Y-92267000D01*
X99351999Y-92267000D01*
X99327495Y-92265796D01*
X99303227Y-92262196D01*
X99279428Y-92256235D01*
X99256329Y-92247970D01*
X99234150Y-92237480D01*
X99213107Y-92224868D01*
X99193401Y-92210253D01*
X99175223Y-92193777D01*
X99158747Y-92175599D01*
X99144132Y-92155893D01*
X99131520Y-92134850D01*
X99121030Y-92112671D01*
X99112765Y-92089572D01*
X99106804Y-92065773D01*
X99103204Y-92041505D01*
X99102000Y-92017001D01*
X99102000Y-91116999D01*
X99103204Y-91092495D01*
X99106804Y-91068227D01*
X99112765Y-91044428D01*
X99121030Y-91021329D01*
X99131520Y-90999150D01*
X99144132Y-90978107D01*
X99158747Y-90958401D01*
X99175223Y-90940223D01*
X99193401Y-90923747D01*
X99213107Y-90909132D01*
X99234150Y-90896520D01*
X99256329Y-90886030D01*
X99279428Y-90877765D01*
X99303227Y-90871804D01*
X99327495Y-90868204D01*
X99351999Y-90867000D01*
X100002001Y-90867000D01*
X100026505Y-90868204D01*
X100026505Y-90868204D01*
G37*
D12*
X99677000Y-91567000D03*
D11*
G36*
X107434505Y-71246704D02*
G01*
X107458773Y-71250304D01*
X107482572Y-71256265D01*
X107505671Y-71264530D01*
X107527850Y-71275020D01*
X107548893Y-71287632D01*
X107568599Y-71302247D01*
X107586777Y-71318723D01*
X107603253Y-71336901D01*
X107617868Y-71356607D01*
X107630480Y-71377650D01*
X107640970Y-71399829D01*
X107649235Y-71422928D01*
X107655196Y-71446727D01*
X107658796Y-71470995D01*
X107660000Y-71495499D01*
X107660000Y-72395501D01*
X107658796Y-72420005D01*
X107655196Y-72444273D01*
X107649235Y-72468072D01*
X107640970Y-72491171D01*
X107630480Y-72513350D01*
X107617868Y-72534393D01*
X107603253Y-72554099D01*
X107586777Y-72572277D01*
X107568599Y-72588753D01*
X107548893Y-72603368D01*
X107527850Y-72615980D01*
X107505671Y-72626470D01*
X107482572Y-72634735D01*
X107458773Y-72640696D01*
X107434505Y-72644296D01*
X107410001Y-72645500D01*
X106759999Y-72645500D01*
X106735495Y-72644296D01*
X106711227Y-72640696D01*
X106687428Y-72634735D01*
X106664329Y-72626470D01*
X106642150Y-72615980D01*
X106621107Y-72603368D01*
X106601401Y-72588753D01*
X106583223Y-72572277D01*
X106566747Y-72554099D01*
X106552132Y-72534393D01*
X106539520Y-72513350D01*
X106529030Y-72491171D01*
X106520765Y-72468072D01*
X106514804Y-72444273D01*
X106511204Y-72420005D01*
X106510000Y-72395501D01*
X106510000Y-71495499D01*
X106511204Y-71470995D01*
X106514804Y-71446727D01*
X106520765Y-71422928D01*
X106529030Y-71399829D01*
X106539520Y-71377650D01*
X106552132Y-71356607D01*
X106566747Y-71336901D01*
X106583223Y-71318723D01*
X106601401Y-71302247D01*
X106621107Y-71287632D01*
X106642150Y-71275020D01*
X106664329Y-71264530D01*
X106687428Y-71256265D01*
X106711227Y-71250304D01*
X106735495Y-71246704D01*
X106759999Y-71245500D01*
X107410001Y-71245500D01*
X107434505Y-71246704D01*
X107434505Y-71246704D01*
G37*
D12*
X107085000Y-71945500D03*
D11*
G36*
X105384505Y-71246704D02*
G01*
X105408773Y-71250304D01*
X105432572Y-71256265D01*
X105455671Y-71264530D01*
X105477850Y-71275020D01*
X105498893Y-71287632D01*
X105518599Y-71302247D01*
X105536777Y-71318723D01*
X105553253Y-71336901D01*
X105567868Y-71356607D01*
X105580480Y-71377650D01*
X105590970Y-71399829D01*
X105599235Y-71422928D01*
X105605196Y-71446727D01*
X105608796Y-71470995D01*
X105610000Y-71495499D01*
X105610000Y-72395501D01*
X105608796Y-72420005D01*
X105605196Y-72444273D01*
X105599235Y-72468072D01*
X105590970Y-72491171D01*
X105580480Y-72513350D01*
X105567868Y-72534393D01*
X105553253Y-72554099D01*
X105536777Y-72572277D01*
X105518599Y-72588753D01*
X105498893Y-72603368D01*
X105477850Y-72615980D01*
X105455671Y-72626470D01*
X105432572Y-72634735D01*
X105408773Y-72640696D01*
X105384505Y-72644296D01*
X105360001Y-72645500D01*
X104709999Y-72645500D01*
X104685495Y-72644296D01*
X104661227Y-72640696D01*
X104637428Y-72634735D01*
X104614329Y-72626470D01*
X104592150Y-72615980D01*
X104571107Y-72603368D01*
X104551401Y-72588753D01*
X104533223Y-72572277D01*
X104516747Y-72554099D01*
X104502132Y-72534393D01*
X104489520Y-72513350D01*
X104479030Y-72491171D01*
X104470765Y-72468072D01*
X104464804Y-72444273D01*
X104461204Y-72420005D01*
X104460000Y-72395501D01*
X104460000Y-71495499D01*
X104461204Y-71470995D01*
X104464804Y-71446727D01*
X104470765Y-71422928D01*
X104479030Y-71399829D01*
X104489520Y-71377650D01*
X104502132Y-71356607D01*
X104516747Y-71336901D01*
X104533223Y-71318723D01*
X104551401Y-71302247D01*
X104571107Y-71287632D01*
X104592150Y-71275020D01*
X104614329Y-71264530D01*
X104637428Y-71256265D01*
X104661227Y-71250304D01*
X104685495Y-71246704D01*
X104709999Y-71245500D01*
X105360001Y-71245500D01*
X105384505Y-71246704D01*
X105384505Y-71246704D01*
G37*
D12*
X105035000Y-71945500D03*
D11*
G36*
X95788005Y-93025204D02*
G01*
X95812273Y-93028804D01*
X95836072Y-93034765D01*
X95859171Y-93043030D01*
X95881350Y-93053520D01*
X95902393Y-93066132D01*
X95922099Y-93080747D01*
X95940277Y-93097223D01*
X95956753Y-93115401D01*
X95971368Y-93135107D01*
X95983980Y-93156150D01*
X95994470Y-93178329D01*
X96002735Y-93201428D01*
X96008696Y-93225227D01*
X96012296Y-93249495D01*
X96013500Y-93273999D01*
X96013500Y-93924001D01*
X96012296Y-93948505D01*
X96008696Y-93972773D01*
X96002735Y-93996572D01*
X95994470Y-94019671D01*
X95983980Y-94041850D01*
X95971368Y-94062893D01*
X95956753Y-94082599D01*
X95940277Y-94100777D01*
X95922099Y-94117253D01*
X95902393Y-94131868D01*
X95881350Y-94144480D01*
X95859171Y-94154970D01*
X95836072Y-94163235D01*
X95812273Y-94169196D01*
X95788005Y-94172796D01*
X95763501Y-94174000D01*
X94863499Y-94174000D01*
X94838995Y-94172796D01*
X94814727Y-94169196D01*
X94790928Y-94163235D01*
X94767829Y-94154970D01*
X94745650Y-94144480D01*
X94724607Y-94131868D01*
X94704901Y-94117253D01*
X94686723Y-94100777D01*
X94670247Y-94082599D01*
X94655632Y-94062893D01*
X94643020Y-94041850D01*
X94632530Y-94019671D01*
X94624265Y-93996572D01*
X94618304Y-93972773D01*
X94614704Y-93948505D01*
X94613500Y-93924001D01*
X94613500Y-93273999D01*
X94614704Y-93249495D01*
X94618304Y-93225227D01*
X94624265Y-93201428D01*
X94632530Y-93178329D01*
X94643020Y-93156150D01*
X94655632Y-93135107D01*
X94670247Y-93115401D01*
X94686723Y-93097223D01*
X94704901Y-93080747D01*
X94724607Y-93066132D01*
X94745650Y-93053520D01*
X94767829Y-93043030D01*
X94790928Y-93034765D01*
X94814727Y-93028804D01*
X94838995Y-93025204D01*
X94863499Y-93024000D01*
X95763501Y-93024000D01*
X95788005Y-93025204D01*
X95788005Y-93025204D01*
G37*
D12*
X95313500Y-93599000D03*
D11*
G36*
X95788005Y-90975204D02*
G01*
X95812273Y-90978804D01*
X95836072Y-90984765D01*
X95859171Y-90993030D01*
X95881350Y-91003520D01*
X95902393Y-91016132D01*
X95922099Y-91030747D01*
X95940277Y-91047223D01*
X95956753Y-91065401D01*
X95971368Y-91085107D01*
X95983980Y-91106150D01*
X95994470Y-91128329D01*
X96002735Y-91151428D01*
X96008696Y-91175227D01*
X96012296Y-91199495D01*
X96013500Y-91223999D01*
X96013500Y-91874001D01*
X96012296Y-91898505D01*
X96008696Y-91922773D01*
X96002735Y-91946572D01*
X95994470Y-91969671D01*
X95983980Y-91991850D01*
X95971368Y-92012893D01*
X95956753Y-92032599D01*
X95940277Y-92050777D01*
X95922099Y-92067253D01*
X95902393Y-92081868D01*
X95881350Y-92094480D01*
X95859171Y-92104970D01*
X95836072Y-92113235D01*
X95812273Y-92119196D01*
X95788005Y-92122796D01*
X95763501Y-92124000D01*
X94863499Y-92124000D01*
X94838995Y-92122796D01*
X94814727Y-92119196D01*
X94790928Y-92113235D01*
X94767829Y-92104970D01*
X94745650Y-92094480D01*
X94724607Y-92081868D01*
X94704901Y-92067253D01*
X94686723Y-92050777D01*
X94670247Y-92032599D01*
X94655632Y-92012893D01*
X94643020Y-91991850D01*
X94632530Y-91969671D01*
X94624265Y-91946572D01*
X94618304Y-91922773D01*
X94614704Y-91898505D01*
X94613500Y-91874001D01*
X94613500Y-91223999D01*
X94614704Y-91199495D01*
X94618304Y-91175227D01*
X94624265Y-91151428D01*
X94632530Y-91128329D01*
X94643020Y-91106150D01*
X94655632Y-91085107D01*
X94670247Y-91065401D01*
X94686723Y-91047223D01*
X94704901Y-91030747D01*
X94724607Y-91016132D01*
X94745650Y-91003520D01*
X94767829Y-90993030D01*
X94790928Y-90984765D01*
X94814727Y-90978804D01*
X94838995Y-90975204D01*
X94863499Y-90974000D01*
X95763501Y-90974000D01*
X95788005Y-90975204D01*
X95788005Y-90975204D01*
G37*
D12*
X95313500Y-91549000D03*
D11*
G36*
X99153505Y-73364204D02*
G01*
X99177773Y-73367804D01*
X99201572Y-73373765D01*
X99224671Y-73382030D01*
X99246850Y-73392520D01*
X99267893Y-73405132D01*
X99287599Y-73419747D01*
X99305777Y-73436223D01*
X99322253Y-73454401D01*
X99336868Y-73474107D01*
X99349480Y-73495150D01*
X99359970Y-73517329D01*
X99368235Y-73540428D01*
X99374196Y-73564227D01*
X99377796Y-73588495D01*
X99379000Y-73612999D01*
X99379000Y-74263001D01*
X99377796Y-74287505D01*
X99374196Y-74311773D01*
X99368235Y-74335572D01*
X99359970Y-74358671D01*
X99349480Y-74380850D01*
X99336868Y-74401893D01*
X99322253Y-74421599D01*
X99305777Y-74439777D01*
X99287599Y-74456253D01*
X99267893Y-74470868D01*
X99246850Y-74483480D01*
X99224671Y-74493970D01*
X99201572Y-74502235D01*
X99177773Y-74508196D01*
X99153505Y-74511796D01*
X99129001Y-74513000D01*
X98228999Y-74513000D01*
X98204495Y-74511796D01*
X98180227Y-74508196D01*
X98156428Y-74502235D01*
X98133329Y-74493970D01*
X98111150Y-74483480D01*
X98090107Y-74470868D01*
X98070401Y-74456253D01*
X98052223Y-74439777D01*
X98035747Y-74421599D01*
X98021132Y-74401893D01*
X98008520Y-74380850D01*
X97998030Y-74358671D01*
X97989765Y-74335572D01*
X97983804Y-74311773D01*
X97980204Y-74287505D01*
X97979000Y-74263001D01*
X97979000Y-73612999D01*
X97980204Y-73588495D01*
X97983804Y-73564227D01*
X97989765Y-73540428D01*
X97998030Y-73517329D01*
X98008520Y-73495150D01*
X98021132Y-73474107D01*
X98035747Y-73454401D01*
X98052223Y-73436223D01*
X98070401Y-73419747D01*
X98090107Y-73405132D01*
X98111150Y-73392520D01*
X98133329Y-73382030D01*
X98156428Y-73373765D01*
X98180227Y-73367804D01*
X98204495Y-73364204D01*
X98228999Y-73363000D01*
X99129001Y-73363000D01*
X99153505Y-73364204D01*
X99153505Y-73364204D01*
G37*
D12*
X98679000Y-73938000D03*
D11*
G36*
X99153505Y-71314204D02*
G01*
X99177773Y-71317804D01*
X99201572Y-71323765D01*
X99224671Y-71332030D01*
X99246850Y-71342520D01*
X99267893Y-71355132D01*
X99287599Y-71369747D01*
X99305777Y-71386223D01*
X99322253Y-71404401D01*
X99336868Y-71424107D01*
X99349480Y-71445150D01*
X99359970Y-71467329D01*
X99368235Y-71490428D01*
X99374196Y-71514227D01*
X99377796Y-71538495D01*
X99379000Y-71562999D01*
X99379000Y-72213001D01*
X99377796Y-72237505D01*
X99374196Y-72261773D01*
X99368235Y-72285572D01*
X99359970Y-72308671D01*
X99349480Y-72330850D01*
X99336868Y-72351893D01*
X99322253Y-72371599D01*
X99305777Y-72389777D01*
X99287599Y-72406253D01*
X99267893Y-72420868D01*
X99246850Y-72433480D01*
X99224671Y-72443970D01*
X99201572Y-72452235D01*
X99177773Y-72458196D01*
X99153505Y-72461796D01*
X99129001Y-72463000D01*
X98228999Y-72463000D01*
X98204495Y-72461796D01*
X98180227Y-72458196D01*
X98156428Y-72452235D01*
X98133329Y-72443970D01*
X98111150Y-72433480D01*
X98090107Y-72420868D01*
X98070401Y-72406253D01*
X98052223Y-72389777D01*
X98035747Y-72371599D01*
X98021132Y-72351893D01*
X98008520Y-72330850D01*
X97998030Y-72308671D01*
X97989765Y-72285572D01*
X97983804Y-72261773D01*
X97980204Y-72237505D01*
X97979000Y-72213001D01*
X97979000Y-71562999D01*
X97980204Y-71538495D01*
X97983804Y-71514227D01*
X97989765Y-71490428D01*
X97998030Y-71467329D01*
X98008520Y-71445150D01*
X98021132Y-71424107D01*
X98035747Y-71404401D01*
X98052223Y-71386223D01*
X98070401Y-71369747D01*
X98090107Y-71355132D01*
X98111150Y-71342520D01*
X98133329Y-71332030D01*
X98156428Y-71323765D01*
X98180227Y-71317804D01*
X98204495Y-71314204D01*
X98228999Y-71313000D01*
X99129001Y-71313000D01*
X99153505Y-71314204D01*
X99153505Y-71314204D01*
G37*
D12*
X98679000Y-71888000D03*
D13*
X118968500Y-86042500D03*
X118968500Y-85092500D03*
X118968500Y-86992500D03*
X116268500Y-86992500D03*
X116268500Y-86042500D03*
X116268500Y-85092500D03*
D14*
X141546500Y-102679500D03*
D11*
G36*
X140046500Y-105179500D02*
G01*
X140046500Y-100179500D01*
X143046500Y-100179500D01*
X143046500Y-105179500D01*
X140046500Y-105179500D01*
X140046500Y-105179500D01*
G37*
D15*
X138828000Y-102679500D03*
D11*
G36*
X138078000Y-103229500D02*
G01*
X138078000Y-102129500D01*
X139578000Y-102129500D01*
X139578000Y-103229500D01*
X138078000Y-103229500D01*
X138078000Y-103229500D01*
G37*
D16*
X138828000Y-104179500D03*
D11*
G36*
X138078000Y-104579500D02*
G01*
X138078000Y-103779500D01*
X139578000Y-103779500D01*
X139578000Y-104579500D01*
X138078000Y-104579500D01*
X138078000Y-104579500D01*
G37*
D16*
X138828000Y-101179500D03*
D11*
G36*
X138078000Y-101579500D02*
G01*
X138078000Y-100779500D01*
X139578000Y-100779500D01*
X139578000Y-101579500D01*
X138078000Y-101579500D01*
X138078000Y-101579500D01*
G37*
G36*
X82527505Y-106933704D02*
G01*
X82551773Y-106937304D01*
X82575572Y-106943265D01*
X82598671Y-106951530D01*
X82620850Y-106962020D01*
X82641893Y-106974632D01*
X82661599Y-106989247D01*
X82679777Y-107005723D01*
X82696253Y-107023901D01*
X82710868Y-107043607D01*
X82723480Y-107064650D01*
X82733970Y-107086829D01*
X82742235Y-107109928D01*
X82748196Y-107133727D01*
X82751796Y-107157995D01*
X82753000Y-107182499D01*
X82753000Y-108082501D01*
X82751796Y-108107005D01*
X82748196Y-108131273D01*
X82742235Y-108155072D01*
X82733970Y-108178171D01*
X82723480Y-108200350D01*
X82710868Y-108221393D01*
X82696253Y-108241099D01*
X82679777Y-108259277D01*
X82661599Y-108275753D01*
X82641893Y-108290368D01*
X82620850Y-108302980D01*
X82598671Y-108313470D01*
X82575572Y-108321735D01*
X82551773Y-108327696D01*
X82527505Y-108331296D01*
X82503001Y-108332500D01*
X81852999Y-108332500D01*
X81828495Y-108331296D01*
X81804227Y-108327696D01*
X81780428Y-108321735D01*
X81757329Y-108313470D01*
X81735150Y-108302980D01*
X81714107Y-108290368D01*
X81694401Y-108275753D01*
X81676223Y-108259277D01*
X81659747Y-108241099D01*
X81645132Y-108221393D01*
X81632520Y-108200350D01*
X81622030Y-108178171D01*
X81613765Y-108155072D01*
X81607804Y-108131273D01*
X81604204Y-108107005D01*
X81603000Y-108082501D01*
X81603000Y-107182499D01*
X81604204Y-107157995D01*
X81607804Y-107133727D01*
X81613765Y-107109928D01*
X81622030Y-107086829D01*
X81632520Y-107064650D01*
X81645132Y-107043607D01*
X81659747Y-107023901D01*
X81676223Y-107005723D01*
X81694401Y-106989247D01*
X81714107Y-106974632D01*
X81735150Y-106962020D01*
X81757329Y-106951530D01*
X81780428Y-106943265D01*
X81804227Y-106937304D01*
X81828495Y-106933704D01*
X81852999Y-106932500D01*
X82503001Y-106932500D01*
X82527505Y-106933704D01*
X82527505Y-106933704D01*
G37*
D12*
X82178000Y-107632500D03*
D11*
G36*
X80477505Y-106933704D02*
G01*
X80501773Y-106937304D01*
X80525572Y-106943265D01*
X80548671Y-106951530D01*
X80570850Y-106962020D01*
X80591893Y-106974632D01*
X80611599Y-106989247D01*
X80629777Y-107005723D01*
X80646253Y-107023901D01*
X80660868Y-107043607D01*
X80673480Y-107064650D01*
X80683970Y-107086829D01*
X80692235Y-107109928D01*
X80698196Y-107133727D01*
X80701796Y-107157995D01*
X80703000Y-107182499D01*
X80703000Y-108082501D01*
X80701796Y-108107005D01*
X80698196Y-108131273D01*
X80692235Y-108155072D01*
X80683970Y-108178171D01*
X80673480Y-108200350D01*
X80660868Y-108221393D01*
X80646253Y-108241099D01*
X80629777Y-108259277D01*
X80611599Y-108275753D01*
X80591893Y-108290368D01*
X80570850Y-108302980D01*
X80548671Y-108313470D01*
X80525572Y-108321735D01*
X80501773Y-108327696D01*
X80477505Y-108331296D01*
X80453001Y-108332500D01*
X79802999Y-108332500D01*
X79778495Y-108331296D01*
X79754227Y-108327696D01*
X79730428Y-108321735D01*
X79707329Y-108313470D01*
X79685150Y-108302980D01*
X79664107Y-108290368D01*
X79644401Y-108275753D01*
X79626223Y-108259277D01*
X79609747Y-108241099D01*
X79595132Y-108221393D01*
X79582520Y-108200350D01*
X79572030Y-108178171D01*
X79563765Y-108155072D01*
X79557804Y-108131273D01*
X79554204Y-108107005D01*
X79553000Y-108082501D01*
X79553000Y-107182499D01*
X79554204Y-107157995D01*
X79557804Y-107133727D01*
X79563765Y-107109928D01*
X79572030Y-107086829D01*
X79582520Y-107064650D01*
X79595132Y-107043607D01*
X79609747Y-107023901D01*
X79626223Y-107005723D01*
X79644401Y-106989247D01*
X79664107Y-106974632D01*
X79685150Y-106962020D01*
X79707329Y-106951530D01*
X79730428Y-106943265D01*
X79754227Y-106937304D01*
X79778495Y-106933704D01*
X79802999Y-106932500D01*
X80453001Y-106932500D01*
X80477505Y-106933704D01*
X80477505Y-106933704D01*
G37*
D12*
X80128000Y-107632500D03*
D11*
G36*
X82536505Y-103504704D02*
G01*
X82560773Y-103508304D01*
X82584572Y-103514265D01*
X82607671Y-103522530D01*
X82629850Y-103533020D01*
X82650893Y-103545632D01*
X82670599Y-103560247D01*
X82688777Y-103576723D01*
X82705253Y-103594901D01*
X82719868Y-103614607D01*
X82732480Y-103635650D01*
X82742970Y-103657829D01*
X82751235Y-103680928D01*
X82757196Y-103704727D01*
X82760796Y-103728995D01*
X82762000Y-103753499D01*
X82762000Y-104653501D01*
X82760796Y-104678005D01*
X82757196Y-104702273D01*
X82751235Y-104726072D01*
X82742970Y-104749171D01*
X82732480Y-104771350D01*
X82719868Y-104792393D01*
X82705253Y-104812099D01*
X82688777Y-104830277D01*
X82670599Y-104846753D01*
X82650893Y-104861368D01*
X82629850Y-104873980D01*
X82607671Y-104884470D01*
X82584572Y-104892735D01*
X82560773Y-104898696D01*
X82536505Y-104902296D01*
X82512001Y-104903500D01*
X81861999Y-104903500D01*
X81837495Y-104902296D01*
X81813227Y-104898696D01*
X81789428Y-104892735D01*
X81766329Y-104884470D01*
X81744150Y-104873980D01*
X81723107Y-104861368D01*
X81703401Y-104846753D01*
X81685223Y-104830277D01*
X81668747Y-104812099D01*
X81654132Y-104792393D01*
X81641520Y-104771350D01*
X81631030Y-104749171D01*
X81622765Y-104726072D01*
X81616804Y-104702273D01*
X81613204Y-104678005D01*
X81612000Y-104653501D01*
X81612000Y-103753499D01*
X81613204Y-103728995D01*
X81616804Y-103704727D01*
X81622765Y-103680928D01*
X81631030Y-103657829D01*
X81641520Y-103635650D01*
X81654132Y-103614607D01*
X81668747Y-103594901D01*
X81685223Y-103576723D01*
X81703401Y-103560247D01*
X81723107Y-103545632D01*
X81744150Y-103533020D01*
X81766329Y-103522530D01*
X81789428Y-103514265D01*
X81813227Y-103508304D01*
X81837495Y-103504704D01*
X81861999Y-103503500D01*
X82512001Y-103503500D01*
X82536505Y-103504704D01*
X82536505Y-103504704D01*
G37*
D12*
X82187000Y-104203500D03*
D11*
G36*
X80486505Y-103504704D02*
G01*
X80510773Y-103508304D01*
X80534572Y-103514265D01*
X80557671Y-103522530D01*
X80579850Y-103533020D01*
X80600893Y-103545632D01*
X80620599Y-103560247D01*
X80638777Y-103576723D01*
X80655253Y-103594901D01*
X80669868Y-103614607D01*
X80682480Y-103635650D01*
X80692970Y-103657829D01*
X80701235Y-103680928D01*
X80707196Y-103704727D01*
X80710796Y-103728995D01*
X80712000Y-103753499D01*
X80712000Y-104653501D01*
X80710796Y-104678005D01*
X80707196Y-104702273D01*
X80701235Y-104726072D01*
X80692970Y-104749171D01*
X80682480Y-104771350D01*
X80669868Y-104792393D01*
X80655253Y-104812099D01*
X80638777Y-104830277D01*
X80620599Y-104846753D01*
X80600893Y-104861368D01*
X80579850Y-104873980D01*
X80557671Y-104884470D01*
X80534572Y-104892735D01*
X80510773Y-104898696D01*
X80486505Y-104902296D01*
X80462001Y-104903500D01*
X79811999Y-104903500D01*
X79787495Y-104902296D01*
X79763227Y-104898696D01*
X79739428Y-104892735D01*
X79716329Y-104884470D01*
X79694150Y-104873980D01*
X79673107Y-104861368D01*
X79653401Y-104846753D01*
X79635223Y-104830277D01*
X79618747Y-104812099D01*
X79604132Y-104792393D01*
X79591520Y-104771350D01*
X79581030Y-104749171D01*
X79572765Y-104726072D01*
X79566804Y-104702273D01*
X79563204Y-104678005D01*
X79562000Y-104653501D01*
X79562000Y-103753499D01*
X79563204Y-103728995D01*
X79566804Y-103704727D01*
X79572765Y-103680928D01*
X79581030Y-103657829D01*
X79591520Y-103635650D01*
X79604132Y-103614607D01*
X79618747Y-103594901D01*
X79635223Y-103576723D01*
X79653401Y-103560247D01*
X79673107Y-103545632D01*
X79694150Y-103533020D01*
X79716329Y-103522530D01*
X79739428Y-103514265D01*
X79763227Y-103508304D01*
X79787495Y-103504704D01*
X79811999Y-103503500D01*
X80462001Y-103503500D01*
X80486505Y-103504704D01*
X80486505Y-103504704D01*
G37*
D12*
X80137000Y-104203500D03*
D11*
G36*
X82518505Y-100139204D02*
G01*
X82542773Y-100142804D01*
X82566572Y-100148765D01*
X82589671Y-100157030D01*
X82611850Y-100167520D01*
X82632893Y-100180132D01*
X82652599Y-100194747D01*
X82670777Y-100211223D01*
X82687253Y-100229401D01*
X82701868Y-100249107D01*
X82714480Y-100270150D01*
X82724970Y-100292329D01*
X82733235Y-100315428D01*
X82739196Y-100339227D01*
X82742796Y-100363495D01*
X82744000Y-100387999D01*
X82744000Y-101288001D01*
X82742796Y-101312505D01*
X82739196Y-101336773D01*
X82733235Y-101360572D01*
X82724970Y-101383671D01*
X82714480Y-101405850D01*
X82701868Y-101426893D01*
X82687253Y-101446599D01*
X82670777Y-101464777D01*
X82652599Y-101481253D01*
X82632893Y-101495868D01*
X82611850Y-101508480D01*
X82589671Y-101518970D01*
X82566572Y-101527235D01*
X82542773Y-101533196D01*
X82518505Y-101536796D01*
X82494001Y-101538000D01*
X81843999Y-101538000D01*
X81819495Y-101536796D01*
X81795227Y-101533196D01*
X81771428Y-101527235D01*
X81748329Y-101518970D01*
X81726150Y-101508480D01*
X81705107Y-101495868D01*
X81685401Y-101481253D01*
X81667223Y-101464777D01*
X81650747Y-101446599D01*
X81636132Y-101426893D01*
X81623520Y-101405850D01*
X81613030Y-101383671D01*
X81604765Y-101360572D01*
X81598804Y-101336773D01*
X81595204Y-101312505D01*
X81594000Y-101288001D01*
X81594000Y-100387999D01*
X81595204Y-100363495D01*
X81598804Y-100339227D01*
X81604765Y-100315428D01*
X81613030Y-100292329D01*
X81623520Y-100270150D01*
X81636132Y-100249107D01*
X81650747Y-100229401D01*
X81667223Y-100211223D01*
X81685401Y-100194747D01*
X81705107Y-100180132D01*
X81726150Y-100167520D01*
X81748329Y-100157030D01*
X81771428Y-100148765D01*
X81795227Y-100142804D01*
X81819495Y-100139204D01*
X81843999Y-100138000D01*
X82494001Y-100138000D01*
X82518505Y-100139204D01*
X82518505Y-100139204D01*
G37*
D12*
X82169000Y-100838000D03*
D11*
G36*
X80468505Y-100139204D02*
G01*
X80492773Y-100142804D01*
X80516572Y-100148765D01*
X80539671Y-100157030D01*
X80561850Y-100167520D01*
X80582893Y-100180132D01*
X80602599Y-100194747D01*
X80620777Y-100211223D01*
X80637253Y-100229401D01*
X80651868Y-100249107D01*
X80664480Y-100270150D01*
X80674970Y-100292329D01*
X80683235Y-100315428D01*
X80689196Y-100339227D01*
X80692796Y-100363495D01*
X80694000Y-100387999D01*
X80694000Y-101288001D01*
X80692796Y-101312505D01*
X80689196Y-101336773D01*
X80683235Y-101360572D01*
X80674970Y-101383671D01*
X80664480Y-101405850D01*
X80651868Y-101426893D01*
X80637253Y-101446599D01*
X80620777Y-101464777D01*
X80602599Y-101481253D01*
X80582893Y-101495868D01*
X80561850Y-101508480D01*
X80539671Y-101518970D01*
X80516572Y-101527235D01*
X80492773Y-101533196D01*
X80468505Y-101536796D01*
X80444001Y-101538000D01*
X79793999Y-101538000D01*
X79769495Y-101536796D01*
X79745227Y-101533196D01*
X79721428Y-101527235D01*
X79698329Y-101518970D01*
X79676150Y-101508480D01*
X79655107Y-101495868D01*
X79635401Y-101481253D01*
X79617223Y-101464777D01*
X79600747Y-101446599D01*
X79586132Y-101426893D01*
X79573520Y-101405850D01*
X79563030Y-101383671D01*
X79554765Y-101360572D01*
X79548804Y-101336773D01*
X79545204Y-101312505D01*
X79544000Y-101288001D01*
X79544000Y-100387999D01*
X79545204Y-100363495D01*
X79548804Y-100339227D01*
X79554765Y-100315428D01*
X79563030Y-100292329D01*
X79573520Y-100270150D01*
X79586132Y-100249107D01*
X79600747Y-100229401D01*
X79617223Y-100211223D01*
X79635401Y-100194747D01*
X79655107Y-100180132D01*
X79676150Y-100167520D01*
X79698329Y-100157030D01*
X79721428Y-100148765D01*
X79745227Y-100142804D01*
X79769495Y-100139204D01*
X79793999Y-100138000D01*
X80444001Y-100138000D01*
X80468505Y-100139204D01*
X80468505Y-100139204D01*
G37*
D12*
X80119000Y-100838000D03*
D11*
G36*
X82518505Y-96710204D02*
G01*
X82542773Y-96713804D01*
X82566572Y-96719765D01*
X82589671Y-96728030D01*
X82611850Y-96738520D01*
X82632893Y-96751132D01*
X82652599Y-96765747D01*
X82670777Y-96782223D01*
X82687253Y-96800401D01*
X82701868Y-96820107D01*
X82714480Y-96841150D01*
X82724970Y-96863329D01*
X82733235Y-96886428D01*
X82739196Y-96910227D01*
X82742796Y-96934495D01*
X82744000Y-96958999D01*
X82744000Y-97859001D01*
X82742796Y-97883505D01*
X82739196Y-97907773D01*
X82733235Y-97931572D01*
X82724970Y-97954671D01*
X82714480Y-97976850D01*
X82701868Y-97997893D01*
X82687253Y-98017599D01*
X82670777Y-98035777D01*
X82652599Y-98052253D01*
X82632893Y-98066868D01*
X82611850Y-98079480D01*
X82589671Y-98089970D01*
X82566572Y-98098235D01*
X82542773Y-98104196D01*
X82518505Y-98107796D01*
X82494001Y-98109000D01*
X81843999Y-98109000D01*
X81819495Y-98107796D01*
X81795227Y-98104196D01*
X81771428Y-98098235D01*
X81748329Y-98089970D01*
X81726150Y-98079480D01*
X81705107Y-98066868D01*
X81685401Y-98052253D01*
X81667223Y-98035777D01*
X81650747Y-98017599D01*
X81636132Y-97997893D01*
X81623520Y-97976850D01*
X81613030Y-97954671D01*
X81604765Y-97931572D01*
X81598804Y-97907773D01*
X81595204Y-97883505D01*
X81594000Y-97859001D01*
X81594000Y-96958999D01*
X81595204Y-96934495D01*
X81598804Y-96910227D01*
X81604765Y-96886428D01*
X81613030Y-96863329D01*
X81623520Y-96841150D01*
X81636132Y-96820107D01*
X81650747Y-96800401D01*
X81667223Y-96782223D01*
X81685401Y-96765747D01*
X81705107Y-96751132D01*
X81726150Y-96738520D01*
X81748329Y-96728030D01*
X81771428Y-96719765D01*
X81795227Y-96713804D01*
X81819495Y-96710204D01*
X81843999Y-96709000D01*
X82494001Y-96709000D01*
X82518505Y-96710204D01*
X82518505Y-96710204D01*
G37*
D12*
X82169000Y-97409000D03*
D11*
G36*
X80468505Y-96710204D02*
G01*
X80492773Y-96713804D01*
X80516572Y-96719765D01*
X80539671Y-96728030D01*
X80561850Y-96738520D01*
X80582893Y-96751132D01*
X80602599Y-96765747D01*
X80620777Y-96782223D01*
X80637253Y-96800401D01*
X80651868Y-96820107D01*
X80664480Y-96841150D01*
X80674970Y-96863329D01*
X80683235Y-96886428D01*
X80689196Y-96910227D01*
X80692796Y-96934495D01*
X80694000Y-96958999D01*
X80694000Y-97859001D01*
X80692796Y-97883505D01*
X80689196Y-97907773D01*
X80683235Y-97931572D01*
X80674970Y-97954671D01*
X80664480Y-97976850D01*
X80651868Y-97997893D01*
X80637253Y-98017599D01*
X80620777Y-98035777D01*
X80602599Y-98052253D01*
X80582893Y-98066868D01*
X80561850Y-98079480D01*
X80539671Y-98089970D01*
X80516572Y-98098235D01*
X80492773Y-98104196D01*
X80468505Y-98107796D01*
X80444001Y-98109000D01*
X79793999Y-98109000D01*
X79769495Y-98107796D01*
X79745227Y-98104196D01*
X79721428Y-98098235D01*
X79698329Y-98089970D01*
X79676150Y-98079480D01*
X79655107Y-98066868D01*
X79635401Y-98052253D01*
X79617223Y-98035777D01*
X79600747Y-98017599D01*
X79586132Y-97997893D01*
X79573520Y-97976850D01*
X79563030Y-97954671D01*
X79554765Y-97931572D01*
X79548804Y-97907773D01*
X79545204Y-97883505D01*
X79544000Y-97859001D01*
X79544000Y-96958999D01*
X79545204Y-96934495D01*
X79548804Y-96910227D01*
X79554765Y-96886428D01*
X79563030Y-96863329D01*
X79573520Y-96841150D01*
X79586132Y-96820107D01*
X79600747Y-96800401D01*
X79617223Y-96782223D01*
X79635401Y-96765747D01*
X79655107Y-96751132D01*
X79676150Y-96738520D01*
X79698329Y-96728030D01*
X79721428Y-96719765D01*
X79745227Y-96713804D01*
X79769495Y-96710204D01*
X79793999Y-96709000D01*
X80444001Y-96709000D01*
X80468505Y-96710204D01*
X80468505Y-96710204D01*
G37*
D12*
X80119000Y-97409000D03*
D11*
G36*
X125072505Y-104203204D02*
G01*
X125096773Y-104206804D01*
X125120572Y-104212765D01*
X125143671Y-104221030D01*
X125165850Y-104231520D01*
X125186893Y-104244132D01*
X125206599Y-104258747D01*
X125224777Y-104275223D01*
X125241253Y-104293401D01*
X125255868Y-104313107D01*
X125268480Y-104334150D01*
X125278970Y-104356329D01*
X125287235Y-104379428D01*
X125293196Y-104403227D01*
X125296796Y-104427495D01*
X125298000Y-104451999D01*
X125298000Y-105352001D01*
X125296796Y-105376505D01*
X125293196Y-105400773D01*
X125287235Y-105424572D01*
X125278970Y-105447671D01*
X125268480Y-105469850D01*
X125255868Y-105490893D01*
X125241253Y-105510599D01*
X125224777Y-105528777D01*
X125206599Y-105545253D01*
X125186893Y-105559868D01*
X125165850Y-105572480D01*
X125143671Y-105582970D01*
X125120572Y-105591235D01*
X125096773Y-105597196D01*
X125072505Y-105600796D01*
X125048001Y-105602000D01*
X124397999Y-105602000D01*
X124373495Y-105600796D01*
X124349227Y-105597196D01*
X124325428Y-105591235D01*
X124302329Y-105582970D01*
X124280150Y-105572480D01*
X124259107Y-105559868D01*
X124239401Y-105545253D01*
X124221223Y-105528777D01*
X124204747Y-105510599D01*
X124190132Y-105490893D01*
X124177520Y-105469850D01*
X124167030Y-105447671D01*
X124158765Y-105424572D01*
X124152804Y-105400773D01*
X124149204Y-105376505D01*
X124148000Y-105352001D01*
X124148000Y-104451999D01*
X124149204Y-104427495D01*
X124152804Y-104403227D01*
X124158765Y-104379428D01*
X124167030Y-104356329D01*
X124177520Y-104334150D01*
X124190132Y-104313107D01*
X124204747Y-104293401D01*
X124221223Y-104275223D01*
X124239401Y-104258747D01*
X124259107Y-104244132D01*
X124280150Y-104231520D01*
X124302329Y-104221030D01*
X124325428Y-104212765D01*
X124349227Y-104206804D01*
X124373495Y-104203204D01*
X124397999Y-104202000D01*
X125048001Y-104202000D01*
X125072505Y-104203204D01*
X125072505Y-104203204D01*
G37*
D12*
X124723000Y-104902000D03*
D11*
G36*
X123022505Y-104203204D02*
G01*
X123046773Y-104206804D01*
X123070572Y-104212765D01*
X123093671Y-104221030D01*
X123115850Y-104231520D01*
X123136893Y-104244132D01*
X123156599Y-104258747D01*
X123174777Y-104275223D01*
X123191253Y-104293401D01*
X123205868Y-104313107D01*
X123218480Y-104334150D01*
X123228970Y-104356329D01*
X123237235Y-104379428D01*
X123243196Y-104403227D01*
X123246796Y-104427495D01*
X123248000Y-104451999D01*
X123248000Y-105352001D01*
X123246796Y-105376505D01*
X123243196Y-105400773D01*
X123237235Y-105424572D01*
X123228970Y-105447671D01*
X123218480Y-105469850D01*
X123205868Y-105490893D01*
X123191253Y-105510599D01*
X123174777Y-105528777D01*
X123156599Y-105545253D01*
X123136893Y-105559868D01*
X123115850Y-105572480D01*
X123093671Y-105582970D01*
X123070572Y-105591235D01*
X123046773Y-105597196D01*
X123022505Y-105600796D01*
X122998001Y-105602000D01*
X122347999Y-105602000D01*
X122323495Y-105600796D01*
X122299227Y-105597196D01*
X122275428Y-105591235D01*
X122252329Y-105582970D01*
X122230150Y-105572480D01*
X122209107Y-105559868D01*
X122189401Y-105545253D01*
X122171223Y-105528777D01*
X122154747Y-105510599D01*
X122140132Y-105490893D01*
X122127520Y-105469850D01*
X122117030Y-105447671D01*
X122108765Y-105424572D01*
X122102804Y-105400773D01*
X122099204Y-105376505D01*
X122098000Y-105352001D01*
X122098000Y-104451999D01*
X122099204Y-104427495D01*
X122102804Y-104403227D01*
X122108765Y-104379428D01*
X122117030Y-104356329D01*
X122127520Y-104334150D01*
X122140132Y-104313107D01*
X122154747Y-104293401D01*
X122171223Y-104275223D01*
X122189401Y-104258747D01*
X122209107Y-104244132D01*
X122230150Y-104231520D01*
X122252329Y-104221030D01*
X122275428Y-104212765D01*
X122299227Y-104206804D01*
X122323495Y-104203204D01*
X122347999Y-104202000D01*
X122998001Y-104202000D01*
X123022505Y-104203204D01*
X123022505Y-104203204D01*
G37*
D12*
X122673000Y-104902000D03*
D11*
G36*
X98899505Y-109172204D02*
G01*
X98923773Y-109175804D01*
X98947572Y-109181765D01*
X98970671Y-109190030D01*
X98992850Y-109200520D01*
X99013893Y-109213132D01*
X99033599Y-109227747D01*
X99051777Y-109244223D01*
X99068253Y-109262401D01*
X99082868Y-109282107D01*
X99095480Y-109303150D01*
X99105970Y-109325329D01*
X99114235Y-109348428D01*
X99120196Y-109372227D01*
X99123796Y-109396495D01*
X99125000Y-109420999D01*
X99125000Y-110071001D01*
X99123796Y-110095505D01*
X99120196Y-110119773D01*
X99114235Y-110143572D01*
X99105970Y-110166671D01*
X99095480Y-110188850D01*
X99082868Y-110209893D01*
X99068253Y-110229599D01*
X99051777Y-110247777D01*
X99033599Y-110264253D01*
X99013893Y-110278868D01*
X98992850Y-110291480D01*
X98970671Y-110301970D01*
X98947572Y-110310235D01*
X98923773Y-110316196D01*
X98899505Y-110319796D01*
X98875001Y-110321000D01*
X97974999Y-110321000D01*
X97950495Y-110319796D01*
X97926227Y-110316196D01*
X97902428Y-110310235D01*
X97879329Y-110301970D01*
X97857150Y-110291480D01*
X97836107Y-110278868D01*
X97816401Y-110264253D01*
X97798223Y-110247777D01*
X97781747Y-110229599D01*
X97767132Y-110209893D01*
X97754520Y-110188850D01*
X97744030Y-110166671D01*
X97735765Y-110143572D01*
X97729804Y-110119773D01*
X97726204Y-110095505D01*
X97725000Y-110071001D01*
X97725000Y-109420999D01*
X97726204Y-109396495D01*
X97729804Y-109372227D01*
X97735765Y-109348428D01*
X97744030Y-109325329D01*
X97754520Y-109303150D01*
X97767132Y-109282107D01*
X97781747Y-109262401D01*
X97798223Y-109244223D01*
X97816401Y-109227747D01*
X97836107Y-109213132D01*
X97857150Y-109200520D01*
X97879329Y-109190030D01*
X97902428Y-109181765D01*
X97926227Y-109175804D01*
X97950495Y-109172204D01*
X97974999Y-109171000D01*
X98875001Y-109171000D01*
X98899505Y-109172204D01*
X98899505Y-109172204D01*
G37*
D12*
X98425000Y-109746000D03*
D11*
G36*
X98899505Y-107122204D02*
G01*
X98923773Y-107125804D01*
X98947572Y-107131765D01*
X98970671Y-107140030D01*
X98992850Y-107150520D01*
X99013893Y-107163132D01*
X99033599Y-107177747D01*
X99051777Y-107194223D01*
X99068253Y-107212401D01*
X99082868Y-107232107D01*
X99095480Y-107253150D01*
X99105970Y-107275329D01*
X99114235Y-107298428D01*
X99120196Y-107322227D01*
X99123796Y-107346495D01*
X99125000Y-107370999D01*
X99125000Y-108021001D01*
X99123796Y-108045505D01*
X99120196Y-108069773D01*
X99114235Y-108093572D01*
X99105970Y-108116671D01*
X99095480Y-108138850D01*
X99082868Y-108159893D01*
X99068253Y-108179599D01*
X99051777Y-108197777D01*
X99033599Y-108214253D01*
X99013893Y-108228868D01*
X98992850Y-108241480D01*
X98970671Y-108251970D01*
X98947572Y-108260235D01*
X98923773Y-108266196D01*
X98899505Y-108269796D01*
X98875001Y-108271000D01*
X97974999Y-108271000D01*
X97950495Y-108269796D01*
X97926227Y-108266196D01*
X97902428Y-108260235D01*
X97879329Y-108251970D01*
X97857150Y-108241480D01*
X97836107Y-108228868D01*
X97816401Y-108214253D01*
X97798223Y-108197777D01*
X97781747Y-108179599D01*
X97767132Y-108159893D01*
X97754520Y-108138850D01*
X97744030Y-108116671D01*
X97735765Y-108093572D01*
X97729804Y-108069773D01*
X97726204Y-108045505D01*
X97725000Y-108021001D01*
X97725000Y-107370999D01*
X97726204Y-107346495D01*
X97729804Y-107322227D01*
X97735765Y-107298428D01*
X97744030Y-107275329D01*
X97754520Y-107253150D01*
X97767132Y-107232107D01*
X97781747Y-107212401D01*
X97798223Y-107194223D01*
X97816401Y-107177747D01*
X97836107Y-107163132D01*
X97857150Y-107150520D01*
X97879329Y-107140030D01*
X97902428Y-107131765D01*
X97926227Y-107125804D01*
X97950495Y-107122204D01*
X97974999Y-107121000D01*
X98875001Y-107121000D01*
X98899505Y-107122204D01*
X98899505Y-107122204D01*
G37*
D12*
X98425000Y-107696000D03*
D11*
G36*
X133824505Y-109154204D02*
G01*
X133848773Y-109157804D01*
X133872572Y-109163765D01*
X133895671Y-109172030D01*
X133917850Y-109182520D01*
X133938893Y-109195132D01*
X133958599Y-109209747D01*
X133976777Y-109226223D01*
X133993253Y-109244401D01*
X134007868Y-109264107D01*
X134020480Y-109285150D01*
X134030970Y-109307329D01*
X134039235Y-109330428D01*
X134045196Y-109354227D01*
X134048796Y-109378495D01*
X134050000Y-109402999D01*
X134050000Y-110053001D01*
X134048796Y-110077505D01*
X134045196Y-110101773D01*
X134039235Y-110125572D01*
X134030970Y-110148671D01*
X134020480Y-110170850D01*
X134007868Y-110191893D01*
X133993253Y-110211599D01*
X133976777Y-110229777D01*
X133958599Y-110246253D01*
X133938893Y-110260868D01*
X133917850Y-110273480D01*
X133895671Y-110283970D01*
X133872572Y-110292235D01*
X133848773Y-110298196D01*
X133824505Y-110301796D01*
X133800001Y-110303000D01*
X132899999Y-110303000D01*
X132875495Y-110301796D01*
X132851227Y-110298196D01*
X132827428Y-110292235D01*
X132804329Y-110283970D01*
X132782150Y-110273480D01*
X132761107Y-110260868D01*
X132741401Y-110246253D01*
X132723223Y-110229777D01*
X132706747Y-110211599D01*
X132692132Y-110191893D01*
X132679520Y-110170850D01*
X132669030Y-110148671D01*
X132660765Y-110125572D01*
X132654804Y-110101773D01*
X132651204Y-110077505D01*
X132650000Y-110053001D01*
X132650000Y-109402999D01*
X132651204Y-109378495D01*
X132654804Y-109354227D01*
X132660765Y-109330428D01*
X132669030Y-109307329D01*
X132679520Y-109285150D01*
X132692132Y-109264107D01*
X132706747Y-109244401D01*
X132723223Y-109226223D01*
X132741401Y-109209747D01*
X132761107Y-109195132D01*
X132782150Y-109182520D01*
X132804329Y-109172030D01*
X132827428Y-109163765D01*
X132851227Y-109157804D01*
X132875495Y-109154204D01*
X132899999Y-109153000D01*
X133800001Y-109153000D01*
X133824505Y-109154204D01*
X133824505Y-109154204D01*
G37*
D12*
X133350000Y-109728000D03*
D11*
G36*
X133824505Y-107104204D02*
G01*
X133848773Y-107107804D01*
X133872572Y-107113765D01*
X133895671Y-107122030D01*
X133917850Y-107132520D01*
X133938893Y-107145132D01*
X133958599Y-107159747D01*
X133976777Y-107176223D01*
X133993253Y-107194401D01*
X134007868Y-107214107D01*
X134020480Y-107235150D01*
X134030970Y-107257329D01*
X134039235Y-107280428D01*
X134045196Y-107304227D01*
X134048796Y-107328495D01*
X134050000Y-107352999D01*
X134050000Y-108003001D01*
X134048796Y-108027505D01*
X134045196Y-108051773D01*
X134039235Y-108075572D01*
X134030970Y-108098671D01*
X134020480Y-108120850D01*
X134007868Y-108141893D01*
X133993253Y-108161599D01*
X133976777Y-108179777D01*
X133958599Y-108196253D01*
X133938893Y-108210868D01*
X133917850Y-108223480D01*
X133895671Y-108233970D01*
X133872572Y-108242235D01*
X133848773Y-108248196D01*
X133824505Y-108251796D01*
X133800001Y-108253000D01*
X132899999Y-108253000D01*
X132875495Y-108251796D01*
X132851227Y-108248196D01*
X132827428Y-108242235D01*
X132804329Y-108233970D01*
X132782150Y-108223480D01*
X132761107Y-108210868D01*
X132741401Y-108196253D01*
X132723223Y-108179777D01*
X132706747Y-108161599D01*
X132692132Y-108141893D01*
X132679520Y-108120850D01*
X132669030Y-108098671D01*
X132660765Y-108075572D01*
X132654804Y-108051773D01*
X132651204Y-108027505D01*
X132650000Y-108003001D01*
X132650000Y-107352999D01*
X132651204Y-107328495D01*
X132654804Y-107304227D01*
X132660765Y-107280428D01*
X132669030Y-107257329D01*
X132679520Y-107235150D01*
X132692132Y-107214107D01*
X132706747Y-107194401D01*
X132723223Y-107176223D01*
X132741401Y-107159747D01*
X132761107Y-107145132D01*
X132782150Y-107132520D01*
X132804329Y-107122030D01*
X132827428Y-107113765D01*
X132851227Y-107107804D01*
X132875495Y-107104204D01*
X132899999Y-107103000D01*
X133800001Y-107103000D01*
X133824505Y-107104204D01*
X133824505Y-107104204D01*
G37*
D12*
X133350000Y-107678000D03*
D11*
G36*
X117949505Y-80279704D02*
G01*
X117973773Y-80283304D01*
X117997572Y-80289265D01*
X118020671Y-80297530D01*
X118042850Y-80308020D01*
X118063893Y-80320632D01*
X118083599Y-80335247D01*
X118101777Y-80351723D01*
X118118253Y-80369901D01*
X118132868Y-80389607D01*
X118145480Y-80410650D01*
X118155970Y-80432829D01*
X118164235Y-80455928D01*
X118170196Y-80479727D01*
X118173796Y-80503995D01*
X118175000Y-80528499D01*
X118175000Y-81178501D01*
X118173796Y-81203005D01*
X118170196Y-81227273D01*
X118164235Y-81251072D01*
X118155970Y-81274171D01*
X118145480Y-81296350D01*
X118132868Y-81317393D01*
X118118253Y-81337099D01*
X118101777Y-81355277D01*
X118083599Y-81371753D01*
X118063893Y-81386368D01*
X118042850Y-81398980D01*
X118020671Y-81409470D01*
X117997572Y-81417735D01*
X117973773Y-81423696D01*
X117949505Y-81427296D01*
X117925001Y-81428500D01*
X117024999Y-81428500D01*
X117000495Y-81427296D01*
X116976227Y-81423696D01*
X116952428Y-81417735D01*
X116929329Y-81409470D01*
X116907150Y-81398980D01*
X116886107Y-81386368D01*
X116866401Y-81371753D01*
X116848223Y-81355277D01*
X116831747Y-81337099D01*
X116817132Y-81317393D01*
X116804520Y-81296350D01*
X116794030Y-81274171D01*
X116785765Y-81251072D01*
X116779804Y-81227273D01*
X116776204Y-81203005D01*
X116775000Y-81178501D01*
X116775000Y-80528499D01*
X116776204Y-80503995D01*
X116779804Y-80479727D01*
X116785765Y-80455928D01*
X116794030Y-80432829D01*
X116804520Y-80410650D01*
X116817132Y-80389607D01*
X116831747Y-80369901D01*
X116848223Y-80351723D01*
X116866401Y-80335247D01*
X116886107Y-80320632D01*
X116907150Y-80308020D01*
X116929329Y-80297530D01*
X116952428Y-80289265D01*
X116976227Y-80283304D01*
X117000495Y-80279704D01*
X117024999Y-80278500D01*
X117925001Y-80278500D01*
X117949505Y-80279704D01*
X117949505Y-80279704D01*
G37*
D12*
X117475000Y-80853500D03*
D11*
G36*
X117949505Y-78229704D02*
G01*
X117973773Y-78233304D01*
X117997572Y-78239265D01*
X118020671Y-78247530D01*
X118042850Y-78258020D01*
X118063893Y-78270632D01*
X118083599Y-78285247D01*
X118101777Y-78301723D01*
X118118253Y-78319901D01*
X118132868Y-78339607D01*
X118145480Y-78360650D01*
X118155970Y-78382829D01*
X118164235Y-78405928D01*
X118170196Y-78429727D01*
X118173796Y-78453995D01*
X118175000Y-78478499D01*
X118175000Y-79128501D01*
X118173796Y-79153005D01*
X118170196Y-79177273D01*
X118164235Y-79201072D01*
X118155970Y-79224171D01*
X118145480Y-79246350D01*
X118132868Y-79267393D01*
X118118253Y-79287099D01*
X118101777Y-79305277D01*
X118083599Y-79321753D01*
X118063893Y-79336368D01*
X118042850Y-79348980D01*
X118020671Y-79359470D01*
X117997572Y-79367735D01*
X117973773Y-79373696D01*
X117949505Y-79377296D01*
X117925001Y-79378500D01*
X117024999Y-79378500D01*
X117000495Y-79377296D01*
X116976227Y-79373696D01*
X116952428Y-79367735D01*
X116929329Y-79359470D01*
X116907150Y-79348980D01*
X116886107Y-79336368D01*
X116866401Y-79321753D01*
X116848223Y-79305277D01*
X116831747Y-79287099D01*
X116817132Y-79267393D01*
X116804520Y-79246350D01*
X116794030Y-79224171D01*
X116785765Y-79201072D01*
X116779804Y-79177273D01*
X116776204Y-79153005D01*
X116775000Y-79128501D01*
X116775000Y-78478499D01*
X116776204Y-78453995D01*
X116779804Y-78429727D01*
X116785765Y-78405928D01*
X116794030Y-78382829D01*
X116804520Y-78360650D01*
X116817132Y-78339607D01*
X116831747Y-78319901D01*
X116848223Y-78301723D01*
X116866401Y-78285247D01*
X116886107Y-78270632D01*
X116907150Y-78258020D01*
X116929329Y-78247530D01*
X116952428Y-78239265D01*
X116976227Y-78233304D01*
X117000495Y-78229704D01*
X117024999Y-78228500D01*
X117925001Y-78228500D01*
X117949505Y-78229704D01*
X117949505Y-78229704D01*
G37*
D12*
X117475000Y-78803500D03*
D11*
G36*
X112046005Y-78104704D02*
G01*
X112070273Y-78108304D01*
X112094072Y-78114265D01*
X112117171Y-78122530D01*
X112139350Y-78133020D01*
X112160393Y-78145632D01*
X112180099Y-78160247D01*
X112198277Y-78176723D01*
X112214753Y-78194901D01*
X112229368Y-78214607D01*
X112241980Y-78235650D01*
X112252470Y-78257829D01*
X112260735Y-78280928D01*
X112266696Y-78304727D01*
X112270296Y-78328995D01*
X112271500Y-78353499D01*
X112271500Y-79253501D01*
X112270296Y-79278005D01*
X112266696Y-79302273D01*
X112260735Y-79326072D01*
X112252470Y-79349171D01*
X112241980Y-79371350D01*
X112229368Y-79392393D01*
X112214753Y-79412099D01*
X112198277Y-79430277D01*
X112180099Y-79446753D01*
X112160393Y-79461368D01*
X112139350Y-79473980D01*
X112117171Y-79484470D01*
X112094072Y-79492735D01*
X112070273Y-79498696D01*
X112046005Y-79502296D01*
X112021501Y-79503500D01*
X111371499Y-79503500D01*
X111346995Y-79502296D01*
X111322727Y-79498696D01*
X111298928Y-79492735D01*
X111275829Y-79484470D01*
X111253650Y-79473980D01*
X111232607Y-79461368D01*
X111212901Y-79446753D01*
X111194723Y-79430277D01*
X111178247Y-79412099D01*
X111163632Y-79392393D01*
X111151020Y-79371350D01*
X111140530Y-79349171D01*
X111132265Y-79326072D01*
X111126304Y-79302273D01*
X111122704Y-79278005D01*
X111121500Y-79253501D01*
X111121500Y-78353499D01*
X111122704Y-78328995D01*
X111126304Y-78304727D01*
X111132265Y-78280928D01*
X111140530Y-78257829D01*
X111151020Y-78235650D01*
X111163632Y-78214607D01*
X111178247Y-78194901D01*
X111194723Y-78176723D01*
X111212901Y-78160247D01*
X111232607Y-78145632D01*
X111253650Y-78133020D01*
X111275829Y-78122530D01*
X111298928Y-78114265D01*
X111322727Y-78108304D01*
X111346995Y-78104704D01*
X111371499Y-78103500D01*
X112021501Y-78103500D01*
X112046005Y-78104704D01*
X112046005Y-78104704D01*
G37*
D12*
X111696500Y-78803500D03*
D11*
G36*
X109996005Y-78104704D02*
G01*
X110020273Y-78108304D01*
X110044072Y-78114265D01*
X110067171Y-78122530D01*
X110089350Y-78133020D01*
X110110393Y-78145632D01*
X110130099Y-78160247D01*
X110148277Y-78176723D01*
X110164753Y-78194901D01*
X110179368Y-78214607D01*
X110191980Y-78235650D01*
X110202470Y-78257829D01*
X110210735Y-78280928D01*
X110216696Y-78304727D01*
X110220296Y-78328995D01*
X110221500Y-78353499D01*
X110221500Y-79253501D01*
X110220296Y-79278005D01*
X110216696Y-79302273D01*
X110210735Y-79326072D01*
X110202470Y-79349171D01*
X110191980Y-79371350D01*
X110179368Y-79392393D01*
X110164753Y-79412099D01*
X110148277Y-79430277D01*
X110130099Y-79446753D01*
X110110393Y-79461368D01*
X110089350Y-79473980D01*
X110067171Y-79484470D01*
X110044072Y-79492735D01*
X110020273Y-79498696D01*
X109996005Y-79502296D01*
X109971501Y-79503500D01*
X109321499Y-79503500D01*
X109296995Y-79502296D01*
X109272727Y-79498696D01*
X109248928Y-79492735D01*
X109225829Y-79484470D01*
X109203650Y-79473980D01*
X109182607Y-79461368D01*
X109162901Y-79446753D01*
X109144723Y-79430277D01*
X109128247Y-79412099D01*
X109113632Y-79392393D01*
X109101020Y-79371350D01*
X109090530Y-79349171D01*
X109082265Y-79326072D01*
X109076304Y-79302273D01*
X109072704Y-79278005D01*
X109071500Y-79253501D01*
X109071500Y-78353499D01*
X109072704Y-78328995D01*
X109076304Y-78304727D01*
X109082265Y-78280928D01*
X109090530Y-78257829D01*
X109101020Y-78235650D01*
X109113632Y-78214607D01*
X109128247Y-78194901D01*
X109144723Y-78176723D01*
X109162901Y-78160247D01*
X109182607Y-78145632D01*
X109203650Y-78133020D01*
X109225829Y-78122530D01*
X109248928Y-78114265D01*
X109272727Y-78108304D01*
X109296995Y-78104704D01*
X109321499Y-78103500D01*
X109971501Y-78103500D01*
X109996005Y-78104704D01*
X109996005Y-78104704D01*
G37*
D12*
X109646500Y-78803500D03*
D11*
G36*
X102519005Y-80279704D02*
G01*
X102543273Y-80283304D01*
X102567072Y-80289265D01*
X102590171Y-80297530D01*
X102612350Y-80308020D01*
X102633393Y-80320632D01*
X102653099Y-80335247D01*
X102671277Y-80351723D01*
X102687753Y-80369901D01*
X102702368Y-80389607D01*
X102714980Y-80410650D01*
X102725470Y-80432829D01*
X102733735Y-80455928D01*
X102739696Y-80479727D01*
X102743296Y-80503995D01*
X102744500Y-80528499D01*
X102744500Y-81178501D01*
X102743296Y-81203005D01*
X102739696Y-81227273D01*
X102733735Y-81251072D01*
X102725470Y-81274171D01*
X102714980Y-81296350D01*
X102702368Y-81317393D01*
X102687753Y-81337099D01*
X102671277Y-81355277D01*
X102653099Y-81371753D01*
X102633393Y-81386368D01*
X102612350Y-81398980D01*
X102590171Y-81409470D01*
X102567072Y-81417735D01*
X102543273Y-81423696D01*
X102519005Y-81427296D01*
X102494501Y-81428500D01*
X101594499Y-81428500D01*
X101569995Y-81427296D01*
X101545727Y-81423696D01*
X101521928Y-81417735D01*
X101498829Y-81409470D01*
X101476650Y-81398980D01*
X101455607Y-81386368D01*
X101435901Y-81371753D01*
X101417723Y-81355277D01*
X101401247Y-81337099D01*
X101386632Y-81317393D01*
X101374020Y-81296350D01*
X101363530Y-81274171D01*
X101355265Y-81251072D01*
X101349304Y-81227273D01*
X101345704Y-81203005D01*
X101344500Y-81178501D01*
X101344500Y-80528499D01*
X101345704Y-80503995D01*
X101349304Y-80479727D01*
X101355265Y-80455928D01*
X101363530Y-80432829D01*
X101374020Y-80410650D01*
X101386632Y-80389607D01*
X101401247Y-80369901D01*
X101417723Y-80351723D01*
X101435901Y-80335247D01*
X101455607Y-80320632D01*
X101476650Y-80308020D01*
X101498829Y-80297530D01*
X101521928Y-80289265D01*
X101545727Y-80283304D01*
X101569995Y-80279704D01*
X101594499Y-80278500D01*
X102494501Y-80278500D01*
X102519005Y-80279704D01*
X102519005Y-80279704D01*
G37*
D12*
X102044500Y-80853500D03*
D11*
G36*
X102519005Y-78229704D02*
G01*
X102543273Y-78233304D01*
X102567072Y-78239265D01*
X102590171Y-78247530D01*
X102612350Y-78258020D01*
X102633393Y-78270632D01*
X102653099Y-78285247D01*
X102671277Y-78301723D01*
X102687753Y-78319901D01*
X102702368Y-78339607D01*
X102714980Y-78360650D01*
X102725470Y-78382829D01*
X102733735Y-78405928D01*
X102739696Y-78429727D01*
X102743296Y-78453995D01*
X102744500Y-78478499D01*
X102744500Y-79128501D01*
X102743296Y-79153005D01*
X102739696Y-79177273D01*
X102733735Y-79201072D01*
X102725470Y-79224171D01*
X102714980Y-79246350D01*
X102702368Y-79267393D01*
X102687753Y-79287099D01*
X102671277Y-79305277D01*
X102653099Y-79321753D01*
X102633393Y-79336368D01*
X102612350Y-79348980D01*
X102590171Y-79359470D01*
X102567072Y-79367735D01*
X102543273Y-79373696D01*
X102519005Y-79377296D01*
X102494501Y-79378500D01*
X101594499Y-79378500D01*
X101569995Y-79377296D01*
X101545727Y-79373696D01*
X101521928Y-79367735D01*
X101498829Y-79359470D01*
X101476650Y-79348980D01*
X101455607Y-79336368D01*
X101435901Y-79321753D01*
X101417723Y-79305277D01*
X101401247Y-79287099D01*
X101386632Y-79267393D01*
X101374020Y-79246350D01*
X101363530Y-79224171D01*
X101355265Y-79201072D01*
X101349304Y-79177273D01*
X101345704Y-79153005D01*
X101344500Y-79128501D01*
X101344500Y-78478499D01*
X101345704Y-78453995D01*
X101349304Y-78429727D01*
X101355265Y-78405928D01*
X101363530Y-78382829D01*
X101374020Y-78360650D01*
X101386632Y-78339607D01*
X101401247Y-78319901D01*
X101417723Y-78301723D01*
X101435901Y-78285247D01*
X101455607Y-78270632D01*
X101476650Y-78258020D01*
X101498829Y-78247530D01*
X101521928Y-78239265D01*
X101545727Y-78233304D01*
X101569995Y-78229704D01*
X101594499Y-78228500D01*
X102494501Y-78228500D01*
X102519005Y-78229704D01*
X102519005Y-78229704D01*
G37*
D12*
X102044500Y-78803500D03*
D11*
G36*
X110456505Y-93043204D02*
G01*
X110480773Y-93046804D01*
X110504572Y-93052765D01*
X110527671Y-93061030D01*
X110549850Y-93071520D01*
X110570893Y-93084132D01*
X110590599Y-93098747D01*
X110608777Y-93115223D01*
X110625253Y-93133401D01*
X110639868Y-93153107D01*
X110652480Y-93174150D01*
X110662970Y-93196329D01*
X110671235Y-93219428D01*
X110677196Y-93243227D01*
X110680796Y-93267495D01*
X110682000Y-93291999D01*
X110682000Y-93942001D01*
X110680796Y-93966505D01*
X110677196Y-93990773D01*
X110671235Y-94014572D01*
X110662970Y-94037671D01*
X110652480Y-94059850D01*
X110639868Y-94080893D01*
X110625253Y-94100599D01*
X110608777Y-94118777D01*
X110590599Y-94135253D01*
X110570893Y-94149868D01*
X110549850Y-94162480D01*
X110527671Y-94172970D01*
X110504572Y-94181235D01*
X110480773Y-94187196D01*
X110456505Y-94190796D01*
X110432001Y-94192000D01*
X109531999Y-94192000D01*
X109507495Y-94190796D01*
X109483227Y-94187196D01*
X109459428Y-94181235D01*
X109436329Y-94172970D01*
X109414150Y-94162480D01*
X109393107Y-94149868D01*
X109373401Y-94135253D01*
X109355223Y-94118777D01*
X109338747Y-94100599D01*
X109324132Y-94080893D01*
X109311520Y-94059850D01*
X109301030Y-94037671D01*
X109292765Y-94014572D01*
X109286804Y-93990773D01*
X109283204Y-93966505D01*
X109282000Y-93942001D01*
X109282000Y-93291999D01*
X109283204Y-93267495D01*
X109286804Y-93243227D01*
X109292765Y-93219428D01*
X109301030Y-93196329D01*
X109311520Y-93174150D01*
X109324132Y-93153107D01*
X109338747Y-93133401D01*
X109355223Y-93115223D01*
X109373401Y-93098747D01*
X109393107Y-93084132D01*
X109414150Y-93071520D01*
X109436329Y-93061030D01*
X109459428Y-93052765D01*
X109483227Y-93046804D01*
X109507495Y-93043204D01*
X109531999Y-93042000D01*
X110432001Y-93042000D01*
X110456505Y-93043204D01*
X110456505Y-93043204D01*
G37*
D12*
X109982000Y-93617000D03*
D11*
G36*
X110456505Y-90993204D02*
G01*
X110480773Y-90996804D01*
X110504572Y-91002765D01*
X110527671Y-91011030D01*
X110549850Y-91021520D01*
X110570893Y-91034132D01*
X110590599Y-91048747D01*
X110608777Y-91065223D01*
X110625253Y-91083401D01*
X110639868Y-91103107D01*
X110652480Y-91124150D01*
X110662970Y-91146329D01*
X110671235Y-91169428D01*
X110677196Y-91193227D01*
X110680796Y-91217495D01*
X110682000Y-91241999D01*
X110682000Y-91892001D01*
X110680796Y-91916505D01*
X110677196Y-91940773D01*
X110671235Y-91964572D01*
X110662970Y-91987671D01*
X110652480Y-92009850D01*
X110639868Y-92030893D01*
X110625253Y-92050599D01*
X110608777Y-92068777D01*
X110590599Y-92085253D01*
X110570893Y-92099868D01*
X110549850Y-92112480D01*
X110527671Y-92122970D01*
X110504572Y-92131235D01*
X110480773Y-92137196D01*
X110456505Y-92140796D01*
X110432001Y-92142000D01*
X109531999Y-92142000D01*
X109507495Y-92140796D01*
X109483227Y-92137196D01*
X109459428Y-92131235D01*
X109436329Y-92122970D01*
X109414150Y-92112480D01*
X109393107Y-92099868D01*
X109373401Y-92085253D01*
X109355223Y-92068777D01*
X109338747Y-92050599D01*
X109324132Y-92030893D01*
X109311520Y-92009850D01*
X109301030Y-91987671D01*
X109292765Y-91964572D01*
X109286804Y-91940773D01*
X109283204Y-91916505D01*
X109282000Y-91892001D01*
X109282000Y-91241999D01*
X109283204Y-91217495D01*
X109286804Y-91193227D01*
X109292765Y-91169428D01*
X109301030Y-91146329D01*
X109311520Y-91124150D01*
X109324132Y-91103107D01*
X109338747Y-91083401D01*
X109355223Y-91065223D01*
X109373401Y-91048747D01*
X109393107Y-91034132D01*
X109414150Y-91021520D01*
X109436329Y-91011030D01*
X109459428Y-91002765D01*
X109483227Y-90996804D01*
X109507495Y-90993204D01*
X109531999Y-90992000D01*
X110432001Y-90992000D01*
X110456505Y-90993204D01*
X110456505Y-90993204D01*
G37*
D12*
X109982000Y-91567000D03*
D11*
G36*
X118076505Y-73467204D02*
G01*
X118100773Y-73470804D01*
X118124572Y-73476765D01*
X118147671Y-73485030D01*
X118169850Y-73495520D01*
X118190893Y-73508132D01*
X118210599Y-73522747D01*
X118228777Y-73539223D01*
X118245253Y-73557401D01*
X118259868Y-73577107D01*
X118272480Y-73598150D01*
X118282970Y-73620329D01*
X118291235Y-73643428D01*
X118297196Y-73667227D01*
X118300796Y-73691495D01*
X118302000Y-73715999D01*
X118302000Y-74366001D01*
X118300796Y-74390505D01*
X118297196Y-74414773D01*
X118291235Y-74438572D01*
X118282970Y-74461671D01*
X118272480Y-74483850D01*
X118259868Y-74504893D01*
X118245253Y-74524599D01*
X118228777Y-74542777D01*
X118210599Y-74559253D01*
X118190893Y-74573868D01*
X118169850Y-74586480D01*
X118147671Y-74596970D01*
X118124572Y-74605235D01*
X118100773Y-74611196D01*
X118076505Y-74614796D01*
X118052001Y-74616000D01*
X117151999Y-74616000D01*
X117127495Y-74614796D01*
X117103227Y-74611196D01*
X117079428Y-74605235D01*
X117056329Y-74596970D01*
X117034150Y-74586480D01*
X117013107Y-74573868D01*
X116993401Y-74559253D01*
X116975223Y-74542777D01*
X116958747Y-74524599D01*
X116944132Y-74504893D01*
X116931520Y-74483850D01*
X116921030Y-74461671D01*
X116912765Y-74438572D01*
X116906804Y-74414773D01*
X116903204Y-74390505D01*
X116902000Y-74366001D01*
X116902000Y-73715999D01*
X116903204Y-73691495D01*
X116906804Y-73667227D01*
X116912765Y-73643428D01*
X116921030Y-73620329D01*
X116931520Y-73598150D01*
X116944132Y-73577107D01*
X116958747Y-73557401D01*
X116975223Y-73539223D01*
X116993401Y-73522747D01*
X117013107Y-73508132D01*
X117034150Y-73495520D01*
X117056329Y-73485030D01*
X117079428Y-73476765D01*
X117103227Y-73470804D01*
X117127495Y-73467204D01*
X117151999Y-73466000D01*
X118052001Y-73466000D01*
X118076505Y-73467204D01*
X118076505Y-73467204D01*
G37*
D12*
X117602000Y-74041000D03*
D11*
G36*
X118076505Y-71417204D02*
G01*
X118100773Y-71420804D01*
X118124572Y-71426765D01*
X118147671Y-71435030D01*
X118169850Y-71445520D01*
X118190893Y-71458132D01*
X118210599Y-71472747D01*
X118228777Y-71489223D01*
X118245253Y-71507401D01*
X118259868Y-71527107D01*
X118272480Y-71548150D01*
X118282970Y-71570329D01*
X118291235Y-71593428D01*
X118297196Y-71617227D01*
X118300796Y-71641495D01*
X118302000Y-71665999D01*
X118302000Y-72316001D01*
X118300796Y-72340505D01*
X118297196Y-72364773D01*
X118291235Y-72388572D01*
X118282970Y-72411671D01*
X118272480Y-72433850D01*
X118259868Y-72454893D01*
X118245253Y-72474599D01*
X118228777Y-72492777D01*
X118210599Y-72509253D01*
X118190893Y-72523868D01*
X118169850Y-72536480D01*
X118147671Y-72546970D01*
X118124572Y-72555235D01*
X118100773Y-72561196D01*
X118076505Y-72564796D01*
X118052001Y-72566000D01*
X117151999Y-72566000D01*
X117127495Y-72564796D01*
X117103227Y-72561196D01*
X117079428Y-72555235D01*
X117056329Y-72546970D01*
X117034150Y-72536480D01*
X117013107Y-72523868D01*
X116993401Y-72509253D01*
X116975223Y-72492777D01*
X116958747Y-72474599D01*
X116944132Y-72454893D01*
X116931520Y-72433850D01*
X116921030Y-72411671D01*
X116912765Y-72388572D01*
X116906804Y-72364773D01*
X116903204Y-72340505D01*
X116902000Y-72316001D01*
X116902000Y-71665999D01*
X116903204Y-71641495D01*
X116906804Y-71617227D01*
X116912765Y-71593428D01*
X116921030Y-71570329D01*
X116931520Y-71548150D01*
X116944132Y-71527107D01*
X116958747Y-71507401D01*
X116975223Y-71489223D01*
X116993401Y-71472747D01*
X117013107Y-71458132D01*
X117034150Y-71445520D01*
X117056329Y-71435030D01*
X117079428Y-71426765D01*
X117103227Y-71420804D01*
X117127495Y-71417204D01*
X117151999Y-71416000D01*
X118052001Y-71416000D01*
X118076505Y-71417204D01*
X118076505Y-71417204D01*
G37*
D12*
X117602000Y-71991000D03*
D11*
G36*
X106158505Y-90868204D02*
G01*
X106182773Y-90871804D01*
X106206572Y-90877765D01*
X106229671Y-90886030D01*
X106251850Y-90896520D01*
X106272893Y-90909132D01*
X106292599Y-90923747D01*
X106310777Y-90940223D01*
X106327253Y-90958401D01*
X106341868Y-90978107D01*
X106354480Y-90999150D01*
X106364970Y-91021329D01*
X106373235Y-91044428D01*
X106379196Y-91068227D01*
X106382796Y-91092495D01*
X106384000Y-91116999D01*
X106384000Y-92017001D01*
X106382796Y-92041505D01*
X106379196Y-92065773D01*
X106373235Y-92089572D01*
X106364970Y-92112671D01*
X106354480Y-92134850D01*
X106341868Y-92155893D01*
X106327253Y-92175599D01*
X106310777Y-92193777D01*
X106292599Y-92210253D01*
X106272893Y-92224868D01*
X106251850Y-92237480D01*
X106229671Y-92247970D01*
X106206572Y-92256235D01*
X106182773Y-92262196D01*
X106158505Y-92265796D01*
X106134001Y-92267000D01*
X105483999Y-92267000D01*
X105459495Y-92265796D01*
X105435227Y-92262196D01*
X105411428Y-92256235D01*
X105388329Y-92247970D01*
X105366150Y-92237480D01*
X105345107Y-92224868D01*
X105325401Y-92210253D01*
X105307223Y-92193777D01*
X105290747Y-92175599D01*
X105276132Y-92155893D01*
X105263520Y-92134850D01*
X105253030Y-92112671D01*
X105244765Y-92089572D01*
X105238804Y-92065773D01*
X105235204Y-92041505D01*
X105234000Y-92017001D01*
X105234000Y-91116999D01*
X105235204Y-91092495D01*
X105238804Y-91068227D01*
X105244765Y-91044428D01*
X105253030Y-91021329D01*
X105263520Y-90999150D01*
X105276132Y-90978107D01*
X105290747Y-90958401D01*
X105307223Y-90940223D01*
X105325401Y-90923747D01*
X105345107Y-90909132D01*
X105366150Y-90896520D01*
X105388329Y-90886030D01*
X105411428Y-90877765D01*
X105435227Y-90871804D01*
X105459495Y-90868204D01*
X105483999Y-90867000D01*
X106134001Y-90867000D01*
X106158505Y-90868204D01*
X106158505Y-90868204D01*
G37*
D12*
X105809000Y-91567000D03*
D11*
G36*
X104108505Y-90868204D02*
G01*
X104132773Y-90871804D01*
X104156572Y-90877765D01*
X104179671Y-90886030D01*
X104201850Y-90896520D01*
X104222893Y-90909132D01*
X104242599Y-90923747D01*
X104260777Y-90940223D01*
X104277253Y-90958401D01*
X104291868Y-90978107D01*
X104304480Y-90999150D01*
X104314970Y-91021329D01*
X104323235Y-91044428D01*
X104329196Y-91068227D01*
X104332796Y-91092495D01*
X104334000Y-91116999D01*
X104334000Y-92017001D01*
X104332796Y-92041505D01*
X104329196Y-92065773D01*
X104323235Y-92089572D01*
X104314970Y-92112671D01*
X104304480Y-92134850D01*
X104291868Y-92155893D01*
X104277253Y-92175599D01*
X104260777Y-92193777D01*
X104242599Y-92210253D01*
X104222893Y-92224868D01*
X104201850Y-92237480D01*
X104179671Y-92247970D01*
X104156572Y-92256235D01*
X104132773Y-92262196D01*
X104108505Y-92265796D01*
X104084001Y-92267000D01*
X103433999Y-92267000D01*
X103409495Y-92265796D01*
X103385227Y-92262196D01*
X103361428Y-92256235D01*
X103338329Y-92247970D01*
X103316150Y-92237480D01*
X103295107Y-92224868D01*
X103275401Y-92210253D01*
X103257223Y-92193777D01*
X103240747Y-92175599D01*
X103226132Y-92155893D01*
X103213520Y-92134850D01*
X103203030Y-92112671D01*
X103194765Y-92089572D01*
X103188804Y-92065773D01*
X103185204Y-92041505D01*
X103184000Y-92017001D01*
X103184000Y-91116999D01*
X103185204Y-91092495D01*
X103188804Y-91068227D01*
X103194765Y-91044428D01*
X103203030Y-91021329D01*
X103213520Y-90999150D01*
X103226132Y-90978107D01*
X103240747Y-90958401D01*
X103257223Y-90940223D01*
X103275401Y-90923747D01*
X103295107Y-90909132D01*
X103316150Y-90896520D01*
X103338329Y-90886030D01*
X103361428Y-90877765D01*
X103385227Y-90871804D01*
X103409495Y-90868204D01*
X103433999Y-90867000D01*
X104084001Y-90867000D01*
X104108505Y-90868204D01*
X104108505Y-90868204D01*
G37*
D12*
X103759000Y-91567000D03*
D11*
G36*
X112000505Y-71246704D02*
G01*
X112024773Y-71250304D01*
X112048572Y-71256265D01*
X112071671Y-71264530D01*
X112093850Y-71275020D01*
X112114893Y-71287632D01*
X112134599Y-71302247D01*
X112152777Y-71318723D01*
X112169253Y-71336901D01*
X112183868Y-71356607D01*
X112196480Y-71377650D01*
X112206970Y-71399829D01*
X112215235Y-71422928D01*
X112221196Y-71446727D01*
X112224796Y-71470995D01*
X112226000Y-71495499D01*
X112226000Y-72395501D01*
X112224796Y-72420005D01*
X112221196Y-72444273D01*
X112215235Y-72468072D01*
X112206970Y-72491171D01*
X112196480Y-72513350D01*
X112183868Y-72534393D01*
X112169253Y-72554099D01*
X112152777Y-72572277D01*
X112134599Y-72588753D01*
X112114893Y-72603368D01*
X112093850Y-72615980D01*
X112071671Y-72626470D01*
X112048572Y-72634735D01*
X112024773Y-72640696D01*
X112000505Y-72644296D01*
X111976001Y-72645500D01*
X111325999Y-72645500D01*
X111301495Y-72644296D01*
X111277227Y-72640696D01*
X111253428Y-72634735D01*
X111230329Y-72626470D01*
X111208150Y-72615980D01*
X111187107Y-72603368D01*
X111167401Y-72588753D01*
X111149223Y-72572277D01*
X111132747Y-72554099D01*
X111118132Y-72534393D01*
X111105520Y-72513350D01*
X111095030Y-72491171D01*
X111086765Y-72468072D01*
X111080804Y-72444273D01*
X111077204Y-72420005D01*
X111076000Y-72395501D01*
X111076000Y-71495499D01*
X111077204Y-71470995D01*
X111080804Y-71446727D01*
X111086765Y-71422928D01*
X111095030Y-71399829D01*
X111105520Y-71377650D01*
X111118132Y-71356607D01*
X111132747Y-71336901D01*
X111149223Y-71318723D01*
X111167401Y-71302247D01*
X111187107Y-71287632D01*
X111208150Y-71275020D01*
X111230329Y-71264530D01*
X111253428Y-71256265D01*
X111277227Y-71250304D01*
X111301495Y-71246704D01*
X111325999Y-71245500D01*
X111976001Y-71245500D01*
X112000505Y-71246704D01*
X112000505Y-71246704D01*
G37*
D12*
X111651000Y-71945500D03*
D11*
G36*
X109950505Y-71246704D02*
G01*
X109974773Y-71250304D01*
X109998572Y-71256265D01*
X110021671Y-71264530D01*
X110043850Y-71275020D01*
X110064893Y-71287632D01*
X110084599Y-71302247D01*
X110102777Y-71318723D01*
X110119253Y-71336901D01*
X110133868Y-71356607D01*
X110146480Y-71377650D01*
X110156970Y-71399829D01*
X110165235Y-71422928D01*
X110171196Y-71446727D01*
X110174796Y-71470995D01*
X110176000Y-71495499D01*
X110176000Y-72395501D01*
X110174796Y-72420005D01*
X110171196Y-72444273D01*
X110165235Y-72468072D01*
X110156970Y-72491171D01*
X110146480Y-72513350D01*
X110133868Y-72534393D01*
X110119253Y-72554099D01*
X110102777Y-72572277D01*
X110084599Y-72588753D01*
X110064893Y-72603368D01*
X110043850Y-72615980D01*
X110021671Y-72626470D01*
X109998572Y-72634735D01*
X109974773Y-72640696D01*
X109950505Y-72644296D01*
X109926001Y-72645500D01*
X109275999Y-72645500D01*
X109251495Y-72644296D01*
X109227227Y-72640696D01*
X109203428Y-72634735D01*
X109180329Y-72626470D01*
X109158150Y-72615980D01*
X109137107Y-72603368D01*
X109117401Y-72588753D01*
X109099223Y-72572277D01*
X109082747Y-72554099D01*
X109068132Y-72534393D01*
X109055520Y-72513350D01*
X109045030Y-72491171D01*
X109036765Y-72468072D01*
X109030804Y-72444273D01*
X109027204Y-72420005D01*
X109026000Y-72395501D01*
X109026000Y-71495499D01*
X109027204Y-71470995D01*
X109030804Y-71446727D01*
X109036765Y-71422928D01*
X109045030Y-71399829D01*
X109055520Y-71377650D01*
X109068132Y-71356607D01*
X109082747Y-71336901D01*
X109099223Y-71318723D01*
X109117401Y-71302247D01*
X109137107Y-71287632D01*
X109158150Y-71275020D01*
X109180329Y-71264530D01*
X109203428Y-71256265D01*
X109227227Y-71250304D01*
X109251495Y-71246704D01*
X109275999Y-71245500D01*
X109926001Y-71245500D01*
X109950505Y-71246704D01*
X109950505Y-71246704D01*
G37*
D12*
X109601000Y-71945500D03*
D11*
G36*
X98137505Y-93025204D02*
G01*
X98161773Y-93028804D01*
X98185572Y-93034765D01*
X98208671Y-93043030D01*
X98230850Y-93053520D01*
X98251893Y-93066132D01*
X98271599Y-93080747D01*
X98289777Y-93097223D01*
X98306253Y-93115401D01*
X98320868Y-93135107D01*
X98333480Y-93156150D01*
X98343970Y-93178329D01*
X98352235Y-93201428D01*
X98358196Y-93225227D01*
X98361796Y-93249495D01*
X98363000Y-93273999D01*
X98363000Y-93924001D01*
X98361796Y-93948505D01*
X98358196Y-93972773D01*
X98352235Y-93996572D01*
X98343970Y-94019671D01*
X98333480Y-94041850D01*
X98320868Y-94062893D01*
X98306253Y-94082599D01*
X98289777Y-94100777D01*
X98271599Y-94117253D01*
X98251893Y-94131868D01*
X98230850Y-94144480D01*
X98208671Y-94154970D01*
X98185572Y-94163235D01*
X98161773Y-94169196D01*
X98137505Y-94172796D01*
X98113001Y-94174000D01*
X97212999Y-94174000D01*
X97188495Y-94172796D01*
X97164227Y-94169196D01*
X97140428Y-94163235D01*
X97117329Y-94154970D01*
X97095150Y-94144480D01*
X97074107Y-94131868D01*
X97054401Y-94117253D01*
X97036223Y-94100777D01*
X97019747Y-94082599D01*
X97005132Y-94062893D01*
X96992520Y-94041850D01*
X96982030Y-94019671D01*
X96973765Y-93996572D01*
X96967804Y-93972773D01*
X96964204Y-93948505D01*
X96963000Y-93924001D01*
X96963000Y-93273999D01*
X96964204Y-93249495D01*
X96967804Y-93225227D01*
X96973765Y-93201428D01*
X96982030Y-93178329D01*
X96992520Y-93156150D01*
X97005132Y-93135107D01*
X97019747Y-93115401D01*
X97036223Y-93097223D01*
X97054401Y-93080747D01*
X97074107Y-93066132D01*
X97095150Y-93053520D01*
X97117329Y-93043030D01*
X97140428Y-93034765D01*
X97164227Y-93028804D01*
X97188495Y-93025204D01*
X97212999Y-93024000D01*
X98113001Y-93024000D01*
X98137505Y-93025204D01*
X98137505Y-93025204D01*
G37*
D12*
X97663000Y-93599000D03*
D11*
G36*
X98137505Y-90975204D02*
G01*
X98161773Y-90978804D01*
X98185572Y-90984765D01*
X98208671Y-90993030D01*
X98230850Y-91003520D01*
X98251893Y-91016132D01*
X98271599Y-91030747D01*
X98289777Y-91047223D01*
X98306253Y-91065401D01*
X98320868Y-91085107D01*
X98333480Y-91106150D01*
X98343970Y-91128329D01*
X98352235Y-91151428D01*
X98358196Y-91175227D01*
X98361796Y-91199495D01*
X98363000Y-91223999D01*
X98363000Y-91874001D01*
X98361796Y-91898505D01*
X98358196Y-91922773D01*
X98352235Y-91946572D01*
X98343970Y-91969671D01*
X98333480Y-91991850D01*
X98320868Y-92012893D01*
X98306253Y-92032599D01*
X98289777Y-92050777D01*
X98271599Y-92067253D01*
X98251893Y-92081868D01*
X98230850Y-92094480D01*
X98208671Y-92104970D01*
X98185572Y-92113235D01*
X98161773Y-92119196D01*
X98137505Y-92122796D01*
X98113001Y-92124000D01*
X97212999Y-92124000D01*
X97188495Y-92122796D01*
X97164227Y-92119196D01*
X97140428Y-92113235D01*
X97117329Y-92104970D01*
X97095150Y-92094480D01*
X97074107Y-92081868D01*
X97054401Y-92067253D01*
X97036223Y-92050777D01*
X97019747Y-92032599D01*
X97005132Y-92012893D01*
X96992520Y-91991850D01*
X96982030Y-91969671D01*
X96973765Y-91946572D01*
X96967804Y-91922773D01*
X96964204Y-91898505D01*
X96963000Y-91874001D01*
X96963000Y-91223999D01*
X96964204Y-91199495D01*
X96967804Y-91175227D01*
X96973765Y-91151428D01*
X96982030Y-91128329D01*
X96992520Y-91106150D01*
X97005132Y-91085107D01*
X97019747Y-91065401D01*
X97036223Y-91047223D01*
X97054401Y-91030747D01*
X97074107Y-91016132D01*
X97095150Y-91003520D01*
X97117329Y-90993030D01*
X97140428Y-90984765D01*
X97164227Y-90978804D01*
X97188495Y-90975204D01*
X97212999Y-90974000D01*
X98113001Y-90974000D01*
X98137505Y-90975204D01*
X98137505Y-90975204D01*
G37*
D12*
X97663000Y-91549000D03*
D11*
G36*
X102455505Y-73340204D02*
G01*
X102479773Y-73343804D01*
X102503572Y-73349765D01*
X102526671Y-73358030D01*
X102548850Y-73368520D01*
X102569893Y-73381132D01*
X102589599Y-73395747D01*
X102607777Y-73412223D01*
X102624253Y-73430401D01*
X102638868Y-73450107D01*
X102651480Y-73471150D01*
X102661970Y-73493329D01*
X102670235Y-73516428D01*
X102676196Y-73540227D01*
X102679796Y-73564495D01*
X102681000Y-73588999D01*
X102681000Y-74239001D01*
X102679796Y-74263505D01*
X102676196Y-74287773D01*
X102670235Y-74311572D01*
X102661970Y-74334671D01*
X102651480Y-74356850D01*
X102638868Y-74377893D01*
X102624253Y-74397599D01*
X102607777Y-74415777D01*
X102589599Y-74432253D01*
X102569893Y-74446868D01*
X102548850Y-74459480D01*
X102526671Y-74469970D01*
X102503572Y-74478235D01*
X102479773Y-74484196D01*
X102455505Y-74487796D01*
X102431001Y-74489000D01*
X101530999Y-74489000D01*
X101506495Y-74487796D01*
X101482227Y-74484196D01*
X101458428Y-74478235D01*
X101435329Y-74469970D01*
X101413150Y-74459480D01*
X101392107Y-74446868D01*
X101372401Y-74432253D01*
X101354223Y-74415777D01*
X101337747Y-74397599D01*
X101323132Y-74377893D01*
X101310520Y-74356850D01*
X101300030Y-74334671D01*
X101291765Y-74311572D01*
X101285804Y-74287773D01*
X101282204Y-74263505D01*
X101281000Y-74239001D01*
X101281000Y-73588999D01*
X101282204Y-73564495D01*
X101285804Y-73540227D01*
X101291765Y-73516428D01*
X101300030Y-73493329D01*
X101310520Y-73471150D01*
X101323132Y-73450107D01*
X101337747Y-73430401D01*
X101354223Y-73412223D01*
X101372401Y-73395747D01*
X101392107Y-73381132D01*
X101413150Y-73368520D01*
X101435329Y-73358030D01*
X101458428Y-73349765D01*
X101482227Y-73343804D01*
X101506495Y-73340204D01*
X101530999Y-73339000D01*
X102431001Y-73339000D01*
X102455505Y-73340204D01*
X102455505Y-73340204D01*
G37*
D12*
X101981000Y-73914000D03*
D11*
G36*
X102455505Y-71290204D02*
G01*
X102479773Y-71293804D01*
X102503572Y-71299765D01*
X102526671Y-71308030D01*
X102548850Y-71318520D01*
X102569893Y-71331132D01*
X102589599Y-71345747D01*
X102607777Y-71362223D01*
X102624253Y-71380401D01*
X102638868Y-71400107D01*
X102651480Y-71421150D01*
X102661970Y-71443329D01*
X102670235Y-71466428D01*
X102676196Y-71490227D01*
X102679796Y-71514495D01*
X102681000Y-71538999D01*
X102681000Y-72189001D01*
X102679796Y-72213505D01*
X102676196Y-72237773D01*
X102670235Y-72261572D01*
X102661970Y-72284671D01*
X102651480Y-72306850D01*
X102638868Y-72327893D01*
X102624253Y-72347599D01*
X102607777Y-72365777D01*
X102589599Y-72382253D01*
X102569893Y-72396868D01*
X102548850Y-72409480D01*
X102526671Y-72419970D01*
X102503572Y-72428235D01*
X102479773Y-72434196D01*
X102455505Y-72437796D01*
X102431001Y-72439000D01*
X101530999Y-72439000D01*
X101506495Y-72437796D01*
X101482227Y-72434196D01*
X101458428Y-72428235D01*
X101435329Y-72419970D01*
X101413150Y-72409480D01*
X101392107Y-72396868D01*
X101372401Y-72382253D01*
X101354223Y-72365777D01*
X101337747Y-72347599D01*
X101323132Y-72327893D01*
X101310520Y-72306850D01*
X101300030Y-72284671D01*
X101291765Y-72261572D01*
X101285804Y-72237773D01*
X101282204Y-72213505D01*
X101281000Y-72189001D01*
X101281000Y-71538999D01*
X101282204Y-71514495D01*
X101285804Y-71490227D01*
X101291765Y-71466428D01*
X101300030Y-71443329D01*
X101310520Y-71421150D01*
X101323132Y-71400107D01*
X101337747Y-71380401D01*
X101354223Y-71362223D01*
X101372401Y-71345747D01*
X101392107Y-71331132D01*
X101413150Y-71318520D01*
X101435329Y-71308030D01*
X101458428Y-71299765D01*
X101482227Y-71293804D01*
X101506495Y-71290204D01*
X101530999Y-71289000D01*
X102431001Y-71289000D01*
X102455505Y-71290204D01*
X102455505Y-71290204D01*
G37*
D12*
X101981000Y-71864000D03*
D17*
X89757500Y-115379500D03*
D18*
X90757500Y-112679500D03*
X91407500Y-112679500D03*
X92057500Y-112679500D03*
X89457500Y-112679500D03*
X90107500Y-112679500D03*
D17*
X91757500Y-115379500D03*
D11*
G36*
X99981005Y-83756204D02*
G01*
X100005273Y-83759804D01*
X100029072Y-83765765D01*
X100052171Y-83774030D01*
X100074350Y-83784520D01*
X100095393Y-83797132D01*
X100115099Y-83811747D01*
X100133277Y-83828223D01*
X100149753Y-83846401D01*
X100164368Y-83866107D01*
X100176980Y-83887150D01*
X100187470Y-83909329D01*
X100195735Y-83932428D01*
X100201696Y-83956227D01*
X100205296Y-83980495D01*
X100206500Y-84004999D01*
X100206500Y-84905001D01*
X100205296Y-84929505D01*
X100201696Y-84953773D01*
X100195735Y-84977572D01*
X100187470Y-85000671D01*
X100176980Y-85022850D01*
X100164368Y-85043893D01*
X100149753Y-85063599D01*
X100133277Y-85081777D01*
X100115099Y-85098253D01*
X100095393Y-85112868D01*
X100074350Y-85125480D01*
X100052171Y-85135970D01*
X100029072Y-85144235D01*
X100005273Y-85150196D01*
X99981005Y-85153796D01*
X99956501Y-85155000D01*
X99306499Y-85155000D01*
X99281995Y-85153796D01*
X99257727Y-85150196D01*
X99233928Y-85144235D01*
X99210829Y-85135970D01*
X99188650Y-85125480D01*
X99167607Y-85112868D01*
X99147901Y-85098253D01*
X99129723Y-85081777D01*
X99113247Y-85063599D01*
X99098632Y-85043893D01*
X99086020Y-85022850D01*
X99075530Y-85000671D01*
X99067265Y-84977572D01*
X99061304Y-84953773D01*
X99057704Y-84929505D01*
X99056500Y-84905001D01*
X99056500Y-84004999D01*
X99057704Y-83980495D01*
X99061304Y-83956227D01*
X99067265Y-83932428D01*
X99075530Y-83909329D01*
X99086020Y-83887150D01*
X99098632Y-83866107D01*
X99113247Y-83846401D01*
X99129723Y-83828223D01*
X99147901Y-83811747D01*
X99167607Y-83797132D01*
X99188650Y-83784520D01*
X99210829Y-83774030D01*
X99233928Y-83765765D01*
X99257727Y-83759804D01*
X99281995Y-83756204D01*
X99306499Y-83755000D01*
X99956501Y-83755000D01*
X99981005Y-83756204D01*
X99981005Y-83756204D01*
G37*
D12*
X99631500Y-84455000D03*
D11*
G36*
X102031005Y-83756204D02*
G01*
X102055273Y-83759804D01*
X102079072Y-83765765D01*
X102102171Y-83774030D01*
X102124350Y-83784520D01*
X102145393Y-83797132D01*
X102165099Y-83811747D01*
X102183277Y-83828223D01*
X102199753Y-83846401D01*
X102214368Y-83866107D01*
X102226980Y-83887150D01*
X102237470Y-83909329D01*
X102245735Y-83932428D01*
X102251696Y-83956227D01*
X102255296Y-83980495D01*
X102256500Y-84004999D01*
X102256500Y-84905001D01*
X102255296Y-84929505D01*
X102251696Y-84953773D01*
X102245735Y-84977572D01*
X102237470Y-85000671D01*
X102226980Y-85022850D01*
X102214368Y-85043893D01*
X102199753Y-85063599D01*
X102183277Y-85081777D01*
X102165099Y-85098253D01*
X102145393Y-85112868D01*
X102124350Y-85125480D01*
X102102171Y-85135970D01*
X102079072Y-85144235D01*
X102055273Y-85150196D01*
X102031005Y-85153796D01*
X102006501Y-85155000D01*
X101356499Y-85155000D01*
X101331995Y-85153796D01*
X101307727Y-85150196D01*
X101283928Y-85144235D01*
X101260829Y-85135970D01*
X101238650Y-85125480D01*
X101217607Y-85112868D01*
X101197901Y-85098253D01*
X101179723Y-85081777D01*
X101163247Y-85063599D01*
X101148632Y-85043893D01*
X101136020Y-85022850D01*
X101125530Y-85000671D01*
X101117265Y-84977572D01*
X101111304Y-84953773D01*
X101107704Y-84929505D01*
X101106500Y-84905001D01*
X101106500Y-84004999D01*
X101107704Y-83980495D01*
X101111304Y-83956227D01*
X101117265Y-83932428D01*
X101125530Y-83909329D01*
X101136020Y-83887150D01*
X101148632Y-83866107D01*
X101163247Y-83846401D01*
X101179723Y-83828223D01*
X101197901Y-83811747D01*
X101217607Y-83797132D01*
X101238650Y-83784520D01*
X101260829Y-83774030D01*
X101283928Y-83765765D01*
X101307727Y-83759804D01*
X101331995Y-83756204D01*
X101356499Y-83755000D01*
X102006501Y-83755000D01*
X102031005Y-83756204D01*
X102031005Y-83756204D01*
G37*
D12*
X101681500Y-84455000D03*
D11*
G36*
X129898505Y-104139704D02*
G01*
X129922773Y-104143304D01*
X129946572Y-104149265D01*
X129969671Y-104157530D01*
X129991850Y-104168020D01*
X130012893Y-104180632D01*
X130032599Y-104195247D01*
X130050777Y-104211723D01*
X130067253Y-104229901D01*
X130081868Y-104249607D01*
X130094480Y-104270650D01*
X130104970Y-104292829D01*
X130113235Y-104315928D01*
X130119196Y-104339727D01*
X130122796Y-104363995D01*
X130124000Y-104388499D01*
X130124000Y-105288501D01*
X130122796Y-105313005D01*
X130119196Y-105337273D01*
X130113235Y-105361072D01*
X130104970Y-105384171D01*
X130094480Y-105406350D01*
X130081868Y-105427393D01*
X130067253Y-105447099D01*
X130050777Y-105465277D01*
X130032599Y-105481753D01*
X130012893Y-105496368D01*
X129991850Y-105508980D01*
X129969671Y-105519470D01*
X129946572Y-105527735D01*
X129922773Y-105533696D01*
X129898505Y-105537296D01*
X129874001Y-105538500D01*
X129223999Y-105538500D01*
X129199495Y-105537296D01*
X129175227Y-105533696D01*
X129151428Y-105527735D01*
X129128329Y-105519470D01*
X129106150Y-105508980D01*
X129085107Y-105496368D01*
X129065401Y-105481753D01*
X129047223Y-105465277D01*
X129030747Y-105447099D01*
X129016132Y-105427393D01*
X129003520Y-105406350D01*
X128993030Y-105384171D01*
X128984765Y-105361072D01*
X128978804Y-105337273D01*
X128975204Y-105313005D01*
X128974000Y-105288501D01*
X128974000Y-104388499D01*
X128975204Y-104363995D01*
X128978804Y-104339727D01*
X128984765Y-104315928D01*
X128993030Y-104292829D01*
X129003520Y-104270650D01*
X129016132Y-104249607D01*
X129030747Y-104229901D01*
X129047223Y-104211723D01*
X129065401Y-104195247D01*
X129085107Y-104180632D01*
X129106150Y-104168020D01*
X129128329Y-104157530D01*
X129151428Y-104149265D01*
X129175227Y-104143304D01*
X129199495Y-104139704D01*
X129223999Y-104138500D01*
X129874001Y-104138500D01*
X129898505Y-104139704D01*
X129898505Y-104139704D01*
G37*
D12*
X129549000Y-104838500D03*
D11*
G36*
X127848505Y-104139704D02*
G01*
X127872773Y-104143304D01*
X127896572Y-104149265D01*
X127919671Y-104157530D01*
X127941850Y-104168020D01*
X127962893Y-104180632D01*
X127982599Y-104195247D01*
X128000777Y-104211723D01*
X128017253Y-104229901D01*
X128031868Y-104249607D01*
X128044480Y-104270650D01*
X128054970Y-104292829D01*
X128063235Y-104315928D01*
X128069196Y-104339727D01*
X128072796Y-104363995D01*
X128074000Y-104388499D01*
X128074000Y-105288501D01*
X128072796Y-105313005D01*
X128069196Y-105337273D01*
X128063235Y-105361072D01*
X128054970Y-105384171D01*
X128044480Y-105406350D01*
X128031868Y-105427393D01*
X128017253Y-105447099D01*
X128000777Y-105465277D01*
X127982599Y-105481753D01*
X127962893Y-105496368D01*
X127941850Y-105508980D01*
X127919671Y-105519470D01*
X127896572Y-105527735D01*
X127872773Y-105533696D01*
X127848505Y-105537296D01*
X127824001Y-105538500D01*
X127173999Y-105538500D01*
X127149495Y-105537296D01*
X127125227Y-105533696D01*
X127101428Y-105527735D01*
X127078329Y-105519470D01*
X127056150Y-105508980D01*
X127035107Y-105496368D01*
X127015401Y-105481753D01*
X126997223Y-105465277D01*
X126980747Y-105447099D01*
X126966132Y-105427393D01*
X126953520Y-105406350D01*
X126943030Y-105384171D01*
X126934765Y-105361072D01*
X126928804Y-105337273D01*
X126925204Y-105313005D01*
X126924000Y-105288501D01*
X126924000Y-104388499D01*
X126925204Y-104363995D01*
X126928804Y-104339727D01*
X126934765Y-104315928D01*
X126943030Y-104292829D01*
X126953520Y-104270650D01*
X126966132Y-104249607D01*
X126980747Y-104229901D01*
X126997223Y-104211723D01*
X127015401Y-104195247D01*
X127035107Y-104180632D01*
X127056150Y-104168020D01*
X127078329Y-104157530D01*
X127101428Y-104149265D01*
X127125227Y-104143304D01*
X127149495Y-104139704D01*
X127173999Y-104138500D01*
X127824001Y-104138500D01*
X127848505Y-104139704D01*
X127848505Y-104139704D01*
G37*
D12*
X127499000Y-104838500D03*
D11*
G36*
X98899505Y-114497204D02*
G01*
X98923773Y-114500804D01*
X98947572Y-114506765D01*
X98970671Y-114515030D01*
X98992850Y-114525520D01*
X99013893Y-114538132D01*
X99033599Y-114552747D01*
X99051777Y-114569223D01*
X99068253Y-114587401D01*
X99082868Y-114607107D01*
X99095480Y-114628150D01*
X99105970Y-114650329D01*
X99114235Y-114673428D01*
X99120196Y-114697227D01*
X99123796Y-114721495D01*
X99125000Y-114745999D01*
X99125000Y-115396001D01*
X99123796Y-115420505D01*
X99120196Y-115444773D01*
X99114235Y-115468572D01*
X99105970Y-115491671D01*
X99095480Y-115513850D01*
X99082868Y-115534893D01*
X99068253Y-115554599D01*
X99051777Y-115572777D01*
X99033599Y-115589253D01*
X99013893Y-115603868D01*
X98992850Y-115616480D01*
X98970671Y-115626970D01*
X98947572Y-115635235D01*
X98923773Y-115641196D01*
X98899505Y-115644796D01*
X98875001Y-115646000D01*
X97974999Y-115646000D01*
X97950495Y-115644796D01*
X97926227Y-115641196D01*
X97902428Y-115635235D01*
X97879329Y-115626970D01*
X97857150Y-115616480D01*
X97836107Y-115603868D01*
X97816401Y-115589253D01*
X97798223Y-115572777D01*
X97781747Y-115554599D01*
X97767132Y-115534893D01*
X97754520Y-115513850D01*
X97744030Y-115491671D01*
X97735765Y-115468572D01*
X97729804Y-115444773D01*
X97726204Y-115420505D01*
X97725000Y-115396001D01*
X97725000Y-114745999D01*
X97726204Y-114721495D01*
X97729804Y-114697227D01*
X97735765Y-114673428D01*
X97744030Y-114650329D01*
X97754520Y-114628150D01*
X97767132Y-114607107D01*
X97781747Y-114587401D01*
X97798223Y-114569223D01*
X97816401Y-114552747D01*
X97836107Y-114538132D01*
X97857150Y-114525520D01*
X97879329Y-114515030D01*
X97902428Y-114506765D01*
X97926227Y-114500804D01*
X97950495Y-114497204D01*
X97974999Y-114496000D01*
X98875001Y-114496000D01*
X98899505Y-114497204D01*
X98899505Y-114497204D01*
G37*
D12*
X98425000Y-115071000D03*
D11*
G36*
X98899505Y-112447204D02*
G01*
X98923773Y-112450804D01*
X98947572Y-112456765D01*
X98970671Y-112465030D01*
X98992850Y-112475520D01*
X99013893Y-112488132D01*
X99033599Y-112502747D01*
X99051777Y-112519223D01*
X99068253Y-112537401D01*
X99082868Y-112557107D01*
X99095480Y-112578150D01*
X99105970Y-112600329D01*
X99114235Y-112623428D01*
X99120196Y-112647227D01*
X99123796Y-112671495D01*
X99125000Y-112695999D01*
X99125000Y-113346001D01*
X99123796Y-113370505D01*
X99120196Y-113394773D01*
X99114235Y-113418572D01*
X99105970Y-113441671D01*
X99095480Y-113463850D01*
X99082868Y-113484893D01*
X99068253Y-113504599D01*
X99051777Y-113522777D01*
X99033599Y-113539253D01*
X99013893Y-113553868D01*
X98992850Y-113566480D01*
X98970671Y-113576970D01*
X98947572Y-113585235D01*
X98923773Y-113591196D01*
X98899505Y-113594796D01*
X98875001Y-113596000D01*
X97974999Y-113596000D01*
X97950495Y-113594796D01*
X97926227Y-113591196D01*
X97902428Y-113585235D01*
X97879329Y-113576970D01*
X97857150Y-113566480D01*
X97836107Y-113553868D01*
X97816401Y-113539253D01*
X97798223Y-113522777D01*
X97781747Y-113504599D01*
X97767132Y-113484893D01*
X97754520Y-113463850D01*
X97744030Y-113441671D01*
X97735765Y-113418572D01*
X97729804Y-113394773D01*
X97726204Y-113370505D01*
X97725000Y-113346001D01*
X97725000Y-112695999D01*
X97726204Y-112671495D01*
X97729804Y-112647227D01*
X97735765Y-112623428D01*
X97744030Y-112600329D01*
X97754520Y-112578150D01*
X97767132Y-112557107D01*
X97781747Y-112537401D01*
X97798223Y-112519223D01*
X97816401Y-112502747D01*
X97836107Y-112488132D01*
X97857150Y-112475520D01*
X97879329Y-112465030D01*
X97902428Y-112456765D01*
X97926227Y-112450804D01*
X97950495Y-112447204D01*
X97974999Y-112446000D01*
X98875001Y-112446000D01*
X98899505Y-112447204D01*
X98899505Y-112447204D01*
G37*
D12*
X98425000Y-113021000D03*
D11*
G36*
X87226505Y-106933704D02*
G01*
X87250773Y-106937304D01*
X87274572Y-106943265D01*
X87297671Y-106951530D01*
X87319850Y-106962020D01*
X87340893Y-106974632D01*
X87360599Y-106989247D01*
X87378777Y-107005723D01*
X87395253Y-107023901D01*
X87409868Y-107043607D01*
X87422480Y-107064650D01*
X87432970Y-107086829D01*
X87441235Y-107109928D01*
X87447196Y-107133727D01*
X87450796Y-107157995D01*
X87452000Y-107182499D01*
X87452000Y-108082501D01*
X87450796Y-108107005D01*
X87447196Y-108131273D01*
X87441235Y-108155072D01*
X87432970Y-108178171D01*
X87422480Y-108200350D01*
X87409868Y-108221393D01*
X87395253Y-108241099D01*
X87378777Y-108259277D01*
X87360599Y-108275753D01*
X87340893Y-108290368D01*
X87319850Y-108302980D01*
X87297671Y-108313470D01*
X87274572Y-108321735D01*
X87250773Y-108327696D01*
X87226505Y-108331296D01*
X87202001Y-108332500D01*
X86551999Y-108332500D01*
X86527495Y-108331296D01*
X86503227Y-108327696D01*
X86479428Y-108321735D01*
X86456329Y-108313470D01*
X86434150Y-108302980D01*
X86413107Y-108290368D01*
X86393401Y-108275753D01*
X86375223Y-108259277D01*
X86358747Y-108241099D01*
X86344132Y-108221393D01*
X86331520Y-108200350D01*
X86321030Y-108178171D01*
X86312765Y-108155072D01*
X86306804Y-108131273D01*
X86303204Y-108107005D01*
X86302000Y-108082501D01*
X86302000Y-107182499D01*
X86303204Y-107157995D01*
X86306804Y-107133727D01*
X86312765Y-107109928D01*
X86321030Y-107086829D01*
X86331520Y-107064650D01*
X86344132Y-107043607D01*
X86358747Y-107023901D01*
X86375223Y-107005723D01*
X86393401Y-106989247D01*
X86413107Y-106974632D01*
X86434150Y-106962020D01*
X86456329Y-106951530D01*
X86479428Y-106943265D01*
X86503227Y-106937304D01*
X86527495Y-106933704D01*
X86551999Y-106932500D01*
X87202001Y-106932500D01*
X87226505Y-106933704D01*
X87226505Y-106933704D01*
G37*
D12*
X86877000Y-107632500D03*
D11*
G36*
X85176505Y-106933704D02*
G01*
X85200773Y-106937304D01*
X85224572Y-106943265D01*
X85247671Y-106951530D01*
X85269850Y-106962020D01*
X85290893Y-106974632D01*
X85310599Y-106989247D01*
X85328777Y-107005723D01*
X85345253Y-107023901D01*
X85359868Y-107043607D01*
X85372480Y-107064650D01*
X85382970Y-107086829D01*
X85391235Y-107109928D01*
X85397196Y-107133727D01*
X85400796Y-107157995D01*
X85402000Y-107182499D01*
X85402000Y-108082501D01*
X85400796Y-108107005D01*
X85397196Y-108131273D01*
X85391235Y-108155072D01*
X85382970Y-108178171D01*
X85372480Y-108200350D01*
X85359868Y-108221393D01*
X85345253Y-108241099D01*
X85328777Y-108259277D01*
X85310599Y-108275753D01*
X85290893Y-108290368D01*
X85269850Y-108302980D01*
X85247671Y-108313470D01*
X85224572Y-108321735D01*
X85200773Y-108327696D01*
X85176505Y-108331296D01*
X85152001Y-108332500D01*
X84501999Y-108332500D01*
X84477495Y-108331296D01*
X84453227Y-108327696D01*
X84429428Y-108321735D01*
X84406329Y-108313470D01*
X84384150Y-108302980D01*
X84363107Y-108290368D01*
X84343401Y-108275753D01*
X84325223Y-108259277D01*
X84308747Y-108241099D01*
X84294132Y-108221393D01*
X84281520Y-108200350D01*
X84271030Y-108178171D01*
X84262765Y-108155072D01*
X84256804Y-108131273D01*
X84253204Y-108107005D01*
X84252000Y-108082501D01*
X84252000Y-107182499D01*
X84253204Y-107157995D01*
X84256804Y-107133727D01*
X84262765Y-107109928D01*
X84271030Y-107086829D01*
X84281520Y-107064650D01*
X84294132Y-107043607D01*
X84308747Y-107023901D01*
X84325223Y-107005723D01*
X84343401Y-106989247D01*
X84363107Y-106974632D01*
X84384150Y-106962020D01*
X84406329Y-106951530D01*
X84429428Y-106943265D01*
X84453227Y-106937304D01*
X84477495Y-106933704D01*
X84501999Y-106932500D01*
X85152001Y-106932500D01*
X85176505Y-106933704D01*
X85176505Y-106933704D01*
G37*
D12*
X84827000Y-107632500D03*
D11*
G36*
X87163005Y-103504704D02*
G01*
X87187273Y-103508304D01*
X87211072Y-103514265D01*
X87234171Y-103522530D01*
X87256350Y-103533020D01*
X87277393Y-103545632D01*
X87297099Y-103560247D01*
X87315277Y-103576723D01*
X87331753Y-103594901D01*
X87346368Y-103614607D01*
X87358980Y-103635650D01*
X87369470Y-103657829D01*
X87377735Y-103680928D01*
X87383696Y-103704727D01*
X87387296Y-103728995D01*
X87388500Y-103753499D01*
X87388500Y-104653501D01*
X87387296Y-104678005D01*
X87383696Y-104702273D01*
X87377735Y-104726072D01*
X87369470Y-104749171D01*
X87358980Y-104771350D01*
X87346368Y-104792393D01*
X87331753Y-104812099D01*
X87315277Y-104830277D01*
X87297099Y-104846753D01*
X87277393Y-104861368D01*
X87256350Y-104873980D01*
X87234171Y-104884470D01*
X87211072Y-104892735D01*
X87187273Y-104898696D01*
X87163005Y-104902296D01*
X87138501Y-104903500D01*
X86488499Y-104903500D01*
X86463995Y-104902296D01*
X86439727Y-104898696D01*
X86415928Y-104892735D01*
X86392829Y-104884470D01*
X86370650Y-104873980D01*
X86349607Y-104861368D01*
X86329901Y-104846753D01*
X86311723Y-104830277D01*
X86295247Y-104812099D01*
X86280632Y-104792393D01*
X86268020Y-104771350D01*
X86257530Y-104749171D01*
X86249265Y-104726072D01*
X86243304Y-104702273D01*
X86239704Y-104678005D01*
X86238500Y-104653501D01*
X86238500Y-103753499D01*
X86239704Y-103728995D01*
X86243304Y-103704727D01*
X86249265Y-103680928D01*
X86257530Y-103657829D01*
X86268020Y-103635650D01*
X86280632Y-103614607D01*
X86295247Y-103594901D01*
X86311723Y-103576723D01*
X86329901Y-103560247D01*
X86349607Y-103545632D01*
X86370650Y-103533020D01*
X86392829Y-103522530D01*
X86415928Y-103514265D01*
X86439727Y-103508304D01*
X86463995Y-103504704D01*
X86488499Y-103503500D01*
X87138501Y-103503500D01*
X87163005Y-103504704D01*
X87163005Y-103504704D01*
G37*
D12*
X86813500Y-104203500D03*
D11*
G36*
X85113005Y-103504704D02*
G01*
X85137273Y-103508304D01*
X85161072Y-103514265D01*
X85184171Y-103522530D01*
X85206350Y-103533020D01*
X85227393Y-103545632D01*
X85247099Y-103560247D01*
X85265277Y-103576723D01*
X85281753Y-103594901D01*
X85296368Y-103614607D01*
X85308980Y-103635650D01*
X85319470Y-103657829D01*
X85327735Y-103680928D01*
X85333696Y-103704727D01*
X85337296Y-103728995D01*
X85338500Y-103753499D01*
X85338500Y-104653501D01*
X85337296Y-104678005D01*
X85333696Y-104702273D01*
X85327735Y-104726072D01*
X85319470Y-104749171D01*
X85308980Y-104771350D01*
X85296368Y-104792393D01*
X85281753Y-104812099D01*
X85265277Y-104830277D01*
X85247099Y-104846753D01*
X85227393Y-104861368D01*
X85206350Y-104873980D01*
X85184171Y-104884470D01*
X85161072Y-104892735D01*
X85137273Y-104898696D01*
X85113005Y-104902296D01*
X85088501Y-104903500D01*
X84438499Y-104903500D01*
X84413995Y-104902296D01*
X84389727Y-104898696D01*
X84365928Y-104892735D01*
X84342829Y-104884470D01*
X84320650Y-104873980D01*
X84299607Y-104861368D01*
X84279901Y-104846753D01*
X84261723Y-104830277D01*
X84245247Y-104812099D01*
X84230632Y-104792393D01*
X84218020Y-104771350D01*
X84207530Y-104749171D01*
X84199265Y-104726072D01*
X84193304Y-104702273D01*
X84189704Y-104678005D01*
X84188500Y-104653501D01*
X84188500Y-103753499D01*
X84189704Y-103728995D01*
X84193304Y-103704727D01*
X84199265Y-103680928D01*
X84207530Y-103657829D01*
X84218020Y-103635650D01*
X84230632Y-103614607D01*
X84245247Y-103594901D01*
X84261723Y-103576723D01*
X84279901Y-103560247D01*
X84299607Y-103545632D01*
X84320650Y-103533020D01*
X84342829Y-103522530D01*
X84365928Y-103514265D01*
X84389727Y-103508304D01*
X84413995Y-103504704D01*
X84438499Y-103503500D01*
X85088501Y-103503500D01*
X85113005Y-103504704D01*
X85113005Y-103504704D01*
G37*
D12*
X84763500Y-104203500D03*
D11*
G36*
X87163005Y-100139204D02*
G01*
X87187273Y-100142804D01*
X87211072Y-100148765D01*
X87234171Y-100157030D01*
X87256350Y-100167520D01*
X87277393Y-100180132D01*
X87297099Y-100194747D01*
X87315277Y-100211223D01*
X87331753Y-100229401D01*
X87346368Y-100249107D01*
X87358980Y-100270150D01*
X87369470Y-100292329D01*
X87377735Y-100315428D01*
X87383696Y-100339227D01*
X87387296Y-100363495D01*
X87388500Y-100387999D01*
X87388500Y-101288001D01*
X87387296Y-101312505D01*
X87383696Y-101336773D01*
X87377735Y-101360572D01*
X87369470Y-101383671D01*
X87358980Y-101405850D01*
X87346368Y-101426893D01*
X87331753Y-101446599D01*
X87315277Y-101464777D01*
X87297099Y-101481253D01*
X87277393Y-101495868D01*
X87256350Y-101508480D01*
X87234171Y-101518970D01*
X87211072Y-101527235D01*
X87187273Y-101533196D01*
X87163005Y-101536796D01*
X87138501Y-101538000D01*
X86488499Y-101538000D01*
X86463995Y-101536796D01*
X86439727Y-101533196D01*
X86415928Y-101527235D01*
X86392829Y-101518970D01*
X86370650Y-101508480D01*
X86349607Y-101495868D01*
X86329901Y-101481253D01*
X86311723Y-101464777D01*
X86295247Y-101446599D01*
X86280632Y-101426893D01*
X86268020Y-101405850D01*
X86257530Y-101383671D01*
X86249265Y-101360572D01*
X86243304Y-101336773D01*
X86239704Y-101312505D01*
X86238500Y-101288001D01*
X86238500Y-100387999D01*
X86239704Y-100363495D01*
X86243304Y-100339227D01*
X86249265Y-100315428D01*
X86257530Y-100292329D01*
X86268020Y-100270150D01*
X86280632Y-100249107D01*
X86295247Y-100229401D01*
X86311723Y-100211223D01*
X86329901Y-100194747D01*
X86349607Y-100180132D01*
X86370650Y-100167520D01*
X86392829Y-100157030D01*
X86415928Y-100148765D01*
X86439727Y-100142804D01*
X86463995Y-100139204D01*
X86488499Y-100138000D01*
X87138501Y-100138000D01*
X87163005Y-100139204D01*
X87163005Y-100139204D01*
G37*
D12*
X86813500Y-100838000D03*
D11*
G36*
X85113005Y-100139204D02*
G01*
X85137273Y-100142804D01*
X85161072Y-100148765D01*
X85184171Y-100157030D01*
X85206350Y-100167520D01*
X85227393Y-100180132D01*
X85247099Y-100194747D01*
X85265277Y-100211223D01*
X85281753Y-100229401D01*
X85296368Y-100249107D01*
X85308980Y-100270150D01*
X85319470Y-100292329D01*
X85327735Y-100315428D01*
X85333696Y-100339227D01*
X85337296Y-100363495D01*
X85338500Y-100387999D01*
X85338500Y-101288001D01*
X85337296Y-101312505D01*
X85333696Y-101336773D01*
X85327735Y-101360572D01*
X85319470Y-101383671D01*
X85308980Y-101405850D01*
X85296368Y-101426893D01*
X85281753Y-101446599D01*
X85265277Y-101464777D01*
X85247099Y-101481253D01*
X85227393Y-101495868D01*
X85206350Y-101508480D01*
X85184171Y-101518970D01*
X85161072Y-101527235D01*
X85137273Y-101533196D01*
X85113005Y-101536796D01*
X85088501Y-101538000D01*
X84438499Y-101538000D01*
X84413995Y-101536796D01*
X84389727Y-101533196D01*
X84365928Y-101527235D01*
X84342829Y-101518970D01*
X84320650Y-101508480D01*
X84299607Y-101495868D01*
X84279901Y-101481253D01*
X84261723Y-101464777D01*
X84245247Y-101446599D01*
X84230632Y-101426893D01*
X84218020Y-101405850D01*
X84207530Y-101383671D01*
X84199265Y-101360572D01*
X84193304Y-101336773D01*
X84189704Y-101312505D01*
X84188500Y-101288001D01*
X84188500Y-100387999D01*
X84189704Y-100363495D01*
X84193304Y-100339227D01*
X84199265Y-100315428D01*
X84207530Y-100292329D01*
X84218020Y-100270150D01*
X84230632Y-100249107D01*
X84245247Y-100229401D01*
X84261723Y-100211223D01*
X84279901Y-100194747D01*
X84299607Y-100180132D01*
X84320650Y-100167520D01*
X84342829Y-100157030D01*
X84365928Y-100148765D01*
X84389727Y-100142804D01*
X84413995Y-100139204D01*
X84438499Y-100138000D01*
X85088501Y-100138000D01*
X85113005Y-100139204D01*
X85113005Y-100139204D01*
G37*
D12*
X84763500Y-100838000D03*
D11*
G36*
X87226505Y-96710204D02*
G01*
X87250773Y-96713804D01*
X87274572Y-96719765D01*
X87297671Y-96728030D01*
X87319850Y-96738520D01*
X87340893Y-96751132D01*
X87360599Y-96765747D01*
X87378777Y-96782223D01*
X87395253Y-96800401D01*
X87409868Y-96820107D01*
X87422480Y-96841150D01*
X87432970Y-96863329D01*
X87441235Y-96886428D01*
X87447196Y-96910227D01*
X87450796Y-96934495D01*
X87452000Y-96958999D01*
X87452000Y-97859001D01*
X87450796Y-97883505D01*
X87447196Y-97907773D01*
X87441235Y-97931572D01*
X87432970Y-97954671D01*
X87422480Y-97976850D01*
X87409868Y-97997893D01*
X87395253Y-98017599D01*
X87378777Y-98035777D01*
X87360599Y-98052253D01*
X87340893Y-98066868D01*
X87319850Y-98079480D01*
X87297671Y-98089970D01*
X87274572Y-98098235D01*
X87250773Y-98104196D01*
X87226505Y-98107796D01*
X87202001Y-98109000D01*
X86551999Y-98109000D01*
X86527495Y-98107796D01*
X86503227Y-98104196D01*
X86479428Y-98098235D01*
X86456329Y-98089970D01*
X86434150Y-98079480D01*
X86413107Y-98066868D01*
X86393401Y-98052253D01*
X86375223Y-98035777D01*
X86358747Y-98017599D01*
X86344132Y-97997893D01*
X86331520Y-97976850D01*
X86321030Y-97954671D01*
X86312765Y-97931572D01*
X86306804Y-97907773D01*
X86303204Y-97883505D01*
X86302000Y-97859001D01*
X86302000Y-96958999D01*
X86303204Y-96934495D01*
X86306804Y-96910227D01*
X86312765Y-96886428D01*
X86321030Y-96863329D01*
X86331520Y-96841150D01*
X86344132Y-96820107D01*
X86358747Y-96800401D01*
X86375223Y-96782223D01*
X86393401Y-96765747D01*
X86413107Y-96751132D01*
X86434150Y-96738520D01*
X86456329Y-96728030D01*
X86479428Y-96719765D01*
X86503227Y-96713804D01*
X86527495Y-96710204D01*
X86551999Y-96709000D01*
X87202001Y-96709000D01*
X87226505Y-96710204D01*
X87226505Y-96710204D01*
G37*
D12*
X86877000Y-97409000D03*
D11*
G36*
X85176505Y-96710204D02*
G01*
X85200773Y-96713804D01*
X85224572Y-96719765D01*
X85247671Y-96728030D01*
X85269850Y-96738520D01*
X85290893Y-96751132D01*
X85310599Y-96765747D01*
X85328777Y-96782223D01*
X85345253Y-96800401D01*
X85359868Y-96820107D01*
X85372480Y-96841150D01*
X85382970Y-96863329D01*
X85391235Y-96886428D01*
X85397196Y-96910227D01*
X85400796Y-96934495D01*
X85402000Y-96958999D01*
X85402000Y-97859001D01*
X85400796Y-97883505D01*
X85397196Y-97907773D01*
X85391235Y-97931572D01*
X85382970Y-97954671D01*
X85372480Y-97976850D01*
X85359868Y-97997893D01*
X85345253Y-98017599D01*
X85328777Y-98035777D01*
X85310599Y-98052253D01*
X85290893Y-98066868D01*
X85269850Y-98079480D01*
X85247671Y-98089970D01*
X85224572Y-98098235D01*
X85200773Y-98104196D01*
X85176505Y-98107796D01*
X85152001Y-98109000D01*
X84501999Y-98109000D01*
X84477495Y-98107796D01*
X84453227Y-98104196D01*
X84429428Y-98098235D01*
X84406329Y-98089970D01*
X84384150Y-98079480D01*
X84363107Y-98066868D01*
X84343401Y-98052253D01*
X84325223Y-98035777D01*
X84308747Y-98017599D01*
X84294132Y-97997893D01*
X84281520Y-97976850D01*
X84271030Y-97954671D01*
X84262765Y-97931572D01*
X84256804Y-97907773D01*
X84253204Y-97883505D01*
X84252000Y-97859001D01*
X84252000Y-96958999D01*
X84253204Y-96934495D01*
X84256804Y-96910227D01*
X84262765Y-96886428D01*
X84271030Y-96863329D01*
X84281520Y-96841150D01*
X84294132Y-96820107D01*
X84308747Y-96800401D01*
X84325223Y-96782223D01*
X84343401Y-96765747D01*
X84363107Y-96751132D01*
X84384150Y-96738520D01*
X84406329Y-96728030D01*
X84429428Y-96719765D01*
X84453227Y-96713804D01*
X84477495Y-96710204D01*
X84501999Y-96709000D01*
X85152001Y-96709000D01*
X85176505Y-96710204D01*
X85176505Y-96710204D01*
G37*
D12*
X84827000Y-97409000D03*
D19*
X127081000Y-82632000D03*
X126441000Y-82632000D03*
X125801000Y-82632000D03*
X125161000Y-82632000D03*
X124521000Y-82632000D03*
X123881000Y-82632000D03*
X123241000Y-82632000D03*
X122601000Y-82632000D03*
X122601000Y-88056000D03*
X123241000Y-88056000D03*
X123881000Y-88056000D03*
X124521000Y-88056000D03*
X125161000Y-88056000D03*
X125801000Y-88056000D03*
X126441000Y-88056000D03*
X127081000Y-88056000D03*
X89881000Y-88183000D03*
X90521000Y-88183000D03*
X91161000Y-88183000D03*
X91801000Y-88183000D03*
X92441000Y-88183000D03*
X93081000Y-88183000D03*
X93721000Y-88183000D03*
X94361000Y-88183000D03*
X94361000Y-82759000D03*
X93721000Y-82759000D03*
X93081000Y-82759000D03*
X92441000Y-82759000D03*
X91801000Y-82759000D03*
X91161000Y-82759000D03*
X90521000Y-82759000D03*
X89881000Y-82759000D03*
M02*
