G04 #@! TF.GenerationSoftware,KiCad,Pcbnew,(5.1.4)-1*
G04 #@! TF.CreationDate,2019-10-20T15:20:57+05:30*
G04 #@! TF.ProjectId,RPi Hat RF Transmitter V1,52506920-4861-4742-9052-46205472616e,rev?*
G04 #@! TF.SameCoordinates,Original*
G04 #@! TF.FileFunction,Soldermask,Top*
G04 #@! TF.FilePolarity,Negative*
%FSLAX46Y46*%
G04 Gerber Fmt 4.6, Leading zero omitted, Abs format (unit mm)*
G04 Created by KiCad (PCBNEW (5.1.4)-1) date 2019-10-20 15:20:57*
%MOMM*%
%LPD*%
G04 APERTURE LIST*
%ADD10C,0.150000*%
%ADD11O,1.900000X1.900000*%
%ADD12R,1.900000X1.900000*%
%ADD13R,1.400000X2.100000*%
%ADD14O,1.400000X2.100000*%
%ADD15R,1.700000X2.100000*%
%ADD16C,1.650000*%
%ADD17R,0.600000X1.550000*%
%ADD18C,0.810000*%
%ADD19C,0.100000*%
%ADD20C,1.240000*%
%ADD21C,1.724000*%
%ADD22C,1.350000*%
%ADD23C,2.450000*%
%ADD24C,2.250000*%
%ADD25C,3.000000*%
%ADD26C,1.100000*%
%ADD27C,0.800000*%
%ADD28C,3.200000*%
G04 APERTURE END LIST*
D10*
X78546356Y-63817611D02*
X78546356Y-113817611D01*
X140546356Y-60817611D02*
X81546356Y-60817611D01*
X143546351Y-113822847D02*
X143546356Y-63817611D01*
X81546356Y-116817611D02*
X140546356Y-116817611D01*
X78546356Y-63817611D02*
G75*
G02X81546356Y-60817611I3000000J0D01*
G01*
X140546356Y-60817611D02*
G75*
G02X143546356Y-63817611I0J-3000000D01*
G01*
X81546356Y-116817611D02*
G75*
G02X78546356Y-113817611I0J3000000D01*
G01*
X143546351Y-113822847D02*
G75*
G02X140546356Y-116817611I-2999995J5236D01*
G01*
D11*
X138760000Y-83900000D03*
D12*
X136220000Y-83900000D03*
D11*
X88200000Y-68820000D03*
D12*
X85660000Y-68820000D03*
D13*
X87857500Y-115379500D03*
X93657500Y-115379500D03*
D14*
X94257500Y-115379500D03*
X87257500Y-115379500D03*
D15*
X89757500Y-115379500D03*
D16*
X93257500Y-112679500D03*
D17*
X90757500Y-112679500D03*
X91407500Y-112679500D03*
X92057500Y-112679500D03*
X89457500Y-112679500D03*
X90107500Y-112679500D03*
D16*
X88257500Y-112679500D03*
D15*
X91757500Y-115379500D03*
D18*
X107120000Y-96395000D03*
X107120000Y-98605000D03*
D19*
G36*
X107342348Y-95850975D02*
G01*
X107362006Y-95853891D01*
X107381283Y-95858720D01*
X107399993Y-95865414D01*
X107417958Y-95873911D01*
X107435003Y-95884127D01*
X107450965Y-95895965D01*
X107465689Y-95909311D01*
X107479035Y-95924035D01*
X107490873Y-95939997D01*
X107501089Y-95957042D01*
X107509586Y-95975007D01*
X107516280Y-95993717D01*
X107521109Y-96012994D01*
X107524025Y-96032652D01*
X107525000Y-96052500D01*
X107525000Y-97092500D01*
X107524025Y-97112348D01*
X107521109Y-97132006D01*
X107516280Y-97151283D01*
X107509586Y-97169993D01*
X107501089Y-97187958D01*
X107490873Y-97205003D01*
X107479035Y-97220965D01*
X107465689Y-97235689D01*
X107450965Y-97249035D01*
X107435003Y-97260873D01*
X107417958Y-97271089D01*
X107399993Y-97279586D01*
X107381283Y-97286280D01*
X107362006Y-97291109D01*
X107342348Y-97294025D01*
X107322500Y-97295000D01*
X106917500Y-97295000D01*
X106897652Y-97294025D01*
X106877994Y-97291109D01*
X106858717Y-97286280D01*
X106840007Y-97279586D01*
X106822042Y-97271089D01*
X106804997Y-97260873D01*
X106789035Y-97249035D01*
X106774311Y-97235689D01*
X106760965Y-97220965D01*
X106749127Y-97205003D01*
X106738911Y-97187958D01*
X106730414Y-97169993D01*
X106723720Y-97151283D01*
X106718891Y-97132006D01*
X106715975Y-97112348D01*
X106715000Y-97092500D01*
X106715000Y-96052500D01*
X106715975Y-96032652D01*
X106718891Y-96012994D01*
X106723720Y-95993717D01*
X106730414Y-95975007D01*
X106738911Y-95957042D01*
X106749127Y-95939997D01*
X106760965Y-95924035D01*
X106774311Y-95909311D01*
X106789035Y-95895965D01*
X106804997Y-95884127D01*
X106822042Y-95873911D01*
X106840007Y-95865414D01*
X106858717Y-95858720D01*
X106877994Y-95853891D01*
X106897652Y-95850975D01*
X106917500Y-95850000D01*
X107322500Y-95850000D01*
X107342348Y-95850975D01*
X107342348Y-95850975D01*
G37*
D18*
X107120000Y-96572500D03*
D19*
G36*
X107342348Y-97705975D02*
G01*
X107362006Y-97708891D01*
X107381283Y-97713720D01*
X107399993Y-97720414D01*
X107417958Y-97728911D01*
X107435003Y-97739127D01*
X107450965Y-97750965D01*
X107465689Y-97764311D01*
X107479035Y-97779035D01*
X107490873Y-97794997D01*
X107501089Y-97812042D01*
X107509586Y-97830007D01*
X107516280Y-97848717D01*
X107521109Y-97867994D01*
X107524025Y-97887652D01*
X107525000Y-97907500D01*
X107525000Y-98947500D01*
X107524025Y-98967348D01*
X107521109Y-98987006D01*
X107516280Y-99006283D01*
X107509586Y-99024993D01*
X107501089Y-99042958D01*
X107490873Y-99060003D01*
X107479035Y-99075965D01*
X107465689Y-99090689D01*
X107450965Y-99104035D01*
X107435003Y-99115873D01*
X107417958Y-99126089D01*
X107399993Y-99134586D01*
X107381283Y-99141280D01*
X107362006Y-99146109D01*
X107342348Y-99149025D01*
X107322500Y-99150000D01*
X106917500Y-99150000D01*
X106897652Y-99149025D01*
X106877994Y-99146109D01*
X106858717Y-99141280D01*
X106840007Y-99134586D01*
X106822042Y-99126089D01*
X106804997Y-99115873D01*
X106789035Y-99104035D01*
X106774311Y-99090689D01*
X106760965Y-99075965D01*
X106749127Y-99060003D01*
X106738911Y-99042958D01*
X106730414Y-99024993D01*
X106723720Y-99006283D01*
X106718891Y-98987006D01*
X106715975Y-98967348D01*
X106715000Y-98947500D01*
X106715000Y-97907500D01*
X106715975Y-97887652D01*
X106718891Y-97867994D01*
X106723720Y-97848717D01*
X106730414Y-97830007D01*
X106738911Y-97812042D01*
X106749127Y-97794997D01*
X106760965Y-97779035D01*
X106774311Y-97764311D01*
X106789035Y-97750965D01*
X106804997Y-97739127D01*
X106822042Y-97728911D01*
X106840007Y-97720414D01*
X106858717Y-97713720D01*
X106877994Y-97708891D01*
X106897652Y-97705975D01*
X106917500Y-97705000D01*
X107322500Y-97705000D01*
X107342348Y-97705975D01*
X107342348Y-97705975D01*
G37*
D18*
X107120000Y-98427500D03*
D19*
G36*
X109096570Y-96501433D02*
G01*
X109125459Y-96505718D01*
X109153789Y-96512815D01*
X109181287Y-96522653D01*
X109207688Y-96535140D01*
X109232738Y-96550155D01*
X109256195Y-96567552D01*
X109277835Y-96587165D01*
X109297448Y-96608805D01*
X109314845Y-96632262D01*
X109329860Y-96657312D01*
X109342347Y-96683713D01*
X109352185Y-96711211D01*
X109359282Y-96739541D01*
X109363567Y-96768430D01*
X109365000Y-96797600D01*
X109365000Y-98202400D01*
X109363567Y-98231570D01*
X109359282Y-98260459D01*
X109352185Y-98288789D01*
X109342347Y-98316287D01*
X109329860Y-98342688D01*
X109314845Y-98367738D01*
X109297448Y-98391195D01*
X109277835Y-98412835D01*
X109256195Y-98432448D01*
X109232738Y-98449845D01*
X109207688Y-98464860D01*
X109181287Y-98477347D01*
X109153789Y-98487185D01*
X109125459Y-98494282D01*
X109096570Y-98498567D01*
X109067400Y-98500000D01*
X108422600Y-98500000D01*
X108393430Y-98498567D01*
X108364541Y-98494282D01*
X108336211Y-98487185D01*
X108308713Y-98477347D01*
X108282312Y-98464860D01*
X108257262Y-98449845D01*
X108233805Y-98432448D01*
X108212165Y-98412835D01*
X108192552Y-98391195D01*
X108175155Y-98367738D01*
X108160140Y-98342688D01*
X108147653Y-98316287D01*
X108137815Y-98288789D01*
X108130718Y-98260459D01*
X108126433Y-98231570D01*
X108125000Y-98202400D01*
X108125000Y-96797600D01*
X108126433Y-96768430D01*
X108130718Y-96739541D01*
X108137815Y-96711211D01*
X108147653Y-96683713D01*
X108160140Y-96657312D01*
X108175155Y-96632262D01*
X108192552Y-96608805D01*
X108212165Y-96587165D01*
X108233805Y-96567552D01*
X108257262Y-96550155D01*
X108282312Y-96535140D01*
X108308713Y-96522653D01*
X108336211Y-96512815D01*
X108364541Y-96505718D01*
X108393430Y-96501433D01*
X108422600Y-96500000D01*
X109067400Y-96500000D01*
X109096570Y-96501433D01*
X109096570Y-96501433D01*
G37*
D20*
X108745000Y-97500000D03*
D19*
G36*
X105846570Y-96501433D02*
G01*
X105875459Y-96505718D01*
X105903789Y-96512815D01*
X105931287Y-96522653D01*
X105957688Y-96535140D01*
X105982738Y-96550155D01*
X106006195Y-96567552D01*
X106027835Y-96587165D01*
X106047448Y-96608805D01*
X106064845Y-96632262D01*
X106079860Y-96657312D01*
X106092347Y-96683713D01*
X106102185Y-96711211D01*
X106109282Y-96739541D01*
X106113567Y-96768430D01*
X106115000Y-96797600D01*
X106115000Y-98202400D01*
X106113567Y-98231570D01*
X106109282Y-98260459D01*
X106102185Y-98288789D01*
X106092347Y-98316287D01*
X106079860Y-98342688D01*
X106064845Y-98367738D01*
X106047448Y-98391195D01*
X106027835Y-98412835D01*
X106006195Y-98432448D01*
X105982738Y-98449845D01*
X105957688Y-98464860D01*
X105931287Y-98477347D01*
X105903789Y-98487185D01*
X105875459Y-98494282D01*
X105846570Y-98498567D01*
X105817400Y-98500000D01*
X105172600Y-98500000D01*
X105143430Y-98498567D01*
X105114541Y-98494282D01*
X105086211Y-98487185D01*
X105058713Y-98477347D01*
X105032312Y-98464860D01*
X105007262Y-98449845D01*
X104983805Y-98432448D01*
X104962165Y-98412835D01*
X104942552Y-98391195D01*
X104925155Y-98367738D01*
X104910140Y-98342688D01*
X104897653Y-98316287D01*
X104887815Y-98288789D01*
X104880718Y-98260459D01*
X104876433Y-98231570D01*
X104875000Y-98202400D01*
X104875000Y-96797600D01*
X104876433Y-96768430D01*
X104880718Y-96739541D01*
X104887815Y-96711211D01*
X104897653Y-96683713D01*
X104910140Y-96657312D01*
X104925155Y-96632262D01*
X104942552Y-96608805D01*
X104962165Y-96587165D01*
X104983805Y-96567552D01*
X105007262Y-96550155D01*
X105032312Y-96535140D01*
X105058713Y-96522653D01*
X105086211Y-96512815D01*
X105114541Y-96505718D01*
X105143430Y-96501433D01*
X105172600Y-96500000D01*
X105817400Y-96500000D01*
X105846570Y-96501433D01*
X105846570Y-96501433D01*
G37*
D20*
X105495000Y-97500000D03*
D21*
X89820000Y-81900000D03*
X89820000Y-84440000D03*
X89820000Y-86980000D03*
X89820000Y-89520000D03*
X82200000Y-84440000D03*
X124840000Y-89280000D03*
X124840000Y-86740000D03*
X124840000Y-84200000D03*
X124840000Y-81660000D03*
X132460000Y-86740000D03*
D19*
G36*
X121196289Y-89823413D02*
G01*
X121224778Y-89827639D01*
X121252715Y-89834637D01*
X121279832Y-89844340D01*
X121305867Y-89856653D01*
X121330570Y-89871460D01*
X121353703Y-89888616D01*
X121375043Y-89907957D01*
X121394384Y-89929297D01*
X121411540Y-89952430D01*
X121426347Y-89977133D01*
X121438660Y-90003168D01*
X121448363Y-90030285D01*
X121455361Y-90058222D01*
X121459587Y-90086711D01*
X121461000Y-90115477D01*
X121461000Y-90878523D01*
X121459587Y-90907289D01*
X121455361Y-90935778D01*
X121448363Y-90963715D01*
X121438660Y-90990832D01*
X121426347Y-91016867D01*
X121411540Y-91041570D01*
X121394384Y-91064703D01*
X121375043Y-91086043D01*
X121353703Y-91105384D01*
X121330570Y-91122540D01*
X121305867Y-91137347D01*
X121279832Y-91149660D01*
X121252715Y-91159363D01*
X121224778Y-91166361D01*
X121196289Y-91170587D01*
X121167523Y-91172000D01*
X120154477Y-91172000D01*
X120125711Y-91170587D01*
X120097222Y-91166361D01*
X120069285Y-91159363D01*
X120042168Y-91149660D01*
X120016133Y-91137347D01*
X119991430Y-91122540D01*
X119968297Y-91105384D01*
X119946957Y-91086043D01*
X119927616Y-91064703D01*
X119910460Y-91041570D01*
X119895653Y-91016867D01*
X119883340Y-90990832D01*
X119873637Y-90963715D01*
X119866639Y-90935778D01*
X119862413Y-90907289D01*
X119861000Y-90878523D01*
X119861000Y-90115477D01*
X119862413Y-90086711D01*
X119866639Y-90058222D01*
X119873637Y-90030285D01*
X119883340Y-90003168D01*
X119895653Y-89977133D01*
X119910460Y-89952430D01*
X119927616Y-89929297D01*
X119946957Y-89907957D01*
X119968297Y-89888616D01*
X119991430Y-89871460D01*
X120016133Y-89856653D01*
X120042168Y-89844340D01*
X120069285Y-89834637D01*
X120097222Y-89827639D01*
X120125711Y-89823413D01*
X120154477Y-89822000D01*
X121167523Y-89822000D01*
X121196289Y-89823413D01*
X121196289Y-89823413D01*
G37*
D22*
X120661000Y-90497000D03*
D19*
G36*
X121196289Y-87773413D02*
G01*
X121224778Y-87777639D01*
X121252715Y-87784637D01*
X121279832Y-87794340D01*
X121305867Y-87806653D01*
X121330570Y-87821460D01*
X121353703Y-87838616D01*
X121375043Y-87857957D01*
X121394384Y-87879297D01*
X121411540Y-87902430D01*
X121426347Y-87927133D01*
X121438660Y-87953168D01*
X121448363Y-87980285D01*
X121455361Y-88008222D01*
X121459587Y-88036711D01*
X121461000Y-88065477D01*
X121461000Y-88828523D01*
X121459587Y-88857289D01*
X121455361Y-88885778D01*
X121448363Y-88913715D01*
X121438660Y-88940832D01*
X121426347Y-88966867D01*
X121411540Y-88991570D01*
X121394384Y-89014703D01*
X121375043Y-89036043D01*
X121353703Y-89055384D01*
X121330570Y-89072540D01*
X121305867Y-89087347D01*
X121279832Y-89099660D01*
X121252715Y-89109363D01*
X121224778Y-89116361D01*
X121196289Y-89120587D01*
X121167523Y-89122000D01*
X120154477Y-89122000D01*
X120125711Y-89120587D01*
X120097222Y-89116361D01*
X120069285Y-89109363D01*
X120042168Y-89099660D01*
X120016133Y-89087347D01*
X119991430Y-89072540D01*
X119968297Y-89055384D01*
X119946957Y-89036043D01*
X119927616Y-89014703D01*
X119910460Y-88991570D01*
X119895653Y-88966867D01*
X119883340Y-88940832D01*
X119873637Y-88913715D01*
X119866639Y-88885778D01*
X119862413Y-88857289D01*
X119861000Y-88828523D01*
X119861000Y-88065477D01*
X119862413Y-88036711D01*
X119866639Y-88008222D01*
X119873637Y-87980285D01*
X119883340Y-87953168D01*
X119895653Y-87927133D01*
X119910460Y-87902430D01*
X119927616Y-87879297D01*
X119946957Y-87857957D01*
X119968297Y-87838616D01*
X119991430Y-87821460D01*
X120016133Y-87806653D01*
X120042168Y-87794340D01*
X120069285Y-87784637D01*
X120097222Y-87777639D01*
X120125711Y-87773413D01*
X120154477Y-87772000D01*
X121167523Y-87772000D01*
X121196289Y-87773413D01*
X121196289Y-87773413D01*
G37*
D22*
X120661000Y-88447000D03*
D19*
G36*
X116889289Y-87648413D02*
G01*
X116917778Y-87652639D01*
X116945715Y-87659637D01*
X116972832Y-87669340D01*
X116998867Y-87681653D01*
X117023570Y-87696460D01*
X117046703Y-87713616D01*
X117068043Y-87732957D01*
X117087384Y-87754297D01*
X117104540Y-87777430D01*
X117119347Y-87802133D01*
X117131660Y-87828168D01*
X117141363Y-87855285D01*
X117148361Y-87883222D01*
X117152587Y-87911711D01*
X117154000Y-87940477D01*
X117154000Y-88953523D01*
X117152587Y-88982289D01*
X117148361Y-89010778D01*
X117141363Y-89038715D01*
X117131660Y-89065832D01*
X117119347Y-89091867D01*
X117104540Y-89116570D01*
X117087384Y-89139703D01*
X117068043Y-89161043D01*
X117046703Y-89180384D01*
X117023570Y-89197540D01*
X116998867Y-89212347D01*
X116972832Y-89224660D01*
X116945715Y-89234363D01*
X116917778Y-89241361D01*
X116889289Y-89245587D01*
X116860523Y-89247000D01*
X116097477Y-89247000D01*
X116068711Y-89245587D01*
X116040222Y-89241361D01*
X116012285Y-89234363D01*
X115985168Y-89224660D01*
X115959133Y-89212347D01*
X115934430Y-89197540D01*
X115911297Y-89180384D01*
X115889957Y-89161043D01*
X115870616Y-89139703D01*
X115853460Y-89116570D01*
X115838653Y-89091867D01*
X115826340Y-89065832D01*
X115816637Y-89038715D01*
X115809639Y-89010778D01*
X115805413Y-88982289D01*
X115804000Y-88953523D01*
X115804000Y-87940477D01*
X115805413Y-87911711D01*
X115809639Y-87883222D01*
X115816637Y-87855285D01*
X115826340Y-87828168D01*
X115838653Y-87802133D01*
X115853460Y-87777430D01*
X115870616Y-87754297D01*
X115889957Y-87732957D01*
X115911297Y-87713616D01*
X115934430Y-87696460D01*
X115959133Y-87681653D01*
X115985168Y-87669340D01*
X116012285Y-87659637D01*
X116040222Y-87652639D01*
X116068711Y-87648413D01*
X116097477Y-87647000D01*
X116860523Y-87647000D01*
X116889289Y-87648413D01*
X116889289Y-87648413D01*
G37*
D22*
X116479000Y-88447000D03*
D19*
G36*
X114839289Y-87648413D02*
G01*
X114867778Y-87652639D01*
X114895715Y-87659637D01*
X114922832Y-87669340D01*
X114948867Y-87681653D01*
X114973570Y-87696460D01*
X114996703Y-87713616D01*
X115018043Y-87732957D01*
X115037384Y-87754297D01*
X115054540Y-87777430D01*
X115069347Y-87802133D01*
X115081660Y-87828168D01*
X115091363Y-87855285D01*
X115098361Y-87883222D01*
X115102587Y-87911711D01*
X115104000Y-87940477D01*
X115104000Y-88953523D01*
X115102587Y-88982289D01*
X115098361Y-89010778D01*
X115091363Y-89038715D01*
X115081660Y-89065832D01*
X115069347Y-89091867D01*
X115054540Y-89116570D01*
X115037384Y-89139703D01*
X115018043Y-89161043D01*
X114996703Y-89180384D01*
X114973570Y-89197540D01*
X114948867Y-89212347D01*
X114922832Y-89224660D01*
X114895715Y-89234363D01*
X114867778Y-89241361D01*
X114839289Y-89245587D01*
X114810523Y-89247000D01*
X114047477Y-89247000D01*
X114018711Y-89245587D01*
X113990222Y-89241361D01*
X113962285Y-89234363D01*
X113935168Y-89224660D01*
X113909133Y-89212347D01*
X113884430Y-89197540D01*
X113861297Y-89180384D01*
X113839957Y-89161043D01*
X113820616Y-89139703D01*
X113803460Y-89116570D01*
X113788653Y-89091867D01*
X113776340Y-89065832D01*
X113766637Y-89038715D01*
X113759639Y-89010778D01*
X113755413Y-88982289D01*
X113754000Y-88953523D01*
X113754000Y-87940477D01*
X113755413Y-87911711D01*
X113759639Y-87883222D01*
X113766637Y-87855285D01*
X113776340Y-87828168D01*
X113788653Y-87802133D01*
X113803460Y-87777430D01*
X113820616Y-87754297D01*
X113839957Y-87732957D01*
X113861297Y-87713616D01*
X113884430Y-87696460D01*
X113909133Y-87681653D01*
X113935168Y-87669340D01*
X113962285Y-87659637D01*
X113990222Y-87652639D01*
X114018711Y-87648413D01*
X114047477Y-87647000D01*
X114810523Y-87647000D01*
X114839289Y-87648413D01*
X114839289Y-87648413D01*
G37*
D22*
X114429000Y-88447000D03*
D19*
G36*
X119037289Y-89823413D02*
G01*
X119065778Y-89827639D01*
X119093715Y-89834637D01*
X119120832Y-89844340D01*
X119146867Y-89856653D01*
X119171570Y-89871460D01*
X119194703Y-89888616D01*
X119216043Y-89907957D01*
X119235384Y-89929297D01*
X119252540Y-89952430D01*
X119267347Y-89977133D01*
X119279660Y-90003168D01*
X119289363Y-90030285D01*
X119296361Y-90058222D01*
X119300587Y-90086711D01*
X119302000Y-90115477D01*
X119302000Y-90878523D01*
X119300587Y-90907289D01*
X119296361Y-90935778D01*
X119289363Y-90963715D01*
X119279660Y-90990832D01*
X119267347Y-91016867D01*
X119252540Y-91041570D01*
X119235384Y-91064703D01*
X119216043Y-91086043D01*
X119194703Y-91105384D01*
X119171570Y-91122540D01*
X119146867Y-91137347D01*
X119120832Y-91149660D01*
X119093715Y-91159363D01*
X119065778Y-91166361D01*
X119037289Y-91170587D01*
X119008523Y-91172000D01*
X117995477Y-91172000D01*
X117966711Y-91170587D01*
X117938222Y-91166361D01*
X117910285Y-91159363D01*
X117883168Y-91149660D01*
X117857133Y-91137347D01*
X117832430Y-91122540D01*
X117809297Y-91105384D01*
X117787957Y-91086043D01*
X117768616Y-91064703D01*
X117751460Y-91041570D01*
X117736653Y-91016867D01*
X117724340Y-90990832D01*
X117714637Y-90963715D01*
X117707639Y-90935778D01*
X117703413Y-90907289D01*
X117702000Y-90878523D01*
X117702000Y-90115477D01*
X117703413Y-90086711D01*
X117707639Y-90058222D01*
X117714637Y-90030285D01*
X117724340Y-90003168D01*
X117736653Y-89977133D01*
X117751460Y-89952430D01*
X117768616Y-89929297D01*
X117787957Y-89907957D01*
X117809297Y-89888616D01*
X117832430Y-89871460D01*
X117857133Y-89856653D01*
X117883168Y-89844340D01*
X117910285Y-89834637D01*
X117938222Y-89827639D01*
X117966711Y-89823413D01*
X117995477Y-89822000D01*
X119008523Y-89822000D01*
X119037289Y-89823413D01*
X119037289Y-89823413D01*
G37*
D22*
X118502000Y-90497000D03*
D19*
G36*
X119037289Y-87773413D02*
G01*
X119065778Y-87777639D01*
X119093715Y-87784637D01*
X119120832Y-87794340D01*
X119146867Y-87806653D01*
X119171570Y-87821460D01*
X119194703Y-87838616D01*
X119216043Y-87857957D01*
X119235384Y-87879297D01*
X119252540Y-87902430D01*
X119267347Y-87927133D01*
X119279660Y-87953168D01*
X119289363Y-87980285D01*
X119296361Y-88008222D01*
X119300587Y-88036711D01*
X119302000Y-88065477D01*
X119302000Y-88828523D01*
X119300587Y-88857289D01*
X119296361Y-88885778D01*
X119289363Y-88913715D01*
X119279660Y-88940832D01*
X119267347Y-88966867D01*
X119252540Y-88991570D01*
X119235384Y-89014703D01*
X119216043Y-89036043D01*
X119194703Y-89055384D01*
X119171570Y-89072540D01*
X119146867Y-89087347D01*
X119120832Y-89099660D01*
X119093715Y-89109363D01*
X119065778Y-89116361D01*
X119037289Y-89120587D01*
X119008523Y-89122000D01*
X117995477Y-89122000D01*
X117966711Y-89120587D01*
X117938222Y-89116361D01*
X117910285Y-89109363D01*
X117883168Y-89099660D01*
X117857133Y-89087347D01*
X117832430Y-89072540D01*
X117809297Y-89055384D01*
X117787957Y-89036043D01*
X117768616Y-89014703D01*
X117751460Y-88991570D01*
X117736653Y-88966867D01*
X117724340Y-88940832D01*
X117714637Y-88913715D01*
X117707639Y-88885778D01*
X117703413Y-88857289D01*
X117702000Y-88828523D01*
X117702000Y-88065477D01*
X117703413Y-88036711D01*
X117707639Y-88008222D01*
X117714637Y-87980285D01*
X117724340Y-87953168D01*
X117736653Y-87927133D01*
X117751460Y-87902430D01*
X117768616Y-87879297D01*
X117787957Y-87857957D01*
X117809297Y-87838616D01*
X117832430Y-87821460D01*
X117857133Y-87806653D01*
X117883168Y-87794340D01*
X117910285Y-87784637D01*
X117938222Y-87777639D01*
X117966711Y-87773413D01*
X117995477Y-87772000D01*
X119008523Y-87772000D01*
X119037289Y-87773413D01*
X119037289Y-87773413D01*
G37*
D22*
X118502000Y-88447000D03*
D19*
G36*
X112943289Y-87648413D02*
G01*
X112971778Y-87652639D01*
X112999715Y-87659637D01*
X113026832Y-87669340D01*
X113052867Y-87681653D01*
X113077570Y-87696460D01*
X113100703Y-87713616D01*
X113122043Y-87732957D01*
X113141384Y-87754297D01*
X113158540Y-87777430D01*
X113173347Y-87802133D01*
X113185660Y-87828168D01*
X113195363Y-87855285D01*
X113202361Y-87883222D01*
X113206587Y-87911711D01*
X113208000Y-87940477D01*
X113208000Y-88953523D01*
X113206587Y-88982289D01*
X113202361Y-89010778D01*
X113195363Y-89038715D01*
X113185660Y-89065832D01*
X113173347Y-89091867D01*
X113158540Y-89116570D01*
X113141384Y-89139703D01*
X113122043Y-89161043D01*
X113100703Y-89180384D01*
X113077570Y-89197540D01*
X113052867Y-89212347D01*
X113026832Y-89224660D01*
X112999715Y-89234363D01*
X112971778Y-89241361D01*
X112943289Y-89245587D01*
X112914523Y-89247000D01*
X112151477Y-89247000D01*
X112122711Y-89245587D01*
X112094222Y-89241361D01*
X112066285Y-89234363D01*
X112039168Y-89224660D01*
X112013133Y-89212347D01*
X111988430Y-89197540D01*
X111965297Y-89180384D01*
X111943957Y-89161043D01*
X111924616Y-89139703D01*
X111907460Y-89116570D01*
X111892653Y-89091867D01*
X111880340Y-89065832D01*
X111870637Y-89038715D01*
X111863639Y-89010778D01*
X111859413Y-88982289D01*
X111858000Y-88953523D01*
X111858000Y-87940477D01*
X111859413Y-87911711D01*
X111863639Y-87883222D01*
X111870637Y-87855285D01*
X111880340Y-87828168D01*
X111892653Y-87802133D01*
X111907460Y-87777430D01*
X111924616Y-87754297D01*
X111943957Y-87732957D01*
X111965297Y-87713616D01*
X111988430Y-87696460D01*
X112013133Y-87681653D01*
X112039168Y-87669340D01*
X112066285Y-87659637D01*
X112094222Y-87652639D01*
X112122711Y-87648413D01*
X112151477Y-87647000D01*
X112914523Y-87647000D01*
X112943289Y-87648413D01*
X112943289Y-87648413D01*
G37*
D22*
X112533000Y-88447000D03*
D19*
G36*
X110893289Y-87648413D02*
G01*
X110921778Y-87652639D01*
X110949715Y-87659637D01*
X110976832Y-87669340D01*
X111002867Y-87681653D01*
X111027570Y-87696460D01*
X111050703Y-87713616D01*
X111072043Y-87732957D01*
X111091384Y-87754297D01*
X111108540Y-87777430D01*
X111123347Y-87802133D01*
X111135660Y-87828168D01*
X111145363Y-87855285D01*
X111152361Y-87883222D01*
X111156587Y-87911711D01*
X111158000Y-87940477D01*
X111158000Y-88953523D01*
X111156587Y-88982289D01*
X111152361Y-89010778D01*
X111145363Y-89038715D01*
X111135660Y-89065832D01*
X111123347Y-89091867D01*
X111108540Y-89116570D01*
X111091384Y-89139703D01*
X111072043Y-89161043D01*
X111050703Y-89180384D01*
X111027570Y-89197540D01*
X111002867Y-89212347D01*
X110976832Y-89224660D01*
X110949715Y-89234363D01*
X110921778Y-89241361D01*
X110893289Y-89245587D01*
X110864523Y-89247000D01*
X110101477Y-89247000D01*
X110072711Y-89245587D01*
X110044222Y-89241361D01*
X110016285Y-89234363D01*
X109989168Y-89224660D01*
X109963133Y-89212347D01*
X109938430Y-89197540D01*
X109915297Y-89180384D01*
X109893957Y-89161043D01*
X109874616Y-89139703D01*
X109857460Y-89116570D01*
X109842653Y-89091867D01*
X109830340Y-89065832D01*
X109820637Y-89038715D01*
X109813639Y-89010778D01*
X109809413Y-88982289D01*
X109808000Y-88953523D01*
X109808000Y-87940477D01*
X109809413Y-87911711D01*
X109813639Y-87883222D01*
X109820637Y-87855285D01*
X109830340Y-87828168D01*
X109842653Y-87802133D01*
X109857460Y-87777430D01*
X109874616Y-87754297D01*
X109893957Y-87732957D01*
X109915297Y-87713616D01*
X109938430Y-87696460D01*
X109963133Y-87681653D01*
X109989168Y-87669340D01*
X110016285Y-87659637D01*
X110044222Y-87652639D01*
X110072711Y-87648413D01*
X110101477Y-87647000D01*
X110864523Y-87647000D01*
X110893289Y-87648413D01*
X110893289Y-87648413D01*
G37*
D22*
X110483000Y-88447000D03*
D19*
G36*
X135792289Y-104420913D02*
G01*
X135820778Y-104425139D01*
X135848715Y-104432137D01*
X135875832Y-104441840D01*
X135901867Y-104454153D01*
X135926570Y-104468960D01*
X135949703Y-104486116D01*
X135971043Y-104505457D01*
X135990384Y-104526797D01*
X136007540Y-104549930D01*
X136022347Y-104574633D01*
X136034660Y-104600668D01*
X136044363Y-104627785D01*
X136051361Y-104655722D01*
X136055587Y-104684211D01*
X136057000Y-104712977D01*
X136057000Y-105726023D01*
X136055587Y-105754789D01*
X136051361Y-105783278D01*
X136044363Y-105811215D01*
X136034660Y-105838332D01*
X136022347Y-105864367D01*
X136007540Y-105889070D01*
X135990384Y-105912203D01*
X135971043Y-105933543D01*
X135949703Y-105952884D01*
X135926570Y-105970040D01*
X135901867Y-105984847D01*
X135875832Y-105997160D01*
X135848715Y-106006863D01*
X135820778Y-106013861D01*
X135792289Y-106018087D01*
X135763523Y-106019500D01*
X135000477Y-106019500D01*
X134971711Y-106018087D01*
X134943222Y-106013861D01*
X134915285Y-106006863D01*
X134888168Y-105997160D01*
X134862133Y-105984847D01*
X134837430Y-105970040D01*
X134814297Y-105952884D01*
X134792957Y-105933543D01*
X134773616Y-105912203D01*
X134756460Y-105889070D01*
X134741653Y-105864367D01*
X134729340Y-105838332D01*
X134719637Y-105811215D01*
X134712639Y-105783278D01*
X134708413Y-105754789D01*
X134707000Y-105726023D01*
X134707000Y-104712977D01*
X134708413Y-104684211D01*
X134712639Y-104655722D01*
X134719637Y-104627785D01*
X134729340Y-104600668D01*
X134741653Y-104574633D01*
X134756460Y-104549930D01*
X134773616Y-104526797D01*
X134792957Y-104505457D01*
X134814297Y-104486116D01*
X134837430Y-104468960D01*
X134862133Y-104454153D01*
X134888168Y-104441840D01*
X134915285Y-104432137D01*
X134943222Y-104425139D01*
X134971711Y-104420913D01*
X135000477Y-104419500D01*
X135763523Y-104419500D01*
X135792289Y-104420913D01*
X135792289Y-104420913D01*
G37*
D22*
X135382000Y-105219500D03*
D19*
G36*
X133742289Y-104420913D02*
G01*
X133770778Y-104425139D01*
X133798715Y-104432137D01*
X133825832Y-104441840D01*
X133851867Y-104454153D01*
X133876570Y-104468960D01*
X133899703Y-104486116D01*
X133921043Y-104505457D01*
X133940384Y-104526797D01*
X133957540Y-104549930D01*
X133972347Y-104574633D01*
X133984660Y-104600668D01*
X133994363Y-104627785D01*
X134001361Y-104655722D01*
X134005587Y-104684211D01*
X134007000Y-104712977D01*
X134007000Y-105726023D01*
X134005587Y-105754789D01*
X134001361Y-105783278D01*
X133994363Y-105811215D01*
X133984660Y-105838332D01*
X133972347Y-105864367D01*
X133957540Y-105889070D01*
X133940384Y-105912203D01*
X133921043Y-105933543D01*
X133899703Y-105952884D01*
X133876570Y-105970040D01*
X133851867Y-105984847D01*
X133825832Y-105997160D01*
X133798715Y-106006863D01*
X133770778Y-106013861D01*
X133742289Y-106018087D01*
X133713523Y-106019500D01*
X132950477Y-106019500D01*
X132921711Y-106018087D01*
X132893222Y-106013861D01*
X132865285Y-106006863D01*
X132838168Y-105997160D01*
X132812133Y-105984847D01*
X132787430Y-105970040D01*
X132764297Y-105952884D01*
X132742957Y-105933543D01*
X132723616Y-105912203D01*
X132706460Y-105889070D01*
X132691653Y-105864367D01*
X132679340Y-105838332D01*
X132669637Y-105811215D01*
X132662639Y-105783278D01*
X132658413Y-105754789D01*
X132657000Y-105726023D01*
X132657000Y-104712977D01*
X132658413Y-104684211D01*
X132662639Y-104655722D01*
X132669637Y-104627785D01*
X132679340Y-104600668D01*
X132691653Y-104574633D01*
X132706460Y-104549930D01*
X132723616Y-104526797D01*
X132742957Y-104505457D01*
X132764297Y-104486116D01*
X132787430Y-104468960D01*
X132812133Y-104454153D01*
X132838168Y-104441840D01*
X132865285Y-104432137D01*
X132893222Y-104425139D01*
X132921711Y-104420913D01*
X132950477Y-104419500D01*
X133713523Y-104419500D01*
X133742289Y-104420913D01*
X133742289Y-104420913D01*
G37*
D22*
X133332000Y-105219500D03*
D23*
X120523000Y-114998500D03*
X115443000Y-114998500D03*
X115443000Y-109918500D03*
X120523000Y-109918500D03*
D24*
X117983000Y-112458500D03*
D23*
X80140000Y-77420000D03*
X80140000Y-72340000D03*
X85220000Y-72340000D03*
X85220000Y-77420000D03*
D24*
X82680000Y-74880000D03*
D19*
G36*
X128281289Y-108929413D02*
G01*
X128309778Y-108933639D01*
X128337715Y-108940637D01*
X128364832Y-108950340D01*
X128390867Y-108962653D01*
X128415570Y-108977460D01*
X128438703Y-108994616D01*
X128460043Y-109013957D01*
X128479384Y-109035297D01*
X128496540Y-109058430D01*
X128511347Y-109083133D01*
X128523660Y-109109168D01*
X128533363Y-109136285D01*
X128540361Y-109164222D01*
X128544587Y-109192711D01*
X128546000Y-109221477D01*
X128546000Y-110234523D01*
X128544587Y-110263289D01*
X128540361Y-110291778D01*
X128533363Y-110319715D01*
X128523660Y-110346832D01*
X128511347Y-110372867D01*
X128496540Y-110397570D01*
X128479384Y-110420703D01*
X128460043Y-110442043D01*
X128438703Y-110461384D01*
X128415570Y-110478540D01*
X128390867Y-110493347D01*
X128364832Y-110505660D01*
X128337715Y-110515363D01*
X128309778Y-110522361D01*
X128281289Y-110526587D01*
X128252523Y-110528000D01*
X127489477Y-110528000D01*
X127460711Y-110526587D01*
X127432222Y-110522361D01*
X127404285Y-110515363D01*
X127377168Y-110505660D01*
X127351133Y-110493347D01*
X127326430Y-110478540D01*
X127303297Y-110461384D01*
X127281957Y-110442043D01*
X127262616Y-110420703D01*
X127245460Y-110397570D01*
X127230653Y-110372867D01*
X127218340Y-110346832D01*
X127208637Y-110319715D01*
X127201639Y-110291778D01*
X127197413Y-110263289D01*
X127196000Y-110234523D01*
X127196000Y-109221477D01*
X127197413Y-109192711D01*
X127201639Y-109164222D01*
X127208637Y-109136285D01*
X127218340Y-109109168D01*
X127230653Y-109083133D01*
X127245460Y-109058430D01*
X127262616Y-109035297D01*
X127281957Y-109013957D01*
X127303297Y-108994616D01*
X127326430Y-108977460D01*
X127351133Y-108962653D01*
X127377168Y-108950340D01*
X127404285Y-108940637D01*
X127432222Y-108933639D01*
X127460711Y-108929413D01*
X127489477Y-108928000D01*
X128252523Y-108928000D01*
X128281289Y-108929413D01*
X128281289Y-108929413D01*
G37*
D22*
X127871000Y-109728000D03*
D19*
G36*
X130331289Y-108929413D02*
G01*
X130359778Y-108933639D01*
X130387715Y-108940637D01*
X130414832Y-108950340D01*
X130440867Y-108962653D01*
X130465570Y-108977460D01*
X130488703Y-108994616D01*
X130510043Y-109013957D01*
X130529384Y-109035297D01*
X130546540Y-109058430D01*
X130561347Y-109083133D01*
X130573660Y-109109168D01*
X130583363Y-109136285D01*
X130590361Y-109164222D01*
X130594587Y-109192711D01*
X130596000Y-109221477D01*
X130596000Y-110234523D01*
X130594587Y-110263289D01*
X130590361Y-110291778D01*
X130583363Y-110319715D01*
X130573660Y-110346832D01*
X130561347Y-110372867D01*
X130546540Y-110397570D01*
X130529384Y-110420703D01*
X130510043Y-110442043D01*
X130488703Y-110461384D01*
X130465570Y-110478540D01*
X130440867Y-110493347D01*
X130414832Y-110505660D01*
X130387715Y-110515363D01*
X130359778Y-110522361D01*
X130331289Y-110526587D01*
X130302523Y-110528000D01*
X129539477Y-110528000D01*
X129510711Y-110526587D01*
X129482222Y-110522361D01*
X129454285Y-110515363D01*
X129427168Y-110505660D01*
X129401133Y-110493347D01*
X129376430Y-110478540D01*
X129353297Y-110461384D01*
X129331957Y-110442043D01*
X129312616Y-110420703D01*
X129295460Y-110397570D01*
X129280653Y-110372867D01*
X129268340Y-110346832D01*
X129258637Y-110319715D01*
X129251639Y-110291778D01*
X129247413Y-110263289D01*
X129246000Y-110234523D01*
X129246000Y-109221477D01*
X129247413Y-109192711D01*
X129251639Y-109164222D01*
X129258637Y-109136285D01*
X129268340Y-109109168D01*
X129280653Y-109083133D01*
X129295460Y-109058430D01*
X129312616Y-109035297D01*
X129331957Y-109013957D01*
X129353297Y-108994616D01*
X129376430Y-108977460D01*
X129401133Y-108962653D01*
X129427168Y-108950340D01*
X129454285Y-108940637D01*
X129482222Y-108933639D01*
X129510711Y-108929413D01*
X129539477Y-108928000D01*
X130302523Y-108928000D01*
X130331289Y-108929413D01*
X130331289Y-108929413D01*
G37*
D22*
X129921000Y-109728000D03*
D19*
G36*
X135746789Y-101118913D02*
G01*
X135775278Y-101123139D01*
X135803215Y-101130137D01*
X135830332Y-101139840D01*
X135856367Y-101152153D01*
X135881070Y-101166960D01*
X135904203Y-101184116D01*
X135925543Y-101203457D01*
X135944884Y-101224797D01*
X135962040Y-101247930D01*
X135976847Y-101272633D01*
X135989160Y-101298668D01*
X135998863Y-101325785D01*
X136005861Y-101353722D01*
X136010087Y-101382211D01*
X136011500Y-101410977D01*
X136011500Y-102424023D01*
X136010087Y-102452789D01*
X136005861Y-102481278D01*
X135998863Y-102509215D01*
X135989160Y-102536332D01*
X135976847Y-102562367D01*
X135962040Y-102587070D01*
X135944884Y-102610203D01*
X135925543Y-102631543D01*
X135904203Y-102650884D01*
X135881070Y-102668040D01*
X135856367Y-102682847D01*
X135830332Y-102695160D01*
X135803215Y-102704863D01*
X135775278Y-102711861D01*
X135746789Y-102716087D01*
X135718023Y-102717500D01*
X134954977Y-102717500D01*
X134926211Y-102716087D01*
X134897722Y-102711861D01*
X134869785Y-102704863D01*
X134842668Y-102695160D01*
X134816633Y-102682847D01*
X134791930Y-102668040D01*
X134768797Y-102650884D01*
X134747457Y-102631543D01*
X134728116Y-102610203D01*
X134710960Y-102587070D01*
X134696153Y-102562367D01*
X134683840Y-102536332D01*
X134674137Y-102509215D01*
X134667139Y-102481278D01*
X134662913Y-102452789D01*
X134661500Y-102424023D01*
X134661500Y-101410977D01*
X134662913Y-101382211D01*
X134667139Y-101353722D01*
X134674137Y-101325785D01*
X134683840Y-101298668D01*
X134696153Y-101272633D01*
X134710960Y-101247930D01*
X134728116Y-101224797D01*
X134747457Y-101203457D01*
X134768797Y-101184116D01*
X134791930Y-101166960D01*
X134816633Y-101152153D01*
X134842668Y-101139840D01*
X134869785Y-101130137D01*
X134897722Y-101123139D01*
X134926211Y-101118913D01*
X134954977Y-101117500D01*
X135718023Y-101117500D01*
X135746789Y-101118913D01*
X135746789Y-101118913D01*
G37*
D22*
X135336500Y-101917500D03*
D19*
G36*
X133696789Y-101118913D02*
G01*
X133725278Y-101123139D01*
X133753215Y-101130137D01*
X133780332Y-101139840D01*
X133806367Y-101152153D01*
X133831070Y-101166960D01*
X133854203Y-101184116D01*
X133875543Y-101203457D01*
X133894884Y-101224797D01*
X133912040Y-101247930D01*
X133926847Y-101272633D01*
X133939160Y-101298668D01*
X133948863Y-101325785D01*
X133955861Y-101353722D01*
X133960087Y-101382211D01*
X133961500Y-101410977D01*
X133961500Y-102424023D01*
X133960087Y-102452789D01*
X133955861Y-102481278D01*
X133948863Y-102509215D01*
X133939160Y-102536332D01*
X133926847Y-102562367D01*
X133912040Y-102587070D01*
X133894884Y-102610203D01*
X133875543Y-102631543D01*
X133854203Y-102650884D01*
X133831070Y-102668040D01*
X133806367Y-102682847D01*
X133780332Y-102695160D01*
X133753215Y-102704863D01*
X133725278Y-102711861D01*
X133696789Y-102716087D01*
X133668023Y-102717500D01*
X132904977Y-102717500D01*
X132876211Y-102716087D01*
X132847722Y-102711861D01*
X132819785Y-102704863D01*
X132792668Y-102695160D01*
X132766633Y-102682847D01*
X132741930Y-102668040D01*
X132718797Y-102650884D01*
X132697457Y-102631543D01*
X132678116Y-102610203D01*
X132660960Y-102587070D01*
X132646153Y-102562367D01*
X132633840Y-102536332D01*
X132624137Y-102509215D01*
X132617139Y-102481278D01*
X132612913Y-102452789D01*
X132611500Y-102424023D01*
X132611500Y-101410977D01*
X132612913Y-101382211D01*
X132617139Y-101353722D01*
X132624137Y-101325785D01*
X132633840Y-101298668D01*
X132646153Y-101272633D01*
X132660960Y-101247930D01*
X132678116Y-101224797D01*
X132697457Y-101203457D01*
X132718797Y-101184116D01*
X132741930Y-101166960D01*
X132766633Y-101152153D01*
X132792668Y-101139840D01*
X132819785Y-101130137D01*
X132847722Y-101123139D01*
X132876211Y-101118913D01*
X132904977Y-101117500D01*
X133668023Y-101117500D01*
X133696789Y-101118913D01*
X133696789Y-101118913D01*
G37*
D22*
X133286500Y-101917500D03*
D19*
G36*
X135728789Y-97753413D02*
G01*
X135757278Y-97757639D01*
X135785215Y-97764637D01*
X135812332Y-97774340D01*
X135838367Y-97786653D01*
X135863070Y-97801460D01*
X135886203Y-97818616D01*
X135907543Y-97837957D01*
X135926884Y-97859297D01*
X135944040Y-97882430D01*
X135958847Y-97907133D01*
X135971160Y-97933168D01*
X135980863Y-97960285D01*
X135987861Y-97988222D01*
X135992087Y-98016711D01*
X135993500Y-98045477D01*
X135993500Y-99058523D01*
X135992087Y-99087289D01*
X135987861Y-99115778D01*
X135980863Y-99143715D01*
X135971160Y-99170832D01*
X135958847Y-99196867D01*
X135944040Y-99221570D01*
X135926884Y-99244703D01*
X135907543Y-99266043D01*
X135886203Y-99285384D01*
X135863070Y-99302540D01*
X135838367Y-99317347D01*
X135812332Y-99329660D01*
X135785215Y-99339363D01*
X135757278Y-99346361D01*
X135728789Y-99350587D01*
X135700023Y-99352000D01*
X134936977Y-99352000D01*
X134908211Y-99350587D01*
X134879722Y-99346361D01*
X134851785Y-99339363D01*
X134824668Y-99329660D01*
X134798633Y-99317347D01*
X134773930Y-99302540D01*
X134750797Y-99285384D01*
X134729457Y-99266043D01*
X134710116Y-99244703D01*
X134692960Y-99221570D01*
X134678153Y-99196867D01*
X134665840Y-99170832D01*
X134656137Y-99143715D01*
X134649139Y-99115778D01*
X134644913Y-99087289D01*
X134643500Y-99058523D01*
X134643500Y-98045477D01*
X134644913Y-98016711D01*
X134649139Y-97988222D01*
X134656137Y-97960285D01*
X134665840Y-97933168D01*
X134678153Y-97907133D01*
X134692960Y-97882430D01*
X134710116Y-97859297D01*
X134729457Y-97837957D01*
X134750797Y-97818616D01*
X134773930Y-97801460D01*
X134798633Y-97786653D01*
X134824668Y-97774340D01*
X134851785Y-97764637D01*
X134879722Y-97757639D01*
X134908211Y-97753413D01*
X134936977Y-97752000D01*
X135700023Y-97752000D01*
X135728789Y-97753413D01*
X135728789Y-97753413D01*
G37*
D22*
X135318500Y-98552000D03*
D19*
G36*
X133678789Y-97753413D02*
G01*
X133707278Y-97757639D01*
X133735215Y-97764637D01*
X133762332Y-97774340D01*
X133788367Y-97786653D01*
X133813070Y-97801460D01*
X133836203Y-97818616D01*
X133857543Y-97837957D01*
X133876884Y-97859297D01*
X133894040Y-97882430D01*
X133908847Y-97907133D01*
X133921160Y-97933168D01*
X133930863Y-97960285D01*
X133937861Y-97988222D01*
X133942087Y-98016711D01*
X133943500Y-98045477D01*
X133943500Y-99058523D01*
X133942087Y-99087289D01*
X133937861Y-99115778D01*
X133930863Y-99143715D01*
X133921160Y-99170832D01*
X133908847Y-99196867D01*
X133894040Y-99221570D01*
X133876884Y-99244703D01*
X133857543Y-99266043D01*
X133836203Y-99285384D01*
X133813070Y-99302540D01*
X133788367Y-99317347D01*
X133762332Y-99329660D01*
X133735215Y-99339363D01*
X133707278Y-99346361D01*
X133678789Y-99350587D01*
X133650023Y-99352000D01*
X132886977Y-99352000D01*
X132858211Y-99350587D01*
X132829722Y-99346361D01*
X132801785Y-99339363D01*
X132774668Y-99329660D01*
X132748633Y-99317347D01*
X132723930Y-99302540D01*
X132700797Y-99285384D01*
X132679457Y-99266043D01*
X132660116Y-99244703D01*
X132642960Y-99221570D01*
X132628153Y-99196867D01*
X132615840Y-99170832D01*
X132606137Y-99143715D01*
X132599139Y-99115778D01*
X132594913Y-99087289D01*
X132593500Y-99058523D01*
X132593500Y-98045477D01*
X132594913Y-98016711D01*
X132599139Y-97988222D01*
X132606137Y-97960285D01*
X132615840Y-97933168D01*
X132628153Y-97907133D01*
X132642960Y-97882430D01*
X132660116Y-97859297D01*
X132679457Y-97837957D01*
X132700797Y-97818616D01*
X132723930Y-97801460D01*
X132748633Y-97786653D01*
X132774668Y-97774340D01*
X132801785Y-97764637D01*
X132829722Y-97757639D01*
X132858211Y-97753413D01*
X132886977Y-97752000D01*
X133650023Y-97752000D01*
X133678789Y-97753413D01*
X133678789Y-97753413D01*
G37*
D22*
X133268500Y-98552000D03*
D19*
G36*
X139409789Y-96871413D02*
G01*
X139438278Y-96875639D01*
X139466215Y-96882637D01*
X139493332Y-96892340D01*
X139519367Y-96904653D01*
X139544070Y-96919460D01*
X139567203Y-96936616D01*
X139588543Y-96955957D01*
X139607884Y-96977297D01*
X139625040Y-97000430D01*
X139639847Y-97025133D01*
X139652160Y-97051168D01*
X139661863Y-97078285D01*
X139668861Y-97106222D01*
X139673087Y-97134711D01*
X139674500Y-97163477D01*
X139674500Y-97926523D01*
X139673087Y-97955289D01*
X139668861Y-97983778D01*
X139661863Y-98011715D01*
X139652160Y-98038832D01*
X139639847Y-98064867D01*
X139625040Y-98089570D01*
X139607884Y-98112703D01*
X139588543Y-98134043D01*
X139567203Y-98153384D01*
X139544070Y-98170540D01*
X139519367Y-98185347D01*
X139493332Y-98197660D01*
X139466215Y-98207363D01*
X139438278Y-98214361D01*
X139409789Y-98218587D01*
X139381023Y-98220000D01*
X138367977Y-98220000D01*
X138339211Y-98218587D01*
X138310722Y-98214361D01*
X138282785Y-98207363D01*
X138255668Y-98197660D01*
X138229633Y-98185347D01*
X138204930Y-98170540D01*
X138181797Y-98153384D01*
X138160457Y-98134043D01*
X138141116Y-98112703D01*
X138123960Y-98089570D01*
X138109153Y-98064867D01*
X138096840Y-98038832D01*
X138087137Y-98011715D01*
X138080139Y-97983778D01*
X138075913Y-97955289D01*
X138074500Y-97926523D01*
X138074500Y-97163477D01*
X138075913Y-97134711D01*
X138080139Y-97106222D01*
X138087137Y-97078285D01*
X138096840Y-97051168D01*
X138109153Y-97025133D01*
X138123960Y-97000430D01*
X138141116Y-96977297D01*
X138160457Y-96955957D01*
X138181797Y-96936616D01*
X138204930Y-96919460D01*
X138229633Y-96904653D01*
X138255668Y-96892340D01*
X138282785Y-96882637D01*
X138310722Y-96875639D01*
X138339211Y-96871413D01*
X138367977Y-96870000D01*
X139381023Y-96870000D01*
X139409789Y-96871413D01*
X139409789Y-96871413D01*
G37*
D22*
X138874500Y-97545000D03*
D19*
G36*
X139409789Y-94821413D02*
G01*
X139438278Y-94825639D01*
X139466215Y-94832637D01*
X139493332Y-94842340D01*
X139519367Y-94854653D01*
X139544070Y-94869460D01*
X139567203Y-94886616D01*
X139588543Y-94905957D01*
X139607884Y-94927297D01*
X139625040Y-94950430D01*
X139639847Y-94975133D01*
X139652160Y-95001168D01*
X139661863Y-95028285D01*
X139668861Y-95056222D01*
X139673087Y-95084711D01*
X139674500Y-95113477D01*
X139674500Y-95876523D01*
X139673087Y-95905289D01*
X139668861Y-95933778D01*
X139661863Y-95961715D01*
X139652160Y-95988832D01*
X139639847Y-96014867D01*
X139625040Y-96039570D01*
X139607884Y-96062703D01*
X139588543Y-96084043D01*
X139567203Y-96103384D01*
X139544070Y-96120540D01*
X139519367Y-96135347D01*
X139493332Y-96147660D01*
X139466215Y-96157363D01*
X139438278Y-96164361D01*
X139409789Y-96168587D01*
X139381023Y-96170000D01*
X138367977Y-96170000D01*
X138339211Y-96168587D01*
X138310722Y-96164361D01*
X138282785Y-96157363D01*
X138255668Y-96147660D01*
X138229633Y-96135347D01*
X138204930Y-96120540D01*
X138181797Y-96103384D01*
X138160457Y-96084043D01*
X138141116Y-96062703D01*
X138123960Y-96039570D01*
X138109153Y-96014867D01*
X138096840Y-95988832D01*
X138087137Y-95961715D01*
X138080139Y-95933778D01*
X138075913Y-95905289D01*
X138074500Y-95876523D01*
X138074500Y-95113477D01*
X138075913Y-95084711D01*
X138080139Y-95056222D01*
X138087137Y-95028285D01*
X138096840Y-95001168D01*
X138109153Y-94975133D01*
X138123960Y-94950430D01*
X138141116Y-94927297D01*
X138160457Y-94905957D01*
X138181797Y-94886616D01*
X138204930Y-94869460D01*
X138229633Y-94854653D01*
X138255668Y-94842340D01*
X138282785Y-94832637D01*
X138310722Y-94825639D01*
X138339211Y-94821413D01*
X138367977Y-94820000D01*
X139381023Y-94820000D01*
X139409789Y-94821413D01*
X139409789Y-94821413D01*
G37*
D22*
X138874500Y-95495000D03*
D19*
G36*
X113664789Y-84419413D02*
G01*
X113693278Y-84423639D01*
X113721215Y-84430637D01*
X113748332Y-84440340D01*
X113774367Y-84452653D01*
X113799070Y-84467460D01*
X113822203Y-84484616D01*
X113843543Y-84503957D01*
X113862884Y-84525297D01*
X113880040Y-84548430D01*
X113894847Y-84573133D01*
X113907160Y-84599168D01*
X113916863Y-84626285D01*
X113923861Y-84654222D01*
X113928087Y-84682711D01*
X113929500Y-84711477D01*
X113929500Y-85474523D01*
X113928087Y-85503289D01*
X113923861Y-85531778D01*
X113916863Y-85559715D01*
X113907160Y-85586832D01*
X113894847Y-85612867D01*
X113880040Y-85637570D01*
X113862884Y-85660703D01*
X113843543Y-85682043D01*
X113822203Y-85701384D01*
X113799070Y-85718540D01*
X113774367Y-85733347D01*
X113748332Y-85745660D01*
X113721215Y-85755363D01*
X113693278Y-85762361D01*
X113664789Y-85766587D01*
X113636023Y-85768000D01*
X112622977Y-85768000D01*
X112594211Y-85766587D01*
X112565722Y-85762361D01*
X112537785Y-85755363D01*
X112510668Y-85745660D01*
X112484633Y-85733347D01*
X112459930Y-85718540D01*
X112436797Y-85701384D01*
X112415457Y-85682043D01*
X112396116Y-85660703D01*
X112378960Y-85637570D01*
X112364153Y-85612867D01*
X112351840Y-85586832D01*
X112342137Y-85559715D01*
X112335139Y-85531778D01*
X112330913Y-85503289D01*
X112329500Y-85474523D01*
X112329500Y-84711477D01*
X112330913Y-84682711D01*
X112335139Y-84654222D01*
X112342137Y-84626285D01*
X112351840Y-84599168D01*
X112364153Y-84573133D01*
X112378960Y-84548430D01*
X112396116Y-84525297D01*
X112415457Y-84503957D01*
X112436797Y-84484616D01*
X112459930Y-84467460D01*
X112484633Y-84452653D01*
X112510668Y-84440340D01*
X112537785Y-84430637D01*
X112565722Y-84423639D01*
X112594211Y-84419413D01*
X112622977Y-84418000D01*
X113636023Y-84418000D01*
X113664789Y-84419413D01*
X113664789Y-84419413D01*
G37*
D22*
X113129500Y-85093000D03*
D19*
G36*
X113664789Y-82369413D02*
G01*
X113693278Y-82373639D01*
X113721215Y-82380637D01*
X113748332Y-82390340D01*
X113774367Y-82402653D01*
X113799070Y-82417460D01*
X113822203Y-82434616D01*
X113843543Y-82453957D01*
X113862884Y-82475297D01*
X113880040Y-82498430D01*
X113894847Y-82523133D01*
X113907160Y-82549168D01*
X113916863Y-82576285D01*
X113923861Y-82604222D01*
X113928087Y-82632711D01*
X113929500Y-82661477D01*
X113929500Y-83424523D01*
X113928087Y-83453289D01*
X113923861Y-83481778D01*
X113916863Y-83509715D01*
X113907160Y-83536832D01*
X113894847Y-83562867D01*
X113880040Y-83587570D01*
X113862884Y-83610703D01*
X113843543Y-83632043D01*
X113822203Y-83651384D01*
X113799070Y-83668540D01*
X113774367Y-83683347D01*
X113748332Y-83695660D01*
X113721215Y-83705363D01*
X113693278Y-83712361D01*
X113664789Y-83716587D01*
X113636023Y-83718000D01*
X112622977Y-83718000D01*
X112594211Y-83716587D01*
X112565722Y-83712361D01*
X112537785Y-83705363D01*
X112510668Y-83695660D01*
X112484633Y-83683347D01*
X112459930Y-83668540D01*
X112436797Y-83651384D01*
X112415457Y-83632043D01*
X112396116Y-83610703D01*
X112378960Y-83587570D01*
X112364153Y-83562867D01*
X112351840Y-83536832D01*
X112342137Y-83509715D01*
X112335139Y-83481778D01*
X112330913Y-83453289D01*
X112329500Y-83424523D01*
X112329500Y-82661477D01*
X112330913Y-82632711D01*
X112335139Y-82604222D01*
X112342137Y-82576285D01*
X112351840Y-82549168D01*
X112364153Y-82523133D01*
X112378960Y-82498430D01*
X112396116Y-82475297D01*
X112415457Y-82453957D01*
X112436797Y-82434616D01*
X112459930Y-82417460D01*
X112484633Y-82402653D01*
X112510668Y-82390340D01*
X112537785Y-82380637D01*
X112565722Y-82373639D01*
X112594211Y-82369413D01*
X112622977Y-82368000D01*
X113636023Y-82368000D01*
X113664789Y-82369413D01*
X113664789Y-82369413D01*
G37*
D22*
X113129500Y-83043000D03*
D19*
G36*
X106612289Y-82204913D02*
G01*
X106640778Y-82209139D01*
X106668715Y-82216137D01*
X106695832Y-82225840D01*
X106721867Y-82238153D01*
X106746570Y-82252960D01*
X106769703Y-82270116D01*
X106791043Y-82289457D01*
X106810384Y-82310797D01*
X106827540Y-82333930D01*
X106842347Y-82358633D01*
X106854660Y-82384668D01*
X106864363Y-82411785D01*
X106871361Y-82439722D01*
X106875587Y-82468211D01*
X106877000Y-82496977D01*
X106877000Y-83510023D01*
X106875587Y-83538789D01*
X106871361Y-83567278D01*
X106864363Y-83595215D01*
X106854660Y-83622332D01*
X106842347Y-83648367D01*
X106827540Y-83673070D01*
X106810384Y-83696203D01*
X106791043Y-83717543D01*
X106769703Y-83736884D01*
X106746570Y-83754040D01*
X106721867Y-83768847D01*
X106695832Y-83781160D01*
X106668715Y-83790863D01*
X106640778Y-83797861D01*
X106612289Y-83802087D01*
X106583523Y-83803500D01*
X105820477Y-83803500D01*
X105791711Y-83802087D01*
X105763222Y-83797861D01*
X105735285Y-83790863D01*
X105708168Y-83781160D01*
X105682133Y-83768847D01*
X105657430Y-83754040D01*
X105634297Y-83736884D01*
X105612957Y-83717543D01*
X105593616Y-83696203D01*
X105576460Y-83673070D01*
X105561653Y-83648367D01*
X105549340Y-83622332D01*
X105539637Y-83595215D01*
X105532639Y-83567278D01*
X105528413Y-83538789D01*
X105527000Y-83510023D01*
X105527000Y-82496977D01*
X105528413Y-82468211D01*
X105532639Y-82439722D01*
X105539637Y-82411785D01*
X105549340Y-82384668D01*
X105561653Y-82358633D01*
X105576460Y-82333930D01*
X105593616Y-82310797D01*
X105612957Y-82289457D01*
X105634297Y-82270116D01*
X105657430Y-82252960D01*
X105682133Y-82238153D01*
X105708168Y-82225840D01*
X105735285Y-82216137D01*
X105763222Y-82209139D01*
X105791711Y-82204913D01*
X105820477Y-82203500D01*
X106583523Y-82203500D01*
X106612289Y-82204913D01*
X106612289Y-82204913D01*
G37*
D22*
X106202000Y-83003500D03*
D19*
G36*
X104562289Y-82204913D02*
G01*
X104590778Y-82209139D01*
X104618715Y-82216137D01*
X104645832Y-82225840D01*
X104671867Y-82238153D01*
X104696570Y-82252960D01*
X104719703Y-82270116D01*
X104741043Y-82289457D01*
X104760384Y-82310797D01*
X104777540Y-82333930D01*
X104792347Y-82358633D01*
X104804660Y-82384668D01*
X104814363Y-82411785D01*
X104821361Y-82439722D01*
X104825587Y-82468211D01*
X104827000Y-82496977D01*
X104827000Y-83510023D01*
X104825587Y-83538789D01*
X104821361Y-83567278D01*
X104814363Y-83595215D01*
X104804660Y-83622332D01*
X104792347Y-83648367D01*
X104777540Y-83673070D01*
X104760384Y-83696203D01*
X104741043Y-83717543D01*
X104719703Y-83736884D01*
X104696570Y-83754040D01*
X104671867Y-83768847D01*
X104645832Y-83781160D01*
X104618715Y-83790863D01*
X104590778Y-83797861D01*
X104562289Y-83802087D01*
X104533523Y-83803500D01*
X103770477Y-83803500D01*
X103741711Y-83802087D01*
X103713222Y-83797861D01*
X103685285Y-83790863D01*
X103658168Y-83781160D01*
X103632133Y-83768847D01*
X103607430Y-83754040D01*
X103584297Y-83736884D01*
X103562957Y-83717543D01*
X103543616Y-83696203D01*
X103526460Y-83673070D01*
X103511653Y-83648367D01*
X103499340Y-83622332D01*
X103489637Y-83595215D01*
X103482639Y-83567278D01*
X103478413Y-83538789D01*
X103477000Y-83510023D01*
X103477000Y-82496977D01*
X103478413Y-82468211D01*
X103482639Y-82439722D01*
X103489637Y-82411785D01*
X103499340Y-82384668D01*
X103511653Y-82358633D01*
X103526460Y-82333930D01*
X103543616Y-82310797D01*
X103562957Y-82289457D01*
X103584297Y-82270116D01*
X103607430Y-82252960D01*
X103632133Y-82238153D01*
X103658168Y-82225840D01*
X103685285Y-82216137D01*
X103713222Y-82209139D01*
X103741711Y-82204913D01*
X103770477Y-82203500D01*
X104533523Y-82203500D01*
X104562289Y-82204913D01*
X104562289Y-82204913D01*
G37*
D22*
X104152000Y-83003500D03*
D19*
G36*
X98297789Y-84361913D02*
G01*
X98326278Y-84366139D01*
X98354215Y-84373137D01*
X98381332Y-84382840D01*
X98407367Y-84395153D01*
X98432070Y-84409960D01*
X98455203Y-84427116D01*
X98476543Y-84446457D01*
X98495884Y-84467797D01*
X98513040Y-84490930D01*
X98527847Y-84515633D01*
X98540160Y-84541668D01*
X98549863Y-84568785D01*
X98556861Y-84596722D01*
X98561087Y-84625211D01*
X98562500Y-84653977D01*
X98562500Y-85417023D01*
X98561087Y-85445789D01*
X98556861Y-85474278D01*
X98549863Y-85502215D01*
X98540160Y-85529332D01*
X98527847Y-85555367D01*
X98513040Y-85580070D01*
X98495884Y-85603203D01*
X98476543Y-85624543D01*
X98455203Y-85643884D01*
X98432070Y-85661040D01*
X98407367Y-85675847D01*
X98381332Y-85688160D01*
X98354215Y-85697863D01*
X98326278Y-85704861D01*
X98297789Y-85709087D01*
X98269023Y-85710500D01*
X97255977Y-85710500D01*
X97227211Y-85709087D01*
X97198722Y-85704861D01*
X97170785Y-85697863D01*
X97143668Y-85688160D01*
X97117633Y-85675847D01*
X97092930Y-85661040D01*
X97069797Y-85643884D01*
X97048457Y-85624543D01*
X97029116Y-85603203D01*
X97011960Y-85580070D01*
X96997153Y-85555367D01*
X96984840Y-85529332D01*
X96975137Y-85502215D01*
X96968139Y-85474278D01*
X96963913Y-85445789D01*
X96962500Y-85417023D01*
X96962500Y-84653977D01*
X96963913Y-84625211D01*
X96968139Y-84596722D01*
X96975137Y-84568785D01*
X96984840Y-84541668D01*
X96997153Y-84515633D01*
X97011960Y-84490930D01*
X97029116Y-84467797D01*
X97048457Y-84446457D01*
X97069797Y-84427116D01*
X97092930Y-84409960D01*
X97117633Y-84395153D01*
X97143668Y-84382840D01*
X97170785Y-84373137D01*
X97198722Y-84366139D01*
X97227211Y-84361913D01*
X97255977Y-84360500D01*
X98269023Y-84360500D01*
X98297789Y-84361913D01*
X98297789Y-84361913D01*
G37*
D22*
X97762500Y-85035500D03*
D19*
G36*
X98297789Y-82311913D02*
G01*
X98326278Y-82316139D01*
X98354215Y-82323137D01*
X98381332Y-82332840D01*
X98407367Y-82345153D01*
X98432070Y-82359960D01*
X98455203Y-82377116D01*
X98476543Y-82396457D01*
X98495884Y-82417797D01*
X98513040Y-82440930D01*
X98527847Y-82465633D01*
X98540160Y-82491668D01*
X98549863Y-82518785D01*
X98556861Y-82546722D01*
X98561087Y-82575211D01*
X98562500Y-82603977D01*
X98562500Y-83367023D01*
X98561087Y-83395789D01*
X98556861Y-83424278D01*
X98549863Y-83452215D01*
X98540160Y-83479332D01*
X98527847Y-83505367D01*
X98513040Y-83530070D01*
X98495884Y-83553203D01*
X98476543Y-83574543D01*
X98455203Y-83593884D01*
X98432070Y-83611040D01*
X98407367Y-83625847D01*
X98381332Y-83638160D01*
X98354215Y-83647863D01*
X98326278Y-83654861D01*
X98297789Y-83659087D01*
X98269023Y-83660500D01*
X97255977Y-83660500D01*
X97227211Y-83659087D01*
X97198722Y-83654861D01*
X97170785Y-83647863D01*
X97143668Y-83638160D01*
X97117633Y-83625847D01*
X97092930Y-83611040D01*
X97069797Y-83593884D01*
X97048457Y-83574543D01*
X97029116Y-83553203D01*
X97011960Y-83530070D01*
X96997153Y-83505367D01*
X96984840Y-83479332D01*
X96975137Y-83452215D01*
X96968139Y-83424278D01*
X96963913Y-83395789D01*
X96962500Y-83367023D01*
X96962500Y-82603977D01*
X96963913Y-82575211D01*
X96968139Y-82546722D01*
X96975137Y-82518785D01*
X96984840Y-82491668D01*
X96997153Y-82465633D01*
X97011960Y-82440930D01*
X97029116Y-82417797D01*
X97048457Y-82396457D01*
X97069797Y-82377116D01*
X97092930Y-82359960D01*
X97117633Y-82345153D01*
X97143668Y-82332840D01*
X97170785Y-82323137D01*
X97198722Y-82316139D01*
X97227211Y-82311913D01*
X97255977Y-82310500D01*
X98269023Y-82310500D01*
X98297789Y-82311913D01*
X98297789Y-82311913D01*
G37*
D22*
X97762500Y-82985500D03*
D19*
G36*
X106718289Y-89823413D02*
G01*
X106746778Y-89827639D01*
X106774715Y-89834637D01*
X106801832Y-89844340D01*
X106827867Y-89856653D01*
X106852570Y-89871460D01*
X106875703Y-89888616D01*
X106897043Y-89907957D01*
X106916384Y-89929297D01*
X106933540Y-89952430D01*
X106948347Y-89977133D01*
X106960660Y-90003168D01*
X106970363Y-90030285D01*
X106977361Y-90058222D01*
X106981587Y-90086711D01*
X106983000Y-90115477D01*
X106983000Y-90878523D01*
X106981587Y-90907289D01*
X106977361Y-90935778D01*
X106970363Y-90963715D01*
X106960660Y-90990832D01*
X106948347Y-91016867D01*
X106933540Y-91041570D01*
X106916384Y-91064703D01*
X106897043Y-91086043D01*
X106875703Y-91105384D01*
X106852570Y-91122540D01*
X106827867Y-91137347D01*
X106801832Y-91149660D01*
X106774715Y-91159363D01*
X106746778Y-91166361D01*
X106718289Y-91170587D01*
X106689523Y-91172000D01*
X105676477Y-91172000D01*
X105647711Y-91170587D01*
X105619222Y-91166361D01*
X105591285Y-91159363D01*
X105564168Y-91149660D01*
X105538133Y-91137347D01*
X105513430Y-91122540D01*
X105490297Y-91105384D01*
X105468957Y-91086043D01*
X105449616Y-91064703D01*
X105432460Y-91041570D01*
X105417653Y-91016867D01*
X105405340Y-90990832D01*
X105395637Y-90963715D01*
X105388639Y-90935778D01*
X105384413Y-90907289D01*
X105383000Y-90878523D01*
X105383000Y-90115477D01*
X105384413Y-90086711D01*
X105388639Y-90058222D01*
X105395637Y-90030285D01*
X105405340Y-90003168D01*
X105417653Y-89977133D01*
X105432460Y-89952430D01*
X105449616Y-89929297D01*
X105468957Y-89907957D01*
X105490297Y-89888616D01*
X105513430Y-89871460D01*
X105538133Y-89856653D01*
X105564168Y-89844340D01*
X105591285Y-89834637D01*
X105619222Y-89827639D01*
X105647711Y-89823413D01*
X105676477Y-89822000D01*
X106689523Y-89822000D01*
X106718289Y-89823413D01*
X106718289Y-89823413D01*
G37*
D22*
X106183000Y-90497000D03*
D19*
G36*
X106718289Y-87773413D02*
G01*
X106746778Y-87777639D01*
X106774715Y-87784637D01*
X106801832Y-87794340D01*
X106827867Y-87806653D01*
X106852570Y-87821460D01*
X106875703Y-87838616D01*
X106897043Y-87857957D01*
X106916384Y-87879297D01*
X106933540Y-87902430D01*
X106948347Y-87927133D01*
X106960660Y-87953168D01*
X106970363Y-87980285D01*
X106977361Y-88008222D01*
X106981587Y-88036711D01*
X106983000Y-88065477D01*
X106983000Y-88828523D01*
X106981587Y-88857289D01*
X106977361Y-88885778D01*
X106970363Y-88913715D01*
X106960660Y-88940832D01*
X106948347Y-88966867D01*
X106933540Y-88991570D01*
X106916384Y-89014703D01*
X106897043Y-89036043D01*
X106875703Y-89055384D01*
X106852570Y-89072540D01*
X106827867Y-89087347D01*
X106801832Y-89099660D01*
X106774715Y-89109363D01*
X106746778Y-89116361D01*
X106718289Y-89120587D01*
X106689523Y-89122000D01*
X105676477Y-89122000D01*
X105647711Y-89120587D01*
X105619222Y-89116361D01*
X105591285Y-89109363D01*
X105564168Y-89099660D01*
X105538133Y-89087347D01*
X105513430Y-89072540D01*
X105490297Y-89055384D01*
X105468957Y-89036043D01*
X105449616Y-89014703D01*
X105432460Y-88991570D01*
X105417653Y-88966867D01*
X105405340Y-88940832D01*
X105395637Y-88913715D01*
X105388639Y-88885778D01*
X105384413Y-88857289D01*
X105383000Y-88828523D01*
X105383000Y-88065477D01*
X105384413Y-88036711D01*
X105388639Y-88008222D01*
X105395637Y-87980285D01*
X105405340Y-87953168D01*
X105417653Y-87927133D01*
X105432460Y-87902430D01*
X105449616Y-87879297D01*
X105468957Y-87857957D01*
X105490297Y-87838616D01*
X105513430Y-87821460D01*
X105538133Y-87806653D01*
X105564168Y-87794340D01*
X105591285Y-87784637D01*
X105619222Y-87777639D01*
X105647711Y-87773413D01*
X105676477Y-87772000D01*
X106689523Y-87772000D01*
X106718289Y-87773413D01*
X106718289Y-87773413D01*
G37*
D22*
X106183000Y-88447000D03*
D19*
G36*
X113588289Y-77181413D02*
G01*
X113616778Y-77185639D01*
X113644715Y-77192637D01*
X113671832Y-77202340D01*
X113697867Y-77214653D01*
X113722570Y-77229460D01*
X113745703Y-77246616D01*
X113767043Y-77265957D01*
X113786384Y-77287297D01*
X113803540Y-77310430D01*
X113818347Y-77335133D01*
X113830660Y-77361168D01*
X113840363Y-77388285D01*
X113847361Y-77416222D01*
X113851587Y-77444711D01*
X113853000Y-77473477D01*
X113853000Y-78236523D01*
X113851587Y-78265289D01*
X113847361Y-78293778D01*
X113840363Y-78321715D01*
X113830660Y-78348832D01*
X113818347Y-78374867D01*
X113803540Y-78399570D01*
X113786384Y-78422703D01*
X113767043Y-78444043D01*
X113745703Y-78463384D01*
X113722570Y-78480540D01*
X113697867Y-78495347D01*
X113671832Y-78507660D01*
X113644715Y-78517363D01*
X113616778Y-78524361D01*
X113588289Y-78528587D01*
X113559523Y-78530000D01*
X112546477Y-78530000D01*
X112517711Y-78528587D01*
X112489222Y-78524361D01*
X112461285Y-78517363D01*
X112434168Y-78507660D01*
X112408133Y-78495347D01*
X112383430Y-78480540D01*
X112360297Y-78463384D01*
X112338957Y-78444043D01*
X112319616Y-78422703D01*
X112302460Y-78399570D01*
X112287653Y-78374867D01*
X112275340Y-78348832D01*
X112265637Y-78321715D01*
X112258639Y-78293778D01*
X112254413Y-78265289D01*
X112253000Y-78236523D01*
X112253000Y-77473477D01*
X112254413Y-77444711D01*
X112258639Y-77416222D01*
X112265637Y-77388285D01*
X112275340Y-77361168D01*
X112287653Y-77335133D01*
X112302460Y-77310430D01*
X112319616Y-77287297D01*
X112338957Y-77265957D01*
X112360297Y-77246616D01*
X112383430Y-77229460D01*
X112408133Y-77214653D01*
X112434168Y-77202340D01*
X112461285Y-77192637D01*
X112489222Y-77185639D01*
X112517711Y-77181413D01*
X112546477Y-77180000D01*
X113559523Y-77180000D01*
X113588289Y-77181413D01*
X113588289Y-77181413D01*
G37*
D22*
X113053000Y-77855000D03*
D19*
G36*
X113588289Y-75131413D02*
G01*
X113616778Y-75135639D01*
X113644715Y-75142637D01*
X113671832Y-75152340D01*
X113697867Y-75164653D01*
X113722570Y-75179460D01*
X113745703Y-75196616D01*
X113767043Y-75215957D01*
X113786384Y-75237297D01*
X113803540Y-75260430D01*
X113818347Y-75285133D01*
X113830660Y-75311168D01*
X113840363Y-75338285D01*
X113847361Y-75366222D01*
X113851587Y-75394711D01*
X113853000Y-75423477D01*
X113853000Y-76186523D01*
X113851587Y-76215289D01*
X113847361Y-76243778D01*
X113840363Y-76271715D01*
X113830660Y-76298832D01*
X113818347Y-76324867D01*
X113803540Y-76349570D01*
X113786384Y-76372703D01*
X113767043Y-76394043D01*
X113745703Y-76413384D01*
X113722570Y-76430540D01*
X113697867Y-76445347D01*
X113671832Y-76457660D01*
X113644715Y-76467363D01*
X113616778Y-76474361D01*
X113588289Y-76478587D01*
X113559523Y-76480000D01*
X112546477Y-76480000D01*
X112517711Y-76478587D01*
X112489222Y-76474361D01*
X112461285Y-76467363D01*
X112434168Y-76457660D01*
X112408133Y-76445347D01*
X112383430Y-76430540D01*
X112360297Y-76413384D01*
X112338957Y-76394043D01*
X112319616Y-76372703D01*
X112302460Y-76349570D01*
X112287653Y-76324867D01*
X112275340Y-76298832D01*
X112265637Y-76271715D01*
X112258639Y-76243778D01*
X112254413Y-76215289D01*
X112253000Y-76186523D01*
X112253000Y-75423477D01*
X112254413Y-75394711D01*
X112258639Y-75366222D01*
X112265637Y-75338285D01*
X112275340Y-75311168D01*
X112287653Y-75285133D01*
X112302460Y-75260430D01*
X112319616Y-75237297D01*
X112338957Y-75215957D01*
X112360297Y-75196616D01*
X112383430Y-75179460D01*
X112408133Y-75164653D01*
X112434168Y-75152340D01*
X112461285Y-75142637D01*
X112489222Y-75135639D01*
X112517711Y-75131413D01*
X112546477Y-75130000D01*
X113559523Y-75130000D01*
X113588289Y-75131413D01*
X113588289Y-75131413D01*
G37*
D22*
X113053000Y-75805000D03*
D19*
G36*
X100497289Y-87648413D02*
G01*
X100525778Y-87652639D01*
X100553715Y-87659637D01*
X100580832Y-87669340D01*
X100606867Y-87681653D01*
X100631570Y-87696460D01*
X100654703Y-87713616D01*
X100676043Y-87732957D01*
X100695384Y-87754297D01*
X100712540Y-87777430D01*
X100727347Y-87802133D01*
X100739660Y-87828168D01*
X100749363Y-87855285D01*
X100756361Y-87883222D01*
X100760587Y-87911711D01*
X100762000Y-87940477D01*
X100762000Y-88953523D01*
X100760587Y-88982289D01*
X100756361Y-89010778D01*
X100749363Y-89038715D01*
X100739660Y-89065832D01*
X100727347Y-89091867D01*
X100712540Y-89116570D01*
X100695384Y-89139703D01*
X100676043Y-89161043D01*
X100654703Y-89180384D01*
X100631570Y-89197540D01*
X100606867Y-89212347D01*
X100580832Y-89224660D01*
X100553715Y-89234363D01*
X100525778Y-89241361D01*
X100497289Y-89245587D01*
X100468523Y-89247000D01*
X99705477Y-89247000D01*
X99676711Y-89245587D01*
X99648222Y-89241361D01*
X99620285Y-89234363D01*
X99593168Y-89224660D01*
X99567133Y-89212347D01*
X99542430Y-89197540D01*
X99519297Y-89180384D01*
X99497957Y-89161043D01*
X99478616Y-89139703D01*
X99461460Y-89116570D01*
X99446653Y-89091867D01*
X99434340Y-89065832D01*
X99424637Y-89038715D01*
X99417639Y-89010778D01*
X99413413Y-88982289D01*
X99412000Y-88953523D01*
X99412000Y-87940477D01*
X99413413Y-87911711D01*
X99417639Y-87883222D01*
X99424637Y-87855285D01*
X99434340Y-87828168D01*
X99446653Y-87802133D01*
X99461460Y-87777430D01*
X99478616Y-87754297D01*
X99497957Y-87732957D01*
X99519297Y-87713616D01*
X99542430Y-87696460D01*
X99567133Y-87681653D01*
X99593168Y-87669340D01*
X99620285Y-87659637D01*
X99648222Y-87652639D01*
X99676711Y-87648413D01*
X99705477Y-87647000D01*
X100468523Y-87647000D01*
X100497289Y-87648413D01*
X100497289Y-87648413D01*
G37*
D22*
X100087000Y-88447000D03*
D19*
G36*
X98447289Y-87648413D02*
G01*
X98475778Y-87652639D01*
X98503715Y-87659637D01*
X98530832Y-87669340D01*
X98556867Y-87681653D01*
X98581570Y-87696460D01*
X98604703Y-87713616D01*
X98626043Y-87732957D01*
X98645384Y-87754297D01*
X98662540Y-87777430D01*
X98677347Y-87802133D01*
X98689660Y-87828168D01*
X98699363Y-87855285D01*
X98706361Y-87883222D01*
X98710587Y-87911711D01*
X98712000Y-87940477D01*
X98712000Y-88953523D01*
X98710587Y-88982289D01*
X98706361Y-89010778D01*
X98699363Y-89038715D01*
X98689660Y-89065832D01*
X98677347Y-89091867D01*
X98662540Y-89116570D01*
X98645384Y-89139703D01*
X98626043Y-89161043D01*
X98604703Y-89180384D01*
X98581570Y-89197540D01*
X98556867Y-89212347D01*
X98530832Y-89224660D01*
X98503715Y-89234363D01*
X98475778Y-89241361D01*
X98447289Y-89245587D01*
X98418523Y-89247000D01*
X97655477Y-89247000D01*
X97626711Y-89245587D01*
X97598222Y-89241361D01*
X97570285Y-89234363D01*
X97543168Y-89224660D01*
X97517133Y-89212347D01*
X97492430Y-89197540D01*
X97469297Y-89180384D01*
X97447957Y-89161043D01*
X97428616Y-89139703D01*
X97411460Y-89116570D01*
X97396653Y-89091867D01*
X97384340Y-89065832D01*
X97374637Y-89038715D01*
X97367639Y-89010778D01*
X97363413Y-88982289D01*
X97362000Y-88953523D01*
X97362000Y-87940477D01*
X97363413Y-87911711D01*
X97367639Y-87883222D01*
X97374637Y-87855285D01*
X97384340Y-87828168D01*
X97396653Y-87802133D01*
X97411460Y-87777430D01*
X97428616Y-87754297D01*
X97447957Y-87732957D01*
X97469297Y-87713616D01*
X97492430Y-87696460D01*
X97517133Y-87681653D01*
X97543168Y-87669340D01*
X97570285Y-87659637D01*
X97598222Y-87652639D01*
X97626711Y-87648413D01*
X97655477Y-87647000D01*
X98418523Y-87647000D01*
X98447289Y-87648413D01*
X98447289Y-87648413D01*
G37*
D22*
X98037000Y-88447000D03*
D19*
G36*
X106375289Y-74966913D02*
G01*
X106403778Y-74971139D01*
X106431715Y-74978137D01*
X106458832Y-74987840D01*
X106484867Y-75000153D01*
X106509570Y-75014960D01*
X106532703Y-75032116D01*
X106554043Y-75051457D01*
X106573384Y-75072797D01*
X106590540Y-75095930D01*
X106605347Y-75120633D01*
X106617660Y-75146668D01*
X106627363Y-75173785D01*
X106634361Y-75201722D01*
X106638587Y-75230211D01*
X106640000Y-75258977D01*
X106640000Y-76272023D01*
X106638587Y-76300789D01*
X106634361Y-76329278D01*
X106627363Y-76357215D01*
X106617660Y-76384332D01*
X106605347Y-76410367D01*
X106590540Y-76435070D01*
X106573384Y-76458203D01*
X106554043Y-76479543D01*
X106532703Y-76498884D01*
X106509570Y-76516040D01*
X106484867Y-76530847D01*
X106458832Y-76543160D01*
X106431715Y-76552863D01*
X106403778Y-76559861D01*
X106375289Y-76564087D01*
X106346523Y-76565500D01*
X105583477Y-76565500D01*
X105554711Y-76564087D01*
X105526222Y-76559861D01*
X105498285Y-76552863D01*
X105471168Y-76543160D01*
X105445133Y-76530847D01*
X105420430Y-76516040D01*
X105397297Y-76498884D01*
X105375957Y-76479543D01*
X105356616Y-76458203D01*
X105339460Y-76435070D01*
X105324653Y-76410367D01*
X105312340Y-76384332D01*
X105302637Y-76357215D01*
X105295639Y-76329278D01*
X105291413Y-76300789D01*
X105290000Y-76272023D01*
X105290000Y-75258977D01*
X105291413Y-75230211D01*
X105295639Y-75201722D01*
X105302637Y-75173785D01*
X105312340Y-75146668D01*
X105324653Y-75120633D01*
X105339460Y-75095930D01*
X105356616Y-75072797D01*
X105375957Y-75051457D01*
X105397297Y-75032116D01*
X105420430Y-75014960D01*
X105445133Y-75000153D01*
X105471168Y-74987840D01*
X105498285Y-74978137D01*
X105526222Y-74971139D01*
X105554711Y-74966913D01*
X105583477Y-74965500D01*
X106346523Y-74965500D01*
X106375289Y-74966913D01*
X106375289Y-74966913D01*
G37*
D22*
X105965000Y-75765500D03*
D19*
G36*
X104325289Y-74966913D02*
G01*
X104353778Y-74971139D01*
X104381715Y-74978137D01*
X104408832Y-74987840D01*
X104434867Y-75000153D01*
X104459570Y-75014960D01*
X104482703Y-75032116D01*
X104504043Y-75051457D01*
X104523384Y-75072797D01*
X104540540Y-75095930D01*
X104555347Y-75120633D01*
X104567660Y-75146668D01*
X104577363Y-75173785D01*
X104584361Y-75201722D01*
X104588587Y-75230211D01*
X104590000Y-75258977D01*
X104590000Y-76272023D01*
X104588587Y-76300789D01*
X104584361Y-76329278D01*
X104577363Y-76357215D01*
X104567660Y-76384332D01*
X104555347Y-76410367D01*
X104540540Y-76435070D01*
X104523384Y-76458203D01*
X104504043Y-76479543D01*
X104482703Y-76498884D01*
X104459570Y-76516040D01*
X104434867Y-76530847D01*
X104408832Y-76543160D01*
X104381715Y-76552863D01*
X104353778Y-76559861D01*
X104325289Y-76564087D01*
X104296523Y-76565500D01*
X103533477Y-76565500D01*
X103504711Y-76564087D01*
X103476222Y-76559861D01*
X103448285Y-76552863D01*
X103421168Y-76543160D01*
X103395133Y-76530847D01*
X103370430Y-76516040D01*
X103347297Y-76498884D01*
X103325957Y-76479543D01*
X103306616Y-76458203D01*
X103289460Y-76435070D01*
X103274653Y-76410367D01*
X103262340Y-76384332D01*
X103252637Y-76357215D01*
X103245639Y-76329278D01*
X103241413Y-76300789D01*
X103240000Y-76272023D01*
X103240000Y-75258977D01*
X103241413Y-75230211D01*
X103245639Y-75201722D01*
X103252637Y-75173785D01*
X103262340Y-75146668D01*
X103274653Y-75120633D01*
X103289460Y-75095930D01*
X103306616Y-75072797D01*
X103325957Y-75051457D01*
X103347297Y-75032116D01*
X103370430Y-75014960D01*
X103395133Y-75000153D01*
X103421168Y-74987840D01*
X103448285Y-74978137D01*
X103476222Y-74971139D01*
X103504711Y-74966913D01*
X103533477Y-74965500D01*
X104296523Y-74965500D01*
X104325289Y-74966913D01*
X104325289Y-74966913D01*
G37*
D22*
X103915000Y-75765500D03*
D19*
G36*
X94208789Y-89805413D02*
G01*
X94237278Y-89809639D01*
X94265215Y-89816637D01*
X94292332Y-89826340D01*
X94318367Y-89838653D01*
X94343070Y-89853460D01*
X94366203Y-89870616D01*
X94387543Y-89889957D01*
X94406884Y-89911297D01*
X94424040Y-89934430D01*
X94438847Y-89959133D01*
X94451160Y-89985168D01*
X94460863Y-90012285D01*
X94467861Y-90040222D01*
X94472087Y-90068711D01*
X94473500Y-90097477D01*
X94473500Y-90860523D01*
X94472087Y-90889289D01*
X94467861Y-90917778D01*
X94460863Y-90945715D01*
X94451160Y-90972832D01*
X94438847Y-90998867D01*
X94424040Y-91023570D01*
X94406884Y-91046703D01*
X94387543Y-91068043D01*
X94366203Y-91087384D01*
X94343070Y-91104540D01*
X94318367Y-91119347D01*
X94292332Y-91131660D01*
X94265215Y-91141363D01*
X94237278Y-91148361D01*
X94208789Y-91152587D01*
X94180023Y-91154000D01*
X93166977Y-91154000D01*
X93138211Y-91152587D01*
X93109722Y-91148361D01*
X93081785Y-91141363D01*
X93054668Y-91131660D01*
X93028633Y-91119347D01*
X93003930Y-91104540D01*
X92980797Y-91087384D01*
X92959457Y-91068043D01*
X92940116Y-91046703D01*
X92922960Y-91023570D01*
X92908153Y-90998867D01*
X92895840Y-90972832D01*
X92886137Y-90945715D01*
X92879139Y-90917778D01*
X92874913Y-90889289D01*
X92873500Y-90860523D01*
X92873500Y-90097477D01*
X92874913Y-90068711D01*
X92879139Y-90040222D01*
X92886137Y-90012285D01*
X92895840Y-89985168D01*
X92908153Y-89959133D01*
X92922960Y-89934430D01*
X92940116Y-89911297D01*
X92959457Y-89889957D01*
X92980797Y-89870616D01*
X93003930Y-89853460D01*
X93028633Y-89838653D01*
X93054668Y-89826340D01*
X93081785Y-89816637D01*
X93109722Y-89809639D01*
X93138211Y-89805413D01*
X93166977Y-89804000D01*
X94180023Y-89804000D01*
X94208789Y-89805413D01*
X94208789Y-89805413D01*
G37*
D22*
X93673500Y-90479000D03*
D19*
G36*
X94208789Y-87755413D02*
G01*
X94237278Y-87759639D01*
X94265215Y-87766637D01*
X94292332Y-87776340D01*
X94318367Y-87788653D01*
X94343070Y-87803460D01*
X94366203Y-87820616D01*
X94387543Y-87839957D01*
X94406884Y-87861297D01*
X94424040Y-87884430D01*
X94438847Y-87909133D01*
X94451160Y-87935168D01*
X94460863Y-87962285D01*
X94467861Y-87990222D01*
X94472087Y-88018711D01*
X94473500Y-88047477D01*
X94473500Y-88810523D01*
X94472087Y-88839289D01*
X94467861Y-88867778D01*
X94460863Y-88895715D01*
X94451160Y-88922832D01*
X94438847Y-88948867D01*
X94424040Y-88973570D01*
X94406884Y-88996703D01*
X94387543Y-89018043D01*
X94366203Y-89037384D01*
X94343070Y-89054540D01*
X94318367Y-89069347D01*
X94292332Y-89081660D01*
X94265215Y-89091363D01*
X94237278Y-89098361D01*
X94208789Y-89102587D01*
X94180023Y-89104000D01*
X93166977Y-89104000D01*
X93138211Y-89102587D01*
X93109722Y-89098361D01*
X93081785Y-89091363D01*
X93054668Y-89081660D01*
X93028633Y-89069347D01*
X93003930Y-89054540D01*
X92980797Y-89037384D01*
X92959457Y-89018043D01*
X92940116Y-88996703D01*
X92922960Y-88973570D01*
X92908153Y-88948867D01*
X92895840Y-88922832D01*
X92886137Y-88895715D01*
X92879139Y-88867778D01*
X92874913Y-88839289D01*
X92873500Y-88810523D01*
X92873500Y-88047477D01*
X92874913Y-88018711D01*
X92879139Y-87990222D01*
X92886137Y-87962285D01*
X92895840Y-87935168D01*
X92908153Y-87909133D01*
X92922960Y-87884430D01*
X92940116Y-87861297D01*
X92959457Y-87839957D01*
X92980797Y-87820616D01*
X93003930Y-87803460D01*
X93028633Y-87788653D01*
X93054668Y-87776340D01*
X93081785Y-87766637D01*
X93109722Y-87759639D01*
X93138211Y-87755413D01*
X93166977Y-87754000D01*
X94180023Y-87754000D01*
X94208789Y-87755413D01*
X94208789Y-87755413D01*
G37*
D22*
X93673500Y-88429000D03*
D19*
G36*
X98094289Y-77084413D02*
G01*
X98122778Y-77088639D01*
X98150715Y-77095637D01*
X98177832Y-77105340D01*
X98203867Y-77117653D01*
X98228570Y-77132460D01*
X98251703Y-77149616D01*
X98273043Y-77168957D01*
X98292384Y-77190297D01*
X98309540Y-77213430D01*
X98324347Y-77238133D01*
X98336660Y-77264168D01*
X98346363Y-77291285D01*
X98353361Y-77319222D01*
X98357587Y-77347711D01*
X98359000Y-77376477D01*
X98359000Y-78139523D01*
X98357587Y-78168289D01*
X98353361Y-78196778D01*
X98346363Y-78224715D01*
X98336660Y-78251832D01*
X98324347Y-78277867D01*
X98309540Y-78302570D01*
X98292384Y-78325703D01*
X98273043Y-78347043D01*
X98251703Y-78366384D01*
X98228570Y-78383540D01*
X98203867Y-78398347D01*
X98177832Y-78410660D01*
X98150715Y-78420363D01*
X98122778Y-78427361D01*
X98094289Y-78431587D01*
X98065523Y-78433000D01*
X97052477Y-78433000D01*
X97023711Y-78431587D01*
X96995222Y-78427361D01*
X96967285Y-78420363D01*
X96940168Y-78410660D01*
X96914133Y-78398347D01*
X96889430Y-78383540D01*
X96866297Y-78366384D01*
X96844957Y-78347043D01*
X96825616Y-78325703D01*
X96808460Y-78302570D01*
X96793653Y-78277867D01*
X96781340Y-78251832D01*
X96771637Y-78224715D01*
X96764639Y-78196778D01*
X96760413Y-78168289D01*
X96759000Y-78139523D01*
X96759000Y-77376477D01*
X96760413Y-77347711D01*
X96764639Y-77319222D01*
X96771637Y-77291285D01*
X96781340Y-77264168D01*
X96793653Y-77238133D01*
X96808460Y-77213430D01*
X96825616Y-77190297D01*
X96844957Y-77168957D01*
X96866297Y-77149616D01*
X96889430Y-77132460D01*
X96914133Y-77117653D01*
X96940168Y-77105340D01*
X96967285Y-77095637D01*
X96995222Y-77088639D01*
X97023711Y-77084413D01*
X97052477Y-77083000D01*
X98065523Y-77083000D01*
X98094289Y-77084413D01*
X98094289Y-77084413D01*
G37*
D22*
X97559000Y-77758000D03*
D19*
G36*
X98094289Y-75034413D02*
G01*
X98122778Y-75038639D01*
X98150715Y-75045637D01*
X98177832Y-75055340D01*
X98203867Y-75067653D01*
X98228570Y-75082460D01*
X98251703Y-75099616D01*
X98273043Y-75118957D01*
X98292384Y-75140297D01*
X98309540Y-75163430D01*
X98324347Y-75188133D01*
X98336660Y-75214168D01*
X98346363Y-75241285D01*
X98353361Y-75269222D01*
X98357587Y-75297711D01*
X98359000Y-75326477D01*
X98359000Y-76089523D01*
X98357587Y-76118289D01*
X98353361Y-76146778D01*
X98346363Y-76174715D01*
X98336660Y-76201832D01*
X98324347Y-76227867D01*
X98309540Y-76252570D01*
X98292384Y-76275703D01*
X98273043Y-76297043D01*
X98251703Y-76316384D01*
X98228570Y-76333540D01*
X98203867Y-76348347D01*
X98177832Y-76360660D01*
X98150715Y-76370363D01*
X98122778Y-76377361D01*
X98094289Y-76381587D01*
X98065523Y-76383000D01*
X97052477Y-76383000D01*
X97023711Y-76381587D01*
X96995222Y-76377361D01*
X96967285Y-76370363D01*
X96940168Y-76360660D01*
X96914133Y-76348347D01*
X96889430Y-76333540D01*
X96866297Y-76316384D01*
X96844957Y-76297043D01*
X96825616Y-76275703D01*
X96808460Y-76252570D01*
X96793653Y-76227867D01*
X96781340Y-76201832D01*
X96771637Y-76174715D01*
X96764639Y-76146778D01*
X96760413Y-76118289D01*
X96759000Y-76089523D01*
X96759000Y-75326477D01*
X96760413Y-75297711D01*
X96764639Y-75269222D01*
X96771637Y-75241285D01*
X96781340Y-75214168D01*
X96793653Y-75188133D01*
X96808460Y-75163430D01*
X96825616Y-75140297D01*
X96844957Y-75118957D01*
X96866297Y-75099616D01*
X96889430Y-75082460D01*
X96914133Y-75067653D01*
X96940168Y-75055340D01*
X96967285Y-75045637D01*
X96995222Y-75038639D01*
X97023711Y-75034413D01*
X97052477Y-75033000D01*
X98065523Y-75033000D01*
X98094289Y-75034413D01*
X98094289Y-75034413D01*
G37*
D22*
X97559000Y-75708000D03*
D23*
X136271000Y-87693500D03*
X141351000Y-87693500D03*
X141351000Y-92773500D03*
X136271000Y-92773500D03*
D24*
X138811000Y-90233500D03*
D23*
X119940000Y-94960000D03*
X119940000Y-100040000D03*
X114860000Y-100040000D03*
X114860000Y-94960000D03*
D24*
X117400000Y-97500000D03*
D23*
X99540000Y-94980000D03*
X99540000Y-100060000D03*
X94460000Y-100060000D03*
X94460000Y-94980000D03*
D24*
X97000000Y-97520000D03*
D11*
X140779500Y-70612000D03*
D12*
X138239500Y-70612000D03*
D25*
X141546500Y-102679500D03*
D19*
G36*
X143144579Y-105199009D02*
G01*
X143138888Y-105217768D01*
X143129647Y-105235057D01*
X143117211Y-105250211D01*
X143102057Y-105262647D01*
X143084768Y-105271888D01*
X143066009Y-105277579D01*
X143046500Y-105279500D01*
X140046500Y-105279500D01*
X140026991Y-105277579D01*
X140008232Y-105271888D01*
X139990943Y-105262647D01*
X139975789Y-105250211D01*
X139963353Y-105235057D01*
X139954112Y-105217768D01*
X139948421Y-105199009D01*
X139946500Y-105179500D01*
X139946500Y-100179500D01*
X139948421Y-100159991D01*
X139954112Y-100141232D01*
X139963353Y-100123943D01*
X139975789Y-100108789D01*
X139990943Y-100096353D01*
X140008232Y-100087112D01*
X140026991Y-100081421D01*
X140046500Y-100079500D01*
X143046500Y-100079500D01*
X143066009Y-100081421D01*
X143084768Y-100087112D01*
X143102057Y-100096353D01*
X143117211Y-100108789D01*
X143129647Y-100123943D01*
X143138888Y-100141232D01*
X143144579Y-100159991D01*
X143146500Y-100179500D01*
X143146500Y-105179500D01*
X143144579Y-105199009D01*
X143144579Y-105199009D01*
G37*
D26*
X138828000Y-102679500D03*
D19*
G36*
X139676079Y-103249009D02*
G01*
X139670388Y-103267768D01*
X139661147Y-103285057D01*
X139648711Y-103300211D01*
X139633557Y-103312647D01*
X139616268Y-103321888D01*
X139597509Y-103327579D01*
X139578000Y-103329500D01*
X138078000Y-103329500D01*
X138058491Y-103327579D01*
X138039732Y-103321888D01*
X138022443Y-103312647D01*
X138007289Y-103300211D01*
X137994853Y-103285057D01*
X137985612Y-103267768D01*
X137979921Y-103249009D01*
X137978000Y-103229500D01*
X137978000Y-102129500D01*
X137979921Y-102109991D01*
X137985612Y-102091232D01*
X137994853Y-102073943D01*
X138007289Y-102058789D01*
X138022443Y-102046353D01*
X138039732Y-102037112D01*
X138058491Y-102031421D01*
X138078000Y-102029500D01*
X139578000Y-102029500D01*
X139597509Y-102031421D01*
X139616268Y-102037112D01*
X139633557Y-102046353D01*
X139648711Y-102058789D01*
X139661147Y-102073943D01*
X139670388Y-102091232D01*
X139676079Y-102109991D01*
X139678000Y-102129500D01*
X139678000Y-103229500D01*
X139676079Y-103249009D01*
X139676079Y-103249009D01*
G37*
D27*
X138828000Y-104179500D03*
D19*
G36*
X139676079Y-104599009D02*
G01*
X139670388Y-104617768D01*
X139661147Y-104635057D01*
X139648711Y-104650211D01*
X139633557Y-104662647D01*
X139616268Y-104671888D01*
X139597509Y-104677579D01*
X139578000Y-104679500D01*
X138078000Y-104679500D01*
X138058491Y-104677579D01*
X138039732Y-104671888D01*
X138022443Y-104662647D01*
X138007289Y-104650211D01*
X137994853Y-104635057D01*
X137985612Y-104617768D01*
X137979921Y-104599009D01*
X137978000Y-104579500D01*
X137978000Y-103779500D01*
X137979921Y-103759991D01*
X137985612Y-103741232D01*
X137994853Y-103723943D01*
X138007289Y-103708789D01*
X138022443Y-103696353D01*
X138039732Y-103687112D01*
X138058491Y-103681421D01*
X138078000Y-103679500D01*
X139578000Y-103679500D01*
X139597509Y-103681421D01*
X139616268Y-103687112D01*
X139633557Y-103696353D01*
X139648711Y-103708789D01*
X139661147Y-103723943D01*
X139670388Y-103741232D01*
X139676079Y-103759991D01*
X139678000Y-103779500D01*
X139678000Y-104579500D01*
X139676079Y-104599009D01*
X139676079Y-104599009D01*
G37*
D27*
X138828000Y-101179500D03*
D19*
G36*
X139676079Y-101599009D02*
G01*
X139670388Y-101617768D01*
X139661147Y-101635057D01*
X139648711Y-101650211D01*
X139633557Y-101662647D01*
X139616268Y-101671888D01*
X139597509Y-101677579D01*
X139578000Y-101679500D01*
X138078000Y-101679500D01*
X138058491Y-101677579D01*
X138039732Y-101671888D01*
X138022443Y-101662647D01*
X138007289Y-101650211D01*
X137994853Y-101635057D01*
X137985612Y-101617768D01*
X137979921Y-101599009D01*
X137978000Y-101579500D01*
X137978000Y-100779500D01*
X137979921Y-100759991D01*
X137985612Y-100741232D01*
X137994853Y-100723943D01*
X138007289Y-100708789D01*
X138022443Y-100696353D01*
X138039732Y-100687112D01*
X138058491Y-100681421D01*
X138078000Y-100679500D01*
X139578000Y-100679500D01*
X139597509Y-100681421D01*
X139616268Y-100687112D01*
X139633557Y-100696353D01*
X139648711Y-100708789D01*
X139661147Y-100723943D01*
X139670388Y-100741232D01*
X139676079Y-100759991D01*
X139678000Y-100779500D01*
X139678000Y-101579500D01*
X139676079Y-101599009D01*
X139676079Y-101599009D01*
G37*
G36*
X125133289Y-104103413D02*
G01*
X125161778Y-104107639D01*
X125189715Y-104114637D01*
X125216832Y-104124340D01*
X125242867Y-104136653D01*
X125267570Y-104151460D01*
X125290703Y-104168616D01*
X125312043Y-104187957D01*
X125331384Y-104209297D01*
X125348540Y-104232430D01*
X125363347Y-104257133D01*
X125375660Y-104283168D01*
X125385363Y-104310285D01*
X125392361Y-104338222D01*
X125396587Y-104366711D01*
X125398000Y-104395477D01*
X125398000Y-105408523D01*
X125396587Y-105437289D01*
X125392361Y-105465778D01*
X125385363Y-105493715D01*
X125375660Y-105520832D01*
X125363347Y-105546867D01*
X125348540Y-105571570D01*
X125331384Y-105594703D01*
X125312043Y-105616043D01*
X125290703Y-105635384D01*
X125267570Y-105652540D01*
X125242867Y-105667347D01*
X125216832Y-105679660D01*
X125189715Y-105689363D01*
X125161778Y-105696361D01*
X125133289Y-105700587D01*
X125104523Y-105702000D01*
X124341477Y-105702000D01*
X124312711Y-105700587D01*
X124284222Y-105696361D01*
X124256285Y-105689363D01*
X124229168Y-105679660D01*
X124203133Y-105667347D01*
X124178430Y-105652540D01*
X124155297Y-105635384D01*
X124133957Y-105616043D01*
X124114616Y-105594703D01*
X124097460Y-105571570D01*
X124082653Y-105546867D01*
X124070340Y-105520832D01*
X124060637Y-105493715D01*
X124053639Y-105465778D01*
X124049413Y-105437289D01*
X124048000Y-105408523D01*
X124048000Y-104395477D01*
X124049413Y-104366711D01*
X124053639Y-104338222D01*
X124060637Y-104310285D01*
X124070340Y-104283168D01*
X124082653Y-104257133D01*
X124097460Y-104232430D01*
X124114616Y-104209297D01*
X124133957Y-104187957D01*
X124155297Y-104168616D01*
X124178430Y-104151460D01*
X124203133Y-104136653D01*
X124229168Y-104124340D01*
X124256285Y-104114637D01*
X124284222Y-104107639D01*
X124312711Y-104103413D01*
X124341477Y-104102000D01*
X125104523Y-104102000D01*
X125133289Y-104103413D01*
X125133289Y-104103413D01*
G37*
D22*
X124723000Y-104902000D03*
D19*
G36*
X123083289Y-104103413D02*
G01*
X123111778Y-104107639D01*
X123139715Y-104114637D01*
X123166832Y-104124340D01*
X123192867Y-104136653D01*
X123217570Y-104151460D01*
X123240703Y-104168616D01*
X123262043Y-104187957D01*
X123281384Y-104209297D01*
X123298540Y-104232430D01*
X123313347Y-104257133D01*
X123325660Y-104283168D01*
X123335363Y-104310285D01*
X123342361Y-104338222D01*
X123346587Y-104366711D01*
X123348000Y-104395477D01*
X123348000Y-105408523D01*
X123346587Y-105437289D01*
X123342361Y-105465778D01*
X123335363Y-105493715D01*
X123325660Y-105520832D01*
X123313347Y-105546867D01*
X123298540Y-105571570D01*
X123281384Y-105594703D01*
X123262043Y-105616043D01*
X123240703Y-105635384D01*
X123217570Y-105652540D01*
X123192867Y-105667347D01*
X123166832Y-105679660D01*
X123139715Y-105689363D01*
X123111778Y-105696361D01*
X123083289Y-105700587D01*
X123054523Y-105702000D01*
X122291477Y-105702000D01*
X122262711Y-105700587D01*
X122234222Y-105696361D01*
X122206285Y-105689363D01*
X122179168Y-105679660D01*
X122153133Y-105667347D01*
X122128430Y-105652540D01*
X122105297Y-105635384D01*
X122083957Y-105616043D01*
X122064616Y-105594703D01*
X122047460Y-105571570D01*
X122032653Y-105546867D01*
X122020340Y-105520832D01*
X122010637Y-105493715D01*
X122003639Y-105465778D01*
X121999413Y-105437289D01*
X121998000Y-105408523D01*
X121998000Y-104395477D01*
X121999413Y-104366711D01*
X122003639Y-104338222D01*
X122010637Y-104310285D01*
X122020340Y-104283168D01*
X122032653Y-104257133D01*
X122047460Y-104232430D01*
X122064616Y-104209297D01*
X122083957Y-104187957D01*
X122105297Y-104168616D01*
X122128430Y-104151460D01*
X122153133Y-104136653D01*
X122179168Y-104124340D01*
X122206285Y-104114637D01*
X122234222Y-104107639D01*
X122262711Y-104103413D01*
X122291477Y-104102000D01*
X123054523Y-104102000D01*
X123083289Y-104103413D01*
X123083289Y-104103413D01*
G37*
D22*
X122673000Y-104902000D03*
D19*
G36*
X87085289Y-105241413D02*
G01*
X87113778Y-105245639D01*
X87141715Y-105252637D01*
X87168832Y-105262340D01*
X87194867Y-105274653D01*
X87219570Y-105289460D01*
X87242703Y-105306616D01*
X87264043Y-105325957D01*
X87283384Y-105347297D01*
X87300540Y-105370430D01*
X87315347Y-105395133D01*
X87327660Y-105421168D01*
X87337363Y-105448285D01*
X87344361Y-105476222D01*
X87348587Y-105504711D01*
X87350000Y-105533477D01*
X87350000Y-106546523D01*
X87348587Y-106575289D01*
X87344361Y-106603778D01*
X87337363Y-106631715D01*
X87327660Y-106658832D01*
X87315347Y-106684867D01*
X87300540Y-106709570D01*
X87283384Y-106732703D01*
X87264043Y-106754043D01*
X87242703Y-106773384D01*
X87219570Y-106790540D01*
X87194867Y-106805347D01*
X87168832Y-106817660D01*
X87141715Y-106827363D01*
X87113778Y-106834361D01*
X87085289Y-106838587D01*
X87056523Y-106840000D01*
X86293477Y-106840000D01*
X86264711Y-106838587D01*
X86236222Y-106834361D01*
X86208285Y-106827363D01*
X86181168Y-106817660D01*
X86155133Y-106805347D01*
X86130430Y-106790540D01*
X86107297Y-106773384D01*
X86085957Y-106754043D01*
X86066616Y-106732703D01*
X86049460Y-106709570D01*
X86034653Y-106684867D01*
X86022340Y-106658832D01*
X86012637Y-106631715D01*
X86005639Y-106603778D01*
X86001413Y-106575289D01*
X86000000Y-106546523D01*
X86000000Y-105533477D01*
X86001413Y-105504711D01*
X86005639Y-105476222D01*
X86012637Y-105448285D01*
X86022340Y-105421168D01*
X86034653Y-105395133D01*
X86049460Y-105370430D01*
X86066616Y-105347297D01*
X86085957Y-105325957D01*
X86107297Y-105306616D01*
X86130430Y-105289460D01*
X86155133Y-105274653D01*
X86181168Y-105262340D01*
X86208285Y-105252637D01*
X86236222Y-105245639D01*
X86264711Y-105241413D01*
X86293477Y-105240000D01*
X87056523Y-105240000D01*
X87085289Y-105241413D01*
X87085289Y-105241413D01*
G37*
D22*
X86675000Y-106040000D03*
D19*
G36*
X89135289Y-105241413D02*
G01*
X89163778Y-105245639D01*
X89191715Y-105252637D01*
X89218832Y-105262340D01*
X89244867Y-105274653D01*
X89269570Y-105289460D01*
X89292703Y-105306616D01*
X89314043Y-105325957D01*
X89333384Y-105347297D01*
X89350540Y-105370430D01*
X89365347Y-105395133D01*
X89377660Y-105421168D01*
X89387363Y-105448285D01*
X89394361Y-105476222D01*
X89398587Y-105504711D01*
X89400000Y-105533477D01*
X89400000Y-106546523D01*
X89398587Y-106575289D01*
X89394361Y-106603778D01*
X89387363Y-106631715D01*
X89377660Y-106658832D01*
X89365347Y-106684867D01*
X89350540Y-106709570D01*
X89333384Y-106732703D01*
X89314043Y-106754043D01*
X89292703Y-106773384D01*
X89269570Y-106790540D01*
X89244867Y-106805347D01*
X89218832Y-106817660D01*
X89191715Y-106827363D01*
X89163778Y-106834361D01*
X89135289Y-106838587D01*
X89106523Y-106840000D01*
X88343477Y-106840000D01*
X88314711Y-106838587D01*
X88286222Y-106834361D01*
X88258285Y-106827363D01*
X88231168Y-106817660D01*
X88205133Y-106805347D01*
X88180430Y-106790540D01*
X88157297Y-106773384D01*
X88135957Y-106754043D01*
X88116616Y-106732703D01*
X88099460Y-106709570D01*
X88084653Y-106684867D01*
X88072340Y-106658832D01*
X88062637Y-106631715D01*
X88055639Y-106603778D01*
X88051413Y-106575289D01*
X88050000Y-106546523D01*
X88050000Y-105533477D01*
X88051413Y-105504711D01*
X88055639Y-105476222D01*
X88062637Y-105448285D01*
X88072340Y-105421168D01*
X88084653Y-105395133D01*
X88099460Y-105370430D01*
X88116616Y-105347297D01*
X88135957Y-105325957D01*
X88157297Y-105306616D01*
X88180430Y-105289460D01*
X88205133Y-105274653D01*
X88231168Y-105262340D01*
X88258285Y-105252637D01*
X88286222Y-105245639D01*
X88314711Y-105241413D01*
X88343477Y-105240000D01*
X89106523Y-105240000D01*
X89135289Y-105241413D01*
X89135289Y-105241413D01*
G37*
D22*
X88725000Y-106040000D03*
D19*
G36*
X133885289Y-109054413D02*
G01*
X133913778Y-109058639D01*
X133941715Y-109065637D01*
X133968832Y-109075340D01*
X133994867Y-109087653D01*
X134019570Y-109102460D01*
X134042703Y-109119616D01*
X134064043Y-109138957D01*
X134083384Y-109160297D01*
X134100540Y-109183430D01*
X134115347Y-109208133D01*
X134127660Y-109234168D01*
X134137363Y-109261285D01*
X134144361Y-109289222D01*
X134148587Y-109317711D01*
X134150000Y-109346477D01*
X134150000Y-110109523D01*
X134148587Y-110138289D01*
X134144361Y-110166778D01*
X134137363Y-110194715D01*
X134127660Y-110221832D01*
X134115347Y-110247867D01*
X134100540Y-110272570D01*
X134083384Y-110295703D01*
X134064043Y-110317043D01*
X134042703Y-110336384D01*
X134019570Y-110353540D01*
X133994867Y-110368347D01*
X133968832Y-110380660D01*
X133941715Y-110390363D01*
X133913778Y-110397361D01*
X133885289Y-110401587D01*
X133856523Y-110403000D01*
X132843477Y-110403000D01*
X132814711Y-110401587D01*
X132786222Y-110397361D01*
X132758285Y-110390363D01*
X132731168Y-110380660D01*
X132705133Y-110368347D01*
X132680430Y-110353540D01*
X132657297Y-110336384D01*
X132635957Y-110317043D01*
X132616616Y-110295703D01*
X132599460Y-110272570D01*
X132584653Y-110247867D01*
X132572340Y-110221832D01*
X132562637Y-110194715D01*
X132555639Y-110166778D01*
X132551413Y-110138289D01*
X132550000Y-110109523D01*
X132550000Y-109346477D01*
X132551413Y-109317711D01*
X132555639Y-109289222D01*
X132562637Y-109261285D01*
X132572340Y-109234168D01*
X132584653Y-109208133D01*
X132599460Y-109183430D01*
X132616616Y-109160297D01*
X132635957Y-109138957D01*
X132657297Y-109119616D01*
X132680430Y-109102460D01*
X132705133Y-109087653D01*
X132731168Y-109075340D01*
X132758285Y-109065637D01*
X132786222Y-109058639D01*
X132814711Y-109054413D01*
X132843477Y-109053000D01*
X133856523Y-109053000D01*
X133885289Y-109054413D01*
X133885289Y-109054413D01*
G37*
D22*
X133350000Y-109728000D03*
D19*
G36*
X133885289Y-107004413D02*
G01*
X133913778Y-107008639D01*
X133941715Y-107015637D01*
X133968832Y-107025340D01*
X133994867Y-107037653D01*
X134019570Y-107052460D01*
X134042703Y-107069616D01*
X134064043Y-107088957D01*
X134083384Y-107110297D01*
X134100540Y-107133430D01*
X134115347Y-107158133D01*
X134127660Y-107184168D01*
X134137363Y-107211285D01*
X134144361Y-107239222D01*
X134148587Y-107267711D01*
X134150000Y-107296477D01*
X134150000Y-108059523D01*
X134148587Y-108088289D01*
X134144361Y-108116778D01*
X134137363Y-108144715D01*
X134127660Y-108171832D01*
X134115347Y-108197867D01*
X134100540Y-108222570D01*
X134083384Y-108245703D01*
X134064043Y-108267043D01*
X134042703Y-108286384D01*
X134019570Y-108303540D01*
X133994867Y-108318347D01*
X133968832Y-108330660D01*
X133941715Y-108340363D01*
X133913778Y-108347361D01*
X133885289Y-108351587D01*
X133856523Y-108353000D01*
X132843477Y-108353000D01*
X132814711Y-108351587D01*
X132786222Y-108347361D01*
X132758285Y-108340363D01*
X132731168Y-108330660D01*
X132705133Y-108318347D01*
X132680430Y-108303540D01*
X132657297Y-108286384D01*
X132635957Y-108267043D01*
X132616616Y-108245703D01*
X132599460Y-108222570D01*
X132584653Y-108197867D01*
X132572340Y-108171832D01*
X132562637Y-108144715D01*
X132555639Y-108116778D01*
X132551413Y-108088289D01*
X132550000Y-108059523D01*
X132550000Y-107296477D01*
X132551413Y-107267711D01*
X132555639Y-107239222D01*
X132562637Y-107211285D01*
X132572340Y-107184168D01*
X132584653Y-107158133D01*
X132599460Y-107133430D01*
X132616616Y-107110297D01*
X132635957Y-107088957D01*
X132657297Y-107069616D01*
X132680430Y-107052460D01*
X132705133Y-107037653D01*
X132731168Y-107025340D01*
X132758285Y-107015637D01*
X132786222Y-107008639D01*
X132814711Y-107004413D01*
X132843477Y-107003000D01*
X133856523Y-107003000D01*
X133885289Y-107004413D01*
X133885289Y-107004413D01*
G37*
D22*
X133350000Y-107678000D03*
D19*
G36*
X117030289Y-84379913D02*
G01*
X117058778Y-84384139D01*
X117086715Y-84391137D01*
X117113832Y-84400840D01*
X117139867Y-84413153D01*
X117164570Y-84427960D01*
X117187703Y-84445116D01*
X117209043Y-84464457D01*
X117228384Y-84485797D01*
X117245540Y-84508930D01*
X117260347Y-84533633D01*
X117272660Y-84559668D01*
X117282363Y-84586785D01*
X117289361Y-84614722D01*
X117293587Y-84643211D01*
X117295000Y-84671977D01*
X117295000Y-85435023D01*
X117293587Y-85463789D01*
X117289361Y-85492278D01*
X117282363Y-85520215D01*
X117272660Y-85547332D01*
X117260347Y-85573367D01*
X117245540Y-85598070D01*
X117228384Y-85621203D01*
X117209043Y-85642543D01*
X117187703Y-85661884D01*
X117164570Y-85679040D01*
X117139867Y-85693847D01*
X117113832Y-85706160D01*
X117086715Y-85715863D01*
X117058778Y-85722861D01*
X117030289Y-85727087D01*
X117001523Y-85728500D01*
X115988477Y-85728500D01*
X115959711Y-85727087D01*
X115931222Y-85722861D01*
X115903285Y-85715863D01*
X115876168Y-85706160D01*
X115850133Y-85693847D01*
X115825430Y-85679040D01*
X115802297Y-85661884D01*
X115780957Y-85642543D01*
X115761616Y-85621203D01*
X115744460Y-85598070D01*
X115729653Y-85573367D01*
X115717340Y-85547332D01*
X115707637Y-85520215D01*
X115700639Y-85492278D01*
X115696413Y-85463789D01*
X115695000Y-85435023D01*
X115695000Y-84671977D01*
X115696413Y-84643211D01*
X115700639Y-84614722D01*
X115707637Y-84586785D01*
X115717340Y-84559668D01*
X115729653Y-84533633D01*
X115744460Y-84508930D01*
X115761616Y-84485797D01*
X115780957Y-84464457D01*
X115802297Y-84445116D01*
X115825430Y-84427960D01*
X115850133Y-84413153D01*
X115876168Y-84400840D01*
X115903285Y-84391137D01*
X115931222Y-84384139D01*
X115959711Y-84379913D01*
X115988477Y-84378500D01*
X117001523Y-84378500D01*
X117030289Y-84379913D01*
X117030289Y-84379913D01*
G37*
D22*
X116495000Y-85053500D03*
D19*
G36*
X117030289Y-82329913D02*
G01*
X117058778Y-82334139D01*
X117086715Y-82341137D01*
X117113832Y-82350840D01*
X117139867Y-82363153D01*
X117164570Y-82377960D01*
X117187703Y-82395116D01*
X117209043Y-82414457D01*
X117228384Y-82435797D01*
X117245540Y-82458930D01*
X117260347Y-82483633D01*
X117272660Y-82509668D01*
X117282363Y-82536785D01*
X117289361Y-82564722D01*
X117293587Y-82593211D01*
X117295000Y-82621977D01*
X117295000Y-83385023D01*
X117293587Y-83413789D01*
X117289361Y-83442278D01*
X117282363Y-83470215D01*
X117272660Y-83497332D01*
X117260347Y-83523367D01*
X117245540Y-83548070D01*
X117228384Y-83571203D01*
X117209043Y-83592543D01*
X117187703Y-83611884D01*
X117164570Y-83629040D01*
X117139867Y-83643847D01*
X117113832Y-83656160D01*
X117086715Y-83665863D01*
X117058778Y-83672861D01*
X117030289Y-83677087D01*
X117001523Y-83678500D01*
X115988477Y-83678500D01*
X115959711Y-83677087D01*
X115931222Y-83672861D01*
X115903285Y-83665863D01*
X115876168Y-83656160D01*
X115850133Y-83643847D01*
X115825430Y-83629040D01*
X115802297Y-83611884D01*
X115780957Y-83592543D01*
X115761616Y-83571203D01*
X115744460Y-83548070D01*
X115729653Y-83523367D01*
X115717340Y-83497332D01*
X115707637Y-83470215D01*
X115700639Y-83442278D01*
X115696413Y-83413789D01*
X115695000Y-83385023D01*
X115695000Y-82621977D01*
X115696413Y-82593211D01*
X115700639Y-82564722D01*
X115707637Y-82536785D01*
X115717340Y-82509668D01*
X115729653Y-82483633D01*
X115744460Y-82458930D01*
X115761616Y-82435797D01*
X115780957Y-82414457D01*
X115802297Y-82395116D01*
X115825430Y-82377960D01*
X115850133Y-82363153D01*
X115876168Y-82350840D01*
X115903285Y-82341137D01*
X115931222Y-82334139D01*
X115959711Y-82329913D01*
X115988477Y-82328500D01*
X117001523Y-82328500D01*
X117030289Y-82329913D01*
X117030289Y-82329913D01*
G37*
D22*
X116495000Y-83003500D03*
D19*
G36*
X111126789Y-82204913D02*
G01*
X111155278Y-82209139D01*
X111183215Y-82216137D01*
X111210332Y-82225840D01*
X111236367Y-82238153D01*
X111261070Y-82252960D01*
X111284203Y-82270116D01*
X111305543Y-82289457D01*
X111324884Y-82310797D01*
X111342040Y-82333930D01*
X111356847Y-82358633D01*
X111369160Y-82384668D01*
X111378863Y-82411785D01*
X111385861Y-82439722D01*
X111390087Y-82468211D01*
X111391500Y-82496977D01*
X111391500Y-83510023D01*
X111390087Y-83538789D01*
X111385861Y-83567278D01*
X111378863Y-83595215D01*
X111369160Y-83622332D01*
X111356847Y-83648367D01*
X111342040Y-83673070D01*
X111324884Y-83696203D01*
X111305543Y-83717543D01*
X111284203Y-83736884D01*
X111261070Y-83754040D01*
X111236367Y-83768847D01*
X111210332Y-83781160D01*
X111183215Y-83790863D01*
X111155278Y-83797861D01*
X111126789Y-83802087D01*
X111098023Y-83803500D01*
X110334977Y-83803500D01*
X110306211Y-83802087D01*
X110277722Y-83797861D01*
X110249785Y-83790863D01*
X110222668Y-83781160D01*
X110196633Y-83768847D01*
X110171930Y-83754040D01*
X110148797Y-83736884D01*
X110127457Y-83717543D01*
X110108116Y-83696203D01*
X110090960Y-83673070D01*
X110076153Y-83648367D01*
X110063840Y-83622332D01*
X110054137Y-83595215D01*
X110047139Y-83567278D01*
X110042913Y-83538789D01*
X110041500Y-83510023D01*
X110041500Y-82496977D01*
X110042913Y-82468211D01*
X110047139Y-82439722D01*
X110054137Y-82411785D01*
X110063840Y-82384668D01*
X110076153Y-82358633D01*
X110090960Y-82333930D01*
X110108116Y-82310797D01*
X110127457Y-82289457D01*
X110148797Y-82270116D01*
X110171930Y-82252960D01*
X110196633Y-82238153D01*
X110222668Y-82225840D01*
X110249785Y-82216137D01*
X110277722Y-82209139D01*
X110306211Y-82204913D01*
X110334977Y-82203500D01*
X111098023Y-82203500D01*
X111126789Y-82204913D01*
X111126789Y-82204913D01*
G37*
D22*
X110716500Y-83003500D03*
D19*
G36*
X109076789Y-82204913D02*
G01*
X109105278Y-82209139D01*
X109133215Y-82216137D01*
X109160332Y-82225840D01*
X109186367Y-82238153D01*
X109211070Y-82252960D01*
X109234203Y-82270116D01*
X109255543Y-82289457D01*
X109274884Y-82310797D01*
X109292040Y-82333930D01*
X109306847Y-82358633D01*
X109319160Y-82384668D01*
X109328863Y-82411785D01*
X109335861Y-82439722D01*
X109340087Y-82468211D01*
X109341500Y-82496977D01*
X109341500Y-83510023D01*
X109340087Y-83538789D01*
X109335861Y-83567278D01*
X109328863Y-83595215D01*
X109319160Y-83622332D01*
X109306847Y-83648367D01*
X109292040Y-83673070D01*
X109274884Y-83696203D01*
X109255543Y-83717543D01*
X109234203Y-83736884D01*
X109211070Y-83754040D01*
X109186367Y-83768847D01*
X109160332Y-83781160D01*
X109133215Y-83790863D01*
X109105278Y-83797861D01*
X109076789Y-83802087D01*
X109048023Y-83803500D01*
X108284977Y-83803500D01*
X108256211Y-83802087D01*
X108227722Y-83797861D01*
X108199785Y-83790863D01*
X108172668Y-83781160D01*
X108146633Y-83768847D01*
X108121930Y-83754040D01*
X108098797Y-83736884D01*
X108077457Y-83717543D01*
X108058116Y-83696203D01*
X108040960Y-83673070D01*
X108026153Y-83648367D01*
X108013840Y-83622332D01*
X108004137Y-83595215D01*
X107997139Y-83567278D01*
X107992913Y-83538789D01*
X107991500Y-83510023D01*
X107991500Y-82496977D01*
X107992913Y-82468211D01*
X107997139Y-82439722D01*
X108004137Y-82411785D01*
X108013840Y-82384668D01*
X108026153Y-82358633D01*
X108040960Y-82333930D01*
X108058116Y-82310797D01*
X108077457Y-82289457D01*
X108098797Y-82270116D01*
X108121930Y-82252960D01*
X108146633Y-82238153D01*
X108172668Y-82225840D01*
X108199785Y-82216137D01*
X108227722Y-82209139D01*
X108256211Y-82204913D01*
X108284977Y-82203500D01*
X109048023Y-82203500D01*
X109076789Y-82204913D01*
X109076789Y-82204913D01*
G37*
D22*
X108666500Y-83003500D03*
D19*
G36*
X101599789Y-84379913D02*
G01*
X101628278Y-84384139D01*
X101656215Y-84391137D01*
X101683332Y-84400840D01*
X101709367Y-84413153D01*
X101734070Y-84427960D01*
X101757203Y-84445116D01*
X101778543Y-84464457D01*
X101797884Y-84485797D01*
X101815040Y-84508930D01*
X101829847Y-84533633D01*
X101842160Y-84559668D01*
X101851863Y-84586785D01*
X101858861Y-84614722D01*
X101863087Y-84643211D01*
X101864500Y-84671977D01*
X101864500Y-85435023D01*
X101863087Y-85463789D01*
X101858861Y-85492278D01*
X101851863Y-85520215D01*
X101842160Y-85547332D01*
X101829847Y-85573367D01*
X101815040Y-85598070D01*
X101797884Y-85621203D01*
X101778543Y-85642543D01*
X101757203Y-85661884D01*
X101734070Y-85679040D01*
X101709367Y-85693847D01*
X101683332Y-85706160D01*
X101656215Y-85715863D01*
X101628278Y-85722861D01*
X101599789Y-85727087D01*
X101571023Y-85728500D01*
X100557977Y-85728500D01*
X100529211Y-85727087D01*
X100500722Y-85722861D01*
X100472785Y-85715863D01*
X100445668Y-85706160D01*
X100419633Y-85693847D01*
X100394930Y-85679040D01*
X100371797Y-85661884D01*
X100350457Y-85642543D01*
X100331116Y-85621203D01*
X100313960Y-85598070D01*
X100299153Y-85573367D01*
X100286840Y-85547332D01*
X100277137Y-85520215D01*
X100270139Y-85492278D01*
X100265913Y-85463789D01*
X100264500Y-85435023D01*
X100264500Y-84671977D01*
X100265913Y-84643211D01*
X100270139Y-84614722D01*
X100277137Y-84586785D01*
X100286840Y-84559668D01*
X100299153Y-84533633D01*
X100313960Y-84508930D01*
X100331116Y-84485797D01*
X100350457Y-84464457D01*
X100371797Y-84445116D01*
X100394930Y-84427960D01*
X100419633Y-84413153D01*
X100445668Y-84400840D01*
X100472785Y-84391137D01*
X100500722Y-84384139D01*
X100529211Y-84379913D01*
X100557977Y-84378500D01*
X101571023Y-84378500D01*
X101599789Y-84379913D01*
X101599789Y-84379913D01*
G37*
D22*
X101064500Y-85053500D03*
D19*
G36*
X101599789Y-82329913D02*
G01*
X101628278Y-82334139D01*
X101656215Y-82341137D01*
X101683332Y-82350840D01*
X101709367Y-82363153D01*
X101734070Y-82377960D01*
X101757203Y-82395116D01*
X101778543Y-82414457D01*
X101797884Y-82435797D01*
X101815040Y-82458930D01*
X101829847Y-82483633D01*
X101842160Y-82509668D01*
X101851863Y-82536785D01*
X101858861Y-82564722D01*
X101863087Y-82593211D01*
X101864500Y-82621977D01*
X101864500Y-83385023D01*
X101863087Y-83413789D01*
X101858861Y-83442278D01*
X101851863Y-83470215D01*
X101842160Y-83497332D01*
X101829847Y-83523367D01*
X101815040Y-83548070D01*
X101797884Y-83571203D01*
X101778543Y-83592543D01*
X101757203Y-83611884D01*
X101734070Y-83629040D01*
X101709367Y-83643847D01*
X101683332Y-83656160D01*
X101656215Y-83665863D01*
X101628278Y-83672861D01*
X101599789Y-83677087D01*
X101571023Y-83678500D01*
X100557977Y-83678500D01*
X100529211Y-83677087D01*
X100500722Y-83672861D01*
X100472785Y-83665863D01*
X100445668Y-83656160D01*
X100419633Y-83643847D01*
X100394930Y-83629040D01*
X100371797Y-83611884D01*
X100350457Y-83592543D01*
X100331116Y-83571203D01*
X100313960Y-83548070D01*
X100299153Y-83523367D01*
X100286840Y-83497332D01*
X100277137Y-83470215D01*
X100270139Y-83442278D01*
X100265913Y-83413789D01*
X100264500Y-83385023D01*
X100264500Y-82621977D01*
X100265913Y-82593211D01*
X100270139Y-82564722D01*
X100277137Y-82536785D01*
X100286840Y-82509668D01*
X100299153Y-82483633D01*
X100313960Y-82458930D01*
X100331116Y-82435797D01*
X100350457Y-82414457D01*
X100371797Y-82395116D01*
X100394930Y-82377960D01*
X100419633Y-82363153D01*
X100445668Y-82350840D01*
X100472785Y-82341137D01*
X100500722Y-82334139D01*
X100529211Y-82329913D01*
X100557977Y-82328500D01*
X101571023Y-82328500D01*
X101599789Y-82329913D01*
X101599789Y-82329913D01*
G37*
D22*
X101064500Y-83003500D03*
D19*
G36*
X108877289Y-89823413D02*
G01*
X108905778Y-89827639D01*
X108933715Y-89834637D01*
X108960832Y-89844340D01*
X108986867Y-89856653D01*
X109011570Y-89871460D01*
X109034703Y-89888616D01*
X109056043Y-89907957D01*
X109075384Y-89929297D01*
X109092540Y-89952430D01*
X109107347Y-89977133D01*
X109119660Y-90003168D01*
X109129363Y-90030285D01*
X109136361Y-90058222D01*
X109140587Y-90086711D01*
X109142000Y-90115477D01*
X109142000Y-90878523D01*
X109140587Y-90907289D01*
X109136361Y-90935778D01*
X109129363Y-90963715D01*
X109119660Y-90990832D01*
X109107347Y-91016867D01*
X109092540Y-91041570D01*
X109075384Y-91064703D01*
X109056043Y-91086043D01*
X109034703Y-91105384D01*
X109011570Y-91122540D01*
X108986867Y-91137347D01*
X108960832Y-91149660D01*
X108933715Y-91159363D01*
X108905778Y-91166361D01*
X108877289Y-91170587D01*
X108848523Y-91172000D01*
X107835477Y-91172000D01*
X107806711Y-91170587D01*
X107778222Y-91166361D01*
X107750285Y-91159363D01*
X107723168Y-91149660D01*
X107697133Y-91137347D01*
X107672430Y-91122540D01*
X107649297Y-91105384D01*
X107627957Y-91086043D01*
X107608616Y-91064703D01*
X107591460Y-91041570D01*
X107576653Y-91016867D01*
X107564340Y-90990832D01*
X107554637Y-90963715D01*
X107547639Y-90935778D01*
X107543413Y-90907289D01*
X107542000Y-90878523D01*
X107542000Y-90115477D01*
X107543413Y-90086711D01*
X107547639Y-90058222D01*
X107554637Y-90030285D01*
X107564340Y-90003168D01*
X107576653Y-89977133D01*
X107591460Y-89952430D01*
X107608616Y-89929297D01*
X107627957Y-89907957D01*
X107649297Y-89888616D01*
X107672430Y-89871460D01*
X107697133Y-89856653D01*
X107723168Y-89844340D01*
X107750285Y-89834637D01*
X107778222Y-89827639D01*
X107806711Y-89823413D01*
X107835477Y-89822000D01*
X108848523Y-89822000D01*
X108877289Y-89823413D01*
X108877289Y-89823413D01*
G37*
D22*
X108342000Y-90497000D03*
D19*
G36*
X108877289Y-87773413D02*
G01*
X108905778Y-87777639D01*
X108933715Y-87784637D01*
X108960832Y-87794340D01*
X108986867Y-87806653D01*
X109011570Y-87821460D01*
X109034703Y-87838616D01*
X109056043Y-87857957D01*
X109075384Y-87879297D01*
X109092540Y-87902430D01*
X109107347Y-87927133D01*
X109119660Y-87953168D01*
X109129363Y-87980285D01*
X109136361Y-88008222D01*
X109140587Y-88036711D01*
X109142000Y-88065477D01*
X109142000Y-88828523D01*
X109140587Y-88857289D01*
X109136361Y-88885778D01*
X109129363Y-88913715D01*
X109119660Y-88940832D01*
X109107347Y-88966867D01*
X109092540Y-88991570D01*
X109075384Y-89014703D01*
X109056043Y-89036043D01*
X109034703Y-89055384D01*
X109011570Y-89072540D01*
X108986867Y-89087347D01*
X108960832Y-89099660D01*
X108933715Y-89109363D01*
X108905778Y-89116361D01*
X108877289Y-89120587D01*
X108848523Y-89122000D01*
X107835477Y-89122000D01*
X107806711Y-89120587D01*
X107778222Y-89116361D01*
X107750285Y-89109363D01*
X107723168Y-89099660D01*
X107697133Y-89087347D01*
X107672430Y-89072540D01*
X107649297Y-89055384D01*
X107627957Y-89036043D01*
X107608616Y-89014703D01*
X107591460Y-88991570D01*
X107576653Y-88966867D01*
X107564340Y-88940832D01*
X107554637Y-88913715D01*
X107547639Y-88885778D01*
X107543413Y-88857289D01*
X107542000Y-88828523D01*
X107542000Y-88065477D01*
X107543413Y-88036711D01*
X107547639Y-88008222D01*
X107554637Y-87980285D01*
X107564340Y-87953168D01*
X107576653Y-87927133D01*
X107591460Y-87902430D01*
X107608616Y-87879297D01*
X107627957Y-87857957D01*
X107649297Y-87838616D01*
X107672430Y-87821460D01*
X107697133Y-87806653D01*
X107723168Y-87794340D01*
X107750285Y-87784637D01*
X107778222Y-87777639D01*
X107806711Y-87773413D01*
X107835477Y-87772000D01*
X108848523Y-87772000D01*
X108877289Y-87773413D01*
X108877289Y-87773413D01*
G37*
D22*
X108342000Y-88447000D03*
D19*
G36*
X117017289Y-77187413D02*
G01*
X117045778Y-77191639D01*
X117073715Y-77198637D01*
X117100832Y-77208340D01*
X117126867Y-77220653D01*
X117151570Y-77235460D01*
X117174703Y-77252616D01*
X117196043Y-77271957D01*
X117215384Y-77293297D01*
X117232540Y-77316430D01*
X117247347Y-77341133D01*
X117259660Y-77367168D01*
X117269363Y-77394285D01*
X117276361Y-77422222D01*
X117280587Y-77450711D01*
X117282000Y-77479477D01*
X117282000Y-78242523D01*
X117280587Y-78271289D01*
X117276361Y-78299778D01*
X117269363Y-78327715D01*
X117259660Y-78354832D01*
X117247347Y-78380867D01*
X117232540Y-78405570D01*
X117215384Y-78428703D01*
X117196043Y-78450043D01*
X117174703Y-78469384D01*
X117151570Y-78486540D01*
X117126867Y-78501347D01*
X117100832Y-78513660D01*
X117073715Y-78523363D01*
X117045778Y-78530361D01*
X117017289Y-78534587D01*
X116988523Y-78536000D01*
X115975477Y-78536000D01*
X115946711Y-78534587D01*
X115918222Y-78530361D01*
X115890285Y-78523363D01*
X115863168Y-78513660D01*
X115837133Y-78501347D01*
X115812430Y-78486540D01*
X115789297Y-78469384D01*
X115767957Y-78450043D01*
X115748616Y-78428703D01*
X115731460Y-78405570D01*
X115716653Y-78380867D01*
X115704340Y-78354832D01*
X115694637Y-78327715D01*
X115687639Y-78299778D01*
X115683413Y-78271289D01*
X115682000Y-78242523D01*
X115682000Y-77479477D01*
X115683413Y-77450711D01*
X115687639Y-77422222D01*
X115694637Y-77394285D01*
X115704340Y-77367168D01*
X115716653Y-77341133D01*
X115731460Y-77316430D01*
X115748616Y-77293297D01*
X115767957Y-77271957D01*
X115789297Y-77252616D01*
X115812430Y-77235460D01*
X115837133Y-77220653D01*
X115863168Y-77208340D01*
X115890285Y-77198637D01*
X115918222Y-77191639D01*
X115946711Y-77187413D01*
X115975477Y-77186000D01*
X116988523Y-77186000D01*
X117017289Y-77187413D01*
X117017289Y-77187413D01*
G37*
D22*
X116482000Y-77861000D03*
D19*
G36*
X117017289Y-75137413D02*
G01*
X117045778Y-75141639D01*
X117073715Y-75148637D01*
X117100832Y-75158340D01*
X117126867Y-75170653D01*
X117151570Y-75185460D01*
X117174703Y-75202616D01*
X117196043Y-75221957D01*
X117215384Y-75243297D01*
X117232540Y-75266430D01*
X117247347Y-75291133D01*
X117259660Y-75317168D01*
X117269363Y-75344285D01*
X117276361Y-75372222D01*
X117280587Y-75400711D01*
X117282000Y-75429477D01*
X117282000Y-76192523D01*
X117280587Y-76221289D01*
X117276361Y-76249778D01*
X117269363Y-76277715D01*
X117259660Y-76304832D01*
X117247347Y-76330867D01*
X117232540Y-76355570D01*
X117215384Y-76378703D01*
X117196043Y-76400043D01*
X117174703Y-76419384D01*
X117151570Y-76436540D01*
X117126867Y-76451347D01*
X117100832Y-76463660D01*
X117073715Y-76473363D01*
X117045778Y-76480361D01*
X117017289Y-76484587D01*
X116988523Y-76486000D01*
X115975477Y-76486000D01*
X115946711Y-76484587D01*
X115918222Y-76480361D01*
X115890285Y-76473363D01*
X115863168Y-76463660D01*
X115837133Y-76451347D01*
X115812430Y-76436540D01*
X115789297Y-76419384D01*
X115767957Y-76400043D01*
X115748616Y-76378703D01*
X115731460Y-76355570D01*
X115716653Y-76330867D01*
X115704340Y-76304832D01*
X115694637Y-76277715D01*
X115687639Y-76249778D01*
X115683413Y-76221289D01*
X115682000Y-76192523D01*
X115682000Y-75429477D01*
X115683413Y-75400711D01*
X115687639Y-75372222D01*
X115694637Y-75344285D01*
X115704340Y-75317168D01*
X115716653Y-75291133D01*
X115731460Y-75266430D01*
X115748616Y-75243297D01*
X115767957Y-75221957D01*
X115789297Y-75202616D01*
X115812430Y-75185460D01*
X115837133Y-75170653D01*
X115863168Y-75158340D01*
X115890285Y-75148637D01*
X115918222Y-75141639D01*
X115946711Y-75137413D01*
X115975477Y-75136000D01*
X116988523Y-75136000D01*
X117017289Y-75137413D01*
X117017289Y-75137413D01*
G37*
D22*
X116482000Y-75811000D03*
D19*
G36*
X104579289Y-87648413D02*
G01*
X104607778Y-87652639D01*
X104635715Y-87659637D01*
X104662832Y-87669340D01*
X104688867Y-87681653D01*
X104713570Y-87696460D01*
X104736703Y-87713616D01*
X104758043Y-87732957D01*
X104777384Y-87754297D01*
X104794540Y-87777430D01*
X104809347Y-87802133D01*
X104821660Y-87828168D01*
X104831363Y-87855285D01*
X104838361Y-87883222D01*
X104842587Y-87911711D01*
X104844000Y-87940477D01*
X104844000Y-88953523D01*
X104842587Y-88982289D01*
X104838361Y-89010778D01*
X104831363Y-89038715D01*
X104821660Y-89065832D01*
X104809347Y-89091867D01*
X104794540Y-89116570D01*
X104777384Y-89139703D01*
X104758043Y-89161043D01*
X104736703Y-89180384D01*
X104713570Y-89197540D01*
X104688867Y-89212347D01*
X104662832Y-89224660D01*
X104635715Y-89234363D01*
X104607778Y-89241361D01*
X104579289Y-89245587D01*
X104550523Y-89247000D01*
X103787477Y-89247000D01*
X103758711Y-89245587D01*
X103730222Y-89241361D01*
X103702285Y-89234363D01*
X103675168Y-89224660D01*
X103649133Y-89212347D01*
X103624430Y-89197540D01*
X103601297Y-89180384D01*
X103579957Y-89161043D01*
X103560616Y-89139703D01*
X103543460Y-89116570D01*
X103528653Y-89091867D01*
X103516340Y-89065832D01*
X103506637Y-89038715D01*
X103499639Y-89010778D01*
X103495413Y-88982289D01*
X103494000Y-88953523D01*
X103494000Y-87940477D01*
X103495413Y-87911711D01*
X103499639Y-87883222D01*
X103506637Y-87855285D01*
X103516340Y-87828168D01*
X103528653Y-87802133D01*
X103543460Y-87777430D01*
X103560616Y-87754297D01*
X103579957Y-87732957D01*
X103601297Y-87713616D01*
X103624430Y-87696460D01*
X103649133Y-87681653D01*
X103675168Y-87669340D01*
X103702285Y-87659637D01*
X103730222Y-87652639D01*
X103758711Y-87648413D01*
X103787477Y-87647000D01*
X104550523Y-87647000D01*
X104579289Y-87648413D01*
X104579289Y-87648413D01*
G37*
D22*
X104169000Y-88447000D03*
D19*
G36*
X102529289Y-87648413D02*
G01*
X102557778Y-87652639D01*
X102585715Y-87659637D01*
X102612832Y-87669340D01*
X102638867Y-87681653D01*
X102663570Y-87696460D01*
X102686703Y-87713616D01*
X102708043Y-87732957D01*
X102727384Y-87754297D01*
X102744540Y-87777430D01*
X102759347Y-87802133D01*
X102771660Y-87828168D01*
X102781363Y-87855285D01*
X102788361Y-87883222D01*
X102792587Y-87911711D01*
X102794000Y-87940477D01*
X102794000Y-88953523D01*
X102792587Y-88982289D01*
X102788361Y-89010778D01*
X102781363Y-89038715D01*
X102771660Y-89065832D01*
X102759347Y-89091867D01*
X102744540Y-89116570D01*
X102727384Y-89139703D01*
X102708043Y-89161043D01*
X102686703Y-89180384D01*
X102663570Y-89197540D01*
X102638867Y-89212347D01*
X102612832Y-89224660D01*
X102585715Y-89234363D01*
X102557778Y-89241361D01*
X102529289Y-89245587D01*
X102500523Y-89247000D01*
X101737477Y-89247000D01*
X101708711Y-89245587D01*
X101680222Y-89241361D01*
X101652285Y-89234363D01*
X101625168Y-89224660D01*
X101599133Y-89212347D01*
X101574430Y-89197540D01*
X101551297Y-89180384D01*
X101529957Y-89161043D01*
X101510616Y-89139703D01*
X101493460Y-89116570D01*
X101478653Y-89091867D01*
X101466340Y-89065832D01*
X101456637Y-89038715D01*
X101449639Y-89010778D01*
X101445413Y-88982289D01*
X101444000Y-88953523D01*
X101444000Y-87940477D01*
X101445413Y-87911711D01*
X101449639Y-87883222D01*
X101456637Y-87855285D01*
X101466340Y-87828168D01*
X101478653Y-87802133D01*
X101493460Y-87777430D01*
X101510616Y-87754297D01*
X101529957Y-87732957D01*
X101551297Y-87713616D01*
X101574430Y-87696460D01*
X101599133Y-87681653D01*
X101625168Y-87669340D01*
X101652285Y-87659637D01*
X101680222Y-87652639D01*
X101708711Y-87648413D01*
X101737477Y-87647000D01*
X102500523Y-87647000D01*
X102529289Y-87648413D01*
X102529289Y-87648413D01*
G37*
D22*
X102119000Y-88447000D03*
D19*
G36*
X110941289Y-74966913D02*
G01*
X110969778Y-74971139D01*
X110997715Y-74978137D01*
X111024832Y-74987840D01*
X111050867Y-75000153D01*
X111075570Y-75014960D01*
X111098703Y-75032116D01*
X111120043Y-75051457D01*
X111139384Y-75072797D01*
X111156540Y-75095930D01*
X111171347Y-75120633D01*
X111183660Y-75146668D01*
X111193363Y-75173785D01*
X111200361Y-75201722D01*
X111204587Y-75230211D01*
X111206000Y-75258977D01*
X111206000Y-76272023D01*
X111204587Y-76300789D01*
X111200361Y-76329278D01*
X111193363Y-76357215D01*
X111183660Y-76384332D01*
X111171347Y-76410367D01*
X111156540Y-76435070D01*
X111139384Y-76458203D01*
X111120043Y-76479543D01*
X111098703Y-76498884D01*
X111075570Y-76516040D01*
X111050867Y-76530847D01*
X111024832Y-76543160D01*
X110997715Y-76552863D01*
X110969778Y-76559861D01*
X110941289Y-76564087D01*
X110912523Y-76565500D01*
X110149477Y-76565500D01*
X110120711Y-76564087D01*
X110092222Y-76559861D01*
X110064285Y-76552863D01*
X110037168Y-76543160D01*
X110011133Y-76530847D01*
X109986430Y-76516040D01*
X109963297Y-76498884D01*
X109941957Y-76479543D01*
X109922616Y-76458203D01*
X109905460Y-76435070D01*
X109890653Y-76410367D01*
X109878340Y-76384332D01*
X109868637Y-76357215D01*
X109861639Y-76329278D01*
X109857413Y-76300789D01*
X109856000Y-76272023D01*
X109856000Y-75258977D01*
X109857413Y-75230211D01*
X109861639Y-75201722D01*
X109868637Y-75173785D01*
X109878340Y-75146668D01*
X109890653Y-75120633D01*
X109905460Y-75095930D01*
X109922616Y-75072797D01*
X109941957Y-75051457D01*
X109963297Y-75032116D01*
X109986430Y-75014960D01*
X110011133Y-75000153D01*
X110037168Y-74987840D01*
X110064285Y-74978137D01*
X110092222Y-74971139D01*
X110120711Y-74966913D01*
X110149477Y-74965500D01*
X110912523Y-74965500D01*
X110941289Y-74966913D01*
X110941289Y-74966913D01*
G37*
D22*
X110531000Y-75765500D03*
D19*
G36*
X108891289Y-74966913D02*
G01*
X108919778Y-74971139D01*
X108947715Y-74978137D01*
X108974832Y-74987840D01*
X109000867Y-75000153D01*
X109025570Y-75014960D01*
X109048703Y-75032116D01*
X109070043Y-75051457D01*
X109089384Y-75072797D01*
X109106540Y-75095930D01*
X109121347Y-75120633D01*
X109133660Y-75146668D01*
X109143363Y-75173785D01*
X109150361Y-75201722D01*
X109154587Y-75230211D01*
X109156000Y-75258977D01*
X109156000Y-76272023D01*
X109154587Y-76300789D01*
X109150361Y-76329278D01*
X109143363Y-76357215D01*
X109133660Y-76384332D01*
X109121347Y-76410367D01*
X109106540Y-76435070D01*
X109089384Y-76458203D01*
X109070043Y-76479543D01*
X109048703Y-76498884D01*
X109025570Y-76516040D01*
X109000867Y-76530847D01*
X108974832Y-76543160D01*
X108947715Y-76552863D01*
X108919778Y-76559861D01*
X108891289Y-76564087D01*
X108862523Y-76565500D01*
X108099477Y-76565500D01*
X108070711Y-76564087D01*
X108042222Y-76559861D01*
X108014285Y-76552863D01*
X107987168Y-76543160D01*
X107961133Y-76530847D01*
X107936430Y-76516040D01*
X107913297Y-76498884D01*
X107891957Y-76479543D01*
X107872616Y-76458203D01*
X107855460Y-76435070D01*
X107840653Y-76410367D01*
X107828340Y-76384332D01*
X107818637Y-76357215D01*
X107811639Y-76329278D01*
X107807413Y-76300789D01*
X107806000Y-76272023D01*
X107806000Y-75258977D01*
X107807413Y-75230211D01*
X107811639Y-75201722D01*
X107818637Y-75173785D01*
X107828340Y-75146668D01*
X107840653Y-75120633D01*
X107855460Y-75095930D01*
X107872616Y-75072797D01*
X107891957Y-75051457D01*
X107913297Y-75032116D01*
X107936430Y-75014960D01*
X107961133Y-75000153D01*
X107987168Y-74987840D01*
X108014285Y-74978137D01*
X108042222Y-74971139D01*
X108070711Y-74966913D01*
X108099477Y-74965500D01*
X108862523Y-74965500D01*
X108891289Y-74966913D01*
X108891289Y-74966913D01*
G37*
D22*
X108481000Y-75765500D03*
D19*
G36*
X96558289Y-89805413D02*
G01*
X96586778Y-89809639D01*
X96614715Y-89816637D01*
X96641832Y-89826340D01*
X96667867Y-89838653D01*
X96692570Y-89853460D01*
X96715703Y-89870616D01*
X96737043Y-89889957D01*
X96756384Y-89911297D01*
X96773540Y-89934430D01*
X96788347Y-89959133D01*
X96800660Y-89985168D01*
X96810363Y-90012285D01*
X96817361Y-90040222D01*
X96821587Y-90068711D01*
X96823000Y-90097477D01*
X96823000Y-90860523D01*
X96821587Y-90889289D01*
X96817361Y-90917778D01*
X96810363Y-90945715D01*
X96800660Y-90972832D01*
X96788347Y-90998867D01*
X96773540Y-91023570D01*
X96756384Y-91046703D01*
X96737043Y-91068043D01*
X96715703Y-91087384D01*
X96692570Y-91104540D01*
X96667867Y-91119347D01*
X96641832Y-91131660D01*
X96614715Y-91141363D01*
X96586778Y-91148361D01*
X96558289Y-91152587D01*
X96529523Y-91154000D01*
X95516477Y-91154000D01*
X95487711Y-91152587D01*
X95459222Y-91148361D01*
X95431285Y-91141363D01*
X95404168Y-91131660D01*
X95378133Y-91119347D01*
X95353430Y-91104540D01*
X95330297Y-91087384D01*
X95308957Y-91068043D01*
X95289616Y-91046703D01*
X95272460Y-91023570D01*
X95257653Y-90998867D01*
X95245340Y-90972832D01*
X95235637Y-90945715D01*
X95228639Y-90917778D01*
X95224413Y-90889289D01*
X95223000Y-90860523D01*
X95223000Y-90097477D01*
X95224413Y-90068711D01*
X95228639Y-90040222D01*
X95235637Y-90012285D01*
X95245340Y-89985168D01*
X95257653Y-89959133D01*
X95272460Y-89934430D01*
X95289616Y-89911297D01*
X95308957Y-89889957D01*
X95330297Y-89870616D01*
X95353430Y-89853460D01*
X95378133Y-89838653D01*
X95404168Y-89826340D01*
X95431285Y-89816637D01*
X95459222Y-89809639D01*
X95487711Y-89805413D01*
X95516477Y-89804000D01*
X96529523Y-89804000D01*
X96558289Y-89805413D01*
X96558289Y-89805413D01*
G37*
D22*
X96023000Y-90479000D03*
D19*
G36*
X96558289Y-87755413D02*
G01*
X96586778Y-87759639D01*
X96614715Y-87766637D01*
X96641832Y-87776340D01*
X96667867Y-87788653D01*
X96692570Y-87803460D01*
X96715703Y-87820616D01*
X96737043Y-87839957D01*
X96756384Y-87861297D01*
X96773540Y-87884430D01*
X96788347Y-87909133D01*
X96800660Y-87935168D01*
X96810363Y-87962285D01*
X96817361Y-87990222D01*
X96821587Y-88018711D01*
X96823000Y-88047477D01*
X96823000Y-88810523D01*
X96821587Y-88839289D01*
X96817361Y-88867778D01*
X96810363Y-88895715D01*
X96800660Y-88922832D01*
X96788347Y-88948867D01*
X96773540Y-88973570D01*
X96756384Y-88996703D01*
X96737043Y-89018043D01*
X96715703Y-89037384D01*
X96692570Y-89054540D01*
X96667867Y-89069347D01*
X96641832Y-89081660D01*
X96614715Y-89091363D01*
X96586778Y-89098361D01*
X96558289Y-89102587D01*
X96529523Y-89104000D01*
X95516477Y-89104000D01*
X95487711Y-89102587D01*
X95459222Y-89098361D01*
X95431285Y-89091363D01*
X95404168Y-89081660D01*
X95378133Y-89069347D01*
X95353430Y-89054540D01*
X95330297Y-89037384D01*
X95308957Y-89018043D01*
X95289616Y-88996703D01*
X95272460Y-88973570D01*
X95257653Y-88948867D01*
X95245340Y-88922832D01*
X95235637Y-88895715D01*
X95228639Y-88867778D01*
X95224413Y-88839289D01*
X95223000Y-88810523D01*
X95223000Y-88047477D01*
X95224413Y-88018711D01*
X95228639Y-87990222D01*
X95235637Y-87962285D01*
X95245340Y-87935168D01*
X95257653Y-87909133D01*
X95272460Y-87884430D01*
X95289616Y-87861297D01*
X95308957Y-87839957D01*
X95330297Y-87820616D01*
X95353430Y-87803460D01*
X95378133Y-87788653D01*
X95404168Y-87776340D01*
X95431285Y-87766637D01*
X95459222Y-87759639D01*
X95487711Y-87755413D01*
X95516477Y-87754000D01*
X96529523Y-87754000D01*
X96558289Y-87755413D01*
X96558289Y-87755413D01*
G37*
D22*
X96023000Y-88429000D03*
D19*
G36*
X101396289Y-77060413D02*
G01*
X101424778Y-77064639D01*
X101452715Y-77071637D01*
X101479832Y-77081340D01*
X101505867Y-77093653D01*
X101530570Y-77108460D01*
X101553703Y-77125616D01*
X101575043Y-77144957D01*
X101594384Y-77166297D01*
X101611540Y-77189430D01*
X101626347Y-77214133D01*
X101638660Y-77240168D01*
X101648363Y-77267285D01*
X101655361Y-77295222D01*
X101659587Y-77323711D01*
X101661000Y-77352477D01*
X101661000Y-78115523D01*
X101659587Y-78144289D01*
X101655361Y-78172778D01*
X101648363Y-78200715D01*
X101638660Y-78227832D01*
X101626347Y-78253867D01*
X101611540Y-78278570D01*
X101594384Y-78301703D01*
X101575043Y-78323043D01*
X101553703Y-78342384D01*
X101530570Y-78359540D01*
X101505867Y-78374347D01*
X101479832Y-78386660D01*
X101452715Y-78396363D01*
X101424778Y-78403361D01*
X101396289Y-78407587D01*
X101367523Y-78409000D01*
X100354477Y-78409000D01*
X100325711Y-78407587D01*
X100297222Y-78403361D01*
X100269285Y-78396363D01*
X100242168Y-78386660D01*
X100216133Y-78374347D01*
X100191430Y-78359540D01*
X100168297Y-78342384D01*
X100146957Y-78323043D01*
X100127616Y-78301703D01*
X100110460Y-78278570D01*
X100095653Y-78253867D01*
X100083340Y-78227832D01*
X100073637Y-78200715D01*
X100066639Y-78172778D01*
X100062413Y-78144289D01*
X100061000Y-78115523D01*
X100061000Y-77352477D01*
X100062413Y-77323711D01*
X100066639Y-77295222D01*
X100073637Y-77267285D01*
X100083340Y-77240168D01*
X100095653Y-77214133D01*
X100110460Y-77189430D01*
X100127616Y-77166297D01*
X100146957Y-77144957D01*
X100168297Y-77125616D01*
X100191430Y-77108460D01*
X100216133Y-77093653D01*
X100242168Y-77081340D01*
X100269285Y-77071637D01*
X100297222Y-77064639D01*
X100325711Y-77060413D01*
X100354477Y-77059000D01*
X101367523Y-77059000D01*
X101396289Y-77060413D01*
X101396289Y-77060413D01*
G37*
D22*
X100861000Y-77734000D03*
D19*
G36*
X101396289Y-75010413D02*
G01*
X101424778Y-75014639D01*
X101452715Y-75021637D01*
X101479832Y-75031340D01*
X101505867Y-75043653D01*
X101530570Y-75058460D01*
X101553703Y-75075616D01*
X101575043Y-75094957D01*
X101594384Y-75116297D01*
X101611540Y-75139430D01*
X101626347Y-75164133D01*
X101638660Y-75190168D01*
X101648363Y-75217285D01*
X101655361Y-75245222D01*
X101659587Y-75273711D01*
X101661000Y-75302477D01*
X101661000Y-76065523D01*
X101659587Y-76094289D01*
X101655361Y-76122778D01*
X101648363Y-76150715D01*
X101638660Y-76177832D01*
X101626347Y-76203867D01*
X101611540Y-76228570D01*
X101594384Y-76251703D01*
X101575043Y-76273043D01*
X101553703Y-76292384D01*
X101530570Y-76309540D01*
X101505867Y-76324347D01*
X101479832Y-76336660D01*
X101452715Y-76346363D01*
X101424778Y-76353361D01*
X101396289Y-76357587D01*
X101367523Y-76359000D01*
X100354477Y-76359000D01*
X100325711Y-76357587D01*
X100297222Y-76353361D01*
X100269285Y-76346363D01*
X100242168Y-76336660D01*
X100216133Y-76324347D01*
X100191430Y-76309540D01*
X100168297Y-76292384D01*
X100146957Y-76273043D01*
X100127616Y-76251703D01*
X100110460Y-76228570D01*
X100095653Y-76203867D01*
X100083340Y-76177832D01*
X100073637Y-76150715D01*
X100066639Y-76122778D01*
X100062413Y-76094289D01*
X100061000Y-76065523D01*
X100061000Y-75302477D01*
X100062413Y-75273711D01*
X100066639Y-75245222D01*
X100073637Y-75217285D01*
X100083340Y-75190168D01*
X100095653Y-75164133D01*
X100110460Y-75139430D01*
X100127616Y-75116297D01*
X100146957Y-75094957D01*
X100168297Y-75075616D01*
X100191430Y-75058460D01*
X100216133Y-75043653D01*
X100242168Y-75031340D01*
X100269285Y-75021637D01*
X100297222Y-75014639D01*
X100325711Y-75010413D01*
X100354477Y-75009000D01*
X101367523Y-75009000D01*
X101396289Y-75010413D01*
X101396289Y-75010413D01*
G37*
D22*
X100861000Y-75684000D03*
D11*
X128587500Y-101854000D03*
D12*
X128587500Y-99314000D03*
D11*
X108031500Y-113839000D03*
X105491500Y-113839000D03*
X102951500Y-113839000D03*
D12*
X100411500Y-113839000D03*
D19*
G36*
X129959289Y-104039913D02*
G01*
X129987778Y-104044139D01*
X130015715Y-104051137D01*
X130042832Y-104060840D01*
X130068867Y-104073153D01*
X130093570Y-104087960D01*
X130116703Y-104105116D01*
X130138043Y-104124457D01*
X130157384Y-104145797D01*
X130174540Y-104168930D01*
X130189347Y-104193633D01*
X130201660Y-104219668D01*
X130211363Y-104246785D01*
X130218361Y-104274722D01*
X130222587Y-104303211D01*
X130224000Y-104331977D01*
X130224000Y-105345023D01*
X130222587Y-105373789D01*
X130218361Y-105402278D01*
X130211363Y-105430215D01*
X130201660Y-105457332D01*
X130189347Y-105483367D01*
X130174540Y-105508070D01*
X130157384Y-105531203D01*
X130138043Y-105552543D01*
X130116703Y-105571884D01*
X130093570Y-105589040D01*
X130068867Y-105603847D01*
X130042832Y-105616160D01*
X130015715Y-105625863D01*
X129987778Y-105632861D01*
X129959289Y-105637087D01*
X129930523Y-105638500D01*
X129167477Y-105638500D01*
X129138711Y-105637087D01*
X129110222Y-105632861D01*
X129082285Y-105625863D01*
X129055168Y-105616160D01*
X129029133Y-105603847D01*
X129004430Y-105589040D01*
X128981297Y-105571884D01*
X128959957Y-105552543D01*
X128940616Y-105531203D01*
X128923460Y-105508070D01*
X128908653Y-105483367D01*
X128896340Y-105457332D01*
X128886637Y-105430215D01*
X128879639Y-105402278D01*
X128875413Y-105373789D01*
X128874000Y-105345023D01*
X128874000Y-104331977D01*
X128875413Y-104303211D01*
X128879639Y-104274722D01*
X128886637Y-104246785D01*
X128896340Y-104219668D01*
X128908653Y-104193633D01*
X128923460Y-104168930D01*
X128940616Y-104145797D01*
X128959957Y-104124457D01*
X128981297Y-104105116D01*
X129004430Y-104087960D01*
X129029133Y-104073153D01*
X129055168Y-104060840D01*
X129082285Y-104051137D01*
X129110222Y-104044139D01*
X129138711Y-104039913D01*
X129167477Y-104038500D01*
X129930523Y-104038500D01*
X129959289Y-104039913D01*
X129959289Y-104039913D01*
G37*
D22*
X129549000Y-104838500D03*
D19*
G36*
X127909289Y-104039913D02*
G01*
X127937778Y-104044139D01*
X127965715Y-104051137D01*
X127992832Y-104060840D01*
X128018867Y-104073153D01*
X128043570Y-104087960D01*
X128066703Y-104105116D01*
X128088043Y-104124457D01*
X128107384Y-104145797D01*
X128124540Y-104168930D01*
X128139347Y-104193633D01*
X128151660Y-104219668D01*
X128161363Y-104246785D01*
X128168361Y-104274722D01*
X128172587Y-104303211D01*
X128174000Y-104331977D01*
X128174000Y-105345023D01*
X128172587Y-105373789D01*
X128168361Y-105402278D01*
X128161363Y-105430215D01*
X128151660Y-105457332D01*
X128139347Y-105483367D01*
X128124540Y-105508070D01*
X128107384Y-105531203D01*
X128088043Y-105552543D01*
X128066703Y-105571884D01*
X128043570Y-105589040D01*
X128018867Y-105603847D01*
X127992832Y-105616160D01*
X127965715Y-105625863D01*
X127937778Y-105632861D01*
X127909289Y-105637087D01*
X127880523Y-105638500D01*
X127117477Y-105638500D01*
X127088711Y-105637087D01*
X127060222Y-105632861D01*
X127032285Y-105625863D01*
X127005168Y-105616160D01*
X126979133Y-105603847D01*
X126954430Y-105589040D01*
X126931297Y-105571884D01*
X126909957Y-105552543D01*
X126890616Y-105531203D01*
X126873460Y-105508070D01*
X126858653Y-105483367D01*
X126846340Y-105457332D01*
X126836637Y-105430215D01*
X126829639Y-105402278D01*
X126825413Y-105373789D01*
X126824000Y-105345023D01*
X126824000Y-104331977D01*
X126825413Y-104303211D01*
X126829639Y-104274722D01*
X126836637Y-104246785D01*
X126846340Y-104219668D01*
X126858653Y-104193633D01*
X126873460Y-104168930D01*
X126890616Y-104145797D01*
X126909957Y-104124457D01*
X126931297Y-104105116D01*
X126954430Y-104087960D01*
X126979133Y-104073153D01*
X127005168Y-104060840D01*
X127032285Y-104051137D01*
X127060222Y-104044139D01*
X127088711Y-104039913D01*
X127117477Y-104038500D01*
X127880523Y-104038500D01*
X127909289Y-104039913D01*
X127909289Y-104039913D01*
G37*
D22*
X127499000Y-104838500D03*
D19*
G36*
X89175289Y-107701413D02*
G01*
X89203778Y-107705639D01*
X89231715Y-107712637D01*
X89258832Y-107722340D01*
X89284867Y-107734653D01*
X89309570Y-107749460D01*
X89332703Y-107766616D01*
X89354043Y-107785957D01*
X89373384Y-107807297D01*
X89390540Y-107830430D01*
X89405347Y-107855133D01*
X89417660Y-107881168D01*
X89427363Y-107908285D01*
X89434361Y-107936222D01*
X89438587Y-107964711D01*
X89440000Y-107993477D01*
X89440000Y-109006523D01*
X89438587Y-109035289D01*
X89434361Y-109063778D01*
X89427363Y-109091715D01*
X89417660Y-109118832D01*
X89405347Y-109144867D01*
X89390540Y-109169570D01*
X89373384Y-109192703D01*
X89354043Y-109214043D01*
X89332703Y-109233384D01*
X89309570Y-109250540D01*
X89284867Y-109265347D01*
X89258832Y-109277660D01*
X89231715Y-109287363D01*
X89203778Y-109294361D01*
X89175289Y-109298587D01*
X89146523Y-109300000D01*
X88383477Y-109300000D01*
X88354711Y-109298587D01*
X88326222Y-109294361D01*
X88298285Y-109287363D01*
X88271168Y-109277660D01*
X88245133Y-109265347D01*
X88220430Y-109250540D01*
X88197297Y-109233384D01*
X88175957Y-109214043D01*
X88156616Y-109192703D01*
X88139460Y-109169570D01*
X88124653Y-109144867D01*
X88112340Y-109118832D01*
X88102637Y-109091715D01*
X88095639Y-109063778D01*
X88091413Y-109035289D01*
X88090000Y-109006523D01*
X88090000Y-107993477D01*
X88091413Y-107964711D01*
X88095639Y-107936222D01*
X88102637Y-107908285D01*
X88112340Y-107881168D01*
X88124653Y-107855133D01*
X88139460Y-107830430D01*
X88156616Y-107807297D01*
X88175957Y-107785957D01*
X88197297Y-107766616D01*
X88220430Y-107749460D01*
X88245133Y-107734653D01*
X88271168Y-107722340D01*
X88298285Y-107712637D01*
X88326222Y-107705639D01*
X88354711Y-107701413D01*
X88383477Y-107700000D01*
X89146523Y-107700000D01*
X89175289Y-107701413D01*
X89175289Y-107701413D01*
G37*
D22*
X88765000Y-108500000D03*
D19*
G36*
X87125289Y-107701413D02*
G01*
X87153778Y-107705639D01*
X87181715Y-107712637D01*
X87208832Y-107722340D01*
X87234867Y-107734653D01*
X87259570Y-107749460D01*
X87282703Y-107766616D01*
X87304043Y-107785957D01*
X87323384Y-107807297D01*
X87340540Y-107830430D01*
X87355347Y-107855133D01*
X87367660Y-107881168D01*
X87377363Y-107908285D01*
X87384361Y-107936222D01*
X87388587Y-107964711D01*
X87390000Y-107993477D01*
X87390000Y-109006523D01*
X87388587Y-109035289D01*
X87384361Y-109063778D01*
X87377363Y-109091715D01*
X87367660Y-109118832D01*
X87355347Y-109144867D01*
X87340540Y-109169570D01*
X87323384Y-109192703D01*
X87304043Y-109214043D01*
X87282703Y-109233384D01*
X87259570Y-109250540D01*
X87234867Y-109265347D01*
X87208832Y-109277660D01*
X87181715Y-109287363D01*
X87153778Y-109294361D01*
X87125289Y-109298587D01*
X87096523Y-109300000D01*
X86333477Y-109300000D01*
X86304711Y-109298587D01*
X86276222Y-109294361D01*
X86248285Y-109287363D01*
X86221168Y-109277660D01*
X86195133Y-109265347D01*
X86170430Y-109250540D01*
X86147297Y-109233384D01*
X86125957Y-109214043D01*
X86106616Y-109192703D01*
X86089460Y-109169570D01*
X86074653Y-109144867D01*
X86062340Y-109118832D01*
X86052637Y-109091715D01*
X86045639Y-109063778D01*
X86041413Y-109035289D01*
X86040000Y-109006523D01*
X86040000Y-107993477D01*
X86041413Y-107964711D01*
X86045639Y-107936222D01*
X86052637Y-107908285D01*
X86062340Y-107881168D01*
X86074653Y-107855133D01*
X86089460Y-107830430D01*
X86106616Y-107807297D01*
X86125957Y-107785957D01*
X86147297Y-107766616D01*
X86170430Y-107749460D01*
X86195133Y-107734653D01*
X86221168Y-107722340D01*
X86248285Y-107712637D01*
X86276222Y-107705639D01*
X86304711Y-107701413D01*
X86333477Y-107700000D01*
X87096523Y-107700000D01*
X87125289Y-107701413D01*
X87125289Y-107701413D01*
G37*
D22*
X86715000Y-108500000D03*
D11*
X135180000Y-63050000D03*
X135180000Y-65590000D03*
X132640000Y-63050000D03*
X132640000Y-65590000D03*
X130100000Y-63050000D03*
X130100000Y-65590000D03*
X127560000Y-63050000D03*
X127560000Y-65590000D03*
X125020000Y-63050000D03*
X125020000Y-65590000D03*
X122480000Y-63050000D03*
X122480000Y-65590000D03*
X119940000Y-63050000D03*
X119940000Y-65590000D03*
X117400000Y-63050000D03*
X117400000Y-65590000D03*
X114860000Y-63050000D03*
X114860000Y-65590000D03*
X112320000Y-63050000D03*
X112320000Y-65590000D03*
X109780000Y-63050000D03*
X109780000Y-65590000D03*
X107240000Y-63050000D03*
X107240000Y-65590000D03*
X104700000Y-63050000D03*
X104700000Y-65590000D03*
X102160000Y-63050000D03*
X102160000Y-65590000D03*
X99620000Y-63050000D03*
X99620000Y-65590000D03*
X97080000Y-63050000D03*
X97080000Y-65590000D03*
X94540000Y-63050000D03*
X94540000Y-65590000D03*
X92000000Y-63050000D03*
X92000000Y-65590000D03*
X89460000Y-63050000D03*
X89460000Y-65590000D03*
X86920000Y-63050000D03*
D12*
X86920000Y-65590000D03*
D28*
X82040000Y-64310000D03*
X140040000Y-64330000D03*
X82040000Y-113320000D03*
X140030000Y-113310000D03*
M02*
