G04 #@! TF.GenerationSoftware,KiCad,Pcbnew,(5.1.4)-1*
G04 #@! TF.CreationDate,2019-09-24T11:14:09+05:30*
G04 #@! TF.ProjectId,RPi Hat RF Transmitter V1,52506920-4861-4742-9052-46205472616e,rev?*
G04 #@! TF.SameCoordinates,Original*
G04 #@! TF.FileFunction,Soldermask,Top*
G04 #@! TF.FilePolarity,Negative*
%FSLAX46Y46*%
G04 Gerber Fmt 4.6, Leading zero omitted, Abs format (unit mm)*
G04 Created by KiCad (PCBNEW (5.1.4)-1) date 2019-09-24 11:14:09*
%MOMM*%
%LPD*%
G04 APERTURE LIST*
%ADD10C,0.150000*%
%ADD11C,0.100000*%
%ADD12C,1.350000*%
%ADD13C,2.450000*%
%ADD14C,2.250000*%
%ADD15R,1.760000X0.850000*%
%ADD16O,1.900000X1.900000*%
%ADD17R,1.900000X1.900000*%
%ADD18C,3.000000*%
%ADD19C,1.100000*%
%ADD20C,0.800000*%
%ADD21R,1.400000X2.100000*%
%ADD22O,1.400000X2.100000*%
%ADD23R,1.700000X2.100000*%
%ADD24C,1.650000*%
%ADD25R,0.600000X1.550000*%
%ADD26R,0.640000X1.725000*%
%ADD27C,3.200000*%
G04 APERTURE END LIST*
D10*
X78546356Y-63817611D02*
X78546356Y-113817611D01*
X140546356Y-60817611D02*
X81546356Y-60817611D01*
X143546351Y-113822847D02*
X143546356Y-63817611D01*
X81546356Y-116817611D02*
X140546356Y-116817611D01*
X78546356Y-63817611D02*
G75*
G02X81546356Y-60817611I3000000J0D01*
G01*
X140546356Y-60817611D02*
G75*
G02X143546356Y-63817611I0J-3000000D01*
G01*
X81546356Y-116817611D02*
G75*
G02X78546356Y-113817611I0J3000000D01*
G01*
X143546351Y-113822847D02*
G75*
G02X140546356Y-116817611I-2999995J5236D01*
G01*
D11*
G36*
X122836289Y-92943413D02*
G01*
X122864778Y-92947639D01*
X122892715Y-92954637D01*
X122919832Y-92964340D01*
X122945867Y-92976653D01*
X122970570Y-92991460D01*
X122993703Y-93008616D01*
X123015043Y-93027957D01*
X123034384Y-93049297D01*
X123051540Y-93072430D01*
X123066347Y-93097133D01*
X123078660Y-93123168D01*
X123088363Y-93150285D01*
X123095361Y-93178222D01*
X123099587Y-93206711D01*
X123101000Y-93235477D01*
X123101000Y-93998523D01*
X123099587Y-94027289D01*
X123095361Y-94055778D01*
X123088363Y-94083715D01*
X123078660Y-94110832D01*
X123066347Y-94136867D01*
X123051540Y-94161570D01*
X123034384Y-94184703D01*
X123015043Y-94206043D01*
X122993703Y-94225384D01*
X122970570Y-94242540D01*
X122945867Y-94257347D01*
X122919832Y-94269660D01*
X122892715Y-94279363D01*
X122864778Y-94286361D01*
X122836289Y-94290587D01*
X122807523Y-94292000D01*
X121794477Y-94292000D01*
X121765711Y-94290587D01*
X121737222Y-94286361D01*
X121709285Y-94279363D01*
X121682168Y-94269660D01*
X121656133Y-94257347D01*
X121631430Y-94242540D01*
X121608297Y-94225384D01*
X121586957Y-94206043D01*
X121567616Y-94184703D01*
X121550460Y-94161570D01*
X121535653Y-94136867D01*
X121523340Y-94110832D01*
X121513637Y-94083715D01*
X121506639Y-94055778D01*
X121502413Y-94027289D01*
X121501000Y-93998523D01*
X121501000Y-93235477D01*
X121502413Y-93206711D01*
X121506639Y-93178222D01*
X121513637Y-93150285D01*
X121523340Y-93123168D01*
X121535653Y-93097133D01*
X121550460Y-93072430D01*
X121567616Y-93049297D01*
X121586957Y-93027957D01*
X121608297Y-93008616D01*
X121631430Y-92991460D01*
X121656133Y-92976653D01*
X121682168Y-92964340D01*
X121709285Y-92954637D01*
X121737222Y-92947639D01*
X121765711Y-92943413D01*
X121794477Y-92942000D01*
X122807523Y-92942000D01*
X122836289Y-92943413D01*
X122836289Y-92943413D01*
G37*
D12*
X122301000Y-93617000D03*
D11*
G36*
X122836289Y-90893413D02*
G01*
X122864778Y-90897639D01*
X122892715Y-90904637D01*
X122919832Y-90914340D01*
X122945867Y-90926653D01*
X122970570Y-90941460D01*
X122993703Y-90958616D01*
X123015043Y-90977957D01*
X123034384Y-90999297D01*
X123051540Y-91022430D01*
X123066347Y-91047133D01*
X123078660Y-91073168D01*
X123088363Y-91100285D01*
X123095361Y-91128222D01*
X123099587Y-91156711D01*
X123101000Y-91185477D01*
X123101000Y-91948523D01*
X123099587Y-91977289D01*
X123095361Y-92005778D01*
X123088363Y-92033715D01*
X123078660Y-92060832D01*
X123066347Y-92086867D01*
X123051540Y-92111570D01*
X123034384Y-92134703D01*
X123015043Y-92156043D01*
X122993703Y-92175384D01*
X122970570Y-92192540D01*
X122945867Y-92207347D01*
X122919832Y-92219660D01*
X122892715Y-92229363D01*
X122864778Y-92236361D01*
X122836289Y-92240587D01*
X122807523Y-92242000D01*
X121794477Y-92242000D01*
X121765711Y-92240587D01*
X121737222Y-92236361D01*
X121709285Y-92229363D01*
X121682168Y-92219660D01*
X121656133Y-92207347D01*
X121631430Y-92192540D01*
X121608297Y-92175384D01*
X121586957Y-92156043D01*
X121567616Y-92134703D01*
X121550460Y-92111570D01*
X121535653Y-92086867D01*
X121523340Y-92060832D01*
X121513637Y-92033715D01*
X121506639Y-92005778D01*
X121502413Y-91977289D01*
X121501000Y-91948523D01*
X121501000Y-91185477D01*
X121502413Y-91156711D01*
X121506639Y-91128222D01*
X121513637Y-91100285D01*
X121523340Y-91073168D01*
X121535653Y-91047133D01*
X121550460Y-91022430D01*
X121567616Y-90999297D01*
X121586957Y-90977957D01*
X121608297Y-90958616D01*
X121631430Y-90941460D01*
X121656133Y-90926653D01*
X121682168Y-90914340D01*
X121709285Y-90904637D01*
X121737222Y-90897639D01*
X121765711Y-90893413D01*
X121794477Y-90892000D01*
X122807523Y-90892000D01*
X122836289Y-90893413D01*
X122836289Y-90893413D01*
G37*
D12*
X122301000Y-91567000D03*
D11*
G36*
X118529289Y-90768413D02*
G01*
X118557778Y-90772639D01*
X118585715Y-90779637D01*
X118612832Y-90789340D01*
X118638867Y-90801653D01*
X118663570Y-90816460D01*
X118686703Y-90833616D01*
X118708043Y-90852957D01*
X118727384Y-90874297D01*
X118744540Y-90897430D01*
X118759347Y-90922133D01*
X118771660Y-90948168D01*
X118781363Y-90975285D01*
X118788361Y-91003222D01*
X118792587Y-91031711D01*
X118794000Y-91060477D01*
X118794000Y-92073523D01*
X118792587Y-92102289D01*
X118788361Y-92130778D01*
X118781363Y-92158715D01*
X118771660Y-92185832D01*
X118759347Y-92211867D01*
X118744540Y-92236570D01*
X118727384Y-92259703D01*
X118708043Y-92281043D01*
X118686703Y-92300384D01*
X118663570Y-92317540D01*
X118638867Y-92332347D01*
X118612832Y-92344660D01*
X118585715Y-92354363D01*
X118557778Y-92361361D01*
X118529289Y-92365587D01*
X118500523Y-92367000D01*
X117737477Y-92367000D01*
X117708711Y-92365587D01*
X117680222Y-92361361D01*
X117652285Y-92354363D01*
X117625168Y-92344660D01*
X117599133Y-92332347D01*
X117574430Y-92317540D01*
X117551297Y-92300384D01*
X117529957Y-92281043D01*
X117510616Y-92259703D01*
X117493460Y-92236570D01*
X117478653Y-92211867D01*
X117466340Y-92185832D01*
X117456637Y-92158715D01*
X117449639Y-92130778D01*
X117445413Y-92102289D01*
X117444000Y-92073523D01*
X117444000Y-91060477D01*
X117445413Y-91031711D01*
X117449639Y-91003222D01*
X117456637Y-90975285D01*
X117466340Y-90948168D01*
X117478653Y-90922133D01*
X117493460Y-90897430D01*
X117510616Y-90874297D01*
X117529957Y-90852957D01*
X117551297Y-90833616D01*
X117574430Y-90816460D01*
X117599133Y-90801653D01*
X117625168Y-90789340D01*
X117652285Y-90779637D01*
X117680222Y-90772639D01*
X117708711Y-90768413D01*
X117737477Y-90767000D01*
X118500523Y-90767000D01*
X118529289Y-90768413D01*
X118529289Y-90768413D01*
G37*
D12*
X118119000Y-91567000D03*
D11*
G36*
X116479289Y-90768413D02*
G01*
X116507778Y-90772639D01*
X116535715Y-90779637D01*
X116562832Y-90789340D01*
X116588867Y-90801653D01*
X116613570Y-90816460D01*
X116636703Y-90833616D01*
X116658043Y-90852957D01*
X116677384Y-90874297D01*
X116694540Y-90897430D01*
X116709347Y-90922133D01*
X116721660Y-90948168D01*
X116731363Y-90975285D01*
X116738361Y-91003222D01*
X116742587Y-91031711D01*
X116744000Y-91060477D01*
X116744000Y-92073523D01*
X116742587Y-92102289D01*
X116738361Y-92130778D01*
X116731363Y-92158715D01*
X116721660Y-92185832D01*
X116709347Y-92211867D01*
X116694540Y-92236570D01*
X116677384Y-92259703D01*
X116658043Y-92281043D01*
X116636703Y-92300384D01*
X116613570Y-92317540D01*
X116588867Y-92332347D01*
X116562832Y-92344660D01*
X116535715Y-92354363D01*
X116507778Y-92361361D01*
X116479289Y-92365587D01*
X116450523Y-92367000D01*
X115687477Y-92367000D01*
X115658711Y-92365587D01*
X115630222Y-92361361D01*
X115602285Y-92354363D01*
X115575168Y-92344660D01*
X115549133Y-92332347D01*
X115524430Y-92317540D01*
X115501297Y-92300384D01*
X115479957Y-92281043D01*
X115460616Y-92259703D01*
X115443460Y-92236570D01*
X115428653Y-92211867D01*
X115416340Y-92185832D01*
X115406637Y-92158715D01*
X115399639Y-92130778D01*
X115395413Y-92102289D01*
X115394000Y-92073523D01*
X115394000Y-91060477D01*
X115395413Y-91031711D01*
X115399639Y-91003222D01*
X115406637Y-90975285D01*
X115416340Y-90948168D01*
X115428653Y-90922133D01*
X115443460Y-90897430D01*
X115460616Y-90874297D01*
X115479957Y-90852957D01*
X115501297Y-90833616D01*
X115524430Y-90816460D01*
X115549133Y-90801653D01*
X115575168Y-90789340D01*
X115602285Y-90779637D01*
X115630222Y-90772639D01*
X115658711Y-90768413D01*
X115687477Y-90767000D01*
X116450523Y-90767000D01*
X116479289Y-90768413D01*
X116479289Y-90768413D01*
G37*
D12*
X116069000Y-91567000D03*
D11*
G36*
X120677289Y-92943413D02*
G01*
X120705778Y-92947639D01*
X120733715Y-92954637D01*
X120760832Y-92964340D01*
X120786867Y-92976653D01*
X120811570Y-92991460D01*
X120834703Y-93008616D01*
X120856043Y-93027957D01*
X120875384Y-93049297D01*
X120892540Y-93072430D01*
X120907347Y-93097133D01*
X120919660Y-93123168D01*
X120929363Y-93150285D01*
X120936361Y-93178222D01*
X120940587Y-93206711D01*
X120942000Y-93235477D01*
X120942000Y-93998523D01*
X120940587Y-94027289D01*
X120936361Y-94055778D01*
X120929363Y-94083715D01*
X120919660Y-94110832D01*
X120907347Y-94136867D01*
X120892540Y-94161570D01*
X120875384Y-94184703D01*
X120856043Y-94206043D01*
X120834703Y-94225384D01*
X120811570Y-94242540D01*
X120786867Y-94257347D01*
X120760832Y-94269660D01*
X120733715Y-94279363D01*
X120705778Y-94286361D01*
X120677289Y-94290587D01*
X120648523Y-94292000D01*
X119635477Y-94292000D01*
X119606711Y-94290587D01*
X119578222Y-94286361D01*
X119550285Y-94279363D01*
X119523168Y-94269660D01*
X119497133Y-94257347D01*
X119472430Y-94242540D01*
X119449297Y-94225384D01*
X119427957Y-94206043D01*
X119408616Y-94184703D01*
X119391460Y-94161570D01*
X119376653Y-94136867D01*
X119364340Y-94110832D01*
X119354637Y-94083715D01*
X119347639Y-94055778D01*
X119343413Y-94027289D01*
X119342000Y-93998523D01*
X119342000Y-93235477D01*
X119343413Y-93206711D01*
X119347639Y-93178222D01*
X119354637Y-93150285D01*
X119364340Y-93123168D01*
X119376653Y-93097133D01*
X119391460Y-93072430D01*
X119408616Y-93049297D01*
X119427957Y-93027957D01*
X119449297Y-93008616D01*
X119472430Y-92991460D01*
X119497133Y-92976653D01*
X119523168Y-92964340D01*
X119550285Y-92954637D01*
X119578222Y-92947639D01*
X119606711Y-92943413D01*
X119635477Y-92942000D01*
X120648523Y-92942000D01*
X120677289Y-92943413D01*
X120677289Y-92943413D01*
G37*
D12*
X120142000Y-93617000D03*
D11*
G36*
X120677289Y-90893413D02*
G01*
X120705778Y-90897639D01*
X120733715Y-90904637D01*
X120760832Y-90914340D01*
X120786867Y-90926653D01*
X120811570Y-90941460D01*
X120834703Y-90958616D01*
X120856043Y-90977957D01*
X120875384Y-90999297D01*
X120892540Y-91022430D01*
X120907347Y-91047133D01*
X120919660Y-91073168D01*
X120929363Y-91100285D01*
X120936361Y-91128222D01*
X120940587Y-91156711D01*
X120942000Y-91185477D01*
X120942000Y-91948523D01*
X120940587Y-91977289D01*
X120936361Y-92005778D01*
X120929363Y-92033715D01*
X120919660Y-92060832D01*
X120907347Y-92086867D01*
X120892540Y-92111570D01*
X120875384Y-92134703D01*
X120856043Y-92156043D01*
X120834703Y-92175384D01*
X120811570Y-92192540D01*
X120786867Y-92207347D01*
X120760832Y-92219660D01*
X120733715Y-92229363D01*
X120705778Y-92236361D01*
X120677289Y-92240587D01*
X120648523Y-92242000D01*
X119635477Y-92242000D01*
X119606711Y-92240587D01*
X119578222Y-92236361D01*
X119550285Y-92229363D01*
X119523168Y-92219660D01*
X119497133Y-92207347D01*
X119472430Y-92192540D01*
X119449297Y-92175384D01*
X119427957Y-92156043D01*
X119408616Y-92134703D01*
X119391460Y-92111570D01*
X119376653Y-92086867D01*
X119364340Y-92060832D01*
X119354637Y-92033715D01*
X119347639Y-92005778D01*
X119343413Y-91977289D01*
X119342000Y-91948523D01*
X119342000Y-91185477D01*
X119343413Y-91156711D01*
X119347639Y-91128222D01*
X119354637Y-91100285D01*
X119364340Y-91073168D01*
X119376653Y-91047133D01*
X119391460Y-91022430D01*
X119408616Y-90999297D01*
X119427957Y-90977957D01*
X119449297Y-90958616D01*
X119472430Y-90941460D01*
X119497133Y-90926653D01*
X119523168Y-90914340D01*
X119550285Y-90904637D01*
X119578222Y-90897639D01*
X119606711Y-90893413D01*
X119635477Y-90892000D01*
X120648523Y-90892000D01*
X120677289Y-90893413D01*
X120677289Y-90893413D01*
G37*
D12*
X120142000Y-91567000D03*
D11*
G36*
X114583289Y-90768413D02*
G01*
X114611778Y-90772639D01*
X114639715Y-90779637D01*
X114666832Y-90789340D01*
X114692867Y-90801653D01*
X114717570Y-90816460D01*
X114740703Y-90833616D01*
X114762043Y-90852957D01*
X114781384Y-90874297D01*
X114798540Y-90897430D01*
X114813347Y-90922133D01*
X114825660Y-90948168D01*
X114835363Y-90975285D01*
X114842361Y-91003222D01*
X114846587Y-91031711D01*
X114848000Y-91060477D01*
X114848000Y-92073523D01*
X114846587Y-92102289D01*
X114842361Y-92130778D01*
X114835363Y-92158715D01*
X114825660Y-92185832D01*
X114813347Y-92211867D01*
X114798540Y-92236570D01*
X114781384Y-92259703D01*
X114762043Y-92281043D01*
X114740703Y-92300384D01*
X114717570Y-92317540D01*
X114692867Y-92332347D01*
X114666832Y-92344660D01*
X114639715Y-92354363D01*
X114611778Y-92361361D01*
X114583289Y-92365587D01*
X114554523Y-92367000D01*
X113791477Y-92367000D01*
X113762711Y-92365587D01*
X113734222Y-92361361D01*
X113706285Y-92354363D01*
X113679168Y-92344660D01*
X113653133Y-92332347D01*
X113628430Y-92317540D01*
X113605297Y-92300384D01*
X113583957Y-92281043D01*
X113564616Y-92259703D01*
X113547460Y-92236570D01*
X113532653Y-92211867D01*
X113520340Y-92185832D01*
X113510637Y-92158715D01*
X113503639Y-92130778D01*
X113499413Y-92102289D01*
X113498000Y-92073523D01*
X113498000Y-91060477D01*
X113499413Y-91031711D01*
X113503639Y-91003222D01*
X113510637Y-90975285D01*
X113520340Y-90948168D01*
X113532653Y-90922133D01*
X113547460Y-90897430D01*
X113564616Y-90874297D01*
X113583957Y-90852957D01*
X113605297Y-90833616D01*
X113628430Y-90816460D01*
X113653133Y-90801653D01*
X113679168Y-90789340D01*
X113706285Y-90779637D01*
X113734222Y-90772639D01*
X113762711Y-90768413D01*
X113791477Y-90767000D01*
X114554523Y-90767000D01*
X114583289Y-90768413D01*
X114583289Y-90768413D01*
G37*
D12*
X114173000Y-91567000D03*
D11*
G36*
X112533289Y-90768413D02*
G01*
X112561778Y-90772639D01*
X112589715Y-90779637D01*
X112616832Y-90789340D01*
X112642867Y-90801653D01*
X112667570Y-90816460D01*
X112690703Y-90833616D01*
X112712043Y-90852957D01*
X112731384Y-90874297D01*
X112748540Y-90897430D01*
X112763347Y-90922133D01*
X112775660Y-90948168D01*
X112785363Y-90975285D01*
X112792361Y-91003222D01*
X112796587Y-91031711D01*
X112798000Y-91060477D01*
X112798000Y-92073523D01*
X112796587Y-92102289D01*
X112792361Y-92130778D01*
X112785363Y-92158715D01*
X112775660Y-92185832D01*
X112763347Y-92211867D01*
X112748540Y-92236570D01*
X112731384Y-92259703D01*
X112712043Y-92281043D01*
X112690703Y-92300384D01*
X112667570Y-92317540D01*
X112642867Y-92332347D01*
X112616832Y-92344660D01*
X112589715Y-92354363D01*
X112561778Y-92361361D01*
X112533289Y-92365587D01*
X112504523Y-92367000D01*
X111741477Y-92367000D01*
X111712711Y-92365587D01*
X111684222Y-92361361D01*
X111656285Y-92354363D01*
X111629168Y-92344660D01*
X111603133Y-92332347D01*
X111578430Y-92317540D01*
X111555297Y-92300384D01*
X111533957Y-92281043D01*
X111514616Y-92259703D01*
X111497460Y-92236570D01*
X111482653Y-92211867D01*
X111470340Y-92185832D01*
X111460637Y-92158715D01*
X111453639Y-92130778D01*
X111449413Y-92102289D01*
X111448000Y-92073523D01*
X111448000Y-91060477D01*
X111449413Y-91031711D01*
X111453639Y-91003222D01*
X111460637Y-90975285D01*
X111470340Y-90948168D01*
X111482653Y-90922133D01*
X111497460Y-90897430D01*
X111514616Y-90874297D01*
X111533957Y-90852957D01*
X111555297Y-90833616D01*
X111578430Y-90816460D01*
X111603133Y-90801653D01*
X111629168Y-90789340D01*
X111656285Y-90779637D01*
X111684222Y-90772639D01*
X111712711Y-90768413D01*
X111741477Y-90767000D01*
X112504523Y-90767000D01*
X112533289Y-90768413D01*
X112533289Y-90768413D01*
G37*
D12*
X112123000Y-91567000D03*
D11*
G36*
X135792289Y-104420913D02*
G01*
X135820778Y-104425139D01*
X135848715Y-104432137D01*
X135875832Y-104441840D01*
X135901867Y-104454153D01*
X135926570Y-104468960D01*
X135949703Y-104486116D01*
X135971043Y-104505457D01*
X135990384Y-104526797D01*
X136007540Y-104549930D01*
X136022347Y-104574633D01*
X136034660Y-104600668D01*
X136044363Y-104627785D01*
X136051361Y-104655722D01*
X136055587Y-104684211D01*
X136057000Y-104712977D01*
X136057000Y-105726023D01*
X136055587Y-105754789D01*
X136051361Y-105783278D01*
X136044363Y-105811215D01*
X136034660Y-105838332D01*
X136022347Y-105864367D01*
X136007540Y-105889070D01*
X135990384Y-105912203D01*
X135971043Y-105933543D01*
X135949703Y-105952884D01*
X135926570Y-105970040D01*
X135901867Y-105984847D01*
X135875832Y-105997160D01*
X135848715Y-106006863D01*
X135820778Y-106013861D01*
X135792289Y-106018087D01*
X135763523Y-106019500D01*
X135000477Y-106019500D01*
X134971711Y-106018087D01*
X134943222Y-106013861D01*
X134915285Y-106006863D01*
X134888168Y-105997160D01*
X134862133Y-105984847D01*
X134837430Y-105970040D01*
X134814297Y-105952884D01*
X134792957Y-105933543D01*
X134773616Y-105912203D01*
X134756460Y-105889070D01*
X134741653Y-105864367D01*
X134729340Y-105838332D01*
X134719637Y-105811215D01*
X134712639Y-105783278D01*
X134708413Y-105754789D01*
X134707000Y-105726023D01*
X134707000Y-104712977D01*
X134708413Y-104684211D01*
X134712639Y-104655722D01*
X134719637Y-104627785D01*
X134729340Y-104600668D01*
X134741653Y-104574633D01*
X134756460Y-104549930D01*
X134773616Y-104526797D01*
X134792957Y-104505457D01*
X134814297Y-104486116D01*
X134837430Y-104468960D01*
X134862133Y-104454153D01*
X134888168Y-104441840D01*
X134915285Y-104432137D01*
X134943222Y-104425139D01*
X134971711Y-104420913D01*
X135000477Y-104419500D01*
X135763523Y-104419500D01*
X135792289Y-104420913D01*
X135792289Y-104420913D01*
G37*
D12*
X135382000Y-105219500D03*
D11*
G36*
X133742289Y-104420913D02*
G01*
X133770778Y-104425139D01*
X133798715Y-104432137D01*
X133825832Y-104441840D01*
X133851867Y-104454153D01*
X133876570Y-104468960D01*
X133899703Y-104486116D01*
X133921043Y-104505457D01*
X133940384Y-104526797D01*
X133957540Y-104549930D01*
X133972347Y-104574633D01*
X133984660Y-104600668D01*
X133994363Y-104627785D01*
X134001361Y-104655722D01*
X134005587Y-104684211D01*
X134007000Y-104712977D01*
X134007000Y-105726023D01*
X134005587Y-105754789D01*
X134001361Y-105783278D01*
X133994363Y-105811215D01*
X133984660Y-105838332D01*
X133972347Y-105864367D01*
X133957540Y-105889070D01*
X133940384Y-105912203D01*
X133921043Y-105933543D01*
X133899703Y-105952884D01*
X133876570Y-105970040D01*
X133851867Y-105984847D01*
X133825832Y-105997160D01*
X133798715Y-106006863D01*
X133770778Y-106013861D01*
X133742289Y-106018087D01*
X133713523Y-106019500D01*
X132950477Y-106019500D01*
X132921711Y-106018087D01*
X132893222Y-106013861D01*
X132865285Y-106006863D01*
X132838168Y-105997160D01*
X132812133Y-105984847D01*
X132787430Y-105970040D01*
X132764297Y-105952884D01*
X132742957Y-105933543D01*
X132723616Y-105912203D01*
X132706460Y-105889070D01*
X132691653Y-105864367D01*
X132679340Y-105838332D01*
X132669637Y-105811215D01*
X132662639Y-105783278D01*
X132658413Y-105754789D01*
X132657000Y-105726023D01*
X132657000Y-104712977D01*
X132658413Y-104684211D01*
X132662639Y-104655722D01*
X132669637Y-104627785D01*
X132679340Y-104600668D01*
X132691653Y-104574633D01*
X132706460Y-104549930D01*
X132723616Y-104526797D01*
X132742957Y-104505457D01*
X132764297Y-104486116D01*
X132787430Y-104468960D01*
X132812133Y-104454153D01*
X132838168Y-104441840D01*
X132865285Y-104432137D01*
X132893222Y-104425139D01*
X132921711Y-104420913D01*
X132950477Y-104419500D01*
X133713523Y-104419500D01*
X133742289Y-104420913D01*
X133742289Y-104420913D01*
G37*
D12*
X133332000Y-105219500D03*
D13*
X120523000Y-114998500D03*
X115443000Y-114998500D03*
X115443000Y-109918500D03*
X120523000Y-109918500D03*
D14*
X117983000Y-112458500D03*
D13*
X80137000Y-79438500D03*
X80137000Y-74358500D03*
X85217000Y-74358500D03*
X85217000Y-79438500D03*
D14*
X82677000Y-76898500D03*
D11*
G36*
X128281289Y-108929413D02*
G01*
X128309778Y-108933639D01*
X128337715Y-108940637D01*
X128364832Y-108950340D01*
X128390867Y-108962653D01*
X128415570Y-108977460D01*
X128438703Y-108994616D01*
X128460043Y-109013957D01*
X128479384Y-109035297D01*
X128496540Y-109058430D01*
X128511347Y-109083133D01*
X128523660Y-109109168D01*
X128533363Y-109136285D01*
X128540361Y-109164222D01*
X128544587Y-109192711D01*
X128546000Y-109221477D01*
X128546000Y-110234523D01*
X128544587Y-110263289D01*
X128540361Y-110291778D01*
X128533363Y-110319715D01*
X128523660Y-110346832D01*
X128511347Y-110372867D01*
X128496540Y-110397570D01*
X128479384Y-110420703D01*
X128460043Y-110442043D01*
X128438703Y-110461384D01*
X128415570Y-110478540D01*
X128390867Y-110493347D01*
X128364832Y-110505660D01*
X128337715Y-110515363D01*
X128309778Y-110522361D01*
X128281289Y-110526587D01*
X128252523Y-110528000D01*
X127489477Y-110528000D01*
X127460711Y-110526587D01*
X127432222Y-110522361D01*
X127404285Y-110515363D01*
X127377168Y-110505660D01*
X127351133Y-110493347D01*
X127326430Y-110478540D01*
X127303297Y-110461384D01*
X127281957Y-110442043D01*
X127262616Y-110420703D01*
X127245460Y-110397570D01*
X127230653Y-110372867D01*
X127218340Y-110346832D01*
X127208637Y-110319715D01*
X127201639Y-110291778D01*
X127197413Y-110263289D01*
X127196000Y-110234523D01*
X127196000Y-109221477D01*
X127197413Y-109192711D01*
X127201639Y-109164222D01*
X127208637Y-109136285D01*
X127218340Y-109109168D01*
X127230653Y-109083133D01*
X127245460Y-109058430D01*
X127262616Y-109035297D01*
X127281957Y-109013957D01*
X127303297Y-108994616D01*
X127326430Y-108977460D01*
X127351133Y-108962653D01*
X127377168Y-108950340D01*
X127404285Y-108940637D01*
X127432222Y-108933639D01*
X127460711Y-108929413D01*
X127489477Y-108928000D01*
X128252523Y-108928000D01*
X128281289Y-108929413D01*
X128281289Y-108929413D01*
G37*
D12*
X127871000Y-109728000D03*
D11*
G36*
X130331289Y-108929413D02*
G01*
X130359778Y-108933639D01*
X130387715Y-108940637D01*
X130414832Y-108950340D01*
X130440867Y-108962653D01*
X130465570Y-108977460D01*
X130488703Y-108994616D01*
X130510043Y-109013957D01*
X130529384Y-109035297D01*
X130546540Y-109058430D01*
X130561347Y-109083133D01*
X130573660Y-109109168D01*
X130583363Y-109136285D01*
X130590361Y-109164222D01*
X130594587Y-109192711D01*
X130596000Y-109221477D01*
X130596000Y-110234523D01*
X130594587Y-110263289D01*
X130590361Y-110291778D01*
X130583363Y-110319715D01*
X130573660Y-110346832D01*
X130561347Y-110372867D01*
X130546540Y-110397570D01*
X130529384Y-110420703D01*
X130510043Y-110442043D01*
X130488703Y-110461384D01*
X130465570Y-110478540D01*
X130440867Y-110493347D01*
X130414832Y-110505660D01*
X130387715Y-110515363D01*
X130359778Y-110522361D01*
X130331289Y-110526587D01*
X130302523Y-110528000D01*
X129539477Y-110528000D01*
X129510711Y-110526587D01*
X129482222Y-110522361D01*
X129454285Y-110515363D01*
X129427168Y-110505660D01*
X129401133Y-110493347D01*
X129376430Y-110478540D01*
X129353297Y-110461384D01*
X129331957Y-110442043D01*
X129312616Y-110420703D01*
X129295460Y-110397570D01*
X129280653Y-110372867D01*
X129268340Y-110346832D01*
X129258637Y-110319715D01*
X129251639Y-110291778D01*
X129247413Y-110263289D01*
X129246000Y-110234523D01*
X129246000Y-109221477D01*
X129247413Y-109192711D01*
X129251639Y-109164222D01*
X129258637Y-109136285D01*
X129268340Y-109109168D01*
X129280653Y-109083133D01*
X129295460Y-109058430D01*
X129312616Y-109035297D01*
X129331957Y-109013957D01*
X129353297Y-108994616D01*
X129376430Y-108977460D01*
X129401133Y-108962653D01*
X129427168Y-108950340D01*
X129454285Y-108940637D01*
X129482222Y-108933639D01*
X129510711Y-108929413D01*
X129539477Y-108928000D01*
X130302523Y-108928000D01*
X130331289Y-108929413D01*
X130331289Y-108929413D01*
G37*
D12*
X129921000Y-109728000D03*
D11*
G36*
X135746789Y-101118913D02*
G01*
X135775278Y-101123139D01*
X135803215Y-101130137D01*
X135830332Y-101139840D01*
X135856367Y-101152153D01*
X135881070Y-101166960D01*
X135904203Y-101184116D01*
X135925543Y-101203457D01*
X135944884Y-101224797D01*
X135962040Y-101247930D01*
X135976847Y-101272633D01*
X135989160Y-101298668D01*
X135998863Y-101325785D01*
X136005861Y-101353722D01*
X136010087Y-101382211D01*
X136011500Y-101410977D01*
X136011500Y-102424023D01*
X136010087Y-102452789D01*
X136005861Y-102481278D01*
X135998863Y-102509215D01*
X135989160Y-102536332D01*
X135976847Y-102562367D01*
X135962040Y-102587070D01*
X135944884Y-102610203D01*
X135925543Y-102631543D01*
X135904203Y-102650884D01*
X135881070Y-102668040D01*
X135856367Y-102682847D01*
X135830332Y-102695160D01*
X135803215Y-102704863D01*
X135775278Y-102711861D01*
X135746789Y-102716087D01*
X135718023Y-102717500D01*
X134954977Y-102717500D01*
X134926211Y-102716087D01*
X134897722Y-102711861D01*
X134869785Y-102704863D01*
X134842668Y-102695160D01*
X134816633Y-102682847D01*
X134791930Y-102668040D01*
X134768797Y-102650884D01*
X134747457Y-102631543D01*
X134728116Y-102610203D01*
X134710960Y-102587070D01*
X134696153Y-102562367D01*
X134683840Y-102536332D01*
X134674137Y-102509215D01*
X134667139Y-102481278D01*
X134662913Y-102452789D01*
X134661500Y-102424023D01*
X134661500Y-101410977D01*
X134662913Y-101382211D01*
X134667139Y-101353722D01*
X134674137Y-101325785D01*
X134683840Y-101298668D01*
X134696153Y-101272633D01*
X134710960Y-101247930D01*
X134728116Y-101224797D01*
X134747457Y-101203457D01*
X134768797Y-101184116D01*
X134791930Y-101166960D01*
X134816633Y-101152153D01*
X134842668Y-101139840D01*
X134869785Y-101130137D01*
X134897722Y-101123139D01*
X134926211Y-101118913D01*
X134954977Y-101117500D01*
X135718023Y-101117500D01*
X135746789Y-101118913D01*
X135746789Y-101118913D01*
G37*
D12*
X135336500Y-101917500D03*
D11*
G36*
X133696789Y-101118913D02*
G01*
X133725278Y-101123139D01*
X133753215Y-101130137D01*
X133780332Y-101139840D01*
X133806367Y-101152153D01*
X133831070Y-101166960D01*
X133854203Y-101184116D01*
X133875543Y-101203457D01*
X133894884Y-101224797D01*
X133912040Y-101247930D01*
X133926847Y-101272633D01*
X133939160Y-101298668D01*
X133948863Y-101325785D01*
X133955861Y-101353722D01*
X133960087Y-101382211D01*
X133961500Y-101410977D01*
X133961500Y-102424023D01*
X133960087Y-102452789D01*
X133955861Y-102481278D01*
X133948863Y-102509215D01*
X133939160Y-102536332D01*
X133926847Y-102562367D01*
X133912040Y-102587070D01*
X133894884Y-102610203D01*
X133875543Y-102631543D01*
X133854203Y-102650884D01*
X133831070Y-102668040D01*
X133806367Y-102682847D01*
X133780332Y-102695160D01*
X133753215Y-102704863D01*
X133725278Y-102711861D01*
X133696789Y-102716087D01*
X133668023Y-102717500D01*
X132904977Y-102717500D01*
X132876211Y-102716087D01*
X132847722Y-102711861D01*
X132819785Y-102704863D01*
X132792668Y-102695160D01*
X132766633Y-102682847D01*
X132741930Y-102668040D01*
X132718797Y-102650884D01*
X132697457Y-102631543D01*
X132678116Y-102610203D01*
X132660960Y-102587070D01*
X132646153Y-102562367D01*
X132633840Y-102536332D01*
X132624137Y-102509215D01*
X132617139Y-102481278D01*
X132612913Y-102452789D01*
X132611500Y-102424023D01*
X132611500Y-101410977D01*
X132612913Y-101382211D01*
X132617139Y-101353722D01*
X132624137Y-101325785D01*
X132633840Y-101298668D01*
X132646153Y-101272633D01*
X132660960Y-101247930D01*
X132678116Y-101224797D01*
X132697457Y-101203457D01*
X132718797Y-101184116D01*
X132741930Y-101166960D01*
X132766633Y-101152153D01*
X132792668Y-101139840D01*
X132819785Y-101130137D01*
X132847722Y-101123139D01*
X132876211Y-101118913D01*
X132904977Y-101117500D01*
X133668023Y-101117500D01*
X133696789Y-101118913D01*
X133696789Y-101118913D01*
G37*
D12*
X133286500Y-101917500D03*
D11*
G36*
X135728789Y-97753413D02*
G01*
X135757278Y-97757639D01*
X135785215Y-97764637D01*
X135812332Y-97774340D01*
X135838367Y-97786653D01*
X135863070Y-97801460D01*
X135886203Y-97818616D01*
X135907543Y-97837957D01*
X135926884Y-97859297D01*
X135944040Y-97882430D01*
X135958847Y-97907133D01*
X135971160Y-97933168D01*
X135980863Y-97960285D01*
X135987861Y-97988222D01*
X135992087Y-98016711D01*
X135993500Y-98045477D01*
X135993500Y-99058523D01*
X135992087Y-99087289D01*
X135987861Y-99115778D01*
X135980863Y-99143715D01*
X135971160Y-99170832D01*
X135958847Y-99196867D01*
X135944040Y-99221570D01*
X135926884Y-99244703D01*
X135907543Y-99266043D01*
X135886203Y-99285384D01*
X135863070Y-99302540D01*
X135838367Y-99317347D01*
X135812332Y-99329660D01*
X135785215Y-99339363D01*
X135757278Y-99346361D01*
X135728789Y-99350587D01*
X135700023Y-99352000D01*
X134936977Y-99352000D01*
X134908211Y-99350587D01*
X134879722Y-99346361D01*
X134851785Y-99339363D01*
X134824668Y-99329660D01*
X134798633Y-99317347D01*
X134773930Y-99302540D01*
X134750797Y-99285384D01*
X134729457Y-99266043D01*
X134710116Y-99244703D01*
X134692960Y-99221570D01*
X134678153Y-99196867D01*
X134665840Y-99170832D01*
X134656137Y-99143715D01*
X134649139Y-99115778D01*
X134644913Y-99087289D01*
X134643500Y-99058523D01*
X134643500Y-98045477D01*
X134644913Y-98016711D01*
X134649139Y-97988222D01*
X134656137Y-97960285D01*
X134665840Y-97933168D01*
X134678153Y-97907133D01*
X134692960Y-97882430D01*
X134710116Y-97859297D01*
X134729457Y-97837957D01*
X134750797Y-97818616D01*
X134773930Y-97801460D01*
X134798633Y-97786653D01*
X134824668Y-97774340D01*
X134851785Y-97764637D01*
X134879722Y-97757639D01*
X134908211Y-97753413D01*
X134936977Y-97752000D01*
X135700023Y-97752000D01*
X135728789Y-97753413D01*
X135728789Y-97753413D01*
G37*
D12*
X135318500Y-98552000D03*
D11*
G36*
X133678789Y-97753413D02*
G01*
X133707278Y-97757639D01*
X133735215Y-97764637D01*
X133762332Y-97774340D01*
X133788367Y-97786653D01*
X133813070Y-97801460D01*
X133836203Y-97818616D01*
X133857543Y-97837957D01*
X133876884Y-97859297D01*
X133894040Y-97882430D01*
X133908847Y-97907133D01*
X133921160Y-97933168D01*
X133930863Y-97960285D01*
X133937861Y-97988222D01*
X133942087Y-98016711D01*
X133943500Y-98045477D01*
X133943500Y-99058523D01*
X133942087Y-99087289D01*
X133937861Y-99115778D01*
X133930863Y-99143715D01*
X133921160Y-99170832D01*
X133908847Y-99196867D01*
X133894040Y-99221570D01*
X133876884Y-99244703D01*
X133857543Y-99266043D01*
X133836203Y-99285384D01*
X133813070Y-99302540D01*
X133788367Y-99317347D01*
X133762332Y-99329660D01*
X133735215Y-99339363D01*
X133707278Y-99346361D01*
X133678789Y-99350587D01*
X133650023Y-99352000D01*
X132886977Y-99352000D01*
X132858211Y-99350587D01*
X132829722Y-99346361D01*
X132801785Y-99339363D01*
X132774668Y-99329660D01*
X132748633Y-99317347D01*
X132723930Y-99302540D01*
X132700797Y-99285384D01*
X132679457Y-99266043D01*
X132660116Y-99244703D01*
X132642960Y-99221570D01*
X132628153Y-99196867D01*
X132615840Y-99170832D01*
X132606137Y-99143715D01*
X132599139Y-99115778D01*
X132594913Y-99087289D01*
X132593500Y-99058523D01*
X132593500Y-98045477D01*
X132594913Y-98016711D01*
X132599139Y-97988222D01*
X132606137Y-97960285D01*
X132615840Y-97933168D01*
X132628153Y-97907133D01*
X132642960Y-97882430D01*
X132660116Y-97859297D01*
X132679457Y-97837957D01*
X132700797Y-97818616D01*
X132723930Y-97801460D01*
X132748633Y-97786653D01*
X132774668Y-97774340D01*
X132801785Y-97764637D01*
X132829722Y-97757639D01*
X132858211Y-97753413D01*
X132886977Y-97752000D01*
X133650023Y-97752000D01*
X133678789Y-97753413D01*
X133678789Y-97753413D01*
G37*
D12*
X133268500Y-98552000D03*
D11*
G36*
X139409789Y-96871413D02*
G01*
X139438278Y-96875639D01*
X139466215Y-96882637D01*
X139493332Y-96892340D01*
X139519367Y-96904653D01*
X139544070Y-96919460D01*
X139567203Y-96936616D01*
X139588543Y-96955957D01*
X139607884Y-96977297D01*
X139625040Y-97000430D01*
X139639847Y-97025133D01*
X139652160Y-97051168D01*
X139661863Y-97078285D01*
X139668861Y-97106222D01*
X139673087Y-97134711D01*
X139674500Y-97163477D01*
X139674500Y-97926523D01*
X139673087Y-97955289D01*
X139668861Y-97983778D01*
X139661863Y-98011715D01*
X139652160Y-98038832D01*
X139639847Y-98064867D01*
X139625040Y-98089570D01*
X139607884Y-98112703D01*
X139588543Y-98134043D01*
X139567203Y-98153384D01*
X139544070Y-98170540D01*
X139519367Y-98185347D01*
X139493332Y-98197660D01*
X139466215Y-98207363D01*
X139438278Y-98214361D01*
X139409789Y-98218587D01*
X139381023Y-98220000D01*
X138367977Y-98220000D01*
X138339211Y-98218587D01*
X138310722Y-98214361D01*
X138282785Y-98207363D01*
X138255668Y-98197660D01*
X138229633Y-98185347D01*
X138204930Y-98170540D01*
X138181797Y-98153384D01*
X138160457Y-98134043D01*
X138141116Y-98112703D01*
X138123960Y-98089570D01*
X138109153Y-98064867D01*
X138096840Y-98038832D01*
X138087137Y-98011715D01*
X138080139Y-97983778D01*
X138075913Y-97955289D01*
X138074500Y-97926523D01*
X138074500Y-97163477D01*
X138075913Y-97134711D01*
X138080139Y-97106222D01*
X138087137Y-97078285D01*
X138096840Y-97051168D01*
X138109153Y-97025133D01*
X138123960Y-97000430D01*
X138141116Y-96977297D01*
X138160457Y-96955957D01*
X138181797Y-96936616D01*
X138204930Y-96919460D01*
X138229633Y-96904653D01*
X138255668Y-96892340D01*
X138282785Y-96882637D01*
X138310722Y-96875639D01*
X138339211Y-96871413D01*
X138367977Y-96870000D01*
X139381023Y-96870000D01*
X139409789Y-96871413D01*
X139409789Y-96871413D01*
G37*
D12*
X138874500Y-97545000D03*
D11*
G36*
X139409789Y-94821413D02*
G01*
X139438278Y-94825639D01*
X139466215Y-94832637D01*
X139493332Y-94842340D01*
X139519367Y-94854653D01*
X139544070Y-94869460D01*
X139567203Y-94886616D01*
X139588543Y-94905957D01*
X139607884Y-94927297D01*
X139625040Y-94950430D01*
X139639847Y-94975133D01*
X139652160Y-95001168D01*
X139661863Y-95028285D01*
X139668861Y-95056222D01*
X139673087Y-95084711D01*
X139674500Y-95113477D01*
X139674500Y-95876523D01*
X139673087Y-95905289D01*
X139668861Y-95933778D01*
X139661863Y-95961715D01*
X139652160Y-95988832D01*
X139639847Y-96014867D01*
X139625040Y-96039570D01*
X139607884Y-96062703D01*
X139588543Y-96084043D01*
X139567203Y-96103384D01*
X139544070Y-96120540D01*
X139519367Y-96135347D01*
X139493332Y-96147660D01*
X139466215Y-96157363D01*
X139438278Y-96164361D01*
X139409789Y-96168587D01*
X139381023Y-96170000D01*
X138367977Y-96170000D01*
X138339211Y-96168587D01*
X138310722Y-96164361D01*
X138282785Y-96157363D01*
X138255668Y-96147660D01*
X138229633Y-96135347D01*
X138204930Y-96120540D01*
X138181797Y-96103384D01*
X138160457Y-96084043D01*
X138141116Y-96062703D01*
X138123960Y-96039570D01*
X138109153Y-96014867D01*
X138096840Y-95988832D01*
X138087137Y-95961715D01*
X138080139Y-95933778D01*
X138075913Y-95905289D01*
X138074500Y-95876523D01*
X138074500Y-95113477D01*
X138075913Y-95084711D01*
X138080139Y-95056222D01*
X138087137Y-95028285D01*
X138096840Y-95001168D01*
X138109153Y-94975133D01*
X138123960Y-94950430D01*
X138141116Y-94927297D01*
X138160457Y-94905957D01*
X138181797Y-94886616D01*
X138204930Y-94869460D01*
X138229633Y-94854653D01*
X138255668Y-94842340D01*
X138282785Y-94832637D01*
X138310722Y-94825639D01*
X138339211Y-94821413D01*
X138367977Y-94820000D01*
X139381023Y-94820000D01*
X139409789Y-94821413D01*
X139409789Y-94821413D01*
G37*
D12*
X138874500Y-95495000D03*
D11*
G36*
X114644789Y-80219413D02*
G01*
X114673278Y-80223639D01*
X114701215Y-80230637D01*
X114728332Y-80240340D01*
X114754367Y-80252653D01*
X114779070Y-80267460D01*
X114802203Y-80284616D01*
X114823543Y-80303957D01*
X114842884Y-80325297D01*
X114860040Y-80348430D01*
X114874847Y-80373133D01*
X114887160Y-80399168D01*
X114896863Y-80426285D01*
X114903861Y-80454222D01*
X114908087Y-80482711D01*
X114909500Y-80511477D01*
X114909500Y-81274523D01*
X114908087Y-81303289D01*
X114903861Y-81331778D01*
X114896863Y-81359715D01*
X114887160Y-81386832D01*
X114874847Y-81412867D01*
X114860040Y-81437570D01*
X114842884Y-81460703D01*
X114823543Y-81482043D01*
X114802203Y-81501384D01*
X114779070Y-81518540D01*
X114754367Y-81533347D01*
X114728332Y-81545660D01*
X114701215Y-81555363D01*
X114673278Y-81562361D01*
X114644789Y-81566587D01*
X114616023Y-81568000D01*
X113602977Y-81568000D01*
X113574211Y-81566587D01*
X113545722Y-81562361D01*
X113517785Y-81555363D01*
X113490668Y-81545660D01*
X113464633Y-81533347D01*
X113439930Y-81518540D01*
X113416797Y-81501384D01*
X113395457Y-81482043D01*
X113376116Y-81460703D01*
X113358960Y-81437570D01*
X113344153Y-81412867D01*
X113331840Y-81386832D01*
X113322137Y-81359715D01*
X113315139Y-81331778D01*
X113310913Y-81303289D01*
X113309500Y-81274523D01*
X113309500Y-80511477D01*
X113310913Y-80482711D01*
X113315139Y-80454222D01*
X113322137Y-80426285D01*
X113331840Y-80399168D01*
X113344153Y-80373133D01*
X113358960Y-80348430D01*
X113376116Y-80325297D01*
X113395457Y-80303957D01*
X113416797Y-80284616D01*
X113439930Y-80267460D01*
X113464633Y-80252653D01*
X113490668Y-80240340D01*
X113517785Y-80230637D01*
X113545722Y-80223639D01*
X113574211Y-80219413D01*
X113602977Y-80218000D01*
X114616023Y-80218000D01*
X114644789Y-80219413D01*
X114644789Y-80219413D01*
G37*
D12*
X114109500Y-80893000D03*
D11*
G36*
X114644789Y-78169413D02*
G01*
X114673278Y-78173639D01*
X114701215Y-78180637D01*
X114728332Y-78190340D01*
X114754367Y-78202653D01*
X114779070Y-78217460D01*
X114802203Y-78234616D01*
X114823543Y-78253957D01*
X114842884Y-78275297D01*
X114860040Y-78298430D01*
X114874847Y-78323133D01*
X114887160Y-78349168D01*
X114896863Y-78376285D01*
X114903861Y-78404222D01*
X114908087Y-78432711D01*
X114909500Y-78461477D01*
X114909500Y-79224523D01*
X114908087Y-79253289D01*
X114903861Y-79281778D01*
X114896863Y-79309715D01*
X114887160Y-79336832D01*
X114874847Y-79362867D01*
X114860040Y-79387570D01*
X114842884Y-79410703D01*
X114823543Y-79432043D01*
X114802203Y-79451384D01*
X114779070Y-79468540D01*
X114754367Y-79483347D01*
X114728332Y-79495660D01*
X114701215Y-79505363D01*
X114673278Y-79512361D01*
X114644789Y-79516587D01*
X114616023Y-79518000D01*
X113602977Y-79518000D01*
X113574211Y-79516587D01*
X113545722Y-79512361D01*
X113517785Y-79505363D01*
X113490668Y-79495660D01*
X113464633Y-79483347D01*
X113439930Y-79468540D01*
X113416797Y-79451384D01*
X113395457Y-79432043D01*
X113376116Y-79410703D01*
X113358960Y-79387570D01*
X113344153Y-79362867D01*
X113331840Y-79336832D01*
X113322137Y-79309715D01*
X113315139Y-79281778D01*
X113310913Y-79253289D01*
X113309500Y-79224523D01*
X113309500Y-78461477D01*
X113310913Y-78432711D01*
X113315139Y-78404222D01*
X113322137Y-78376285D01*
X113331840Y-78349168D01*
X113344153Y-78323133D01*
X113358960Y-78298430D01*
X113376116Y-78275297D01*
X113395457Y-78253957D01*
X113416797Y-78234616D01*
X113439930Y-78217460D01*
X113464633Y-78202653D01*
X113490668Y-78190340D01*
X113517785Y-78180637D01*
X113545722Y-78173639D01*
X113574211Y-78169413D01*
X113602977Y-78168000D01*
X114616023Y-78168000D01*
X114644789Y-78169413D01*
X114644789Y-78169413D01*
G37*
D12*
X114109500Y-78843000D03*
D11*
G36*
X107592289Y-78004913D02*
G01*
X107620778Y-78009139D01*
X107648715Y-78016137D01*
X107675832Y-78025840D01*
X107701867Y-78038153D01*
X107726570Y-78052960D01*
X107749703Y-78070116D01*
X107771043Y-78089457D01*
X107790384Y-78110797D01*
X107807540Y-78133930D01*
X107822347Y-78158633D01*
X107834660Y-78184668D01*
X107844363Y-78211785D01*
X107851361Y-78239722D01*
X107855587Y-78268211D01*
X107857000Y-78296977D01*
X107857000Y-79310023D01*
X107855587Y-79338789D01*
X107851361Y-79367278D01*
X107844363Y-79395215D01*
X107834660Y-79422332D01*
X107822347Y-79448367D01*
X107807540Y-79473070D01*
X107790384Y-79496203D01*
X107771043Y-79517543D01*
X107749703Y-79536884D01*
X107726570Y-79554040D01*
X107701867Y-79568847D01*
X107675832Y-79581160D01*
X107648715Y-79590863D01*
X107620778Y-79597861D01*
X107592289Y-79602087D01*
X107563523Y-79603500D01*
X106800477Y-79603500D01*
X106771711Y-79602087D01*
X106743222Y-79597861D01*
X106715285Y-79590863D01*
X106688168Y-79581160D01*
X106662133Y-79568847D01*
X106637430Y-79554040D01*
X106614297Y-79536884D01*
X106592957Y-79517543D01*
X106573616Y-79496203D01*
X106556460Y-79473070D01*
X106541653Y-79448367D01*
X106529340Y-79422332D01*
X106519637Y-79395215D01*
X106512639Y-79367278D01*
X106508413Y-79338789D01*
X106507000Y-79310023D01*
X106507000Y-78296977D01*
X106508413Y-78268211D01*
X106512639Y-78239722D01*
X106519637Y-78211785D01*
X106529340Y-78184668D01*
X106541653Y-78158633D01*
X106556460Y-78133930D01*
X106573616Y-78110797D01*
X106592957Y-78089457D01*
X106614297Y-78070116D01*
X106637430Y-78052960D01*
X106662133Y-78038153D01*
X106688168Y-78025840D01*
X106715285Y-78016137D01*
X106743222Y-78009139D01*
X106771711Y-78004913D01*
X106800477Y-78003500D01*
X107563523Y-78003500D01*
X107592289Y-78004913D01*
X107592289Y-78004913D01*
G37*
D12*
X107182000Y-78803500D03*
D11*
G36*
X105542289Y-78004913D02*
G01*
X105570778Y-78009139D01*
X105598715Y-78016137D01*
X105625832Y-78025840D01*
X105651867Y-78038153D01*
X105676570Y-78052960D01*
X105699703Y-78070116D01*
X105721043Y-78089457D01*
X105740384Y-78110797D01*
X105757540Y-78133930D01*
X105772347Y-78158633D01*
X105784660Y-78184668D01*
X105794363Y-78211785D01*
X105801361Y-78239722D01*
X105805587Y-78268211D01*
X105807000Y-78296977D01*
X105807000Y-79310023D01*
X105805587Y-79338789D01*
X105801361Y-79367278D01*
X105794363Y-79395215D01*
X105784660Y-79422332D01*
X105772347Y-79448367D01*
X105757540Y-79473070D01*
X105740384Y-79496203D01*
X105721043Y-79517543D01*
X105699703Y-79536884D01*
X105676570Y-79554040D01*
X105651867Y-79568847D01*
X105625832Y-79581160D01*
X105598715Y-79590863D01*
X105570778Y-79597861D01*
X105542289Y-79602087D01*
X105513523Y-79603500D01*
X104750477Y-79603500D01*
X104721711Y-79602087D01*
X104693222Y-79597861D01*
X104665285Y-79590863D01*
X104638168Y-79581160D01*
X104612133Y-79568847D01*
X104587430Y-79554040D01*
X104564297Y-79536884D01*
X104542957Y-79517543D01*
X104523616Y-79496203D01*
X104506460Y-79473070D01*
X104491653Y-79448367D01*
X104479340Y-79422332D01*
X104469637Y-79395215D01*
X104462639Y-79367278D01*
X104458413Y-79338789D01*
X104457000Y-79310023D01*
X104457000Y-78296977D01*
X104458413Y-78268211D01*
X104462639Y-78239722D01*
X104469637Y-78211785D01*
X104479340Y-78184668D01*
X104491653Y-78158633D01*
X104506460Y-78133930D01*
X104523616Y-78110797D01*
X104542957Y-78089457D01*
X104564297Y-78070116D01*
X104587430Y-78052960D01*
X104612133Y-78038153D01*
X104638168Y-78025840D01*
X104665285Y-78016137D01*
X104693222Y-78009139D01*
X104721711Y-78004913D01*
X104750477Y-78003500D01*
X105513523Y-78003500D01*
X105542289Y-78004913D01*
X105542289Y-78004913D01*
G37*
D12*
X105132000Y-78803500D03*
D11*
G36*
X99277789Y-80161913D02*
G01*
X99306278Y-80166139D01*
X99334215Y-80173137D01*
X99361332Y-80182840D01*
X99387367Y-80195153D01*
X99412070Y-80209960D01*
X99435203Y-80227116D01*
X99456543Y-80246457D01*
X99475884Y-80267797D01*
X99493040Y-80290930D01*
X99507847Y-80315633D01*
X99520160Y-80341668D01*
X99529863Y-80368785D01*
X99536861Y-80396722D01*
X99541087Y-80425211D01*
X99542500Y-80453977D01*
X99542500Y-81217023D01*
X99541087Y-81245789D01*
X99536861Y-81274278D01*
X99529863Y-81302215D01*
X99520160Y-81329332D01*
X99507847Y-81355367D01*
X99493040Y-81380070D01*
X99475884Y-81403203D01*
X99456543Y-81424543D01*
X99435203Y-81443884D01*
X99412070Y-81461040D01*
X99387367Y-81475847D01*
X99361332Y-81488160D01*
X99334215Y-81497863D01*
X99306278Y-81504861D01*
X99277789Y-81509087D01*
X99249023Y-81510500D01*
X98235977Y-81510500D01*
X98207211Y-81509087D01*
X98178722Y-81504861D01*
X98150785Y-81497863D01*
X98123668Y-81488160D01*
X98097633Y-81475847D01*
X98072930Y-81461040D01*
X98049797Y-81443884D01*
X98028457Y-81424543D01*
X98009116Y-81403203D01*
X97991960Y-81380070D01*
X97977153Y-81355367D01*
X97964840Y-81329332D01*
X97955137Y-81302215D01*
X97948139Y-81274278D01*
X97943913Y-81245789D01*
X97942500Y-81217023D01*
X97942500Y-80453977D01*
X97943913Y-80425211D01*
X97948139Y-80396722D01*
X97955137Y-80368785D01*
X97964840Y-80341668D01*
X97977153Y-80315633D01*
X97991960Y-80290930D01*
X98009116Y-80267797D01*
X98028457Y-80246457D01*
X98049797Y-80227116D01*
X98072930Y-80209960D01*
X98097633Y-80195153D01*
X98123668Y-80182840D01*
X98150785Y-80173137D01*
X98178722Y-80166139D01*
X98207211Y-80161913D01*
X98235977Y-80160500D01*
X99249023Y-80160500D01*
X99277789Y-80161913D01*
X99277789Y-80161913D01*
G37*
D12*
X98742500Y-80835500D03*
D11*
G36*
X99277789Y-78111913D02*
G01*
X99306278Y-78116139D01*
X99334215Y-78123137D01*
X99361332Y-78132840D01*
X99387367Y-78145153D01*
X99412070Y-78159960D01*
X99435203Y-78177116D01*
X99456543Y-78196457D01*
X99475884Y-78217797D01*
X99493040Y-78240930D01*
X99507847Y-78265633D01*
X99520160Y-78291668D01*
X99529863Y-78318785D01*
X99536861Y-78346722D01*
X99541087Y-78375211D01*
X99542500Y-78403977D01*
X99542500Y-79167023D01*
X99541087Y-79195789D01*
X99536861Y-79224278D01*
X99529863Y-79252215D01*
X99520160Y-79279332D01*
X99507847Y-79305367D01*
X99493040Y-79330070D01*
X99475884Y-79353203D01*
X99456543Y-79374543D01*
X99435203Y-79393884D01*
X99412070Y-79411040D01*
X99387367Y-79425847D01*
X99361332Y-79438160D01*
X99334215Y-79447863D01*
X99306278Y-79454861D01*
X99277789Y-79459087D01*
X99249023Y-79460500D01*
X98235977Y-79460500D01*
X98207211Y-79459087D01*
X98178722Y-79454861D01*
X98150785Y-79447863D01*
X98123668Y-79438160D01*
X98097633Y-79425847D01*
X98072930Y-79411040D01*
X98049797Y-79393884D01*
X98028457Y-79374543D01*
X98009116Y-79353203D01*
X97991960Y-79330070D01*
X97977153Y-79305367D01*
X97964840Y-79279332D01*
X97955137Y-79252215D01*
X97948139Y-79224278D01*
X97943913Y-79195789D01*
X97942500Y-79167023D01*
X97942500Y-78403977D01*
X97943913Y-78375211D01*
X97948139Y-78346722D01*
X97955137Y-78318785D01*
X97964840Y-78291668D01*
X97977153Y-78265633D01*
X97991960Y-78240930D01*
X98009116Y-78217797D01*
X98028457Y-78196457D01*
X98049797Y-78177116D01*
X98072930Y-78159960D01*
X98097633Y-78145153D01*
X98123668Y-78132840D01*
X98150785Y-78123137D01*
X98178722Y-78116139D01*
X98207211Y-78111913D01*
X98235977Y-78110500D01*
X99249023Y-78110500D01*
X99277789Y-78111913D01*
X99277789Y-78111913D01*
G37*
D12*
X98742500Y-78785500D03*
D11*
G36*
X108358289Y-92943413D02*
G01*
X108386778Y-92947639D01*
X108414715Y-92954637D01*
X108441832Y-92964340D01*
X108467867Y-92976653D01*
X108492570Y-92991460D01*
X108515703Y-93008616D01*
X108537043Y-93027957D01*
X108556384Y-93049297D01*
X108573540Y-93072430D01*
X108588347Y-93097133D01*
X108600660Y-93123168D01*
X108610363Y-93150285D01*
X108617361Y-93178222D01*
X108621587Y-93206711D01*
X108623000Y-93235477D01*
X108623000Y-93998523D01*
X108621587Y-94027289D01*
X108617361Y-94055778D01*
X108610363Y-94083715D01*
X108600660Y-94110832D01*
X108588347Y-94136867D01*
X108573540Y-94161570D01*
X108556384Y-94184703D01*
X108537043Y-94206043D01*
X108515703Y-94225384D01*
X108492570Y-94242540D01*
X108467867Y-94257347D01*
X108441832Y-94269660D01*
X108414715Y-94279363D01*
X108386778Y-94286361D01*
X108358289Y-94290587D01*
X108329523Y-94292000D01*
X107316477Y-94292000D01*
X107287711Y-94290587D01*
X107259222Y-94286361D01*
X107231285Y-94279363D01*
X107204168Y-94269660D01*
X107178133Y-94257347D01*
X107153430Y-94242540D01*
X107130297Y-94225384D01*
X107108957Y-94206043D01*
X107089616Y-94184703D01*
X107072460Y-94161570D01*
X107057653Y-94136867D01*
X107045340Y-94110832D01*
X107035637Y-94083715D01*
X107028639Y-94055778D01*
X107024413Y-94027289D01*
X107023000Y-93998523D01*
X107023000Y-93235477D01*
X107024413Y-93206711D01*
X107028639Y-93178222D01*
X107035637Y-93150285D01*
X107045340Y-93123168D01*
X107057653Y-93097133D01*
X107072460Y-93072430D01*
X107089616Y-93049297D01*
X107108957Y-93027957D01*
X107130297Y-93008616D01*
X107153430Y-92991460D01*
X107178133Y-92976653D01*
X107204168Y-92964340D01*
X107231285Y-92954637D01*
X107259222Y-92947639D01*
X107287711Y-92943413D01*
X107316477Y-92942000D01*
X108329523Y-92942000D01*
X108358289Y-92943413D01*
X108358289Y-92943413D01*
G37*
D12*
X107823000Y-93617000D03*
D11*
G36*
X108358289Y-90893413D02*
G01*
X108386778Y-90897639D01*
X108414715Y-90904637D01*
X108441832Y-90914340D01*
X108467867Y-90926653D01*
X108492570Y-90941460D01*
X108515703Y-90958616D01*
X108537043Y-90977957D01*
X108556384Y-90999297D01*
X108573540Y-91022430D01*
X108588347Y-91047133D01*
X108600660Y-91073168D01*
X108610363Y-91100285D01*
X108617361Y-91128222D01*
X108621587Y-91156711D01*
X108623000Y-91185477D01*
X108623000Y-91948523D01*
X108621587Y-91977289D01*
X108617361Y-92005778D01*
X108610363Y-92033715D01*
X108600660Y-92060832D01*
X108588347Y-92086867D01*
X108573540Y-92111570D01*
X108556384Y-92134703D01*
X108537043Y-92156043D01*
X108515703Y-92175384D01*
X108492570Y-92192540D01*
X108467867Y-92207347D01*
X108441832Y-92219660D01*
X108414715Y-92229363D01*
X108386778Y-92236361D01*
X108358289Y-92240587D01*
X108329523Y-92242000D01*
X107316477Y-92242000D01*
X107287711Y-92240587D01*
X107259222Y-92236361D01*
X107231285Y-92229363D01*
X107204168Y-92219660D01*
X107178133Y-92207347D01*
X107153430Y-92192540D01*
X107130297Y-92175384D01*
X107108957Y-92156043D01*
X107089616Y-92134703D01*
X107072460Y-92111570D01*
X107057653Y-92086867D01*
X107045340Y-92060832D01*
X107035637Y-92033715D01*
X107028639Y-92005778D01*
X107024413Y-91977289D01*
X107023000Y-91948523D01*
X107023000Y-91185477D01*
X107024413Y-91156711D01*
X107028639Y-91128222D01*
X107035637Y-91100285D01*
X107045340Y-91073168D01*
X107057653Y-91047133D01*
X107072460Y-91022430D01*
X107089616Y-90999297D01*
X107108957Y-90977957D01*
X107130297Y-90958616D01*
X107153430Y-90941460D01*
X107178133Y-90926653D01*
X107204168Y-90914340D01*
X107231285Y-90904637D01*
X107259222Y-90897639D01*
X107287711Y-90893413D01*
X107316477Y-90892000D01*
X108329523Y-90892000D01*
X108358289Y-90893413D01*
X108358289Y-90893413D01*
G37*
D12*
X107823000Y-91567000D03*
D11*
G36*
X114708289Y-73361413D02*
G01*
X114736778Y-73365639D01*
X114764715Y-73372637D01*
X114791832Y-73382340D01*
X114817867Y-73394653D01*
X114842570Y-73409460D01*
X114865703Y-73426616D01*
X114887043Y-73445957D01*
X114906384Y-73467297D01*
X114923540Y-73490430D01*
X114938347Y-73515133D01*
X114950660Y-73541168D01*
X114960363Y-73568285D01*
X114967361Y-73596222D01*
X114971587Y-73624711D01*
X114973000Y-73653477D01*
X114973000Y-74416523D01*
X114971587Y-74445289D01*
X114967361Y-74473778D01*
X114960363Y-74501715D01*
X114950660Y-74528832D01*
X114938347Y-74554867D01*
X114923540Y-74579570D01*
X114906384Y-74602703D01*
X114887043Y-74624043D01*
X114865703Y-74643384D01*
X114842570Y-74660540D01*
X114817867Y-74675347D01*
X114791832Y-74687660D01*
X114764715Y-74697363D01*
X114736778Y-74704361D01*
X114708289Y-74708587D01*
X114679523Y-74710000D01*
X113666477Y-74710000D01*
X113637711Y-74708587D01*
X113609222Y-74704361D01*
X113581285Y-74697363D01*
X113554168Y-74687660D01*
X113528133Y-74675347D01*
X113503430Y-74660540D01*
X113480297Y-74643384D01*
X113458957Y-74624043D01*
X113439616Y-74602703D01*
X113422460Y-74579570D01*
X113407653Y-74554867D01*
X113395340Y-74528832D01*
X113385637Y-74501715D01*
X113378639Y-74473778D01*
X113374413Y-74445289D01*
X113373000Y-74416523D01*
X113373000Y-73653477D01*
X113374413Y-73624711D01*
X113378639Y-73596222D01*
X113385637Y-73568285D01*
X113395340Y-73541168D01*
X113407653Y-73515133D01*
X113422460Y-73490430D01*
X113439616Y-73467297D01*
X113458957Y-73445957D01*
X113480297Y-73426616D01*
X113503430Y-73409460D01*
X113528133Y-73394653D01*
X113554168Y-73382340D01*
X113581285Y-73372637D01*
X113609222Y-73365639D01*
X113637711Y-73361413D01*
X113666477Y-73360000D01*
X114679523Y-73360000D01*
X114708289Y-73361413D01*
X114708289Y-73361413D01*
G37*
D12*
X114173000Y-74035000D03*
D11*
G36*
X114708289Y-71311413D02*
G01*
X114736778Y-71315639D01*
X114764715Y-71322637D01*
X114791832Y-71332340D01*
X114817867Y-71344653D01*
X114842570Y-71359460D01*
X114865703Y-71376616D01*
X114887043Y-71395957D01*
X114906384Y-71417297D01*
X114923540Y-71440430D01*
X114938347Y-71465133D01*
X114950660Y-71491168D01*
X114960363Y-71518285D01*
X114967361Y-71546222D01*
X114971587Y-71574711D01*
X114973000Y-71603477D01*
X114973000Y-72366523D01*
X114971587Y-72395289D01*
X114967361Y-72423778D01*
X114960363Y-72451715D01*
X114950660Y-72478832D01*
X114938347Y-72504867D01*
X114923540Y-72529570D01*
X114906384Y-72552703D01*
X114887043Y-72574043D01*
X114865703Y-72593384D01*
X114842570Y-72610540D01*
X114817867Y-72625347D01*
X114791832Y-72637660D01*
X114764715Y-72647363D01*
X114736778Y-72654361D01*
X114708289Y-72658587D01*
X114679523Y-72660000D01*
X113666477Y-72660000D01*
X113637711Y-72658587D01*
X113609222Y-72654361D01*
X113581285Y-72647363D01*
X113554168Y-72637660D01*
X113528133Y-72625347D01*
X113503430Y-72610540D01*
X113480297Y-72593384D01*
X113458957Y-72574043D01*
X113439616Y-72552703D01*
X113422460Y-72529570D01*
X113407653Y-72504867D01*
X113395340Y-72478832D01*
X113385637Y-72451715D01*
X113378639Y-72423778D01*
X113374413Y-72395289D01*
X113373000Y-72366523D01*
X113373000Y-71603477D01*
X113374413Y-71574711D01*
X113378639Y-71546222D01*
X113385637Y-71518285D01*
X113395340Y-71491168D01*
X113407653Y-71465133D01*
X113422460Y-71440430D01*
X113439616Y-71417297D01*
X113458957Y-71395957D01*
X113480297Y-71376616D01*
X113503430Y-71359460D01*
X113528133Y-71344653D01*
X113554168Y-71332340D01*
X113581285Y-71322637D01*
X113609222Y-71315639D01*
X113637711Y-71311413D01*
X113666477Y-71310000D01*
X114679523Y-71310000D01*
X114708289Y-71311413D01*
X114708289Y-71311413D01*
G37*
D12*
X114173000Y-71985000D03*
D11*
G36*
X102137289Y-90768413D02*
G01*
X102165778Y-90772639D01*
X102193715Y-90779637D01*
X102220832Y-90789340D01*
X102246867Y-90801653D01*
X102271570Y-90816460D01*
X102294703Y-90833616D01*
X102316043Y-90852957D01*
X102335384Y-90874297D01*
X102352540Y-90897430D01*
X102367347Y-90922133D01*
X102379660Y-90948168D01*
X102389363Y-90975285D01*
X102396361Y-91003222D01*
X102400587Y-91031711D01*
X102402000Y-91060477D01*
X102402000Y-92073523D01*
X102400587Y-92102289D01*
X102396361Y-92130778D01*
X102389363Y-92158715D01*
X102379660Y-92185832D01*
X102367347Y-92211867D01*
X102352540Y-92236570D01*
X102335384Y-92259703D01*
X102316043Y-92281043D01*
X102294703Y-92300384D01*
X102271570Y-92317540D01*
X102246867Y-92332347D01*
X102220832Y-92344660D01*
X102193715Y-92354363D01*
X102165778Y-92361361D01*
X102137289Y-92365587D01*
X102108523Y-92367000D01*
X101345477Y-92367000D01*
X101316711Y-92365587D01*
X101288222Y-92361361D01*
X101260285Y-92354363D01*
X101233168Y-92344660D01*
X101207133Y-92332347D01*
X101182430Y-92317540D01*
X101159297Y-92300384D01*
X101137957Y-92281043D01*
X101118616Y-92259703D01*
X101101460Y-92236570D01*
X101086653Y-92211867D01*
X101074340Y-92185832D01*
X101064637Y-92158715D01*
X101057639Y-92130778D01*
X101053413Y-92102289D01*
X101052000Y-92073523D01*
X101052000Y-91060477D01*
X101053413Y-91031711D01*
X101057639Y-91003222D01*
X101064637Y-90975285D01*
X101074340Y-90948168D01*
X101086653Y-90922133D01*
X101101460Y-90897430D01*
X101118616Y-90874297D01*
X101137957Y-90852957D01*
X101159297Y-90833616D01*
X101182430Y-90816460D01*
X101207133Y-90801653D01*
X101233168Y-90789340D01*
X101260285Y-90779637D01*
X101288222Y-90772639D01*
X101316711Y-90768413D01*
X101345477Y-90767000D01*
X102108523Y-90767000D01*
X102137289Y-90768413D01*
X102137289Y-90768413D01*
G37*
D12*
X101727000Y-91567000D03*
D11*
G36*
X100087289Y-90768413D02*
G01*
X100115778Y-90772639D01*
X100143715Y-90779637D01*
X100170832Y-90789340D01*
X100196867Y-90801653D01*
X100221570Y-90816460D01*
X100244703Y-90833616D01*
X100266043Y-90852957D01*
X100285384Y-90874297D01*
X100302540Y-90897430D01*
X100317347Y-90922133D01*
X100329660Y-90948168D01*
X100339363Y-90975285D01*
X100346361Y-91003222D01*
X100350587Y-91031711D01*
X100352000Y-91060477D01*
X100352000Y-92073523D01*
X100350587Y-92102289D01*
X100346361Y-92130778D01*
X100339363Y-92158715D01*
X100329660Y-92185832D01*
X100317347Y-92211867D01*
X100302540Y-92236570D01*
X100285384Y-92259703D01*
X100266043Y-92281043D01*
X100244703Y-92300384D01*
X100221570Y-92317540D01*
X100196867Y-92332347D01*
X100170832Y-92344660D01*
X100143715Y-92354363D01*
X100115778Y-92361361D01*
X100087289Y-92365587D01*
X100058523Y-92367000D01*
X99295477Y-92367000D01*
X99266711Y-92365587D01*
X99238222Y-92361361D01*
X99210285Y-92354363D01*
X99183168Y-92344660D01*
X99157133Y-92332347D01*
X99132430Y-92317540D01*
X99109297Y-92300384D01*
X99087957Y-92281043D01*
X99068616Y-92259703D01*
X99051460Y-92236570D01*
X99036653Y-92211867D01*
X99024340Y-92185832D01*
X99014637Y-92158715D01*
X99007639Y-92130778D01*
X99003413Y-92102289D01*
X99002000Y-92073523D01*
X99002000Y-91060477D01*
X99003413Y-91031711D01*
X99007639Y-91003222D01*
X99014637Y-90975285D01*
X99024340Y-90948168D01*
X99036653Y-90922133D01*
X99051460Y-90897430D01*
X99068616Y-90874297D01*
X99087957Y-90852957D01*
X99109297Y-90833616D01*
X99132430Y-90816460D01*
X99157133Y-90801653D01*
X99183168Y-90789340D01*
X99210285Y-90779637D01*
X99238222Y-90772639D01*
X99266711Y-90768413D01*
X99295477Y-90767000D01*
X100058523Y-90767000D01*
X100087289Y-90768413D01*
X100087289Y-90768413D01*
G37*
D12*
X99677000Y-91567000D03*
D11*
G36*
X107495289Y-71146913D02*
G01*
X107523778Y-71151139D01*
X107551715Y-71158137D01*
X107578832Y-71167840D01*
X107604867Y-71180153D01*
X107629570Y-71194960D01*
X107652703Y-71212116D01*
X107674043Y-71231457D01*
X107693384Y-71252797D01*
X107710540Y-71275930D01*
X107725347Y-71300633D01*
X107737660Y-71326668D01*
X107747363Y-71353785D01*
X107754361Y-71381722D01*
X107758587Y-71410211D01*
X107760000Y-71438977D01*
X107760000Y-72452023D01*
X107758587Y-72480789D01*
X107754361Y-72509278D01*
X107747363Y-72537215D01*
X107737660Y-72564332D01*
X107725347Y-72590367D01*
X107710540Y-72615070D01*
X107693384Y-72638203D01*
X107674043Y-72659543D01*
X107652703Y-72678884D01*
X107629570Y-72696040D01*
X107604867Y-72710847D01*
X107578832Y-72723160D01*
X107551715Y-72732863D01*
X107523778Y-72739861D01*
X107495289Y-72744087D01*
X107466523Y-72745500D01*
X106703477Y-72745500D01*
X106674711Y-72744087D01*
X106646222Y-72739861D01*
X106618285Y-72732863D01*
X106591168Y-72723160D01*
X106565133Y-72710847D01*
X106540430Y-72696040D01*
X106517297Y-72678884D01*
X106495957Y-72659543D01*
X106476616Y-72638203D01*
X106459460Y-72615070D01*
X106444653Y-72590367D01*
X106432340Y-72564332D01*
X106422637Y-72537215D01*
X106415639Y-72509278D01*
X106411413Y-72480789D01*
X106410000Y-72452023D01*
X106410000Y-71438977D01*
X106411413Y-71410211D01*
X106415639Y-71381722D01*
X106422637Y-71353785D01*
X106432340Y-71326668D01*
X106444653Y-71300633D01*
X106459460Y-71275930D01*
X106476616Y-71252797D01*
X106495957Y-71231457D01*
X106517297Y-71212116D01*
X106540430Y-71194960D01*
X106565133Y-71180153D01*
X106591168Y-71167840D01*
X106618285Y-71158137D01*
X106646222Y-71151139D01*
X106674711Y-71146913D01*
X106703477Y-71145500D01*
X107466523Y-71145500D01*
X107495289Y-71146913D01*
X107495289Y-71146913D01*
G37*
D12*
X107085000Y-71945500D03*
D11*
G36*
X105445289Y-71146913D02*
G01*
X105473778Y-71151139D01*
X105501715Y-71158137D01*
X105528832Y-71167840D01*
X105554867Y-71180153D01*
X105579570Y-71194960D01*
X105602703Y-71212116D01*
X105624043Y-71231457D01*
X105643384Y-71252797D01*
X105660540Y-71275930D01*
X105675347Y-71300633D01*
X105687660Y-71326668D01*
X105697363Y-71353785D01*
X105704361Y-71381722D01*
X105708587Y-71410211D01*
X105710000Y-71438977D01*
X105710000Y-72452023D01*
X105708587Y-72480789D01*
X105704361Y-72509278D01*
X105697363Y-72537215D01*
X105687660Y-72564332D01*
X105675347Y-72590367D01*
X105660540Y-72615070D01*
X105643384Y-72638203D01*
X105624043Y-72659543D01*
X105602703Y-72678884D01*
X105579570Y-72696040D01*
X105554867Y-72710847D01*
X105528832Y-72723160D01*
X105501715Y-72732863D01*
X105473778Y-72739861D01*
X105445289Y-72744087D01*
X105416523Y-72745500D01*
X104653477Y-72745500D01*
X104624711Y-72744087D01*
X104596222Y-72739861D01*
X104568285Y-72732863D01*
X104541168Y-72723160D01*
X104515133Y-72710847D01*
X104490430Y-72696040D01*
X104467297Y-72678884D01*
X104445957Y-72659543D01*
X104426616Y-72638203D01*
X104409460Y-72615070D01*
X104394653Y-72590367D01*
X104382340Y-72564332D01*
X104372637Y-72537215D01*
X104365639Y-72509278D01*
X104361413Y-72480789D01*
X104360000Y-72452023D01*
X104360000Y-71438977D01*
X104361413Y-71410211D01*
X104365639Y-71381722D01*
X104372637Y-71353785D01*
X104382340Y-71326668D01*
X104394653Y-71300633D01*
X104409460Y-71275930D01*
X104426616Y-71252797D01*
X104445957Y-71231457D01*
X104467297Y-71212116D01*
X104490430Y-71194960D01*
X104515133Y-71180153D01*
X104541168Y-71167840D01*
X104568285Y-71158137D01*
X104596222Y-71151139D01*
X104624711Y-71146913D01*
X104653477Y-71145500D01*
X105416523Y-71145500D01*
X105445289Y-71146913D01*
X105445289Y-71146913D01*
G37*
D12*
X105035000Y-71945500D03*
D11*
G36*
X95848789Y-92925413D02*
G01*
X95877278Y-92929639D01*
X95905215Y-92936637D01*
X95932332Y-92946340D01*
X95958367Y-92958653D01*
X95983070Y-92973460D01*
X96006203Y-92990616D01*
X96027543Y-93009957D01*
X96046884Y-93031297D01*
X96064040Y-93054430D01*
X96078847Y-93079133D01*
X96091160Y-93105168D01*
X96100863Y-93132285D01*
X96107861Y-93160222D01*
X96112087Y-93188711D01*
X96113500Y-93217477D01*
X96113500Y-93980523D01*
X96112087Y-94009289D01*
X96107861Y-94037778D01*
X96100863Y-94065715D01*
X96091160Y-94092832D01*
X96078847Y-94118867D01*
X96064040Y-94143570D01*
X96046884Y-94166703D01*
X96027543Y-94188043D01*
X96006203Y-94207384D01*
X95983070Y-94224540D01*
X95958367Y-94239347D01*
X95932332Y-94251660D01*
X95905215Y-94261363D01*
X95877278Y-94268361D01*
X95848789Y-94272587D01*
X95820023Y-94274000D01*
X94806977Y-94274000D01*
X94778211Y-94272587D01*
X94749722Y-94268361D01*
X94721785Y-94261363D01*
X94694668Y-94251660D01*
X94668633Y-94239347D01*
X94643930Y-94224540D01*
X94620797Y-94207384D01*
X94599457Y-94188043D01*
X94580116Y-94166703D01*
X94562960Y-94143570D01*
X94548153Y-94118867D01*
X94535840Y-94092832D01*
X94526137Y-94065715D01*
X94519139Y-94037778D01*
X94514913Y-94009289D01*
X94513500Y-93980523D01*
X94513500Y-93217477D01*
X94514913Y-93188711D01*
X94519139Y-93160222D01*
X94526137Y-93132285D01*
X94535840Y-93105168D01*
X94548153Y-93079133D01*
X94562960Y-93054430D01*
X94580116Y-93031297D01*
X94599457Y-93009957D01*
X94620797Y-92990616D01*
X94643930Y-92973460D01*
X94668633Y-92958653D01*
X94694668Y-92946340D01*
X94721785Y-92936637D01*
X94749722Y-92929639D01*
X94778211Y-92925413D01*
X94806977Y-92924000D01*
X95820023Y-92924000D01*
X95848789Y-92925413D01*
X95848789Y-92925413D01*
G37*
D12*
X95313500Y-93599000D03*
D11*
G36*
X95848789Y-90875413D02*
G01*
X95877278Y-90879639D01*
X95905215Y-90886637D01*
X95932332Y-90896340D01*
X95958367Y-90908653D01*
X95983070Y-90923460D01*
X96006203Y-90940616D01*
X96027543Y-90959957D01*
X96046884Y-90981297D01*
X96064040Y-91004430D01*
X96078847Y-91029133D01*
X96091160Y-91055168D01*
X96100863Y-91082285D01*
X96107861Y-91110222D01*
X96112087Y-91138711D01*
X96113500Y-91167477D01*
X96113500Y-91930523D01*
X96112087Y-91959289D01*
X96107861Y-91987778D01*
X96100863Y-92015715D01*
X96091160Y-92042832D01*
X96078847Y-92068867D01*
X96064040Y-92093570D01*
X96046884Y-92116703D01*
X96027543Y-92138043D01*
X96006203Y-92157384D01*
X95983070Y-92174540D01*
X95958367Y-92189347D01*
X95932332Y-92201660D01*
X95905215Y-92211363D01*
X95877278Y-92218361D01*
X95848789Y-92222587D01*
X95820023Y-92224000D01*
X94806977Y-92224000D01*
X94778211Y-92222587D01*
X94749722Y-92218361D01*
X94721785Y-92211363D01*
X94694668Y-92201660D01*
X94668633Y-92189347D01*
X94643930Y-92174540D01*
X94620797Y-92157384D01*
X94599457Y-92138043D01*
X94580116Y-92116703D01*
X94562960Y-92093570D01*
X94548153Y-92068867D01*
X94535840Y-92042832D01*
X94526137Y-92015715D01*
X94519139Y-91987778D01*
X94514913Y-91959289D01*
X94513500Y-91930523D01*
X94513500Y-91167477D01*
X94514913Y-91138711D01*
X94519139Y-91110222D01*
X94526137Y-91082285D01*
X94535840Y-91055168D01*
X94548153Y-91029133D01*
X94562960Y-91004430D01*
X94580116Y-90981297D01*
X94599457Y-90959957D01*
X94620797Y-90940616D01*
X94643930Y-90923460D01*
X94668633Y-90908653D01*
X94694668Y-90896340D01*
X94721785Y-90886637D01*
X94749722Y-90879639D01*
X94778211Y-90875413D01*
X94806977Y-90874000D01*
X95820023Y-90874000D01*
X95848789Y-90875413D01*
X95848789Y-90875413D01*
G37*
D12*
X95313500Y-91549000D03*
D11*
G36*
X99214289Y-73264413D02*
G01*
X99242778Y-73268639D01*
X99270715Y-73275637D01*
X99297832Y-73285340D01*
X99323867Y-73297653D01*
X99348570Y-73312460D01*
X99371703Y-73329616D01*
X99393043Y-73348957D01*
X99412384Y-73370297D01*
X99429540Y-73393430D01*
X99444347Y-73418133D01*
X99456660Y-73444168D01*
X99466363Y-73471285D01*
X99473361Y-73499222D01*
X99477587Y-73527711D01*
X99479000Y-73556477D01*
X99479000Y-74319523D01*
X99477587Y-74348289D01*
X99473361Y-74376778D01*
X99466363Y-74404715D01*
X99456660Y-74431832D01*
X99444347Y-74457867D01*
X99429540Y-74482570D01*
X99412384Y-74505703D01*
X99393043Y-74527043D01*
X99371703Y-74546384D01*
X99348570Y-74563540D01*
X99323867Y-74578347D01*
X99297832Y-74590660D01*
X99270715Y-74600363D01*
X99242778Y-74607361D01*
X99214289Y-74611587D01*
X99185523Y-74613000D01*
X98172477Y-74613000D01*
X98143711Y-74611587D01*
X98115222Y-74607361D01*
X98087285Y-74600363D01*
X98060168Y-74590660D01*
X98034133Y-74578347D01*
X98009430Y-74563540D01*
X97986297Y-74546384D01*
X97964957Y-74527043D01*
X97945616Y-74505703D01*
X97928460Y-74482570D01*
X97913653Y-74457867D01*
X97901340Y-74431832D01*
X97891637Y-74404715D01*
X97884639Y-74376778D01*
X97880413Y-74348289D01*
X97879000Y-74319523D01*
X97879000Y-73556477D01*
X97880413Y-73527711D01*
X97884639Y-73499222D01*
X97891637Y-73471285D01*
X97901340Y-73444168D01*
X97913653Y-73418133D01*
X97928460Y-73393430D01*
X97945616Y-73370297D01*
X97964957Y-73348957D01*
X97986297Y-73329616D01*
X98009430Y-73312460D01*
X98034133Y-73297653D01*
X98060168Y-73285340D01*
X98087285Y-73275637D01*
X98115222Y-73268639D01*
X98143711Y-73264413D01*
X98172477Y-73263000D01*
X99185523Y-73263000D01*
X99214289Y-73264413D01*
X99214289Y-73264413D01*
G37*
D12*
X98679000Y-73938000D03*
D11*
G36*
X99214289Y-71214413D02*
G01*
X99242778Y-71218639D01*
X99270715Y-71225637D01*
X99297832Y-71235340D01*
X99323867Y-71247653D01*
X99348570Y-71262460D01*
X99371703Y-71279616D01*
X99393043Y-71298957D01*
X99412384Y-71320297D01*
X99429540Y-71343430D01*
X99444347Y-71368133D01*
X99456660Y-71394168D01*
X99466363Y-71421285D01*
X99473361Y-71449222D01*
X99477587Y-71477711D01*
X99479000Y-71506477D01*
X99479000Y-72269523D01*
X99477587Y-72298289D01*
X99473361Y-72326778D01*
X99466363Y-72354715D01*
X99456660Y-72381832D01*
X99444347Y-72407867D01*
X99429540Y-72432570D01*
X99412384Y-72455703D01*
X99393043Y-72477043D01*
X99371703Y-72496384D01*
X99348570Y-72513540D01*
X99323867Y-72528347D01*
X99297832Y-72540660D01*
X99270715Y-72550363D01*
X99242778Y-72557361D01*
X99214289Y-72561587D01*
X99185523Y-72563000D01*
X98172477Y-72563000D01*
X98143711Y-72561587D01*
X98115222Y-72557361D01*
X98087285Y-72550363D01*
X98060168Y-72540660D01*
X98034133Y-72528347D01*
X98009430Y-72513540D01*
X97986297Y-72496384D01*
X97964957Y-72477043D01*
X97945616Y-72455703D01*
X97928460Y-72432570D01*
X97913653Y-72407867D01*
X97901340Y-72381832D01*
X97891637Y-72354715D01*
X97884639Y-72326778D01*
X97880413Y-72298289D01*
X97879000Y-72269523D01*
X97879000Y-71506477D01*
X97880413Y-71477711D01*
X97884639Y-71449222D01*
X97891637Y-71421285D01*
X97901340Y-71394168D01*
X97913653Y-71368133D01*
X97928460Y-71343430D01*
X97945616Y-71320297D01*
X97964957Y-71298957D01*
X97986297Y-71279616D01*
X98009430Y-71262460D01*
X98034133Y-71247653D01*
X98060168Y-71235340D01*
X98087285Y-71225637D01*
X98115222Y-71218639D01*
X98143711Y-71214413D01*
X98172477Y-71213000D01*
X99185523Y-71213000D01*
X99214289Y-71214413D01*
X99214289Y-71214413D01*
G37*
D12*
X98679000Y-71888000D03*
D15*
X118968500Y-86042500D03*
X118968500Y-85092500D03*
X118968500Y-86992500D03*
X116268500Y-86992500D03*
X116268500Y-86042500D03*
X116268500Y-85092500D03*
D13*
X136271000Y-87693500D03*
X141351000Y-87693500D03*
X141351000Y-92773500D03*
X136271000Y-92773500D03*
D14*
X138811000Y-90233500D03*
D13*
X118491000Y-97282000D03*
X118491000Y-102362000D03*
X113411000Y-102362000D03*
X113411000Y-97282000D03*
D14*
X115951000Y-99822000D03*
D13*
X102679500Y-97282000D03*
X102679500Y-102362000D03*
X97599500Y-102362000D03*
X97599500Y-97282000D03*
D14*
X100139500Y-99822000D03*
D16*
X140779500Y-70612000D03*
D17*
X138239500Y-70612000D03*
D18*
X141546500Y-102679500D03*
D11*
G36*
X143144579Y-105199009D02*
G01*
X143138888Y-105217768D01*
X143129647Y-105235057D01*
X143117211Y-105250211D01*
X143102057Y-105262647D01*
X143084768Y-105271888D01*
X143066009Y-105277579D01*
X143046500Y-105279500D01*
X140046500Y-105279500D01*
X140026991Y-105277579D01*
X140008232Y-105271888D01*
X139990943Y-105262647D01*
X139975789Y-105250211D01*
X139963353Y-105235057D01*
X139954112Y-105217768D01*
X139948421Y-105199009D01*
X139946500Y-105179500D01*
X139946500Y-100179500D01*
X139948421Y-100159991D01*
X139954112Y-100141232D01*
X139963353Y-100123943D01*
X139975789Y-100108789D01*
X139990943Y-100096353D01*
X140008232Y-100087112D01*
X140026991Y-100081421D01*
X140046500Y-100079500D01*
X143046500Y-100079500D01*
X143066009Y-100081421D01*
X143084768Y-100087112D01*
X143102057Y-100096353D01*
X143117211Y-100108789D01*
X143129647Y-100123943D01*
X143138888Y-100141232D01*
X143144579Y-100159991D01*
X143146500Y-100179500D01*
X143146500Y-105179500D01*
X143144579Y-105199009D01*
X143144579Y-105199009D01*
G37*
D19*
X138828000Y-102679500D03*
D11*
G36*
X139676079Y-103249009D02*
G01*
X139670388Y-103267768D01*
X139661147Y-103285057D01*
X139648711Y-103300211D01*
X139633557Y-103312647D01*
X139616268Y-103321888D01*
X139597509Y-103327579D01*
X139578000Y-103329500D01*
X138078000Y-103329500D01*
X138058491Y-103327579D01*
X138039732Y-103321888D01*
X138022443Y-103312647D01*
X138007289Y-103300211D01*
X137994853Y-103285057D01*
X137985612Y-103267768D01*
X137979921Y-103249009D01*
X137978000Y-103229500D01*
X137978000Y-102129500D01*
X137979921Y-102109991D01*
X137985612Y-102091232D01*
X137994853Y-102073943D01*
X138007289Y-102058789D01*
X138022443Y-102046353D01*
X138039732Y-102037112D01*
X138058491Y-102031421D01*
X138078000Y-102029500D01*
X139578000Y-102029500D01*
X139597509Y-102031421D01*
X139616268Y-102037112D01*
X139633557Y-102046353D01*
X139648711Y-102058789D01*
X139661147Y-102073943D01*
X139670388Y-102091232D01*
X139676079Y-102109991D01*
X139678000Y-102129500D01*
X139678000Y-103229500D01*
X139676079Y-103249009D01*
X139676079Y-103249009D01*
G37*
D20*
X138828000Y-104179500D03*
D11*
G36*
X139676079Y-104599009D02*
G01*
X139670388Y-104617768D01*
X139661147Y-104635057D01*
X139648711Y-104650211D01*
X139633557Y-104662647D01*
X139616268Y-104671888D01*
X139597509Y-104677579D01*
X139578000Y-104679500D01*
X138078000Y-104679500D01*
X138058491Y-104677579D01*
X138039732Y-104671888D01*
X138022443Y-104662647D01*
X138007289Y-104650211D01*
X137994853Y-104635057D01*
X137985612Y-104617768D01*
X137979921Y-104599009D01*
X137978000Y-104579500D01*
X137978000Y-103779500D01*
X137979921Y-103759991D01*
X137985612Y-103741232D01*
X137994853Y-103723943D01*
X138007289Y-103708789D01*
X138022443Y-103696353D01*
X138039732Y-103687112D01*
X138058491Y-103681421D01*
X138078000Y-103679500D01*
X139578000Y-103679500D01*
X139597509Y-103681421D01*
X139616268Y-103687112D01*
X139633557Y-103696353D01*
X139648711Y-103708789D01*
X139661147Y-103723943D01*
X139670388Y-103741232D01*
X139676079Y-103759991D01*
X139678000Y-103779500D01*
X139678000Y-104579500D01*
X139676079Y-104599009D01*
X139676079Y-104599009D01*
G37*
D20*
X138828000Y-101179500D03*
D11*
G36*
X139676079Y-101599009D02*
G01*
X139670388Y-101617768D01*
X139661147Y-101635057D01*
X139648711Y-101650211D01*
X139633557Y-101662647D01*
X139616268Y-101671888D01*
X139597509Y-101677579D01*
X139578000Y-101679500D01*
X138078000Y-101679500D01*
X138058491Y-101677579D01*
X138039732Y-101671888D01*
X138022443Y-101662647D01*
X138007289Y-101650211D01*
X137994853Y-101635057D01*
X137985612Y-101617768D01*
X137979921Y-101599009D01*
X137978000Y-101579500D01*
X137978000Y-100779500D01*
X137979921Y-100759991D01*
X137985612Y-100741232D01*
X137994853Y-100723943D01*
X138007289Y-100708789D01*
X138022443Y-100696353D01*
X138039732Y-100687112D01*
X138058491Y-100681421D01*
X138078000Y-100679500D01*
X139578000Y-100679500D01*
X139597509Y-100681421D01*
X139616268Y-100687112D01*
X139633557Y-100696353D01*
X139648711Y-100708789D01*
X139661147Y-100723943D01*
X139670388Y-100741232D01*
X139676079Y-100759991D01*
X139678000Y-100779500D01*
X139678000Y-101579500D01*
X139676079Y-101599009D01*
X139676079Y-101599009D01*
G37*
G36*
X82588289Y-106833913D02*
G01*
X82616778Y-106838139D01*
X82644715Y-106845137D01*
X82671832Y-106854840D01*
X82697867Y-106867153D01*
X82722570Y-106881960D01*
X82745703Y-106899116D01*
X82767043Y-106918457D01*
X82786384Y-106939797D01*
X82803540Y-106962930D01*
X82818347Y-106987633D01*
X82830660Y-107013668D01*
X82840363Y-107040785D01*
X82847361Y-107068722D01*
X82851587Y-107097211D01*
X82853000Y-107125977D01*
X82853000Y-108139023D01*
X82851587Y-108167789D01*
X82847361Y-108196278D01*
X82840363Y-108224215D01*
X82830660Y-108251332D01*
X82818347Y-108277367D01*
X82803540Y-108302070D01*
X82786384Y-108325203D01*
X82767043Y-108346543D01*
X82745703Y-108365884D01*
X82722570Y-108383040D01*
X82697867Y-108397847D01*
X82671832Y-108410160D01*
X82644715Y-108419863D01*
X82616778Y-108426861D01*
X82588289Y-108431087D01*
X82559523Y-108432500D01*
X81796477Y-108432500D01*
X81767711Y-108431087D01*
X81739222Y-108426861D01*
X81711285Y-108419863D01*
X81684168Y-108410160D01*
X81658133Y-108397847D01*
X81633430Y-108383040D01*
X81610297Y-108365884D01*
X81588957Y-108346543D01*
X81569616Y-108325203D01*
X81552460Y-108302070D01*
X81537653Y-108277367D01*
X81525340Y-108251332D01*
X81515637Y-108224215D01*
X81508639Y-108196278D01*
X81504413Y-108167789D01*
X81503000Y-108139023D01*
X81503000Y-107125977D01*
X81504413Y-107097211D01*
X81508639Y-107068722D01*
X81515637Y-107040785D01*
X81525340Y-107013668D01*
X81537653Y-106987633D01*
X81552460Y-106962930D01*
X81569616Y-106939797D01*
X81588957Y-106918457D01*
X81610297Y-106899116D01*
X81633430Y-106881960D01*
X81658133Y-106867153D01*
X81684168Y-106854840D01*
X81711285Y-106845137D01*
X81739222Y-106838139D01*
X81767711Y-106833913D01*
X81796477Y-106832500D01*
X82559523Y-106832500D01*
X82588289Y-106833913D01*
X82588289Y-106833913D01*
G37*
D12*
X82178000Y-107632500D03*
D11*
G36*
X80538289Y-106833913D02*
G01*
X80566778Y-106838139D01*
X80594715Y-106845137D01*
X80621832Y-106854840D01*
X80647867Y-106867153D01*
X80672570Y-106881960D01*
X80695703Y-106899116D01*
X80717043Y-106918457D01*
X80736384Y-106939797D01*
X80753540Y-106962930D01*
X80768347Y-106987633D01*
X80780660Y-107013668D01*
X80790363Y-107040785D01*
X80797361Y-107068722D01*
X80801587Y-107097211D01*
X80803000Y-107125977D01*
X80803000Y-108139023D01*
X80801587Y-108167789D01*
X80797361Y-108196278D01*
X80790363Y-108224215D01*
X80780660Y-108251332D01*
X80768347Y-108277367D01*
X80753540Y-108302070D01*
X80736384Y-108325203D01*
X80717043Y-108346543D01*
X80695703Y-108365884D01*
X80672570Y-108383040D01*
X80647867Y-108397847D01*
X80621832Y-108410160D01*
X80594715Y-108419863D01*
X80566778Y-108426861D01*
X80538289Y-108431087D01*
X80509523Y-108432500D01*
X79746477Y-108432500D01*
X79717711Y-108431087D01*
X79689222Y-108426861D01*
X79661285Y-108419863D01*
X79634168Y-108410160D01*
X79608133Y-108397847D01*
X79583430Y-108383040D01*
X79560297Y-108365884D01*
X79538957Y-108346543D01*
X79519616Y-108325203D01*
X79502460Y-108302070D01*
X79487653Y-108277367D01*
X79475340Y-108251332D01*
X79465637Y-108224215D01*
X79458639Y-108196278D01*
X79454413Y-108167789D01*
X79453000Y-108139023D01*
X79453000Y-107125977D01*
X79454413Y-107097211D01*
X79458639Y-107068722D01*
X79465637Y-107040785D01*
X79475340Y-107013668D01*
X79487653Y-106987633D01*
X79502460Y-106962930D01*
X79519616Y-106939797D01*
X79538957Y-106918457D01*
X79560297Y-106899116D01*
X79583430Y-106881960D01*
X79608133Y-106867153D01*
X79634168Y-106854840D01*
X79661285Y-106845137D01*
X79689222Y-106838139D01*
X79717711Y-106833913D01*
X79746477Y-106832500D01*
X80509523Y-106832500D01*
X80538289Y-106833913D01*
X80538289Y-106833913D01*
G37*
D12*
X80128000Y-107632500D03*
D11*
G36*
X82597289Y-103404913D02*
G01*
X82625778Y-103409139D01*
X82653715Y-103416137D01*
X82680832Y-103425840D01*
X82706867Y-103438153D01*
X82731570Y-103452960D01*
X82754703Y-103470116D01*
X82776043Y-103489457D01*
X82795384Y-103510797D01*
X82812540Y-103533930D01*
X82827347Y-103558633D01*
X82839660Y-103584668D01*
X82849363Y-103611785D01*
X82856361Y-103639722D01*
X82860587Y-103668211D01*
X82862000Y-103696977D01*
X82862000Y-104710023D01*
X82860587Y-104738789D01*
X82856361Y-104767278D01*
X82849363Y-104795215D01*
X82839660Y-104822332D01*
X82827347Y-104848367D01*
X82812540Y-104873070D01*
X82795384Y-104896203D01*
X82776043Y-104917543D01*
X82754703Y-104936884D01*
X82731570Y-104954040D01*
X82706867Y-104968847D01*
X82680832Y-104981160D01*
X82653715Y-104990863D01*
X82625778Y-104997861D01*
X82597289Y-105002087D01*
X82568523Y-105003500D01*
X81805477Y-105003500D01*
X81776711Y-105002087D01*
X81748222Y-104997861D01*
X81720285Y-104990863D01*
X81693168Y-104981160D01*
X81667133Y-104968847D01*
X81642430Y-104954040D01*
X81619297Y-104936884D01*
X81597957Y-104917543D01*
X81578616Y-104896203D01*
X81561460Y-104873070D01*
X81546653Y-104848367D01*
X81534340Y-104822332D01*
X81524637Y-104795215D01*
X81517639Y-104767278D01*
X81513413Y-104738789D01*
X81512000Y-104710023D01*
X81512000Y-103696977D01*
X81513413Y-103668211D01*
X81517639Y-103639722D01*
X81524637Y-103611785D01*
X81534340Y-103584668D01*
X81546653Y-103558633D01*
X81561460Y-103533930D01*
X81578616Y-103510797D01*
X81597957Y-103489457D01*
X81619297Y-103470116D01*
X81642430Y-103452960D01*
X81667133Y-103438153D01*
X81693168Y-103425840D01*
X81720285Y-103416137D01*
X81748222Y-103409139D01*
X81776711Y-103404913D01*
X81805477Y-103403500D01*
X82568523Y-103403500D01*
X82597289Y-103404913D01*
X82597289Y-103404913D01*
G37*
D12*
X82187000Y-104203500D03*
D11*
G36*
X80547289Y-103404913D02*
G01*
X80575778Y-103409139D01*
X80603715Y-103416137D01*
X80630832Y-103425840D01*
X80656867Y-103438153D01*
X80681570Y-103452960D01*
X80704703Y-103470116D01*
X80726043Y-103489457D01*
X80745384Y-103510797D01*
X80762540Y-103533930D01*
X80777347Y-103558633D01*
X80789660Y-103584668D01*
X80799363Y-103611785D01*
X80806361Y-103639722D01*
X80810587Y-103668211D01*
X80812000Y-103696977D01*
X80812000Y-104710023D01*
X80810587Y-104738789D01*
X80806361Y-104767278D01*
X80799363Y-104795215D01*
X80789660Y-104822332D01*
X80777347Y-104848367D01*
X80762540Y-104873070D01*
X80745384Y-104896203D01*
X80726043Y-104917543D01*
X80704703Y-104936884D01*
X80681570Y-104954040D01*
X80656867Y-104968847D01*
X80630832Y-104981160D01*
X80603715Y-104990863D01*
X80575778Y-104997861D01*
X80547289Y-105002087D01*
X80518523Y-105003500D01*
X79755477Y-105003500D01*
X79726711Y-105002087D01*
X79698222Y-104997861D01*
X79670285Y-104990863D01*
X79643168Y-104981160D01*
X79617133Y-104968847D01*
X79592430Y-104954040D01*
X79569297Y-104936884D01*
X79547957Y-104917543D01*
X79528616Y-104896203D01*
X79511460Y-104873070D01*
X79496653Y-104848367D01*
X79484340Y-104822332D01*
X79474637Y-104795215D01*
X79467639Y-104767278D01*
X79463413Y-104738789D01*
X79462000Y-104710023D01*
X79462000Y-103696977D01*
X79463413Y-103668211D01*
X79467639Y-103639722D01*
X79474637Y-103611785D01*
X79484340Y-103584668D01*
X79496653Y-103558633D01*
X79511460Y-103533930D01*
X79528616Y-103510797D01*
X79547957Y-103489457D01*
X79569297Y-103470116D01*
X79592430Y-103452960D01*
X79617133Y-103438153D01*
X79643168Y-103425840D01*
X79670285Y-103416137D01*
X79698222Y-103409139D01*
X79726711Y-103404913D01*
X79755477Y-103403500D01*
X80518523Y-103403500D01*
X80547289Y-103404913D01*
X80547289Y-103404913D01*
G37*
D12*
X80137000Y-104203500D03*
D11*
G36*
X82579289Y-100039413D02*
G01*
X82607778Y-100043639D01*
X82635715Y-100050637D01*
X82662832Y-100060340D01*
X82688867Y-100072653D01*
X82713570Y-100087460D01*
X82736703Y-100104616D01*
X82758043Y-100123957D01*
X82777384Y-100145297D01*
X82794540Y-100168430D01*
X82809347Y-100193133D01*
X82821660Y-100219168D01*
X82831363Y-100246285D01*
X82838361Y-100274222D01*
X82842587Y-100302711D01*
X82844000Y-100331477D01*
X82844000Y-101344523D01*
X82842587Y-101373289D01*
X82838361Y-101401778D01*
X82831363Y-101429715D01*
X82821660Y-101456832D01*
X82809347Y-101482867D01*
X82794540Y-101507570D01*
X82777384Y-101530703D01*
X82758043Y-101552043D01*
X82736703Y-101571384D01*
X82713570Y-101588540D01*
X82688867Y-101603347D01*
X82662832Y-101615660D01*
X82635715Y-101625363D01*
X82607778Y-101632361D01*
X82579289Y-101636587D01*
X82550523Y-101638000D01*
X81787477Y-101638000D01*
X81758711Y-101636587D01*
X81730222Y-101632361D01*
X81702285Y-101625363D01*
X81675168Y-101615660D01*
X81649133Y-101603347D01*
X81624430Y-101588540D01*
X81601297Y-101571384D01*
X81579957Y-101552043D01*
X81560616Y-101530703D01*
X81543460Y-101507570D01*
X81528653Y-101482867D01*
X81516340Y-101456832D01*
X81506637Y-101429715D01*
X81499639Y-101401778D01*
X81495413Y-101373289D01*
X81494000Y-101344523D01*
X81494000Y-100331477D01*
X81495413Y-100302711D01*
X81499639Y-100274222D01*
X81506637Y-100246285D01*
X81516340Y-100219168D01*
X81528653Y-100193133D01*
X81543460Y-100168430D01*
X81560616Y-100145297D01*
X81579957Y-100123957D01*
X81601297Y-100104616D01*
X81624430Y-100087460D01*
X81649133Y-100072653D01*
X81675168Y-100060340D01*
X81702285Y-100050637D01*
X81730222Y-100043639D01*
X81758711Y-100039413D01*
X81787477Y-100038000D01*
X82550523Y-100038000D01*
X82579289Y-100039413D01*
X82579289Y-100039413D01*
G37*
D12*
X82169000Y-100838000D03*
D11*
G36*
X80529289Y-100039413D02*
G01*
X80557778Y-100043639D01*
X80585715Y-100050637D01*
X80612832Y-100060340D01*
X80638867Y-100072653D01*
X80663570Y-100087460D01*
X80686703Y-100104616D01*
X80708043Y-100123957D01*
X80727384Y-100145297D01*
X80744540Y-100168430D01*
X80759347Y-100193133D01*
X80771660Y-100219168D01*
X80781363Y-100246285D01*
X80788361Y-100274222D01*
X80792587Y-100302711D01*
X80794000Y-100331477D01*
X80794000Y-101344523D01*
X80792587Y-101373289D01*
X80788361Y-101401778D01*
X80781363Y-101429715D01*
X80771660Y-101456832D01*
X80759347Y-101482867D01*
X80744540Y-101507570D01*
X80727384Y-101530703D01*
X80708043Y-101552043D01*
X80686703Y-101571384D01*
X80663570Y-101588540D01*
X80638867Y-101603347D01*
X80612832Y-101615660D01*
X80585715Y-101625363D01*
X80557778Y-101632361D01*
X80529289Y-101636587D01*
X80500523Y-101638000D01*
X79737477Y-101638000D01*
X79708711Y-101636587D01*
X79680222Y-101632361D01*
X79652285Y-101625363D01*
X79625168Y-101615660D01*
X79599133Y-101603347D01*
X79574430Y-101588540D01*
X79551297Y-101571384D01*
X79529957Y-101552043D01*
X79510616Y-101530703D01*
X79493460Y-101507570D01*
X79478653Y-101482867D01*
X79466340Y-101456832D01*
X79456637Y-101429715D01*
X79449639Y-101401778D01*
X79445413Y-101373289D01*
X79444000Y-101344523D01*
X79444000Y-100331477D01*
X79445413Y-100302711D01*
X79449639Y-100274222D01*
X79456637Y-100246285D01*
X79466340Y-100219168D01*
X79478653Y-100193133D01*
X79493460Y-100168430D01*
X79510616Y-100145297D01*
X79529957Y-100123957D01*
X79551297Y-100104616D01*
X79574430Y-100087460D01*
X79599133Y-100072653D01*
X79625168Y-100060340D01*
X79652285Y-100050637D01*
X79680222Y-100043639D01*
X79708711Y-100039413D01*
X79737477Y-100038000D01*
X80500523Y-100038000D01*
X80529289Y-100039413D01*
X80529289Y-100039413D01*
G37*
D12*
X80119000Y-100838000D03*
D11*
G36*
X82579289Y-96610413D02*
G01*
X82607778Y-96614639D01*
X82635715Y-96621637D01*
X82662832Y-96631340D01*
X82688867Y-96643653D01*
X82713570Y-96658460D01*
X82736703Y-96675616D01*
X82758043Y-96694957D01*
X82777384Y-96716297D01*
X82794540Y-96739430D01*
X82809347Y-96764133D01*
X82821660Y-96790168D01*
X82831363Y-96817285D01*
X82838361Y-96845222D01*
X82842587Y-96873711D01*
X82844000Y-96902477D01*
X82844000Y-97915523D01*
X82842587Y-97944289D01*
X82838361Y-97972778D01*
X82831363Y-98000715D01*
X82821660Y-98027832D01*
X82809347Y-98053867D01*
X82794540Y-98078570D01*
X82777384Y-98101703D01*
X82758043Y-98123043D01*
X82736703Y-98142384D01*
X82713570Y-98159540D01*
X82688867Y-98174347D01*
X82662832Y-98186660D01*
X82635715Y-98196363D01*
X82607778Y-98203361D01*
X82579289Y-98207587D01*
X82550523Y-98209000D01*
X81787477Y-98209000D01*
X81758711Y-98207587D01*
X81730222Y-98203361D01*
X81702285Y-98196363D01*
X81675168Y-98186660D01*
X81649133Y-98174347D01*
X81624430Y-98159540D01*
X81601297Y-98142384D01*
X81579957Y-98123043D01*
X81560616Y-98101703D01*
X81543460Y-98078570D01*
X81528653Y-98053867D01*
X81516340Y-98027832D01*
X81506637Y-98000715D01*
X81499639Y-97972778D01*
X81495413Y-97944289D01*
X81494000Y-97915523D01*
X81494000Y-96902477D01*
X81495413Y-96873711D01*
X81499639Y-96845222D01*
X81506637Y-96817285D01*
X81516340Y-96790168D01*
X81528653Y-96764133D01*
X81543460Y-96739430D01*
X81560616Y-96716297D01*
X81579957Y-96694957D01*
X81601297Y-96675616D01*
X81624430Y-96658460D01*
X81649133Y-96643653D01*
X81675168Y-96631340D01*
X81702285Y-96621637D01*
X81730222Y-96614639D01*
X81758711Y-96610413D01*
X81787477Y-96609000D01*
X82550523Y-96609000D01*
X82579289Y-96610413D01*
X82579289Y-96610413D01*
G37*
D12*
X82169000Y-97409000D03*
D11*
G36*
X80529289Y-96610413D02*
G01*
X80557778Y-96614639D01*
X80585715Y-96621637D01*
X80612832Y-96631340D01*
X80638867Y-96643653D01*
X80663570Y-96658460D01*
X80686703Y-96675616D01*
X80708043Y-96694957D01*
X80727384Y-96716297D01*
X80744540Y-96739430D01*
X80759347Y-96764133D01*
X80771660Y-96790168D01*
X80781363Y-96817285D01*
X80788361Y-96845222D01*
X80792587Y-96873711D01*
X80794000Y-96902477D01*
X80794000Y-97915523D01*
X80792587Y-97944289D01*
X80788361Y-97972778D01*
X80781363Y-98000715D01*
X80771660Y-98027832D01*
X80759347Y-98053867D01*
X80744540Y-98078570D01*
X80727384Y-98101703D01*
X80708043Y-98123043D01*
X80686703Y-98142384D01*
X80663570Y-98159540D01*
X80638867Y-98174347D01*
X80612832Y-98186660D01*
X80585715Y-98196363D01*
X80557778Y-98203361D01*
X80529289Y-98207587D01*
X80500523Y-98209000D01*
X79737477Y-98209000D01*
X79708711Y-98207587D01*
X79680222Y-98203361D01*
X79652285Y-98196363D01*
X79625168Y-98186660D01*
X79599133Y-98174347D01*
X79574430Y-98159540D01*
X79551297Y-98142384D01*
X79529957Y-98123043D01*
X79510616Y-98101703D01*
X79493460Y-98078570D01*
X79478653Y-98053867D01*
X79466340Y-98027832D01*
X79456637Y-98000715D01*
X79449639Y-97972778D01*
X79445413Y-97944289D01*
X79444000Y-97915523D01*
X79444000Y-96902477D01*
X79445413Y-96873711D01*
X79449639Y-96845222D01*
X79456637Y-96817285D01*
X79466340Y-96790168D01*
X79478653Y-96764133D01*
X79493460Y-96739430D01*
X79510616Y-96716297D01*
X79529957Y-96694957D01*
X79551297Y-96675616D01*
X79574430Y-96658460D01*
X79599133Y-96643653D01*
X79625168Y-96631340D01*
X79652285Y-96621637D01*
X79680222Y-96614639D01*
X79708711Y-96610413D01*
X79737477Y-96609000D01*
X80500523Y-96609000D01*
X80529289Y-96610413D01*
X80529289Y-96610413D01*
G37*
D12*
X80119000Y-97409000D03*
D11*
G36*
X125133289Y-104103413D02*
G01*
X125161778Y-104107639D01*
X125189715Y-104114637D01*
X125216832Y-104124340D01*
X125242867Y-104136653D01*
X125267570Y-104151460D01*
X125290703Y-104168616D01*
X125312043Y-104187957D01*
X125331384Y-104209297D01*
X125348540Y-104232430D01*
X125363347Y-104257133D01*
X125375660Y-104283168D01*
X125385363Y-104310285D01*
X125392361Y-104338222D01*
X125396587Y-104366711D01*
X125398000Y-104395477D01*
X125398000Y-105408523D01*
X125396587Y-105437289D01*
X125392361Y-105465778D01*
X125385363Y-105493715D01*
X125375660Y-105520832D01*
X125363347Y-105546867D01*
X125348540Y-105571570D01*
X125331384Y-105594703D01*
X125312043Y-105616043D01*
X125290703Y-105635384D01*
X125267570Y-105652540D01*
X125242867Y-105667347D01*
X125216832Y-105679660D01*
X125189715Y-105689363D01*
X125161778Y-105696361D01*
X125133289Y-105700587D01*
X125104523Y-105702000D01*
X124341477Y-105702000D01*
X124312711Y-105700587D01*
X124284222Y-105696361D01*
X124256285Y-105689363D01*
X124229168Y-105679660D01*
X124203133Y-105667347D01*
X124178430Y-105652540D01*
X124155297Y-105635384D01*
X124133957Y-105616043D01*
X124114616Y-105594703D01*
X124097460Y-105571570D01*
X124082653Y-105546867D01*
X124070340Y-105520832D01*
X124060637Y-105493715D01*
X124053639Y-105465778D01*
X124049413Y-105437289D01*
X124048000Y-105408523D01*
X124048000Y-104395477D01*
X124049413Y-104366711D01*
X124053639Y-104338222D01*
X124060637Y-104310285D01*
X124070340Y-104283168D01*
X124082653Y-104257133D01*
X124097460Y-104232430D01*
X124114616Y-104209297D01*
X124133957Y-104187957D01*
X124155297Y-104168616D01*
X124178430Y-104151460D01*
X124203133Y-104136653D01*
X124229168Y-104124340D01*
X124256285Y-104114637D01*
X124284222Y-104107639D01*
X124312711Y-104103413D01*
X124341477Y-104102000D01*
X125104523Y-104102000D01*
X125133289Y-104103413D01*
X125133289Y-104103413D01*
G37*
D12*
X124723000Y-104902000D03*
D11*
G36*
X123083289Y-104103413D02*
G01*
X123111778Y-104107639D01*
X123139715Y-104114637D01*
X123166832Y-104124340D01*
X123192867Y-104136653D01*
X123217570Y-104151460D01*
X123240703Y-104168616D01*
X123262043Y-104187957D01*
X123281384Y-104209297D01*
X123298540Y-104232430D01*
X123313347Y-104257133D01*
X123325660Y-104283168D01*
X123335363Y-104310285D01*
X123342361Y-104338222D01*
X123346587Y-104366711D01*
X123348000Y-104395477D01*
X123348000Y-105408523D01*
X123346587Y-105437289D01*
X123342361Y-105465778D01*
X123335363Y-105493715D01*
X123325660Y-105520832D01*
X123313347Y-105546867D01*
X123298540Y-105571570D01*
X123281384Y-105594703D01*
X123262043Y-105616043D01*
X123240703Y-105635384D01*
X123217570Y-105652540D01*
X123192867Y-105667347D01*
X123166832Y-105679660D01*
X123139715Y-105689363D01*
X123111778Y-105696361D01*
X123083289Y-105700587D01*
X123054523Y-105702000D01*
X122291477Y-105702000D01*
X122262711Y-105700587D01*
X122234222Y-105696361D01*
X122206285Y-105689363D01*
X122179168Y-105679660D01*
X122153133Y-105667347D01*
X122128430Y-105652540D01*
X122105297Y-105635384D01*
X122083957Y-105616043D01*
X122064616Y-105594703D01*
X122047460Y-105571570D01*
X122032653Y-105546867D01*
X122020340Y-105520832D01*
X122010637Y-105493715D01*
X122003639Y-105465778D01*
X121999413Y-105437289D01*
X121998000Y-105408523D01*
X121998000Y-104395477D01*
X121999413Y-104366711D01*
X122003639Y-104338222D01*
X122010637Y-104310285D01*
X122020340Y-104283168D01*
X122032653Y-104257133D01*
X122047460Y-104232430D01*
X122064616Y-104209297D01*
X122083957Y-104187957D01*
X122105297Y-104168616D01*
X122128430Y-104151460D01*
X122153133Y-104136653D01*
X122179168Y-104124340D01*
X122206285Y-104114637D01*
X122234222Y-104107639D01*
X122262711Y-104103413D01*
X122291477Y-104102000D01*
X123054523Y-104102000D01*
X123083289Y-104103413D01*
X123083289Y-104103413D01*
G37*
D12*
X122673000Y-104902000D03*
D11*
G36*
X98960289Y-109072413D02*
G01*
X98988778Y-109076639D01*
X99016715Y-109083637D01*
X99043832Y-109093340D01*
X99069867Y-109105653D01*
X99094570Y-109120460D01*
X99117703Y-109137616D01*
X99139043Y-109156957D01*
X99158384Y-109178297D01*
X99175540Y-109201430D01*
X99190347Y-109226133D01*
X99202660Y-109252168D01*
X99212363Y-109279285D01*
X99219361Y-109307222D01*
X99223587Y-109335711D01*
X99225000Y-109364477D01*
X99225000Y-110127523D01*
X99223587Y-110156289D01*
X99219361Y-110184778D01*
X99212363Y-110212715D01*
X99202660Y-110239832D01*
X99190347Y-110265867D01*
X99175540Y-110290570D01*
X99158384Y-110313703D01*
X99139043Y-110335043D01*
X99117703Y-110354384D01*
X99094570Y-110371540D01*
X99069867Y-110386347D01*
X99043832Y-110398660D01*
X99016715Y-110408363D01*
X98988778Y-110415361D01*
X98960289Y-110419587D01*
X98931523Y-110421000D01*
X97918477Y-110421000D01*
X97889711Y-110419587D01*
X97861222Y-110415361D01*
X97833285Y-110408363D01*
X97806168Y-110398660D01*
X97780133Y-110386347D01*
X97755430Y-110371540D01*
X97732297Y-110354384D01*
X97710957Y-110335043D01*
X97691616Y-110313703D01*
X97674460Y-110290570D01*
X97659653Y-110265867D01*
X97647340Y-110239832D01*
X97637637Y-110212715D01*
X97630639Y-110184778D01*
X97626413Y-110156289D01*
X97625000Y-110127523D01*
X97625000Y-109364477D01*
X97626413Y-109335711D01*
X97630639Y-109307222D01*
X97637637Y-109279285D01*
X97647340Y-109252168D01*
X97659653Y-109226133D01*
X97674460Y-109201430D01*
X97691616Y-109178297D01*
X97710957Y-109156957D01*
X97732297Y-109137616D01*
X97755430Y-109120460D01*
X97780133Y-109105653D01*
X97806168Y-109093340D01*
X97833285Y-109083637D01*
X97861222Y-109076639D01*
X97889711Y-109072413D01*
X97918477Y-109071000D01*
X98931523Y-109071000D01*
X98960289Y-109072413D01*
X98960289Y-109072413D01*
G37*
D12*
X98425000Y-109746000D03*
D11*
G36*
X98960289Y-107022413D02*
G01*
X98988778Y-107026639D01*
X99016715Y-107033637D01*
X99043832Y-107043340D01*
X99069867Y-107055653D01*
X99094570Y-107070460D01*
X99117703Y-107087616D01*
X99139043Y-107106957D01*
X99158384Y-107128297D01*
X99175540Y-107151430D01*
X99190347Y-107176133D01*
X99202660Y-107202168D01*
X99212363Y-107229285D01*
X99219361Y-107257222D01*
X99223587Y-107285711D01*
X99225000Y-107314477D01*
X99225000Y-108077523D01*
X99223587Y-108106289D01*
X99219361Y-108134778D01*
X99212363Y-108162715D01*
X99202660Y-108189832D01*
X99190347Y-108215867D01*
X99175540Y-108240570D01*
X99158384Y-108263703D01*
X99139043Y-108285043D01*
X99117703Y-108304384D01*
X99094570Y-108321540D01*
X99069867Y-108336347D01*
X99043832Y-108348660D01*
X99016715Y-108358363D01*
X98988778Y-108365361D01*
X98960289Y-108369587D01*
X98931523Y-108371000D01*
X97918477Y-108371000D01*
X97889711Y-108369587D01*
X97861222Y-108365361D01*
X97833285Y-108358363D01*
X97806168Y-108348660D01*
X97780133Y-108336347D01*
X97755430Y-108321540D01*
X97732297Y-108304384D01*
X97710957Y-108285043D01*
X97691616Y-108263703D01*
X97674460Y-108240570D01*
X97659653Y-108215867D01*
X97647340Y-108189832D01*
X97637637Y-108162715D01*
X97630639Y-108134778D01*
X97626413Y-108106289D01*
X97625000Y-108077523D01*
X97625000Y-107314477D01*
X97626413Y-107285711D01*
X97630639Y-107257222D01*
X97637637Y-107229285D01*
X97647340Y-107202168D01*
X97659653Y-107176133D01*
X97674460Y-107151430D01*
X97691616Y-107128297D01*
X97710957Y-107106957D01*
X97732297Y-107087616D01*
X97755430Y-107070460D01*
X97780133Y-107055653D01*
X97806168Y-107043340D01*
X97833285Y-107033637D01*
X97861222Y-107026639D01*
X97889711Y-107022413D01*
X97918477Y-107021000D01*
X98931523Y-107021000D01*
X98960289Y-107022413D01*
X98960289Y-107022413D01*
G37*
D12*
X98425000Y-107696000D03*
D11*
G36*
X133885289Y-109054413D02*
G01*
X133913778Y-109058639D01*
X133941715Y-109065637D01*
X133968832Y-109075340D01*
X133994867Y-109087653D01*
X134019570Y-109102460D01*
X134042703Y-109119616D01*
X134064043Y-109138957D01*
X134083384Y-109160297D01*
X134100540Y-109183430D01*
X134115347Y-109208133D01*
X134127660Y-109234168D01*
X134137363Y-109261285D01*
X134144361Y-109289222D01*
X134148587Y-109317711D01*
X134150000Y-109346477D01*
X134150000Y-110109523D01*
X134148587Y-110138289D01*
X134144361Y-110166778D01*
X134137363Y-110194715D01*
X134127660Y-110221832D01*
X134115347Y-110247867D01*
X134100540Y-110272570D01*
X134083384Y-110295703D01*
X134064043Y-110317043D01*
X134042703Y-110336384D01*
X134019570Y-110353540D01*
X133994867Y-110368347D01*
X133968832Y-110380660D01*
X133941715Y-110390363D01*
X133913778Y-110397361D01*
X133885289Y-110401587D01*
X133856523Y-110403000D01*
X132843477Y-110403000D01*
X132814711Y-110401587D01*
X132786222Y-110397361D01*
X132758285Y-110390363D01*
X132731168Y-110380660D01*
X132705133Y-110368347D01*
X132680430Y-110353540D01*
X132657297Y-110336384D01*
X132635957Y-110317043D01*
X132616616Y-110295703D01*
X132599460Y-110272570D01*
X132584653Y-110247867D01*
X132572340Y-110221832D01*
X132562637Y-110194715D01*
X132555639Y-110166778D01*
X132551413Y-110138289D01*
X132550000Y-110109523D01*
X132550000Y-109346477D01*
X132551413Y-109317711D01*
X132555639Y-109289222D01*
X132562637Y-109261285D01*
X132572340Y-109234168D01*
X132584653Y-109208133D01*
X132599460Y-109183430D01*
X132616616Y-109160297D01*
X132635957Y-109138957D01*
X132657297Y-109119616D01*
X132680430Y-109102460D01*
X132705133Y-109087653D01*
X132731168Y-109075340D01*
X132758285Y-109065637D01*
X132786222Y-109058639D01*
X132814711Y-109054413D01*
X132843477Y-109053000D01*
X133856523Y-109053000D01*
X133885289Y-109054413D01*
X133885289Y-109054413D01*
G37*
D12*
X133350000Y-109728000D03*
D11*
G36*
X133885289Y-107004413D02*
G01*
X133913778Y-107008639D01*
X133941715Y-107015637D01*
X133968832Y-107025340D01*
X133994867Y-107037653D01*
X134019570Y-107052460D01*
X134042703Y-107069616D01*
X134064043Y-107088957D01*
X134083384Y-107110297D01*
X134100540Y-107133430D01*
X134115347Y-107158133D01*
X134127660Y-107184168D01*
X134137363Y-107211285D01*
X134144361Y-107239222D01*
X134148587Y-107267711D01*
X134150000Y-107296477D01*
X134150000Y-108059523D01*
X134148587Y-108088289D01*
X134144361Y-108116778D01*
X134137363Y-108144715D01*
X134127660Y-108171832D01*
X134115347Y-108197867D01*
X134100540Y-108222570D01*
X134083384Y-108245703D01*
X134064043Y-108267043D01*
X134042703Y-108286384D01*
X134019570Y-108303540D01*
X133994867Y-108318347D01*
X133968832Y-108330660D01*
X133941715Y-108340363D01*
X133913778Y-108347361D01*
X133885289Y-108351587D01*
X133856523Y-108353000D01*
X132843477Y-108353000D01*
X132814711Y-108351587D01*
X132786222Y-108347361D01*
X132758285Y-108340363D01*
X132731168Y-108330660D01*
X132705133Y-108318347D01*
X132680430Y-108303540D01*
X132657297Y-108286384D01*
X132635957Y-108267043D01*
X132616616Y-108245703D01*
X132599460Y-108222570D01*
X132584653Y-108197867D01*
X132572340Y-108171832D01*
X132562637Y-108144715D01*
X132555639Y-108116778D01*
X132551413Y-108088289D01*
X132550000Y-108059523D01*
X132550000Y-107296477D01*
X132551413Y-107267711D01*
X132555639Y-107239222D01*
X132562637Y-107211285D01*
X132572340Y-107184168D01*
X132584653Y-107158133D01*
X132599460Y-107133430D01*
X132616616Y-107110297D01*
X132635957Y-107088957D01*
X132657297Y-107069616D01*
X132680430Y-107052460D01*
X132705133Y-107037653D01*
X132731168Y-107025340D01*
X132758285Y-107015637D01*
X132786222Y-107008639D01*
X132814711Y-107004413D01*
X132843477Y-107003000D01*
X133856523Y-107003000D01*
X133885289Y-107004413D01*
X133885289Y-107004413D01*
G37*
D12*
X133350000Y-107678000D03*
D11*
G36*
X118010289Y-80179913D02*
G01*
X118038778Y-80184139D01*
X118066715Y-80191137D01*
X118093832Y-80200840D01*
X118119867Y-80213153D01*
X118144570Y-80227960D01*
X118167703Y-80245116D01*
X118189043Y-80264457D01*
X118208384Y-80285797D01*
X118225540Y-80308930D01*
X118240347Y-80333633D01*
X118252660Y-80359668D01*
X118262363Y-80386785D01*
X118269361Y-80414722D01*
X118273587Y-80443211D01*
X118275000Y-80471977D01*
X118275000Y-81235023D01*
X118273587Y-81263789D01*
X118269361Y-81292278D01*
X118262363Y-81320215D01*
X118252660Y-81347332D01*
X118240347Y-81373367D01*
X118225540Y-81398070D01*
X118208384Y-81421203D01*
X118189043Y-81442543D01*
X118167703Y-81461884D01*
X118144570Y-81479040D01*
X118119867Y-81493847D01*
X118093832Y-81506160D01*
X118066715Y-81515863D01*
X118038778Y-81522861D01*
X118010289Y-81527087D01*
X117981523Y-81528500D01*
X116968477Y-81528500D01*
X116939711Y-81527087D01*
X116911222Y-81522861D01*
X116883285Y-81515863D01*
X116856168Y-81506160D01*
X116830133Y-81493847D01*
X116805430Y-81479040D01*
X116782297Y-81461884D01*
X116760957Y-81442543D01*
X116741616Y-81421203D01*
X116724460Y-81398070D01*
X116709653Y-81373367D01*
X116697340Y-81347332D01*
X116687637Y-81320215D01*
X116680639Y-81292278D01*
X116676413Y-81263789D01*
X116675000Y-81235023D01*
X116675000Y-80471977D01*
X116676413Y-80443211D01*
X116680639Y-80414722D01*
X116687637Y-80386785D01*
X116697340Y-80359668D01*
X116709653Y-80333633D01*
X116724460Y-80308930D01*
X116741616Y-80285797D01*
X116760957Y-80264457D01*
X116782297Y-80245116D01*
X116805430Y-80227960D01*
X116830133Y-80213153D01*
X116856168Y-80200840D01*
X116883285Y-80191137D01*
X116911222Y-80184139D01*
X116939711Y-80179913D01*
X116968477Y-80178500D01*
X117981523Y-80178500D01*
X118010289Y-80179913D01*
X118010289Y-80179913D01*
G37*
D12*
X117475000Y-80853500D03*
D11*
G36*
X118010289Y-78129913D02*
G01*
X118038778Y-78134139D01*
X118066715Y-78141137D01*
X118093832Y-78150840D01*
X118119867Y-78163153D01*
X118144570Y-78177960D01*
X118167703Y-78195116D01*
X118189043Y-78214457D01*
X118208384Y-78235797D01*
X118225540Y-78258930D01*
X118240347Y-78283633D01*
X118252660Y-78309668D01*
X118262363Y-78336785D01*
X118269361Y-78364722D01*
X118273587Y-78393211D01*
X118275000Y-78421977D01*
X118275000Y-79185023D01*
X118273587Y-79213789D01*
X118269361Y-79242278D01*
X118262363Y-79270215D01*
X118252660Y-79297332D01*
X118240347Y-79323367D01*
X118225540Y-79348070D01*
X118208384Y-79371203D01*
X118189043Y-79392543D01*
X118167703Y-79411884D01*
X118144570Y-79429040D01*
X118119867Y-79443847D01*
X118093832Y-79456160D01*
X118066715Y-79465863D01*
X118038778Y-79472861D01*
X118010289Y-79477087D01*
X117981523Y-79478500D01*
X116968477Y-79478500D01*
X116939711Y-79477087D01*
X116911222Y-79472861D01*
X116883285Y-79465863D01*
X116856168Y-79456160D01*
X116830133Y-79443847D01*
X116805430Y-79429040D01*
X116782297Y-79411884D01*
X116760957Y-79392543D01*
X116741616Y-79371203D01*
X116724460Y-79348070D01*
X116709653Y-79323367D01*
X116697340Y-79297332D01*
X116687637Y-79270215D01*
X116680639Y-79242278D01*
X116676413Y-79213789D01*
X116675000Y-79185023D01*
X116675000Y-78421977D01*
X116676413Y-78393211D01*
X116680639Y-78364722D01*
X116687637Y-78336785D01*
X116697340Y-78309668D01*
X116709653Y-78283633D01*
X116724460Y-78258930D01*
X116741616Y-78235797D01*
X116760957Y-78214457D01*
X116782297Y-78195116D01*
X116805430Y-78177960D01*
X116830133Y-78163153D01*
X116856168Y-78150840D01*
X116883285Y-78141137D01*
X116911222Y-78134139D01*
X116939711Y-78129913D01*
X116968477Y-78128500D01*
X117981523Y-78128500D01*
X118010289Y-78129913D01*
X118010289Y-78129913D01*
G37*
D12*
X117475000Y-78803500D03*
D11*
G36*
X112106789Y-78004913D02*
G01*
X112135278Y-78009139D01*
X112163215Y-78016137D01*
X112190332Y-78025840D01*
X112216367Y-78038153D01*
X112241070Y-78052960D01*
X112264203Y-78070116D01*
X112285543Y-78089457D01*
X112304884Y-78110797D01*
X112322040Y-78133930D01*
X112336847Y-78158633D01*
X112349160Y-78184668D01*
X112358863Y-78211785D01*
X112365861Y-78239722D01*
X112370087Y-78268211D01*
X112371500Y-78296977D01*
X112371500Y-79310023D01*
X112370087Y-79338789D01*
X112365861Y-79367278D01*
X112358863Y-79395215D01*
X112349160Y-79422332D01*
X112336847Y-79448367D01*
X112322040Y-79473070D01*
X112304884Y-79496203D01*
X112285543Y-79517543D01*
X112264203Y-79536884D01*
X112241070Y-79554040D01*
X112216367Y-79568847D01*
X112190332Y-79581160D01*
X112163215Y-79590863D01*
X112135278Y-79597861D01*
X112106789Y-79602087D01*
X112078023Y-79603500D01*
X111314977Y-79603500D01*
X111286211Y-79602087D01*
X111257722Y-79597861D01*
X111229785Y-79590863D01*
X111202668Y-79581160D01*
X111176633Y-79568847D01*
X111151930Y-79554040D01*
X111128797Y-79536884D01*
X111107457Y-79517543D01*
X111088116Y-79496203D01*
X111070960Y-79473070D01*
X111056153Y-79448367D01*
X111043840Y-79422332D01*
X111034137Y-79395215D01*
X111027139Y-79367278D01*
X111022913Y-79338789D01*
X111021500Y-79310023D01*
X111021500Y-78296977D01*
X111022913Y-78268211D01*
X111027139Y-78239722D01*
X111034137Y-78211785D01*
X111043840Y-78184668D01*
X111056153Y-78158633D01*
X111070960Y-78133930D01*
X111088116Y-78110797D01*
X111107457Y-78089457D01*
X111128797Y-78070116D01*
X111151930Y-78052960D01*
X111176633Y-78038153D01*
X111202668Y-78025840D01*
X111229785Y-78016137D01*
X111257722Y-78009139D01*
X111286211Y-78004913D01*
X111314977Y-78003500D01*
X112078023Y-78003500D01*
X112106789Y-78004913D01*
X112106789Y-78004913D01*
G37*
D12*
X111696500Y-78803500D03*
D11*
G36*
X110056789Y-78004913D02*
G01*
X110085278Y-78009139D01*
X110113215Y-78016137D01*
X110140332Y-78025840D01*
X110166367Y-78038153D01*
X110191070Y-78052960D01*
X110214203Y-78070116D01*
X110235543Y-78089457D01*
X110254884Y-78110797D01*
X110272040Y-78133930D01*
X110286847Y-78158633D01*
X110299160Y-78184668D01*
X110308863Y-78211785D01*
X110315861Y-78239722D01*
X110320087Y-78268211D01*
X110321500Y-78296977D01*
X110321500Y-79310023D01*
X110320087Y-79338789D01*
X110315861Y-79367278D01*
X110308863Y-79395215D01*
X110299160Y-79422332D01*
X110286847Y-79448367D01*
X110272040Y-79473070D01*
X110254884Y-79496203D01*
X110235543Y-79517543D01*
X110214203Y-79536884D01*
X110191070Y-79554040D01*
X110166367Y-79568847D01*
X110140332Y-79581160D01*
X110113215Y-79590863D01*
X110085278Y-79597861D01*
X110056789Y-79602087D01*
X110028023Y-79603500D01*
X109264977Y-79603500D01*
X109236211Y-79602087D01*
X109207722Y-79597861D01*
X109179785Y-79590863D01*
X109152668Y-79581160D01*
X109126633Y-79568847D01*
X109101930Y-79554040D01*
X109078797Y-79536884D01*
X109057457Y-79517543D01*
X109038116Y-79496203D01*
X109020960Y-79473070D01*
X109006153Y-79448367D01*
X108993840Y-79422332D01*
X108984137Y-79395215D01*
X108977139Y-79367278D01*
X108972913Y-79338789D01*
X108971500Y-79310023D01*
X108971500Y-78296977D01*
X108972913Y-78268211D01*
X108977139Y-78239722D01*
X108984137Y-78211785D01*
X108993840Y-78184668D01*
X109006153Y-78158633D01*
X109020960Y-78133930D01*
X109038116Y-78110797D01*
X109057457Y-78089457D01*
X109078797Y-78070116D01*
X109101930Y-78052960D01*
X109126633Y-78038153D01*
X109152668Y-78025840D01*
X109179785Y-78016137D01*
X109207722Y-78009139D01*
X109236211Y-78004913D01*
X109264977Y-78003500D01*
X110028023Y-78003500D01*
X110056789Y-78004913D01*
X110056789Y-78004913D01*
G37*
D12*
X109646500Y-78803500D03*
D11*
G36*
X102579789Y-80179913D02*
G01*
X102608278Y-80184139D01*
X102636215Y-80191137D01*
X102663332Y-80200840D01*
X102689367Y-80213153D01*
X102714070Y-80227960D01*
X102737203Y-80245116D01*
X102758543Y-80264457D01*
X102777884Y-80285797D01*
X102795040Y-80308930D01*
X102809847Y-80333633D01*
X102822160Y-80359668D01*
X102831863Y-80386785D01*
X102838861Y-80414722D01*
X102843087Y-80443211D01*
X102844500Y-80471977D01*
X102844500Y-81235023D01*
X102843087Y-81263789D01*
X102838861Y-81292278D01*
X102831863Y-81320215D01*
X102822160Y-81347332D01*
X102809847Y-81373367D01*
X102795040Y-81398070D01*
X102777884Y-81421203D01*
X102758543Y-81442543D01*
X102737203Y-81461884D01*
X102714070Y-81479040D01*
X102689367Y-81493847D01*
X102663332Y-81506160D01*
X102636215Y-81515863D01*
X102608278Y-81522861D01*
X102579789Y-81527087D01*
X102551023Y-81528500D01*
X101537977Y-81528500D01*
X101509211Y-81527087D01*
X101480722Y-81522861D01*
X101452785Y-81515863D01*
X101425668Y-81506160D01*
X101399633Y-81493847D01*
X101374930Y-81479040D01*
X101351797Y-81461884D01*
X101330457Y-81442543D01*
X101311116Y-81421203D01*
X101293960Y-81398070D01*
X101279153Y-81373367D01*
X101266840Y-81347332D01*
X101257137Y-81320215D01*
X101250139Y-81292278D01*
X101245913Y-81263789D01*
X101244500Y-81235023D01*
X101244500Y-80471977D01*
X101245913Y-80443211D01*
X101250139Y-80414722D01*
X101257137Y-80386785D01*
X101266840Y-80359668D01*
X101279153Y-80333633D01*
X101293960Y-80308930D01*
X101311116Y-80285797D01*
X101330457Y-80264457D01*
X101351797Y-80245116D01*
X101374930Y-80227960D01*
X101399633Y-80213153D01*
X101425668Y-80200840D01*
X101452785Y-80191137D01*
X101480722Y-80184139D01*
X101509211Y-80179913D01*
X101537977Y-80178500D01*
X102551023Y-80178500D01*
X102579789Y-80179913D01*
X102579789Y-80179913D01*
G37*
D12*
X102044500Y-80853500D03*
D11*
G36*
X102579789Y-78129913D02*
G01*
X102608278Y-78134139D01*
X102636215Y-78141137D01*
X102663332Y-78150840D01*
X102689367Y-78163153D01*
X102714070Y-78177960D01*
X102737203Y-78195116D01*
X102758543Y-78214457D01*
X102777884Y-78235797D01*
X102795040Y-78258930D01*
X102809847Y-78283633D01*
X102822160Y-78309668D01*
X102831863Y-78336785D01*
X102838861Y-78364722D01*
X102843087Y-78393211D01*
X102844500Y-78421977D01*
X102844500Y-79185023D01*
X102843087Y-79213789D01*
X102838861Y-79242278D01*
X102831863Y-79270215D01*
X102822160Y-79297332D01*
X102809847Y-79323367D01*
X102795040Y-79348070D01*
X102777884Y-79371203D01*
X102758543Y-79392543D01*
X102737203Y-79411884D01*
X102714070Y-79429040D01*
X102689367Y-79443847D01*
X102663332Y-79456160D01*
X102636215Y-79465863D01*
X102608278Y-79472861D01*
X102579789Y-79477087D01*
X102551023Y-79478500D01*
X101537977Y-79478500D01*
X101509211Y-79477087D01*
X101480722Y-79472861D01*
X101452785Y-79465863D01*
X101425668Y-79456160D01*
X101399633Y-79443847D01*
X101374930Y-79429040D01*
X101351797Y-79411884D01*
X101330457Y-79392543D01*
X101311116Y-79371203D01*
X101293960Y-79348070D01*
X101279153Y-79323367D01*
X101266840Y-79297332D01*
X101257137Y-79270215D01*
X101250139Y-79242278D01*
X101245913Y-79213789D01*
X101244500Y-79185023D01*
X101244500Y-78421977D01*
X101245913Y-78393211D01*
X101250139Y-78364722D01*
X101257137Y-78336785D01*
X101266840Y-78309668D01*
X101279153Y-78283633D01*
X101293960Y-78258930D01*
X101311116Y-78235797D01*
X101330457Y-78214457D01*
X101351797Y-78195116D01*
X101374930Y-78177960D01*
X101399633Y-78163153D01*
X101425668Y-78150840D01*
X101452785Y-78141137D01*
X101480722Y-78134139D01*
X101509211Y-78129913D01*
X101537977Y-78128500D01*
X102551023Y-78128500D01*
X102579789Y-78129913D01*
X102579789Y-78129913D01*
G37*
D12*
X102044500Y-78803500D03*
D11*
G36*
X110517289Y-92943413D02*
G01*
X110545778Y-92947639D01*
X110573715Y-92954637D01*
X110600832Y-92964340D01*
X110626867Y-92976653D01*
X110651570Y-92991460D01*
X110674703Y-93008616D01*
X110696043Y-93027957D01*
X110715384Y-93049297D01*
X110732540Y-93072430D01*
X110747347Y-93097133D01*
X110759660Y-93123168D01*
X110769363Y-93150285D01*
X110776361Y-93178222D01*
X110780587Y-93206711D01*
X110782000Y-93235477D01*
X110782000Y-93998523D01*
X110780587Y-94027289D01*
X110776361Y-94055778D01*
X110769363Y-94083715D01*
X110759660Y-94110832D01*
X110747347Y-94136867D01*
X110732540Y-94161570D01*
X110715384Y-94184703D01*
X110696043Y-94206043D01*
X110674703Y-94225384D01*
X110651570Y-94242540D01*
X110626867Y-94257347D01*
X110600832Y-94269660D01*
X110573715Y-94279363D01*
X110545778Y-94286361D01*
X110517289Y-94290587D01*
X110488523Y-94292000D01*
X109475477Y-94292000D01*
X109446711Y-94290587D01*
X109418222Y-94286361D01*
X109390285Y-94279363D01*
X109363168Y-94269660D01*
X109337133Y-94257347D01*
X109312430Y-94242540D01*
X109289297Y-94225384D01*
X109267957Y-94206043D01*
X109248616Y-94184703D01*
X109231460Y-94161570D01*
X109216653Y-94136867D01*
X109204340Y-94110832D01*
X109194637Y-94083715D01*
X109187639Y-94055778D01*
X109183413Y-94027289D01*
X109182000Y-93998523D01*
X109182000Y-93235477D01*
X109183413Y-93206711D01*
X109187639Y-93178222D01*
X109194637Y-93150285D01*
X109204340Y-93123168D01*
X109216653Y-93097133D01*
X109231460Y-93072430D01*
X109248616Y-93049297D01*
X109267957Y-93027957D01*
X109289297Y-93008616D01*
X109312430Y-92991460D01*
X109337133Y-92976653D01*
X109363168Y-92964340D01*
X109390285Y-92954637D01*
X109418222Y-92947639D01*
X109446711Y-92943413D01*
X109475477Y-92942000D01*
X110488523Y-92942000D01*
X110517289Y-92943413D01*
X110517289Y-92943413D01*
G37*
D12*
X109982000Y-93617000D03*
D11*
G36*
X110517289Y-90893413D02*
G01*
X110545778Y-90897639D01*
X110573715Y-90904637D01*
X110600832Y-90914340D01*
X110626867Y-90926653D01*
X110651570Y-90941460D01*
X110674703Y-90958616D01*
X110696043Y-90977957D01*
X110715384Y-90999297D01*
X110732540Y-91022430D01*
X110747347Y-91047133D01*
X110759660Y-91073168D01*
X110769363Y-91100285D01*
X110776361Y-91128222D01*
X110780587Y-91156711D01*
X110782000Y-91185477D01*
X110782000Y-91948523D01*
X110780587Y-91977289D01*
X110776361Y-92005778D01*
X110769363Y-92033715D01*
X110759660Y-92060832D01*
X110747347Y-92086867D01*
X110732540Y-92111570D01*
X110715384Y-92134703D01*
X110696043Y-92156043D01*
X110674703Y-92175384D01*
X110651570Y-92192540D01*
X110626867Y-92207347D01*
X110600832Y-92219660D01*
X110573715Y-92229363D01*
X110545778Y-92236361D01*
X110517289Y-92240587D01*
X110488523Y-92242000D01*
X109475477Y-92242000D01*
X109446711Y-92240587D01*
X109418222Y-92236361D01*
X109390285Y-92229363D01*
X109363168Y-92219660D01*
X109337133Y-92207347D01*
X109312430Y-92192540D01*
X109289297Y-92175384D01*
X109267957Y-92156043D01*
X109248616Y-92134703D01*
X109231460Y-92111570D01*
X109216653Y-92086867D01*
X109204340Y-92060832D01*
X109194637Y-92033715D01*
X109187639Y-92005778D01*
X109183413Y-91977289D01*
X109182000Y-91948523D01*
X109182000Y-91185477D01*
X109183413Y-91156711D01*
X109187639Y-91128222D01*
X109194637Y-91100285D01*
X109204340Y-91073168D01*
X109216653Y-91047133D01*
X109231460Y-91022430D01*
X109248616Y-90999297D01*
X109267957Y-90977957D01*
X109289297Y-90958616D01*
X109312430Y-90941460D01*
X109337133Y-90926653D01*
X109363168Y-90914340D01*
X109390285Y-90904637D01*
X109418222Y-90897639D01*
X109446711Y-90893413D01*
X109475477Y-90892000D01*
X110488523Y-90892000D01*
X110517289Y-90893413D01*
X110517289Y-90893413D01*
G37*
D12*
X109982000Y-91567000D03*
D11*
G36*
X118137289Y-73367413D02*
G01*
X118165778Y-73371639D01*
X118193715Y-73378637D01*
X118220832Y-73388340D01*
X118246867Y-73400653D01*
X118271570Y-73415460D01*
X118294703Y-73432616D01*
X118316043Y-73451957D01*
X118335384Y-73473297D01*
X118352540Y-73496430D01*
X118367347Y-73521133D01*
X118379660Y-73547168D01*
X118389363Y-73574285D01*
X118396361Y-73602222D01*
X118400587Y-73630711D01*
X118402000Y-73659477D01*
X118402000Y-74422523D01*
X118400587Y-74451289D01*
X118396361Y-74479778D01*
X118389363Y-74507715D01*
X118379660Y-74534832D01*
X118367347Y-74560867D01*
X118352540Y-74585570D01*
X118335384Y-74608703D01*
X118316043Y-74630043D01*
X118294703Y-74649384D01*
X118271570Y-74666540D01*
X118246867Y-74681347D01*
X118220832Y-74693660D01*
X118193715Y-74703363D01*
X118165778Y-74710361D01*
X118137289Y-74714587D01*
X118108523Y-74716000D01*
X117095477Y-74716000D01*
X117066711Y-74714587D01*
X117038222Y-74710361D01*
X117010285Y-74703363D01*
X116983168Y-74693660D01*
X116957133Y-74681347D01*
X116932430Y-74666540D01*
X116909297Y-74649384D01*
X116887957Y-74630043D01*
X116868616Y-74608703D01*
X116851460Y-74585570D01*
X116836653Y-74560867D01*
X116824340Y-74534832D01*
X116814637Y-74507715D01*
X116807639Y-74479778D01*
X116803413Y-74451289D01*
X116802000Y-74422523D01*
X116802000Y-73659477D01*
X116803413Y-73630711D01*
X116807639Y-73602222D01*
X116814637Y-73574285D01*
X116824340Y-73547168D01*
X116836653Y-73521133D01*
X116851460Y-73496430D01*
X116868616Y-73473297D01*
X116887957Y-73451957D01*
X116909297Y-73432616D01*
X116932430Y-73415460D01*
X116957133Y-73400653D01*
X116983168Y-73388340D01*
X117010285Y-73378637D01*
X117038222Y-73371639D01*
X117066711Y-73367413D01*
X117095477Y-73366000D01*
X118108523Y-73366000D01*
X118137289Y-73367413D01*
X118137289Y-73367413D01*
G37*
D12*
X117602000Y-74041000D03*
D11*
G36*
X118137289Y-71317413D02*
G01*
X118165778Y-71321639D01*
X118193715Y-71328637D01*
X118220832Y-71338340D01*
X118246867Y-71350653D01*
X118271570Y-71365460D01*
X118294703Y-71382616D01*
X118316043Y-71401957D01*
X118335384Y-71423297D01*
X118352540Y-71446430D01*
X118367347Y-71471133D01*
X118379660Y-71497168D01*
X118389363Y-71524285D01*
X118396361Y-71552222D01*
X118400587Y-71580711D01*
X118402000Y-71609477D01*
X118402000Y-72372523D01*
X118400587Y-72401289D01*
X118396361Y-72429778D01*
X118389363Y-72457715D01*
X118379660Y-72484832D01*
X118367347Y-72510867D01*
X118352540Y-72535570D01*
X118335384Y-72558703D01*
X118316043Y-72580043D01*
X118294703Y-72599384D01*
X118271570Y-72616540D01*
X118246867Y-72631347D01*
X118220832Y-72643660D01*
X118193715Y-72653363D01*
X118165778Y-72660361D01*
X118137289Y-72664587D01*
X118108523Y-72666000D01*
X117095477Y-72666000D01*
X117066711Y-72664587D01*
X117038222Y-72660361D01*
X117010285Y-72653363D01*
X116983168Y-72643660D01*
X116957133Y-72631347D01*
X116932430Y-72616540D01*
X116909297Y-72599384D01*
X116887957Y-72580043D01*
X116868616Y-72558703D01*
X116851460Y-72535570D01*
X116836653Y-72510867D01*
X116824340Y-72484832D01*
X116814637Y-72457715D01*
X116807639Y-72429778D01*
X116803413Y-72401289D01*
X116802000Y-72372523D01*
X116802000Y-71609477D01*
X116803413Y-71580711D01*
X116807639Y-71552222D01*
X116814637Y-71524285D01*
X116824340Y-71497168D01*
X116836653Y-71471133D01*
X116851460Y-71446430D01*
X116868616Y-71423297D01*
X116887957Y-71401957D01*
X116909297Y-71382616D01*
X116932430Y-71365460D01*
X116957133Y-71350653D01*
X116983168Y-71338340D01*
X117010285Y-71328637D01*
X117038222Y-71321639D01*
X117066711Y-71317413D01*
X117095477Y-71316000D01*
X118108523Y-71316000D01*
X118137289Y-71317413D01*
X118137289Y-71317413D01*
G37*
D12*
X117602000Y-71991000D03*
D11*
G36*
X106219289Y-90768413D02*
G01*
X106247778Y-90772639D01*
X106275715Y-90779637D01*
X106302832Y-90789340D01*
X106328867Y-90801653D01*
X106353570Y-90816460D01*
X106376703Y-90833616D01*
X106398043Y-90852957D01*
X106417384Y-90874297D01*
X106434540Y-90897430D01*
X106449347Y-90922133D01*
X106461660Y-90948168D01*
X106471363Y-90975285D01*
X106478361Y-91003222D01*
X106482587Y-91031711D01*
X106484000Y-91060477D01*
X106484000Y-92073523D01*
X106482587Y-92102289D01*
X106478361Y-92130778D01*
X106471363Y-92158715D01*
X106461660Y-92185832D01*
X106449347Y-92211867D01*
X106434540Y-92236570D01*
X106417384Y-92259703D01*
X106398043Y-92281043D01*
X106376703Y-92300384D01*
X106353570Y-92317540D01*
X106328867Y-92332347D01*
X106302832Y-92344660D01*
X106275715Y-92354363D01*
X106247778Y-92361361D01*
X106219289Y-92365587D01*
X106190523Y-92367000D01*
X105427477Y-92367000D01*
X105398711Y-92365587D01*
X105370222Y-92361361D01*
X105342285Y-92354363D01*
X105315168Y-92344660D01*
X105289133Y-92332347D01*
X105264430Y-92317540D01*
X105241297Y-92300384D01*
X105219957Y-92281043D01*
X105200616Y-92259703D01*
X105183460Y-92236570D01*
X105168653Y-92211867D01*
X105156340Y-92185832D01*
X105146637Y-92158715D01*
X105139639Y-92130778D01*
X105135413Y-92102289D01*
X105134000Y-92073523D01*
X105134000Y-91060477D01*
X105135413Y-91031711D01*
X105139639Y-91003222D01*
X105146637Y-90975285D01*
X105156340Y-90948168D01*
X105168653Y-90922133D01*
X105183460Y-90897430D01*
X105200616Y-90874297D01*
X105219957Y-90852957D01*
X105241297Y-90833616D01*
X105264430Y-90816460D01*
X105289133Y-90801653D01*
X105315168Y-90789340D01*
X105342285Y-90779637D01*
X105370222Y-90772639D01*
X105398711Y-90768413D01*
X105427477Y-90767000D01*
X106190523Y-90767000D01*
X106219289Y-90768413D01*
X106219289Y-90768413D01*
G37*
D12*
X105809000Y-91567000D03*
D11*
G36*
X104169289Y-90768413D02*
G01*
X104197778Y-90772639D01*
X104225715Y-90779637D01*
X104252832Y-90789340D01*
X104278867Y-90801653D01*
X104303570Y-90816460D01*
X104326703Y-90833616D01*
X104348043Y-90852957D01*
X104367384Y-90874297D01*
X104384540Y-90897430D01*
X104399347Y-90922133D01*
X104411660Y-90948168D01*
X104421363Y-90975285D01*
X104428361Y-91003222D01*
X104432587Y-91031711D01*
X104434000Y-91060477D01*
X104434000Y-92073523D01*
X104432587Y-92102289D01*
X104428361Y-92130778D01*
X104421363Y-92158715D01*
X104411660Y-92185832D01*
X104399347Y-92211867D01*
X104384540Y-92236570D01*
X104367384Y-92259703D01*
X104348043Y-92281043D01*
X104326703Y-92300384D01*
X104303570Y-92317540D01*
X104278867Y-92332347D01*
X104252832Y-92344660D01*
X104225715Y-92354363D01*
X104197778Y-92361361D01*
X104169289Y-92365587D01*
X104140523Y-92367000D01*
X103377477Y-92367000D01*
X103348711Y-92365587D01*
X103320222Y-92361361D01*
X103292285Y-92354363D01*
X103265168Y-92344660D01*
X103239133Y-92332347D01*
X103214430Y-92317540D01*
X103191297Y-92300384D01*
X103169957Y-92281043D01*
X103150616Y-92259703D01*
X103133460Y-92236570D01*
X103118653Y-92211867D01*
X103106340Y-92185832D01*
X103096637Y-92158715D01*
X103089639Y-92130778D01*
X103085413Y-92102289D01*
X103084000Y-92073523D01*
X103084000Y-91060477D01*
X103085413Y-91031711D01*
X103089639Y-91003222D01*
X103096637Y-90975285D01*
X103106340Y-90948168D01*
X103118653Y-90922133D01*
X103133460Y-90897430D01*
X103150616Y-90874297D01*
X103169957Y-90852957D01*
X103191297Y-90833616D01*
X103214430Y-90816460D01*
X103239133Y-90801653D01*
X103265168Y-90789340D01*
X103292285Y-90779637D01*
X103320222Y-90772639D01*
X103348711Y-90768413D01*
X103377477Y-90767000D01*
X104140523Y-90767000D01*
X104169289Y-90768413D01*
X104169289Y-90768413D01*
G37*
D12*
X103759000Y-91567000D03*
D11*
G36*
X112061289Y-71146913D02*
G01*
X112089778Y-71151139D01*
X112117715Y-71158137D01*
X112144832Y-71167840D01*
X112170867Y-71180153D01*
X112195570Y-71194960D01*
X112218703Y-71212116D01*
X112240043Y-71231457D01*
X112259384Y-71252797D01*
X112276540Y-71275930D01*
X112291347Y-71300633D01*
X112303660Y-71326668D01*
X112313363Y-71353785D01*
X112320361Y-71381722D01*
X112324587Y-71410211D01*
X112326000Y-71438977D01*
X112326000Y-72452023D01*
X112324587Y-72480789D01*
X112320361Y-72509278D01*
X112313363Y-72537215D01*
X112303660Y-72564332D01*
X112291347Y-72590367D01*
X112276540Y-72615070D01*
X112259384Y-72638203D01*
X112240043Y-72659543D01*
X112218703Y-72678884D01*
X112195570Y-72696040D01*
X112170867Y-72710847D01*
X112144832Y-72723160D01*
X112117715Y-72732863D01*
X112089778Y-72739861D01*
X112061289Y-72744087D01*
X112032523Y-72745500D01*
X111269477Y-72745500D01*
X111240711Y-72744087D01*
X111212222Y-72739861D01*
X111184285Y-72732863D01*
X111157168Y-72723160D01*
X111131133Y-72710847D01*
X111106430Y-72696040D01*
X111083297Y-72678884D01*
X111061957Y-72659543D01*
X111042616Y-72638203D01*
X111025460Y-72615070D01*
X111010653Y-72590367D01*
X110998340Y-72564332D01*
X110988637Y-72537215D01*
X110981639Y-72509278D01*
X110977413Y-72480789D01*
X110976000Y-72452023D01*
X110976000Y-71438977D01*
X110977413Y-71410211D01*
X110981639Y-71381722D01*
X110988637Y-71353785D01*
X110998340Y-71326668D01*
X111010653Y-71300633D01*
X111025460Y-71275930D01*
X111042616Y-71252797D01*
X111061957Y-71231457D01*
X111083297Y-71212116D01*
X111106430Y-71194960D01*
X111131133Y-71180153D01*
X111157168Y-71167840D01*
X111184285Y-71158137D01*
X111212222Y-71151139D01*
X111240711Y-71146913D01*
X111269477Y-71145500D01*
X112032523Y-71145500D01*
X112061289Y-71146913D01*
X112061289Y-71146913D01*
G37*
D12*
X111651000Y-71945500D03*
D11*
G36*
X110011289Y-71146913D02*
G01*
X110039778Y-71151139D01*
X110067715Y-71158137D01*
X110094832Y-71167840D01*
X110120867Y-71180153D01*
X110145570Y-71194960D01*
X110168703Y-71212116D01*
X110190043Y-71231457D01*
X110209384Y-71252797D01*
X110226540Y-71275930D01*
X110241347Y-71300633D01*
X110253660Y-71326668D01*
X110263363Y-71353785D01*
X110270361Y-71381722D01*
X110274587Y-71410211D01*
X110276000Y-71438977D01*
X110276000Y-72452023D01*
X110274587Y-72480789D01*
X110270361Y-72509278D01*
X110263363Y-72537215D01*
X110253660Y-72564332D01*
X110241347Y-72590367D01*
X110226540Y-72615070D01*
X110209384Y-72638203D01*
X110190043Y-72659543D01*
X110168703Y-72678884D01*
X110145570Y-72696040D01*
X110120867Y-72710847D01*
X110094832Y-72723160D01*
X110067715Y-72732863D01*
X110039778Y-72739861D01*
X110011289Y-72744087D01*
X109982523Y-72745500D01*
X109219477Y-72745500D01*
X109190711Y-72744087D01*
X109162222Y-72739861D01*
X109134285Y-72732863D01*
X109107168Y-72723160D01*
X109081133Y-72710847D01*
X109056430Y-72696040D01*
X109033297Y-72678884D01*
X109011957Y-72659543D01*
X108992616Y-72638203D01*
X108975460Y-72615070D01*
X108960653Y-72590367D01*
X108948340Y-72564332D01*
X108938637Y-72537215D01*
X108931639Y-72509278D01*
X108927413Y-72480789D01*
X108926000Y-72452023D01*
X108926000Y-71438977D01*
X108927413Y-71410211D01*
X108931639Y-71381722D01*
X108938637Y-71353785D01*
X108948340Y-71326668D01*
X108960653Y-71300633D01*
X108975460Y-71275930D01*
X108992616Y-71252797D01*
X109011957Y-71231457D01*
X109033297Y-71212116D01*
X109056430Y-71194960D01*
X109081133Y-71180153D01*
X109107168Y-71167840D01*
X109134285Y-71158137D01*
X109162222Y-71151139D01*
X109190711Y-71146913D01*
X109219477Y-71145500D01*
X109982523Y-71145500D01*
X110011289Y-71146913D01*
X110011289Y-71146913D01*
G37*
D12*
X109601000Y-71945500D03*
D11*
G36*
X98198289Y-92925413D02*
G01*
X98226778Y-92929639D01*
X98254715Y-92936637D01*
X98281832Y-92946340D01*
X98307867Y-92958653D01*
X98332570Y-92973460D01*
X98355703Y-92990616D01*
X98377043Y-93009957D01*
X98396384Y-93031297D01*
X98413540Y-93054430D01*
X98428347Y-93079133D01*
X98440660Y-93105168D01*
X98450363Y-93132285D01*
X98457361Y-93160222D01*
X98461587Y-93188711D01*
X98463000Y-93217477D01*
X98463000Y-93980523D01*
X98461587Y-94009289D01*
X98457361Y-94037778D01*
X98450363Y-94065715D01*
X98440660Y-94092832D01*
X98428347Y-94118867D01*
X98413540Y-94143570D01*
X98396384Y-94166703D01*
X98377043Y-94188043D01*
X98355703Y-94207384D01*
X98332570Y-94224540D01*
X98307867Y-94239347D01*
X98281832Y-94251660D01*
X98254715Y-94261363D01*
X98226778Y-94268361D01*
X98198289Y-94272587D01*
X98169523Y-94274000D01*
X97156477Y-94274000D01*
X97127711Y-94272587D01*
X97099222Y-94268361D01*
X97071285Y-94261363D01*
X97044168Y-94251660D01*
X97018133Y-94239347D01*
X96993430Y-94224540D01*
X96970297Y-94207384D01*
X96948957Y-94188043D01*
X96929616Y-94166703D01*
X96912460Y-94143570D01*
X96897653Y-94118867D01*
X96885340Y-94092832D01*
X96875637Y-94065715D01*
X96868639Y-94037778D01*
X96864413Y-94009289D01*
X96863000Y-93980523D01*
X96863000Y-93217477D01*
X96864413Y-93188711D01*
X96868639Y-93160222D01*
X96875637Y-93132285D01*
X96885340Y-93105168D01*
X96897653Y-93079133D01*
X96912460Y-93054430D01*
X96929616Y-93031297D01*
X96948957Y-93009957D01*
X96970297Y-92990616D01*
X96993430Y-92973460D01*
X97018133Y-92958653D01*
X97044168Y-92946340D01*
X97071285Y-92936637D01*
X97099222Y-92929639D01*
X97127711Y-92925413D01*
X97156477Y-92924000D01*
X98169523Y-92924000D01*
X98198289Y-92925413D01*
X98198289Y-92925413D01*
G37*
D12*
X97663000Y-93599000D03*
D11*
G36*
X98198289Y-90875413D02*
G01*
X98226778Y-90879639D01*
X98254715Y-90886637D01*
X98281832Y-90896340D01*
X98307867Y-90908653D01*
X98332570Y-90923460D01*
X98355703Y-90940616D01*
X98377043Y-90959957D01*
X98396384Y-90981297D01*
X98413540Y-91004430D01*
X98428347Y-91029133D01*
X98440660Y-91055168D01*
X98450363Y-91082285D01*
X98457361Y-91110222D01*
X98461587Y-91138711D01*
X98463000Y-91167477D01*
X98463000Y-91930523D01*
X98461587Y-91959289D01*
X98457361Y-91987778D01*
X98450363Y-92015715D01*
X98440660Y-92042832D01*
X98428347Y-92068867D01*
X98413540Y-92093570D01*
X98396384Y-92116703D01*
X98377043Y-92138043D01*
X98355703Y-92157384D01*
X98332570Y-92174540D01*
X98307867Y-92189347D01*
X98281832Y-92201660D01*
X98254715Y-92211363D01*
X98226778Y-92218361D01*
X98198289Y-92222587D01*
X98169523Y-92224000D01*
X97156477Y-92224000D01*
X97127711Y-92222587D01*
X97099222Y-92218361D01*
X97071285Y-92211363D01*
X97044168Y-92201660D01*
X97018133Y-92189347D01*
X96993430Y-92174540D01*
X96970297Y-92157384D01*
X96948957Y-92138043D01*
X96929616Y-92116703D01*
X96912460Y-92093570D01*
X96897653Y-92068867D01*
X96885340Y-92042832D01*
X96875637Y-92015715D01*
X96868639Y-91987778D01*
X96864413Y-91959289D01*
X96863000Y-91930523D01*
X96863000Y-91167477D01*
X96864413Y-91138711D01*
X96868639Y-91110222D01*
X96875637Y-91082285D01*
X96885340Y-91055168D01*
X96897653Y-91029133D01*
X96912460Y-91004430D01*
X96929616Y-90981297D01*
X96948957Y-90959957D01*
X96970297Y-90940616D01*
X96993430Y-90923460D01*
X97018133Y-90908653D01*
X97044168Y-90896340D01*
X97071285Y-90886637D01*
X97099222Y-90879639D01*
X97127711Y-90875413D01*
X97156477Y-90874000D01*
X98169523Y-90874000D01*
X98198289Y-90875413D01*
X98198289Y-90875413D01*
G37*
D12*
X97663000Y-91549000D03*
D11*
G36*
X102516289Y-73240413D02*
G01*
X102544778Y-73244639D01*
X102572715Y-73251637D01*
X102599832Y-73261340D01*
X102625867Y-73273653D01*
X102650570Y-73288460D01*
X102673703Y-73305616D01*
X102695043Y-73324957D01*
X102714384Y-73346297D01*
X102731540Y-73369430D01*
X102746347Y-73394133D01*
X102758660Y-73420168D01*
X102768363Y-73447285D01*
X102775361Y-73475222D01*
X102779587Y-73503711D01*
X102781000Y-73532477D01*
X102781000Y-74295523D01*
X102779587Y-74324289D01*
X102775361Y-74352778D01*
X102768363Y-74380715D01*
X102758660Y-74407832D01*
X102746347Y-74433867D01*
X102731540Y-74458570D01*
X102714384Y-74481703D01*
X102695043Y-74503043D01*
X102673703Y-74522384D01*
X102650570Y-74539540D01*
X102625867Y-74554347D01*
X102599832Y-74566660D01*
X102572715Y-74576363D01*
X102544778Y-74583361D01*
X102516289Y-74587587D01*
X102487523Y-74589000D01*
X101474477Y-74589000D01*
X101445711Y-74587587D01*
X101417222Y-74583361D01*
X101389285Y-74576363D01*
X101362168Y-74566660D01*
X101336133Y-74554347D01*
X101311430Y-74539540D01*
X101288297Y-74522384D01*
X101266957Y-74503043D01*
X101247616Y-74481703D01*
X101230460Y-74458570D01*
X101215653Y-74433867D01*
X101203340Y-74407832D01*
X101193637Y-74380715D01*
X101186639Y-74352778D01*
X101182413Y-74324289D01*
X101181000Y-74295523D01*
X101181000Y-73532477D01*
X101182413Y-73503711D01*
X101186639Y-73475222D01*
X101193637Y-73447285D01*
X101203340Y-73420168D01*
X101215653Y-73394133D01*
X101230460Y-73369430D01*
X101247616Y-73346297D01*
X101266957Y-73324957D01*
X101288297Y-73305616D01*
X101311430Y-73288460D01*
X101336133Y-73273653D01*
X101362168Y-73261340D01*
X101389285Y-73251637D01*
X101417222Y-73244639D01*
X101445711Y-73240413D01*
X101474477Y-73239000D01*
X102487523Y-73239000D01*
X102516289Y-73240413D01*
X102516289Y-73240413D01*
G37*
D12*
X101981000Y-73914000D03*
D11*
G36*
X102516289Y-71190413D02*
G01*
X102544778Y-71194639D01*
X102572715Y-71201637D01*
X102599832Y-71211340D01*
X102625867Y-71223653D01*
X102650570Y-71238460D01*
X102673703Y-71255616D01*
X102695043Y-71274957D01*
X102714384Y-71296297D01*
X102731540Y-71319430D01*
X102746347Y-71344133D01*
X102758660Y-71370168D01*
X102768363Y-71397285D01*
X102775361Y-71425222D01*
X102779587Y-71453711D01*
X102781000Y-71482477D01*
X102781000Y-72245523D01*
X102779587Y-72274289D01*
X102775361Y-72302778D01*
X102768363Y-72330715D01*
X102758660Y-72357832D01*
X102746347Y-72383867D01*
X102731540Y-72408570D01*
X102714384Y-72431703D01*
X102695043Y-72453043D01*
X102673703Y-72472384D01*
X102650570Y-72489540D01*
X102625867Y-72504347D01*
X102599832Y-72516660D01*
X102572715Y-72526363D01*
X102544778Y-72533361D01*
X102516289Y-72537587D01*
X102487523Y-72539000D01*
X101474477Y-72539000D01*
X101445711Y-72537587D01*
X101417222Y-72533361D01*
X101389285Y-72526363D01*
X101362168Y-72516660D01*
X101336133Y-72504347D01*
X101311430Y-72489540D01*
X101288297Y-72472384D01*
X101266957Y-72453043D01*
X101247616Y-72431703D01*
X101230460Y-72408570D01*
X101215653Y-72383867D01*
X101203340Y-72357832D01*
X101193637Y-72330715D01*
X101186639Y-72302778D01*
X101182413Y-72274289D01*
X101181000Y-72245523D01*
X101181000Y-71482477D01*
X101182413Y-71453711D01*
X101186639Y-71425222D01*
X101193637Y-71397285D01*
X101203340Y-71370168D01*
X101215653Y-71344133D01*
X101230460Y-71319430D01*
X101247616Y-71296297D01*
X101266957Y-71274957D01*
X101288297Y-71255616D01*
X101311430Y-71238460D01*
X101336133Y-71223653D01*
X101362168Y-71211340D01*
X101389285Y-71201637D01*
X101417222Y-71194639D01*
X101445711Y-71190413D01*
X101474477Y-71189000D01*
X102487523Y-71189000D01*
X102516289Y-71190413D01*
X102516289Y-71190413D01*
G37*
D12*
X101981000Y-71864000D03*
D16*
X83058000Y-92837000D03*
D17*
X80518000Y-92837000D03*
D16*
X99822000Y-87503000D03*
D17*
X102362000Y-87503000D03*
D16*
X128587500Y-101854000D03*
D17*
X128587500Y-99314000D03*
D16*
X111315500Y-87503000D03*
X108775500Y-87503000D03*
D17*
X106235500Y-87503000D03*
D16*
X111315500Y-84391500D03*
X108775500Y-84391500D03*
D17*
X106235500Y-84391500D03*
D21*
X87857500Y-115379500D03*
X93657500Y-115379500D03*
D22*
X94257500Y-115379500D03*
X87257500Y-115379500D03*
D23*
X89757500Y-115379500D03*
D24*
X93257500Y-112679500D03*
D25*
X90757500Y-112679500D03*
X91407500Y-112679500D03*
X92057500Y-112679500D03*
X89457500Y-112679500D03*
X90107500Y-112679500D03*
D24*
X88257500Y-112679500D03*
D23*
X91757500Y-115379500D03*
D16*
X107061000Y-114871500D03*
X107061000Y-112331500D03*
X107061000Y-109791500D03*
D17*
X107061000Y-107251500D03*
D16*
X103314500Y-114871500D03*
X103314500Y-112331500D03*
X103314500Y-109791500D03*
D17*
X103314500Y-107251500D03*
D11*
G36*
X100041789Y-83656413D02*
G01*
X100070278Y-83660639D01*
X100098215Y-83667637D01*
X100125332Y-83677340D01*
X100151367Y-83689653D01*
X100176070Y-83704460D01*
X100199203Y-83721616D01*
X100220543Y-83740957D01*
X100239884Y-83762297D01*
X100257040Y-83785430D01*
X100271847Y-83810133D01*
X100284160Y-83836168D01*
X100293863Y-83863285D01*
X100300861Y-83891222D01*
X100305087Y-83919711D01*
X100306500Y-83948477D01*
X100306500Y-84961523D01*
X100305087Y-84990289D01*
X100300861Y-85018778D01*
X100293863Y-85046715D01*
X100284160Y-85073832D01*
X100271847Y-85099867D01*
X100257040Y-85124570D01*
X100239884Y-85147703D01*
X100220543Y-85169043D01*
X100199203Y-85188384D01*
X100176070Y-85205540D01*
X100151367Y-85220347D01*
X100125332Y-85232660D01*
X100098215Y-85242363D01*
X100070278Y-85249361D01*
X100041789Y-85253587D01*
X100013023Y-85255000D01*
X99249977Y-85255000D01*
X99221211Y-85253587D01*
X99192722Y-85249361D01*
X99164785Y-85242363D01*
X99137668Y-85232660D01*
X99111633Y-85220347D01*
X99086930Y-85205540D01*
X99063797Y-85188384D01*
X99042457Y-85169043D01*
X99023116Y-85147703D01*
X99005960Y-85124570D01*
X98991153Y-85099867D01*
X98978840Y-85073832D01*
X98969137Y-85046715D01*
X98962139Y-85018778D01*
X98957913Y-84990289D01*
X98956500Y-84961523D01*
X98956500Y-83948477D01*
X98957913Y-83919711D01*
X98962139Y-83891222D01*
X98969137Y-83863285D01*
X98978840Y-83836168D01*
X98991153Y-83810133D01*
X99005960Y-83785430D01*
X99023116Y-83762297D01*
X99042457Y-83740957D01*
X99063797Y-83721616D01*
X99086930Y-83704460D01*
X99111633Y-83689653D01*
X99137668Y-83677340D01*
X99164785Y-83667637D01*
X99192722Y-83660639D01*
X99221211Y-83656413D01*
X99249977Y-83655000D01*
X100013023Y-83655000D01*
X100041789Y-83656413D01*
X100041789Y-83656413D01*
G37*
D12*
X99631500Y-84455000D03*
D11*
G36*
X102091789Y-83656413D02*
G01*
X102120278Y-83660639D01*
X102148215Y-83667637D01*
X102175332Y-83677340D01*
X102201367Y-83689653D01*
X102226070Y-83704460D01*
X102249203Y-83721616D01*
X102270543Y-83740957D01*
X102289884Y-83762297D01*
X102307040Y-83785430D01*
X102321847Y-83810133D01*
X102334160Y-83836168D01*
X102343863Y-83863285D01*
X102350861Y-83891222D01*
X102355087Y-83919711D01*
X102356500Y-83948477D01*
X102356500Y-84961523D01*
X102355087Y-84990289D01*
X102350861Y-85018778D01*
X102343863Y-85046715D01*
X102334160Y-85073832D01*
X102321847Y-85099867D01*
X102307040Y-85124570D01*
X102289884Y-85147703D01*
X102270543Y-85169043D01*
X102249203Y-85188384D01*
X102226070Y-85205540D01*
X102201367Y-85220347D01*
X102175332Y-85232660D01*
X102148215Y-85242363D01*
X102120278Y-85249361D01*
X102091789Y-85253587D01*
X102063023Y-85255000D01*
X101299977Y-85255000D01*
X101271211Y-85253587D01*
X101242722Y-85249361D01*
X101214785Y-85242363D01*
X101187668Y-85232660D01*
X101161633Y-85220347D01*
X101136930Y-85205540D01*
X101113797Y-85188384D01*
X101092457Y-85169043D01*
X101073116Y-85147703D01*
X101055960Y-85124570D01*
X101041153Y-85099867D01*
X101028840Y-85073832D01*
X101019137Y-85046715D01*
X101012139Y-85018778D01*
X101007913Y-84990289D01*
X101006500Y-84961523D01*
X101006500Y-83948477D01*
X101007913Y-83919711D01*
X101012139Y-83891222D01*
X101019137Y-83863285D01*
X101028840Y-83836168D01*
X101041153Y-83810133D01*
X101055960Y-83785430D01*
X101073116Y-83762297D01*
X101092457Y-83740957D01*
X101113797Y-83721616D01*
X101136930Y-83704460D01*
X101161633Y-83689653D01*
X101187668Y-83677340D01*
X101214785Y-83667637D01*
X101242722Y-83660639D01*
X101271211Y-83656413D01*
X101299977Y-83655000D01*
X102063023Y-83655000D01*
X102091789Y-83656413D01*
X102091789Y-83656413D01*
G37*
D12*
X101681500Y-84455000D03*
D11*
G36*
X129959289Y-104039913D02*
G01*
X129987778Y-104044139D01*
X130015715Y-104051137D01*
X130042832Y-104060840D01*
X130068867Y-104073153D01*
X130093570Y-104087960D01*
X130116703Y-104105116D01*
X130138043Y-104124457D01*
X130157384Y-104145797D01*
X130174540Y-104168930D01*
X130189347Y-104193633D01*
X130201660Y-104219668D01*
X130211363Y-104246785D01*
X130218361Y-104274722D01*
X130222587Y-104303211D01*
X130224000Y-104331977D01*
X130224000Y-105345023D01*
X130222587Y-105373789D01*
X130218361Y-105402278D01*
X130211363Y-105430215D01*
X130201660Y-105457332D01*
X130189347Y-105483367D01*
X130174540Y-105508070D01*
X130157384Y-105531203D01*
X130138043Y-105552543D01*
X130116703Y-105571884D01*
X130093570Y-105589040D01*
X130068867Y-105603847D01*
X130042832Y-105616160D01*
X130015715Y-105625863D01*
X129987778Y-105632861D01*
X129959289Y-105637087D01*
X129930523Y-105638500D01*
X129167477Y-105638500D01*
X129138711Y-105637087D01*
X129110222Y-105632861D01*
X129082285Y-105625863D01*
X129055168Y-105616160D01*
X129029133Y-105603847D01*
X129004430Y-105589040D01*
X128981297Y-105571884D01*
X128959957Y-105552543D01*
X128940616Y-105531203D01*
X128923460Y-105508070D01*
X128908653Y-105483367D01*
X128896340Y-105457332D01*
X128886637Y-105430215D01*
X128879639Y-105402278D01*
X128875413Y-105373789D01*
X128874000Y-105345023D01*
X128874000Y-104331977D01*
X128875413Y-104303211D01*
X128879639Y-104274722D01*
X128886637Y-104246785D01*
X128896340Y-104219668D01*
X128908653Y-104193633D01*
X128923460Y-104168930D01*
X128940616Y-104145797D01*
X128959957Y-104124457D01*
X128981297Y-104105116D01*
X129004430Y-104087960D01*
X129029133Y-104073153D01*
X129055168Y-104060840D01*
X129082285Y-104051137D01*
X129110222Y-104044139D01*
X129138711Y-104039913D01*
X129167477Y-104038500D01*
X129930523Y-104038500D01*
X129959289Y-104039913D01*
X129959289Y-104039913D01*
G37*
D12*
X129549000Y-104838500D03*
D11*
G36*
X127909289Y-104039913D02*
G01*
X127937778Y-104044139D01*
X127965715Y-104051137D01*
X127992832Y-104060840D01*
X128018867Y-104073153D01*
X128043570Y-104087960D01*
X128066703Y-104105116D01*
X128088043Y-104124457D01*
X128107384Y-104145797D01*
X128124540Y-104168930D01*
X128139347Y-104193633D01*
X128151660Y-104219668D01*
X128161363Y-104246785D01*
X128168361Y-104274722D01*
X128172587Y-104303211D01*
X128174000Y-104331977D01*
X128174000Y-105345023D01*
X128172587Y-105373789D01*
X128168361Y-105402278D01*
X128161363Y-105430215D01*
X128151660Y-105457332D01*
X128139347Y-105483367D01*
X128124540Y-105508070D01*
X128107384Y-105531203D01*
X128088043Y-105552543D01*
X128066703Y-105571884D01*
X128043570Y-105589040D01*
X128018867Y-105603847D01*
X127992832Y-105616160D01*
X127965715Y-105625863D01*
X127937778Y-105632861D01*
X127909289Y-105637087D01*
X127880523Y-105638500D01*
X127117477Y-105638500D01*
X127088711Y-105637087D01*
X127060222Y-105632861D01*
X127032285Y-105625863D01*
X127005168Y-105616160D01*
X126979133Y-105603847D01*
X126954430Y-105589040D01*
X126931297Y-105571884D01*
X126909957Y-105552543D01*
X126890616Y-105531203D01*
X126873460Y-105508070D01*
X126858653Y-105483367D01*
X126846340Y-105457332D01*
X126836637Y-105430215D01*
X126829639Y-105402278D01*
X126825413Y-105373789D01*
X126824000Y-105345023D01*
X126824000Y-104331977D01*
X126825413Y-104303211D01*
X126829639Y-104274722D01*
X126836637Y-104246785D01*
X126846340Y-104219668D01*
X126858653Y-104193633D01*
X126873460Y-104168930D01*
X126890616Y-104145797D01*
X126909957Y-104124457D01*
X126931297Y-104105116D01*
X126954430Y-104087960D01*
X126979133Y-104073153D01*
X127005168Y-104060840D01*
X127032285Y-104051137D01*
X127060222Y-104044139D01*
X127088711Y-104039913D01*
X127117477Y-104038500D01*
X127880523Y-104038500D01*
X127909289Y-104039913D01*
X127909289Y-104039913D01*
G37*
D12*
X127499000Y-104838500D03*
D11*
G36*
X98960289Y-114397413D02*
G01*
X98988778Y-114401639D01*
X99016715Y-114408637D01*
X99043832Y-114418340D01*
X99069867Y-114430653D01*
X99094570Y-114445460D01*
X99117703Y-114462616D01*
X99139043Y-114481957D01*
X99158384Y-114503297D01*
X99175540Y-114526430D01*
X99190347Y-114551133D01*
X99202660Y-114577168D01*
X99212363Y-114604285D01*
X99219361Y-114632222D01*
X99223587Y-114660711D01*
X99225000Y-114689477D01*
X99225000Y-115452523D01*
X99223587Y-115481289D01*
X99219361Y-115509778D01*
X99212363Y-115537715D01*
X99202660Y-115564832D01*
X99190347Y-115590867D01*
X99175540Y-115615570D01*
X99158384Y-115638703D01*
X99139043Y-115660043D01*
X99117703Y-115679384D01*
X99094570Y-115696540D01*
X99069867Y-115711347D01*
X99043832Y-115723660D01*
X99016715Y-115733363D01*
X98988778Y-115740361D01*
X98960289Y-115744587D01*
X98931523Y-115746000D01*
X97918477Y-115746000D01*
X97889711Y-115744587D01*
X97861222Y-115740361D01*
X97833285Y-115733363D01*
X97806168Y-115723660D01*
X97780133Y-115711347D01*
X97755430Y-115696540D01*
X97732297Y-115679384D01*
X97710957Y-115660043D01*
X97691616Y-115638703D01*
X97674460Y-115615570D01*
X97659653Y-115590867D01*
X97647340Y-115564832D01*
X97637637Y-115537715D01*
X97630639Y-115509778D01*
X97626413Y-115481289D01*
X97625000Y-115452523D01*
X97625000Y-114689477D01*
X97626413Y-114660711D01*
X97630639Y-114632222D01*
X97637637Y-114604285D01*
X97647340Y-114577168D01*
X97659653Y-114551133D01*
X97674460Y-114526430D01*
X97691616Y-114503297D01*
X97710957Y-114481957D01*
X97732297Y-114462616D01*
X97755430Y-114445460D01*
X97780133Y-114430653D01*
X97806168Y-114418340D01*
X97833285Y-114408637D01*
X97861222Y-114401639D01*
X97889711Y-114397413D01*
X97918477Y-114396000D01*
X98931523Y-114396000D01*
X98960289Y-114397413D01*
X98960289Y-114397413D01*
G37*
D12*
X98425000Y-115071000D03*
D11*
G36*
X98960289Y-112347413D02*
G01*
X98988778Y-112351639D01*
X99016715Y-112358637D01*
X99043832Y-112368340D01*
X99069867Y-112380653D01*
X99094570Y-112395460D01*
X99117703Y-112412616D01*
X99139043Y-112431957D01*
X99158384Y-112453297D01*
X99175540Y-112476430D01*
X99190347Y-112501133D01*
X99202660Y-112527168D01*
X99212363Y-112554285D01*
X99219361Y-112582222D01*
X99223587Y-112610711D01*
X99225000Y-112639477D01*
X99225000Y-113402523D01*
X99223587Y-113431289D01*
X99219361Y-113459778D01*
X99212363Y-113487715D01*
X99202660Y-113514832D01*
X99190347Y-113540867D01*
X99175540Y-113565570D01*
X99158384Y-113588703D01*
X99139043Y-113610043D01*
X99117703Y-113629384D01*
X99094570Y-113646540D01*
X99069867Y-113661347D01*
X99043832Y-113673660D01*
X99016715Y-113683363D01*
X98988778Y-113690361D01*
X98960289Y-113694587D01*
X98931523Y-113696000D01*
X97918477Y-113696000D01*
X97889711Y-113694587D01*
X97861222Y-113690361D01*
X97833285Y-113683363D01*
X97806168Y-113673660D01*
X97780133Y-113661347D01*
X97755430Y-113646540D01*
X97732297Y-113629384D01*
X97710957Y-113610043D01*
X97691616Y-113588703D01*
X97674460Y-113565570D01*
X97659653Y-113540867D01*
X97647340Y-113514832D01*
X97637637Y-113487715D01*
X97630639Y-113459778D01*
X97626413Y-113431289D01*
X97625000Y-113402523D01*
X97625000Y-112639477D01*
X97626413Y-112610711D01*
X97630639Y-112582222D01*
X97637637Y-112554285D01*
X97647340Y-112527168D01*
X97659653Y-112501133D01*
X97674460Y-112476430D01*
X97691616Y-112453297D01*
X97710957Y-112431957D01*
X97732297Y-112412616D01*
X97755430Y-112395460D01*
X97780133Y-112380653D01*
X97806168Y-112368340D01*
X97833285Y-112358637D01*
X97861222Y-112351639D01*
X97889711Y-112347413D01*
X97918477Y-112346000D01*
X98931523Y-112346000D01*
X98960289Y-112347413D01*
X98960289Y-112347413D01*
G37*
D12*
X98425000Y-113021000D03*
D11*
G36*
X87287289Y-106833913D02*
G01*
X87315778Y-106838139D01*
X87343715Y-106845137D01*
X87370832Y-106854840D01*
X87396867Y-106867153D01*
X87421570Y-106881960D01*
X87444703Y-106899116D01*
X87466043Y-106918457D01*
X87485384Y-106939797D01*
X87502540Y-106962930D01*
X87517347Y-106987633D01*
X87529660Y-107013668D01*
X87539363Y-107040785D01*
X87546361Y-107068722D01*
X87550587Y-107097211D01*
X87552000Y-107125977D01*
X87552000Y-108139023D01*
X87550587Y-108167789D01*
X87546361Y-108196278D01*
X87539363Y-108224215D01*
X87529660Y-108251332D01*
X87517347Y-108277367D01*
X87502540Y-108302070D01*
X87485384Y-108325203D01*
X87466043Y-108346543D01*
X87444703Y-108365884D01*
X87421570Y-108383040D01*
X87396867Y-108397847D01*
X87370832Y-108410160D01*
X87343715Y-108419863D01*
X87315778Y-108426861D01*
X87287289Y-108431087D01*
X87258523Y-108432500D01*
X86495477Y-108432500D01*
X86466711Y-108431087D01*
X86438222Y-108426861D01*
X86410285Y-108419863D01*
X86383168Y-108410160D01*
X86357133Y-108397847D01*
X86332430Y-108383040D01*
X86309297Y-108365884D01*
X86287957Y-108346543D01*
X86268616Y-108325203D01*
X86251460Y-108302070D01*
X86236653Y-108277367D01*
X86224340Y-108251332D01*
X86214637Y-108224215D01*
X86207639Y-108196278D01*
X86203413Y-108167789D01*
X86202000Y-108139023D01*
X86202000Y-107125977D01*
X86203413Y-107097211D01*
X86207639Y-107068722D01*
X86214637Y-107040785D01*
X86224340Y-107013668D01*
X86236653Y-106987633D01*
X86251460Y-106962930D01*
X86268616Y-106939797D01*
X86287957Y-106918457D01*
X86309297Y-106899116D01*
X86332430Y-106881960D01*
X86357133Y-106867153D01*
X86383168Y-106854840D01*
X86410285Y-106845137D01*
X86438222Y-106838139D01*
X86466711Y-106833913D01*
X86495477Y-106832500D01*
X87258523Y-106832500D01*
X87287289Y-106833913D01*
X87287289Y-106833913D01*
G37*
D12*
X86877000Y-107632500D03*
D11*
G36*
X85237289Y-106833913D02*
G01*
X85265778Y-106838139D01*
X85293715Y-106845137D01*
X85320832Y-106854840D01*
X85346867Y-106867153D01*
X85371570Y-106881960D01*
X85394703Y-106899116D01*
X85416043Y-106918457D01*
X85435384Y-106939797D01*
X85452540Y-106962930D01*
X85467347Y-106987633D01*
X85479660Y-107013668D01*
X85489363Y-107040785D01*
X85496361Y-107068722D01*
X85500587Y-107097211D01*
X85502000Y-107125977D01*
X85502000Y-108139023D01*
X85500587Y-108167789D01*
X85496361Y-108196278D01*
X85489363Y-108224215D01*
X85479660Y-108251332D01*
X85467347Y-108277367D01*
X85452540Y-108302070D01*
X85435384Y-108325203D01*
X85416043Y-108346543D01*
X85394703Y-108365884D01*
X85371570Y-108383040D01*
X85346867Y-108397847D01*
X85320832Y-108410160D01*
X85293715Y-108419863D01*
X85265778Y-108426861D01*
X85237289Y-108431087D01*
X85208523Y-108432500D01*
X84445477Y-108432500D01*
X84416711Y-108431087D01*
X84388222Y-108426861D01*
X84360285Y-108419863D01*
X84333168Y-108410160D01*
X84307133Y-108397847D01*
X84282430Y-108383040D01*
X84259297Y-108365884D01*
X84237957Y-108346543D01*
X84218616Y-108325203D01*
X84201460Y-108302070D01*
X84186653Y-108277367D01*
X84174340Y-108251332D01*
X84164637Y-108224215D01*
X84157639Y-108196278D01*
X84153413Y-108167789D01*
X84152000Y-108139023D01*
X84152000Y-107125977D01*
X84153413Y-107097211D01*
X84157639Y-107068722D01*
X84164637Y-107040785D01*
X84174340Y-107013668D01*
X84186653Y-106987633D01*
X84201460Y-106962930D01*
X84218616Y-106939797D01*
X84237957Y-106918457D01*
X84259297Y-106899116D01*
X84282430Y-106881960D01*
X84307133Y-106867153D01*
X84333168Y-106854840D01*
X84360285Y-106845137D01*
X84388222Y-106838139D01*
X84416711Y-106833913D01*
X84445477Y-106832500D01*
X85208523Y-106832500D01*
X85237289Y-106833913D01*
X85237289Y-106833913D01*
G37*
D12*
X84827000Y-107632500D03*
D11*
G36*
X87223789Y-103404913D02*
G01*
X87252278Y-103409139D01*
X87280215Y-103416137D01*
X87307332Y-103425840D01*
X87333367Y-103438153D01*
X87358070Y-103452960D01*
X87381203Y-103470116D01*
X87402543Y-103489457D01*
X87421884Y-103510797D01*
X87439040Y-103533930D01*
X87453847Y-103558633D01*
X87466160Y-103584668D01*
X87475863Y-103611785D01*
X87482861Y-103639722D01*
X87487087Y-103668211D01*
X87488500Y-103696977D01*
X87488500Y-104710023D01*
X87487087Y-104738789D01*
X87482861Y-104767278D01*
X87475863Y-104795215D01*
X87466160Y-104822332D01*
X87453847Y-104848367D01*
X87439040Y-104873070D01*
X87421884Y-104896203D01*
X87402543Y-104917543D01*
X87381203Y-104936884D01*
X87358070Y-104954040D01*
X87333367Y-104968847D01*
X87307332Y-104981160D01*
X87280215Y-104990863D01*
X87252278Y-104997861D01*
X87223789Y-105002087D01*
X87195023Y-105003500D01*
X86431977Y-105003500D01*
X86403211Y-105002087D01*
X86374722Y-104997861D01*
X86346785Y-104990863D01*
X86319668Y-104981160D01*
X86293633Y-104968847D01*
X86268930Y-104954040D01*
X86245797Y-104936884D01*
X86224457Y-104917543D01*
X86205116Y-104896203D01*
X86187960Y-104873070D01*
X86173153Y-104848367D01*
X86160840Y-104822332D01*
X86151137Y-104795215D01*
X86144139Y-104767278D01*
X86139913Y-104738789D01*
X86138500Y-104710023D01*
X86138500Y-103696977D01*
X86139913Y-103668211D01*
X86144139Y-103639722D01*
X86151137Y-103611785D01*
X86160840Y-103584668D01*
X86173153Y-103558633D01*
X86187960Y-103533930D01*
X86205116Y-103510797D01*
X86224457Y-103489457D01*
X86245797Y-103470116D01*
X86268930Y-103452960D01*
X86293633Y-103438153D01*
X86319668Y-103425840D01*
X86346785Y-103416137D01*
X86374722Y-103409139D01*
X86403211Y-103404913D01*
X86431977Y-103403500D01*
X87195023Y-103403500D01*
X87223789Y-103404913D01*
X87223789Y-103404913D01*
G37*
D12*
X86813500Y-104203500D03*
D11*
G36*
X85173789Y-103404913D02*
G01*
X85202278Y-103409139D01*
X85230215Y-103416137D01*
X85257332Y-103425840D01*
X85283367Y-103438153D01*
X85308070Y-103452960D01*
X85331203Y-103470116D01*
X85352543Y-103489457D01*
X85371884Y-103510797D01*
X85389040Y-103533930D01*
X85403847Y-103558633D01*
X85416160Y-103584668D01*
X85425863Y-103611785D01*
X85432861Y-103639722D01*
X85437087Y-103668211D01*
X85438500Y-103696977D01*
X85438500Y-104710023D01*
X85437087Y-104738789D01*
X85432861Y-104767278D01*
X85425863Y-104795215D01*
X85416160Y-104822332D01*
X85403847Y-104848367D01*
X85389040Y-104873070D01*
X85371884Y-104896203D01*
X85352543Y-104917543D01*
X85331203Y-104936884D01*
X85308070Y-104954040D01*
X85283367Y-104968847D01*
X85257332Y-104981160D01*
X85230215Y-104990863D01*
X85202278Y-104997861D01*
X85173789Y-105002087D01*
X85145023Y-105003500D01*
X84381977Y-105003500D01*
X84353211Y-105002087D01*
X84324722Y-104997861D01*
X84296785Y-104990863D01*
X84269668Y-104981160D01*
X84243633Y-104968847D01*
X84218930Y-104954040D01*
X84195797Y-104936884D01*
X84174457Y-104917543D01*
X84155116Y-104896203D01*
X84137960Y-104873070D01*
X84123153Y-104848367D01*
X84110840Y-104822332D01*
X84101137Y-104795215D01*
X84094139Y-104767278D01*
X84089913Y-104738789D01*
X84088500Y-104710023D01*
X84088500Y-103696977D01*
X84089913Y-103668211D01*
X84094139Y-103639722D01*
X84101137Y-103611785D01*
X84110840Y-103584668D01*
X84123153Y-103558633D01*
X84137960Y-103533930D01*
X84155116Y-103510797D01*
X84174457Y-103489457D01*
X84195797Y-103470116D01*
X84218930Y-103452960D01*
X84243633Y-103438153D01*
X84269668Y-103425840D01*
X84296785Y-103416137D01*
X84324722Y-103409139D01*
X84353211Y-103404913D01*
X84381977Y-103403500D01*
X85145023Y-103403500D01*
X85173789Y-103404913D01*
X85173789Y-103404913D01*
G37*
D12*
X84763500Y-104203500D03*
D11*
G36*
X87223789Y-100039413D02*
G01*
X87252278Y-100043639D01*
X87280215Y-100050637D01*
X87307332Y-100060340D01*
X87333367Y-100072653D01*
X87358070Y-100087460D01*
X87381203Y-100104616D01*
X87402543Y-100123957D01*
X87421884Y-100145297D01*
X87439040Y-100168430D01*
X87453847Y-100193133D01*
X87466160Y-100219168D01*
X87475863Y-100246285D01*
X87482861Y-100274222D01*
X87487087Y-100302711D01*
X87488500Y-100331477D01*
X87488500Y-101344523D01*
X87487087Y-101373289D01*
X87482861Y-101401778D01*
X87475863Y-101429715D01*
X87466160Y-101456832D01*
X87453847Y-101482867D01*
X87439040Y-101507570D01*
X87421884Y-101530703D01*
X87402543Y-101552043D01*
X87381203Y-101571384D01*
X87358070Y-101588540D01*
X87333367Y-101603347D01*
X87307332Y-101615660D01*
X87280215Y-101625363D01*
X87252278Y-101632361D01*
X87223789Y-101636587D01*
X87195023Y-101638000D01*
X86431977Y-101638000D01*
X86403211Y-101636587D01*
X86374722Y-101632361D01*
X86346785Y-101625363D01*
X86319668Y-101615660D01*
X86293633Y-101603347D01*
X86268930Y-101588540D01*
X86245797Y-101571384D01*
X86224457Y-101552043D01*
X86205116Y-101530703D01*
X86187960Y-101507570D01*
X86173153Y-101482867D01*
X86160840Y-101456832D01*
X86151137Y-101429715D01*
X86144139Y-101401778D01*
X86139913Y-101373289D01*
X86138500Y-101344523D01*
X86138500Y-100331477D01*
X86139913Y-100302711D01*
X86144139Y-100274222D01*
X86151137Y-100246285D01*
X86160840Y-100219168D01*
X86173153Y-100193133D01*
X86187960Y-100168430D01*
X86205116Y-100145297D01*
X86224457Y-100123957D01*
X86245797Y-100104616D01*
X86268930Y-100087460D01*
X86293633Y-100072653D01*
X86319668Y-100060340D01*
X86346785Y-100050637D01*
X86374722Y-100043639D01*
X86403211Y-100039413D01*
X86431977Y-100038000D01*
X87195023Y-100038000D01*
X87223789Y-100039413D01*
X87223789Y-100039413D01*
G37*
D12*
X86813500Y-100838000D03*
D11*
G36*
X85173789Y-100039413D02*
G01*
X85202278Y-100043639D01*
X85230215Y-100050637D01*
X85257332Y-100060340D01*
X85283367Y-100072653D01*
X85308070Y-100087460D01*
X85331203Y-100104616D01*
X85352543Y-100123957D01*
X85371884Y-100145297D01*
X85389040Y-100168430D01*
X85403847Y-100193133D01*
X85416160Y-100219168D01*
X85425863Y-100246285D01*
X85432861Y-100274222D01*
X85437087Y-100302711D01*
X85438500Y-100331477D01*
X85438500Y-101344523D01*
X85437087Y-101373289D01*
X85432861Y-101401778D01*
X85425863Y-101429715D01*
X85416160Y-101456832D01*
X85403847Y-101482867D01*
X85389040Y-101507570D01*
X85371884Y-101530703D01*
X85352543Y-101552043D01*
X85331203Y-101571384D01*
X85308070Y-101588540D01*
X85283367Y-101603347D01*
X85257332Y-101615660D01*
X85230215Y-101625363D01*
X85202278Y-101632361D01*
X85173789Y-101636587D01*
X85145023Y-101638000D01*
X84381977Y-101638000D01*
X84353211Y-101636587D01*
X84324722Y-101632361D01*
X84296785Y-101625363D01*
X84269668Y-101615660D01*
X84243633Y-101603347D01*
X84218930Y-101588540D01*
X84195797Y-101571384D01*
X84174457Y-101552043D01*
X84155116Y-101530703D01*
X84137960Y-101507570D01*
X84123153Y-101482867D01*
X84110840Y-101456832D01*
X84101137Y-101429715D01*
X84094139Y-101401778D01*
X84089913Y-101373289D01*
X84088500Y-101344523D01*
X84088500Y-100331477D01*
X84089913Y-100302711D01*
X84094139Y-100274222D01*
X84101137Y-100246285D01*
X84110840Y-100219168D01*
X84123153Y-100193133D01*
X84137960Y-100168430D01*
X84155116Y-100145297D01*
X84174457Y-100123957D01*
X84195797Y-100104616D01*
X84218930Y-100087460D01*
X84243633Y-100072653D01*
X84269668Y-100060340D01*
X84296785Y-100050637D01*
X84324722Y-100043639D01*
X84353211Y-100039413D01*
X84381977Y-100038000D01*
X85145023Y-100038000D01*
X85173789Y-100039413D01*
X85173789Y-100039413D01*
G37*
D12*
X84763500Y-100838000D03*
D11*
G36*
X87287289Y-96610413D02*
G01*
X87315778Y-96614639D01*
X87343715Y-96621637D01*
X87370832Y-96631340D01*
X87396867Y-96643653D01*
X87421570Y-96658460D01*
X87444703Y-96675616D01*
X87466043Y-96694957D01*
X87485384Y-96716297D01*
X87502540Y-96739430D01*
X87517347Y-96764133D01*
X87529660Y-96790168D01*
X87539363Y-96817285D01*
X87546361Y-96845222D01*
X87550587Y-96873711D01*
X87552000Y-96902477D01*
X87552000Y-97915523D01*
X87550587Y-97944289D01*
X87546361Y-97972778D01*
X87539363Y-98000715D01*
X87529660Y-98027832D01*
X87517347Y-98053867D01*
X87502540Y-98078570D01*
X87485384Y-98101703D01*
X87466043Y-98123043D01*
X87444703Y-98142384D01*
X87421570Y-98159540D01*
X87396867Y-98174347D01*
X87370832Y-98186660D01*
X87343715Y-98196363D01*
X87315778Y-98203361D01*
X87287289Y-98207587D01*
X87258523Y-98209000D01*
X86495477Y-98209000D01*
X86466711Y-98207587D01*
X86438222Y-98203361D01*
X86410285Y-98196363D01*
X86383168Y-98186660D01*
X86357133Y-98174347D01*
X86332430Y-98159540D01*
X86309297Y-98142384D01*
X86287957Y-98123043D01*
X86268616Y-98101703D01*
X86251460Y-98078570D01*
X86236653Y-98053867D01*
X86224340Y-98027832D01*
X86214637Y-98000715D01*
X86207639Y-97972778D01*
X86203413Y-97944289D01*
X86202000Y-97915523D01*
X86202000Y-96902477D01*
X86203413Y-96873711D01*
X86207639Y-96845222D01*
X86214637Y-96817285D01*
X86224340Y-96790168D01*
X86236653Y-96764133D01*
X86251460Y-96739430D01*
X86268616Y-96716297D01*
X86287957Y-96694957D01*
X86309297Y-96675616D01*
X86332430Y-96658460D01*
X86357133Y-96643653D01*
X86383168Y-96631340D01*
X86410285Y-96621637D01*
X86438222Y-96614639D01*
X86466711Y-96610413D01*
X86495477Y-96609000D01*
X87258523Y-96609000D01*
X87287289Y-96610413D01*
X87287289Y-96610413D01*
G37*
D12*
X86877000Y-97409000D03*
D11*
G36*
X85237289Y-96610413D02*
G01*
X85265778Y-96614639D01*
X85293715Y-96621637D01*
X85320832Y-96631340D01*
X85346867Y-96643653D01*
X85371570Y-96658460D01*
X85394703Y-96675616D01*
X85416043Y-96694957D01*
X85435384Y-96716297D01*
X85452540Y-96739430D01*
X85467347Y-96764133D01*
X85479660Y-96790168D01*
X85489363Y-96817285D01*
X85496361Y-96845222D01*
X85500587Y-96873711D01*
X85502000Y-96902477D01*
X85502000Y-97915523D01*
X85500587Y-97944289D01*
X85496361Y-97972778D01*
X85489363Y-98000715D01*
X85479660Y-98027832D01*
X85467347Y-98053867D01*
X85452540Y-98078570D01*
X85435384Y-98101703D01*
X85416043Y-98123043D01*
X85394703Y-98142384D01*
X85371570Y-98159540D01*
X85346867Y-98174347D01*
X85320832Y-98186660D01*
X85293715Y-98196363D01*
X85265778Y-98203361D01*
X85237289Y-98207587D01*
X85208523Y-98209000D01*
X84445477Y-98209000D01*
X84416711Y-98207587D01*
X84388222Y-98203361D01*
X84360285Y-98196363D01*
X84333168Y-98186660D01*
X84307133Y-98174347D01*
X84282430Y-98159540D01*
X84259297Y-98142384D01*
X84237957Y-98123043D01*
X84218616Y-98101703D01*
X84201460Y-98078570D01*
X84186653Y-98053867D01*
X84174340Y-98027832D01*
X84164637Y-98000715D01*
X84157639Y-97972778D01*
X84153413Y-97944289D01*
X84152000Y-97915523D01*
X84152000Y-96902477D01*
X84153413Y-96873711D01*
X84157639Y-96845222D01*
X84164637Y-96817285D01*
X84174340Y-96790168D01*
X84186653Y-96764133D01*
X84201460Y-96739430D01*
X84218616Y-96716297D01*
X84237957Y-96694957D01*
X84259297Y-96675616D01*
X84282430Y-96658460D01*
X84307133Y-96643653D01*
X84333168Y-96631340D01*
X84360285Y-96621637D01*
X84388222Y-96614639D01*
X84416711Y-96610413D01*
X84445477Y-96609000D01*
X85208523Y-96609000D01*
X85237289Y-96610413D01*
X85237289Y-96610413D01*
G37*
D12*
X84827000Y-97409000D03*
D26*
X127081000Y-82632000D03*
X126441000Y-82632000D03*
X125801000Y-82632000D03*
X125161000Y-82632000D03*
X124521000Y-82632000D03*
X123881000Y-82632000D03*
X123241000Y-82632000D03*
X122601000Y-82632000D03*
X122601000Y-88056000D03*
X123241000Y-88056000D03*
X123881000Y-88056000D03*
X124521000Y-88056000D03*
X125161000Y-88056000D03*
X125801000Y-88056000D03*
X126441000Y-88056000D03*
X127081000Y-88056000D03*
X89881000Y-88183000D03*
X90521000Y-88183000D03*
X91161000Y-88183000D03*
X91801000Y-88183000D03*
X92441000Y-88183000D03*
X93081000Y-88183000D03*
X93721000Y-88183000D03*
X94361000Y-88183000D03*
X94361000Y-82759000D03*
X93721000Y-82759000D03*
X93081000Y-82759000D03*
X92441000Y-82759000D03*
X91801000Y-82759000D03*
X91161000Y-82759000D03*
X90521000Y-82759000D03*
X89881000Y-82759000D03*
D16*
X135180000Y-63050000D03*
X135180000Y-65590000D03*
X132640000Y-63050000D03*
X132640000Y-65590000D03*
X130100000Y-63050000D03*
X130100000Y-65590000D03*
X127560000Y-63050000D03*
X127560000Y-65590000D03*
X125020000Y-63050000D03*
X125020000Y-65590000D03*
X122480000Y-63050000D03*
X122480000Y-65590000D03*
X119940000Y-63050000D03*
X119940000Y-65590000D03*
X117400000Y-63050000D03*
X117400000Y-65590000D03*
X114860000Y-63050000D03*
X114860000Y-65590000D03*
X112320000Y-63050000D03*
X112320000Y-65590000D03*
X109780000Y-63050000D03*
X109780000Y-65590000D03*
X107240000Y-63050000D03*
X107240000Y-65590000D03*
X104700000Y-63050000D03*
X104700000Y-65590000D03*
X102160000Y-63050000D03*
X102160000Y-65590000D03*
X99620000Y-63050000D03*
X99620000Y-65590000D03*
X97080000Y-63050000D03*
X97080000Y-65590000D03*
X94540000Y-63050000D03*
X94540000Y-65590000D03*
X92000000Y-63050000D03*
X92000000Y-65590000D03*
X89460000Y-63050000D03*
X89460000Y-65590000D03*
X86920000Y-63050000D03*
D17*
X86920000Y-65590000D03*
D27*
X82040000Y-64310000D03*
X140040000Y-64330000D03*
X82040000Y-113320000D03*
X140030000Y-113310000D03*
M02*
